<svg xmlns="http://www.w3.org/2000/svg" viewBox="0 0 40.93 62.29"><defs><style>.cls-1{fill:#fff;}.cls-2{fill:#d6002b;}</style></defs><title>Fichier 50</title><g id="Calque_2" data-name="Calque 2"><g id="Layer_1" data-name="Layer 1"><rect class="cls-1" x="0.09" y="0.09" width="40.74" height="62.1" rx="3.45" ry="3.45"/><path class="cls-1" d="M37.39,62.29H3.54A3.55,3.55,0,0,1,0,58.74V3.54A3.55,3.55,0,0,1,3.54,0H37.39a3.55,3.55,0,0,1,3.54,3.54v55.2A3.55,3.55,0,0,1,37.39,62.29ZM3.54.19A3.36,3.36,0,0,0,.19,3.54v55.2A3.36,3.36,0,0,0,3.54,62.1H37.39a3.36,3.36,0,0,0,3.36-3.36V3.54A3.36,3.36,0,0,0,37.39.19Z"/><path class="cls-2" d="M5.29,12.71a.25.25,0,0,0,.13,0,15.14,15.14,0,0,0,1.3-1.24.21.21,0,0,0,.08-.16.23.23,0,0,0-.08-.12c-.34-.34-.69-.65-1-1-.14-.15-.3-.33-.4-.34H5.26c-.1,0-.26.18-.4.34-.32.35-.67.67-1,1a.23.23,0,0,0-.08.12.21.21,0,0,0,.08.16,15,15,0,0,0,1.3,1.24.25.25,0,0,0,.13,0Z"/><path class="cls-2" d="M35.66,52.24a.25.25,0,0,0,.13,0A14.7,14.7,0,0,0,37.09,51a.21.21,0,0,0,.08-.16.22.22,0,0,0-.08-.12c-.34-.34-.69-.65-1-1-.14-.15-.3-.33-.4-.33h-.05c-.1,0-.26.18-.4.33-.32.36-.67.67-1,1a.22.22,0,0,0-.08.12.21.21,0,0,0,.08.16,14.85,14.85,0,0,0,1.3,1.24.25.25,0,0,0,.13,0Z"/><path class="cls-2" d="M4.45,8.21v.54H2.29V8.21h.79V3.77A6.5,6.5,0,0,1,1.5,5V4.29A5.21,5.21,0,0,0,3.25,2.88h.52V8.21Z"/><path class="cls-2" d="M6.94,8.86A1.84,1.84,0,0,1,5.35,8a3.68,3.68,0,0,1-.59-2.14,3.8,3.8,0,0,1,.56-2.12,1.8,1.8,0,0,1,1.6-.86,1.81,1.81,0,0,1,1.64.9,4,4,0,0,1,.56,2.12A3.76,3.76,0,0,1,8.54,8,1.81,1.81,0,0,1,6.94,8.86Zm0-.57A1.15,1.15,0,0,0,8,7.63,3.51,3.51,0,0,0,8.37,6,4.07,4.07,0,0,0,8,4.16a1.17,1.17,0,0,0-1.1-.72,1.14,1.14,0,0,0-1.07.66,3.7,3.7,0,0,0-.35,1.74,3.68,3.68,0,0,0,.37,1.79A1.18,1.18,0,0,0,6.94,8.29Z"/><path class="cls-2" d="M36.48,54.08v-.54h2.16v.54h-.79v4.44a6.51,6.51,0,0,1,1.58-1.24V58a5.17,5.17,0,0,0-1.76,1.41h-.52V54.08Z"/><path class="cls-2" d="M34,53.42a1.84,1.84,0,0,1,1.59.86,3.67,3.67,0,0,1,.59,2.14,3.8,3.8,0,0,1-.56,2.12,1.92,1.92,0,0,1-3.23,0,3.94,3.94,0,0,1-.56-2.12,3.75,3.75,0,0,1,.57-2.08A1.81,1.81,0,0,1,34,53.42ZM34,54a1.14,1.14,0,0,0-1.08.66,3.52,3.52,0,0,0-.35,1.66,4.1,4.1,0,0,0,.36,1.82,1.17,1.17,0,0,0,1.1.72,1.15,1.15,0,0,0,1.07-.66,3.72,3.72,0,0,0,.35-1.74,3.69,3.69,0,0,0-.37-1.79A1.18,1.18,0,0,0,34,54Z"/><path class="cls-2" d="M14.1,13.21a.78.78,0,0,0,.44-.13A48.19,48.19,0,0,0,18.81,9a.69.69,0,0,0,.26-.52.72.72,0,0,0-.25-.4C17.71,7,16.54,5.92,15.5,4.76c-.45-.5-1-1.08-1.32-1.1H14c-.33,0-.87.6-1.32,1.1-1,1.17-2.21,2.21-3.32,3.31a.72.72,0,0,0-.25.4A.69.69,0,0,0,9.39,9a47.92,47.92,0,0,0,4.27,4.09.77.77,0,0,0,.44.13Z"/><path class="cls-2" d="M26.83,13.21a.78.78,0,0,0,.44-.13A48.05,48.05,0,0,0,31.54,9a.69.69,0,0,0,.26-.52.72.72,0,0,0-.25-.4C30.44,7,29.27,5.92,28.23,4.76c-.45-.5-1-1.08-1.32-1.1h-.17c-.33,0-.87.6-1.31,1.1-1,1.17-2.21,2.21-3.32,3.31a.72.72,0,0,0-.25.4.69.69,0,0,0,.26.52,48.05,48.05,0,0,0,4.27,4.09.77.77,0,0,0,.44.13Z"/><path class="cls-2" d="M14.1,30a.81.81,0,0,0,.44-.13,48.77,48.77,0,0,0,4.27-4.09.69.69,0,0,0,.26-.52.72.72,0,0,0-.25-.4c-1.11-1.11-2.28-2.15-3.32-3.31-.45-.5-1-1.08-1.32-1.1H14c-.33,0-.87.6-1.32,1.1-1,1.17-2.21,2.21-3.32,3.31a.72.72,0,0,0-.25.4.69.69,0,0,0,.26.52,48.49,48.49,0,0,0,4.27,4.09.8.8,0,0,0,.44.13Z"/><path class="cls-2" d="M26.83,30a.81.81,0,0,0,.44-.13,48.63,48.63,0,0,0,4.27-4.09.69.69,0,0,0,.26-.52.72.72,0,0,0-.25-.4c-1.11-1.11-2.28-2.15-3.32-3.31-.45-.5-1-1.08-1.32-1.1h-.17c-.33,0-.87.6-1.31,1.1-1,1.17-2.21,2.21-3.32,3.31a.72.72,0,0,0-.25.4.69.69,0,0,0,.26.52,48.63,48.63,0,0,0,4.27,4.09.8.8,0,0,0,.44.13Z"/><path class="cls-2" d="M20.47,21.76a.79.79,0,0,0,.44-.13,48.2,48.2,0,0,0,4.27-4.09.69.69,0,0,0,.26-.52.72.72,0,0,0-.25-.4c-1.11-1.11-2.28-2.15-3.32-3.31-.45-.5-1-1.08-1.32-1.1h-.17c-.33,0-.86.6-1.31,1.1-1,1.17-2.21,2.21-3.32,3.31a.72.72,0,0,0-.25.4.68.68,0,0,0,.26.52A48.46,48.46,0,0,0,20,21.63a.79.79,0,0,0,.44.13Z"/><path class="cls-2" d="M26.83,49.08a.79.79,0,0,0-.44.13,48.34,48.34,0,0,0-4.27,4.09.68.68,0,0,0-.26.52.71.71,0,0,0,.25.4c1.11,1.11,2.28,2.15,3.32,3.31.45.5,1,1.08,1.31,1.1h.17c.33,0,.87-.6,1.32-1.1,1-1.16,2.21-2.21,3.32-3.31a.72.72,0,0,0,.25-.4.68.68,0,0,0-.26-.52,48.34,48.34,0,0,0-4.27-4.09.79.79,0,0,0-.44-.13Z"/><path class="cls-2" d="M14.1,49.08a.79.79,0,0,0-.44.13A48.2,48.2,0,0,0,9.39,53.3a.68.68,0,0,0-.26.52.71.71,0,0,0,.25.4c1.11,1.11,2.28,2.15,3.32,3.31.45.5,1,1.08,1.32,1.1h.17c.33,0,.87-.6,1.32-1.1,1-1.16,2.21-2.21,3.32-3.31a.71.71,0,0,0,.25-.4.69.69,0,0,0-.26-.52,48.48,48.48,0,0,0-4.27-4.09.79.79,0,0,0-.44-.13Z"/><path class="cls-2" d="M26.83,32.29a.77.77,0,0,0-.44.13,48.34,48.34,0,0,0-4.27,4.09.68.68,0,0,0-.26.52.73.73,0,0,0,.25.4c1.11,1.1,2.28,2.15,3.32,3.31.45.5,1,1.08,1.31,1.1h.17c.33,0,.87-.6,1.32-1.1,1-1.16,2.21-2.21,3.32-3.31a.73.73,0,0,0,.25-.4.68.68,0,0,0-.26-.52,48.34,48.34,0,0,0-4.27-4.09.78.78,0,0,0-.44-.13Z"/><path class="cls-2" d="M14.1,32.29a.77.77,0,0,0-.44.13,48.2,48.2,0,0,0-4.27,4.09.68.68,0,0,0-.26.52.72.72,0,0,0,.25.4c1.11,1.1,2.28,2.15,3.32,3.31.45.5,1,1.08,1.32,1.1h.17c.33,0,.87-.6,1.32-1.1,1-1.16,2.21-2.21,3.32-3.31a.72.72,0,0,0,.25-.4.69.69,0,0,0-.26-.52,48.48,48.48,0,0,0-4.27-4.09.78.78,0,0,0-.44-.13Z"/><path class="cls-2" d="M20.46,40.53a.81.81,0,0,0-.44.13,48.75,48.75,0,0,0-4.27,4.09.69.69,0,0,0-.26.52.72.72,0,0,0,.25.4C16.85,46.77,18,47.81,19.07,49c.45.5,1,1.08,1.31,1.1h.17c.33,0,.87-.6,1.32-1.1,1-1.17,2.21-2.21,3.32-3.31a.72.72,0,0,0,.25-.4.69.69,0,0,0-.26-.52,48.49,48.49,0,0,0-4.27-4.09.81.81,0,0,0-.44-.13Z"/></g></g></svg>