<svg xmlns="http://www.w3.org/2000/svg" viewBox="0 0 40.93 62.29"><defs><style>.cls-1{fill:#fff;}.cls-2{fill:#d6002b;}</style></defs><title>Fichier 24</title><g id="Calque_2" data-name="Calque 2"><g id="Layer_1" data-name="Layer 1"><rect class="cls-1" x="0.09" y="0.09" width="40.74" height="62.1" rx="3.45" ry="3.45"/><path class="cls-1" d="M37.39,62.29H3.54A3.55,3.55,0,0,1,0,58.75V3.54A3.55,3.55,0,0,1,3.54,0H37.39a3.55,3.55,0,0,1,3.54,3.54v55.2A3.55,3.55,0,0,1,37.39,62.29ZM3.54.19A3.36,3.36,0,0,0,.19,3.54v55.2A3.36,3.36,0,0,0,3.54,62.1H37.39a3.36,3.36,0,0,0,3.36-3.36V3.54A3.36,3.36,0,0,0,37.39.19Z"/><path class="cls-2" d="M5.38,12.71c.17-.15.35-.27.53-.4a3.19,3.19,0,0,0,.57-.46,1.41,1.41,0,0,0,.26-.5,1.2,1.2,0,0,0,0-.78A.94.94,0,0,0,5,10.73a0,0,0,0,1,0,0h0a0,0,0,0,1,0,0,.94.94,0,0,0-1.74-.16,1.2,1.2,0,0,0,0,.78,1.41,1.41,0,0,0,.26.5,3.22,3.22,0,0,0,.57.46c.18.13.37.25.53.4s.46.48.46.48S5.29,12.79,5.38,12.71Z"/><path class="cls-2" d="M35.59,49.65c-.17.15-.35.27-.53.4a3.14,3.14,0,0,0-.57.46,1.39,1.39,0,0,0-.26.5,1.2,1.2,0,0,0,0,.78A.94.94,0,0,0,36,51.63a0,0,0,0,1,0,0h0a0,0,0,0,1,0,0,.94.94,0,0,0,1.74.16,1.19,1.19,0,0,0,0-.78,1.39,1.39,0,0,0-.26-.5,3.14,3.14,0,0,0-.57-.46c-.18-.13-.37-.25-.53-.4s-.46-.48-.46-.48S35.68,49.57,35.59,49.65Z"/><path class="cls-2" d="M4.07,8.21v.53H1.91V8.21h.79V3.77A6.55,6.55,0,0,1,1.12,5V4.29A5.19,5.19,0,0,0,2.88,2.88H3.4V8.21Z"/><path class="cls-2" d="M6.57,8.86A1.84,1.84,0,0,1,5,8a3.68,3.68,0,0,1-.59-2.14,3.79,3.79,0,0,1,.56-2.12,1.8,1.8,0,0,1,1.6-.86,1.81,1.81,0,0,1,1.64.9A3.94,3.94,0,0,1,8.74,5.9,3.75,3.75,0,0,1,8.17,8,1.8,1.8,0,0,1,6.57,8.86Zm0-.57a1.15,1.15,0,0,0,1.08-.66A3.51,3.51,0,0,0,8,6a4.09,4.09,0,0,0-.36-1.82,1.17,1.17,0,0,0-1.1-.72,1.14,1.14,0,0,0-1.07.66,3.71,3.71,0,0,0-.35,1.74,3.7,3.7,0,0,0,.37,1.79A1.18,1.18,0,0,0,6.57,8.29Z"/><path class="cls-2" d="M36.86,54.08v-.54H39v.54h-.79v4.44a6.51,6.51,0,0,1,1.58-1.24V58a5.16,5.16,0,0,0-1.76,1.41h-.52V54.08Z"/><path class="cls-2" d="M34.37,53.42a1.84,1.84,0,0,1,1.59.86,3.68,3.68,0,0,1,.59,2.14A3.8,3.8,0,0,1,36,58.55a1.92,1.92,0,0,1-3.23,0,3.93,3.93,0,0,1-.56-2.12,3.74,3.74,0,0,1,.57-2.08A1.8,1.8,0,0,1,34.37,53.42Zm0,.57a1.15,1.15,0,0,0-1.08.66,3.5,3.5,0,0,0-.35,1.66,4.07,4.07,0,0,0,.36,1.81,1.16,1.16,0,0,0,1.1.72,1.14,1.14,0,0,0,1.07-.66,4.49,4.49,0,0,0,0-3.53A1.18,1.18,0,0,0,34.36,54Z"/><path class="cls-2" d="M16,12c.47-.43,1-.75,1.5-1.13a9,9,0,0,0,1.6-1.31,3.92,3.92,0,0,0,.72-1.4,3.36,3.36,0,0,0-.1-2.18c-.87-1.39-3.3-2.61-4.9.46a.13.13,0,0,1-.11.07h0a.13.13,0,0,1-.12-.07c-1.6-3.07-4-1.85-4.9-.46a3.36,3.36,0,0,0-.1,2.18,4,4,0,0,0,.72,1.4,9,9,0,0,0,1.6,1.31c.51.38,1,.71,1.5,1.13.24.21,1.29,1.34,1.29,1.34S15.78,12.17,16,12Z"/><path class="cls-2" d="M27.49,12c.47-.43,1-.75,1.5-1.13a9,9,0,0,0,1.6-1.31,3.94,3.94,0,0,0,.72-1.4,3.36,3.36,0,0,0-.1-2.18c-.87-1.39-3.3-2.61-4.9.46a.13.13,0,0,1-.11.07h0a.13.13,0,0,1-.11-.07c-1.6-3.07-4-1.85-4.9-.46a3.36,3.36,0,0,0-.1,2.18,3.94,3.94,0,0,0,.72,1.4,9,9,0,0,0,1.6,1.31c.51.38,1,.71,1.5,1.13.24.21,1.29,1.34,1.29,1.34S27.26,12.17,27.49,12Z"/><path class="cls-2" d="M16,29c.47-.42,1-.75,1.5-1.13a9,9,0,0,0,1.6-1.31,3.93,3.93,0,0,0,.72-1.4,3.36,3.36,0,0,0-.1-2.18c-.87-1.39-3.3-2.61-4.9.46a.13.13,0,0,1-.11.07h0a.13.13,0,0,1-.12-.07c-1.6-3.07-4-1.85-4.9-.46a3.36,3.36,0,0,0-.1,2.18,4,4,0,0,0,.72,1.4,9,9,0,0,0,1.6,1.31c.51.38,1,.71,1.5,1.13.24.21,1.29,1.35,1.29,1.35S15.78,29.22,16,29Z"/><path class="cls-2" d="M27.49,29c.47-.42,1-.75,1.5-1.13a9,9,0,0,0,1.6-1.31,3.94,3.94,0,0,0,.72-1.4,3.36,3.36,0,0,0-.1-2.18c-.87-1.39-3.3-2.61-4.9.46a.13.13,0,0,1-.11.07h0a.13.13,0,0,1-.11-.07c-1.6-3.07-4-1.85-4.9-.46a3.36,3.36,0,0,0-.1,2.18,3.94,3.94,0,0,0,.72,1.4,9,9,0,0,0,1.6,1.31c.51.38,1,.71,1.5,1.13.24.21,1.29,1.35,1.29,1.35S27.26,29.22,27.49,29Z"/><path class="cls-2" d="M21.75,20.19c.47-.42,1-.75,1.5-1.13a9,9,0,0,0,1.6-1.31,3.92,3.92,0,0,0,.72-1.4,3.36,3.36,0,0,0-.1-2.18c-.87-1.39-3.3-2.61-4.9.46a.13.13,0,0,1-.11.07h0a.13.13,0,0,1-.12-.07c-1.6-3.07-4-1.85-4.89-.46a3.36,3.36,0,0,0-.1,2.18,3.93,3.93,0,0,0,.72,1.4,9,9,0,0,0,1.6,1.31c.51.38,1,.71,1.5,1.13.24.21,1.29,1.34,1.29,1.34S21.52,20.4,21.75,20.19Z"/><path class="cls-2" d="M24.92,50.52c-.47.43-1,.75-1.5,1.13A9,9,0,0,0,21.82,53a3.93,3.93,0,0,0-.72,1.4,3.36,3.36,0,0,0,.1,2.18c.87,1.39,3.3,2.61,4.9-.46a.13.13,0,0,1,.11-.07h0a.13.13,0,0,1,.11.07c1.6,3.07,4,1.85,4.9.46a3.36,3.36,0,0,0,.1-2.18,3.93,3.93,0,0,0-.72-1.4A9,9,0,0,0,29,51.65c-.51-.38-1-.71-1.5-1.13-.24-.21-1.29-1.35-1.29-1.35S25.15,50.31,24.92,50.52Z"/><path class="cls-2" d="M13.44,50.52c-.47.43-1,.75-1.5,1.13A9.07,9.07,0,0,0,10.34,53a3.94,3.94,0,0,0-.72,1.4,3.36,3.36,0,0,0,.1,2.18c.87,1.39,3.3,2.61,4.9-.46a.13.13,0,0,1,.12-.07h0a.13.13,0,0,1,.11.07c1.6,3.07,4,1.85,4.9.46a3.36,3.36,0,0,0,.1-2.18,3.91,3.91,0,0,0-.72-1.4,9,9,0,0,0-1.6-1.31c-.51-.38-1-.71-1.5-1.13-.24-.21-1.29-1.35-1.29-1.35S13.67,50.31,13.44,50.52Z"/><path class="cls-2" d="M24.92,33.46c-.47.43-1,.75-1.5,1.13a9,9,0,0,0-1.6,1.31,3.93,3.93,0,0,0-.72,1.4,3.36,3.36,0,0,0,.1,2.18c.87,1.39,3.3,2.61,4.9-.46a.13.13,0,0,1,.11-.07h0a.13.13,0,0,1,.11.07c1.6,3.07,4,1.85,4.9.46a3.36,3.36,0,0,0,.1-2.18,3.93,3.93,0,0,0-.72-1.4A9,9,0,0,0,29,34.59c-.51-.38-1-.71-1.5-1.13-.24-.21-1.29-1.34-1.29-1.34S25.15,33.25,24.92,33.46Z"/><path class="cls-2" d="M13.44,33.46c-.47.43-1,.75-1.5,1.13a9.06,9.06,0,0,0-1.6,1.31,4,4,0,0,0-.72,1.4,3.36,3.36,0,0,0,.1,2.18c.87,1.39,3.3,2.61,4.9-.46a.13.13,0,0,1,.12-.07h0a.13.13,0,0,1,.11.07c1.6,3.07,4,1.85,4.9.46a3.36,3.36,0,0,0,.1-2.18,3.92,3.92,0,0,0-.72-1.4,9,9,0,0,0-1.6-1.31c-.51-.38-1-.71-1.5-1.13-.24-.21-1.29-1.34-1.29-1.34S13.67,33.25,13.44,33.46Z"/><path class="cls-2" d="M19.18,42.48c-.47.42-1,.75-1.5,1.13a9,9,0,0,0-1.6,1.31,3.94,3.94,0,0,0-.72,1.4,3.36,3.36,0,0,0,.1,2.18c.87,1.39,3.3,2.61,4.89-.46a.13.13,0,0,1,.12-.07h0a.13.13,0,0,1,.11.07c1.6,3.07,4,1.85,4.9.46a3.36,3.36,0,0,0,.1-2.18,3.92,3.92,0,0,0-.72-1.4,9,9,0,0,0-1.6-1.31c-.51-.38-1-.71-1.5-1.13-.24-.21-1.29-1.34-1.29-1.34S19.41,42.26,19.18,42.48Z"/></g></g></svg>