<svg xmlns="http://www.w3.org/2000/svg" viewBox="0 0 40.93 62.29"><defs><style>.cls-1{fill:#fff;}.cls-2{fill:#0c0a35;}</style></defs><title>Fichier 37</title><g id="Calque_2" data-name="Calque 2"><g id="Layer_1" data-name="Layer 1"><rect class="cls-1" x="0.09" y="0.09" width="40.74" height="62.1" rx="3.45" ry="3.45"/><path class="cls-1" d="M37.39,62.29H3.54A3.55,3.55,0,0,1,0,58.74V3.54A3.55,3.55,0,0,1,3.54,0H37.39a3.55,3.55,0,0,1,3.54,3.54v55.2A3.55,3.55,0,0,1,37.39,62.29ZM3.54.19A3.36,3.36,0,0,0,.19,3.54v55.2A3.36,3.36,0,0,0,3.54,62.1H37.39a3.36,3.36,0,0,0,3.36-3.36V3.54A3.36,3.36,0,0,0,37.39.19Z"/><path class="cls-2" d="M35.44,50.65c0-.1,0-.25,0-.35a2.81,2.81,0,0,0,0-.31,1.42,1.42,0,0,0-.43-.93c.24,0,.84,0,1.08,0a1.42,1.42,0,0,0-.43.93,3.07,3.07,0,0,0,0,.31c0,.1,0,.25,0,.35Z"/><path class="cls-2" d="M35.53,50.26a1.16,1.16,0,0,0-1-.54.9.9,0,0,0-.84.68,1.11,1.11,0,0,0,.33.93,4.48,4.48,0,0,0,.84.61,4.66,4.66,0,0,1,.7.67,8.88,8.88,0,0,1,.7-.66,6.54,6.54,0,0,0,.84-.62,1.1,1.1,0,0,0,.33-.93.89.89,0,0,0-.84-.68,1.16,1.16,0,0,0-1,.54Z"/><path class="cls-2" d="M5.36,11.36c0,.1,0,.25,0,.35a3,3,0,0,0,0,.31,1.42,1.42,0,0,0,.43.93c-.24,0-.84,0-1.08,0A1.42,1.42,0,0,0,5.11,12a3,3,0,0,0,0-.31c0-.1,0-.25,0-.35Z"/><path class="cls-2" d="M5.27,11.75a1.16,1.16,0,0,0,1,.54.9.9,0,0,0,.84-.68,1.11,1.11,0,0,0-.33-.93,4.48,4.48,0,0,0-.84-.61,4.67,4.67,0,0,1-.7-.67,9,9,0,0,1-.7.66,6.55,6.55,0,0,0-.84.62,1.11,1.11,0,0,0-.33.93.9.9,0,0,0,.84.68,1.16,1.16,0,0,0,1-.54Z"/><path class="cls-2" d="M4.45,8.21v.54H2.29V8.21h.79V3.77A6.56,6.56,0,0,1,1.5,5V4.29A5.19,5.19,0,0,0,3.25,2.88h.52V8.21Z"/><path class="cls-2" d="M6.94,8.86A1.84,1.84,0,0,1,5.35,8a3.68,3.68,0,0,1-.59-2.14,3.79,3.79,0,0,1,.56-2.12,1.8,1.8,0,0,1,1.6-.87,1.81,1.81,0,0,1,1.64.9,4,4,0,0,1,.56,2.12A3.76,3.76,0,0,1,8.54,8,1.81,1.81,0,0,1,6.94,8.86Zm0-.57A1.15,1.15,0,0,0,8,7.63,3.51,3.51,0,0,0,8.37,6,4.07,4.07,0,0,0,8,4.16a1.17,1.17,0,0,0-1.1-.72,1.14,1.14,0,0,0-1.07.66,3.7,3.7,0,0,0-.35,1.74,3.69,3.69,0,0,0,.37,1.79A1.18,1.18,0,0,0,6.94,8.29Z"/><path class="cls-2" d="M36.48,54.08v-.54h2.16v.54h-.79v4.44a6.51,6.51,0,0,1,1.58-1.24V58a5.17,5.17,0,0,0-1.76,1.41h-.52V54.08Z"/><path class="cls-2" d="M34,53.42a1.84,1.84,0,0,1,1.59.86,3.68,3.68,0,0,1,.59,2.14,3.8,3.8,0,0,1-.56,2.12,1.92,1.92,0,0,1-3.23,0,3.93,3.93,0,0,1-.56-2.12,3.74,3.74,0,0,1,.57-2.08A1.8,1.8,0,0,1,34,53.42ZM34,54a1.15,1.15,0,0,0-1.08.66,3.52,3.52,0,0,0-.35,1.66,4.09,4.09,0,0,0,.36,1.81,1.16,1.16,0,0,0,1.1.72,1.14,1.14,0,0,0,1.07-.66,3.72,3.72,0,0,0,.35-1.74,3.69,3.69,0,0,0-.37-1.79A1.18,1.18,0,0,0,34,54Z"/><path class="cls-2" d="M14.6,8.19c0,.26-.1.63-.1.88a7.46,7.46,0,0,0,0,.78,3.56,3.56,0,0,0,1.08,2.32c-.6,0-2.11,0-2.71,0A3.56,3.56,0,0,0,14,9.85a7.49,7.49,0,0,0,0-.78c0-.26-.1-.62-.1-.88Z"/><path class="cls-2" d="M14.38,9.16a2.91,2.91,0,0,0,2.45,1.36,2.25,2.25,0,0,0,2.11-1.7,2.77,2.77,0,0,0-.83-2.34A11.06,11.06,0,0,0,16,5a11.7,11.7,0,0,1-1.76-1.68A22.49,22.49,0,0,1,12.5,4.94a16,16,0,0,0-2.11,1.54,2.77,2.77,0,0,0-.83,2.34,2.25,2.25,0,0,0,2.11,1.7,2.92,2.92,0,0,0,2.45-1.36Z"/><path class="cls-2" d="M27,8.19c0,.26-.1.63-.1.88a7.77,7.77,0,0,0,0,.78A3.56,3.56,0,0,0,28,12.18c-.6,0-2.11,0-2.71,0A3.55,3.55,0,0,0,26.4,9.85a7.23,7.23,0,0,0,0-.78c0-.26-.1-.62-.1-.88Z"/><path class="cls-2" d="M26.81,9.16a2.91,2.91,0,0,0,2.45,1.36,2.25,2.25,0,0,0,2.11-1.7,2.77,2.77,0,0,0-.83-2.34A11,11,0,0,0,28.44,5a11.7,11.7,0,0,1-1.76-1.68,22.57,22.57,0,0,1-1.75,1.65,16,16,0,0,0-2.11,1.54A2.77,2.77,0,0,0,22,8.82a2.25,2.25,0,0,0,2.11,1.7,2.91,2.91,0,0,0,2.45-1.36Z"/><path class="cls-2" d="M14.59,25.7c0,.26-.12.63-.12.88a7.46,7.46,0,0,0,0,.78,3.56,3.56,0,0,0,1,2.35c-.6,0-2.11,0-2.71-.07a3.55,3.55,0,0,0,1.14-2.3,7.14,7.14,0,0,0,0-.78c0-.26-.09-.63-.08-.89Z"/><path class="cls-2" d="M14.34,26.67a2.9,2.9,0,0,0,2.41,1.42,2.25,2.25,0,0,0,2.15-1.65,2.77,2.77,0,0,0-.77-2.36,11.13,11.13,0,0,0-2.07-1.57,11.75,11.75,0,0,1-1.71-1.72,22.52,22.52,0,0,1-1.79,1.61,15.88,15.88,0,0,0-2.15,1.49,2.77,2.77,0,0,0-.88,2.31A2.25,2.25,0,0,0,11.61,28a2.91,2.91,0,0,0,2.48-1.3Z"/><path class="cls-2" d="M27,26c0,.26-.12.62-.12.88a7.23,7.23,0,0,0,0,.78,3.55,3.55,0,0,0,1,2.35c-.6,0-2.11,0-2.71-.07a3.55,3.55,0,0,0,1.14-2.3,7.5,7.5,0,0,0,0-.78c0-.26-.09-.63-.08-.89Z"/><path class="cls-2" d="M26.77,27a2.91,2.91,0,0,0,2.41,1.42,2.25,2.25,0,0,0,2.15-1.65,2.77,2.77,0,0,0-.77-2.36,11,11,0,0,0-2.06-1.57,11.69,11.69,0,0,1-1.72-1.72A22.62,22.62,0,0,1,25,22.71a16,16,0,0,0-2.15,1.49A2.77,2.77,0,0,0,22,26.52,2.25,2.25,0,0,0,24,28.27,2.91,2.91,0,0,0,26.52,27Z"/><path class="cls-2" d="M20.82,17.1c0,.26-.1.63-.1.88a7,7,0,0,0,0,.78,3.55,3.55,0,0,0,1.08,2.32c-.6,0-2.11,0-2.71,0a3.56,3.56,0,0,0,1.08-2.32,7.44,7.44,0,0,0,0-.78c0-.26-.1-.62-.1-.88Z"/><path class="cls-2" d="M20.59,18.08A2.91,2.91,0,0,0,23,19.44a2.25,2.25,0,0,0,2.11-1.7,2.77,2.77,0,0,0-.83-2.34,11.06,11.06,0,0,0-2.1-1.52,11.79,11.79,0,0,1-1.76-1.68,22.42,22.42,0,0,1-1.75,1.65A15.88,15.88,0,0,0,16.6,15.4a2.77,2.77,0,0,0-.83,2.34,2.25,2.25,0,0,0,2.11,1.7,2.91,2.91,0,0,0,2.45-1.36Z"/><path class="cls-2" d="M26.33,54.1c0-.26.1-.63.1-.88a7.19,7.19,0,0,0,0-.78,3.54,3.54,0,0,0-1.08-2.32c.6,0,2.11,0,2.71,0A3.55,3.55,0,0,0,27,52.43a7.73,7.73,0,0,0,0,.78c0,.26.1.63.1.88Z"/><path class="cls-2" d="M26.55,53.12a2.91,2.91,0,0,0-2.45-1.36A2.25,2.25,0,0,0,22,53.46a2.77,2.77,0,0,0,.83,2.34,11.15,11.15,0,0,0,2.1,1.52A11.76,11.76,0,0,1,26.68,59a22.49,22.49,0,0,1,1.75-1.65,16.05,16.05,0,0,0,2.11-1.54,2.77,2.77,0,0,0,.83-2.34,2.25,2.25,0,0,0-2.11-1.7,2.9,2.9,0,0,0-2.45,1.36Z"/><path class="cls-2" d="M13.9,54.1c0-.26.1-.63.1-.88a7.45,7.45,0,0,0,0-.78,3.55,3.55,0,0,0-1.08-2.32c.6,0,2.11,0,2.71,0a3.55,3.55,0,0,0-1.08,2.32,7.42,7.42,0,0,0,0,.78c0,.26.1.63.1.88Z"/><path class="cls-2" d="M14.12,53.12a2.91,2.91,0,0,0-2.45-1.36,2.25,2.25,0,0,0-2.11,1.7,2.77,2.77,0,0,0,.83,2.34,11.15,11.15,0,0,0,2.1,1.52A11.71,11.71,0,0,1,14.25,59,22.49,22.49,0,0,1,16,57.35a16.13,16.13,0,0,0,2.11-1.54,2.78,2.78,0,0,0,.83-2.34,2.25,2.25,0,0,0-2.11-1.7,2.9,2.9,0,0,0-2.45,1.36Z"/><path class="cls-2" d="M26.34,36.59c0-.26.12-.62.13-.88a7.23,7.23,0,0,0,0-.78,3.54,3.54,0,0,0-1-2.35c.6,0,2.11,0,2.71.07A3.56,3.56,0,0,0,27,34.94a7.2,7.2,0,0,0,0,.78c0,.26.09.63.08.89Z"/><path class="cls-2" d="M26.59,35.62a2.9,2.9,0,0,0-2.41-1.42A2.25,2.25,0,0,0,22,35.85a2.77,2.77,0,0,0,.77,2.36,11.09,11.09,0,0,0,2.07,1.57,11.74,11.74,0,0,1,1.72,1.72,22.73,22.73,0,0,1,1.79-1.61,16.12,16.12,0,0,0,2.15-1.49,2.77,2.77,0,0,0,.88-2.31,2.25,2.25,0,0,0-2.07-1.75,2.91,2.91,0,0,0-2.48,1.3Z"/><path class="cls-2" d="M13.91,36.28c0-.26.12-.62.13-.88a7.43,7.43,0,0,0,0-.78,3.56,3.56,0,0,0-1-2.35c.6,0,2.11,0,2.71.07a3.55,3.55,0,0,0-1.14,2.3,7.44,7.44,0,0,0,0,.78c0,.26.09.63.08.88Z"/><path class="cls-2" d="M14.16,35.31a2.91,2.91,0,0,0-2.41-1.42,2.25,2.25,0,0,0-2.16,1.65,2.78,2.78,0,0,0,.77,2.36,11.08,11.08,0,0,0,2.07,1.57,11.72,11.72,0,0,1,1.72,1.72,22.56,22.56,0,0,1,1.79-1.61,16,16,0,0,0,2.15-1.49A2.77,2.77,0,0,0,19,35.77,2.25,2.25,0,0,0,16.9,34a2.91,2.91,0,0,0-2.48,1.3Z"/><path class="cls-2" d="M20.12,45.19c0-.26.1-.63.1-.88a7.4,7.4,0,0,0,0-.78,3.55,3.55,0,0,0-1.08-2.32c.6,0,2.11,0,2.71,0a3.54,3.54,0,0,0-1.08,2.32,7,7,0,0,0,0,.78c0,.26.1.63.1.88Z"/><path class="cls-2" d="M20.34,44.21a2.9,2.9,0,0,0-2.45-1.36,2.25,2.25,0,0,0-2.11,1.7,2.77,2.77,0,0,0,.83,2.34,11.12,11.12,0,0,0,2.1,1.52,11.73,11.73,0,0,1,1.76,1.68,22.57,22.57,0,0,1,1.75-1.65,16.32,16.32,0,0,0,2.11-1.54,2.78,2.78,0,0,0,.83-2.34A2.25,2.25,0,0,0,23,42.85a2.9,2.9,0,0,0-2.45,1.36Z"/></g></g></svg>