<svg xmlns="http://www.w3.org/2000/svg" viewBox="0 0 40.93 62.29"><defs><style>.cls-1{fill:#fff;}.cls-2{fill:#0c0a35;}</style></defs><title>Fichier 2</title><g id="Calque_2" data-name="Calque 2"><g id="Layer_1" data-name="Layer 1"><rect class="cls-1" x="0.09" y="0.09" width="40.74" height="62.1" rx="3.45" ry="3.45"/><path class="cls-1" d="M37.39,62.29H3.54A3.55,3.55,0,0,1,0,58.74V3.54A3.55,3.55,0,0,1,3.54,0H37.39a3.55,3.55,0,0,1,3.54,3.54v55.2A3.55,3.55,0,0,1,37.39,62.29ZM3.54.19A3.36,3.36,0,0,0,.19,3.54v55.2A3.36,3.36,0,0,0,3.54,62.1H37.39a3.36,3.36,0,0,0,3.36-3.36V3.54A3.36,3.36,0,0,0,37.39.19Z"/><path class="cls-2" d="M20.12,8.83c0,.26.1.63.1.88a7.43,7.43,0,0,1,0,.78,3.55,3.55,0,0,1-1.08,2.32c.6,0,2.11,0,2.71,0a3.55,3.55,0,0,1-1.08-2.32,7.33,7.33,0,0,1,0-.78c0-.26.1-.63.1-.88Z"/><path class="cls-2" d="M20.3,9.47c-.25,0-.4.28-.86.78a2.61,2.61,0,0,1-1.77,1,1.68,1.68,0,0,1-1.4-.58,3.19,3.19,0,0,1-.48-1.12A2.87,2.87,0,0,1,16,7.45,1.51,1.51,0,0,1,18,6.84c.32.19.43.43.73.48a.13.13,0,0,0,.14-.16c-.12-.45-.44-.51-.59-1a1.56,1.56,0,0,1,.64-1.94,3,3,0,0,1,3.13,0,1.42,1.42,0,0,1,.64,1.72c-.14.5-.43.73-.56,1.16a.18.18,0,0,0,.23.23c.22-.09.33-.29.61-.45a1.51,1.51,0,0,1,1.95.6,2.87,2.87,0,0,1,.24,2.15,3.19,3.19,0,0,1-.48,1.12,1.68,1.68,0,0,1-1.4.58,2.61,2.61,0,0,1-1.77-1c-.46-.5-.6-.74-.86-.78Z"/><path class="cls-2" d="M5.42,11.77c0,.1,0,.24,0,.35a2.86,2.86,0,0,0,0,.31,1.39,1.39,0,0,0,.42.91c-.23,0-.83,0-1.06,0a1.39,1.39,0,0,0,.42-.91,2.91,2.91,0,0,0,0-.31c0-.1,0-.25,0-.35Z"/><path class="cls-2" d="M5.35,12c.1,0,.16.11.34.3a1,1,0,0,0,.69.41.66.66,0,0,0,.55-.23,1.25,1.25,0,0,0,.19-.44A1.13,1.13,0,0,0,7,11.23.59.59,0,0,0,6.26,11c-.13.08-.17.17-.28.19a.05.05,0,0,1-.06-.06c0-.18.17-.2.23-.41A.61.61,0,0,0,5.9,10a1.18,1.18,0,0,0-1.22,0,.56.56,0,0,0-.25.67c.05.2.17.29.22.45a.07.07,0,0,1-.09.09c-.08,0-.13-.11-.24-.18a.59.59,0,0,0-.76.24,1.12,1.12,0,0,0-.09.84,1.25,1.25,0,0,0,.19.44.66.66,0,0,0,.55.23,1,1,0,0,0,.69-.41c.18-.19.24-.29.34-.3Z"/><path class="cls-2" d="M7.32,8.15v.6H3.24v-.6A21.75,21.75,0,0,0,6.12,5.76a1.82,1.82,0,0,0,.46-1.14,1.05,1.05,0,0,0-.39-.85,1.39,1.39,0,0,0-2.29,1l-.67-.2A2,2,0,0,1,5.3,2.88a2.06,2.06,0,0,1,1.44.51A1.61,1.61,0,0,1,7.3,4.62a1.92,1.92,0,0,1-.26,1A4.79,4.79,0,0,1,6,6.69a22.16,22.16,0,0,1-1.9,1.46Z"/><path class="cls-2" d="M35.49,50.52c0-.1,0-.24,0-.35a2.76,2.76,0,0,0,0-.31A1.39,1.39,0,0,0,35.1,49c.23,0,.83,0,1.06,0a1.39,1.39,0,0,0-.42.91,2.76,2.76,0,0,0,0,.31c0,.1,0,.25,0,.35Z"/><path class="cls-2" d="M35.56,50.27c-.1,0-.15-.11-.33-.31a1,1,0,0,0-.69-.41.66.66,0,0,0-.55.23,1.25,1.25,0,0,0-.19.44,1.12,1.12,0,0,0,.1.84.59.59,0,0,0,.76.24c.13-.08.17-.17.28-.19a.05.05,0,0,1,.06.06c0,.18-.17.2-.23.41a.61.61,0,0,0,.25.76,1.18,1.18,0,0,0,1.22,0,.56.56,0,0,0,.25-.67c-.05-.2-.17-.29-.22-.45a.07.07,0,0,1,.09-.09c.08,0,.13.11.24.18a.59.59,0,0,0,.76-.24,1.12,1.12,0,0,0,.09-.84,1.25,1.25,0,0,0-.19-.44.66.66,0,0,0-.55-.23A1,1,0,0,0,36,50c-.18.2-.24.29-.34.31Z"/><path class="cls-2" d="M33.63,54.14v-.6h4.08v.6a21.7,21.7,0,0,0-2.88,2.39,1.82,1.82,0,0,0-.47,1.14,1.05,1.05,0,0,0,.39.85,1.4,1.4,0,0,0,1.83,0,1.39,1.39,0,0,0,.46-1l.67.2a2,2,0,0,1-2.06,1.69,2.06,2.06,0,0,1-1.44-.51,1.6,1.6,0,0,1-.56-1.23,1.93,1.93,0,0,1,.26-1,4.79,4.79,0,0,1,1-1.11,22.05,22.05,0,0,1,1.9-1.46Z"/><path class="cls-2" d="M20.82,53.46c0-.26-.1-.63-.1-.88a7.33,7.33,0,0,1,0-.78,3.55,3.55,0,0,1,1.08-2.32c-.6,0-2.11,0-2.71,0a3.55,3.55,0,0,1,1.08,2.32,7.43,7.43,0,0,1,0,.78c0,.26-.1.63-.1.88Z"/><path class="cls-2" d="M20.63,52.82c.25,0,.4-.28.86-.78a2.61,2.61,0,0,1,1.77-1,1.69,1.69,0,0,1,1.4.58,3.19,3.19,0,0,1,.48,1.12,2.88,2.88,0,0,1-.24,2.15,1.51,1.51,0,0,1-1.95.6c-.32-.19-.43-.43-.73-.48a.13.13,0,0,0-.14.16c.12.45.44.51.59,1A1.56,1.56,0,0,1,22,58.11a3,3,0,0,1-3.13,0,1.42,1.42,0,0,1-.64-1.72c.14-.5.43-.73.56-1.16a.18.18,0,0,0-.23-.23c-.22.09-.33.29-.61.45a1.51,1.51,0,0,1-1.95-.6,2.87,2.87,0,0,1-.24-2.15,3.19,3.19,0,0,1,.48-1.12,1.69,1.69,0,0,1,1.4-.58,2.61,2.61,0,0,1,1.77,1c.46.5.6.74.86.78Z"/></g></g></svg>