<svg xmlns="http://www.w3.org/2000/svg" viewBox="0 0 40.93 62.29"><defs><style>.cls-1{fill:#fff;}.cls-2{fill:#d6002b;}</style></defs><title>Fichier 16</title><g id="Calque_2" data-name="Calque 2"><g id="Layer_1" data-name="Layer 1"><rect class="cls-1" x="0.09" y="0.09" width="40.74" height="62.1" rx="3.45" ry="3.45"/><path class="cls-1" d="M37.39,62.29H3.54A3.55,3.55,0,0,1,0,58.75V3.54A3.55,3.55,0,0,1,3.54,0H37.39a3.55,3.55,0,0,1,3.54,3.54v55.2A3.55,3.55,0,0,1,37.39,62.29ZM3.54.19A3.36,3.36,0,0,0,.19,3.54v55.2A3.36,3.36,0,0,0,3.54,62.1H37.39a3.36,3.36,0,0,0,3.36-3.36V3.54A3.36,3.36,0,0,0,37.39.19Z"/><path class="cls-2" d="M5.75,12.71c.17-.15.35-.27.53-.4a3.19,3.19,0,0,0,.57-.46,1.41,1.41,0,0,0,.26-.5,1.2,1.2,0,0,0,0-.78.94.94,0,0,0-1.74.16,0,0,0,0,1,0,0h0a0,0,0,0,1,0,0,.94.94,0,0,0-1.74-.16,1.2,1.2,0,0,0,0,.78,1.4,1.4,0,0,0,.26.5,3.22,3.22,0,0,0,.57.46c.18.13.37.25.53.4s.46.48.46.48S5.67,12.79,5.75,12.71Z"/><path class="cls-2" d="M35.22,49.65c-.17.15-.35.27-.53.4a3.16,3.16,0,0,0-.57.46,1.39,1.39,0,0,0-.26.5,1.19,1.19,0,0,0,0,.78.94.94,0,0,0,1.74-.16,0,0,0,0,1,0,0h0a0,0,0,0,1,0,0,.94.94,0,0,0,1.74.16,1.19,1.19,0,0,0,0-.78,1.38,1.38,0,0,0-.26-.5,3.16,3.16,0,0,0-.57-.46c-.18-.13-.37-.25-.53-.4s-.46-.48-.46-.48S35.3,49.57,35.22,49.65Z"/><path class="cls-2" d="M7.32,8.15v.6H3.24v-.6A21.72,21.72,0,0,0,6.12,5.76a1.82,1.82,0,0,0,.46-1.14,1.05,1.05,0,0,0-.39-.85,1.4,1.4,0,0,0-1.83,0,1.39,1.39,0,0,0-.45,1l-.67-.2A2,2,0,0,1,5.3,2.88a2.06,2.06,0,0,1,1.44.51A1.6,1.6,0,0,1,7.3,4.62a1.92,1.92,0,0,1-.26,1A4.79,4.79,0,0,1,6,6.69a22.16,22.16,0,0,1-1.9,1.46Z"/><path class="cls-2" d="M33.63,54.14v-.6h4.08v.6a21.8,21.8,0,0,0-2.88,2.38,1.82,1.82,0,0,0-.47,1.14,1.05,1.05,0,0,0,.39.85,1.39,1.39,0,0,0,2.29-1l.67.2a2,2,0,0,1-2.06,1.69,2.06,2.06,0,0,1-1.44-.51,1.6,1.6,0,0,1-.56-1.23,1.92,1.92,0,0,1,.26-1,4.81,4.81,0,0,1,1-1.11,22,22,0,0,1,1.9-1.46Z"/><path class="cls-2" d="M21.75,11.58c.47-.43,1-.75,1.5-1.13a9,9,0,0,0,1.6-1.31,3.94,3.94,0,0,0,.72-1.4,3.36,3.36,0,0,0-.1-2.18c-.87-1.39-3.3-2.61-4.9.46a.13.13,0,0,1-.11.07h0A.13.13,0,0,1,20.35,6c-1.6-3.07-4-1.85-4.9-.46a3.37,3.37,0,0,0-.1,2.18,3.94,3.94,0,0,0,.72,1.4,9,9,0,0,0,1.6,1.31c.51.38,1,.71,1.5,1.13.24.21,1.29,1.35,1.29,1.35S21.52,11.79,21.75,11.58Z"/><path class="cls-2" d="M19.18,50.71c-.47.43-1,.75-1.5,1.13a8.85,8.85,0,0,0-1.6,1.31,3.93,3.93,0,0,0-.72,1.4,3.37,3.37,0,0,0,.1,2.18c.87,1.39,3.3,2.61,4.9-.46a.13.13,0,0,1,.11-.07h0a.13.13,0,0,1,.11.07c1.6,3.07,4,1.85,4.9.46a3.36,3.36,0,0,0,.1-2.18,3.93,3.93,0,0,0-.72-1.4,8.83,8.83,0,0,0-1.6-1.31c-.51-.38-1-.71-1.5-1.13-.24-.21-1.29-1.35-1.29-1.35S19.41,50.5,19.18,50.71Z"/><path class="cls-2" d="M21.75,11.58c.47-.43,1-.75,1.5-1.13a9,9,0,0,0,1.6-1.31,3.94,3.94,0,0,0,.72-1.4,3.36,3.36,0,0,0-.1-2.18c-.87-1.39-3.3-2.61-4.9.46a.13.13,0,0,1-.11.07h0A.13.13,0,0,1,20.35,6c-1.6-3.07-4-1.85-4.9-.46a3.37,3.37,0,0,0-.1,2.18,3.94,3.94,0,0,0,.72,1.4,9,9,0,0,0,1.6,1.31c.51.38,1,.71,1.5,1.13.24.21,1.29,1.35,1.29,1.35S21.52,11.79,21.75,11.58Z"/></g></g></svg>