<svg xmlns="http://www.w3.org/2000/svg" viewBox="0 0 40.93 62.29"><defs><style>.cls-1{fill:#fff;}.cls-2{fill:#d6002b;}</style></defs><title>Fichier 43</title><g id="Calque_2" data-name="Calque 2"><g id="Layer_1" data-name="Layer 1"><rect class="cls-1" x="0.09" y="0.09" width="40.74" height="62.1" rx="3.45" ry="3.45"/><path class="cls-1" d="M37.39,62.29H3.54A3.55,3.55,0,0,1,0,58.74V3.54A3.55,3.55,0,0,1,3.54,0H37.39a3.55,3.55,0,0,1,3.54,3.54v55.2A3.55,3.55,0,0,1,37.39,62.29ZM3.54.19A3.36,3.36,0,0,0,.19,3.54v55.2A3.36,3.36,0,0,0,3.54,62.1H37.39a3.36,3.36,0,0,0,3.36-3.36V3.54A3.36,3.36,0,0,0,37.39.19Z"/><path class="cls-2" d="M5.38,12.62a.23.23,0,0,0,.13,0,14.62,14.62,0,0,0,1.3-1.24.21.21,0,0,0,.08-.16.22.22,0,0,0-.08-.12c-.34-.33-.69-.65-1-1-.14-.15-.3-.33-.4-.34H5.36c-.1,0-.26.18-.4.34-.32.35-.67.67-1,1a.22.22,0,0,0-.08.12.21.21,0,0,0,.08.16,14.56,14.56,0,0,0,1.3,1.24.23.23,0,0,0,.13,0Z"/><path class="cls-2" d="M35.75,52.15a.25.25,0,0,0,.13,0,15,15,0,0,0,1.3-1.24.21.21,0,0,0,.08-.16.22.22,0,0,0-.08-.12c-.34-.34-.69-.65-1-1-.14-.15-.3-.33-.4-.34h-.05c-.1,0-.26.18-.4.34-.32.35-.67.67-1,1a.22.22,0,0,0-.08.12.21.21,0,0,0,.08.16,14.87,14.87,0,0,0,1.3,1.24.24.24,0,0,0,.13,0Z"/><path class="cls-2" d="M4.55,5.95V5.38h.66a1.46,1.46,0,0,0,1-.3,1,1,0,0,0,.31-.72.89.89,0,0,0-.35-.74,1.36,1.36,0,0,0-.87-.27A1.34,1.34,0,0,0,4,4.29l-.65-.19A2,2,0,0,1,5.4,2.79a2,2,0,0,1,1.36.45,1.39,1.39,0,0,1,.52,1.08A1.27,1.27,0,0,1,7,5.17a1.36,1.36,0,0,1-.8.46,1.67,1.67,0,0,1,.94.46,1.3,1.3,0,0,1,.39,1,1.52,1.52,0,0,1-.59,1.21,2.43,2.43,0,0,1-1.6.49,2.43,2.43,0,0,1-1.38-.38,2,2,0,0,1-.79-1l.67-.22a1.39,1.39,0,0,0,1.5,1,1.56,1.56,0,0,0,1.11-.33,1.07,1.07,0,0,0,.34-.79,1,1,0,0,0-.41-.81,1.85,1.85,0,0,0-1.14-.31Z"/><path class="cls-2" d="M36.58,56.15v.57h-.66a1.46,1.46,0,0,0-1,.3,1,1,0,0,0-.31.72.89.89,0,0,0,.34.74,1.45,1.45,0,0,0,2.21-.67l.65.19a2,2,0,0,1-2.06,1.32,2,2,0,0,1-1.36-.45,1.38,1.38,0,0,1-.52-1.08,1.27,1.27,0,0,1,.31-.85,1.35,1.35,0,0,1,.8-.46A1.67,1.67,0,0,1,34,56a1.3,1.3,0,0,1-.39-1,1.53,1.53,0,0,1,.59-1.21,2.79,2.79,0,0,1,3-.11,2,2,0,0,1,.79,1l-.67.22a1.39,1.39,0,0,0-1.49-1,1.56,1.56,0,0,0-1.11.33,1.07,1.07,0,0,0-.34.79,1,1,0,0,0,.41.8,1.85,1.85,0,0,0,1.14.31Z"/><path class="cls-2" d="M20.56,13.12A.79.79,0,0,0,21,13a48.41,48.41,0,0,0,4.27-4.09.69.69,0,0,0,.26-.52.72.72,0,0,0-.25-.4C24.17,6.87,23,5.83,22,4.66c-.45-.5-1-1.08-1.32-1.1h-.17c-.33,0-.87.6-1.32,1.1-1,1.17-2.21,2.21-3.32,3.31a.72.72,0,0,0-.25.4.69.69,0,0,0,.26.52A48.35,48.35,0,0,0,20.12,13a.79.79,0,0,0,.44.13Z"/><path class="cls-2" d="M20.56,49a.79.79,0,0,0-.44.13,48.35,48.35,0,0,0-4.27,4.09.69.69,0,0,0-.26.52.73.73,0,0,0,.25.4c1.11,1.1,2.28,2.15,3.32,3.31.45.5,1,1.08,1.32,1.1h.17c.33,0,.87-.6,1.32-1.1,1-1.17,2.21-2.21,3.32-3.31a.73.73,0,0,0,.25-.4.68.68,0,0,0-.26-.52A48.41,48.41,0,0,0,21,49.11a.79.79,0,0,0-.44-.13Z"/><path class="cls-2" d="M20.37,35.83a.79.79,0,0,0,.44-.13,48.06,48.06,0,0,0,4.27-4.09.68.68,0,0,0,.26-.52.72.72,0,0,0-.25-.4c-1.11-1.11-2.28-2.15-3.32-3.31-.45-.5-1-1.08-1.32-1.1h-.17c-.33,0-.87.6-1.31,1.1-1,1.16-2.21,2.21-3.32,3.31a.72.72,0,0,0-.25.4.68.68,0,0,0,.26.52,48.07,48.07,0,0,0,4.27,4.09.79.79,0,0,0,.44.13Z"/></g></g></svg>