<svg xmlns="http://www.w3.org/2000/svg" viewBox="0 0 40.93 62.29"><defs><style>.cls-1{fill:#fff;}.cls-2{fill:#d6002b;}</style></defs><title>Fichier 17</title><g id="Calque_2" data-name="Calque 2"><g id="Layer_1" data-name="Layer 1"><rect class="cls-1" x="0.09" y="0.09" width="40.74" height="62.1" rx="3.45" ry="3.45"/><path class="cls-1" d="M37.39,62.29H3.54A3.55,3.55,0,0,1,0,58.75V3.54A3.55,3.55,0,0,1,3.54,0H37.39a3.55,3.55,0,0,1,3.54,3.54v55.2A3.55,3.55,0,0,1,37.39,62.29ZM3.54.19A3.36,3.36,0,0,0,.19,3.54v55.2A3.36,3.36,0,0,0,3.54,62.1H37.39a3.36,3.36,0,0,0,3.36-3.36V3.54A3.36,3.36,0,0,0,37.39.19Z"/><path class="cls-2" d="M5.75,12.71c.17-.15.35-.27.53-.4a3.22,3.22,0,0,0,.57-.46,1.41,1.41,0,0,0,.26-.5,1.19,1.19,0,0,0,0-.78.94.94,0,0,0-1.74.16,0,0,0,0,1,0,0h0a0,0,0,0,1,0,0,.94.94,0,0,0-1.74-.16,1.19,1.19,0,0,0,0,.78,1.41,1.41,0,0,0,.26.5,3.22,3.22,0,0,0,.57.46c.18.13.37.25.53.4s.46.48.46.48S5.67,12.79,5.75,12.71Z"/><path class="cls-2" d="M35.22,49.65c-.17.15-.35.27-.53.4a3.14,3.14,0,0,0-.57.46,1.39,1.39,0,0,0-.26.5,1.19,1.19,0,0,0,0,.78.94.94,0,0,0,1.74-.16,0,0,0,0,1,0,0h0a0,0,0,0,1,0,0,.94.94,0,0,0,1.74.16,1.19,1.19,0,0,0,0-.78,1.39,1.39,0,0,0-.26-.5,3.16,3.16,0,0,0-.57-.46c-.18-.13-.37-.25-.53-.4s-.46-.48-.46-.48S35.3,49.57,35.22,49.65Z"/><path class="cls-2" d="M4.46,6V5.47h.66a1.46,1.46,0,0,0,1-.3,1,1,0,0,0,.31-.72.89.89,0,0,0-.35-.74,1.36,1.36,0,0,0-.87-.27,1.34,1.34,0,0,0-1.34.94L3.25,4.2A2,2,0,0,1,5.31,2.88a2,2,0,0,1,1.36.45,1.38,1.38,0,0,1,.52,1.08,1.27,1.27,0,0,1-.31.85,1.35,1.35,0,0,1-.8.46A1.68,1.68,0,0,1,7,6.18a1.3,1.3,0,0,1,.39,1,1.52,1.52,0,0,1-.59,1.21,2.42,2.42,0,0,1-1.6.49,2.44,2.44,0,0,1-1.38-.38,2,2,0,0,1-.79-1l.67-.22a1.39,1.39,0,0,0,1.49,1,1.56,1.56,0,0,0,1.11-.33,1.07,1.07,0,0,0,.34-.79,1,1,0,0,0-.41-.81A1.85,1.85,0,0,0,5.12,6Z"/><path class="cls-2" d="M36.49,56.25v.57h-.66a1.46,1.46,0,0,0-1,.3,1,1,0,0,0-.31.72.89.89,0,0,0,.35.74,1.36,1.36,0,0,0,.87.27A1.34,1.34,0,0,0,37,57.9l.65.19a2,2,0,0,1-2.05,1.32A2,2,0,0,1,34.28,59a1.38,1.38,0,0,1-.52-1.08,1.27,1.27,0,0,1,.31-.85,1.34,1.34,0,0,1,.8-.46,1.69,1.69,0,0,1-.94-.46,1.31,1.31,0,0,1-.39-1,1.52,1.52,0,0,1,.59-1.21,2.42,2.42,0,0,1,1.6-.49,2.45,2.45,0,0,1,1.38.38,2,2,0,0,1,.79,1l-.67.22a1.39,1.39,0,0,0-1.5-1,1.55,1.55,0,0,0-1.11.33,1.06,1.06,0,0,0-.34.79,1,1,0,0,0,.41.8,1.85,1.85,0,0,0,1.14.31Z"/><path class="cls-2" d="M21.75,11.58c.47-.43,1-.75,1.5-1.13a9,9,0,0,0,1.6-1.31,3.94,3.94,0,0,0,.72-1.4,3.37,3.37,0,0,0-.1-2.18c-.87-1.39-3.3-2.61-4.9.46a.13.13,0,0,1-.11.07h0A.13.13,0,0,1,20.35,6c-1.6-3.07-4-1.85-4.89-.46a3.36,3.36,0,0,0-.1,2.18,3.93,3.93,0,0,0,.72,1.4,9,9,0,0,0,1.6,1.31c.51.38,1,.71,1.5,1.13.24.21,1.29,1.35,1.29,1.35S21.52,11.79,21.75,11.58Z"/><path class="cls-2" d="M19.18,50.71c-.47.43-1,.75-1.5,1.13a8.82,8.82,0,0,0-1.6,1.31,3.91,3.91,0,0,0-.72,1.4,3.36,3.36,0,0,0,.1,2.18c.87,1.39,3.3,2.61,4.89-.46a.13.13,0,0,1,.11-.07h0a.13.13,0,0,1,.11.07c1.6,3.07,4,1.85,4.9.46a3.37,3.37,0,0,0,.1-2.18,3.93,3.93,0,0,0-.72-1.4,8.83,8.83,0,0,0-1.6-1.31c-.51-.38-1-.71-1.5-1.13-.24-.21-1.29-1.35-1.29-1.35S19.41,50.5,19.18,50.71Z"/><path class="cls-2" d="M21.75,34.21c.47-.42,1-.75,1.5-1.13a9,9,0,0,0,1.6-1.31,3.94,3.94,0,0,0,.72-1.4,3.37,3.37,0,0,0-.1-2.18c-.87-1.39-3.3-2.61-4.9.46a.13.13,0,0,1-.11.07h0a.13.13,0,0,1-.11-.07c-1.6-3.07-4-1.85-4.89-.46a3.36,3.36,0,0,0-.1,2.18,3.92,3.92,0,0,0,.72,1.4,9,9,0,0,0,1.6,1.31c.51.38,1,.71,1.5,1.13.24.21,1.29,1.35,1.29,1.35S21.52,34.42,21.75,34.21Z"/></g></g></svg>