<svg xmlns="http://www.w3.org/2000/svg" viewBox="0 0 40.93 62.29"><defs><style>.cls-1{fill:#fff;}.cls-2{fill:#d6002b;}</style></defs><title>Fichier 45</title><g id="Calque_2" data-name="Calque 2"><g id="Layer_1" data-name="Layer 1"><rect class="cls-1" x="0.09" y="0.09" width="40.74" height="62.1" rx="3.45" ry="3.45"/><path class="cls-1" d="M37.39,62.29H3.54A3.55,3.55,0,0,1,0,58.74V3.54A3.55,3.55,0,0,1,3.54,0H37.39a3.55,3.55,0,0,1,3.54,3.54v55.2A3.55,3.55,0,0,1,37.39,62.29ZM3.54.19A3.36,3.36,0,0,0,.19,3.54v55.2A3.36,3.36,0,0,0,3.54,62.1H37.39a3.36,3.36,0,0,0,3.36-3.36V3.54A3.36,3.36,0,0,0,37.39.19Z"/><path class="cls-2" d="M5.29,12.71a.25.25,0,0,0,.13,0,14.91,14.91,0,0,0,1.3-1.24.21.21,0,0,0,.08-.16.22.22,0,0,0-.08-.12c-.34-.34-.69-.65-1-1-.14-.15-.3-.33-.4-.34H5.26c-.1,0-.26.18-.4.34-.32.35-.67.67-1,1a.23.23,0,0,0-.08.12.21.21,0,0,0,.08.16,14.92,14.92,0,0,0,1.3,1.24.24.24,0,0,0,.13,0Z"/><path class="cls-2" d="M35.66,52.24a.25.25,0,0,0,.13,0A14.57,14.57,0,0,0,37.09,51a.21.21,0,0,0,.08-.16.22.22,0,0,0-.08-.12c-.34-.34-.69-.65-1-1-.14-.15-.3-.33-.4-.33h-.05c-.1,0-.26.18-.4.33-.32.36-.67.67-1,1a.22.22,0,0,0-.08.12.21.21,0,0,0,.08.16,14.66,14.66,0,0,0,1.3,1.24.25.25,0,0,0,.13,0Z"/><path class="cls-2" d="M7,3l-.06.62H4.12L4,5.48a2,2,0,0,1,1.41-.63,2,2,0,0,1,1.4.56,1.89,1.89,0,0,1,.59,1.43A1.85,1.85,0,0,1,6.75,8.3a2.27,2.27,0,0,1-1.56.56A2.25,2.25,0,0,1,3.9,8.48a1.76,1.76,0,0,1-.74-1l.61-.21a1.41,1.41,0,0,0,1.43,1,1.47,1.47,0,0,0,1.09-.41,1.41,1.41,0,0,0,.4-1,1.34,1.34,0,0,0-.4-1,1.36,1.36,0,0,0-1-.37A1.59,1.59,0,0,0,4,6.22L3.41,6.1,3.6,3Z"/><path class="cls-2" d="M33.94,59.29l.06-.62h2.83l.12-1.87a2,2,0,0,1-1.41.63,2,2,0,0,1-1.4-.56,1.9,1.9,0,0,1-.59-1.43A1.85,1.85,0,0,1,34.2,54,2.41,2.41,0,0,1,37,53.8a1.76,1.76,0,0,1,.74,1l-.61.21a1.41,1.41,0,0,0-1.43-1,1.48,1.48,0,0,0-1.09.41,1.42,1.42,0,0,0-.4,1,1.34,1.34,0,0,0,.4,1,1.36,1.36,0,0,0,1,.37A1.59,1.59,0,0,0,37,56.06l.57.12-.19,3.11Z"/><path class="cls-2" d="M14.1,13.21a.78.78,0,0,0,.44-.13A48,48,0,0,0,18.81,9a.69.69,0,0,0,.26-.52.72.72,0,0,0-.25-.4C17.71,7,16.54,5.92,15.5,4.76c-.45-.5-1-1.08-1.32-1.1H14c-.33,0-.87.6-1.32,1.1-1,1.17-2.21,2.21-3.32,3.31a.72.72,0,0,0-.25.4A.69.69,0,0,0,9.39,9a48,48,0,0,0,4.27,4.09.78.78,0,0,0,.44.13Z"/><path class="cls-2" d="M26.83,13.21a.78.78,0,0,0,.44-.13A48,48,0,0,0,31.54,9a.69.69,0,0,0,.26-.52.72.72,0,0,0-.25-.4C30.44,7,29.27,5.92,28.23,4.76c-.45-.5-1-1.08-1.32-1.1h-.17c-.33,0-.87.6-1.32,1.1-1,1.17-2.21,2.21-3.32,3.31a.73.73,0,0,0-.25.4.69.69,0,0,0,.26.52,48.12,48.12,0,0,0,4.27,4.09.78.78,0,0,0,.44.13Z"/><path class="cls-2" d="M27.45,49.08a.79.79,0,0,0-.44.13,48.27,48.27,0,0,0-4.27,4.09.69.69,0,0,0-.26.52.71.71,0,0,0,.25.4c1.11,1.11,2.28,2.15,3.32,3.31.45.5,1,1.08,1.32,1.1h.17c.33,0,.87-.6,1.32-1.1,1-1.16,2.21-2.21,3.32-3.31a.71.71,0,0,0,.25-.4.69.69,0,0,0-.26-.52,48.34,48.34,0,0,0-4.27-4.09.79.79,0,0,0-.44-.13Z"/><path class="cls-2" d="M14.72,49.08a.79.79,0,0,0-.44.13A48.2,48.2,0,0,0,10,53.3a.69.69,0,0,0-.26.52.71.71,0,0,0,.25.4c1.11,1.11,2.28,2.15,3.32,3.31.45.5,1,1.08,1.32,1.1h.17c.33,0,.87-.6,1.32-1.1,1-1.16,2.21-2.21,3.32-3.31a.71.71,0,0,0,.25-.4.69.69,0,0,0-.26-.52,48.4,48.4,0,0,0-4.27-4.09.79.79,0,0,0-.44-.13Z"/><path class="cls-2" d="M20.28,35.92a.79.79,0,0,0,.44-.13A48.33,48.33,0,0,0,25,31.7a.68.68,0,0,0,.26-.52.74.74,0,0,0-.25-.4c-1.11-1.1-2.28-2.15-3.32-3.31-.45-.5-1-1.08-1.32-1.1h-.17c-.33,0-.87.6-1.31,1.1-1,1.17-2.21,2.21-3.32,3.31a.74.74,0,0,0-.25.4.69.69,0,0,0,.26.52,48.34,48.34,0,0,0,4.27,4.09.79.79,0,0,0,.44.13Z"/></g></g></svg>