<svg xmlns="http://www.w3.org/2000/svg" viewBox="0 0 40.97 62.31"><defs><style>.cls-1{fill:#fff;}.cls-2{fill:#d6002b;}</style></defs><title>Fichier 19</title><g id="Calque_2" data-name="Calque 2"><g id="Layer_1" data-name="Layer 1"><path class="cls-1" d="M37.39,62.22l-33.85,0A3.45,3.45,0,0,1,.09,58.74l0-55.2A3.45,3.45,0,0,1,3.58.09l33.85,0a3.45,3.45,0,0,1,3.45,3.45l0,55.2A3.45,3.45,0,0,1,37.39,62.22Z"/><path class="cls-1" d="M37.39,62.31h0l-33.85,0A3.55,3.55,0,0,1,0,58.74L0,3.54A3.55,3.55,0,0,1,3.58,0L37.43,0A3.55,3.55,0,0,1,41,3.57l0,55.2A3.55,3.55,0,0,1,37.39,62.31ZM3.58.19A3.36,3.36,0,0,0,.23,3.54l0,55.2A3.36,3.36,0,0,0,3.54,62.1l33.85,0v0a3.36,3.36,0,0,0,3.36-3.35l0-55.2A3.36,3.36,0,0,0,37.43.21Z"/><path class="cls-2" d="M5.77,12.72c.17-.15.35-.27.53-.4a3.2,3.2,0,0,0,.57-.46,1.41,1.41,0,0,0,.26-.5,1.2,1.2,0,0,0,0-.78.94.94,0,0,0-1.74.16,0,0,0,0,1,0,0h0a0,0,0,0,1,0,0,.94.94,0,0,0-1.74-.16,1.2,1.2,0,0,0,0,.78,1.4,1.4,0,0,0,.26.5,3.19,3.19,0,0,0,.57.46c.18.13.37.25.53.4s.46.48.46.48S5.69,12.8,5.77,12.72Z"/><path class="cls-2" d="M35.24,49.66c-.17.15-.35.27-.53.4a3.16,3.16,0,0,0-.57.46,1.39,1.39,0,0,0-.26.5,1.19,1.19,0,0,0,0,.78.94.94,0,0,0,1.74-.16,0,0,0,0,1,0,0h0a0,0,0,0,1,0,0,.94.94,0,0,0,1.74.16,1.2,1.2,0,0,0,0-.78,1.39,1.39,0,0,0-.26-.5,3.14,3.14,0,0,0-.57-.46c-.18-.13-.37-.25-.53-.4s-.46-.48-.46-.48S35.32,49.59,35.24,49.66Z"/><path class="cls-2" d="M7,3,7,3.63H4.14L4,5.49a2,2,0,0,1,2.8-.07,1.9,1.9,0,0,1,.59,1.43,1.85,1.85,0,0,1-.64,1.45,2.27,2.27,0,0,1-1.56.57A2.25,2.25,0,0,1,3.92,8.5a1.75,1.75,0,0,1-.74-1l.61-.21a1.41,1.41,0,0,0,1.43,1A1.47,1.47,0,0,0,6.31,7.9a1.41,1.41,0,0,0,.4-1,1.34,1.34,0,0,0-.4-1,1.36,1.36,0,0,0-1-.37A1.59,1.59,0,0,0,4,6.24l-.57-.12L3.62,3Z"/><path class="cls-2" d="M34,59.3l.06-.62h2.83L37,56.82a2,2,0,0,1-2.8.07,1.9,1.9,0,0,1-.59-1.43A1.85,1.85,0,0,1,34.22,54a2.41,2.41,0,0,1,2.85-.19,1.76,1.76,0,0,1,.74,1l-.61.21a1.41,1.41,0,0,0-1.43-1,1.48,1.48,0,0,0-1.09.41,1.42,1.42,0,0,0-.4,1,1.34,1.34,0,0,0,.4,1,1.36,1.36,0,0,0,1,.37A1.59,1.59,0,0,0,37,56.07l.57.12-.19,3.11Z"/><path class="cls-2" d="M15.1,12c.47-.43,1-.75,1.5-1.13a9,9,0,0,0,1.6-1.31,3.94,3.94,0,0,0,.72-1.4,3.36,3.36,0,0,0-.1-2.18c-.87-1.39-3.3-2.61-4.9.46a.13.13,0,0,1-.11.07h0a.13.13,0,0,1-.11-.07c-1.6-3.07-4-1.85-4.9-.46a3.36,3.36,0,0,0-.1,2.18,3.94,3.94,0,0,0,.72,1.4A9,9,0,0,0,11,10.83c.51.38,1,.71,1.5,1.13.24.21,1.29,1.34,1.29,1.34S14.86,12.18,15.1,12Z"/><path class="cls-2" d="M28.45,12c.47-.43,1-.75,1.5-1.13a9,9,0,0,0,1.6-1.31,3.94,3.94,0,0,0,.72-1.4,3.37,3.37,0,0,0-.1-2.18c-.87-1.39-3.3-2.61-4.9.46a.13.13,0,0,1-.11.07h0A.13.13,0,0,1,27,6.4c-1.6-3.07-4-1.85-4.9-.46a3.36,3.36,0,0,0-.1,2.18,3.93,3.93,0,0,0,.72,1.4,9,9,0,0,0,1.6,1.31c.51.38,1,.71,1.5,1.13.24.21,1.29,1.34,1.29,1.34S28.21,12.18,28.45,12Z"/><path class="cls-2" d="M25.87,50.34c-.47.43-1,.75-1.5,1.13a9,9,0,0,0-1.6,1.31,3.94,3.94,0,0,0-.72,1.4,3.36,3.36,0,0,0,.1,2.18c.87,1.39,3.3,2.61,4.9-.46a.13.13,0,0,1,.11-.07h0a.13.13,0,0,1,.11.07c1.6,3.07,4,1.85,4.9.46a3.37,3.37,0,0,0,.1-2.18,3.94,3.94,0,0,0-.72-1.4,9,9,0,0,0-1.6-1.31c-.51-.38-1-.71-1.5-1.13-.24-.21-1.29-1.34-1.29-1.34S26.11,50.13,25.87,50.34Z"/><path class="cls-2" d="M12.52,50.34c-.47.43-1,.75-1.5,1.13a9,9,0,0,0-1.6,1.31,3.94,3.94,0,0,0-.72,1.4,3.36,3.36,0,0,0,.1,2.18c.87,1.39,3.3,2.61,4.9-.46a.13.13,0,0,1,.11-.07h0a.13.13,0,0,1,.11.07c1.6,3.07,4,1.85,4.9.46a3.36,3.36,0,0,0,.1-2.18,4,4,0,0,0-.72-1.4,9,9,0,0,0-1.6-1.31c-.51-.38-1-.71-1.5-1.13-.23-.21-1.29-1.34-1.29-1.34S12.76,50.13,12.52,50.34Z"/><path class="cls-2" d="M21.77,34.22c.47-.42,1-.75,1.5-1.13a9,9,0,0,0,1.6-1.31,3.94,3.94,0,0,0,.72-1.4,3.36,3.36,0,0,0-.1-2.18c-.87-1.39-3.3-2.61-4.9.46a.13.13,0,0,1-.11.07h0a.13.13,0,0,1-.11-.07c-1.6-3.07-4-1.85-4.9-.46a3.37,3.37,0,0,0-.1,2.18,3.93,3.93,0,0,0,.72,1.4,9,9,0,0,0,1.6,1.31c.51.38,1,.71,1.5,1.13.24.21,1.29,1.35,1.29,1.35S21.54,34.44,21.77,34.22Z"/></g></g></svg>