<svg xmlns="http://www.w3.org/2000/svg" viewBox="0 0 40.93 62.29"><defs><style>.cls-1{fill:#fff;}.cls-2{fill:#0c0a35;}</style></defs><title>Fichier 32</title><g id="Calque_2" data-name="Calque 2"><g id="Layer_1" data-name="Layer 1"><rect class="cls-1" x="0.09" y="0.09" width="40.74" height="62.1" rx="3.45" ry="3.45"/><path class="cls-1" d="M37.39,62.29H3.54A3.55,3.55,0,0,1,0,58.74V3.54A3.55,3.55,0,0,1,3.54,0H37.39a3.55,3.55,0,0,1,3.54,3.54v55.2A3.55,3.55,0,0,1,37.39,62.29ZM3.54.19A3.36,3.36,0,0,0,.19,3.54v55.2A3.36,3.36,0,0,0,3.54,62.1H37.39a3.36,3.36,0,0,0,3.36-3.36V3.54A3.36,3.36,0,0,0,37.39.19Z"/><path class="cls-2" d="M35.44,50.65c0-.1,0-.25,0-.35a3.07,3.07,0,0,0,0-.31,1.42,1.42,0,0,0-.43-.93c.24,0,.84,0,1.08,0a1.42,1.42,0,0,0-.43.93,2.93,2.93,0,0,0,0,.31c0,.1,0,.25,0,.35Z"/><path class="cls-2" d="M35.53,50.26a1.16,1.16,0,0,0-1-.54.9.9,0,0,0-.84.68,1.11,1.11,0,0,0,.33.93,4.48,4.48,0,0,0,.84.61,4.61,4.61,0,0,1,.7.67,8.87,8.87,0,0,1,.7-.66,6.52,6.52,0,0,0,.84-.62,1.11,1.11,0,0,0,.33-.93.89.89,0,0,0-.84-.68,1.16,1.16,0,0,0-1,.54Z"/><path class="cls-2" d="M5.36,11.36c0,.1,0,.25,0,.35a3,3,0,0,0,0,.31,1.42,1.42,0,0,0,.43.93c-.24,0-.84,0-1.08,0A1.42,1.42,0,0,0,5.11,12a2.87,2.87,0,0,0,0-.31c0-.1,0-.25,0-.35Z"/><path class="cls-2" d="M5.27,11.75a1.16,1.16,0,0,0,1,.54.9.9,0,0,0,.84-.68,1.11,1.11,0,0,0-.33-.93,4.49,4.49,0,0,0-.84-.61,4.71,4.71,0,0,1-.7-.67,9.14,9.14,0,0,1-.7.66,6.55,6.55,0,0,0-.84.62,1.11,1.11,0,0,0-.33.93.9.9,0,0,0,.84.68,1.16,1.16,0,0,0,1-.54Z"/><path class="cls-2" d="M7,3l-.06.62H4.12L4,5.48a2,2,0,0,1,1.41-.63,2,2,0,0,1,1.4.56,1.9,1.9,0,0,1,.59,1.43A1.85,1.85,0,0,1,6.75,8.3a2.27,2.27,0,0,1-1.56.56A2.25,2.25,0,0,1,3.9,8.48a1.76,1.76,0,0,1-.74-1l.61-.21a1.41,1.41,0,0,0,1.43,1,1.47,1.47,0,0,0,1.09-.41,1.41,1.41,0,0,0,.4-1,1.34,1.34,0,0,0-.4-1,1.36,1.36,0,0,0-1-.37A1.59,1.59,0,0,0,4,6.23L3.41,6.1,3.6,3Z"/><path class="cls-2" d="M33.94,59.29l.06-.62h2.83l.12-1.87a1.95,1.95,0,0,1-2.8.07,1.9,1.9,0,0,1-.59-1.43A1.85,1.85,0,0,1,34.2,54,2.41,2.41,0,0,1,37,53.8a1.76,1.76,0,0,1,.74,1l-.61.21a1.41,1.41,0,0,0-1.43-1,1.47,1.47,0,0,0-1.09.41,1.41,1.41,0,0,0-.4,1,1.34,1.34,0,0,0,.4,1,1.36,1.36,0,0,0,1,.37A1.59,1.59,0,0,0,37,56.06l.57.12-.19,3.11Z"/><path class="cls-2" d="M14.6,8.19c0,.26-.1.63-.1.88a7.49,7.49,0,0,0,0,.78,3.56,3.56,0,0,0,1.08,2.32c-.6,0-2.11,0-2.71,0A3.56,3.56,0,0,0,14,9.85a7.3,7.3,0,0,0,0-.78c0-.26-.1-.62-.1-.88Z"/><path class="cls-2" d="M14.38,9.16a2.91,2.91,0,0,0,2.45,1.36,2.25,2.25,0,0,0,2.11-1.7,2.77,2.77,0,0,0-.83-2.34A11,11,0,0,0,16,5a11.75,11.75,0,0,1-1.76-1.68A22.51,22.51,0,0,1,12.5,4.94a15.92,15.92,0,0,0-2.11,1.54,2.77,2.77,0,0,0-.83,2.34,2.25,2.25,0,0,0,2.11,1.7,2.91,2.91,0,0,0,2.45-1.36Z"/><path class="cls-2" d="M27,8.19c0,.26-.1.63-.1.88a7.36,7.36,0,0,0,0,.78A3.55,3.55,0,0,0,28,12.18c-.6,0-2.11,0-2.71,0A3.56,3.56,0,0,0,26.4,9.85a7.2,7.2,0,0,0,0-.78c0-.26-.1-.62-.1-.88Z"/><path class="cls-2" d="M26.81,9.16a2.91,2.91,0,0,0,2.45,1.36,2.25,2.25,0,0,0,2.11-1.7,2.77,2.77,0,0,0-.83-2.34A11.05,11.05,0,0,0,28.44,5a11.71,11.71,0,0,1-1.76-1.68,22.59,22.59,0,0,1-1.75,1.65,16,16,0,0,0-2.11,1.54A2.77,2.77,0,0,0,22,8.82a2.25,2.25,0,0,0,2.11,1.7,2.91,2.91,0,0,0,2.45-1.36Z"/><path class="cls-2" d="M26.33,54.1c0-.26.1-.63.1-.88a7.16,7.16,0,0,0,0-.78,3.55,3.55,0,0,0-1.08-2.32c.6,0,2.11,0,2.71,0A3.55,3.55,0,0,0,27,52.43a7.32,7.32,0,0,0,0,.78c0,.26.1.63.1.88Z"/><path class="cls-2" d="M26.55,53.12a2.9,2.9,0,0,0-2.45-1.36A2.25,2.25,0,0,0,22,53.46a2.77,2.77,0,0,0,.83,2.34,11.15,11.15,0,0,0,2.1,1.52A11.74,11.74,0,0,1,26.68,59a22.55,22.55,0,0,1,1.75-1.65,16.13,16.13,0,0,0,2.11-1.54,2.77,2.77,0,0,0,.83-2.34,2.25,2.25,0,0,0-2.11-1.7,2.9,2.9,0,0,0-2.45,1.36Z"/><path class="cls-2" d="M13.9,54.1c0-.26.1-.63.1-.88a7.16,7.16,0,0,0,0-.78,3.55,3.55,0,0,0-1.08-2.32c.6,0,2.11,0,2.71,0a3.55,3.55,0,0,0-1.08,2.32,7.45,7.45,0,0,0,0,.78c0,.26.1.63.1.88Z"/><path class="cls-2" d="M14.12,53.12a2.9,2.9,0,0,0-2.45-1.36,2.25,2.25,0,0,0-2.11,1.7,2.77,2.77,0,0,0,.83,2.34,11.12,11.12,0,0,0,2.1,1.52A11.76,11.76,0,0,1,14.25,59,22.49,22.49,0,0,1,16,57.35a16.09,16.09,0,0,0,2.11-1.54,2.77,2.77,0,0,0,.83-2.34,2.25,2.25,0,0,0-2.11-1.7,2.9,2.9,0,0,0-2.45,1.36Z"/><path class="cls-2" d="M20.81,31.58c0,.26-.1.63-.1.88a7.49,7.49,0,0,0,0,.78,3.55,3.55,0,0,0,1.08,2.32c-.6,0-2.11,0-2.71,0a3.56,3.56,0,0,0,1.08-2.32,7.23,7.23,0,0,0,0-.78c0-.26-.1-.62-.1-.88Z"/><path class="cls-2" d="M20.59,32.56A2.9,2.9,0,0,0,23,33.92a2.25,2.25,0,0,0,2.11-1.7,2.77,2.77,0,0,0-.83-2.34,11,11,0,0,0-2.1-1.52,11.76,11.76,0,0,1-1.76-1.68,22.47,22.47,0,0,1-1.75,1.65,15.92,15.92,0,0,0-2.11,1.54,2.77,2.77,0,0,0-.83,2.34,2.25,2.25,0,0,0,2.11,1.7,2.9,2.9,0,0,0,2.45-1.36Z"/></g></g></svg>