<svg xmlns="http://www.w3.org/2000/svg" viewBox="0 0 40.93 62.29"><defs><style>.cls-1{fill:#fff;}.cls-2{fill:#d6002b;}</style></defs><title>Fichier 20</title><g id="Calque_2" data-name="Calque 2"><g id="Layer_1" data-name="Layer 1"><rect class="cls-1" x="0.09" y="0.09" width="40.74" height="62.1" rx="3.45" ry="3.45"/><path class="cls-1" d="M37.39,62.29H3.54A3.55,3.55,0,0,1,0,58.75V3.54A3.55,3.55,0,0,1,3.54,0H37.39a3.55,3.55,0,0,1,3.54,3.54v55.2A3.55,3.55,0,0,1,37.39,62.29ZM3.54.19A3.36,3.36,0,0,0,.19,3.54v55.2A3.36,3.36,0,0,0,3.54,62.1H37.39a3.36,3.36,0,0,0,3.36-3.36V3.54A3.36,3.36,0,0,0,37.39.19Z"/><path class="cls-2" d="M5.75,12.71c.17-.15.35-.27.53-.4a3.19,3.19,0,0,0,.57-.46,1.41,1.41,0,0,0,.26-.5,1.2,1.2,0,0,0,0-.78.94.94,0,0,0-1.74.16,0,0,0,0,1,0,0h0a0,0,0,0,1,0,0,.94.94,0,0,0-1.74-.16,1.2,1.2,0,0,0,0,.78,1.4,1.4,0,0,0,.26.5,3.18,3.18,0,0,0,.57.46c.18.13.37.25.53.4s.46.48.46.48S5.67,12.79,5.75,12.71Z"/><path class="cls-2" d="M35.22,49.65c-.17.15-.35.27-.53.4a3.16,3.16,0,0,0-.57.46,1.39,1.39,0,0,0-.26.5,1.19,1.19,0,0,0,0,.78.94.94,0,0,0,1.74-.16,0,0,0,0,1,0,0h0a0,0,0,0,1,0,0,.94.94,0,0,0,1.74.16,1.2,1.2,0,0,0,0-.78,1.4,1.4,0,0,0-.26-.5,3.16,3.16,0,0,0-.57-.46c-.18-.13-.37-.25-.53-.4s-.46-.48-.46-.48S35.3,49.57,35.22,49.65Z"/><path class="cls-2" d="M7.22,4.17l-.65.18a1.21,1.21,0,0,0-1.21-.88q-1.62,0-1.65,2.67a1.85,1.85,0,0,1,.73-.88,1.89,1.89,0,0,1,1-.29,1.79,1.79,0,0,1,1.34.56,1.86,1.86,0,0,1,.54,1.34,1.93,1.93,0,0,1-.58,1.4,2,2,0,0,1-1.47.59,2,2,0,0,1-1.62-.77A3.3,3.3,0,0,1,3,6a4.09,4.09,0,0,1,.57-2.21,1.93,1.93,0,0,1,1.77-.91A1.8,1.8,0,0,1,7.22,4.17Zm-2,4.11A1.38,1.38,0,0,0,6.27,6a1.26,1.26,0,0,0-.95-.4A1.42,1.42,0,0,0,4.3,6a1.32,1.32,0,0,0-.43,1,1.3,1.3,0,0,0,.39.92A1.32,1.32,0,0,0,5.26,8.29Z"/><path class="cls-2" d="M33.54,58.12l.65-.18a1.21,1.21,0,0,0,1.21.88q1.62,0,1.66-2.67a1.83,1.83,0,0,1-.73.88,1.89,1.89,0,0,1-1,.29A1.79,1.79,0,0,1,34,56.75a1.86,1.86,0,0,1-.54-1.34A1.93,1.93,0,0,1,34,54a2.11,2.11,0,0,1,3.1.18,3.3,3.3,0,0,1,.6,2.09,4.09,4.09,0,0,1-.57,2.21,1.93,1.93,0,0,1-1.77.91A1.8,1.8,0,0,1,33.54,58.12Zm2-4.12a1.38,1.38,0,0,0-1,2.33,1.26,1.26,0,0,0,.95.4,1.42,1.42,0,0,0,1-.42,1.32,1.32,0,0,0,.43-1,1.3,1.3,0,0,0-.39-.92A1.32,1.32,0,0,0,35.5,54Z"/><path class="cls-2" d="M15.08,12c.47-.43,1-.75,1.5-1.13a9,9,0,0,0,1.6-1.31,3.94,3.94,0,0,0,.72-1.4,3.36,3.36,0,0,0-.1-2.18c-.87-1.39-3.3-2.61-4.9.46a.13.13,0,0,1-.11.07h0a.13.13,0,0,1-.11-.07c-1.6-3.07-4-1.85-4.9-.46a3.36,3.36,0,0,0-.1,2.18,3.94,3.94,0,0,0,.72,1.4A9,9,0,0,0,11,10.82c.51.38,1,.71,1.5,1.13.24.21,1.29,1.34,1.29,1.34S14.84,12.17,15.08,12Z"/><path class="cls-2" d="M28.43,12c.47-.43,1-.75,1.5-1.13a9,9,0,0,0,1.6-1.31,3.94,3.94,0,0,0,.72-1.4,3.37,3.37,0,0,0-.1-2.18c-.87-1.39-3.3-2.61-4.9.46a.13.13,0,0,1-.11.07h0A.13.13,0,0,1,27,6.39c-1.6-3.07-4-1.85-4.9-.46A3.36,3.36,0,0,0,22,8.11a3.93,3.93,0,0,0,.72,1.4,9,9,0,0,0,1.6,1.31c.51.38,1,.71,1.5,1.13.24.21,1.29,1.34,1.29,1.34S28.19,12.17,28.43,12Z"/><path class="cls-2" d="M15.08,34.21c.47-.42,1-.75,1.5-1.13a9,9,0,0,0,1.6-1.31,3.93,3.93,0,0,0,.72-1.4,3.36,3.36,0,0,0-.1-2.18c-.87-1.39-3.3-2.61-4.9.46a.13.13,0,0,1-.11.07h0a.13.13,0,0,1-.11-.07c-1.6-3.07-4-1.85-4.9-.46a3.36,3.36,0,0,0-.1,2.18,3.94,3.94,0,0,0,.72,1.4A9,9,0,0,0,11,33.08c.51.38,1,.71,1.5,1.13.24.21,1.29,1.35,1.29,1.35S14.84,34.42,15.08,34.21Z"/><path class="cls-2" d="M28.43,34.21c.47-.42,1-.75,1.5-1.13a9,9,0,0,0,1.6-1.31,3.93,3.93,0,0,0,.72-1.4,3.37,3.37,0,0,0-.1-2.18c-.87-1.39-3.3-2.61-4.9.46a.13.13,0,0,1-.11.07h0a.13.13,0,0,1-.11-.07c-1.6-3.07-4-1.85-4.9-.46a3.36,3.36,0,0,0-.1,2.18,3.93,3.93,0,0,0,.72,1.4,9,9,0,0,0,1.6,1.31c.51.38,1,.71,1.5,1.13.24.21,1.29,1.35,1.29,1.35S28.19,34.42,28.43,34.21Z"/><path class="cls-2" d="M25.85,50.33c-.47.43-1,.75-1.5,1.13a9,9,0,0,0-1.6,1.31,3.93,3.93,0,0,0-.72,1.4,3.36,3.36,0,0,0,.1,2.18C23,57.75,25.43,59,27,55.9a.13.13,0,0,1,.11-.07h0a.13.13,0,0,1,.11.07c1.6,3.07,4,1.85,4.9.46a3.37,3.37,0,0,0,.1-2.18,3.94,3.94,0,0,0-.72-1.4,9,9,0,0,0-1.6-1.31c-.51-.38-1-.71-1.5-1.13-.24-.21-1.29-1.34-1.29-1.34S26.09,50.12,25.85,50.33Z"/><path class="cls-2" d="M12.5,50.33c-.47.43-1,.75-1.5,1.13a9,9,0,0,0-1.6,1.31,4,4,0,0,0-.72,1.4,3.36,3.36,0,0,0,.1,2.18c.87,1.39,3.3,2.61,4.9-.46a.13.13,0,0,1,.11-.07h0a.13.13,0,0,1,.11.07c1.6,3.07,4,1.85,4.9.46a3.36,3.36,0,0,0,.1-2.18,3.94,3.94,0,0,0-.72-1.4,9,9,0,0,0-1.6-1.31c-.51-.38-1-.71-1.5-1.13-.24-.21-1.29-1.34-1.29-1.34S12.74,50.12,12.5,50.33Z"/></g></g></svg>