<svg xmlns="http://www.w3.org/2000/svg" viewBox="0 0 40.93 62.29"><defs><style>.cls-1{fill:#fff;}.cls-2{fill:#0c0a35;}</style></defs><title>Fichier 10</title><g id="Calque_2" data-name="Calque 2"><g id="Layer_1" data-name="Layer 1"><rect class="cls-1" x="0.09" y="0.09" width="40.74" height="62.1" rx="3.45" ry="3.45"/><path class="cls-1" d="M37.39,62.29H3.54A3.55,3.55,0,0,1,0,58.74V3.54A3.55,3.55,0,0,1,3.54,0H37.39a3.55,3.55,0,0,1,3.54,3.54v55.2A3.55,3.55,0,0,1,37.39,62.29ZM3.54.19A3.36,3.36,0,0,0,.19,3.54v55.2A3.36,3.36,0,0,0,3.54,62.1H37.39a3.36,3.36,0,0,0,3.36-3.36V3.54A3.36,3.36,0,0,0,37.39.19Z"/><path class="cls-2" d="M5.42,11.77c0,.1,0,.24,0,.35a2.66,2.66,0,0,0,0,.31,1.38,1.38,0,0,0,.42.91c-.24,0-.83,0-1.06,0a1.38,1.38,0,0,0,.42-.91,2.66,2.66,0,0,0,0-.31c0-.1,0-.25,0-.35Z"/><path class="cls-2" d="M5.35,12c.1,0,.15.11.33.3a1,1,0,0,0,.69.41.66.66,0,0,0,.55-.23,1.24,1.24,0,0,0,.19-.44A1.12,1.12,0,0,0,7,11.23.59.59,0,0,0,6.26,11c-.13.08-.17.17-.28.19a.05.05,0,0,1-.06-.06c0-.18.17-.2.23-.41A.61.61,0,0,0,5.9,10a1.17,1.17,0,0,0-1.22,0,.56.56,0,0,0-.25.67c.05.2.17.29.22.45a.07.07,0,0,1-.09.09c-.08,0-.13-.11-.24-.18a.59.59,0,0,0-.76.24,1.12,1.12,0,0,0-.09.84,1.24,1.24,0,0,0,.19.44.66.66,0,0,0,.55.23,1,1,0,0,0,.69-.41c.18-.19.24-.29.33-.3Z"/><path class="cls-2" d="M3.28,7.7l.58-.21a1.23,1.23,0,0,0,1.2.8A1.35,1.35,0,0,0,6.3,7.6a3.73,3.73,0,0,0,.43-1.87,1.82,1.82,0,0,1-1.7,1,1.82,1.82,0,0,1-1.34-.55,1.84,1.84,0,0,1-.54-1.35,1.93,1.93,0,0,1,.57-1.4,2,2,0,0,1,1.46-.58,2,2,0,0,1,1.66.76,3.39,3.39,0,0,1,.58,2.09A3.85,3.85,0,0,1,6.8,8a2,2,0,0,1-1.74.87A1.74,1.74,0,0,1,3.28,7.7ZM5.19,6.18a1.33,1.33,0,0,0,1-.41,1.35,1.35,0,0,0,.4-1,1.27,1.27,0,0,0-.38-.93,1.34,1.34,0,0,0-1-.39,1.29,1.29,0,0,0-1,.4,1.39,1.39,0,0,0-.37,1,1.23,1.23,0,0,0,.41,1A1.38,1.38,0,0,0,5.19,6.18Z"/><path class="cls-2" d="M35.49,50.52c0-.1,0-.24,0-.35a2.66,2.66,0,0,0,0-.31A1.39,1.39,0,0,0,35.1,49c.24,0,.83,0,1.06,0a1.39,1.39,0,0,0-.42.91,2.66,2.66,0,0,0,0,.31c0,.1,0,.25,0,.35Z"/><path class="cls-2" d="M35.56,50.27c-.1,0-.16-.11-.33-.31a1,1,0,0,0-.69-.41.66.66,0,0,0-.55.23,1.24,1.24,0,0,0-.19.44,1.12,1.12,0,0,0,.09.84.59.59,0,0,0,.76.24c.13-.08.17-.17.29-.19a.05.05,0,0,1,.06.06c0,.18-.17.2-.23.41a.61.61,0,0,0,.25.76,1.18,1.18,0,0,0,1.22,0,.56.56,0,0,0,.25-.67c-.05-.2-.17-.29-.22-.45a.07.07,0,0,1,.09-.09c.08,0,.13.11.24.18a.59.59,0,0,0,.76-.24,1.13,1.13,0,0,0,.09-.84,1.24,1.24,0,0,0-.19-.44.66.66,0,0,0-.55-.23A1,1,0,0,0,36,50c-.18.2-.24.29-.33.31Z"/><path class="cls-2" d="M37.48,54.59l-.58.21a1.23,1.23,0,0,0-1.2-.8,1.35,1.35,0,0,0-1.24.69A3.71,3.71,0,0,0,34,56.57a1.92,1.92,0,0,1,3-.49,1.84,1.84,0,0,1,.54,1.35,1.92,1.92,0,0,1-.57,1.4,2.15,2.15,0,0,1-3.11-.18,3.39,3.39,0,0,1-.58-2.09A3.85,3.85,0,0,1,34,54.29a2,2,0,0,1,1.74-.87A1.74,1.74,0,0,1,37.48,54.59Zm-1.91,1.52a1.33,1.33,0,0,0-1,.42,1.35,1.35,0,0,0-.4,1,1.28,1.28,0,0,0,.38.93,1.34,1.34,0,0,0,1,.39,1.29,1.29,0,0,0,1-.4,1.38,1.38,0,0,0,.37-1,1.23,1.23,0,0,0-.41-1A1.38,1.38,0,0,0,35.57,56.11Z"/><path class="cls-2" d="M13.65,8.83c0,.26.1.63.1.88a7.2,7.2,0,0,1,0,.78,3.55,3.55,0,0,1-1.08,2.32c.6,0,2.11,0,2.71,0a3.55,3.55,0,0,1-1.08-2.32,7.72,7.72,0,0,1,0-.78c0-.26.1-.63.1-.88Z"/><path class="cls-2" d="M13.83,9.47c-.25,0-.4.28-.86.78a2.61,2.61,0,0,1-1.77,1,1.68,1.68,0,0,1-1.4-.58A3.19,3.19,0,0,1,9.33,9.6a2.87,2.87,0,0,1,.24-2.15,1.51,1.51,0,0,1,1.95-.6c.32.19.43.43.73.48a.13.13,0,0,0,.15-.16c-.12-.45-.44-.51-.59-1a1.56,1.56,0,0,1,.63-1.94,3,3,0,0,1,3.13,0,1.42,1.42,0,0,1,.64,1.72c-.14.5-.43.73-.56,1.16a.18.18,0,0,0,.23.23c.22-.09.33-.29.61-.45a1.51,1.51,0,0,1,1.95.6,2.87,2.87,0,0,1,.24,2.15,3.21,3.21,0,0,1-.48,1.12,1.69,1.69,0,0,1-1.4.58,2.61,2.61,0,0,1-1.77-1c-.46-.5-.6-.74-.86-.78Z"/><path class="cls-2" d="M26.58,8.83c0,.26.1.63.1.88a7.4,7.4,0,0,1,0,.78,3.55,3.55,0,0,1-1.08,2.32c.6,0,2.11,0,2.71,0a3.55,3.55,0,0,1-1.08-2.32,7.46,7.46,0,0,1,0-.78c0-.26.1-.63.1-.88Z"/><path class="cls-2" d="M26.76,9.47c-.25,0-.4.28-.86.78a2.61,2.61,0,0,1-1.77,1,1.68,1.68,0,0,1-1.4-.58,3.17,3.17,0,0,1-.48-1.12,2.87,2.87,0,0,1,.24-2.15,1.51,1.51,0,0,1,1.95-.6c.32.19.43.43.73.48a.13.13,0,0,0,.15-.16c-.12-.45-.44-.51-.59-1a1.56,1.56,0,0,1,.63-1.94,3,3,0,0,1,3.13,0,1.42,1.42,0,0,1,.64,1.72c-.14.5-.43.73-.56,1.16a.18.18,0,0,0,.23.23c.22-.09.33-.29.61-.45a1.51,1.51,0,0,1,1.95.6,2.87,2.87,0,0,1,.24,2.15,3.18,3.18,0,0,1-.48,1.12,1.69,1.69,0,0,1-1.4.58,2.61,2.61,0,0,1-1.77-1c-.46-.5-.6-.74-.86-.78Z"/><path class="cls-2" d="M27.28,53.46c0-.26-.1-.63-.1-.88a7.45,7.45,0,0,1,0-.78,3.55,3.55,0,0,1,1.08-2.32c-.6,0-2.11,0-2.71,0a3.55,3.55,0,0,1,1.08,2.32,7.4,7.4,0,0,1,0,.78c0,.26-.1.63-.1.88Z"/><path class="cls-2" d="M27.1,52.82c.25,0,.4-.28.86-.78a2.61,2.61,0,0,1,1.77-1,1.69,1.69,0,0,1,1.4.58,3.19,3.19,0,0,1,.48,1.12,2.87,2.87,0,0,1-.24,2.15,1.51,1.51,0,0,1-1.95.6c-.32-.19-.43-.43-.73-.48a.13.13,0,0,0-.15.16c.12.45.44.51.59,1a1.56,1.56,0,0,1-.63,1.94,3,3,0,0,1-3.13,0,1.42,1.42,0,0,1-.64-1.72c.14-.5.43-.73.56-1.16a.18.18,0,0,0-.23-.23c-.22.09-.33.29-.61.45a1.51,1.51,0,0,1-1.95-.6,2.88,2.88,0,0,1-.24-2.15,3.18,3.18,0,0,1,.48-1.12,1.68,1.68,0,0,1,1.4-.58,2.61,2.61,0,0,1,1.77,1c.46.5.6.74.86.78Z"/><path class="cls-2" d="M14.35,53.46c0-.26-.1-.63-.1-.88a7.71,7.71,0,0,1,0-.78,3.55,3.55,0,0,1,1.08-2.32c-.6,0-2.11,0-2.71,0a3.55,3.55,0,0,1,1.08,2.32,7.19,7.19,0,0,1,0,.78c0,.26-.1.63-.1.88Z"/><path class="cls-2" d="M14.17,52.82c.25,0,.4-.28.86-.78a2.61,2.61,0,0,1,1.77-1,1.69,1.69,0,0,1,1.4.58,3.21,3.21,0,0,1,.48,1.12,2.87,2.87,0,0,1-.24,2.15,1.51,1.51,0,0,1-1.95.6c-.32-.19-.43-.43-.73-.48a.13.13,0,0,0-.14.16c.12.45.44.51.59,1a1.55,1.55,0,0,1-.63,1.94,3,3,0,0,1-3.13,0,1.42,1.42,0,0,1-.64-1.72c.14-.5.43-.73.56-1.16a.18.18,0,0,0-.23-.23c-.22.09-.33.29-.61.45a1.51,1.51,0,0,1-1.95-.6,2.88,2.88,0,0,1-.24-2.15,3.2,3.2,0,0,1,.48-1.12,1.69,1.69,0,0,1,1.4-.58A2.61,2.61,0,0,1,13,52c.46.5.6.74.86.78Z"/><path class="cls-2" d="M13.65,20.88c0,.26.1.63.1.88a7.2,7.2,0,0,1,0,.78,3.55,3.55,0,0,1-1.08,2.32c.6,0,2.11,0,2.71,0a3.55,3.55,0,0,1-1.08-2.32,7.72,7.72,0,0,1,0-.78c0-.26.1-.63.1-.88Z"/><path class="cls-2" d="M13.83,21.52c-.25,0-.4.28-.86.78a2.61,2.61,0,0,1-1.77,1,1.68,1.68,0,0,1-1.4-.58,3.19,3.19,0,0,1-.48-1.12,2.87,2.87,0,0,1,.24-2.15,1.51,1.51,0,0,1,1.95-.6c.32.19.43.43.73.48a.13.13,0,0,0,.15-.16c-.12-.45-.44-.51-.59-1a1.56,1.56,0,0,1,.63-1.94,3,3,0,0,1,3.13,0A1.42,1.42,0,0,1,16.2,18c-.14.5-.43.73-.56,1.16a.18.18,0,0,0,.23.23c.22-.09.33-.29.61-.45a1.51,1.51,0,0,1,1.95.6,2.87,2.87,0,0,1,.24,2.15,3.21,3.21,0,0,1-.48,1.12,1.69,1.69,0,0,1-1.4.58,2.61,2.61,0,0,1-1.77-1c-.46-.5-.6-.74-.86-.78Z"/><path class="cls-2" d="M26.58,20.88c0,.26.1.63.1.88a7.4,7.4,0,0,1,0,.78,3.55,3.55,0,0,1-1.08,2.32c.6,0,2.11,0,2.71,0a3.55,3.55,0,0,1-1.08-2.32,7.46,7.46,0,0,1,0-.78c0-.26.1-.63.1-.88Z"/><path class="cls-2" d="M26.76,21.52c-.25,0-.4.28-.86.78a2.61,2.61,0,0,1-1.77,1,1.68,1.68,0,0,1-1.4-.58,3.17,3.17,0,0,1-.48-1.12,2.87,2.87,0,0,1,.24-2.15,1.51,1.51,0,0,1,1.95-.6c.32.19.43.43.73.48a.13.13,0,0,0,.15-.16c-.12-.45-.44-.51-.59-1a1.56,1.56,0,0,1,.63-1.94,3,3,0,0,1,3.13,0A1.42,1.42,0,0,1,29.13,18c-.14.5-.43.73-.56,1.16a.18.18,0,0,0,.23.23c.22-.09.33-.29.61-.45a1.51,1.51,0,0,1,1.95.6,2.86,2.86,0,0,1,.24,2.15,3.19,3.19,0,0,1-.48,1.12,1.69,1.69,0,0,1-1.4.58,2.61,2.61,0,0,1-1.77-1c-.46-.5-.6-.74-.86-.78Z"/><path class="cls-2" d="M27.28,42c0-.26-.1-.63-.1-.88a7.46,7.46,0,0,1,0-.78A3.56,3.56,0,0,1,28.29,38c-.6,0-2.11,0-2.71,0a3.55,3.55,0,0,1,1.08,2.32,7.4,7.4,0,0,1,0,.78c0,.26-.1.63-.1.88Z"/><path class="cls-2" d="M27.1,41.33c.25,0,.4-.28.86-.78a2.61,2.61,0,0,1,1.77-1,1.69,1.69,0,0,1,1.4.58,3.19,3.19,0,0,1,.48,1.12,2.87,2.87,0,0,1-.24,2.15,1.51,1.51,0,0,1-1.95.6c-.32-.19-.43-.43-.73-.48a.13.13,0,0,0-.15.16c.12.45.44.51.59,1a1.56,1.56,0,0,1-.63,1.94,3,3,0,0,1-3.13,0,1.42,1.42,0,0,1-.64-1.72c.14-.5.43-.73.56-1.16a.18.18,0,0,0-.23-.23c-.22.09-.33.29-.61.45a1.51,1.51,0,0,1-1.95-.6,2.88,2.88,0,0,1-.24-2.15,3.18,3.18,0,0,1,.48-1.12,1.68,1.68,0,0,1,1.4-.58,2.61,2.61,0,0,1,1.77,1c.46.5.6.74.86.78Z"/><path class="cls-2" d="M14.35,42c0-.26-.1-.63-.1-.88a7.72,7.72,0,0,1,0-.78A3.55,3.55,0,0,1,15.36,38c-.6,0-2.11,0-2.71,0a3.56,3.56,0,0,1,1.08,2.32,7.2,7.2,0,0,1,0,.78c0,.26-.1.63-.1.88Z"/><path class="cls-2" d="M14.17,41.33c.25,0,.4-.28.86-.78a2.61,2.61,0,0,1,1.77-1,1.69,1.69,0,0,1,1.4.58,3.21,3.21,0,0,1,.48,1.12,2.87,2.87,0,0,1-.24,2.15,1.51,1.51,0,0,1-1.95.6c-.32-.19-.43-.43-.73-.48a.13.13,0,0,0-.14.16c.12.45.44.51.59,1a1.55,1.55,0,0,1-.63,1.94,3,3,0,0,1-3.13,0,1.42,1.42,0,0,1-.64-1.72c.14-.5.43-.73.56-1.16a.18.18,0,0,0-.23-.23c-.22.09-.33.29-.61.45a1.51,1.51,0,0,1-1.95-.6,2.88,2.88,0,0,1-.24-2.15,3.2,3.2,0,0,1,.48-1.12,1.68,1.68,0,0,1,1.4-.58,2.61,2.61,0,0,1,1.77,1c.46.5.6.74.86.78Z"/><path class="cls-2" d="M20.42,32.05c0,.26.1.63.1.88a7.44,7.44,0,0,1,0,.78A3.56,3.56,0,0,1,19.41,36c.6,0,2.11,0,2.71,0A3.55,3.55,0,0,1,21,33.72a7.39,7.39,0,0,1,0-.78c0-.26.1-.63.1-.88Z"/><path class="cls-2" d="M20.6,32.7c-.25,0-.4.28-.86.78a2.61,2.61,0,0,1-1.77,1,1.69,1.69,0,0,1-1.4-.58,3.2,3.2,0,0,1-.48-1.12,2.88,2.88,0,0,1,.24-2.15,1.51,1.51,0,0,1,1.95-.6c.32.19.43.43.73.48a.13.13,0,0,0,.15-.16c-.12-.45-.44-.51-.59-1a1.56,1.56,0,0,1,.63-1.94,3,3,0,0,1,3.13,0A1.42,1.42,0,0,1,23,29.13c-.14.5-.43.73-.56,1.16a.18.18,0,0,0,.23.23c.21-.09.33-.29.61-.45a1.51,1.51,0,0,1,1.95.6,2.88,2.88,0,0,1,.24,2.15A3.21,3.21,0,0,1,25,33.94a1.68,1.68,0,0,1-1.4.58,2.61,2.61,0,0,1-1.77-1c-.46-.5-.6-.74-.86-.78Z"/></g></g></svg>