<svg xmlns="http://www.w3.org/2000/svg" viewBox="0 0 40.93 62.29"><defs><style>.cls-1{fill:#fff;}.cls-2{fill:#d6002b;}</style></defs><title>Fichier 49</title><g id="Calque_2" data-name="Calque 2"><g id="Layer_1" data-name="Layer 1"><rect class="cls-1" x="0.09" y="0.09" width="40.74" height="62.1" rx="3.45" ry="3.45"/><path class="cls-1" d="M37.39,62.29H3.54A3.55,3.55,0,0,1,0,58.74V3.54A3.55,3.55,0,0,1,3.54,0H37.39a3.55,3.55,0,0,1,3.54,3.54v55.2A3.55,3.55,0,0,1,37.39,62.29ZM3.54.19A3.36,3.36,0,0,0,.19,3.54v55.2A3.36,3.36,0,0,0,3.54,62.1H37.39a3.36,3.36,0,0,0,3.36-3.36V3.54A3.36,3.36,0,0,0,37.39.19Z"/><path class="cls-2" d="M5.29,12.71a.25.25,0,0,0,.13,0,15,15,0,0,0,1.3-1.24.22.22,0,0,0,.08-.16.23.23,0,0,0-.08-.12c-.34-.34-.69-.65-1-1-.14-.15-.3-.33-.4-.34H5.26c-.1,0-.26.18-.4.34-.32.35-.67.67-1,1a.22.22,0,0,0-.08.12.21.21,0,0,0,.08.16,14.84,14.84,0,0,0,1.3,1.24.25.25,0,0,0,.13,0Z"/><path class="cls-2" d="M35.66,52.24a.25.25,0,0,0,.13,0A14.72,14.72,0,0,0,37.09,51a.21.21,0,0,0,.08-.16.22.22,0,0,0-.08-.12c-.34-.34-.69-.65-1-1-.14-.15-.3-.33-.4-.33h-.05c-.1,0-.26.18-.4.33-.32.36-.67.67-1,1a.22.22,0,0,0-.08.12.21.21,0,0,0,.08.16,14.58,14.58,0,0,0,1.3,1.24.25.25,0,0,0,.13,0Z"/><path class="cls-2" d="M3.28,7.7l.58-.21a1.23,1.23,0,0,0,1.2.8A1.35,1.35,0,0,0,6.3,7.59a3.72,3.72,0,0,0,.43-1.87,1.82,1.82,0,0,1-1.7,1,1.82,1.82,0,0,1-1.34-.54,1.85,1.85,0,0,1-.54-1.35,1.93,1.93,0,0,1,.57-1.4,2,2,0,0,1,1.46-.58,2,2,0,0,1,1.66.76,3.39,3.39,0,0,1,.58,2.09A3.85,3.85,0,0,1,6.8,8a2,2,0,0,1-1.74.87A1.74,1.74,0,0,1,3.28,7.7ZM5.19,6.18a1.33,1.33,0,0,0,1-.42,1.36,1.36,0,0,0,.4-1,1.27,1.27,0,0,0-.38-.93,1.34,1.34,0,0,0-1-.39,1.29,1.29,0,0,0-1,.4,1.38,1.38,0,0,0-.37,1,1.23,1.23,0,0,0,.41,1A1.38,1.38,0,0,0,5.19,6.18Z"/><path class="cls-2" d="M37.48,54.59l-.58.21a1.23,1.23,0,0,0-1.2-.8,1.36,1.36,0,0,0-1.24.69A3.72,3.72,0,0,0,34,56.57a1.91,1.91,0,0,1,3-.49,1.84,1.84,0,0,1,.54,1.35,2,2,0,0,1-2,2,2,2,0,0,1-1.66-.76,3.38,3.38,0,0,1-.58-2.09A3.84,3.84,0,0,1,34,54.29a2,2,0,0,1,1.74-.87A1.73,1.73,0,0,1,37.48,54.59Zm-1.91,1.52a1.33,1.33,0,0,0-1,.42,1.35,1.35,0,0,0-.4,1,1.28,1.28,0,0,0,.38.93,1.35,1.35,0,0,0,1,.39,1.29,1.29,0,0,0,1-.4,1.39,1.39,0,0,0,.37-1,1.23,1.23,0,0,0-.41-1A1.39,1.39,0,0,0,35.57,56.11Z"/><path class="cls-2" d="M14.1,13.21a.78.78,0,0,0,.44-.13A48,48,0,0,0,18.81,9a.69.69,0,0,0,.26-.52.72.72,0,0,0-.25-.4C17.71,7,16.54,5.92,15.5,4.76c-.45-.5-1-1.08-1.31-1.1H14c-.33,0-.87.6-1.32,1.1-1,1.17-2.21,2.21-3.32,3.31a.72.72,0,0,0-.25.4A.69.69,0,0,0,9.39,9a48,48,0,0,0,4.27,4.09.78.78,0,0,0,.44.13Z"/><path class="cls-2" d="M26.83,13.21a.78.78,0,0,0,.44-.13A48.18,48.18,0,0,0,31.54,9a.69.69,0,0,0,.26-.52.72.72,0,0,0-.25-.4C30.44,7,29.27,5.92,28.23,4.76c-.45-.5-1-1.08-1.32-1.1h-.17c-.33,0-.87.6-1.32,1.1-1,1.17-2.21,2.21-3.32,3.31a.72.72,0,0,0-.25.4.69.69,0,0,0,.26.52,48.19,48.19,0,0,0,4.27,4.09.78.78,0,0,0,.44.13Z"/><path class="cls-2" d="M14.1,25.62a.79.79,0,0,0,.44-.13,48.62,48.62,0,0,0,4.27-4.09.69.69,0,0,0,.26-.52.72.72,0,0,0-.25-.4c-1.11-1.11-2.28-2.15-3.32-3.31-.45-.5-1-1.08-1.31-1.1H14c-.33,0-.87.6-1.32,1.1-1,1.17-2.21,2.21-3.32,3.31a.72.72,0,0,0-.25.4.69.69,0,0,0,.26.52,48.62,48.62,0,0,0,4.27,4.09.79.79,0,0,0,.44.13Z"/><path class="cls-2" d="M26.83,25.62a.79.79,0,0,0,.44-.13,48.76,48.76,0,0,0,4.27-4.09.69.69,0,0,0,.26-.52.72.72,0,0,0-.25-.4c-1.11-1.11-2.28-2.15-3.32-3.31-.45-.5-1-1.08-1.32-1.1h-.17c-.33,0-.87.6-1.32,1.1-1,1.17-2.21,2.21-3.32,3.31a.72.72,0,0,0-.25.4.69.69,0,0,0,.26.52,48.77,48.77,0,0,0,4.27,4.09.79.79,0,0,0,.44.13Z"/><path class="cls-2" d="M20.47,35.92a.79.79,0,0,0,.44-.13,48.33,48.33,0,0,0,4.27-4.09.69.69,0,0,0,.26-.52.74.74,0,0,0-.25-.4c-1.11-1.1-2.28-2.15-3.32-3.31-.45-.5-1-1.08-1.32-1.1h-.17c-.33,0-.87.6-1.32,1.1-1,1.17-2.21,2.21-3.32,3.31a.72.72,0,0,0-.25.4.68.68,0,0,0,.26.52A48.47,48.47,0,0,0,20,35.79a.79.79,0,0,0,.44.13Z"/><path class="cls-2" d="M26.83,49.08a.79.79,0,0,0-.44.13,48.48,48.48,0,0,0-4.27,4.09.69.69,0,0,0-.26.52.72.72,0,0,0,.25.4c1.11,1.11,2.28,2.15,3.32,3.31.45.5,1,1.08,1.32,1.1h.17c.33,0,.87-.6,1.32-1.1,1-1.16,2.21-2.21,3.32-3.31a.71.71,0,0,0,.25-.4.69.69,0,0,0-.26-.52,48.47,48.47,0,0,0-4.27-4.09.79.79,0,0,0-.44-.13Z"/><path class="cls-2" d="M14.1,49.08a.79.79,0,0,0-.44.13A48.33,48.33,0,0,0,9.39,53.3a.68.68,0,0,0-.26.52.72.72,0,0,0,.25.4c1.11,1.11,2.28,2.15,3.32,3.31.45.5,1,1.08,1.32,1.1h.17c.33,0,.87-.6,1.31-1.1,1-1.16,2.21-2.21,3.32-3.31a.72.72,0,0,0,.25-.4.68.68,0,0,0-.26-.52,48.33,48.33,0,0,0-4.27-4.09.79.79,0,0,0-.44-.13Z"/><path class="cls-2" d="M26.83,36.66a.79.79,0,0,0-.44.13,48.48,48.48,0,0,0-4.27,4.09.69.69,0,0,0-.26.52.71.71,0,0,0,.25.4c1.11,1.11,2.28,2.15,3.32,3.32.45.5,1,1.08,1.32,1.1h.17c.33,0,.87-.6,1.32-1.1,1-1.17,2.21-2.21,3.32-3.32a.71.71,0,0,0,.25-.4.69.69,0,0,0-.26-.52,48.47,48.47,0,0,0-4.27-4.09.79.79,0,0,0-.44-.13Z"/><path class="cls-2" d="M14.1,36.66a.79.79,0,0,0-.44.13,48.33,48.33,0,0,0-4.27,4.09.69.69,0,0,0-.26.52.71.71,0,0,0,.25.4c1.11,1.11,2.28,2.15,3.32,3.32.45.5,1,1.08,1.32,1.1h.17c.33,0,.87-.6,1.31-1.1,1-1.17,2.21-2.21,3.32-3.32a.71.71,0,0,0,.25-.4.69.69,0,0,0-.26-.52,48.33,48.33,0,0,0-4.27-4.09.79.79,0,0,0-.44-.13Z"/></g></g></svg>