<svg xmlns="http://www.w3.org/2000/svg" viewBox="0 0 40.93 62.29"><defs><style>.cls-1{fill:#fff;}.cls-2{fill:#d6002b;}</style></defs><title>Fichier 23</title><g id="Calque_2" data-name="Calque 2"><g id="Layer_1" data-name="Layer 1"><rect class="cls-1" x="0.09" y="0.09" width="40.74" height="62.1" rx="3.45" ry="3.45"/><path class="cls-1" d="M37.39,62.29H3.54A3.55,3.55,0,0,1,0,58.75V3.54A3.55,3.55,0,0,1,3.54,0H37.39a3.55,3.55,0,0,1,3.54,3.54v55.2A3.55,3.55,0,0,1,37.39,62.29ZM3.54.19A3.36,3.36,0,0,0,.19,3.54v55.2A3.36,3.36,0,0,0,3.54,62.1H37.39a3.36,3.36,0,0,0,3.36-3.36V3.54A3.36,3.36,0,0,0,37.39.19Z"/><path class="cls-2" d="M5.75,12.71c.17-.15.35-.27.53-.4a3.18,3.18,0,0,0,.57-.46,1.41,1.41,0,0,0,.26-.5,1.2,1.2,0,0,0,0-.78.94.94,0,0,0-1.74.16,0,0,0,0,1,0,0h0a0,0,0,0,1,0,0,.94.94,0,0,0-1.74-.16,1.2,1.2,0,0,0,0,.78,1.4,1.4,0,0,0,.26.5,3.15,3.15,0,0,0,.57.46c.18.13.37.25.53.4s.46.48.46.48S5.67,12.79,5.75,12.71Z"/><path class="cls-2" d="M35.22,49.65c-.17.15-.35.27-.53.4a3.17,3.17,0,0,0-.57.46,1.39,1.39,0,0,0-.26.5,1.2,1.2,0,0,0,0,.78.94.94,0,0,0,1.74-.16,0,0,0,0,1,0,0h0a0,0,0,0,1,0,0,.94.94,0,0,0,1.74.16,1.19,1.19,0,0,0,0-.78,1.39,1.39,0,0,0-.26-.5,3.14,3.14,0,0,0-.57-.46c-.18-.13-.37-.25-.53-.4s-.46-.48-.46-.48S35.3,49.57,35.22,49.65Z"/><path class="cls-2" d="M3.28,7.7l.58-.21a1.23,1.23,0,0,0,1.2.8A1.35,1.35,0,0,0,6.3,7.6a3.72,3.72,0,0,0,.43-1.87,1.82,1.82,0,0,1-1.7,1,1.82,1.82,0,0,1-1.34-.55,1.84,1.84,0,0,1-.54-1.35,1.93,1.93,0,0,1,.57-1.4,2,2,0,0,1,1.46-.58,2,2,0,0,1,1.66.76,3.39,3.39,0,0,1,.58,2.09A3.85,3.85,0,0,1,6.8,8a2,2,0,0,1-1.74.87A1.74,1.74,0,0,1,3.28,7.7ZM5.19,6.18a1.33,1.33,0,0,0,1-.42,1.35,1.35,0,0,0,.4-1,1.27,1.27,0,0,0-.38-.93,1.34,1.34,0,0,0-1-.39,1.29,1.29,0,0,0-1,.4,1.38,1.38,0,0,0-.37,1,1.23,1.23,0,0,0,.41,1A1.38,1.38,0,0,0,5.19,6.18Z"/><path class="cls-2" d="M37.48,54.59l-.58.21a1.23,1.23,0,0,0-1.2-.8,1.36,1.36,0,0,0-1.24.69A3.72,3.72,0,0,0,34,56.57a1.91,1.91,0,0,1,3-.49,1.84,1.84,0,0,1,.54,1.35,1.93,1.93,0,0,1-.57,1.4,2.15,2.15,0,0,1-3.11-.18,3.38,3.38,0,0,1-.58-2.09A3.84,3.84,0,0,1,34,54.29a2,2,0,0,1,1.74-.87A1.74,1.74,0,0,1,37.48,54.59Zm-1.91,1.52a1.33,1.33,0,0,0-1,.41,1.35,1.35,0,0,0-.4,1,1.28,1.28,0,0,0,.38.93,1.34,1.34,0,0,0,1,.39,1.29,1.29,0,0,0,1-.4,1.38,1.38,0,0,0,.37-1,1.23,1.23,0,0,0-.41-1A1.38,1.38,0,0,0,35.57,56.11Z"/><path class="cls-2" d="M15.08,12c.47-.43,1-.75,1.5-1.13a9,9,0,0,0,1.6-1.31,3.92,3.92,0,0,0,.72-1.4,3.37,3.37,0,0,0-.1-2.18c-.87-1.39-3.3-2.61-4.9.46a.13.13,0,0,1-.11.07h0a.13.13,0,0,1-.12-.07c-1.6-3.07-4-1.85-4.9-.46a3.36,3.36,0,0,0-.1,2.18,4,4,0,0,0,.72,1.4A9,9,0,0,0,11,10.82c.51.38,1,.71,1.5,1.13.24.21,1.29,1.34,1.29,1.34S14.84,12.17,15.08,12Z"/><path class="cls-2" d="M28.43,12c.47-.43,1-.75,1.5-1.13a9,9,0,0,0,1.6-1.31,3.94,3.94,0,0,0,.72-1.4,3.37,3.37,0,0,0-.1-2.18c-.87-1.39-3.3-2.61-4.9.46a.13.13,0,0,1-.11.07h0A.13.13,0,0,1,27,6.39c-1.6-3.07-4-1.85-4.9-.46A3.36,3.36,0,0,0,22,8.11a3.94,3.94,0,0,0,.72,1.4,9,9,0,0,0,1.6,1.31c.51.38,1,.71,1.5,1.13.24.21,1.29,1.34,1.29,1.34S28.19,12.17,28.43,12Z"/><path class="cls-2" d="M15.08,23.75c.47-.43,1-.75,1.5-1.13a9,9,0,0,0,1.6-1.31,3.93,3.93,0,0,0,.72-1.4,3.37,3.37,0,0,0-.1-2.18c-.87-1.39-3.3-2.61-4.9.46a.13.13,0,0,1-.11.07h0a.13.13,0,0,1-.12-.07c-1.6-3.07-4-1.85-4.9-.46a3.36,3.36,0,0,0-.1,2.18,4,4,0,0,0,.72,1.4A9,9,0,0,0,11,22.62c.51.38,1,.71,1.5,1.13.24.21,1.29,1.34,1.29,1.34S14.84,24,15.08,23.75Z"/><path class="cls-2" d="M28.43,23.75c.47-.43,1-.75,1.5-1.13a9,9,0,0,0,1.6-1.31,3.94,3.94,0,0,0,.72-1.4,3.37,3.37,0,0,0-.1-2.18c-.87-1.39-3.3-2.61-4.9.46a.13.13,0,0,1-.11.07h0a.13.13,0,0,1-.12-.07c-1.6-3.07-4-1.85-4.9-.46a3.36,3.36,0,0,0-.1,2.18,3.94,3.94,0,0,0,.72,1.4,9,9,0,0,0,1.6,1.31c.51.38,1,.71,1.5,1.13.24.21,1.29,1.34,1.29,1.34S28.19,24,28.43,23.75Z"/><path class="cls-2" d="M25.85,50.33a18.69,18.69,0,0,1-1.5,1.13,9,9,0,0,0-1.6,1.31,4,4,0,0,0-.72,1.4,3.36,3.36,0,0,0,.1,2.18C23,57.75,25.43,59,27,55.9a.13.13,0,0,1,.12-.07h0a.13.13,0,0,1,.11.07c1.6,3.07,4,1.85,4.9.46a3.37,3.37,0,0,0,.1-2.18,3.94,3.94,0,0,0-.72-1.4,9,9,0,0,0-1.6-1.31c-.51-.38-1-.71-1.5-1.13-.24-.21-1.29-1.34-1.29-1.34S26.09,50.12,25.85,50.33Z"/><path class="cls-2" d="M12.5,50.33c-.47.43-1,.75-1.5,1.13a9,9,0,0,0-1.6,1.31,4,4,0,0,0-.72,1.4,3.36,3.36,0,0,0,.1,2.18c.87,1.39,3.3,2.61,4.9-.46a.13.13,0,0,1,.12-.07h0a.13.13,0,0,1,.11.07c1.6,3.07,4,1.85,4.9.46a3.37,3.37,0,0,0,.1-2.18,3.93,3.93,0,0,0-.72-1.4,9.07,9.07,0,0,0-1.6-1.31c-.51-.38-1-.71-1.5-1.13-.24-.21-1.29-1.34-1.29-1.34S12.74,50.12,12.5,50.33Z"/><path class="cls-2" d="M25.85,38.35c-.47.43-1,.75-1.5,1.13a9,9,0,0,0-1.6,1.31,3.93,3.93,0,0,0-.72,1.4,3.36,3.36,0,0,0,.1,2.18c.87,1.39,3.3,2.61,4.9-.46a.13.13,0,0,1,.12-.07h0a.13.13,0,0,1,.11.07c1.6,3.07,4,1.85,4.9.46a3.37,3.37,0,0,0,.1-2.18,3.93,3.93,0,0,0-.72-1.4,9,9,0,0,0-1.6-1.31c-.51-.38-1-.71-1.5-1.13-.24-.21-1.29-1.34-1.29-1.34S26.09,38.14,25.85,38.35Z"/><path class="cls-2" d="M12.5,38.35c-.47.43-1,.75-1.5,1.13a9,9,0,0,0-1.6,1.31,3.94,3.94,0,0,0-.72,1.4,3.36,3.36,0,0,0,.1,2.18c.87,1.39,3.3,2.61,4.9-.46a.13.13,0,0,1,.12-.07h0a.13.13,0,0,1,.11.07c1.6,3.07,4,1.85,4.9.46a3.37,3.37,0,0,0,.1-2.18,3.91,3.91,0,0,0-.72-1.4,9,9,0,0,0-1.6-1.31c-.51-.38-1-.71-1.5-1.13-.24-.21-1.29-1.34-1.29-1.34S12.74,38.14,12.5,38.35Z"/><path class="cls-2" d="M21.75,34.21c.47-.42,1-.75,1.5-1.13a9,9,0,0,0,1.6-1.31,3.94,3.94,0,0,0,.72-1.4,3.37,3.37,0,0,0-.1-2.18c-.87-1.39-3.3-2.61-4.9.46a.13.13,0,0,1-.11.07h0a.13.13,0,0,1-.11-.07c-1.6-3.07-4-1.85-4.9-.46a3.36,3.36,0,0,0-.1,2.18,3.94,3.94,0,0,0,.72,1.4,9,9,0,0,0,1.6,1.31c.51.38,1,.71,1.5,1.13.24.21,1.29,1.35,1.29,1.35S21.52,34.42,21.75,34.21Z"/></g></g></svg>