<svg xmlns="http://www.w3.org/2000/svg" viewBox="0 0 40.93 62.29"><defs><style>.cls-1{fill:#fff;}.cls-2{fill:#0c0a35;}</style></defs><title>Fichier 1</title><g id="Calque_2" data-name="Calque 2"><g id="Layer_1" data-name="Layer 1"><rect class="cls-1" x="0.09" y="0.09" width="40.74" height="62.1" rx="3.45" ry="3.45"/><path class="cls-1" d="M37.39,62.29H3.54A3.55,3.55,0,0,1,0,58.74V3.54A3.55,3.55,0,0,1,3.54,0H37.39a3.55,3.55,0,0,1,3.54,3.54v55.2A3.55,3.55,0,0,1,37.39,62.29ZM3.54.19A3.36,3.36,0,0,0,.19,3.54v55.2A3.36,3.36,0,0,0,3.54,62.1H37.39a3.36,3.36,0,0,0,3.36-3.36V3.54A3.36,3.36,0,0,0,37.39.19Z"/><path class="cls-2" d="M5.42,11.77c0,.1,0,.24,0,.35a2.91,2.91,0,0,0,0,.31,1.39,1.39,0,0,0,.42.91c-.23,0-.83,0-1.06,0a1.39,1.39,0,0,0,.42-.91,2.89,2.89,0,0,0,0-.31c0-.1,0-.25,0-.35Z"/><path class="cls-2" d="M5.35,12c.1,0,.16.11.34.3a1,1,0,0,0,.69.41.66.66,0,0,0,.55-.23,1.25,1.25,0,0,0,.19-.44A1.12,1.12,0,0,0,7,11.23.59.59,0,0,0,6.26,11c-.13.08-.17.17-.28.19a.05.05,0,0,1-.06-.06c0-.18.17-.2.23-.41A.61.61,0,0,0,5.9,10a1.18,1.18,0,0,0-1.22,0,.56.56,0,0,0-.25.67c.05.2.17.29.22.45a.07.07,0,0,1-.09.09c-.08,0-.13-.11-.24-.18a.59.59,0,0,0-.76.24,1.12,1.12,0,0,0-.1.84,1.26,1.26,0,0,0,.19.44.66.66,0,0,0,.55.23,1,1,0,0,0,.69-.41c.18-.19.24-.29.34-.3Z"/><path class="cls-2" d="M7.57,8.74H6.83L6.26,7.06H4.12L3.61,8.74H3L4.87,3h.81ZM6.1,6.53,5.21,3.76,4.32,6.53Z"/><path class="cls-2" d="M35.49,50.52c0-.1,0-.24,0-.35a2.91,2.91,0,0,0,0-.31A1.39,1.39,0,0,0,35.1,49c.23,0,.83,0,1.06,0a1.39,1.39,0,0,0-.42.91,2.78,2.78,0,0,0,0,.31c0,.1,0,.25,0,.35Z"/><path class="cls-2" d="M35.56,50.27c-.1,0-.16-.11-.34-.31a1,1,0,0,0-.69-.41.66.66,0,0,0-.55.23,1.24,1.24,0,0,0-.19.44,1.12,1.12,0,0,0,.09.84.59.59,0,0,0,.76.24c.13-.08.17-.17.28-.19a.05.05,0,0,1,.06.06c0,.18-.17.2-.23.41a.61.61,0,0,0,.25.76,1.18,1.18,0,0,0,1.22,0,.56.56,0,0,0,.25-.67c-.05-.2-.17-.29-.22-.45a.07.07,0,0,1,.09-.09c.08,0,.13.11.24.18a.59.59,0,0,0,.76-.24,1.12,1.12,0,0,0,.09-.84,1.25,1.25,0,0,0-.19-.44.66.66,0,0,0-.55-.23A1,1,0,0,0,36,50c-.18.2-.24.29-.33.31Z"/><path class="cls-2" d="M33.38,53.54h.74l.58,1.68h2.13l.51-1.68h.6l-1.87,5.75h-.81Zm1.47,2.22.89,2.76.89-2.76Z"/><path class="cls-2" d="M20.12,31.68c0,.26.1.63.1.88a7.44,7.44,0,0,1,0,.78,3.55,3.55,0,0,1-1.08,2.32c.6,0,2.11,0,2.71,0a3.55,3.55,0,0,1-1.08-2.32,7.18,7.18,0,0,1,0-.78c0-.26.1-.63.1-.88Z"/><path class="cls-2" d="M20.3,32.32c-.25,0-.4.28-.86.78a2.61,2.61,0,0,1-1.77,1,1.68,1.68,0,0,1-1.4-.58,3.17,3.17,0,0,1-.48-1.12A2.87,2.87,0,0,1,16,30.3a1.51,1.51,0,0,1,1.95-.6c.32.19.43.43.73.48a.13.13,0,0,0,.15-.16c-.12-.45-.44-.51-.59-1A1.56,1.56,0,0,1,18.9,27,3,3,0,0,1,22,27a1.42,1.42,0,0,1,.64,1.72c-.14.5-.43.73-.56,1.16a.18.18,0,0,0,.23.23c.22-.09.33-.29.61-.45a1.51,1.51,0,0,1,1.95.6,2.87,2.87,0,0,1,.24,2.15,3.19,3.19,0,0,1-.48,1.12,1.68,1.68,0,0,1-1.4.58,2.61,2.61,0,0,1-1.77-1c-.46-.5-.6-.74-.86-.78Z"/></g></g></svg>