<?xml version="1.0" encoding="utf-8"?>
<!-- Generator: Adobe Illustrator 21.1.0, SVG Export Plug-In . SVG Version: 6.00 Build 0)  -->
<svg version="1.1" id="Calque_1" xmlns="http://www.w3.org/2000/svg" xmlns:xlink="http://www.w3.org/1999/xlink" x="0px" y="0px"
	 viewBox="0 0 40.9 62.5" style="enable-background:new 0 0 40.9 62.5;" xml:space="preserve">
<style type="text/css">
	.st0{fill:#0C0A35;}
	.st1{clip-path:url(#SVGID_2_);}
	.st2{fill:#F70032;}
	.st3{clip-path:url(#SVGID_4_);}
	.st4{fill:#222272;}
	.st5{fill:#B70027;}
	.st6{fill:#191956;}
</style>
<title>Fichier 55</title>
<g id="Calque_2">
	<g id="Layer_1">
		<path class="st0" d="M3.4,0C1.5,0,0,1.5,0,3.4v55.7c0,1.9,1.5,3.4,3.4,3.4c0,0,0,0,0,0h34.2c1.9,0,3.4-1.5,3.4-3.4V3.4
			C41,1.5,39.4,0,37.6,0H3.4z"/>
		<g>
			<defs>
				<path id="SVGID_1_" d="M3.4,0C1.5,0,0,1.5,0,3.4v55.7c0,1.9,1.5,3.4,3.4,3.4c0,0,0,0,0,0h34.2c1.9,0,3.4-1.5,3.4-3.4V3.4
					C41,1.5,39.4,0,37.6,0H3.4z"/>
			</defs>
			<clipPath id="SVGID_2_">
				<use xlink:href="#SVGID_1_"  style="overflow:visible;"/>
			</clipPath>
			<g class="st1">
				<path class="st2" d="M-16.9,30c0-1.6,3.1-3.4,4.2-4.2c2-1.5,4.1-2.9,6.1-4.3c5.9-4.2,11.8-8.3,17.8-12.3
					C16.7,5.5,22.2,1.7,28-1.9c2.7-1.7,5.6-3.2,8.5-4.6c1.1-0.5,5.2-2.2,3.1-4c-1.8-1.5-5.5,1.2-7.1,2c-3.1,1.6-6.1,3.4-9,5.3
					C17.7,0.4,12.3,4.4,6.7,8.3c-5.9,4-11.5,8.4-17.1,12.9c-2.6,2.1-6.7,4.5-7.8,7.9c-0.1,0.4-0.1,0.8,0,1.2
					c0.1,0.3,0.5,0.5,0.8,0.4C-17.1,30.5-16.9,30.3-16.9,30z"/>
				<path class="st2" d="M-10.3,37.2c2.5-1.3,5-2.5,7.4-4c2.6-1.7,5.2-3.5,7.8-5.2c4.9-3.4,9.7-7,14.5-10.5s9.9-7.2,14.8-10.8
					S44.5-0.5,49.1-4.6c0.7-0.6-0.2-1.4-0.8-1.1C42.7-3.1,37.5,0,32.6,3.7c-5,3.5-9.9,7.1-14.8,10.8c-4.6,3.5-9.4,7-13.9,10.7
					c-2.4,1.9-4.7,3.8-7.1,5.6s-4.9,4-7.4,5.7c-0.2,0.1-0.2,0.4,0,0.5C-10.5,37.2-10.4,37.2-10.3,37.2z"/>
				<path class="st2" d="M-3.2,50.2c10.4-8.8,21.9-16.2,32.5-24.8c5.2-4.2,10-8.9,15.2-13.3C47,9.9,49.6,7.9,52.4,6
					c2.7-1.9,5.5-3.4,7.9-5.7c0.5-0.5,0-1.1-0.6-1.1C53.6,0.1,48,5,43.4,8.7c-5.5,4.4-10.5,9.2-16,13.5c-10.9,8.6-22.5,16.3-33,25.4
					C-7.4,49.2-4.9,51.7-3.2,50.2L-3.2,50.2z"/>
				<path class="st2" d="M-5.7,67c2-2.2,4.9-3.3,7.3-5.1c3-2.3,6-4.5,9.1-6.7c5.8-4.2,11.6-8.3,17.2-12.7
					c5.8-4.5,11.6-9.1,17.5-13.5c2.8-2,5.2-4.4,7.8-6.7s5.5-4.4,8-6.9c0.3-0.3,0-1-0.5-0.8c-3,1.4-5.8,3.1-8.4,5.2
					c-2.9,2.1-5.9,3.9-8.8,6c-6.1,4.2-11.9,8.7-17.7,13.4c-6,4.8-12.3,9.2-18.4,13.9c-2.9,2.2-5.6,4.6-8.3,7.1
					C-3,62.1-5.4,63.8-7.1,66C-7.6,66.8-6.4,67.7-5.7,67L-5.7,67z"/>
				<path class="st2" d="M12.6,66.9c1.5-1.3,3.8-2,5.6-2.9c2.2-1.3,4.4-2.7,6.4-4.2c3.8-2.6,7.6-5.1,11.2-8c3.3-2.7,6.4-5.7,9.6-8.5
					c1.8-1.6,3.8-3,5.8-4.3c1.7-1.1,3.7-1.9,5.2-3.3c0.3-0.3,0.1-0.9-0.4-0.9c-3.9,0.5-7.7,3.7-10.9,5.8c-3.7,2.6-7.4,5.2-11,7.9
					c-4,2.9-8.1,5.7-12.1,8.7c-3.7,2.7-7.6,5.2-10.6,8.6c-0.3,0.3-0.3,0.9,0,1.2C11.7,67.2,12.3,67.2,12.6,66.9L12.6,66.9z"/>
				<path class="st2" d="M32.7,67.3c4-2.9,7.8-6.1,11.3-9.6c0.3-0.4,0.3-0.9-0.1-1.2c-0.3-0.2-0.7-0.3-1-0.1
					c-4.3,2.4-8.1,5.7-12.1,8.5c-0.7,0.4-0.9,1.4-0.5,2.1c0.4,0.7,1.4,0.9,2.1,0.5C32.6,67.5,32.7,67.4,32.7,67.3z"/>
				<path class="st2" d="M-9.4,11.2C-3.7,8.6,1.2,4.5,6.4,0.9c2.6-1.8,5.1-3.7,7.6-5.6c2.3-1.8,5-4,6.2-6.7c0.2-0.5-0.1-1.2-0.8-1
					c-2.6,0.8-4.7,2.8-6.9,4.4C9.8-6.1,7.2-4.1,4.5-2.2C-0.6,1.4-5.1,6.1-10.5,9.3C-11.8,10-10.7,11.8-9.4,11.2z"/>
			</g>
		</g>
		<g>
			<defs>
				<path id="SVGID_3_" d="M3.4,0C1.5,0,0,1.5,0,3.4v55.7c0,1.9,1.5,3.4,3.4,3.4c0,0,0,0,0,0h34.2c1.9,0,3.4-1.5,3.4-3.4V3.4
					C41,1.5,39.4,0,37.6,0H3.4z"/>
			</defs>
			<clipPath id="SVGID_4_">
				<use xlink:href="#SVGID_3_"  style="overflow:visible;"/>
			</clipPath>
			<g class="st3">
				<path class="st4" d="M0.6,23.8c1.5,0,2.7-1.2,2.7-2.7s-1.2-2.7-2.7-2.7c-1.5,0-2.7,1.2-2.7,2.7l0,0C-2,22.6-0.8,23.8,0.6,23.8z"
					/>
				<path class="st4" d="M8.3,13.7L7.6,14c-1.3,0.7-1.8,2.3-1.1,3.6C7,18.5,7.9,19,8.9,19c0.2,0,0.5,0,0.7-0.1
					c0.5-0.1,0.9-0.4,1.2-0.7c1-1,1-2.7,0-3.8c-0.2-0.2-0.3-0.3-0.5-0.4l-0.6-0.3C9.3,13.5,8.8,13.5,8.3,13.7L8.3,13.7z"/>
				<path class="st4" d="M17.2,13.1c1.5,0,2.6-1.2,2.6-2.7s-1.2-2.6-2.7-2.6c-1.5,0-2.6,1.2-2.6,2.7C14.6,11.9,15.7,13,17.2,13.1z"
					/>
				<path class="st4" d="M24.7,7.4c1.4,0,2.6-1.2,2.6-2.6s-1.2-2.6-2.6-2.6c-1.4,0-2.6,1.2-2.6,2.6C22.2,6.2,23.3,7.4,24.7,7.4z"/>
				<path class="st4" d="M30.6,2.4c1.4,0,2.6-1.2,2.6-2.6S32-2.8,30.6-2.8c-1.4,0-2.6,1.2-2.6,2.6C28,1.2,29.2,2.4,30.6,2.4z"/>
				<path class="st4" d="M6.5,7.2c1.2,0,2.2-1,2.2-2.2s-1-2.2-2.2-2.2S4.4,3.8,4.4,5l0,0C4.4,6.2,5.3,7.2,6.5,7.2z"/>
				<path class="st4" d="M12.1,2.8c1.2,0,2.2-1,2.2-2.2s-1-2.2-2.2-2.2c-1.2,0-2.2,1-2.2,2.2C9.9,1.9,10.9,2.8,12.1,2.8z"/>
				<path class="st4" d="M-0.1,10.4c1.2,0,2.1-0.9,2.1-2.1S1.1,6.2-0.1,6.2c-1.2,0-2.1,0.9-2.1,2.1C-2.2,9.4-1.2,10.4-0.1,10.4z"/>
				<path class="st4" d="M0.3,39.5c1.4,0,2.5-1.2,2.5-2.6c0-1.4-1.2-2.5-2.6-2.5c-1.4,0-2.5,1.2-2.5,2.6c0,0,0,0,0,0
					C-2.2,38.4-1.1,39.5,0.3,39.5z"/>
				<path class="st4" d="M7.7,34.3c1.5,0,2.6-1.2,2.7-2.7c0-1.5-1.2-2.6-2.6-2.6s-2.7,1.2-2.7,2.6C5.1,33.1,6.3,34.3,7.7,34.3z"/>
				<path class="st4" d="M17.6,27.5L17.6,27.5l-2.3,1.3l0,0c1.5,0,2.7-1.2,2.7-2.7c0-1.2-0.8-2.3-2-2.6l0,0c-0.9-0.3-1.9,0-2.6,0.7
					l0,0c-0.5,0.5-0.8,1.2-0.8,1.9c0,1.5,1.2,2.7,2.7,2.7C16.3,28.8,17.2,28.3,17.6,27.5z"/>
				<path class="st4" d="M20.7,18.8L20.7,18.8c-1,1-1,2.7,0,3.7c0.3,0.3,0.7,0.5,1.1,0.7c0.7,0.2,1.4,0.1,2-0.3h0
					c0.6-0.3,1-0.9,1.2-1.5c0.2-0.9,0-1.8-0.7-2.5c-0.3-0.3-0.8-0.6-1.2-0.7C22.3,17.9,21.4,18.2,20.7,18.8z"/>
				<path class="st4" d="M31.2,13.5L31.2,13.5c-1-1-2.5-1-3.5,0C27.3,14,27,14.6,27,15.3c0,0.6,0.3,1.2,0.8,1.7l0,0
					c0.5,0.5,1.1,0.7,1.8,0.7c1.4,0,2.4-1.2,2.4-2.6C31.9,14.5,31.6,14,31.2,13.5z"/>
				<path class="st4" d="M36.3,12.1c1.4,0,2.5-1.1,2.6-2.5c0-1.4-1.1-2.5-2.5-2.6c-1.4,0-2.5,1.1-2.6,2.5c0,0,0,0,0,0
					C33.8,11,34.9,12.1,36.3,12.1L36.3,12.1z"/>
				<path class="st4" d="M0.1,55.3c1.4,0,2.6-1.2,2.6-2.6s-1.2-2.6-2.6-2.6c-1.4,0-2.6,1.2-2.6,2.6l0,0C-2.5,54.1-1.4,55.3,0.1,55.3
					z"/>
				<path class="st4" d="M7.2,50.3c1.5,0,2.6-1.2,2.6-2.6s-1.2-2.6-2.6-2.6c-1.5,0-2.6,1.2-2.6,2.6l0,0C4.6,49.2,5.7,50.3,7.2,50.3z
					"/>
				<path class="st4" d="M14.1,44.6c1.3,0,2.4-1.1,2.4-2.4c0-1.3-1.1-2.4-2.4-2.4c-1.3,0-2.4,1.1-2.4,2.4
					C11.7,43.5,12.7,44.5,14.1,44.6z"/>
				<path class="st4" d="M20.8,39.5c1.4,0,2.5-1.1,2.5-2.5s-1.1-2.5-2.5-2.5s-2.5,1.1-2.5,2.5v0C18.3,38.4,19.4,39.5,20.8,39.5z"/>
				<path class="st4" d="M27.4,34.9c1.5,0,2.6-1.2,2.6-2.7c0-1.5-1.2-2.6-2.7-2.6c-1.4,0-2.6,1.2-2.6,2.6
					C24.8,33.7,25.9,34.8,27.4,34.9L27.4,34.9z"/>
				<path class="st4" d="M34.2,29.7c1.4,0,2.6-1.1,2.6-2.6c0-1.4-1.1-2.6-2.6-2.6c-1.4,0-2.6,1.1-2.6,2.6l0,0
					C31.7,28.5,32.8,29.7,34.2,29.7z"/>
				<path class="st4" d="M41.2,24.4c1.4,0,2.5-1.1,2.5-2.4s-1.1-2.5-2.4-2.5c-1.4,0-2.5,1.1-2.5,2.4c0,0,0,0,0,0
					C38.8,23.3,39.8,24.4,41.2,24.4L41.2,24.4z"/>
				<path class="st4" d="M12.1,62.9L12.1,62.9l-0.3,0.6l0,0c0.3-0.6,0.4-1.3,0.3-2c-0.4-1.4-1.8-2.2-3.1-1.8L8.4,60
					c-0.4,0.2-0.7,0.5-0.9,0.9V61c-0.7,1.2-0.3,2.8,0.9,3.5c0.6,0.4,1.3,0.4,2,0.3C11.2,64.5,11.9,63.8,12.1,62.9L12.1,62.9z"/>
				<path class="st4" d="M16.1,58.7c1.4,0,2.5-1.1,2.5-2.5s-1.1-2.5-2.5-2.5s-2.5,1.1-2.5,2.5C13.7,57.6,14.8,58.7,16.1,58.7z"/>
				<path class="st4" d="M25.6,49.6L25.6,49.6l0.2,0.5c-0.1-0.4-0.3-0.7-0.6-1c-0.4-0.4-1-0.7-1.6-0.7c-1.3,0-2.3,1-2.3,2.3
					c0,1.3,1,2.3,2.3,2.3c0.8,0,1.6-0.4,2-1.1C26.1,51.3,26.1,50.4,25.6,49.6L25.6,49.6z"/>
				<path class="st4" d="M30.5,48.2c1.2,0,2.1-0.9,2.1-2.1S31.6,44,30.5,44s-2.1,0.9-2.1,2.1C28.4,47.2,29.3,48.1,30.5,48.2z"/>
				<path class="st4" d="M37.7,43.3c1.4,0,2.5-1.1,2.5-2.5s-1.1-2.5-2.5-2.5c-1.4,0-2.5,1.1-2.5,2.5C35.3,42.2,36.4,43.3,37.7,43.3z
					"/>
				<path class="st4" d="M28.7,65.1c1.4,0,2.5-1.1,2.5-2.5c0-1.4-1.1-2.4-2.5-2.4c-1.4,0-2.5,1.1-2.5,2.5l0,0
					C26.3,64,27.4,65.1,28.7,65.1z"/>
				<path class="st4" d="M36.3,59L36.3,59c0.4-0.7,0.4-1.5,0-2.2l0,0c-0.6-1-2-1.4-3-0.8c-1,0.6-1.4,2-0.8,3s2,1.4,3,0.8
					C35.8,59.6,36.1,59.3,36.3,59L36.3,59z"/>
				<path class="st4" d="M40.7,56.4L40.7,56.4c1.3,0,2.4-1.1,2.4-2.4c0-0.6-0.3-1.3-0.7-1.7c-0.6-0.6-1.5-0.8-2.3-0.6h-0.1
					c-1.3,0.4-2,1.7-1.7,2.9c0.1,0.4,0.3,0.8,0.6,1.1C39.5,56.1,40.1,56.4,40.7,56.4L40.7,56.4z"/>
				<path class="st5" d="M0,44.5L0,44.5c-0.2,0-0.4,0.2-0.4,0.4c0,0.2,0.2,0.4,0.4,0.4c0,0,0.1,0,0.1,0l0,0c0.2-0.1,0.3-0.2,0.3-0.4
					C0.5,44.7,0.3,44.5,0,44.5L0,44.5L0,44.5z"/>
				<path class="st5" d="M1.3,44.6c0.3,0,0.5-0.2,0.5-0.5s-0.2-0.5-0.5-0.5s-0.5,0.2-0.5,0.5S1,44.6,1.3,44.6z"/>
				<path class="st5" d="M2.6,43.8c0.3,0,0.6-0.3,0.6-0.6c0-0.3-0.3-0.6-0.6-0.6S2,42.9,2,43.3C2,43.6,2.3,43.8,2.6,43.8L2.6,43.8z"
					/>
				<path class="st5" d="M3.9,42.8c0.3,0,0.6-0.3,0.6-0.6c0-0.3-0.3-0.6-0.6-0.6c-0.3,0-0.6,0.3-0.6,0.6C3.3,42.6,3.6,42.8,3.9,42.8
					z"/>
				<path class="st5" d="M5.1,41.8c0.3,0,0.5-0.2,0.5-0.5s-0.2-0.5-0.5-0.5S4.6,41,4.6,41.3S4.9,41.8,5.1,41.8z"/>
				<path class="st5" d="M6.2,41c0.3,0,0.5-0.2,0.5-0.5S6.4,40,6.2,40s-0.5,0.2-0.5,0.5S5.9,41,6.2,41z"/>
				<path class="st5" d="M7.2,39.2L7.2,39.2C7,39.4,6.9,39.6,7,39.9c0.1,0.1,0.2,0.2,0.4,0.2l0,0c0.3,0,0.5-0.2,0.5-0.5
					s-0.2-0.5-0.5-0.5C7.3,39.1,7.2,39.2,7.2,39.2L7.2,39.2z"/>
				<path class="st5" d="M8.7,39.2c0.2,0,0.4-0.2,0.4-0.4s-0.2-0.4-0.4-0.4s-0.4,0.2-0.4,0.4S8.4,39.2,8.7,39.2z"/>
				<path class="st5" d="M10.1,37.8L10.1,37.8c-0.1-0.2-0.4-0.3-0.6-0.2c0,0,0,0,0,0l0,0c-0.2,0.1-0.3,0.4-0.2,0.6
					c0.1,0.2,0.4,0.3,0.6,0.2C10.2,38.3,10.3,38,10.1,37.8L10.1,37.8z"/>
				<path class="st5" d="M10.9,37.5c0.3-0.1,0.4-0.4,0.4-0.6c0-0.2-0.2-0.3-0.4-0.4c-0.3,0.1-0.4,0.4-0.4,0.6
					C10.6,37.3,10.8,37.5,10.9,37.5z"/>
				<path class="st5" d="M12.1,36.5c0.2,0,0.4-0.2,0.4-0.3c0-0.2-0.2-0.4-0.4-0.4s-0.4,0.2-0.4,0.4C11.7,36.4,11.9,36.5,12.1,36.5z"
					/>
				<path class="st5" d="M13.1,35.9c0.2,0,0.4-0.2,0.4-0.4c0-0.2-0.2-0.4-0.4-0.4s-0.4,0.2-0.4,0.4C12.7,35.7,12.9,35.9,13.1,35.9z"
					/>
				<path class="st5" d="M14.3,35.1c0.2,0,0.4-0.3,0.4-0.5c0-0.2-0.2-0.3-0.4-0.4c-0.2,0-0.4,0.3-0.4,0.5
					C14,34.9,14.2,35.1,14.3,35.1z"/>
				<path class="st5" d="M15.5,34.1c0.2,0,0.4-0.2,0.4-0.4c0-0.2-0.2-0.4-0.4-0.4s-0.4,0.2-0.4,0.4C15.1,33.9,15.3,34.1,15.5,34.1z"
					/>
				<path class="st5" d="M16.9,33.1c0.2,0,0.4-0.2,0.4-0.4c0-0.2-0.2-0.4-0.4-0.4c-0.2,0-0.4,0.2-0.4,0.4
					C16.5,33,16.7,33.1,16.9,33.1z"/>
				<path class="st5" d="M18,32.3c0.2,0,0.3-0.2,0.3-0.4c0-0.1-0.1-0.3-0.3-0.3c-0.2,0-0.3,0.2-0.3,0.4C17.8,32.2,17.9,32.3,18,32.3
					z"/>
				<path class="st5" d="M19.1,31.7c0.2,0,0.4-0.2,0.4-0.4c0-0.2-0.2-0.4-0.4-0.4s-0.4,0.2-0.4,0.4C18.7,31.5,18.8,31.7,19.1,31.7z"
					/>
				<path class="st5" d="M20.1,30.8c0.2,0,0.4-0.2,0.4-0.4c0-0.2-0.2-0.4-0.4-0.4c-0.2,0-0.4,0.2-0.4,0.4
					C19.7,30.6,19.9,30.8,20.1,30.8z"/>
				<path class="st5" d="M21.4,29.8c0.3,0,0.5-0.2,0.5-0.5c0-0.3-0.2-0.5-0.5-0.5s-0.5,0.2-0.5,0.5C20.9,29.6,21.1,29.8,21.4,29.8z"
					/>
				<path class="st5" d="M22.3,29c0.2,0,0.4-0.2,0.4-0.4c0-0.2-0.2-0.4-0.4-0.4s-0.4,0.2-0.4,0.4C21.9,28.8,22.1,29,22.3,29z"/>
				<path class="st5" d="M23.7,27.5L23.7,27.5c-0.1-0.1-0.4-0.1-0.5,0l0,0c-0.2,0.2-0.2,0.4,0,0.6c0.2,0.2,0.4,0.2,0.6,0
					C23.9,27.9,23.9,27.7,23.7,27.5C23.7,27.5,23.7,27.5,23.7,27.5L23.7,27.5z"/>
				<path class="st5" d="M24.4,27.2c0.2,0,0.4-0.2,0.4-0.4c0-0.2-0.2-0.4-0.4-0.4s-0.4,0.2-0.4,0.4C24.1,27.1,24.2,27.2,24.4,27.2z"
					/>
				<path class="st5" d="M25.6,26.4c0.1,0,0.3-0.1,0.3-0.3s-0.1-0.3-0.3-0.3s-0.3,0.1-0.3,0.3S25.4,26.4,25.6,26.4z"/>
				<path class="st5" d="M26.6,25.7c0.2,0,0.4-0.2,0.4-0.4c0-0.2-0.2-0.4-0.4-0.4c-0.2,0-0.4,0.2-0.4,0.4
					C26.2,25.5,26.4,25.7,26.6,25.7z"/>
				<path class="st5" d="M27.7,24.8c0.2,0,0.4-0.3,0.4-0.5c0-0.2-0.2-0.3-0.4-0.4c-0.2,0-0.4,0.3-0.4,0.5
					C27.4,24.6,27.5,24.7,27.7,24.8z"/>
				<path class="st5" d="M29,23.8c0.3,0,0.5-0.2,0.5-0.5c0-0.3-0.2-0.5-0.5-0.5c-0.3,0-0.5,0.2-0.5,0.5C28.5,23.6,28.7,23.8,29,23.8
					z"/>
				<path class="st5" d="M30.1,22.9c0.3-0.1,0.5-0.3,0.4-0.6c0-0.2-0.2-0.4-0.4-0.4c-0.3,0.1-0.5,0.3-0.4,0.6
					C29.8,22.7,29.9,22.9,30.1,22.9z"/>
				<path class="st5" d="M31.2,22c0.2,0,0.4-0.3,0.4-0.5c0-0.2-0.2-0.3-0.4-0.4c-0.2,0-0.4,0.3-0.4,0.5C30.9,21.8,31,21.9,31.2,22z"
					/>
				<path class="st5" d="M32.2,21c0.2,0,0.3-0.2,0.3-0.4c0-0.2-0.2-0.3-0.3-0.3s-0.3,0.2-0.3,0.3C31.9,20.8,32,21,32.2,21z"/>
				<path class="st5" d="M33.1,20.3c0.2,0,0.4-0.2,0.4-0.4c0-0.2-0.2-0.4-0.4-0.4s-0.4,0.2-0.4,0.4C32.7,20.1,32.9,20.3,33.1,20.3z"
					/>
				<path class="st5" d="M34,19.5c0.2,0,0.4-0.3,0.4-0.5c0-0.2-0.2-0.3-0.4-0.4c-0.2,0-0.4,0.3-0.4,0.5C33.6,19.3,33.8,19.4,34,19.5
					z"/>
				<path class="st5" d="M35.1,18.5c0.2,0,0.3-0.1,0.3-0.3c0-0.2-0.1-0.3-0.3-0.3l0,0c-0.2,0-0.3,0.1-0.3,0.3
					C34.7,18.4,34.9,18.5,35.1,18.5z"/>
				<path class="st5" d="M36,17.8c0.3,0,0.5-0.2,0.5-0.5s-0.2-0.5-0.5-0.5s-0.5,0.2-0.5,0.5S35.7,17.8,36,17.8z"/>
				<path class="st5" d="M37.1,16.7c0.2,0,0.4-0.2,0.4-0.4s-0.2-0.4-0.4-0.4s-0.4,0.2-0.4,0.4S36.9,16.7,37.1,16.7L37.1,16.7z"/>
				<path class="st5" d="M38,15.9c0.2,0,0.4-0.3,0.4-0.5c0-0.2-0.2-0.3-0.4-0.4c-0.2,0-0.4,0.3-0.4,0.5C37.7,15.7,37.8,15.8,38,15.9
					z"/>
				<path class="st5" d="M39.1,15.1c0.2,0,0.4-0.2,0.4-0.4c0-0.2-0.2-0.4-0.4-0.4s-0.4,0.2-0.4,0.4C38.8,14.9,38.9,15.1,39.1,15.1
					L39.1,15.1z"/>
				<path class="st5" d="M40.4,14.3c0.2,0,0.4-0.2,0.4-0.4c0-0.2-0.2-0.4-0.4-0.4c-0.2,0-0.4,0.2-0.4,0.4
					C40,14.1,40.1,14.3,40.4,14.3z"/>
				<path class="st5" d="M-0.3,30.5c0.3,0,0.6-0.3,0.6-0.6c0-0.3-0.3-0.6-0.6-0.6c-0.3,0-0.6,0.3-0.6,0.6
					C-0.8,30.3-0.6,30.5-0.3,30.5z"/>
				<path class="st5" d="M1,29.5c0.3,0,0.5-0.2,0.5-0.5S1.3,28.5,1,28.5S0.5,28.7,0.5,29S0.7,29.5,1,29.5z"/>
				<path class="st5" d="M2,28.7c0.3,0,0.5-0.2,0.5-0.5S2.3,27.7,2,27.7s-0.5,0.2-0.5,0.5S1.7,28.7,2,28.7z"/>
				<path class="st5" d="M3,26.9L3,26.9c-0.2,0.1-0.3,0.4-0.1,0.6c0.1,0.1,0.2,0.2,0.4,0.2l0,0c0.3,0,0.5-0.2,0.5-0.5
					s-0.2-0.5-0.5-0.5C3.2,26.8,3.1,26.8,3,26.9L3,26.9z"/>
				<path class="st5" d="M4.5,26.9c0.2,0,0.4-0.2,0.4-0.4s-0.2-0.4-0.4-0.4l0,0c-0.2,0-0.4,0.2-0.4,0.4S4.3,26.9,4.5,26.9z"/>
				<path class="st5" d="M6,25.5L6,25.5c-0.1-0.2-0.4-0.3-0.6-0.2c0,0,0,0,0,0l0,0c-0.2,0.1-0.3,0.4-0.2,0.6
					c0.1,0.2,0.4,0.3,0.6,0.2C6.1,26,6.2,25.7,6,25.5L6,25.5z"/>
				<path class="st5" d="M6.7,25.2c0.3-0.1,0.4-0.4,0.4-0.6c0-0.2-0.2-0.3-0.4-0.4c-0.3,0.1-0.4,0.4-0.4,0.6
					C6.4,25,6.6,25.2,6.7,25.2z"/>
				<path class="st5" d="M7.9,24.2c0.2,0,0.4-0.2,0.4-0.4c0-0.2-0.2-0.3-0.4-0.3l0,0c-0.2,0-0.4,0.2-0.4,0.3
					C7.6,24,7.7,24.2,7.9,24.2z"/>
				<path class="st5" d="M9,23.5c0.2,0,0.4-0.2,0.4-0.4c0-0.2-0.2-0.4-0.4-0.4s-0.4,0.2-0.4,0.4C8.6,23.3,8.8,23.5,9,23.5z"/>
				<path class="st5" d="M10.2,22.8c0.2,0,0.4-0.3,0.4-0.5c0-0.2-0.2-0.3-0.4-0.4c-0.2,0-0.4,0.3-0.4,0.5
					C9.9,22.6,10,22.8,10.2,22.8z"/>
				<path class="st5" d="M11.4,21.8c0.2,0,0.4-0.2,0.4-0.4c0-0.2-0.2-0.4-0.4-0.4S11,21.1,11,21.4C11,21.6,11.2,21.8,11.4,21.8z"/>
				<path class="st5" d="M12.7,20.8c0.2,0,0.4-0.2,0.4-0.4c0-0.2-0.2-0.4-0.4-0.4c-0.2,0-0.4,0.2-0.4,0.4
					C12.4,20.7,12.5,20.8,12.7,20.8z"/>
				<path class="st5" d="M13.9,20c0.2,0,0.3-0.2,0.3-0.4c0-0.1-0.1-0.3-0.3-0.3c-0.2,0-0.3,0.2-0.3,0.4C13.6,19.9,13.7,20,13.9,20z"
					/>
				<path class="st5" d="M14.9,19.3c0.2,0,0.4-0.2,0.4-0.4c0-0.2-0.2-0.4-0.4-0.4c-0.2,0-0.4,0.2-0.4,0.4
					C14.5,19.2,14.7,19.3,14.9,19.3z"/>
				<path class="st5" d="M16,18.5c0.2,0,0.4-0.2,0.4-0.4c0-0.2-0.2-0.4-0.4-0.4c-0.2,0-0.4,0.2-0.4,0.4C15.6,18.3,15.8,18.5,16,18.5
					z"/>
				<path class="st5" d="M17.2,17.5c0.3,0,0.5-0.2,0.5-0.5s-0.2-0.5-0.5-0.5s-0.5,0.2-0.5,0.5S17,17.5,17.2,17.5L17.2,17.5z"/>
				<path class="st5" d="M18.2,16.7c0.2,0,0.4-0.2,0.4-0.4s-0.2-0.4-0.4-0.4s-0.4,0.2-0.4,0.4S18,16.7,18.2,16.7L18.2,16.7z"/>
				<path class="st5" d="M19.5,15.2L19.5,15.2c-0.1-0.1-0.4-0.1-0.5,0l0,0c-0.2,0.2-0.2,0.4,0,0.6c0.2,0.2,0.4,0.2,0.6,0
					C19.7,15.6,19.7,15.3,19.5,15.2L19.5,15.2z"/>
				<path class="st5" d="M20.3,14.9c0.2,0,0.4-0.2,0.4-0.4s-0.2-0.4-0.4-0.4s-0.4,0.2-0.4,0.4S20.1,14.9,20.3,14.9z"/>
				<path class="st5" d="M21.4,14.1c0.1,0,0.3-0.1,0.3-0.3s-0.1-0.3-0.3-0.3s-0.3,0.1-0.3,0.3S21.3,14.1,21.4,14.1z"/>
				<path class="st5" d="M22.5,13.4c0.2,0,0.4-0.2,0.4-0.4c0-0.2-0.2-0.4-0.4-0.4c-0.2,0-0.4,0.2-0.4,0.4
					C22.1,13.2,22.2,13.4,22.5,13.4z"/>
				<path class="st5" d="M23.6,12.4c0.2,0,0.4-0.3,0.4-0.5c0-0.2-0.2-0.3-0.4-0.4c-0.2,0-0.4,0.3-0.4,0.5
					C23.3,12.2,23.4,12.4,23.6,12.4z"/>
				<path class="st5" d="M24.8,11.5c0.3,0,0.5-0.2,0.5-0.5c0-0.3-0.2-0.5-0.5-0.5s-0.5,0.2-0.5,0.5C24.4,11.3,24.6,11.5,24.8,11.5
					L24.8,11.5z"/>
				<path class="st5" d="M26,10.6c0.3-0.1,0.5-0.3,0.4-0.6c0-0.2-0.2-0.4-0.4-0.4c-0.3,0.1-0.5,0.3-0.4,0.6
					C25.6,10.4,25.8,10.6,26,10.6z"/>
				<path class="st5" d="M27.5,9.6c0.2,0,0.4-0.3,0.4-0.5c0-0.2-0.2-0.3-0.4-0.4c-0.2,0-0.4,0.3-0.4,0.5C27.1,9.4,27.3,9.6,27.5,9.6
					z"/>
				<path class="st5" d="M28.5,8.8c0.2,0,0.3-0.2,0.3-0.4s-0.2-0.4-0.3-0.4s-0.3,0.2-0.3,0.4S28.3,8.8,28.5,8.8z"/>
				<path class="st5" d="M29.6,8.1C29.8,8.1,30,8,30,7.8s-0.2-0.4-0.3-0.4s-0.4,0.2-0.4,0.4S29.4,8.1,29.6,8.1L29.6,8.1z"/>
				<path class="st5" d="M30.6,7.5c0.2,0,0.4-0.2,0.4-0.4c0-0.2-0.2-0.4-0.4-0.4s-0.4,0.2-0.4,0.4C30.2,7.3,30.4,7.5,30.6,7.5
					L30.6,7.5z"/>
				<path class="st5" d="M31.7,6.7c0.2,0,0.4-0.3,0.4-0.5c0-0.2-0.2-0.3-0.4-0.4c-0.2,0-0.4,0.3-0.4,0.5C31.4,6.5,31.6,6.7,31.7,6.7
					z"/>
				<path class="st5" d="M33.1,5.5c0.2,0,0.3-0.1,0.3-0.3c0-0.2-0.1-0.3-0.3-0.3l0,0c-0.2,0-0.3,0.1-0.3,0.3
					C32.7,5.4,32.9,5.5,33.1,5.5z"/>
				<path class="st5" d="M34.4,4.8c0.3,0,0.5-0.2,0.5-0.5s-0.2-0.5-0.5-0.5S33.9,4,33.9,4.3S34.1,4.8,34.4,4.8z"/>
				<path class="st5" d="M35.3,4c0.2,0,0.4-0.2,0.4-0.4c0-0.2-0.2-0.4-0.4-0.4s-0.4,0.2-0.4,0.4C34.9,3.8,35.1,4,35.3,4z"/>
				<path class="st5" d="M36.5,3.2c0.2,0,0.4-0.3,0.4-0.5c0-0.2-0.2-0.3-0.4-0.4c-0.2,0-0.4,0.3-0.4,0.5C36.1,3,36.3,3.2,36.5,3.2z"
					/>
				<path class="st5" d="M37.6,2.3c0.2,0,0.4-0.2,0.4-0.4c0-0.2-0.2-0.4-0.4-0.4c-0.2,0-0.4,0.2-0.4,0.4C37.2,2.2,37.3,2.3,37.6,2.3
					z"/>
				<path class="st5" d="M38.3,1.7c0.2,0,0.4-0.2,0.4-0.4c0-0.2-0.2-0.4-0.4-0.4S37.9,1,37.9,1.2C37.9,1.5,38.1,1.7,38.3,1.7z"/>
				<path class="st5" d="M0.3,14.5L0.3,14.5c0,0.2,0.2,0.3,0.4,0.3c0.2,0,0.3-0.1,0.4-0.2c0.1-0.2,0.1-0.5-0.1-0.6c0,0-0.1,0-0.1,0
					C0.5,13.9,0.1,14.2,0.3,14.5L0.3,14.5z"/>
				<path class="st5" d="M2,14c0.2,0,0.4-0.2,0.4-0.4c0-0.2-0.2-0.4-0.4-0.4c-0.2,0-0.4,0.2-0.4,0.4C1.5,13.8,1.7,14,2,14z"/>
				<path class="st5" d="M3.2,13.1c0.2,0,0.3-0.2,0.3-0.4c0-0.1-0.1-0.3-0.3-0.3c-0.2,0-0.3,0.2-0.3,0.4C3,12.9,3.1,13,3.2,13.1z"/>
				<path class="st5" d="M4.4,12.2c0.2,0,0.4-0.2,0.4-0.4s-0.2-0.4-0.4-0.4S4,11.5,4,11.8S4.2,12.2,4.4,12.2z"/>
				<path class="st5" d="M5.7,11.4c0.3,0,0.5-0.2,0.5-0.5S6,10.3,5.7,10.3s-0.5,0.2-0.5,0.5S5.4,11.4,5.7,11.4z"/>
				<path class="st5" d="M7,10.5c0.3-0.1,0.5-0.3,0.4-0.6c0-0.2-0.2-0.4-0.4-0.4c-0.3,0.1-0.5,0.3-0.4,0.6C6.6,10.3,6.8,10.5,7,10.5
					z"/>
				<path class="st5" d="M8.2,9.6c0.2,0,0.3-0.2,0.3-0.4c0-0.2-0.1-0.3-0.3-0.3C8,8.9,7.9,9.1,7.9,9.3C7.9,9.5,8.1,9.6,8.2,9.6z"/>
				<path class="st5" d="M9.3,8.6L9.3,8.6L9.3,8.6z"/>
				<path class="st5" d="M9.5,9c0.3,0,0.5-0.2,0.5-0.5c0-0.3-0.2-0.6-0.5-0.6S9,8.1,9,8.4C9,8.7,9.2,9,9.5,9L9.5,9z"/>
				<path class="st5" d="M10.7,8.1c0.2,0,0.4-0.3,0.4-0.5c0-0.2-0.2-0.3-0.4-0.4c-0.2,0-0.4,0.3-0.4,0.5C10.3,7.9,10.5,8.1,10.7,8.1
					z"/>
				<path class="st5" d="M11.7,7.3c0.2,0,0.4-0.2,0.4-0.4S12,6.5,11.7,6.5c-0.2,0-0.4,0.2-0.4,0.4C11.4,7.1,11.5,7.3,11.7,7.3
					L11.7,7.3z"/>
				<path class="st5" d="M12.9,5.8l-0.2,0.1c-0.1,0.1-0.2,0.3-0.1,0.4l0,0c0.1,0.1,0.3,0.2,0.4,0.1c-0.1,0-0.1,0,0,0
					C13.5,6.4,13.4,5.6,12.9,5.8L12.9,5.8z"/>
				<path class="st5" d="M14.1,5.6c0.2,0,0.4-0.3,0.4-0.5c0-0.2-0.2-0.3-0.4-0.4c-0.2,0-0.4,0.3-0.4,0.5C13.8,5.4,13.9,5.6,14.1,5.6
					z"/>
				<path class="st5" d="M15.1,4.9c0.3,0,0.5-0.2,0.5-0.5s-0.2-0.5-0.5-0.5s-0.5,0.2-0.5,0.5S14.9,4.9,15.1,4.9z"/>
				<path class="st5" d="M16.3,4.1c0.2,0,0.3-0.2,0.3-0.4c0-0.2-0.2-0.3-0.3-0.3c-0.2,0-0.3,0.2-0.3,0.4C15.9,4,16.1,4.1,16.3,4.1z"
					/>
				<path class="st5" d="M17.4,3.4c0.3,0,0.5-0.2,0.5-0.5s-0.2-0.5-0.5-0.5s-0.5,0.2-0.5,0.5S17.1,3.4,17.4,3.4z"/>
				<path class="st5" d="M18.5,2.7c0.3,0,0.5-0.2,0.5-0.5s-0.2-0.5-0.5-0.5S18,1.9,18,2.2S18.2,2.7,18.5,2.7z"/>
				<path class="st5" d="M19.4,1.9c0.2,0,0.4-0.3,0.4-0.5c0-0.2-0.2-0.3-0.4-0.4c-0.2,0-0.4,0.3-0.4,0.5C19.1,1.7,19.3,1.8,19.4,1.9
					z"/>
				<path class="st5" d="M20.5,0.6L20.5,0.6L20.5,0.6z"/>
				<path class="st5" d="M20.5,1.1c0.2,0,0.4-0.2,0.4-0.4c0-0.2-0.2-0.4-0.4-0.4s-0.4,0.2-0.4,0.4C20.1,1,20.3,1.1,20.5,1.1z"/>
				<path class="st5" d="M0.6,3.4c0.2,0,0.3-0.1,0.3-0.3S0.8,2.7,0.6,2.7S0.3,2.8,0.3,3S0.4,3.4,0.6,3.4z"/>
				<path class="st5" d="M1.7,2.7c0.2,0,0.4-0.2,0.4-0.4c0-0.2-0.2-0.4-0.4-0.4c-0.2,0-0.4,0.2-0.4,0.4C1.3,2.5,1.5,2.7,1.7,2.7z"/>
				<path class="st5" d="M2.9,1.9c0.2,0,0.4-0.2,0.4-0.5C3.3,1.2,3.1,1,2.9,1C2.6,1,2.4,1.2,2.4,1.5C2.4,1.7,2.6,1.9,2.9,1.9z"/>
				<path class="st5" d="M4.1,1.1L4.1,1.1c0.1-0.2,0.1-0.4,0-0.5l0,0C4,0.4,3.7,0.4,3.5,0.6C3.4,0.7,3.4,1,3.5,1.2
					C3.7,1.3,4,1.3,4.1,1.1C4.1,1.2,4.1,1.2,4.1,1.1L4.1,1.1z"/>
				<path class="st5" d="M1.2,60.6c0.2,0,0.3-0.2,0.3-0.4c0-0.1-0.1-0.3-0.3-0.3c-0.2,0-0.3,0.2-0.3,0.4C0.9,60.5,1,60.6,1.2,60.6z"
					/>
				<path class="st5" d="M2.1,59.9c0.2,0,0.3-0.1,0.3-0.3c0-0.2-0.1-0.3-0.3-0.3s-0.3,0.1-0.3,0.3C1.8,59.8,1.9,59.9,2.1,59.9z"/>
				<path class="st5" d="M3,59.3c0.3,0,0.5-0.2,0.5-0.5c0-0.3-0.2-0.5-0.5-0.5c-0.3,0-0.5,0.2-0.5,0.5C2.6,59.1,2.8,59.3,3,59.3z"/>
				<path class="st5" d="M4.1,58.5c0.3,0,0.5-0.2,0.5-0.5s-0.2-0.5-0.5-0.5S3.7,57.8,3.7,58S3.9,58.5,4.1,58.5z"/>
				<path class="st5" d="M5.2,57.5c0.3,0,0.5-0.2,0.5-0.5s-0.2-0.5-0.5-0.5S4.7,56.7,4.7,57S4.9,57.5,5.2,57.5z"/>
				<path class="st5" d="M6.8,56.4L6.8,56.4C7,56.3,7,56,6.8,55.8l0,0c-0.2-0.2-0.5-0.2-0.7,0s-0.2,0.5,0,0.7
					C6.4,56.7,6.7,56.7,6.8,56.4L6.8,56.4z"/>
				<path class="st5" d="M7.7,55.7c0.2,0,0.4-0.3,0.4-0.5c0-0.2-0.2-0.3-0.4-0.4c-0.2,0-0.4,0.3-0.4,0.5C7.4,55.5,7.6,55.6,7.7,55.7
					z"/>
				<path class="st5" d="M8.9,54.7c0.2,0,0.4-0.2,0.4-0.4c0-0.2-0.2-0.4-0.4-0.4c-0.2,0-0.4,0.2-0.4,0.4C8.5,54.5,8.7,54.7,8.9,54.7
					z"/>
				<path class="st5" d="M10.1,53.8c0.2,0,0.4-0.2,0.4-0.4c0-0.2-0.2-0.4-0.4-0.4c-0.2,0-0.4,0.2-0.4,0.4
					C9.7,53.7,9.9,53.8,10.1,53.8z"/>
				<path class="st5" d="M11.1,53c0.2,0,0.3-0.1,0.3-0.3c0-0.2-0.1-0.3-0.3-0.3s-0.3,0.1-0.3,0.3C10.8,52.9,10.9,53,11.1,53z"/>
				<path class="st5" d="M12.1,52.3c0.2,0,0.4-0.2,0.4-0.4c0-0.2-0.2-0.4-0.4-0.4s-0.4,0.2-0.4,0.4C11.7,52.1,11.9,52.3,12.1,52.3z"
					/>
				<path class="st5" d="M13.1,51.4c0.2,0,0.4-0.2,0.4-0.3c0-0.2-0.2-0.4-0.4-0.4s-0.4,0.2-0.4,0.4C12.7,51.3,12.9,51.4,13.1,51.4z"
					/>
				<path class="st5" d="M14.2,50.8c0.2,0,0.5-0.2,0.5-0.5s-0.2-0.5-0.5-0.5l0,0c-0.2,0-0.5,0.2-0.5,0.5S13.9,50.8,14.2,50.8z"/>
				<path class="st5" d="M15.1,50.1c0.2,0,0.4-0.2,0.4-0.4c0-0.2-0.2-0.4-0.4-0.4s-0.4,0.2-0.4,0.4C14.7,49.9,14.9,50.1,15.1,50.1z"
					/>
				<path class="st5" d="M16.2,49.3c0.2,0,0.4-0.3,0.4-0.5c0-0.2-0.2-0.3-0.4-0.4c-0.2,0-0.4,0.3-0.4,0.5
					C15.9,49.1,16,49.2,16.2,49.3z"/>
				<path class="st5" d="M17.2,47.7L17.2,47.7c-0.4,0.2-0.2,0.9,0.2,0.9l0,0c0.3,0,0.5-0.2,0.5-0.5c0-0.3-0.2-0.5-0.5-0.5
					C17.4,47.6,17.3,47.6,17.2,47.7L17.2,47.7z"/>
				<path class="st5" d="M18.5,47.6c0.2,0,0.4-0.2,0.4-0.3c0-0.2-0.2-0.4-0.4-0.4l0,0c-0.2,0-0.3,0.2-0.3,0.4
					C18.2,47.4,18.3,47.6,18.5,47.6z"/>
				<path class="st5" d="M19.6,46.7c0.2,0,0.3-0.1,0.3-0.3c0-0.2-0.1-0.3-0.3-0.3s-0.3,0.1-0.3,0.3C19.3,46.6,19.4,46.7,19.6,46.7z"
					/>
				<path class="st5" d="M20.6,46.2c0.2,0,0.5-0.2,0.5-0.5s-0.2-0.5-0.5-0.5s-0.5,0.2-0.5,0.5S20.4,46.2,20.6,46.2z"/>
				<path class="st5" d="M21.8,45.2c0.2,0,0.4-0.3,0.4-0.5c0-0.2-0.2-0.3-0.4-0.4c-0.2,0-0.4,0.3-0.4,0.5
					C21.5,45,21.6,45.2,21.8,45.2z"/>
				<path class="st5" d="M22.9,44.4c0.1,0,0.3-0.1,0.3-0.3c0-0.1-0.1-0.3-0.3-0.3s-0.3,0.1-0.3,0.3C22.7,44.3,22.8,44.4,22.9,44.4z"
					/>
				<path class="st5" d="M23.9,43.7c0.2,0,0.3-0.2,0.3-0.4c0-0.2-0.1-0.3-0.3-0.3c-0.2,0-0.3,0.2-0.3,0.4
					C23.7,43.5,23.8,43.7,23.9,43.7z"/>
				<path class="st5" d="M25,42.8c0.2,0,0.3-0.2,0.3-0.4c0-0.1-0.1-0.3-0.3-0.3c-0.2,0-0.3,0.2-0.3,0.4C24.8,42.7,24.9,42.8,25,42.8
					z"/>
				<path class="st5" d="M26,42.1c0.2,0,0.4-0.3,0.4-0.5c0-0.2-0.2-0.3-0.4-0.4c-0.2,0-0.4,0.3-0.4,0.5C25.6,41.9,25.8,42,26,42.1z"
					/>
				<path class="st5" d="M26.9,41.2c0.2,0,0.4-0.2,0.4-0.4c0-0.2-0.2-0.4-0.4-0.4c-0.2,0-0.4,0.2-0.4,0.4
					C26.6,41,26.7,41.2,26.9,41.2z"/>
				<path class="st5" d="M28,40.4c0.2,0,0.3-0.1,0.3-0.3c0-0.2-0.1-0.3-0.3-0.3c-0.2,0-0.3,0.1-0.3,0.3C27.7,40.2,27.8,40.4,28,40.4
					z"/>
				<path class="st5" d="M29.1,39.6c0.3-0.1,0.5-0.3,0.4-0.6c0-0.2-0.2-0.4-0.4-0.4c-0.3,0.1-0.5,0.3-0.4,0.6
					C28.7,39.4,28.9,39.5,29.1,39.6z"/>
				<path class="st5" d="M30.3,38.6c0.2,0,0.4-0.2,0.4-0.4c0-0.2-0.2-0.4-0.4-0.4s-0.4,0.2-0.4,0.4C29.9,38.4,30.1,38.6,30.3,38.6z"
					/>
				<path class="st5" d="M31.3,37.8c0.2,0,0.4-0.2,0.4-0.4c0-0.2-0.2-0.4-0.4-0.4c-0.2,0-0.4,0.2-0.4,0.4
					C30.9,37.6,31,37.8,31.3,37.8z"/>
				<path class="st5" d="M32.4,36.9c0.2,0,0.4-0.2,0.4-0.4c0-0.2-0.2-0.4-0.4-0.4l0,0c-0.2,0-0.4,0.2-0.4,0.4
					C32.1,36.8,32.2,36.9,32.4,36.9z"/>
				<path class="st5" d="M33.5,36c0.2,0,0.3-0.1,0.3-0.3c0-0.2-0.1-0.3-0.3-0.3l0,0c-0.2,0-0.3,0.1-0.3,0.3
					C33.2,35.8,33.3,36,33.5,36z"/>
				<path class="st5" d="M34.5,35.2c0.2,0,0.3-0.1,0.3-0.3s-0.1-0.3-0.3-0.3s-0.3,0.1-0.3,0.3S34.3,35.2,34.5,35.2z"/>
				<path class="st5" d="M35.6,34.6c0.3,0,0.5-0.2,0.5-0.5s-0.2-0.5-0.5-0.5s-0.5,0.2-0.5,0.5S35.3,34.6,35.6,34.6z"/>
				<path class="st5" d="M36.9,33.5c0.2,0,0.4-0.2,0.4-0.4c0-0.2-0.2-0.3-0.4-0.3s-0.4,0.2-0.4,0.3C36.5,33.3,36.7,33.5,36.9,33.5z"
					/>
				<path class="st5" d="M37.9,32.5c0.2,0,0.3-0.1,0.3-0.3c0-0.2-0.1-0.3-0.3-0.3c-0.2,0-0.3,0.1-0.3,0.3
					C37.6,32.4,37.7,32.5,37.9,32.5z"/>
				<path class="st5" d="M39,32c0.2,0,0.4-0.2,0.4-0.4c0-0.2-0.2-0.4-0.4-0.4c-0.2,0-0.4,0.2-0.4,0.4C38.6,31.8,38.8,32,39,32z"/>
				<path class="st5" d="M40.2,30.8L40.2,30.8L40.2,30.8z"/>
				<path class="st5" d="M40.1,31.3c0.2,0,0.4-0.2,0.4-0.4c0-0.2-0.2-0.4-0.4-0.4c-0.2,0-0.4,0.2-0.4,0.4
					C39.7,31.1,39.9,31.3,40.1,31.3z"/>
				<path class="st5" d="M18.4,62c0.2,0,0.4-0.2,0.4-0.4c0-0.2-0.2-0.4-0.4-0.4c-0.2,0-0.4,0.2-0.4,0.4C18.1,61.9,18.2,62,18.4,62z"
					/>
				<path class="st5" d="M19.5,61.3c0.2,0,0.3-0.1,0.3-0.3s-0.1-0.3-0.3-0.3s-0.3,0.1-0.3,0.3S19.3,61.3,19.5,61.3z"/>
				<path class="st5" d="M20.5,60.8c0.2,0,0.4-0.2,0.4-0.4c0-0.2-0.2-0.4-0.4-0.4c-0.2,0-0.4,0.2-0.4,0.4
					C20.1,60.6,20.3,60.8,20.5,60.8z"/>
				<path class="st5" d="M21.7,60.1c0.2,0,0.4-0.3,0.4-0.5c0-0.2-0.2-0.3-0.4-0.4c-0.2,0-0.4,0.3-0.4,0.5
					C21.3,59.9,21.5,60.1,21.7,60.1z"/>
				<path class="st5" d="M22.8,58.5L22.8,58.5c-0.5,0-0.3,0.8,0.1,0.7l0,0c0.1,0,0.2-0.2,0.2-0.3C23.1,58.7,23,58.5,22.8,58.5
					L22.8,58.5L22.8,58.5z"/>
				<path class="st5" d="M23.7,58.3c0.2,0,0.3-0.1,0.3-0.3c0-0.2-0.1-0.3-0.3-0.3c-0.2,0-0.3,0.1-0.3,0.3
					C23.4,58.1,23.6,58.3,23.7,58.3z"/>
				<path class="st5" d="M24.7,57.8c0.3,0,0.5-0.2,0.5-0.5s-0.2-0.5-0.5-0.5s-0.5,0.2-0.5,0.5S24.5,57.8,24.7,57.8z"/>
				<path class="st5" d="M25.8,56.9c0.2,0,0.4-0.2,0.4-0.4c0-0.2-0.2-0.4-0.4-0.4s-0.4,0.2-0.4,0.4C25.4,56.7,25.6,56.9,25.8,56.9z"
					/>
				<path class="st5" d="M26.9,55.9c0.2,0,0.3-0.1,0.3-0.3s-0.1-0.3-0.3-0.3s-0.3,0.1-0.3,0.3S26.8,55.9,26.9,55.9z"/>
				<path class="st5" d="M27.8,55.5c0.2,0,0.4-0.3,0.4-0.5c0-0.2-0.2-0.3-0.4-0.4c-0.2,0-0.4,0.3-0.4,0.5
					C27.5,55.3,27.7,55.5,27.8,55.5z"/>
				<path class="st5" d="M28.9,54.7c0.1,0,0.3-0.1,0.3-0.3c0-0.1-0.1-0.3-0.3-0.3s-0.3,0.1-0.3,0.3C28.6,54.6,28.7,54.7,28.9,54.7z"
					/>
				<path class="st5" d="M29.9,54.2c0.2,0,0.4-0.3,0.4-0.5c0-0.2-0.2-0.3-0.4-0.4c-0.2,0-0.4,0.3-0.4,0.5
					C29.6,54,29.7,54.2,29.9,54.2z"/>
				<path class="st5" d="M31.2,52.4L31.2,52.4c-0.2,0-0.4,0.2-0.4,0.4c0,0.2,0.2,0.4,0.4,0.4c0.1,0,0.2,0,0.2-0.1l0,0
					C31.8,53.1,31.6,52.4,31.2,52.4L31.2,52.4z"/>
				<path class="st5" d="M32.4,51.8L32.4,51.8c-0.1-0.1-0.3,0-0.4,0.1s0,0.3,0.1,0.4c0.1,0.1,0.3,0,0.4-0.1l0,0
					C32.6,52,32.5,51.9,32.4,51.8C32.4,51.8,32.4,51.8,32.4,51.8L32.4,51.8z"/>
				<path class="st5" d="M33.6,51.6L33.6,51.6c0.1-0.1,0.1-0.3,0-0.5l0,0c-0.1-0.2-0.4-0.2-0.5,0c-0.2,0.1-0.2,0.4,0,0.5
					C33.2,51.8,33.4,51.8,33.6,51.6C33.6,51.6,33.6,51.6,33.6,51.6L33.6,51.6z"/>
				<path class="st5" d="M34.3,50.7c0.2,0.2,0.6,0.1,0.5-0.2S34.1,50.4,34.3,50.7z"/>
				<path class="st5" d="M35.2,49.8c-0.2,0.4,0.5,0.6,0.7,0.3S35.4,49.3,35.2,49.8z"/>
				<path class="st5" d="M36.3,49.3L36.3,49.3c0.1,0.1,0.3,0.1,0.4,0l0,0c0.1-0.1,0.1-0.3,0-0.4s-0.3-0.1-0.4,0
					C36.1,49,36.1,49.1,36.3,49.3L36.3,49.3z"/>
				<path class="st5" d="M37.5,48.6c0.1,0,0.2-0.2,0.2-0.3c0-0.1-0.1-0.2-0.2-0.2c-0.1,0-0.2,0.2-0.2,0.3
					C37.3,48.5,37.4,48.6,37.5,48.6z"/>
				<path class="st5" d="M38.5,47.9c0.1,0,0.2-0.2,0.2-0.3c0-0.1-0.1-0.2-0.2-0.2c-0.1,0-0.2,0.2-0.2,0.3
					C38.3,47.8,38.4,47.9,38.5,47.9z"/>
				<path class="st5" d="M39.4,47.3c0.2,0,0.3-0.1,0.3-0.3c0-0.2-0.1-0.3-0.3-0.3c-0.2,0-0.3,0.1-0.3,0.3
					C39.1,47.1,39.2,47.3,39.4,47.3z"/>
				<path class="st5" d="M40.4,46.4L40.4,46.4L40.4,46.4z"/>
				<path class="st5" d="M40.3,46.2L40.3,46.2c-0.1,0.1-0.2,0.3-0.1,0.4c0.1,0.1,0.1,0.1,0.2,0.1l0,0C40.9,46.7,40.8,45.9,40.3,46.2
					L40.3,46.2z"/>
				<path class="st5" d="M37.4,62c0.2,0,0.4-0.2,0.4-0.4c0-0.2-0.2-0.4-0.4-0.4c-0.2,0-0.4,0.2-0.4,0.4C37,61.9,37.2,62,37.4,62z"/>
				<path class="st5" d="M38.6,61.2c0.2,0,0.4-0.2,0.4-0.4s-0.2-0.4-0.4-0.4s-0.4,0.2-0.4,0.4S38.3,61.2,38.6,61.2L38.6,61.2z"/>
				<path class="st5" d="M39.7,60.5c0.2,0,0.3-0.2,0.3-0.4c0-0.2-0.1-0.3-0.3-0.3c-0.2,0-0.3,0.2-0.3,0.4
					C39.4,60.4,39.5,60.5,39.7,60.5z"/>
				<path class="st6" d="M14.2,43.2c0.6,0,1-0.4,1-1s-0.4-1-1-1s-1,0.4-1,1S13.6,43.2,14.2,43.2z"/>
				<path class="st6" d="M7.2,48.9c0.6,0,1.1-0.5,1.1-1.1c0-0.6-0.5-1.1-1.1-1.1c-0.6,0-1.1,0.5-1.1,1.1C6.1,48.4,6.6,48.9,7.2,48.9
					z"/>
				<path class="st6" d="M-0.7,53.6L-0.7,53.6c0.4,0.4,1.2,0.4,1.6,0c0.4-0.4,0.4-1.2,0-1.6c-0.2-0.2-0.5-0.3-0.8-0.3l0,0
					c-0.4,0-0.8,0.2-1,0.6C-1.2,52.7-1.1,53.2-0.7,53.6L-0.7,53.6z"/>
				<path class="st6" d="M9.7,63.5L9.7,63.5c0.4,0,0.7-0.2,0.9-0.5l0,0c0.3-0.5,0.1-1.2-0.4-1.5c-0.1,0-0.2-0.1-0.3-0.1
					c-0.6-0.2-1.2,0.1-1.3,0.7s0.1,1.2,0.7,1.3C9.5,63.5,9.6,63.5,9.7,63.5z"/>
				<path class="st6" d="M16.9,57.4L16.9,57.4c0.6-0.3,0.8-1,0.5-1.6c-0.1-0.2-0.2-0.3-0.4-0.4h-0.1c-0.4-0.2-0.8-0.2-1.2,0
					c-0.6,0.3-0.8,1.1-0.4,1.6c0.1,0.2,0.3,0.3,0.4,0.4C16,57.7,16.5,57.7,16.9,57.4L16.9,57.4z"/>
				<path class="st6" d="M23.6,51.9L23.6,51.9c0.6,0.1,1.1-0.4,1.2-1c0.1-0.6-0.4-1.1-1-1.2c-0.1,0-0.1,0-0.2,0l0,0
					c-0.6,0-1.1,0.5-1.1,1.1C22.5,51.5,23,51.9,23.6,51.9L23.6,51.9z"/>
				<path class="st6" d="M30.5,47.1c0.5,0,0.9-0.4,0.9-0.9s-0.4-0.9-0.9-0.9s-0.9,0.4-0.9,0.9S30,47.1,30.5,47.1L30.5,47.1z"/>
				<path class="st6" d="M37.7,41.7c0.5,0,0.9-0.4,0.9-0.9s-0.4-0.9-0.9-0.9s-0.9,0.4-0.9,0.9C36.8,41.3,37.2,41.7,37.7,41.7z"/>
				<path class="st6" d="M20.7,38.1c0.6,0,1.1-0.5,1.1-1.1S21.3,36,20.7,36c-0.6,0-1.1,0.5-1.1,1.1l0,0
					C19.7,37.7,20.2,38.1,20.7,38.1z"/>
				<path class="st6" d="M27.8,33.3L27.8,33.3c0.6-0.2,0.9-0.8,0.8-1.3c-0.2-0.6-0.8-0.9-1.3-0.8l0,0c-0.6,0.2-0.9,0.8-0.8,1.3
					C26.7,33.1,27.3,33.4,27.8,33.3z"/>
				<path class="st6" d="M33.9,26L33.9,26c-0.3,0.1-0.6,0.3-0.7,0.5c-0.3,0.5-0.1,1.2,0.4,1.6c0.4,0.3,1,0.2,1.4-0.2l0,0
					c0.4-0.4,0.5-0.9,0.2-1.4C34.9,26.1,34.4,25.9,33.9,26L33.9,26z"/>
				<path class="st6" d="M41.7,22.7L41.7,22.7c0.4-0.3,0.6-0.9,0.3-1.3l0,0c-0.3-0.5-0.9-0.6-1.4-0.4c-0.5,0.3-0.6,0.9-0.4,1.4
					C40.6,22.8,41.2,23,41.7,22.7C41.7,22.7,41.7,22.7,41.7,22.7L41.7,22.7z"/>
				<path class="st6" d="M0.5,38.1c0.6,0,1.1-0.5,1.1-1.1c0-0.6-0.5-1.1-1.1-1.1s-1.1,0.5-1.1,1.1l0,0C-0.6,37.6-0.1,38.1,0.5,38.1z
					"/>
				<path class="st6" d="M7.7,32.9c0.7,0,1.2-0.5,1.2-1.2s-0.5-1.2-1.2-1.2c-0.7,0-1.2,0.5-1.2,1.2c0,0,0,0,0,0
					C6.5,32.3,7.1,32.8,7.7,32.9z"/>
				<path class="st6" d="M15.1,24.8c-0.4,0.1-0.8,0.5-0.9,0.9c-0.2,0.7,0.2,1.4,0.9,1.6s1.4-0.2,1.6-0.9s-0.2-1.4-0.9-1.6
					C15.5,24.7,15.3,24.7,15.1,24.8z"/>
				<path class="st6" d="M22.6,21.9c0.7,0,1.3-0.6,1.3-1.3s-0.6-1.3-1.3-1.3c-0.7,0-1.3,0.6-1.3,1.3v0
					C21.3,21.4,21.9,21.9,22.6,21.9z"/>
				<path class="st6" d="M30.6,14.3c-0.4-0.4-1-0.5-1.4-0.2c-0.6,0.3-0.7,1-0.4,1.6s1,0.7,1.6,0.4s0.7-1,0.4-1.6
					C30.7,14.4,30.6,14.3,30.6,14.3z"/>
				<path class="st6" d="M36.3,10.7c0.6,0,1-0.4,1-1s-0.4-1-1-1s-1,0.4-1,1S35.7,10.7,36.3,10.7z"/>
				<path class="st6" d="M0.7,22.3C1.4,22.3,2,21.7,2,21s-0.6-1.3-1.3-1.3c-0.7,0-1.3,0.6-1.3,1.3l0,0C-0.6,21.7-0.1,22.3,0.7,22.3z
					"/>
				<path class="st6" d="M10.4,15.7L10.4,15.7c-0.1-0.4-0.5-0.8-0.9-0.9c-0.6-0.1-1.1,0.1-1.5,0.6l0,0c-0.4,0.6-0.2,1.4,0.5,1.8
					c0.6,0.4,1.4,0.2,1.8-0.5C10.5,16.4,10.5,16.1,10.4,15.7L10.4,15.7z"/>
				<path class="st6" d="M18.6,9.8L18.6,9.8c-0.4-0.6-1.2-0.8-1.8-0.5c-0.3,0.2-0.5,0.4-0.6,0.8c-0.1,0.3,0,0.7,0.1,1l0,0
					c0.4,0.6,1.2,0.8,1.8,0.5l0,0C18.7,11.2,18.9,10.4,18.6,9.8c-0.1-0.2-0.3-0.3-0.5-0.4l0,0c-0.6-0.4-1.4-0.1-1.8,0.5l0,0
					c-0.2,0.3-0.2,0.7-0.1,1c0.2,0.7,0.9,1.1,1.6,0.9c0.3-0.1,0.6-0.3,0.8-0.6C18.8,10.7,18.8,10.3,18.6,9.8L18.6,9.8z"/>
				<path class="st6" d="M26.1,5.2L26.1,5.2c0.1-0.5-0.1-1-0.5-1.3l0,0c-0.6-0.3-1.3-0.1-1.6,0.4S23.8,5.7,24.3,6
					c0.6,0.3,1.3,0.1,1.6-0.4C26,5.5,26,5.4,26.1,5.2L26.1,5.2z"/>
				<path class="st6" d="M30.4-0.9c-0.5,0.1-0.9,0.4-1,0.9c-0.1,0.4,0,0.8,0.3,1.1C30,1.4,30.5,1.5,31,1.2l0,0
					c0.5-0.3,0.7-0.9,0.4-1.4l0,0v1.1V0.8c0.2-0.4,0.1-0.4-0.1,0.1c0.3-0.3,0.4-0.8,0.2-1.2C31.2-0.7,30.7-0.9,30.4-0.9L30.4-0.9z"
					/>
				<path class="st6" d="M-0.3,9.2c0.5,0.1,1-0.1,1.2-0.6c0.1-0.5-0.1-1-0.6-1.2c-0.5-0.1-1,0.1-1.2,0.6c0,0,0,0,0,0
					C-1,8.6-0.7,9.1-0.3,9.2z"/>
				<path class="st6" d="M6,4.2C5.7,4.3,5.5,4.6,5.5,4.9C5.3,5.5,5.7,6,6.2,6.2C6.8,6.3,7.4,6,7.6,5.4c0.1-0.3,0-0.5-0.1-0.8
					C7.4,4.5,7.3,4.4,7.2,4.3C6.9,4,6.4,3.9,6,4.2L6,4.2z"/>
				<path class="st6" d="M11.5,0.8L11.5,0.8c0,0.5,0.4,0.9,0.9,0.9l0,0l0,0c0.3,0,0.7-0.2,0.9-0.5c0.3-0.5,0.2-1.1-0.3-1.4
					c-0.5-0.3-1.1-0.2-1.4,0.3C11.5,0.3,11.4,0.5,11.5,0.8L11.5,0.8z"/>
				<path class="st6" d="M27.9,63.7L27.9,63.7c0.4,0.4,1.1,0.5,1.6,0.2c0.6-0.4,0.8-1.1,0.5-1.8s-1.1-0.8-1.8-0.5
					c-0.3,0.2-0.5,0.4-0.6,0.8l0,0C27.4,62.9,27.5,63.3,27.9,63.7L27.9,63.7z"/>
				<path class="st6" d="M35.5,58.6L35.5,58.6c0.3-0.6,0.1-1.2-0.4-1.5c-0.1,0-0.2-0.1-0.2-0.1h-0.1c-0.6-0.2-1.2,0.2-1.4,0.8
					s0.2,1.2,0.8,1.4C34.6,59.2,35.2,59,35.5,58.6L35.5,58.6z"/>
				<path class="st6" d="M41,55.2c0.7,0,1.3-0.5,1.3-1.3c0-0.7-0.5-1.3-1.3-1.3c-0.7,0-1.3,0.5-1.3,1.3c0,0,0,0,0,0
					C39.7,54.6,40.3,55.1,41,55.2L41,55.2z"/>
				<path class="st2" d="M28.4,60.7c-0.3,0.1-0.5,0.4-0.5,0.7c0,0.2,0.1,0.3,0.3,0.4c0.3,0.2,0.6,0.1,0.8-0.2l0,0l-0.3,0.3l0,0
					c0.3-0.1,0.5-0.4,0.4-0.7C29,60.8,28.7,60.6,28.4,60.7L28.4,60.7z"/>
				<path class="st2" d="M27.1,63.5c0.3,0,0.6-0.3,0.6-0.6s-0.3-0.6-0.6-0.6s-0.6,0.3-0.6,0.6S26.8,63.5,27.1,63.5z"/>
				<path class="st2" d="M30.1,63.3c0.3-0.1,0.4-0.4,0.4-0.6c0-0.2-0.2-0.3-0.4-0.4c-0.3,0.1-0.4,0.4-0.4,0.6
					C29.8,63.1,29.9,63.3,30.1,63.3z"/>
				<path class="st2" d="M28.7,64.9c0.4,0,0.7-0.3,0.7-0.7c0-0.4-0.3-0.7-0.7-0.7c-0.4,0-0.7,0.3-0.7,0.7
					C28.1,64.6,28.4,64.9,28.7,64.9z"/>
				<path class="st2" d="M34.5,57.1c0.2,0,0.4-0.3,0.4-0.5c0-0.2-0.2-0.3-0.4-0.4c-0.2,0-0.4,0.3-0.4,0.5
					C34.1,57,34.3,57.1,34.5,57.1z"/>
				<path class="st2" d="M33.2,58.6c0.3,0,0.6-0.3,0.6-0.6c0-0.3-0.3-0.6-0.6-0.6c-0.3,0-0.6,0.3-0.6,0.6
					C32.6,58.3,32.9,58.6,33.2,58.6z"/>
				<path class="st2" d="M34.6,59.7c0.3,0,0.5-0.2,0.5-0.5s-0.2-0.5-0.5-0.5s-0.5,0.2-0.5,0.5S34.3,59.7,34.6,59.7z"/>
				<path class="st2" d="M35.4,58.4L35.4,58.4c0.2,0.2,0.5,0.2,0.7,0c0,0,0.1-0.1,0.1-0.1l0,0c0.1-0.3,0-0.6-0.2-0.7
					c-0.1,0-0.1,0-0.2-0.1C35.3,57.5,35,58.1,35.4,58.4L35.4,58.4z"/>
				<path class="st2" d="M39.6,54.6c0.3,0,0.5-0.2,0.5-0.5s-0.2-0.5-0.5-0.5s-0.5,0.2-0.5,0.5S39.3,54.6,39.6,54.6L39.6,54.6z"/>
				<path class="st2" d="M41,53c0.2,0,0.4-0.2,0.4-0.4s-0.2-0.4-0.4-0.4s-0.4,0.2-0.4,0.4S40.8,53,41,53z"/>
				<path class="st2" d="M41,55.9c0.3,0,0.6-0.3,0.5-0.7c0-0.3-0.2-0.5-0.5-0.5c-0.3,0-0.6,0.3-0.5,0.7C40.6,55.7,40.8,55.9,41,55.9
					z"/>
				<path class="st2" d="M30.5,45.5c0.3,0,0.6-0.3,0.6-0.6c0-0.3-0.3-0.6-0.6-0.6c-0.3,0-0.6,0.3-0.6,0.6
					C29.9,45.3,30.2,45.5,30.5,45.5z"/>
				<path class="st2" d="M29.4,46.9c0.3,0,0.6-0.3,0.6-0.6s-0.3-0.6-0.6-0.6s-0.6,0.3-0.6,0.6S29.1,46.9,29.4,46.9L29.4,46.9z"/>
				<path class="st2" d="M30.6,47.9c0.2,0,0.5-0.2,0.5-0.5S30.9,47,30.6,47l0,0c-0.2,0-0.5,0.2-0.5,0.5S30.4,47.9,30.6,47.9z"/>
				<path class="st2" d="M31.7,46.8c0.3,0,0.6-0.3,0.6-0.6c0-0.3-0.3-0.6-0.6-0.6s-0.6,0.3-0.6,0.6C31.2,46.5,31.4,46.8,31.7,46.8
					L31.7,46.8z"/>
				<path class="st2" d="M38.2,38.9L38.2,38.9c-0.3-0.2-0.7-0.1-0.9,0.2c-0.2,0.3-0.1,0.7,0.2,0.9c0.2,0.1,0.5,0.1,0.7,0l0,0
					c0.3-0.2,0.4-0.6,0.2-0.9C38.3,39.1,38.3,39,38.2,38.9L38.2,38.9z"/>
				<path class="st2" d="M36.4,41.5c0.3,0,0.6-0.3,0.6-0.6s-0.3-0.6-0.6-0.6s-0.6,0.3-0.6,0.6S36.1,41.5,36.4,41.5z"/>
				<path class="st2" d="M38,43c0.4,0,0.6-0.4,0.6-0.8c0-0.3-0.3-0.6-0.6-0.6c-0.4,0-0.6,0.4-0.6,0.8C37.4,42.7,37.6,42.9,38,43z"/>
				<path class="st2" d="M39.2,41.3c0.3-0.1,0.5-0.3,0.4-0.6c0-0.2-0.2-0.4-0.4-0.4c-0.3,0.1-0.5,0.3-0.4,0.6
					C38.9,41.1,39,41.3,39.2,41.3z"/>
				<path class="st2" d="M23.6,50.1c0.3,0,0.6-0.4,0.5-0.7c0-0.3-0.3-0.5-0.5-0.5c-0.3,0-0.6,0.4-0.5,0.7
					C23.1,49.8,23.3,50,23.6,50.1z"/>
				<path class="st2" d="M22.2,51.5c0.3-0.1,0.5-0.3,0.4-0.6c0-0.2-0.2-0.4-0.4-0.4c-0.3,0.1-0.5,0.3-0.4,0.6
					C21.9,51.3,22,51.5,22.2,51.5z"/>
				<path class="st2" d="M25.1,51.5c0.3,0,0.5-0.2,0.5-0.5c0-0.3-0.2-0.5-0.5-0.5c-0.3,0-0.5,0.2-0.5,0.5
					C24.6,51.3,24.8,51.5,25.1,51.5z"/>
				<path class="st2" d="M23.7,52.8c0.2,0,0.5-0.2,0.5-0.4c0-0.2-0.2-0.5-0.5-0.5l0,0c-0.2,0-0.5,0.2-0.5,0.5
					C23.3,52.6,23.5,52.8,23.7,52.8z"/>
				<path class="st2" d="M16.1,55.3c0.3,0,0.5-0.3,0.5-0.6c0-0.2-0.2-0.4-0.5-0.5c-0.3,0-0.5,0.3-0.5,0.6
					C15.7,55.1,15.9,55.3,16.1,55.3z"/>
				<path class="st2" d="M14.7,57.1c0.4,0,0.7-0.3,0.7-0.7c0-0.4-0.3-0.7-0.7-0.7c-0.4,0-0.7,0.3-0.7,0.7
					C14,56.8,14.3,57.1,14.7,57.1z"/>
				<path class="st2" d="M17.7,57c0.3,0,0.6-0.3,0.6-0.6c0-0.3-0.3-0.6-0.6-0.6c-0.3,0-0.6,0.3-0.6,0.6C17.2,56.8,17.4,57,17.7,57z"
					/>
				<path class="st2" d="M16.4,58.4c0.3,0,0.5-0.2,0.5-0.5s-0.2-0.5-0.5-0.5s-0.5,0.2-0.5,0.5S16.1,58.4,16.4,58.4z"/>
				<path class="st2" d="M9.7,61.4c0.3,0,0.5-0.2,0.5-0.5s-0.2-0.5-0.5-0.5s-0.5,0.2-0.5,0.5S9.4,61.4,9.7,61.4z"/>
				<path class="st2" d="M8.2,63c0.3,0,0.6-0.3,0.6-0.6c0-0.3-0.3-0.6-0.6-0.6c-0.3,0-0.6,0.3-0.6,0.6C7.6,62.8,7.8,63,8.2,63z"/>
				<path class="st2" d="M11.1,62.9c0.3,0,0.5-0.2,0.5-0.5s-0.2-0.5-0.5-0.5s-0.5,0.2-0.5,0.5S10.8,62.9,11.1,62.9z"/>
				<path class="st2" d="M10,64.2c0.2,0,0.4-0.2,0.4-0.4c0-0.2-0.2-0.4-0.4-0.4s-0.4,0.2-0.4,0.4C9.7,64,9.8,64.2,10,64.2z"/>
				<path class="st2" d="M-0.1,52c0.4,0,0.6-0.4,0.6-0.8c0-0.3-0.3-0.6-0.6-0.6c-0.4,0-0.6,0.4-0.6,0.8C-0.7,51.7-0.4,51.9-0.1,52z"
					/>
				<path class="st2" d="M-1.5,53.5c0.3,0,0.6-0.3,0.6-0.6c0-0.3-0.3-0.6-0.6-0.6s-0.6,0.3-0.6,0.6C-2.1,53.3-1.8,53.5-1.5,53.5z"/>
				<path class="st2" d="M1.3,53.6c0.3,0,0.6-0.3,0.6-0.6s-0.3-0.6-0.6-0.6c-0.3,0-0.6,0.3-0.6,0.6l0,0C0.7,53.3,1,53.6,1.3,53.6z"
					/>
				<path class="st2" d="M0,54.9c0.4,0,0.7-0.3,0.7-0.7c0-0.4-0.3-0.7-0.7-0.7c-0.4,0-0.7,0.3-0.7,0.7C-0.6,54.6-0.3,54.9,0,54.9z"
					/>
				<path class="st2" d="M5.8,47.2c-0.1,0-0.1,0.1-0.2,0.1c-0.1,0.1-0.2,0.3-0.1,0.5c0.1,0.2,0.3,0.4,0.5,0.4c0.1,0,0.2,0,0.4-0.1
					c0.3-0.2,0.3-0.5,0.2-0.8C6.3,47.1,6,47.1,5.8,47.2z"/>
				<path class="st2" d="M7.4,46.8c0.3,0,0.6-0.3,0.6-0.6c0-0.3-0.3-0.6-0.6-0.6c-0.3,0-0.6,0.3-0.6,0.6C6.8,46.5,7,46.8,7.4,46.8z"
					/>
				<path class="st2" d="M8.6,48.4c0.4,0,0.7-0.4,0.7-0.8c0-0.4-0.3-0.6-0.7-0.7c-0.4,0-0.7,0.4-0.7,0.8C8,48.1,8.3,48.4,8.6,48.4z"
					/>
				<path class="st2" d="M7.7,49.6L7.7,49.6c0.1-0.2,0.1-0.4,0-0.6l0,0c-0.2-0.3-0.6-0.4-0.9-0.2c-0.3,0.2-0.4,0.6-0.2,0.9
					c0.1,0.1,0.2,0.2,0.4,0.3C7.2,50,7.5,49.9,7.7,49.6L7.7,49.6z"/>
				<path class="st2" d="M14.2,41.4c0.3,0,0.6-0.3,0.6-0.6c0-0.3-0.3-0.6-0.6-0.6l0,0c-0.3,0-0.6,0.3-0.6,0.6
					C13.5,41.1,13.8,41.4,14.2,41.4z"/>
				<path class="st2" d="M12.6,42.8c0.3,0,0.6-0.3,0.6-0.6c0-0.3-0.3-0.6-0.6-0.6S12,41.9,12,42.2C12,42.6,12.3,42.8,12.6,42.8z"/>
				<path class="st2" d="M16,41.8L16,41.8c-0.3-0.3-0.7-0.3-0.9,0s-0.3,0.7,0,0.9c0.3,0.3,0.7,0.3,0.9,0l0,0
					C16.3,42.5,16.3,42.1,16,41.8L16,41.8z"/>
				<path class="st2" d="M14.2,44.2c0.4,0,0.6-0.3,0.6-0.6c0-0.4-0.3-0.6-0.6-0.6s-0.6,0.3-0.6,0.6C13.5,43.9,13.8,44.2,14.2,44.2z"
					/>
				<path class="st2" d="M20.6,36.2c0.3,0,0.6-0.3,0.6-0.6c0-0.3-0.3-0.6-0.6-0.6c-0.3,0-0.6,0.3-0.6,0.6C20,36,20.3,36.2,20.6,36.2
					z"/>
				<path class="st2" d="M19.4,37.7c0.3,0,0.6-0.3,0.6-0.6c0-0.3-0.3-0.6-0.6-0.6c-0.3,0-0.6,0.3-0.6,0.6
					C18.8,37.5,19,37.7,19.4,37.7z"/>
				<path class="st2" d="M20.8,39.2c0.4,0,0.7-0.3,0.7-0.7s-0.3-0.7-0.7-0.7s-0.7,0.3-0.7,0.7S20.4,39.2,20.8,39.2z"/>
				<path class="st2" d="M22.4,37.5c0.4,0,0.6-0.3,0.6-0.6s-0.3-0.6-0.6-0.6s-0.6,0.3-0.6,0.6l0,0C21.7,37.2,22,37.5,22.4,37.5z"/>
				<path class="st2" d="M27.4,31.3c0.3,0,0.6-0.3,0.6-0.6s-0.3-0.6-0.6-0.6s-0.6,0.3-0.6,0.6S27.1,31.3,27.4,31.3z"/>
				<path class="st2" d="M26.1,33c0.4,0,0.7-0.3,0.7-0.7c0-0.4-0.3-0.7-0.7-0.7c-0.4,0-0.7,0.3-0.7,0.7C25.4,32.7,25.7,33,26.1,33z"
					/>
				<path class="st2" d="M29,32.7c0.4,0,0.6-0.3,0.6-0.7s-0.3-0.6-0.7-0.6c-0.4,0-0.6,0.3-0.6,0.6C28.4,32.4,28.7,32.7,29,32.7z"/>
				<path class="st2" d="M27.7,34.3c0.4,0,0.7-0.3,0.7-0.7c0-0.4-0.3-0.7-0.7-0.7s-0.7,0.3-0.7,0.7C27.1,34,27.4,34.3,27.7,34.3z"/>
				<path class="st2" d="M34.4,26.3c0.3,0,0.6-0.3,0.5-0.7c0-0.3-0.3-0.5-0.5-0.5c-0.3,0-0.6,0.3-0.5,0.7
					C33.9,26,34.1,26.3,34.4,26.3z"/>
				<path class="st2" d="M32.9,27.8c0.4,0,0.7-0.3,0.7-0.7c0-0.4-0.3-0.7-0.7-0.7s-0.7,0.3-0.7,0.7C32.2,27.5,32.5,27.8,32.9,27.8z"
					/>
				<path class="st2" d="M35.7,27.6c0.3,0,0.6-0.3,0.6-0.6s-0.3-0.6-0.6-0.6s-0.6,0.3-0.6,0.6S35.4,27.6,35.7,27.6z"/>
				<path class="st2" d="M34.5,28.6L34.5,28.6L34.5,28.6L34.5,28.6L34.5,28.6z"/>
				<path class="st2" d="M34.4,29.2c0.3,0,0.6-0.3,0.5-0.7c0-0.3-0.3-0.5-0.5-0.5c-0.3,0-0.6,0.3-0.5,0.7
					C33.9,28.9,34.1,29.1,34.4,29.2z"/>
				<path class="st2" d="M39.6,22.8L39.6,22.8c0.3,0.2,0.7,0.1,0.9-0.2c0.1-0.1,0.1-0.3,0.1-0.5l0,0c-0.1-0.3-0.5-0.5-0.8-0.4
					c-0.3,0.1-0.5,0.5-0.4,0.8C39.3,22.6,39.4,22.7,39.6,22.8L39.6,22.8z"/>
				<path class="st2" d="M41.4,21c0.3,0,0.6-0.3,0.6-0.6c0-0.3-0.3-0.6-0.6-0.6s-0.6,0.3-0.6,0.6C40.8,20.7,41.1,21,41.4,21L41.4,21
					z"/>
				<path class="st2" d="M41.4,24c0.4,0,0.6-0.4,0.6-0.7c0-0.3-0.3-0.5-0.6-0.6c-0.4,0-0.6,0.4-0.6,0.7C40.9,23.7,41.1,23.9,41.4,24
					z"/>
				<path class="st2" d="M0.4,35.8c0.2,0,0.5-0.2,0.5-0.5s-0.2-0.5-0.5-0.5s-0.5,0.2-0.5,0.5S0.1,35.8,0.4,35.8z"/>
				<path class="st2" d="M-0.9,37.7c0.3,0,0.6-0.3,0.6-0.6c0-0.3-0.3-0.6-0.6-0.6c-0.3,0-0.6,0.3-0.6,0.6
					C-1.5,37.4-1.2,37.7-0.9,37.7z"/>
				<path class="st2" d="M2,37.5c0.3-0.1,0.5-0.3,0.4-0.6c0-0.2-0.2-0.4-0.4-0.4c-0.3,0.1-0.5,0.3-0.4,0.6C1.6,37.3,1.7,37.5,2,37.5
					z"/>
				<path class="st2" d="M0.7,39c0.3,0,0.6-0.2,0.6-0.6S1,37.9,0.7,37.9s-0.6,0.2-0.6,0.6S0.4,39,0.7,39z"/>
				<path class="st2" d="M7.7,30.7c0.4,0,0.7-0.3,0.7-0.7S8,29.3,7.7,29.3S7,29.6,7,30S7.3,30.7,7.7,30.7L7.7,30.7z"/>
				<path class="st2" d="M6.2,32.4c0.4,0,0.7-0.3,0.7-0.7S6.6,31,6.2,31s-0.7,0.3-0.7,0.7S5.8,32.4,6.2,32.4L6.2,32.4z"/>
				<path class="st2" d="M8.9,31L8.9,31c-0.2,0.2-0.2,0.6,0,0.8c0.2,0.2,0.6,0.2,0.8,0c0,0,0.1-0.1,0.1-0.1l0,0
					C10.3,31.2,9.4,30.6,8.9,31L8.9,31z"/>
				<path class="st2" d="M7.3,33.4L7.3,33.4c0.1,0.4,0.6,0.5,0.9,0.4c0.3-0.1,0.5-0.4,0.4-0.8l0,0c-0.1-0.4-0.6-0.5-0.9-0.4
					C7.4,32.7,7.3,33,7.3,33.4z"/>
				<path class="st2" d="M15.2,23.7L15.2,23.7c-0.3,0-0.6,0.3-0.6,0.6c0,0.3,0.3,0.6,0.6,0.6c0.2,0,0.4-0.1,0.5-0.3l0,0
					c0.2-0.3,0.1-0.7-0.2-0.8C15.4,23.7,15.3,23.7,15.2,23.7L15.2,23.7z"/>
				<path class="st2" d="M13.9,26.9c0.4,0,0.7-0.3,0.7-0.7c0-0.4-0.3-0.7-0.7-0.7c-0.4,0-0.7,0.3-0.7,0.7
					C13.2,26.6,13.5,26.9,13.9,26.9z"/>
				<path class="st2" d="M17.2,25.5L17.2,25.5c-0.3-0.2-0.7-0.1-0.9,0.2s-0.1,0.7,0.2,0.9c0.3,0.2,0.7,0.1,0.9-0.2c0,0,0,0,0,0l0,0
					C17.6,26.1,17.5,25.7,17.2,25.5L17.2,25.5z"/>
				<path class="st2" d="M15.7,28.5c0.4,0,0.8-0.3,0.8-0.8S16.2,27,15.7,27S15,27.3,15,27.8S15.3,28.5,15.7,28.5z"/>
				<path class="st2" d="M21.7,19.3L21.7,19.3c0,0.3,0.3,0.6,0.6,0.6c0.3,0,0.6-0.3,0.6-0.6c0-0.1,0-0.2-0.1-0.3l0,0
					c-0.2-0.2-0.5-0.3-0.8-0.1C21.9,19,21.8,19.1,21.7,19.3L21.7,19.3z"/>
				<path class="st2" d="M21.4,20.2L21.4,20.2c-0.4,0-0.6,0.3-0.6,0.7c0,0.4,0.3,0.6,0.7,0.6c0.2,0,0.4-0.1,0.5-0.3l0,0
					c0.2-0.3,0.1-0.7-0.2-0.8C21.6,20.3,21.5,20.3,21.4,20.2L21.4,20.2z"/>
				<path class="st2" d="M23.9,21.3c0.4,0,0.7-0.3,0.7-0.7c0-0.4-0.3-0.7-0.7-0.7c-0.4,0-0.7,0.3-0.7,0.7S23.5,21.3,23.9,21.3
					L23.9,21.3z"/>
				<path class="st2" d="M22.8,22.9c0.4,0,0.7-0.3,0.7-0.7s-0.3-0.7-0.7-0.7s-0.7,0.3-0.7,0.7S22.4,22.9,22.8,22.9z"/>
				<path class="st2" d="M29.7,14.2c0.3,0,0.6-0.3,0.6-0.6S30,13,29.7,13s-0.6,0.3-0.6,0.6S29.3,14.2,29.7,14.2z"/>
				<path class="st2" d="M28.2,14.4L28.2,14.4c-0.4,0-0.6,0.4-0.6,0.8c0,0.3,0.3,0.6,0.6,0.6l0,0c0.4,0,0.6-0.4,0.6-0.8
					C28.7,14.7,28.5,14.4,28.2,14.4z"/>
				<path class="st2" d="M30.9,15.5c0.3-0.1,0.4-0.4,0.4-0.6c0-0.2-0.2-0.3-0.4-0.4c-0.3,0.1-0.4,0.4-0.4,0.6
					C30.6,15.3,30.8,15.4,30.9,15.5z"/>
				<path class="st2" d="M29.3,15.9L29.3,15.9c-0.2,0.3-0.2,0.7,0.1,0.9c0.2,0.1,0.4,0.2,0.6,0.2h0c0.4-0.1,0.6-0.5,0.5-0.8
					c-0.1-0.4-0.5-0.6-0.8-0.5C29.5,15.8,29.4,15.8,29.3,15.9L29.3,15.9z"/>
				<path class="st2" d="M36.3,9c0.3,0,0.6-0.3,0.6-0.6c0-0.3-0.3-0.6-0.6-0.6s-0.6,0.3-0.6,0.6C35.7,8.8,36,9,36.3,9z"/>
				<path class="st2" d="M34.8,10.3c0.3,0,0.6-0.3,0.6-0.6s-0.3-0.6-0.6-0.6s-0.6,0.3-0.6,0.6S34.5,10.3,34.8,10.3z"/>
				<path class="st2" d="M37.8,10.1c0.3,0,0.6-0.3,0.6-0.6c0-0.3-0.3-0.6-0.6-0.6l0,0c-0.3,0-0.6,0.3-0.6,0.6
					C37.2,9.8,37.5,10.1,37.8,10.1z"/>
				<path class="st2" d="M36.5,11.7c0.3,0,0.6-0.3,0.6-0.6s-0.3-0.6-0.6-0.6s-0.6,0.3-0.6,0.6S36.2,11.7,36.5,11.7L36.5,11.7z"/>
				<path class="st2" d="M0.6,20c0.4,0,0.6-0.3,0.6-0.6s-0.3-0.6-0.6-0.6l0,0c-0.4,0-0.6,0.3-0.6,0.6S0.2,20,0.6,20z"/>
				<path class="st2" d="M-1.1,21.5c0.3,0,0.5-0.2,0.5-0.5s-0.2-0.5-0.5-0.5s-0.5,0.2-0.5,0.5S-1.4,21.5-1.1,21.5z"/>
				<path class="st2" d="M2.2,21.5c0.3,0,0.5-0.2,0.5-0.5c0-0.3-0.2-0.5-0.5-0.5S1.6,20.7,1.6,21C1.6,21.3,1.9,21.5,2.2,21.5z"/>
				<path class="st2" d="M0.6,23.3c0.3,0,0.6-0.3,0.6-0.6s-0.3-0.6-0.6-0.6S0,22.3,0,22.7S0.3,23.3,0.6,23.3z"/>
				<path class="st2" d="M9.3,14.2L9.3,14.2c-0.2-0.1-0.4-0.1-0.5,0c-0.2,0.1-0.3,0.4-0.2,0.6l0,0c0.1,0.3,0.4,0.5,0.7,0.4
					c0.3-0.1,0.5-0.4,0.4-0.7C9.6,14.4,9.5,14.3,9.3,14.2L9.3,14.2z"/>
				<path class="st2" d="M7.5,16.8c0.3,0,0.6-0.3,0.6-0.6c0-0.3-0.3-0.6-0.6-0.6c-0.3,0-0.6,0.3-0.6,0.6C7,16.6,7.2,16.8,7.5,16.8z"
					/>
				<path class="st2" d="M10.7,16.7c0.3,0,0.6-0.3,0.6-0.6c0-0.3-0.3-0.6-0.6-0.6s-0.6,0.3-0.6,0.6C10.1,16.5,10.3,16.7,10.7,16.7z"
					/>
				<path class="st2" d="M9.1,18.3c0.3,0,0.6-0.3,0.5-0.7c0-0.3-0.2-0.5-0.5-0.5c-0.3,0-0.6,0.3-0.5,0.7C8.6,18,8.9,18.2,9.1,18.3z"
					/>
				<path class="st2" d="M17.2,9.5c0.4,0,0.7-0.3,0.7-0.7c0-0.4-0.3-0.7-0.7-0.7c-0.4,0-0.7,0.3-0.7,0.7v0
					C16.5,9.2,16.8,9.5,17.2,9.5z"/>
				<path class="st2" d="M16.1,9.9L16.1,9.9c-0.2-0.1-0.5-0.1-0.7,0c-0.3,0.2-0.4,0.6-0.2,0.9c0.2,0.3,0.6,0.4,0.9,0.2l0,0
					c0.3-0.2,0.4-0.6,0.2-0.9C16.3,10.1,16.2,10,16.1,9.9L16.1,9.9z"/>
				<path class="st2" d="M18.9,10.8c0.3,0,0.6-0.3,0.6-0.6c0-0.3-0.3-0.6-0.6-0.6l0,0c-0.3,0-0.6,0.3-0.6,0.6
					C18.3,10.5,18.6,10.8,18.9,10.8z"/>
				<path class="st2" d="M17.7,12.6c0.3,0,0.6-0.3,0.6-0.6c0-0.3-0.3-0.6-0.6-0.6c-0.3,0-0.6,0.3-0.6,0.6
					C17.1,12.3,17.4,12.6,17.7,12.6z"/>
				<path class="st2" d="M24.8,2.9c-0.2,0-0.3,0.1-0.4,0.2c-0.2,0.2-0.2,0.5,0,0.7C24.5,4,24.7,4,24.8,4c0.3,0,0.5-0.2,0.5-0.5
					C25.4,3.2,25.1,3,24.8,2.9L24.8,2.9z"/>
				<path class="st2" d="M23.6,5.3C23.8,5.2,24,5,24,4.7c0-0.2-0.2-0.3-0.4-0.4c-0.2,0-0.4,0.3-0.4,0.5C23.2,5.1,23.4,5.2,23.6,5.3z
					"/>
				<path class="st2" d="M25,6.9c0.3,0,0.6-0.3,0.6-0.6c0-0.3-0.3-0.6-0.6-0.6l0,0c-0.3,0-0.6,0.3-0.6,0.6C24.4,6.6,24.7,6.9,25,6.9
					z"/>
				<path class="st2" d="M26.5,5.5c0.4,0,0.7-0.3,0.7-0.7c0-0.4-0.3-0.7-0.7-0.7c-0.4,0-0.7,0.3-0.7,0.7C25.8,5.2,26.1,5.5,26.5,5.5
					z"/>
				<path class="st2" d="M29.3-0.2L29.3-0.2c-0.3,0-0.5,0.2-0.5,0.5c0,0.3,0.2,0.5,0.5,0.5h0C30,0.8,30-0.2,29.3-0.2L29.3-0.2z"/>
				<path class="st2" d="M30.3-0.5c0.3,0,0.6-0.3,0.6-0.6s-0.3-0.6-0.6-0.6s-0.6,0.3-0.6,0.6S30-0.5,30.3-0.5z"/>
				<path class="st2" d="M30.8,2c0.4,0,0.7-0.3,0.7-0.7c0-0.4-0.3-0.7-0.7-0.7c-0.4,0-0.7,0.3-0.7,0.7C30.1,1.7,30.4,2,30.8,2z"/>
				<path class="st2" d="M31.5,0.2L31.5,0.2c0.1,0.3,0.4,0.4,0.7,0.4c0.3-0.1,0.4-0.4,0.4-0.7c0-0.1-0.1-0.1-0.1-0.2l0,0
					c-0.2-0.2-0.6-0.2-0.8,0C31.5-0.2,31.5,0,31.5,0.2L31.5,0.2z"/>
				<path class="st2" d="M-0.3,7.7c0.3,0,0.6-0.2,0.6-0.6c0-0.3-0.2-0.5-0.6-0.5s-0.6,0.2-0.6,0.5C-0.9,7.5-0.6,7.7-0.3,7.7z"/>
				<path class="st2" d="M-1.3,9C-1,9-0.8,8.8-0.8,8.6S-1,8.1-1.3,8.1s-0.4,0.2-0.4,0.4S-1.5,9-1.3,9z"/>
				<path class="st2" d="M1.1,8.7c0.3,0,0.5-0.2,0.5-0.5c0-0.3-0.2-0.5-0.5-0.5S0.6,8,0.6,8.2C0.6,8.5,0.8,8.7,1.1,8.7z"/>
				<path class="st2" d="M0,10c0.3,0,0.5-0.2,0.5-0.5S0.3,9,0,9l0,0c-0.3,0-0.5,0.2-0.5,0.5S-0.2,10,0,10z"/>
				<path class="st2" d="M6.3,4.5c0.3,0,0.5-0.2,0.5-0.5S6.6,3.5,6.3,3.5S5.8,3.7,5.8,4S6,4.5,6.3,4.5L6.3,4.5z"/>
				<path class="st2" d="M5.5,4.9c-0.1,0-0.2,0-0.3,0C5,5,4.8,5.3,4.9,5.5C5,5.8,5.2,5.9,5.5,5.8c0.1,0,0.1-0.1,0.2-0.1l0,0
					c0.2-0.1,0.3-0.4,0.1-0.6C5.7,5,5.7,4.9,5.5,4.9L5.5,4.9z"/>
				<path class="st2" d="M7.7,5.4C8,5.4,8.2,5.3,8.2,5c0-0.2-0.2-0.4-0.4-0.4C7.5,4.6,7.3,4.8,7.3,5C7.3,5.3,7.5,5.4,7.7,5.4z"/>
				<path class="st2" d="M6.7,6.9c0.3,0,0.6-0.3,0.6-0.6c0-0.3-0.3-0.6-0.6-0.6C6.4,5.7,6.2,6,6.2,6.3C6.2,6.6,6.4,6.9,6.7,6.9z"/>
				<path class="st2" d="M11.3,1.4c0.3-0.1,0.4-0.4,0.4-0.6c0-0.2-0.2-0.3-0.4-0.4c-0.3,0.1-0.4,0.4-0.4,0.6
					C11,1.2,11.1,1.4,11.3,1.4z"/>
				<path class="st2" d="M12.3,0c0.3,0,0.5-0.3,0.5-0.6c0-0.2-0.2-0.4-0.5-0.5c-0.3,0-0.5,0.3-0.5,0.6C11.9-0.2,12,0,12.3,0z"/>
				<path class="st2" d="M13.6,0.8L13.6,0.8L13.6,0.8z"/>
				<path class="st2" d="M13.7,1.3c0.3,0,0.5-0.3,0.5-0.6c0-0.2-0.2-0.4-0.5-0.5c-0.3,0-0.5,0.3-0.5,0.6C13.2,1.1,13.4,1.3,13.7,1.3
					z"/>
				<path class="st2" d="M12.6,2.5c0.3,0,0.5-0.2,0.5-0.5s-0.2-0.5-0.5-0.5S12.1,1.7,12.1,2S12.3,2.5,12.6,2.5z"/>
				<path class="st6" d="M1.9,5.3c0.2,0.1,0.4,0.2,0.7,0.2c0,0,0.1-0.1,0-0.1S2.1,5.2,1.9,5.1S1.8,5.2,1.9,5.3L1.9,5.3z"/>
				<path class="st6" d="M1,5.5c0,0.1-0.1,0.3,0,0.4c0,0,0.1,0,0.1,0c0.1-0.1,0.1-0.3,0-0.4c0-0.1,0-0.1-0.1-0.1S0.9,5.5,1,5.5
					L1,5.5z"/>
				<polygon class="st6" points="3,6.5 3,6.5 3,6.5 				"/>
				<path class="st6" d="M2.6,6.6c0.1,0.2,0.2,0.6,0.5,0.5c0.1,0,0.1-0.1,0.1-0.1c0,0,0,0,0,0C3.1,6.7,3,6.6,2.9,6.5
					S2.5,6.5,2.6,6.6L2.6,6.6z"/>
				<polygon class="st6" points="3.5,3.8 3.5,3.8 3.5,3.8 				"/>
				<path class="st6" d="M3.4,4.5c0.2-0.1,0.4-0.1,0.5-0.4s0-0.1-0.1-0.1c-0.2,0-0.4,0.1-0.5,0.2C3.1,4.4,3.3,4.6,3.4,4.5L3.4,4.5z"
					/>
				<path class="st6" d="M4.1,6.4c0.1,0.1,0.2,0.1,0.3,0.2c0,0,0.1,0,0.1-0.1L4.2,6.3c0,0-0.1,0-0.1,0C4.1,6.3,4.1,6.4,4.1,6.4
					C4.1,6.4,4.1,6.4,4.1,6.4L4.1,6.4z"/>
				<path class="st6" d="M3.2,8.6c0.2,0,0.4,0,0.6,0c0,0,0-0.1,0-0.1C3.6,8.3,3.4,8.4,3.2,8.3S3,8.6,3.2,8.6L3.2,8.6z"/>
				<polygon class="st6" points="4.8,7.8 4.8,7.8 4.8,7.8 				"/>
				<path class="st6" d="M5,7.9C5,8,5.2,8.2,5.3,8.2c0.1,0,0.1,0,0.1-0.1c0,0,0,0,0,0c0-0.2-0.1-0.4-0.3-0.4C5.1,7.7,5,7.8,5,7.9
					L5,7.9z"/>
				<polygon class="st6" points="2.1,10.4 2.1,10.4 2.1,10.4 				"/>
				<path class="st6" d="M2,10.4c0,0.2,0,0.3,0,0.5c0,0,0.1,0.1,0.2,0c0,0,0,0,0,0c0.1-0.1,0.1-0.3,0.1-0.5c0-0.1,0-0.1-0.1-0.2
					C2.2,10.2,2.1,10.3,2,10.4L2,10.4L2,10.4z"/>
				<path class="st6" d="M0.6,11.3c0,0.1,0.1,0.2,0.2,0.2c0,0,0.1,0,0.1,0c0,0,0,0,0-0.1c0,0-0.1-0.1-0.1-0.2
					C0.8,11.1,0.6,11.2,0.6,11.3L0.6,11.3z"/>
				<path class="st6" d="M5.6,2.5c0.3,0,0.5-0.1,0.7-0.3c0-0.1,0-0.2,0-0.2c0,0,0,0,0,0C6,2,5.7,2.1,5.5,2.2
					C5.4,2.3,5.5,2.5,5.6,2.5L5.6,2.5z"/>
				<path class="st6" d="M8.3,0.8c0.1,0.2,0.1,0.4,0.3,0.4c0,0,0.1,0,0.1-0.1c0.1-0.2-0.1-0.4-0.2-0.5c0,0-0.1-0.1-0.2,0
					C8.3,0.7,8.2,0.7,8.3,0.8L8.3,0.8L8.3,0.8z"/>
				<polygon class="st6" points="8.8,2.4 8.8,2.4 8.8,2.4 				"/>
				<path class="st6" d="M8.5,2.6C8.6,2.7,8.8,3.1,9,2.9c0-0.1,0.1-0.1,0-0.2c0-0.2-0.3-0.4-0.5-0.4C8.5,2.3,8.4,2.4,8.5,2.6
					C8.5,2.5,8.5,2.5,8.5,2.6z"/>
				<path class="st6" d="M10.3,3.6c0.2,0,0.3,0,0.5,0c0.3,0,0.4-0.3,0.1-0.4c-0.2-0.1-0.5-0.1-0.7,0C10,3.3,10,3.4,10,3.5
					C10,3.6,10.1,3.7,10.3,3.6L10.3,3.6z"/>
				<path class="st6" d="M9.7,4.9c0.1,0,0.2,0,0.4,0c0.1,0,0.1-0.1,0.1-0.1c0,0,0,0,0-0.1C10.1,4.6,10,4.5,9.8,4.5
					C9.6,4.5,9.5,4.8,9.7,4.9L9.7,4.9z"/>
				<path class="st6" d="M12.4,3.6c0.1,0,0.2,0,0.4-0.1c0.1,0,0.1-0.1,0.1-0.2c0,0,0-0.1,0-0.1c-0.1,0-0.1,0-0.2,0
					C12.6,3.4,12.5,3.5,12.4,3.6C12.4,3.6,12.4,3.6,12.4,3.6C12.4,3.7,12.4,3.7,12.4,3.6L12.4,3.6z"/>
				<path class="st6" d="M15,0.8c0,0.2,0,0.3,0.1,0.4c0,0.1,0.1,0.1,0.2,0.1c0.3,0,0.1-0.4,0.1-0.6c0-0.1-0.1-0.1-0.2-0.1
					C15,0.7,15,0.7,15,0.8L15,0.8z"/>
				<path class="st6" d="M16.7,0.6c0.2-0.1,0.5,0,0.6-0.2c0,0,0-0.1,0-0.1c-0.2-0.2-0.5,0-0.6,0.1S16.7,0.7,16.7,0.6L16.7,0.6z"/>
				<path class="st6" d="M2.5,15.9c0.1,0,0.5,0.5,0.6,0.2s-0.4-0.5-0.6-0.4C2.5,15.8,2.5,15.8,2.5,15.9C2.5,15.9,2.5,15.9,2.5,15.9
					L2.5,15.9z"/>
				<path class="st6" d="M1.7,17l0.1,0.2c0,0,0.1,0.1,0.1,0c0,0,0,0,0,0V17C1.9,16.9,1.8,17,1.7,17L1.7,17z"/>
				<path class="st6" d="M3.4,17.9c0.3,0,0.5,0,0.8,0c0,0,0,0,0-0.1c0,0,0,0,0,0c-0.2-0.2-0.5-0.2-0.8-0.1
					C3.3,17.7,3.3,17.8,3.4,17.9C3.3,17.9,3.3,17.9,3.4,17.9L3.4,17.9z"/>
				<path class="st6" d="M3.1,19c0.1,0.2,0.3,0.4,0.5,0.4c0,0,0.1,0,0.1-0.1c0,0,0,0,0,0c-0.1-0.2-0.3-0.3-0.5-0.4
					C3.2,18.8,3.1,18.8,3.1,19C3.1,18.9,3.1,18.9,3.1,19L3.1,19z"/>
				<path class="st6" d="M4.7,15.2c0.1,0.2,0.1,0.4,0.3,0.6s0.3-0.1,0.2-0.2c-0.1-0.2-0.3-0.3-0.4-0.5c0,0-0.1,0-0.1,0
					C4.7,15.2,4.7,15.2,4.7,15.2L4.7,15.2z"/>
				<path class="st6" d="M5.9,18.8C6,19,6.3,19.3,6.5,19.1c0,0,0-0.1,0-0.1c0-0.2-0.2-0.3-0.3-0.4S5.8,18.6,5.9,18.8L5.9,18.8z"/>
				<path class="st6" d="M5.1,20.6c0.2,0,0.5,0.2,0.6,0c0-0.1,0-0.2-0.1-0.2c-0.2-0.1-0.3-0.1-0.5,0c-0.1,0-0.1,0-0.1,0.1
					S5.1,20.6,5.1,20.6L5.1,20.6z"/>
				<path class="st6" d="M4.3,22.7c0.2-0.1,0.4-0.1,0.5-0.3c0-0.1,0-0.1-0.1-0.2c-0.2-0.1-0.4,0.1-0.5,0.2C4,22.6,4.1,22.8,4.3,22.7
					z"/>
				<path class="st6" d="M0.9,24.7c0.1,0.2,0.2,0.4,0.4,0.4c0,0,0.1,0,0.1-0.1l0,0c0-0.2-0.2-0.3-0.3-0.5S0.8,24.6,0.9,24.7z"/>
				<path class="st6" d="M2.9,24.2h0.1c0,0,0-0.1,0-0.1L2.9,24.2C2.9,24.1,2.9,24.2,2.9,24.2L2.9,24.2z"/>
				<path class="st6" d="M2.9,24.4c0.1,0.1,0.3,0,0.4,0c0.2,0,0.3-0.1,0.5-0.2c0.1-0.1,0-0.2-0.1-0.2c-0.2,0-0.4,0-0.6,0.1
					C3,24.1,2.8,24.2,2.9,24.4L2.9,24.4z"/>
				<path class="st6" d="M1,26.4c0.2,0.1,0.4,0.3,0.5,0c0,0,0-0.1,0-0.1c-0.1-0.1-0.2-0.1-0.3-0.2S0.8,26.2,1,26.4L1,26.4z"/>
				<path class="st6" d="M7.1,21.4c0.2,0,0.5-0.1,0.7-0.1c0,0,0.1,0,0.1-0.1s0-0.1-0.1-0.1c-0.3-0.1-0.5-0.1-0.8,0
					C6.9,21.1,7,21.3,7.1,21.4L7.1,21.4z"/>
				<path class="st6" d="M8.4,19.8c0,0.2,0.2,0.4,0.4,0.3c0,0,0-0.1,0-0.1c0-0.1-0.2-0.2-0.3-0.3C8.4,19.6,8.4,19.7,8.4,19.8
					C8.3,19.7,8.3,19.8,8.4,19.8L8.4,19.8z"/>
				<path class="st6" d="M6.9,13.2L7,13.4c0,0,0.1,0,0.1,0c0,0,0.1,0,0.1-0.1c0-0.1,0-0.1,0-0.2L7,13C6.9,12.9,6.8,13.1,6.9,13.2
					L6.9,13.2z"/>
				<path class="st6" d="M9.3,11.7c0.2-0.1,0.5-0.1,0.7-0.3c0,0,0-0.1,0-0.1c-0.2-0.1-0.6,0.1-0.8,0.2c-0.1,0-0.1,0.1,0,0.2
					C9.3,11.7,9.3,11.7,9.3,11.7L9.3,11.7L9.3,11.7z"/>
				<path class="st6" d="M10.3,12.5c0.2,0.2,0.4,0.3,0.6,0.3c0.1,0,0.1-0.1,0.1-0.1c0,0,0,0,0,0c-0.1-0.2-0.3-0.3-0.5-0.4
					S10.1,12.4,10.3,12.5L10.3,12.5z"/>
				<path class="st6" d="M12.3,10.7c0.1-0.1,0.3-0.1,0.5-0.2s0-0.1,0-0.1c-0.2,0-0.4,0-0.5,0.1c-0.1,0-0.1,0.1-0.1,0.2
					S12.2,10.7,12.3,10.7C12.3,10.7,12.3,10.7,12.3,10.7L12.3,10.7z"/>
				<path class="st6" d="M13.2,11.8c0.1,0.2,0.1,0.4,0.3,0.4c0,0,0.1,0,0.1-0.1c0,0,0,0,0,0c0-0.2-0.1-0.3-0.2-0.5
					S13.1,11.7,13.2,11.8z"/>
				<path class="st6" d="M12.6,13.7c0,0.2,0.1,0.4,0.2,0.4c0,0,0.1,0,0.1,0c0.1-0.1,0-0.3,0-0.5c0-0.1-0.1-0.1-0.2-0.1
					C12.6,13.6,12.6,13.7,12.6,13.7L12.6,13.7z"/>
				<polygon class="st6" points="14.9,13.7 14.9,13.7 14.9,13.7 				"/>
				<path class="st6" d="M14.9,14c0.2,0,0.8,0.2,0.8-0.2s-0.6-0.2-0.8-0.2c-0.1,0-0.1,0.1-0.1,0.2C14.8,13.9,14.8,14,14.9,14z"/>
				<path class="st6" d="M13.7,15.2c0,0.2,0,0.3,0,0.5c0,0.1,0.1,0.2,0.3,0.1c0.1,0,0.1-0.1,0.1-0.2c0-0.2,0-0.3-0.1-0.5
					c0-0.1-0.1-0.1-0.2-0.1C13.8,15.1,13.8,15.2,13.7,15.2L13.7,15.2z"/>
				<polygon class="st6" points="12.9,16.5 12.9,16.5 12.9,16.5 				"/>
				<path class="st6" d="M12.6,16.7c-0.1,0.2-0.1,0.4-0.1,0.5c0,0.3,0.5,0.2,0.4-0.1c0-0.1,0-0.2,0-0.3c0-0.1-0.1-0.2-0.2-0.2
					C12.6,16.6,12.6,16.6,12.6,16.7L12.6,16.7z"/>
				<path class="st6" d="M15.5,15.3c0.2,0,0.5,0.1,0.7,0c0,0,0-0.1,0-0.1c-0.2-0.2-0.5-0.1-0.7,0C15.4,15.1,15.4,15.2,15.5,15.3
					C15.5,15.3,15.5,15.3,15.5,15.3L15.5,15.3z"/>
				<path class="st6" d="M13.5,9L13.5,9h-0.1c0.2,0.1,0.5,0.1,0.6-0.1c0-0.1,0-0.1-0.1-0.2c-0.1,0-0.3,0-0.4,0
					c-0.1,0-0.1,0.1-0.2,0.2C13.4,9,13.4,9,13.5,9C13.5,9,13.5,9,13.5,9L13.5,9z"/>
				<path class="st6" d="M15.9,6.9c0,0.1,0,0.2,0.1,0.3c0,0.1,0.1,0.1,0.2,0.1l0,0c0.1,0,0.1-0.1,0.1-0.2c0-0.1-0.1-0.2-0.1-0.3
					S15.8,6.7,15.9,6.9L15.9,6.9z"/>
				<path class="st6" d="M18.2,5.7c0.1,0.1,0.3,0.3,0.5,0.3c0.1,0,0.1,0,0.1-0.1c0,0,0,0,0,0c-0.1-0.2-0.2-0.3-0.4-0.4
					S18.1,5.6,18.2,5.7L18.2,5.7z"/>
				<polygon class="st6" points="19,7.1 19,7.1 19,7.1 				"/>
				<path class="st6" d="M18.2,7c0,0.2,0.4,0.6,0.6,0.4s-0.3-0.6-0.5-0.5C18.2,6.9,18.2,6.9,18.2,7z"/>
				<path class="st6" d="M19.7,5.1L20.2,5c0.1,0,0.3-0.1,0.4-0.1c0.1,0,0.1-0.1,0.1-0.2c0,0,0,0-0.1-0.1c-0.3-0.2-0.7,0.1-0.9,0.2
					c-0.1,0-0.1,0.1-0.1,0.2C19.6,5.1,19.7,5.1,19.7,5.1L19.7,5.1L19.7,5.1z"/>
				<path class="st6" d="M20.6,6.2c0.1,0.1,0.2,0.2,0.2,0.3c0,0,0.1,0,0.1,0c0,0,0-0.1,0-0.1l0,0c-0.1-0.1-0.1-0.2-0.2-0.3
					C20.7,6,20.6,6,20.6,6C20.5,6,20.5,6.1,20.6,6.2C20.5,6.2,20.5,6.2,20.6,6.2z"/>
				<path class="st6" d="M20.3,7.5c0,0.2,0,0.9,0.3,0.9c0.1,0,0.1-0.1,0.1-0.1c0,0,0,0,0,0c-0.1-0.2-0.2-0.4-0.2-0.7
					C20.6,7.4,20.4,7.4,20.3,7.5L20.3,7.5z"/>
				<path class="st6" d="M20.7,9.7c0.2,0.1,0.5,0.2,0.7,0c0.1,0,0.1-0.1,0-0.2c0,0,0,0,0,0c-0.2-0.2-0.5-0.2-0.8-0.1
					c-0.1,0-0.1,0.1-0.1,0.2C20.6,9.6,20.6,9.6,20.7,9.7L20.7,9.7z"/>
				<path class="st6" d="M20.6,11.6c0.2-0.1,0.5-0.1,0.5-0.4c0-0.1,0-0.1,0-0.1c0,0,0,0,0,0c-0.2,0-0.4,0.2-0.6,0.3c0,0,0,0.1,0,0.2
					C20.5,11.6,20.5,11.6,20.6,11.6z"/>
				<path class="st6" d="M21.9,7L21.9,7c0,0,0,0.1,0,0.1c0.1,0.1,0.5,0.2,0.7,0.1c0,0,0,0,0-0.1C22.5,7,22.3,7,22.2,7
					S21.9,6.9,21.9,7L21.9,7z"/>
				<path class="st6" d="M22.8,8.6c0.1-0.2,0.4-0.3,0.5-0.5c0,0,0-0.1-0.1-0.1c0,0,0,0,0,0c-0.3-0.1-0.5,0.2-0.6,0.4
					S22.7,8.7,22.8,8.6z"/>
				<path class="st6" d="M22.6,9.7c0.1,0.1,0.2,0.1,0.3,0.1c0,0,0.1,0,0.1-0.1c0,0,0,0,0,0c0-0.1-0.1-0.2-0.2-0.2
					C22.6,9.4,22.5,9.6,22.6,9.7L22.6,9.7z"/>
				<path class="st6" d="M24.7,8.8c0.2-0.2,0.6-0.3,0.6-0.6c0-0.1,0-0.1-0.1-0.1c-0.3,0-0.6,0.3-0.7,0.5S24.6,8.9,24.7,8.8z"/>
				<path class="st6" d="M21.7,2.9c0,0.1,0,0.2-0.1,0.3c0,0.1-0.1,0.2,0,0.4c0,0,0.1,0,0.1,0c0.2,0,0.5-0.8,0.2-0.8
					C21.8,2.8,21.8,2.8,21.7,2.9C21.8,2.8,21.8,2.9,21.7,2.9L21.7,2.9z"/>
				<path class="st6" d="M24.4,1.7h0.3l0,0H24.4z"/>
				<path class="st6" d="M24.2,1.8c0.2,0,0.5,0,0.7-0.1c0,0,0-0.1,0-0.1c0,0,0,0,0,0c-0.2-0.1-0.5-0.1-0.7,0C24,1.6,24,1.6,24,1.7
					C24,1.8,24.1,1.8,24.2,1.8L24.2,1.8z"/>
				<path class="st6" d="M25.9,0.6c0,0.2,0.1,0.7,0.4,0.5s-0.2-0.5-0.3-0.6C26,0.5,26,0.5,25.9,0.6C26,0.6,26,0.6,25.9,0.6L25.9,0.6
					z"/>
				<path class="st6" d="M27.5,1.3c0.2,0.1,0.3,0.1,0.5,0c0,0,0-0.1,0-0.1S27.7,1,27.6,1C27.4,0.9,27.3,1.2,27.5,1.3L27.5,1.3z"/>
				<path class="st6" d="M27.2,2.2c-0.1,0.2,0.3,0.8,0.5,0.7s-0.2-0.7-0.3-0.8C27.3,2.1,27.3,2.1,27.2,2.2
					C27.2,2.2,27.2,2.2,27.2,2.2L27.2,2.2z"/>
				<path class="st6" d="M28.8,3c0.2,0.2,0.5,0.2,0.8,0.2c0,0,0-0.1,0-0.1c0,0,0,0,0,0c-0.1-0.3-0.5-0.2-0.8-0.3
					c-0.1,0-0.1,0-0.2,0.1C28.7,2.9,28.7,3,28.8,3L28.8,3z"/>
				<path class="st6" d="M28.5,4.4c0,0.2,0,0.3,0,0.5c0,0,0.1,0,0.1,0c0,0,0,0,0,0c0.1-0.2,0.1-0.3,0-0.5
					C28.7,4.3,28.7,4.3,28.5,4.4C28.6,4.3,28.5,4.4,28.5,4.4L28.5,4.4z"/>
				<path class="st6" d="M27.9,6.3h0.2c0,0,0-0.1,0-0.1c0,0,0,0,0,0h-0.2C27.8,6.1,27.8,6.3,27.9,6.3L27.9,6.3z"/>
				<path class="st6" d="M30.7,4.3c0.2,0,0.4-0.1,0.6-0.1c0.1,0,0.1-0.1,0.1-0.1c0-0.1-0.1-0.1-0.1-0.1c-0.2,0-0.4,0.1-0.6,0.1
					c-0.1,0-0.1,0.1-0.1,0.2C30.6,4.3,30.6,4.3,30.7,4.3L30.7,4.3z"/>
				<path class="st6" d="M32.8,2c-0.2,0.2-0.4,0.4-0.2,0.7c0,0,0.1,0,0.2,0c0,0,0,0,0,0C32.9,2.5,33,2.3,33,2.2S32.9,1.9,32.8,2
					L32.8,2z"/>
				<polygon class="st6" points="34.6,1 34.6,1 34.6,1 				"/>
				<path class="st6" d="M34.2,1C34.5,1,34.8,1.2,35,1c0,0,0-0.1,0-0.1c-0.3-0.2-0.7-0.1-0.9,0.1c0,0-0.1,0.1-0.1,0.1
					C34.1,1,34.1,1,34.2,1L34.2,1z"/>
				<path class="st6" d="M1.5,31.5c0.1,0.2,0.3,0.4,0.6,0.3c0,0,0-0.1,0-0.1c0,0,0,0,0,0c-0.1-0.1-0.3-0.2-0.5-0.3
					c0,0-0.1-0.1-0.2,0S1.4,31.5,1.5,31.5L1.5,31.5L1.5,31.5z"/>
				<path class="st6" d="M0.9,33c0.1,0.2,0,0.6,0.3,0.6c0,0,0.1,0,0.1-0.1c0,0,0,0,0,0c0-0.1-0.1-0.2-0.1-0.3c0-0.1,0-0.2-0.1-0.3
					S0.9,32.8,0.9,33z"/>
				<path class="st6" d="M3.1,33.1c0.2,0,0.4,0,0.6,0c0,0,0.1-0.1,0-0.1c0,0,0,0,0,0c-0.2-0.1-0.4-0.2-0.7-0.2
					C2.8,32.7,2.8,33.1,3.1,33.1L3.1,33.1z"/>
				<polygon class="st6" points="4,30.2 4,30.2 4,30.2 				"/>
				<path class="st6" d="M3.9,30.8c0.2-0.1,0.7-0.2,0.7-0.5c0,0,0-0.1-0.1-0.1l0,0c-0.1,0-0.3,0.1-0.4,0.1c-0.1,0.1-0.3,0.2-0.4,0.3
					c0,0,0,0.1,0,0.1C3.8,30.8,3.9,30.8,3.9,30.8z"/>
				<path class="st6" d="M5,34.3c0,0.2-0.1,0.5,0.1,0.6c0,0,0.1,0,0.1,0c0.2-0.1,0.1-0.5,0-0.7c0-0.1-0.1-0.1-0.2,0
					C5,34.2,4.9,34.3,5,34.3L5,34.3z"/>
				<path class="st6" d="M3.1,34.7c0.1,0.2,0.2,0.5,0.4,0.5c0.1,0,0.1,0,0.1-0.1l0,0c0-0.2-0.1-0.4-0.3-0.6
					C3.3,34.4,3,34.6,3.1,34.7L3.1,34.7z"/>
				<path class="st6" d="M4.2,36.7l0.4-0.1c0.2,0,0.3-0.1,0.4-0.1c0.1,0,0.1-0.1,0-0.2c0,0,0,0,0,0c-0.3-0.2-0.7,0.1-0.9,0.2
					S4.1,36.8,4.2,36.7L4.2,36.7z"/>
				<polygon class="st6" points="3.9,38.4 3.9,38.4 3.9,38.4 				"/>
				<path class="st6" d="M3.7,38.5c0.2,0,0.6,0.2,0.8,0c0,0,0,0,0-0.1c-0.1-0.3-0.6-0.2-0.8-0.2c-0.1,0-0.1,0.1-0.1,0.1
					C3.5,38.5,3.6,38.5,3.7,38.5L3.7,38.5z"/>
				<path class="st6" d="M1.5,39.9c0,0.2,0,0.5,0.3,0.6c0,0,0.1,0,0.1-0.1c0-0.2,0-0.4-0.2-0.6c0,0-0.1,0-0.2,0
					C1.5,39.9,1.5,39.9,1.5,39.9L1.5,39.9z"/>
				<path class="st6" d="M6.8,35.8c0.2,0.1,0.3,0.4,0.5,0.4c0,0,0.1,0,0.1-0.1c0,0,0,0,0,0c0-0.2-0.4-0.4-0.5-0.5
					C6.9,35.6,6.8,35.6,6.8,35.8C6.8,35.7,6.8,35.7,6.8,35.8L6.8,35.8z"/>
				<polygon class="st6" points="9.1,35 9.1,35 9.1,35 				"/>
				<path class="st6" d="M9.1,35.1c0.2-0.1,0.6,0,0.7-0.3c0-0.1,0-0.1-0.1-0.2c-0.2-0.1-0.6,0-0.8,0.2c-0.1,0.1-0.1,0.2-0.1,0.3
					C8.9,35.1,9,35.1,9.1,35.1L9.1,35.1z"/>
				<path class="st6" d="M5.6,28.3c0.1,0.2,0.2,0.5,0.5,0.4c0,0,0.1,0,0.1-0.1c0-0.2-0.1-0.4-0.4-0.5C5.7,28.2,5.6,28.2,5.6,28.3
					C5.6,28.3,5.6,28.3,5.6,28.3z"/>
				<polygon class="st6" points="8.4,27.1 8.4,27.1 8.4,27.1 				"/>
				<path class="st6" d="M8.2,27.3c0.2-0.1,0.6,0,0.8-0.3c0,0,0-0.1,0-0.1c-0.2-0.2-0.7,0-0.9,0.2c-0.1,0.1-0.1,0.1,0,0.2
					C8.1,27.3,8.2,27.3,8.2,27.3L8.2,27.3z"/>
				<path class="st6" d="M9.8,28.2c0.2,0.2,0.4,0.5,0.7,0.5c0.1,0,0.1-0.1,0.1-0.1c-0.1-0.2-0.4-0.4-0.5-0.6S9.7,28,9.8,28.2
					L9.8,28.2z"/>
				<path class="st6" d="M11.1,26.6c0.2-0.1,0.4-0.2,0.6-0.3c0,0,0-0.1,0-0.1c-0.2,0-0.4,0.1-0.6,0.2c-0.1,0-0.1,0.1-0.1,0.1
					C10.9,26.6,11,26.7,11.1,26.6C11.1,26.7,11.1,26.7,11.1,26.6L11.1,26.6z"/>
				<polygon class="st6" points="10.6,25.4 10.6,25.4 10.6,25.4 				"/>
				<path class="st6" d="M10.3,25c-0.1,0.2-0.2,0.4,0,0.6c0,0,0.1,0,0.1,0c0.2-0.1,0.2-0.4,0.1-0.6c0-0.1-0.1-0.1-0.2-0.1
					C10.3,24.8,10.3,24.9,10.3,25L10.3,25z"/>
				<path class="st6" d="M12.3,28.4c0,0.2,0.1,0.5,0.3,0.6c0,0,0.1,0,0.1,0c0,0,0,0,0,0c0.1-0.2-0.1-0.4-0.1-0.6
					S12.3,28.3,12.3,28.4L12.3,28.4z"/>
				<path class="st6" d="M11.6,30.6c0.2,0.2,0.5,0.6,0.8,0.3c0,0,0-0.1,0-0.1c-0.1-0.2-0.4-0.3-0.6-0.4c-0.1,0-0.2,0-0.2,0
					C11.5,30.4,11.5,30.5,11.6,30.6L11.6,30.6z"/>
				<polygon class="st6" points="11.9,32.6 11.9,32.6 11.9,32.6 				"/>
				<path class="st6" d="M11.7,33c0.2-0.1,0.6,0,0.8-0.2c0,0,0-0.1,0-0.1c-0.2-0.2-0.6-0.1-0.9,0S11.5,33,11.7,33L11.7,33z"/>
				<path class="st6" d="M14.3,30.3c-0.1,0.2-0.1,0.3-0.1,0.5c0,0.1,0.1,0.2,0.2,0.2c0.1,0,0.2-0.1,0.2-0.2c0-0.1,0-0.3,0-0.4
					c0-0.1,0-0.2-0.1-0.2S14.3,30.2,14.3,30.3L14.3,30.3L14.3,30.3z"/>
				<path class="st6" d="M12.6,24c0.2,0,0.6,0,0.8-0.3c0,0,0-0.1,0-0.1c-0.2-0.2-0.5,0-0.7,0S12.3,24,12.6,24L12.6,24z"/>
				<path class="st6" d="M14.5,22c0.2,0.2,0.3,0.4,0.6,0.4c0,0,0.1,0,0.1-0.1c0-0.2-0.3-0.4-0.5-0.5S14.4,21.9,14.5,22L14.5,22z"/>
				<path class="st6" d="M16.9,22.8c0.2-0.2,0.5-0.5,0.6-0.8c0-0.1,0-0.1-0.1-0.1c0,0-0.1,0-0.1,0c-0.3,0.1-0.5,0.5-0.7,0.8
					C16.6,22.8,16.8,22.9,16.9,22.8z"/>
				<path class="st6" d="M16.7,21c0.1-0.1,0.2-0.2,0.3-0.3c0.1,0,0.2-0.1,0.2-0.2c0,0,0-0.1,0-0.2c0,0,0,0-0.1,0
					c-0.3,0-0.5,0.3-0.7,0.5S16.7,21.1,16.7,21L16.7,21z"/>
				<path class="st6" d="M18.8,21.3c0.2,0.1,0.4,0.3,0.5,0.3c0.1,0,0.1,0,0.1-0.1l0,0c0-0.2-0.3-0.4-0.5-0.5S18.6,21.2,18.8,21.3z"
					/>
				<path class="st6" d="M18.7,23.2c0.1,0.1,0.1,0.3,0.2,0.4c0,0,0.1,0,0.1,0c0,0,0,0,0,0c0-0.2,0-0.4-0.1-0.5c0-0.1-0.1-0.1-0.2,0
					C18.7,23.1,18.7,23.1,18.7,23.2L18.7,23.2z"/>
				<path class="st6" d="M19.7,25.1c0.2,0,0.4,0.1,0.7,0.1s0.2-0.3,0-0.4c-0.2,0-0.4,0-0.7,0C19.6,24.8,19.5,25.1,19.7,25.1
					L19.7,25.1z"/>
				<path class="st6" d="M21.3,24c0.1,0,0.3,0.1,0.4,0.1c0,0,0.1-0.1,0.1-0.1c0,0,0,0-0.1-0.1c-0.1-0.1-0.2-0.1-0.4-0.2
					C21.1,23.6,21.1,23.9,21.3,24L21.3,24z"/>
				<path class="st6" d="M18.9,26.7c0.1,0.2,0.2,0.3,0.4,0.3c0.1,0,0.1-0.1,0.1-0.1c0-0.2-0.2-0.3-0.3-0.4S18.8,26.5,18.9,26.7z"/>
				<path class="st6" d="M17.6,28.8c0.2,0.1,0.5,0.1,0.8,0c0.1-0.1,0.1-0.2,0-0.2c0,0,0,0,0,0c-0.3-0.1-0.6-0.1-0.8,0.1
					C17.5,28.6,17.5,28.6,17.6,28.8C17.5,28.7,17.5,28.7,17.6,28.8L17.6,28.8z"/>
				<path class="st6" d="M22.5,25c0.3,0.1,0.6-0.1,0.7-0.3c0,0,0-0.1,0-0.1c-0.3,0-0.5,0.1-0.7,0.3C22.4,24.8,22.4,24.9,22.5,25
					C22.5,25,22.5,25,22.5,25L22.5,25z"/>
				<path class="st6" d="M19.2,19.3c0.2-0.2,0.4-0.4,0.6-0.6c0,0,0.1-0.1,0.1-0.1c0,0-0.1-0.1-0.1-0.1l0,0c-0.3,0.1-0.5,0.4-0.7,0.6
					C19,19.2,19.1,19.3,19.2,19.3L19.2,19.3z"/>
				<path class="st6" d="M21.2,17.2c0.1,0.1,0.4,0.2,0.5,0.1c0,0,0.1-0.1,0.1-0.1c0-0.3-0.3-0.3-0.5-0.3c-0.1,0-0.1,0.1-0.1,0.1
					C21.2,17.2,21.2,17.2,21.2,17.2z"/>
				<path class="st6" d="M23.1,16c0.2-0.1,0.5-0.1,0.7-0.3c0,0,0-0.1,0-0.1c0,0,0,0,0,0c-0.3-0.1-0.6,0-0.8,0.2
					c-0.1,0-0.1,0.1,0,0.2S23,16.1,23.1,16L23.1,16z"/>
				<path class="st6" d="M24.2,17c0.2,0.2,0.2,0.5,0.5,0.6c0,0,0.1,0,0.1-0.1s-0.2-0.4-0.3-0.6S24.1,16.9,24.2,17L24.2,17z"/>
				<path class="st6" d="M25.9,16.2c0.2-0.1,0.5,0,0.7-0.1c0,0,0-0.1,0-0.1c0,0,0,0,0,0c-0.2-0.2-0.5-0.2-0.8,0c0,0-0.1,0.1,0,0.2
					C25.9,16.2,25.9,16.2,25.9,16.2L25.9,16.2z"/>
				<path class="st6" d="M25.5,14.7c0.2-0.1,0.3-0.2,0.5-0.3c0.1-0.1,0.3-0.2,0.4-0.4c0,0,0-0.1,0-0.1c-0.2,0-0.2,0.1-0.4,0.1
					c-0.2,0.2-0.4,0.3-0.5,0.5c0,0,0,0.1,0,0.2C25.4,14.7,25.4,14.7,25.5,14.7z"/>
				<path class="st6" d="M26.4,17.8c0.1,0.2,0.2,0.5,0.5,0.5c0,0,0.1,0,0.1-0.1c0-0.2-0.3-0.4-0.4-0.6S26.4,17.6,26.4,17.8z"/>
				<path class="st6" d="M26.2,20.1c0.2,0.1,0.4,0.2,0.7,0.2c0,0,0.1,0,0.1-0.1c0,0,0,0,0,0c-0.1-0.2-0.4-0.2-0.6-0.3
					c-0.1,0-0.1,0-0.1,0.1C26.1,20,26.1,20,26.2,20.1z"/>
				<path class="st6" d="M26,22.3l0.3-0.1c0,0,0.1,0,0.1-0.1c0,0,0-0.1-0.1-0.1c-0.1,0-0.3,0-0.4,0C25.8,22.1,25.8,22.4,26,22.3
					L26,22.3z"/>
				<path class="st6" d="M28.7,19.1c0.2,0,0.3,0,0.5,0c0.1,0,0.4-0.2,0.3-0.3s-0.6,0-0.8,0.1C28.7,19,28.7,19,28.7,19.1
					C28.7,19.1,28.7,19.1,28.7,19.1L28.7,19.1z"/>
				<path class="st6" d="M28.3,20.4L28.3,20.4c0,0,0,0.1,0,0.2l0,0c0.1,0,0.1,0,0.2,0l0,0c0,0,0-0.1,0-0.1c0-0.1-0.3-0.2-0.3-0.1
					L28.3,20.4z"/>
				<path class="st6" d="M30.9,18.4c0.2,0,0.4-0.1,0.6-0.2c0,0,0-0.1,0-0.1c0,0,0,0,0,0c-0.2,0-0.5,0-0.7,0.1
					c-0.1,0-0.1,0.1-0.1,0.1S30.9,18.4,30.9,18.4L30.9,18.4L30.9,18.4z"/>
				<path class="st6" d="M27.7,12.3c0.1,0.2,0.3,0.4,0.5,0.3c0.1,0,0.1-0.1,0.1-0.1c0-0.2-0.3-0.3-0.4-0.4S27.7,12.1,27.7,12.3z"/>
				<path class="st6" d="M29.9,11.2c0.2-0.1,0.4-0.2,0.6-0.3c0.2-0.1,0.3-0.1,0.4-0.3c0-0.1,0-0.1-0.1-0.1c-0.2,0-0.3,0-0.5,0.1
					c-0.2,0.1-0.4,0.2-0.5,0.3C29.7,11.1,29.8,11.3,29.9,11.2L29.9,11.2z"/>
				<path class="st6" d="M31.2,12.1c0.1,0.3,0.5,0.6,0.8,0.4c0.1-0.1,0.1-0.2,0.1-0.2c0,0,0,0-0.1-0.1c-0.2-0.1-0.4-0.1-0.5-0.3
					S31.1,11.9,31.2,12.1L31.2,12.1z"/>
				<path class="st6" d="M32.4,11.1c0.2,0,0.5,0,0.6-0.2c0,0,0-0.1,0-0.1c-0.2-0.1-0.5-0.1-0.6,0.1c0,0,0,0.1-0.1,0.1
					C32.3,11.1,32.3,11.1,32.4,11.1L32.4,11.1z"/>
				<path class="st6" d="M32.2,9.7c0.2-0.1,0.6-0.2,0.6-0.5c0,0,0-0.1-0.1-0.1l0,0c-0.2,0-0.5,0.1-0.6,0.3C31.9,9.6,32,9.8,32.2,9.7
					L32.2,9.7z"/>
				<path class="st6" d="M33.5,12.7c0.1,0.1,0.3,0.3,0.4,0.3c0,0,0.1,0,0.1-0.1c0-0.2-0.2-0.3-0.4-0.4S33.4,12.6,33.5,12.7
					L33.5,12.7z"/>
				<path class="st6" d="M33.2,14.5c0.1,0.1,0.1,0.1,0.2,0.2C33.4,14.6,33.3,14.5,33.2,14.5C33.2,14.4,33,14.4,33.2,14.5L33.2,14.5z
					"/>
				<polygon class="st6" points="33.1,16.1 33.1,16.1 33.1,16.1 				"/>
				<path class="st6" d="M32.7,16.3c0.2,0.1,0.4,0.2,0.6,0.1c0,0,0-0.1,0-0.1c-0.2-0.2-0.4-0.3-0.7-0.1c-0.1,0-0.1,0.1-0.1,0.1
					C32.6,16.3,32.7,16.3,32.7,16.3L32.7,16.3z"/>
				<path class="st6" d="M35.3,14.1c0.2,0,0.6-0.1,0.8-0.3c0,0,0-0.1,0-0.1c0,0,0,0,0,0c-0.2-0.1-0.6,0.1-0.8,0.1
					S35.2,14.1,35.3,14.1L35.3,14.1z"/>
				<path class="st6" d="M36.3,12.9c0.1,0.1,0.3,0.3,0.5,0.2c0,0,0-0.1,0-0.1c-0.1-0.2-0.2-0.2-0.4-0.3S36.1,12.8,36.3,12.9
					L36.3,12.9z"/>
				<path class="st6" d="M34.5,7.3c0.2-0.1,0.4-0.2,0.5-0.4c0-0.1,0-0.1-0.1-0.1c-0.2-0.1-0.4,0.2-0.5,0.3S34.4,7.3,34.5,7.3
					L34.5,7.3z"/>
				<path class="st6" d="M36.7,5.9c0.2,0.1,0.5,0.2,0.7,0.1c0.1,0,0.1-0.1,0.1-0.2c0,0,0,0,0,0c-0.1-0.2-0.6-0.4-0.8-0.1
					C36.7,5.8,36.7,5.8,36.7,5.9C36.7,5.8,36.7,5.9,36.7,5.9L36.7,5.9z"/>
				<path class="st6" d="M38.4,4.7c0.3-0.1,0.6-0.1,0.9-0.2c0,0,0.1-0.1,0-0.1c0,0,0,0,0,0c-0.3-0.1-0.7-0.1-1,0.1
					C38.2,4.5,38.3,4.7,38.4,4.7L38.4,4.7z"/>
				<polygon class="st6" points="40.4,3.6 40.4,3.6 40.4,3.6 				"/>
				<path class="st6" d="M40,3.3c-0.1,0.2,0,0.5,0.2,0.6c0,0,0.1,0,0.1,0c0,0,0,0,0-0.1c0-0.2-0.2-0.4-0.2-0.5S40,3.3,40,3.3L40,3.3
					z"/>
				<path class="st6" d="M39.9,5.6C40,5.7,40,5.9,40.1,6c0.1,0.2,0.4,0,0.3-0.1c-0.1-0.2-0.2-0.3-0.3-0.4C40,5.3,39.8,5.5,39.9,5.6z
					"/>
				<path class="st6" d="M38.8,6.9c0.1,0.2,0.3,0.4,0.4,0.5c0,0,0.1,0,0.1,0c0,0,0,0,0-0.1c-0.1-0.2-0.2-0.4-0.3-0.5
					C38.9,6.7,38.7,6.8,38.8,6.9z"/>
				<path class="st6" d="M39.9,9.1c0.2-0.2,0.3-0.5,0.3-0.7c0,0-0.1-0.1-0.1-0.1c-0.3,0.1-0.3,0.5-0.4,0.7S39.8,9.2,39.9,9.1z"/>
				<path class="st6" d="M39.5,11.1c0.2,0,0.3,0,0.5-0.1s0-0.1,0-0.1c-0.2,0-0.3,0-0.5,0.1C39.4,10.9,39.4,11.2,39.5,11.1L39.5,11.1
					z"/>
				<path class="st6" d="M1.1,48c0.2,0.1,0.5,0,0.7-0.1c0,0,0-0.1,0-0.1c0,0,0,0,0,0c-0.2-0.1-0.5-0.1-0.7,0c-0.1,0-0.1,0-0.1,0.1
					C1.1,47.9,1.1,47.9,1.1,48L1.1,48z"/>
				<path class="st6" d="M3,46.6l0.2-0.1c0.1,0,0-0.2-0.1-0.2L3,46.4C2.8,46.5,3,46.7,3,46.6z"/>
				<path class="st6" d="M3.1,47.9c0,0.3,0.2,0.6,0.5,0.4c0,0,0-0.1,0-0.1C3.6,48,3.4,48,3.2,47.8C3.2,47.8,3.2,47.8,3.1,47.9
					C3.1,47.8,3.1,47.8,3.1,47.9L3.1,47.9z"/>
				<path class="st6" d="M2.4,49.6c0.3,0.1,0.6,0.2,1,0.1c0,0,0-0.1,0-0.1c0,0,0,0,0,0c-0.2-0.2-0.8-0.4-1-0.2
					C2.3,49.5,2.3,49.5,2.4,49.6C2.3,49.6,2.3,49.6,2.4,49.6L2.4,49.6z"/>
				<path class="st6" d="M3.8,51C4,51,4.2,51.4,4.3,51.3c0.1,0,0.1-0.1,0.1-0.2c0-0.2-0.2-0.3-0.4-0.4C3.8,50.6,3.7,50.9,3.8,51z"/>
				<polygon class="st6" points="5.2,50.2 5.2,50.2 5.2,50.2 				"/>
				<path class="st6" d="M5,50.4c0.2,0.2,0.4,0.2,0.6,0.2c0,0,0.1-0.1,0-0.1c0,0,0,0,0,0c-0.2-0.2-0.4-0.3-0.7-0.2
					C4.9,50.3,4.9,50.3,5,50.4C5,50.4,5,50.4,5,50.4L5,50.4z"/>
				<path class="st6" d="M3.5,52.7c0,0.2,0,0.8,0.3,0.8c0.1,0,0.2,0,0.2-0.2c0-0.1-0.1-0.2-0.1-0.4c0-0.1-0.1-0.3-0.1-0.4
					C3.7,52.5,3.5,52.6,3.5,52.7L3.5,52.7z"/>
				<path class="st6" d="M2.5,55.4c0.2,0,0.5,0,0.7-0.1c0.1,0,0.1,0,0.1-0.1c0-0.1,0-0.1-0.1-0.1c-0.3-0.1-0.5,0-0.8,0.1
					C2.4,55.2,2.3,55.3,2.5,55.4C2.4,55.3,2.4,55.4,2.5,55.4L2.5,55.4z"/>
				<path class="st6" d="M4.5,54.5c0.2,0,0.3,0,0.5-0.1c0,0,0-0.1,0-0.1c0,0,0,0,0,0c-0.2-0.2-0.3,0-0.5,0.1
					C4.4,54.3,4.4,54.4,4.5,54.5C4.4,54.5,4.5,54.5,4.5,54.5L4.5,54.5z"/>
				<path class="st6" d="M1.1,56.2c-0.1,0.3,0,0.5,0.2,0.7c0.1,0.1,0.3-0.1,0.2-0.2c-0.1-0.1-0.1-0.3-0.1-0.4
					C1.4,56.1,1.1,56.1,1.1,56.2L1.1,56.2z"/>
				<path class="st6" d="M6,52.3c0.3,0.1,0.5,0,0.8-0.1c0,0,0.1-0.1,0-0.1c0,0,0,0,0,0c-0.2-0.2-0.5,0-0.8,0.1c-0.1,0-0.1,0-0.1,0.1
					C5.9,52.3,5.9,52.3,6,52.3L6,52.3z"/>
				<path class="st6" d="M8.3,51c0.2-0.1,0.5-0.1,0.6-0.3c0,0,0-0.1,0-0.1c-0.2-0.1-0.5,0.1-0.7,0.2c-0.1,0-0.1,0.1-0.1,0.2
					S8.3,51,8.3,51L8.3,51z"/>
				<path class="st6" d="M10.4,49c-0.1,0.2-0.1,0.4,0,0.5c0,0,0.1,0.1,0.1,0.1l0,0c0,0,0.1,0,0.1,0c0-0.1,0.1-0.1,0-0.2
					c0-0.1,0-0.2,0-0.3C10.6,49,10.4,48.9,10.4,49L10.4,49z"/>
				<path class="st6" d="M4.6,44.8c0.2,0.1,0.6,0.2,0.8,0.1c0,0,0.1-0.1,0-0.2c0,0,0,0,0,0c-0.2-0.2-0.5-0.2-0.8-0.1
					C4.5,44.6,4.5,44.7,4.6,44.8C4.5,44.8,4.6,44.8,4.6,44.8L4.6,44.8z"/>
				<path class="st6" d="M7.4,43.6C7.6,43.4,7.9,43.3,8,43c0-0.1,0-0.1-0.1-0.1c-0.3,0-0.5,0.3-0.6,0.5S7.3,43.7,7.4,43.6z"/>
				<path class="st6" d="M9.1,44.4c0.2,0,0.5,0,0.7-0.1c0,0,0-0.1,0-0.1c0,0,0,0,0,0c-0.2-0.1-0.5,0-0.7,0c-0.1,0-0.1,0.1-0.1,0.1
					C9,44.4,9.1,44.5,9.1,44.4L9.1,44.4z"/>
				<polygon class="st6" points="10.1,42.5 10.1,42.5 10.1,42.5 				"/>
				<path class="st6" d="M9.8,42.8c0.2-0.2,0.6-0.4,0.7-0.7c0-0.1,0-0.1-0.1-0.1c0,0-0.1,0-0.1,0c-0.3,0.2-0.5,0.4-0.7,0.8
					c0,0,0,0.1,0,0.1C9.7,42.8,9.8,42.8,9.8,42.8L9.8,42.8z"/>
				<path class="st6" d="M9.5,41.4c0.3-0.1,0.5-0.2,0.7-0.4c0,0,0-0.1,0-0.1c-0.3-0.1-0.6,0.1-0.8,0.4C9.4,41.3,9.4,41.3,9.5,41.4
					C9.4,41.4,9.5,41.4,9.5,41.4L9.5,41.4z"/>
				<path class="st6" d="M11.2,40.2c0,0.2,0,0.3,0,0.5c0,0.1,0.1,0.1,0.1,0.1c0,0,0.1,0,0.1,0c0,0,0-0.1,0-0.1
					c-0.1-0.1-0.1-0.3-0.1-0.4C11.3,40.2,11.3,40.2,11.2,40.2C11.2,40.2,11.2,40.2,11.2,40.2L11.2,40.2z"/>
				<path class="st6" d="M11.2,43.9c0,0.2,0.2,0.4,0.4,0.4c0,0,0.1,0,0.1,0c0,0,0-0.1,0-0.1c-0.1-0.1-0.2-0.2-0.3-0.4
					C11.4,43.7,11.1,43.8,11.2,43.9L11.2,43.9z"/>
				<path class="st6" d="M10.7,45.8c0.1,0.1,0.3,0.3,0.5,0.3c0.1,0,0.1,0,0.1-0.1c0,0,0,0,0,0c0-0.2-0.2-0.3-0.4-0.4
					S10.6,45.7,10.7,45.8L10.7,45.8z"/>
				<path class="st6" d="M11.7,47.8c0.3,0,0.5-0.1,0.8-0.1c0,0,0.1,0,0.1-0.1c0,0,0-0.1-0.1-0.1c-0.2,0-0.5,0-0.7,0
					S11.6,47.8,11.7,47.8L11.7,47.8z"/>
				<path class="st6" d="M13,45.7c0.1,0.2,0.4,0.3,0.6,0.4c0,0,0.1,0,0.1-0.1c0,0,0,0,0,0c-0.2-0.1-0.3-0.3-0.5-0.4
					C13.1,45.4,12.9,45.6,13,45.7z"/>
				<path class="st6" d="M15,46.7l0.2-0.2c0-0.1,0-0.1,0-0.2c0,0-0.1,0-0.1,0c-0.1,0.1-0.2,0.1-0.3,0.2C14.6,46.7,14.8,46.9,15,46.7
					L15,46.7z"/>
				<path class="st6" d="M15.1,45.2c0.2,0,0.5,0,0.7-0.1c0,0,0.1-0.1,0-0.1c0,0,0,0,0,0c-0.3-0.1-0.6-0.1-0.8,0.1
					C15.1,45.1,15.1,45.2,15.1,45.2L15.1,45.2z"/>
				<path class="st6" d="M13.1,38.6c0.3,0.1,0.6,0.5,0.9,0.3c0,0,0.1-0.1,0-0.1c0,0,0,0,0,0c-0.2,0-0.3-0.1-0.5-0.1
					c-0.1-0.1-0.3-0.1-0.4-0.2C13.1,38.5,13.1,38.5,13.1,38.6C13.1,38.6,13.1,38.6,13.1,38.6L13.1,38.6z"/>
				<path class="st6" d="M14.7,37.7c0.2-0.1,0.5-0.1,0.7-0.2c0.2-0.1,0.4-0.1,0.5-0.3c0,0,0,0,0-0.1c-0.1-0.1-0.4,0-0.5,0
					c-0.2,0.1-0.5,0.2-0.7,0.4C14.7,37.5,14.6,37.6,14.7,37.7C14.7,37.6,14.7,37.6,14.7,37.7L14.7,37.7z"/>
				<path class="st6" d="M16.1,38.5c0.1,0.1,0.3,0.2,0.4,0.2c0.1,0.1,0.3,0.1,0.5,0.2c0.1,0,0.1-0.1,0-0.1c-0.2-0.2-0.6-0.4-0.9-0.4
					C16.1,38.4,16,38.5,16.1,38.5C16.1,38.5,16.1,38.5,16.1,38.5L16.1,38.5z"/>
				<path class="st6" d="M16.9,40.1c-0.1,0.2-0.1,0.4,0,0.6c0,0,0.1,0.1,0.1,0c0,0,0,0,0,0c0.1-0.2,0.1-0.4,0-0.5
					C17,40.1,17,40.1,16.9,40.1C16.9,40.1,16.8,40.1,16.9,40.1L16.9,40.1z"/>
				<path class="st6" d="M17.4,43c0.3-0.1,0.6,0,0.8-0.1c0.1,0,0.1-0.2,0-0.2c-0.3-0.1-0.7-0.1-1,0.1c0,0-0.1,0.1,0,0.1
					C17.3,43,17.3,43.1,17.4,43L17.4,43z"/>
				<path class="st6" d="M18.6,41.2c0.2,0.1,0.3,0.2,0.5,0.3c0,0,0.1,0,0.1,0c0,0,0-0.1,0-0.1c-0.1-0.2-0.3-0.3-0.5-0.4
					C18.6,40.8,18.5,41.1,18.6,41.2z"/>
				<path class="st6" d="M17.8,44.4c0.2,0,0.4-0.1,0.6-0.2c0,0,0.1-0.1,0-0.1c0,0,0,0,0,0c-0.2,0-0.4,0-0.6,0.1
					c-0.1,0-0.1,0.1-0.1,0.2C17.7,44.3,17.8,44.4,17.8,44.4L17.8,44.4z"/>
				<path class="st6" d="M18.2,39.4c0.2,0.1,0.3,0.3,0.6,0.2c0,0,0-0.1,0-0.1c-0.1-0.2-0.3-0.3-0.5-0.3C18.1,39.2,18,39.4,18.2,39.4
					L18.2,39.4z"/>
				<path class="st6" d="M17.5,36.8c0.1-0.2,0.3-0.3,0.4-0.5c0-0.1,0-0.1-0.1-0.1c0,0,0,0-0.1,0c-0.2,0.1-0.4,0.3-0.5,0.5
					c0,0.1,0,0.1,0,0.2C17.4,36.9,17.4,36.9,17.5,36.8L17.5,36.8z"/>
				<path class="st6" d="M18.5,34.5c0.1,0,0.3,0,0.4-0.1c0,0,0-0.1,0-0.1c0,0,0,0,0,0c-0.1-0.1-0.2-0.1-0.4-0.1
					c-0.1,0-0.1,0-0.1,0.1S18.5,34.5,18.5,34.5z"/>
				<path class="st6" d="M20.6,33.1c0.2,0.2,0.4,0.3,0.6,0.4c0,0,0.1,0,0.1,0c0,0,0-0.1,0-0.1c-0.2-0.1-0.3-0.3-0.5-0.4
					C20.6,32.8,20.5,33,20.6,33.1z"/>
				<path class="st6" d="M22.9,34.2c0.1-0.2,0.2-0.4,0.3-0.6c0,0,0-0.1-0.1-0.1c0,0,0,0,0,0c-0.2,0-0.4,0.3-0.5,0.5
					S22.8,34.3,22.9,34.2z"/>
				<path class="st6" d="M22.5,32.2c0.2,0,0.4,0.2,0.6,0.1c0,0,0.1,0,0.1-0.1s0-0.1-0.1-0.1C22.8,32,22.7,32,22.5,32
					C22.3,32,22.3,32.2,22.5,32.2L22.5,32.2z"/>
				<polygon class="st6" points="24.4,32.7 24.4,32.7 24.4,32.7 				"/>
				<path class="st6" d="M24.3,32.9c-0.1,0.3,0,0.5,0.2,0.7c0,0,0.1,0,0.1,0c0,0,0,0,0-0.1C24.5,33.3,24.4,33.1,24.3,32.9
					C24.4,32.9,24.3,32.8,24.3,32.9L24.3,32.9z"/>
				<path class="st6" d="M24,35.3c0.2,0.1,0.3,0.3,0.5,0.2c0,0,0,0,0-0.1c-0.1-0.2-0.3-0.2-0.4-0.3S23.8,35.2,24,35.3L24,35.3z"/>
				<path class="st6" d="M23.9,39c0.2-0.1,0.4-0.2,0.6-0.3c0-0.1,0-0.1,0-0.2c0,0,0,0,0,0c-0.2-0.1-0.5,0.1-0.7,0.2
					c-0.1,0-0.1,0.1-0.1,0.2C23.7,39,23.8,39.1,23.9,39z"/>
				<polygon class="st6" points="24.9,37.2 24.9,37.2 24.9,37.2 				"/>
				<path class="st6" d="M24.7,37.3c0.2,0,0.4,0.1,0.6,0.2s0.1-0.1,0.1-0.1c-0.2-0.1-0.4-0.2-0.7-0.2C24.7,37.1,24.6,37.2,24.7,37.3
					L24.7,37.3z"/>
				<path class="st6" d="M21.7,40.5c0.1,0.1,0.3,0.2,0.5,0.2c0,0,0.1-0.1,0-0.1c0,0,0,0,0,0c-0.1-0.1-0.3-0.2-0.4-0.2
					C21.6,40.4,21.6,40.4,21.7,40.5C21.6,40.5,21.6,40.5,21.7,40.5L21.7,40.5z"/>
				<path class="st6" d="M20.3,42.5c0.2-0.1,0.3-0.3,0.5-0.5c0-0.1,0-0.1,0-0.1c0,0-0.1,0-0.1,0c-0.2,0.1-0.4,0.3-0.5,0.5
					C20.1,42.5,20.2,42.6,20.3,42.5z"/>
				<path class="st6" d="M26,35.5c0,0.3,0.4,0.7,0.7,0.4c0,0,0-0.1,0-0.1c0,0,0,0,0,0c-0.1-0.2-0.4-0.2-0.5-0.4S26,35.5,26,35.5
					L26,35.5z"/>
				<path class="st6" d="M27.5,36.9c0.4-0.1,0.7-0.3,1-0.5c0,0,0-0.1,0-0.1c0,0,0,0-0.1,0c-0.4,0.1-0.7,0.3-1,0.5
					C27.4,36.9,27.5,37,27.5,36.9L27.5,36.9z"/>
				<path class="st6" d="M29.4,35c0.2,0,0.4-0.1,0.6-0.2c0,0,0.1-0.1,0.1-0.1c0,0,0,0-0.1-0.1c-0.2,0-0.4,0-0.6,0.1
					C29.2,34.8,29.3,35.1,29.4,35L29.4,35z"/>
				<path class="st6" d="M24.1,30.4c0,0.1,0.1,0.3,0.2,0.4c0,0,0.1,0,0.1,0c0,0,0,0,0,0c0-0.1-0.1-0.3-0.2-0.4
					C24.3,30.2,24.1,30.3,24.1,30.4L24.1,30.4z"/>
				<path class="st6" d="M25.9,29.2c0.3-0.1,0.7-0.1,0.9-0.3c0,0,0.1-0.1,0-0.2c0,0,0,0,0,0c-0.4,0-0.7,0.1-1,0.3
					C25.8,29.1,25.9,29.3,25.9,29.2L25.9,29.2z"/>
				<path class="st6" d="M28.4,27.4c0.2,0.1,0.5,0.3,0.7,0.3c0,0,0.1-0.1,0.1-0.1c0-0.2-0.4-0.4-0.6-0.5S28.2,27.3,28.4,27.4z"/>
				<polygon class="st6" points="29.5,28.9 29.5,28.9 29.5,28.9 				"/>
				<path class="st6" d="M29.4,29.2c0.2,0,0.3,0,0.5,0c0.1,0,0.3,0,0.4-0.1c0,0,0-0.1,0-0.2c0,0,0,0,0,0c-0.3-0.2-0.8-0.1-1,0.2
					C29.2,29.1,29.2,29.1,29.4,29.2C29.3,29.2,29.3,29.2,29.4,29.2L29.4,29.2z"/>
				<path class="st6" d="M30.4,27.3c0.2,0.1,0.4,0.2,0.6,0.2c0.1,0,0.1-0.1,0.1-0.1c0,0,0-0.1,0-0.1c0-0.1-0.1-0.1-0.1-0.1
					c-0.2-0.1-0.3-0.1-0.5-0.1S30.2,27.2,30.4,27.3z"/>
				<path class="st6" d="M30.7,26c0.3-0.2,0.7-0.4,0.9-0.7c0-0.1,0-0.2-0.1-0.2c0,0-0.1,0-0.1,0c-0.2,0-0.3,0.1-0.5,0.2
					c-0.2,0.1-0.4,0.2-0.5,0.4c0,0.1,0,0.2,0.1,0.2C30.6,26,30.7,26,30.7,26L30.7,26z"/>
				<path class="st6" d="M33.3,23.2c0.1,0.1,0.3,0.2,0.5,0.3c0,0,0.1,0,0.1-0.1c0,0,0,0,0,0c-0.1-0.2-0.3-0.2-0.4-0.3
					S33.2,23.1,33.3,23.2L33.3,23.2z"/>
				<path class="st6" d="M32.7,24.2l0.3,0c0.1,0,0.1-0.1,0.1-0.1c0,0,0,0,0,0c-0.1-0.1-0.2-0.2-0.3-0.2
					C32.6,23.8,32.5,24.2,32.7,24.2L32.7,24.2z"/>
				<path class="st6" d="M35,22.5c0.3-0.1,0.6,0.2,0.9,0.1c0,0,0.1-0.1,0.1-0.1c0,0,0,0,0,0c-0.2-0.3-0.8-0.4-1.1-0.2
					S34.9,22.6,35,22.5L35,22.5z"/>
				<path class="st6" d="M35.5,23.9c0.1,0.1,0.2,0.2,0.3,0.3c0,0,0.1,0,0.1,0c0,0,0,0,0-0.1c-0.1-0.2-0.2-0.3-0.3-0.4
					c0,0-0.1,0-0.1,0C35.4,23.8,35.4,23.8,35.5,23.9z"/>
				<path class="st6" d="M31.6,30c0.2,0.2,0.3,0.4,0.5,0.4c0,0,0.1,0,0.1-0.1c0,0,0,0,0,0c0-0.2-0.2-0.5-0.4-0.6
					C31.7,29.5,31.4,29.8,31.6,30L31.6,30z"/>
				<path class="st6" d="M31.2,31.5l0.7,0.3c0,0,0.1,0,0.1,0c0,0,0-0.1,0-0.1c-0.1-0.3-0.4-0.3-0.7-0.4S31,31.4,31.2,31.5z"/>
				<polygon class="st6" points="31.8,33.3 31.8,33.3 31.8,33.3 				"/>
				<path class="st6" d="M31.4,33.4c0.1,0.1,0.2,0.2,0.3,0.3c0.1,0.1,0.3,0.1,0.4,0c0,0,0-0.1,0-0.1C31.9,33.4,31.6,33.4,31.4,33.4
					C31.4,33.3,31.3,33.3,31.4,33.4L31.4,33.4z"/>
				<path class="st6" d="M33.5,32.2L34,32c0.2,0,0.3-0.2,0.4-0.3c0,0,0-0.1,0-0.1c0,0,0,0,0,0c-0.2,0-0.3,0-0.5,0.1
					c-0.2,0.1-0.4,0.2-0.5,0.3S33.4,32.3,33.5,32.2L33.5,32.2z"/>
				<polygon class="st6" points="34.3,30.3 34.3,30.3 34.3,30.3 				"/>
				<path class="st6" d="M33.6,30.5c0.2,0.1,0.4,0.1,0.6,0.1c0,0,0,0,0-0.1c0,0,0,0,0,0c-0.2-0.1-0.4-0.1-0.6-0.1
					C33.6,30.4,33.6,30.4,33.6,30.5C33.6,30.5,33.6,30.5,33.6,30.5L33.6,30.5z"/>
				<path class="st6" d="M36,30.5l0.3-0.2c0.1,0,0-0.2-0.1-0.2L36,30.3c-0.1,0-0.1,0.1-0.1,0.1C35.9,30.5,36,30.5,36,30.5
					C36,30.5,36,30.5,36,30.5z"/>
				<path class="st6" d="M37.3,24.1c-0.1,0.3,0,0.5,0.2,0.8c0,0,0.1,0.1,0.1,0c0,0,0,0,0,0c0-0.2,0-0.5-0.1-0.7
					C37.5,24.1,37.4,24.1,37.3,24.1C37.3,24.1,37.3,24.1,37.3,24.1L37.3,24.1z"/>
				<path class="st6" d="M36.7,21.1c0.2,0.2,0.4,0.7,0.7,0.7c0,0,0.1,0,0.1-0.1c0,0,0,0,0,0C37.4,21.4,37.1,21.1,36.7,21.1
					C36.7,21.1,36.7,21.1,36.7,21.1L36.7,21.1z"/>
				<path class="st6" d="M37.7,23c0.2,0,0.4-0.1,0.5-0.1c0,0,0.1-0.1,0-0.1c0,0,0,0,0,0c-0.2,0-0.4,0-0.6,0.1
					C37.6,22.8,37.6,22.9,37.7,23C37.6,22.9,37.6,23,37.7,23L37.7,23z"/>
				<path class="st6" d="M35.4,21.2c0.1,0.1,0.2,0.1,0.3,0.1c0,0,0.1,0,0.1-0.1c0,0,0,0,0,0c0-0.1-0.1-0.2-0.2-0.3
					S35.2,21.1,35.4,21.2z"/>
				<path class="st6" d="M37.9,19.2c0.2-0.1,0.6-0.1,0.8-0.3c0,0,0.1-0.1,0-0.1c0,0,0,0,0,0c-0.3,0-0.6,0.1-0.9,0.3
					C37.7,19,37.8,19.2,37.9,19.2L37.9,19.2z"/>
				<polygon class="st6" points="37.4,20.1 37.4,20 37.4,20.1 				"/>
				<path class="st6" d="M38,20.3c0.1,0.1,0.3,0.5,0.5,0.4c0,0,0.1,0,0.1-0.1c0-0.3-0.3-0.4-0.6-0.5S37.9,20.2,38,20.3L38,20.3z"/>
				<path class="st6" d="M40,19.2c0.2,0,0.5,0.1,0.7-0.1c0,0,0-0.1,0-0.1c-0.2-0.1-0.5,0-0.7,0.1S39.9,19.2,40,19.2L40,19.2z"/>
				<path class="st6" d="M39.7,17.8c0.1-0.1,0.2-0.2,0.4-0.3c0.1-0.1,0.2-0.1,0.3-0.3s0-0.1-0.1-0.1c-0.3,0-0.6,0.2-0.8,0.5
					C39.5,17.7,39.6,17.9,39.7,17.8z"/>
				<path class="st6" d="M38.7,24.4c0,0.3,0.2,0.5,0.5,0.6c0,0,0.1,0,0.1-0.1C39.2,24.6,39,24.4,38.7,24.4
					C38.8,24.3,38.8,24.3,38.7,24.4C38.7,24.3,38.7,24.3,38.7,24.4L38.7,24.4z"/>
				<path class="st6" d="M38.1,26.3c0.2,0.2,0.5,0.5,0.7,0.4c0,0,0.1,0,0.1-0.1c0-0.3-0.4-0.4-0.6-0.5c-0.1,0-0.1,0-0.1,0.1
					C38,26.2,38,26.3,38.1,26.3z"/>
				<path class="st6" d="M37.5,28.2c0.1,0.2,0.1,0.5,0.3,0.7c0,0,0.1,0.1,0.1,0c0,0,0,0,0,0c0-0.2,0-0.5-0.2-0.7
					C37.7,28,37.5,28.1,37.5,28.2L37.5,28.2z"/>
				<path class="st6" d="M40.1,26.4c0,0.2,0.1,0.5,0.1,0.7c0,0,0.1,0,0.2,0c0-0.2,0-0.5-0.1-0.7c0-0.1-0.1-0.1-0.1-0.1
					S40,26.4,40.1,26.4L40.1,26.4z"/>
				<path class="st6" d="M4.3,61.4c0.2,0,0.4,0,0.6-0.1l0.4-0.1c0.1,0,0.2,0,0.3-0.1c0,0,0-0.1,0-0.1c0,0,0,0,0,0
					c-0.2-0.1-0.4-0.1-0.5,0c-0.2,0.1-0.5,0.2-0.8,0.2C4.2,61.2,4.2,61.3,4.3,61.4C4.2,61.4,4.2,61.4,4.3,61.4L4.3,61.4L4.3,61.4z"
					/>
				<path class="st6" d="M6.1,59.4c0.3,0.1,0.5,0.3,0.8,0.3c0,0,0.1,0,0.1-0.1c0,0,0,0,0,0C6.7,59.4,6.4,59.3,6.1,59.4L6.1,59.4z"/>
				<path class="st6" d="M8.3,58.4c0.1-0.2,0.3-0.4,0.4-0.6s-0.1-0.3-0.2-0.1S8,58.1,8.3,58.4L8.3,58.4z"/>
				<path class="st6" d="M9.8,58.7c0.2,0.2,0.5,0.2,0.8,0.3c0.1,0,0.1-0.1,0.1-0.1c-0.2-0.1-0.5-0.2-0.7-0.3
					C9.8,58.5,9.7,58.6,9.8,58.7L9.8,58.7z"/>
				<path class="st6" d="M6.7,60.8c0,0.2-0.1,0.4,0,0.5c0,0,0.1,0,0.1,0c0,0,0,0,0,0c0.1-0.1,0.1-0.3,0.1-0.5
					C6.9,60.7,6.7,60.6,6.7,60.8L6.7,60.8z"/>
				<path class="st6" d="M10,56.9c0.2-0.2,0.6-0.1,0.8-0.3c0,0,0-0.1,0-0.1c0,0,0,0,0,0C10.4,56.4,10.1,56.5,10,56.9L10,56.9z"/>
				<polygon class="st6" points="12.3,56.9 12.3,56.9 12.3,56.9 				"/>
				<path class="st6" d="M12.3,56.8c0.1,0.3,0,1,0.4,1.1c0.1,0,0.1-0.1,0.1-0.2c0,0,0,0,0,0c0-0.2-0.1-0.3-0.2-0.4s-0.1-0.3-0.1-0.5
					S12.3,56.6,12.3,56.8L12.3,56.8z"/>
				<path class="st6" d="M12.5,55.2c0.1-0.1,0.2-0.2,0.4-0.3c0.1-0.1,0.2-0.1,0.2-0.2c0,0,0-0.1,0-0.1c-0.3-0.2-0.7,0.3-0.8,0.6
					S12.5,55.3,12.5,55.2L12.5,55.2z"/>
				<path class="st6" d="M12.7,59.5c0.3,0.1,0.7,0.1,1,0c0,0,0.1,0,0.1-0.1c0,0,0-0.1-0.1-0.1c-0.3-0.1-0.7-0.1-1-0.1
					C12.7,59.3,12.6,59.5,12.7,59.5L12.7,59.5z"/>
				<path class="st6" d="M13.3,61.4l0.3,0.1c0.1,0,0.2,0.1,0.3,0.1c0,0,0.1,0,0.1-0.1c0,0,0,0,0,0c0-0.3-0.4-0.3-0.6-0.4
					S13.1,61.3,13.3,61.4L13.3,61.4z"/>
				<polygon class="st6" points="15.7,60 15.7,60 15.7,60 				"/>
				<path class="st6" d="M15.5,59.8c0,0.3,0.2,0.5,0.4,0.5c0,0,0,0,0,0c0.1,0,0.1,0,0.1-0.1c0,0,0,0,0-0.1c-0.1-0.2-0.2-0.3-0.3-0.4
					C15.6,59.7,15.5,59.7,15.5,59.8C15.5,59.7,15.5,59.7,15.5,59.8z"/>
				<path class="st6" d="M15.5,53.2c0.1-0.2,0.1-0.3,0.1-0.5s0.1-0.3,0-0.4c0,0-0.1,0-0.1,0c-0.1,0.1-0.2,0.2-0.2,0.4
					c-0.1,0.2-0.1,0.4-0.1,0.5C15.2,53.4,15.4,53.3,15.5,53.2L15.5,53.2z"/>
				<path class="st6" d="M17.3,51.6c0.2,0.1,0.6,0.3,0.8,0.2c0,0,0.1-0.1,0-0.1c0,0,0,0,0,0c-0.2-0.2-0.5-0.3-0.7-0.4
					S17,51.5,17.3,51.6L17.3,51.6z"/>
				<path class="st6" d="M18.2,53.2l0.1,0.1c0,0,0.1,0.1,0.1,0c0,0,0.1-0.1,0-0.1l0,0L18.4,53C18.3,52.9,18,53,18.2,53.2L18.2,53.2z
					"/>
				<path class="st6" d="M19.1,50.5c0.3-0.1,0.5-0.4,0.7-0.5s0-0.4-0.2-0.3C19.4,49.8,19.2,50.1,19.1,50.5
					C19,50.5,19,50.5,19.1,50.5C19.1,50.5,19.1,50.5,19.1,50.5L19.1,50.5z"/>
				<path class="st6" d="M20,52c0.2,0.2,0.5,0.3,0.7,0.4c0,0,0.1,0,0.1-0.1c0,0,0,0,0,0c-0.1-0.3-0.4-0.4-0.7-0.6
					c-0.1,0-0.2,0-0.2,0.1S19.9,52,20,52L20,52z"/>
				<path class="st6" d="M20.2,54.3c0,0.2,0.1,0.3,0.2,0.4c0,0,0.1,0.1,0.1,0c0,0,0,0,0,0c0-0.1,0-0.3,0-0.4c0-0.1,0-0.1-0.1-0.2
					C20.3,54.1,20.3,54.1,20.2,54.3C20.2,54.2,20.2,54.2,20.2,54.3L20.2,54.3z"/>
				<path class="st6" d="M20,56.6l0.2,0.1c0.1,0,0.1,0,0.1-0.1c0-0.1,0-0.1-0.1-0.1l-0.2-0.1c-0.1,0-0.2,0-0.2,0.1
					C19.9,56.4,19.9,56.5,20,56.6L20,56.6z"/>
				<path class="st6" d="M18.4,58.5c0.1,0.1,0.3,0.2,0.5,0.3c0,0,0.1,0,0.1-0.1c0-0.3-0.3-0.3-0.5-0.4c-0.1,0-0.1,0-0.2,0
					C18.3,58.4,18.4,58.4,18.4,58.5C18.4,58.5,18.4,58.5,18.4,58.5z"/>
				<path class="st6" d="M24.4,61.1c0.2,0,0.5-0.1,0.7-0.2c0,0,0.1-0.1,0-0.1c0,0,0,0,0,0c-0.2,0-0.4,0.1-0.6,0.2
					S24.4,61.1,24.4,61.1L24.4,61.1z"/>
				<path class="st6" d="M26.2,59.7c0.2-0.1,0.4-0.1,0.5-0.2c0.1-0.1,0.3-0.1,0.4-0.2c0,0,0-0.1,0-0.1c0,0,0,0,0,0
					c-0.2-0.2-0.7,0.1-1,0.2c-0.1,0-0.1,0.1-0.1,0.2C26.1,59.7,26.2,59.7,26.2,59.7L26.2,59.7L26.2,59.7z"/>
				<polygon class="st6" points="26.2,61.1 26.2,61.1 26.2,61.1 				"/>
				<path class="st6" d="M26.1,60.9c-0.1,0.2-0.3,0.5-0.2,0.8c0,0,0.1,0.1,0.1,0c0,0,0,0,0,0c0.1-0.2,0.2-0.4,0.3-0.6
					S26.2,60.7,26.1,60.9L26.1,60.9z"/>
				<path class="st6" d="M23.6,61.7c0.1,0.2,0.2,0.4,0.4,0.4c0.1,0,0.1,0,0.1-0.1c0,0,0,0,0-0.1c-0.1-0.1-0.2-0.3-0.3-0.4
					C23.7,61.4,23.5,61.6,23.6,61.7z"/>
				<path class="st6" d="M22,53.9c0.2,0.2,0.5,0.2,0.8,0.2c0,0,0-0.1,0-0.1c0,0,0,0,0,0c-0.1-0.2-0.5-0.3-0.8-0.3
					C22,53.8,21.9,53.9,22,53.9C22,53.9,22,53.9,22,53.9z"/>
				<polygon class="st6" points="22.4,55.2 22.4,55.2 22.4,55.2 				"/>
				<path class="st6" d="M22.4,55.7c0.1-0.1,0.3,0,0.4-0.1c0,0,0.1-0.1,0-0.1c0,0,0,0,0,0c-0.2-0.1-0.4-0.1-0.5,0c0,0-0.1,0.1,0,0.1
					S22.4,55.7,22.4,55.7L22.4,55.7L22.4,55.7z"/>
				<path class="st6" d="M24.6,54.2l0.4-0.2c0.1-0.1,0.2-0.1,0.3-0.2c0,0,0-0.1,0-0.1c0,0,0,0,0,0c-0.3-0.1-0.5,0.3-0.8,0.4
					S24.5,54.3,24.6,54.2L24.6,54.2z"/>
				<path class="st6" d="M22,47.5c-0.2,0.2-0.3,0.4-0.3,0.6c0,0.2,0.2,0.2,0.3,0c0-0.2,0.1-0.3,0.2-0.5C22.2,47.5,22.1,47.4,22,47.5
					L22,47.5z"/>
				<path class="st6" d="M23.8,46.5c0.1,0.1,0.3,0.2,0.5,0.3c0.2,0.1,0.4,0.2,0.6,0.2c0.1,0,0.1,0,0.1-0.1c0,0,0,0,0,0
					c-0.1-0.4-0.8-0.3-1.1-0.5c0,0-0.1,0-0.1,0C23.8,46.4,23.8,46.5,23.8,46.5L23.8,46.5z"/>
				<path class="st6" d="M25.7,45.4c0.1-0.1,0.2-0.2,0.3-0.3c0.1-0.1,0.1-0.2,0-0.2c0,0,0,0-0.1,0c-0.2,0-0.4,0.2-0.5,0.3
					S25.6,45.6,25.7,45.4z"/>
				<polygon class="st6" points="26.7,46.6 26.7,46.6 26.7,46.6 				"/>
				<path class="st6" d="M26.6,46.8c0.1,0.2,0.2,0.7,0.5,0.7c0.1,0,0.1-0.1,0.1-0.1c0-0.3-0.3-0.5-0.5-0.7c0,0-0.1,0-0.2,0
					C26.6,46.8,26.6,46.8,26.6,46.8L26.6,46.8z"/>
				<path class="st6" d="M25.7,48.2l0.1,0.1c0.1,0.1,0.2-0.1,0.2-0.2L26,48c0-0.1-0.1-0.1-0.2,0C25.7,48,25.7,48.1,25.7,48.2
					C25.7,48.2,25.7,48.2,25.7,48.2L25.7,48.2z"/>
				<path class="st6" d="M26.9,49.8c0.2,0,0.5,0,0.7,0c0.1,0,0.1,0,0.2-0.1c0,0,0-0.1,0-0.1c0-0.1-0.1-0.1-0.2-0.1
					c-0.3,0-0.5,0-0.7,0.2C26.8,49.7,26.8,49.7,26.9,49.8C26.9,49.8,26.9,49.8,26.9,49.8L26.9,49.8z"/>
				<path class="st6" d="M28,48.5c0.2,0,0.3,0,0.5-0.1c0,0,0.1-0.1,0-0.1c0,0,0,0,0,0c-0.2-0.1-0.4,0-0.6,0.1S27.9,48.5,28,48.5z"/>
				<path class="st6" d="M29.7,48.7c0.1,0.2,0.1,0.5,0.4,0.6c0,0,0.1,0,0.1-0.1c0,0,0,0,0,0c0-0.3-0.1-0.5-0.4-0.6
					C29.8,48.6,29.7,48.6,29.7,48.7z"/>
				<path class="st6" d="M29.1,50.3c0.1,0.2,0.3,0.5,0.5,0.5c0,0,0.1,0,0.1-0.1c0-0.2-0.3-0.4-0.5-0.5S29,50.2,29.1,50.3z"/>
				<path class="st6" d="M27.1,51.4c0.2,0.1,0.5,0.2,0.7,0.1c0.1,0,0.1-0.1,0.1-0.1c-0.1-0.3-0.5-0.3-0.8-0.2
					C27.1,51.2,27,51.3,27.1,51.4C27.1,51.4,27.1,51.4,27.1,51.4L27.1,51.4z"/>
				<polygon class="st6" points="26.5,52.9 26.5,52.9 26.5,52.9 				"/>
				<path class="st6" d="M26.4,53.3c0.1-0.1,0.4-0.3,0.4-0.5c0,0,0-0.1-0.1-0.1c-0.2,0-0.4,0.3-0.5,0.4S26.3,53.4,26.4,53.3z"/>
				<path class="st6" d="M27.9,45c0.1-0.2,0.2-0.4,0.2-0.6c0,0,0-0.1,0-0.1c0,0,0,0-0.1,0c-0.1,0.2-0.2,0.4-0.2,0.6
					C27.8,45,27.8,45.1,27.9,45C27.9,45.1,27.9,45,27.9,45L27.9,45z"/>
				<path class="st6" d="M28.3,43.2c0.3-0.1,0.6,0,0.8-0.2c0,0,0.1-0.1,0-0.2c0,0,0,0,0,0c-0.3-0.1-0.6-0.1-0.9,0
					c-0.1,0-0.1,0.1-0.1,0.2C28.2,43.1,28.3,43.1,28.3,43.2L28.3,43.2z"/>
				<path class="st6" d="M30.2,41.5c0,0.2,0.1,0.4,0.3,0.4c0,0,0.1,0,0.1-0.1c0,0,0,0,0,0c0-0.1-0.1-0.3-0.1-0.4
					C30.4,41.3,30.1,41.4,30.2,41.5L30.2,41.5z"/>
				<path class="st6" d="M31.1,43.3c0.1-0.3,0.4-0.5,0.4-0.8c0-0.1-0.1-0.1-0.2-0.1c-0.2,0.2-0.3,0.5-0.4,0.8
					C30.9,43.3,31.1,43.4,31.1,43.3L31.1,43.3z"/>
				<path class="st6" d="M32.2,40.3c0,0.2,0.1,0.3,0.2,0.4c0,0,0,0,0.1,0c0,0,0,0,0-0.1c0-0.1-0.1-0.2-0.1-0.4S32.2,40.2,32.2,40.3
					L32.2,40.3z"/>
				<path class="st6" d="M33.3,41.8c0.2,0,0.4,0,0.5,0c0,0,0.1-0.1,0-0.1c0,0,0,0,0,0c-0.2-0.1-0.4-0.1-0.5,0
					c-0.1,0-0.1,0.1-0.1,0.1C33.2,41.8,33.2,41.8,33.3,41.8z"/>
				<path class="st6" d="M33.4,43.9c0.1-0.2,0.2-0.3,0.3-0.5c0-0.1,0-0.1,0-0.2c0,0-0.1,0-0.1,0c-0.2,0.1-0.3,0.4-0.3,0.6
					C33.2,43.9,33.2,44,33.4,43.9C33.3,44,33.3,44,33.4,43.9z"/>
				<path class="st6" d="M34.6,42.7c0.2,0.1,0.5,0.4,0.8,0.3c0,0,0-0.1,0-0.1c0-0.1-0.1-0.1-0.2-0.2c-0.1-0.1-0.3-0.1-0.4-0.2
					C34.6,42.4,34.4,42.6,34.6,42.7L34.6,42.7z"/>
				<path class="st6" d="M33.9,39.4c0,0.2-0.1,0.5,0.1,0.6c0,0,0.1,0.1,0.1,0c0,0,0,0,0,0c0.1-0.2,0.1-0.4,0.1-0.6
					c0-0.1-0.1-0.2-0.2-0.2C34,39.3,33.9,39.3,33.9,39.4z"/>
				<path class="st6" d="M34.7,38c0.2,0,0.3,0,0.5,0c0.1,0,0.3,0,0.4-0.1c0,0,0.1-0.1,0-0.2c0,0,0,0,0,0c-0.2-0.1-0.7,0-0.9,0.2
					C34.7,37.9,34.7,38,34.7,38C34.8,38,34.8,38,34.7,38L34.7,38z"/>
				<path class="st6" d="M36.6,36.5c0.1,0.2,0.2,0.3,0.4,0.3c0,0,0.1-0.1,0.1-0.1c0,0,0,0,0,0c-0.1-0.1-0.2-0.2-0.3-0.3
					C36.7,36.4,36.6,36.4,36.6,36.5C36.6,36.4,36.5,36.5,36.6,36.5L36.6,36.5z"/>
				<path class="st6" d="M37.1,37.9c0.3-0.1,0.5,0.1,0.8-0.1c0,0,0-0.1,0-0.1c0,0,0,0,0,0c-0.3-0.1-0.6-0.1-0.8,0
					c-0.1,0-0.1,0.1-0.1,0.2C37,37.9,37.1,37.9,37.1,37.9L37.1,37.9z"/>
				<path class="st6" d="M38.3,35.4c0.1,0.2,0.2,0.4,0.5,0.4c0.1,0,0.1,0,0.2-0.1c0,0,0,0,0-0.1c-0.1-0.2-0.3-0.4-0.5-0.5
					c0,0-0.1,0-0.2,0S38.2,35.3,38.3,35.4C38.3,35.4,38.3,35.4,38.3,35.4z"/>
				<path class="st6" d="M39.5,37.2c0.2,0,0.3,0.2,0.5,0.1c0.1,0,0.1-0.1,0.1-0.1c0,0,0,0,0,0c-0.1-0.2-0.3-0.3-0.5-0.4
					S39.3,37.1,39.5,37.2L39.5,37.2z"/>
				<path class="st6" d="M40,34.5c0,0.1,0.1,0.1,0.2,0.2c0,0,0.1,0,0.1-0.1l-0.1-0.1C40.1,34.5,40.1,34.4,40,34.5
					C40,34.4,40,34.5,40,34.5C40,34.5,40,34.6,40,34.5L40,34.5z"/>
				<path class="st6" d="M40.2,38.8c0.1,0.1,0.2,0.3,0.4,0.3c0,0,0.1,0,0.1-0.1c0-0.2-0.2-0.3-0.3-0.4c-0.1-0.1-0.1-0.1-0.2,0
					S40.1,38.7,40.2,38.8L40.2,38.8z"/>
				<path class="st6" d="M40,43.5c0.1,0,0.2,0,0.3-0.1c0,0,0-0.1,0-0.1c0,0,0,0,0,0c-0.1-0.1-0.3-0.1-0.4,0c0,0-0.1,0.1,0,0.1
					S39.9,43.5,40,43.5L40,43.5L40,43.5z"/>
				<path class="st6" d="M36.3,44.5c0,0.2,0,0.5,0.2,0.5c0.1,0,0.1,0,0.1-0.1c0,0,0,0,0,0c0-0.2-0.1-0.3-0.1-0.5
					S36.3,44.3,36.3,44.5L36.3,44.5z"/>
				<polygon class="st6" points="34.7,45.6 34.7,45.6 34.7,45.6 				"/>
				<path class="st6" d="M33.9,45.3c0.2,0.3,0.6,0.5,0.9,0.5c0.1,0,0.1-0.1,0.1-0.1c0,0,0,0,0,0C34.7,45.3,34.4,45.1,33.9,45.3
					C34,45.2,33.9,45.2,33.9,45.3L33.9,45.3z"/>
				<path class="st6" d="M33.3,47.6c0.2,0,0.4,0,0.6,0c0.1,0,0.1-0.1,0.1-0.1c0,0,0-0.1-0.1-0.1c-0.2-0.1-0.4-0.1-0.6-0.1
					C33.1,47.3,33.1,47.6,33.3,47.6L33.3,47.6z"/>
				<path class="st6" d="M31.8,49c0.2,0,0.4,0,0.5,0c0,0,0-0.1,0-0.1c0,0,0,0,0,0c-0.2-0.2-0.4-0.1-0.6-0.1c-0.1,0-0.1,0.1-0.1,0.2
					C31.7,49,31.8,49,31.8,49L31.8,49z"/>
				<polygon class="st6" points="38.1,44.4 38.1,44.4 38.1,44.4 				"/>
				<path class="st6" d="M38.2,44.9c0.1-0.2,0.4-0.5,0.4-0.8c0,0,0-0.1-0.1-0.1c0,0,0,0,0,0c-0.3,0.1-0.4,0.5-0.4,0.8
					C38,44.9,38.1,45,38.2,44.9L38.2,44.9z"/>
				<path class="st6" d="M28.4,57.9c0,0.3,0.3,0.5,0.5,0.5c0,0,0.1,0,0.1-0.1c0,0,0,0,0,0c-0.1-0.2-0.4-0.3-0.5-0.5
					c0,0,0-0.1-0.1-0.1C28.4,57.8,28.4,57.8,28.4,57.9L28.4,57.9L28.4,57.9z"/>
				<path class="st6" d="M29.5,59.7l0.4-0.1c0.1,0,0.1-0.2,0-0.2c-0.2,0-0.3,0-0.5,0C29.2,59.4,29.3,59.7,29.5,59.7L29.5,59.7z"/>
				<polygon class="st6" points="30.7,57.5 30.7,57.5 30.7,57.5 				"/>
				<path class="st6" d="M30.7,57.6h0.2l0,0H30.7L30.7,57.6z"/>
				<path class="st6" d="M30.6,57.7c0.2,0,0.5,0.3,0.7,0.1c0,0,0-0.1,0-0.1c-0.2-0.2-0.5-0.2-0.7-0.2c-0.1,0-0.1,0.1-0.1,0.1
					C30.5,57.6,30.5,57.7,30.6,57.7z"/>
				<polygon class="st6" points="31.7,56 31.7,56 31.7,56 				"/>
				<polygon class="st6" points="31.8,55.8 31.8,55.8 31.8,55.8 				"/>
				<path class="st6" d="M31.3,56.1c0.2,0.1,0.5,0.1,0.7-0.1c0,0,0.1-0.1,0-0.1c0,0,0,0,0,0c-0.2-0.1-0.5,0-0.7,0.1
					C31.3,56,31.2,56,31.3,56.1C31.3,56.1,31.3,56.1,31.3,56.1L31.3,56.1z"/>
				<path class="st6" d="M31.6,60c0.1,0.1,0.2,0.2,0.3,0.3s0.2,0.2,0.3,0.3c0,0,0.1,0,0.1,0c0,0,0,0,0,0c-0.1-0.3-0.4-0.5-0.6-0.6
					S31.5,59.9,31.6,60L31.6,60z"/>
				<polygon class="st6" points="32.8,61.8 32.8,61.8 32.8,61.8 				"/>
				<path class="st6" d="M32.6,62l0.3,0.1c0.1,0,0.2,0.1,0.2,0.1c0,0,0.1,0,0.1-0.1c0,0,0,0,0,0c-0.1-0.2-0.4-0.2-0.6-0.3
					S32.5,62,32.6,62L32.6,62z"/>
				<path class="st6" d="M34.3,61.3l0.5-0.1c0.2,0,0.3-0.1,0.5-0.1c0,0,0.1-0.1,0-0.1c0,0,0,0,0,0c-0.3-0.2-0.7,0.1-1,0.2
					S34.2,61.3,34.3,61.3L34.3,61.3z"/>
				<path class="st6" d="M36.9,59.5c0.2,0,0.5,0,0.7-0.1s0-0.1,0-0.1c-0.2,0-0.4,0-0.7,0.1C36.7,59.3,36.8,59.5,36.9,59.5L36.9,59.5
					z"/>
				<path class="st6" d="M37.1,56.9c0.2,0.2,0.5,0.4,0.7,0.3c0,0,0.1-0.1,0-0.2c0,0,0,0,0,0c-0.2-0.2-0.4-0.2-0.6-0.4
					S36.9,56.7,37.1,56.9L37.1,56.9z"/>
				<path class="st6" d="M39.3,57c-0.1,0.2-0.3,0.6-0.1,0.7c0,0,0.1,0,0.1,0c0.2-0.1,0.1-0.4,0.1-0.6C39.4,57,39.4,57,39.3,57
					C39.3,57,39.3,57,39.3,57L39.3,57z"/>
				<path class="st6" d="M40.2,56.8c0.1,0,0.1,0,0.2,0c0,0,0-0.1,0-0.1c0,0,0,0,0,0c0-0.1-0.1-0.1-0.2-0.1
					C40.1,56.6,40.1,56.8,40.2,56.8L40.2,56.8z"/>
				<path class="st6" d="M37.4,54.9c0,0.2,0.2,0.6,0.5,0.5c0,0,0,0,0-0.1c0-0.1-0.1-0.1-0.1-0.2c-0.1-0.1-0.2-0.2-0.2-0.3
					c0,0-0.1-0.1-0.1,0C37.4,54.8,37.4,54.9,37.4,54.9L37.4,54.9z"/>
				<path class="st6" d="M35.1,54.9c0.3,0.1,0.6,0.1,0.9,0c0,0,0.1-0.1,0-0.1c0,0,0,0,0,0C35.7,54.7,35.4,54.7,35.1,54.9
					C35.1,54.9,35,54.9,35.1,54.9C35,55,35.1,55,35.1,54.9L35.1,54.9z"/>
				<path class="st6" d="M33.5,54.7c0.1-0.1,0.2-0.3,0.3-0.4c0.1-0.1,0.2-0.2,0.2-0.3c0,0,0,0,0-0.1c-0.3-0.1-0.5,0.4-0.6,0.7
					S33.5,54.8,33.5,54.7L33.5,54.7z"/>
				<path class="st6" d="M35.6,53c0.2,0.1,0.3,0.2,0.5,0.3c0,0,0.1,0,0.1-0.1c0,0,0,0,0,0c-0.1-0.2-0.3-0.3-0.5-0.4
					S35.5,52.9,35.6,53z"/>
				<path class="st6" d="M37.6,53.1c0.1-0.2,0.3-0.3,0.3-0.5c0,0,0-0.1-0.1-0.1s-0.3,0.3-0.4,0.5S37.5,53.2,37.6,53.1L37.6,53.1z"/>
				<path class="st6" d="M37.7,51.3c0.1-0.1,0.2-0.1,0.4-0.2c-0.2-0.1-0.3,0-0.5,0.1C37.5,51.4,37.6,51.5,37.7,51.3L37.7,51.3z"/>
				<path class="st6" d="M39.2,49.6c0.1,0.1,0.4,0.3,0.6,0.2c0,0,0-0.1,0-0.1c0,0,0,0,0,0c-0.1-0.1-0.3-0.1-0.5-0.3
					S39.1,49.5,39.2,49.6L39.2,49.6z"/>
				<path class="st6" d="M39.3,51.3c0.1,0,0.1,0,0.2,0.1c0.1,0,0.2,0,0.2-0.1c0-0.1,0-0.2-0.1-0.2l0,0c-0.1-0.1-0.2-0.1-0.3-0.1
					c-0.1,0-0.2,0.1-0.2,0.2S39.3,51.3,39.3,51.3z"/>
				<path class="st6" d="M40.3,48.5c-0.1,0.1-0.1,0.3,0,0.4c0,0,0.1,0.1,0.1,0.1c0,0,0.1,0,0.1-0.1l0,0c0-0.1,0-0.2-0.1-0.3
					C40.4,48.5,40.4,48.5,40.3,48.5C40.3,48.5,40.3,48.5,40.3,48.5L40.3,48.5z"/>
			</g>
		</g>
	</g>
</g>
</svg>
