<svg xmlns="http://www.w3.org/2000/svg" xmlns:xlink="http://www.w3.org/1999/xlink" viewBox="0 0 40.93 62.29"><defs><style>.cls-1{fill:none;}.cls-2{fill:#fff;}.cls-3{fill:#222272;}.cls-4{fill:#191956;}.cls-5{fill:#b70027;}.cls-6{fill:#0c0a35;}.cls-7{fill:#ffd6a1;}.cls-8{clip-path:url(#clip-path);}.cls-9{clip-path:url(#clip-path-2);}.cls-10{clip-path:url(#clip-path-3);}.cls-11{fill:#f70032;}.cls-12{fill:#990028;}.cls-13{clip-path:url(#clip-path-4);}.cls-14{clip-path:url(#clip-path-5);}.cls-15{clip-path:url(#clip-path-6);}.cls-16{clip-path:url(#clip-path-7);}.cls-17{clip-path:url(#clip-path-8);}</style><clipPath id="clip-path"><path class="cls-1" d="M24.69,47.24a.2.2,0,0,0,.24.19,2.94,2.94,0,0,0,1.6-1,2.36,2.36,0,0,0,.83-1.72c-.24-.11-1.33,0-2.43,1.7A1.58,1.58,0,0,0,24.69,47.24Z"/></clipPath><clipPath id="clip-path-2"><path class="cls-1" d="M24.5,47.07c0,.13,0,.29-.16.34a.36.36,0,0,1-.24,0A4.31,4.31,0,0,1,21.27,45a.12.12,0,0,1,.08-.16,2.72,2.72,0,0,1,2,.18,1.39,1.39,0,0,1,.34.22A2.39,2.39,0,0,1,24.5,47.07Z"/></clipPath><clipPath id="clip-path-3"><path class="cls-1" d="M13.08,42.27a3.47,3.47,0,0,0-2.19,1.29,5,5,0,0,0-1,2.09,4.73,4.73,0,0,0,.39,2.84A5.57,5.57,0,0,0,11,49.55a18,18,0,0,0,1.42,1.6,9,9,0,0,0,4.12,2.25,3.88,3.88,0,0,0,2.71-.15,1.13,1.13,0,0,0,.43-.35,1.36,1.36,0,0,0,.17-.6,11.22,11.22,0,0,0-3.18-8.72,6.48,6.48,0,0,0-1.24-.93A3.15,3.15,0,0,0,13.08,42.27Z"/></clipPath><clipPath id="clip-path-4"><path class="cls-1" d="M16.18,15.15a.2.2,0,0,0-.24-.19,2.94,2.94,0,0,0-1.59,1,2.36,2.36,0,0,0-.83,1.72c.24.11,1.33,0,2.43-1.7A1.59,1.59,0,0,0,16.18,15.15Z"/></clipPath><clipPath id="clip-path-5"><path class="cls-1" d="M16.37,15.32c0-.13,0-.29.17-.34a.36.36,0,0,1,.24,0A4.3,4.3,0,0,1,19.6,17.4a.12.12,0,0,1-.08.16,2.72,2.72,0,0,1-2-.18,1.38,1.38,0,0,1-.34-.22A2.39,2.39,0,0,1,16.37,15.32Z"/></clipPath><clipPath id="clip-path-6"><path class="cls-1" d="M18.6,23.86A3.84,3.84,0,0,1,17,23.78a2.59,2.59,0,0,1-1.53-1.08A2.55,2.55,0,0,1,14.83,21a4.8,4.8,0,0,1,.47-2.73,2.66,2.66,0,0,0,2.29,1.66,5.42,5.42,0,0,0,2.49-.64c.67-.34.82-.5,1.42-.84a6.09,6.09,0,0,1-.77,4,3,3,0,0,1-.85.89A2.52,2.52,0,0,1,18.6,23.86Z"/></clipPath><clipPath id="clip-path-7"><path class="cls-1" d="M22.28,38.51a3.82,3.82,0,0,1,1.62.08,2.58,2.58,0,0,1,1.53,1.08A2.55,2.55,0,0,1,26,41.38a4.8,4.8,0,0,1-.47,2.73,2.66,2.66,0,0,0-2.29-1.66,5.41,5.41,0,0,0-2.49.64c-.67.34-.82.5-1.42.84a6.1,6.1,0,0,1,.77-4A3,3,0,0,1,21,39,2.52,2.52,0,0,1,22.28,38.51Z"/></clipPath><clipPath id="clip-path-8"><path class="cls-1" d="M27.8,20.12A3.46,3.46,0,0,0,30,18.82a5,5,0,0,0,1-2.09,4.74,4.74,0,0,0-.39-2.84,5.47,5.47,0,0,0-.74-1.06,17.76,17.76,0,0,0-1.42-1.6A9,9,0,0,0,24.3,9a3.88,3.88,0,0,0-2.71.15,1.14,1.14,0,0,0-.43.36,1.35,1.35,0,0,0-.17.6,11.22,11.22,0,0,0,3.18,8.72,6.48,6.48,0,0,0,1.24.93A3.15,3.15,0,0,0,27.8,20.12Z"/></clipPath></defs><title>Fichier 12</title><g id="Calque_2" data-name="Calque 2"><g id="Layer_1" data-name="Layer 1"><rect class="cls-2" x="0.09" y="0.09" width="40.74" height="62.1" rx="3.45" ry="3.45"/><path class="cls-2" d="M37.39,62.29H3.54A3.55,3.55,0,0,1,0,58.74V3.54A3.55,3.55,0,0,1,3.54,0H37.39a3.55,3.55,0,0,1,3.54,3.54v55.2A3.55,3.55,0,0,1,37.39,62.29ZM3.54.19A3.36,3.36,0,0,0,.19,3.54v55.2A3.36,3.36,0,0,0,3.54,62.1H37.39a3.36,3.36,0,0,0,3.36-3.36V3.54A3.36,3.36,0,0,0,37.39.19Z"/><path class="cls-3" d="M6.62,31.13a.77.77,0,0,0-.48.16.81.81,0,0,0-.19.4,11.17,11.17,0,0,0,.48,6.89.64.64,0,0,0,.12.22.59.59,0,0,0,.28.13,5.26,5.26,0,0,0,3.09-.5l1.4-.53-1-4.9a2,2,0,0,0-.21-.64,1.68,1.68,0,0,0-.58-.53A4.76,4.76,0,0,0,6.62,31.13Z"/><path class="cls-3" d="M34.13,30.85a.76.76,0,0,0,.48-.16.8.8,0,0,0,.19-.4,11.17,11.17,0,0,0-.48-6.89.63.63,0,0,0-.12-.22.59.59,0,0,0-.28-.13,5.26,5.26,0,0,0-3.09.5l-1.4.53,1,4.9a2,2,0,0,0,.21.64,1.68,1.68,0,0,0,.58.53A4.75,4.75,0,0,0,34.13,30.85Z"/><path class="cls-4" d="M28.34,38.46a22.59,22.59,0,0,1-5.64.88,32,32,0,0,1-5.92-.1c-.88-.11-1.75-.29-2.64-.32-1.47-.06-2,.27-3.43,0-.23-.05-1-.31-1.05-.55,0-1-.17-3.45-.35-2.1-.22,1.65,0-1.48-.1-3.15A43.22,43.22,0,0,1,9,27.58c.16-1.83-1.49-3.49.11-4.74a11.29,11.29,0,0,1,5.5-2.06c.75-.06,1,.43,1.78.34,1-.11,1.94-.3,2.91-.43a24,24,0,0,1,5.89-.07c1.32.15,2.34-.37,4.4,1.11a5.91,5.91,0,0,1,2.44,3c.51,1.82-.37,4.11-.21,6A11.14,11.14,0,0,1,31,36.21a3.85,3.85,0,0,1-.82,1.26A4.87,4.87,0,0,1,28.34,38.46Z"/><path class="cls-4" d="M12.53,23.93A22.59,22.59,0,0,1,18.18,23a32,32,0,0,1,5.92.1c.88.11,1.75.29,2.64.32a18.62,18.62,0,0,1,3.88.21c.23.05.33.48.45.65a1.42,1.42,0,0,1,.2.65,42.07,42.07,0,0,0,.4,4.34,43.42,43.42,0,0,1,.22,5.49c-.16,1.83,1.49,3.49-.11,4.74a11.28,11.28,0,0,1-5.5,2.06c-.75.06-1-.43-1.78-.35-1,.11-1.94.3-2.91.43a23.94,23.94,0,0,1-5.89.07c-1.31-.15-2.34.37-4.4-1.11a5.91,5.91,0,0,1-2.44-3c-.51-1.82.37-4.11.21-6a11.13,11.13,0,0,1,.78-5.52,3.84,3.84,0,0,1,.82-1.26A4.88,4.88,0,0,1,12.53,23.93Z"/><path class="cls-5" d="M32.3,25a.83.83,0,0,1-.35.73c-1.84,1.66-3.19,2.78-4.54,4-1.63,1.42-5.31,4.37-5.67,4.79a32.55,32.55,0,0,1-6.62,5.91c-.76.51-1.2,1.1-2.12,1.05a8.19,8.19,0,0,1-1.65-.35,5,5,0,0,1-2.9-3.65.89.89,0,0,1,0-.57,1.06,1.06,0,0,1,.36-.36c5-3.65,9.78-6.71,14.3-11,1.54-1.45,2.76-3.2,4.25-4.71.53-.53,1.8-.17,2.83.62A5.46,5.46,0,0,1,32.3,25Z"/><path class="cls-6" d="M21.22,60.06a2.68,2.68,0,0,1-.72,1,.32.32,0,0,1-.18.08.35.35,0,0,1-.23-.12,7,7,0,0,1-1.69-2.33c0-.05,0-.12,0-.17a.16.16,0,0,1,.1,0,8.94,8.94,0,0,1,3.34,0,.2.2,0,0,1,.1,0c.06.06,0,.16,0,.23Z"/><path class="cls-6" d="M23.58,44.17a5.11,5.11,0,0,0,.61-.45c.64-.57,1.23-1.15,2.81-2.61.5-.46,1-.58.86-.92s-.84-1.77-3.93-5c-.94-1-2.25-2.44-3.37-2.52-.91-.06-1.9,1.52-4,3.8a19.57,19.57,0,0,0-3.4,4,1,1,0,0,0-.13.37c0,.36.29.63.57.85a10,10,0,0,1,2.78,3.17A7.22,7.22,0,0,1,17,46.76a.44.44,0,0,0,.11.25.43.43,0,0,0,.41,0A24.34,24.34,0,0,0,23.58,44.17Z"/><path class="cls-7" d="M25.51,53c.12-.13.07-.34,0-.51A8.18,8.18,0,0,1,25.17,50a1.45,1.45,0,0,1,.13-.68c.17-.31.69-.6.94-.84s.37-.21.41-.49-.16-.17-.19-.21a.2.2,0,0,0-.13-.07l-.95-.22c-.12-.38.13-.77.22-1.15a5.91,5.91,0,0,0,.23-2,2.15,2.15,0,0,0-1-1.67,2.53,2.53,0,0,0-1.23-.28,5.9,5.9,0,0,0-5.36,3.39,8.53,8.53,0,0,0-.48,1.44,9,9,0,0,0-.33,2.6,4.6,4.6,0,0,0,.78,2.47A4.48,4.48,0,0,0,21.17,54a7.56,7.56,0,0,0,3.43-.32,1.88,1.88,0,0,0,.72-.35.71.71,0,0,0,.24-.72Z"/><path class="cls-2" d="M18.83,50.06a4.74,4.74,0,0,1,4.24-.2c.07,0,.16.1.13.18a2.61,2.61,0,0,1-2.11.77A4.64,4.64,0,0,1,18.83,50.06Z"/><path class="cls-6" d="M21.24,50.54c.27-.08.31-.49.12-.7a.71.71,0,0,0-.77-.14.48.48,0,0,0-.22.15.41.41,0,0,0,.08.52C20.59,50.51,20.72,50.69,21.24,50.54Z"/><path class="cls-3" d="M24.69,47.24a.2.2,0,0,0,.24.19,2.94,2.94,0,0,0,1.6-1,2.36,2.36,0,0,0,.83-1.72c-.24-.11-1.33,0-2.43,1.7A1.58,1.58,0,0,0,24.69,47.24Z"/><path class="cls-3" d="M24.5,47.07c0,.13,0,.29-.16.34a.36.36,0,0,1-.24,0A4.31,4.31,0,0,1,21.27,45a.12.12,0,0,1,.08-.16,2.72,2.72,0,0,1,2,.18,1.39,1.39,0,0,1,.34.22A2.39,2.39,0,0,1,24.5,47.07Z"/><path class="cls-3" d="M22.27,38.53a3.84,3.84,0,0,1,1.62.07,2.59,2.59,0,0,1,1.53,1.08A2.55,2.55,0,0,1,26,41.4a4.81,4.81,0,0,1-.47,2.73,2.66,2.66,0,0,0-2.29-1.66,5.43,5.43,0,0,0-2.49.64c-.67.34-.82.5-1.42.84a6.09,6.09,0,0,1,.77-4A3,3,0,0,1,21,39,2.51,2.51,0,0,1,22.27,38.53Z"/><path class="cls-3" d="M13.08,42.27a3.47,3.47,0,0,0-2.19,1.29,5,5,0,0,0-1,2.09,4.73,4.73,0,0,0,.39,2.84A5.57,5.57,0,0,0,11,49.55a18,18,0,0,0,1.42,1.6,9,9,0,0,0,4.12,2.25,3.88,3.88,0,0,0,2.71-.15,1.13,1.13,0,0,0,.43-.35,1.36,1.36,0,0,0,.17-.6,11.22,11.22,0,0,0-3.18-8.72,6.48,6.48,0,0,0-1.24-.93A3.15,3.15,0,0,0,13.08,42.27Z"/><path class="cls-3" d="M16.37,59.11a1.49,1.49,0,0,1-.51-.46,13.76,13.76,0,0,1-2.41-4.56,13,13,0,0,1,2.81,0c1.51.06,3,0,4.54,0l5.4-.12c.23,0,.5,0,.63.2s-.05.59-.26.82a21.72,21.72,0,0,0-2.37,3.62,1,1,0,0,1-.32.39,1.32,1.32,0,0,1-.34.09c-2.68.07-4.33.13-6.51.15A1.55,1.55,0,0,1,16.37,59.11Z"/><g class="cls-8"><path class="cls-5" d="M24.7,47.55a9.22,9.22,0,0,0,1.73-1.26,6.75,6.75,0,0,0,1.21-2,.07.07,0,0,0-.11-.09,7.94,7.94,0,0,0-1.07,1.54,16.52,16.52,0,0,1-1.8,1.7s0,.09,0,.06Z"/><path class="cls-5" d="M24.62,47.19c.66-.66,2-1.36,2-2.46a.12.12,0,0,0-.2-.08c-.33.36-.51.85-.84,1.22a6.13,6.13,0,0,0-1,1.22.08.08,0,0,0,.13.1Z"/></g><g class="cls-9"><path class="cls-5" d="M24.51,47.27a11.1,11.1,0,0,0-1.75-1.46c-.35-.32-.69-.66-1-1s-.52-.78-.84-1.12a.09.09,0,0,0-.15.06,3.57,3.57,0,0,0,1.19,1.88,10.44,10.44,0,0,0,1.11.94c.41.32.95.48,1.33.81.07.06.19,0,.13-.1Z"/><path class="cls-5" d="M24.93,46.7a6.94,6.94,0,0,1-1.39-1.25,10.35,10.35,0,0,1-1.45-1.51A.06.06,0,0,0,22,44a2.88,2.88,0,0,0,1.11,1.65,6.2,6.2,0,0,0,1.75,1.24c.11,0,.17-.13.08-.18Z"/></g><g class="cls-10"><path class="cls-5" d="M20.85,52.19c-1.35.55-1.3-2.15-1.23-2.74a3.8,3.8,0,0,0-.21-2.17A7.11,7.11,0,0,0,18,45.66c-.92-1-.49-2.3-.24-3.47a.14.14,0,0,0-.23-.13,3.25,3.25,0,0,0-.46,2.78C17.29,46,18.47,46.6,19,47.51c.73,1.2-.26,2.8.35,4.11.33.69.8,1.25,1.55.76.09-.06,0-.22-.08-.18Z"/><path class="cls-5" d="M20.25,53.43C18.48,53,18.52,51,18.73,49.52a1.88,1.88,0,0,0-1-2.14,4.13,4.13,0,0,1-1.44-1.22c-.55-.85-.16-1.95,0-2.83a2.57,2.57,0,0,0-1.12-2.67c-.1-.07-.2.06-.16.16a3.87,3.87,0,0,1,.53,3.07,4.46,4.46,0,0,0-.08,1.8,3.35,3.35,0,0,0,1.93,2.18c1.32.78.5,2.73.82,4,.23.94.89,1.83,1.93,1.7.09,0,.12-.13,0-.16Z"/><path class="cls-5" d="M18.45,53.87c-1.52-.5-1.14-2.71-1.09-3.9s-.74-1.62-1.54-2.35c-2.17-2,1-5.43-1.74-7a.23.23,0,0,0-.31.31c.53,1,1.09,1.5.79,2.74a6.17,6.17,0,0,0-.22,2.21,3.66,3.66,0,0,0,1.51,2.59,2.08,2.08,0,0,1,.89,2.11,7.2,7.2,0,0,0,.11,1.72c.17.9.59,1.67,1.55,1.79.13,0,.14-.18,0-.21Z"/><path class="cls-5" d="M16.49,53.92c-1.35-1.08-.23-2.73-.53-4.11-.12-.54-.76-1-1.15-1.34a4.14,4.14,0,0,1-1.51-2.05c-.5-1.54.2-2.8.39-4.29a1.88,1.88,0,0,0-1.54-2.06.23.23,0,0,0-.23.39c.66.66,1.13,1.07.94,2.07-.11.59-.37,1.16-.45,1.76a5.28,5.28,0,0,0,.91,3.81,9.93,9.93,0,0,0,1.5,1.33c.78.69.4,1.74.43,2.64s.25,1.89,1.14,2c.08,0,.17-.09.09-.15Z"/><path class="cls-5" d="M14.37,53.77a4.84,4.84,0,0,0,0-2.93c-.49-1-1.49-1.55-2.07-2.49-.8-1.29-.56-3.24-.17-4.61a2.25,2.25,0,0,0-.25-2.22.16.16,0,0,0-.28.11,13.56,13.56,0,0,1-.43,3.28,7.56,7.56,0,0,0,.17,2.94A4.3,4.3,0,0,0,12.82,50,3,3,0,0,1,14,52.16c0,.55,0,1.07.13,1.62a.11.11,0,0,0,.21,0Z"/><path class="cls-5" d="M13.28,53.66c.34-2.05-1.42-3.09-2.45-4.6s0-3.17-.14-4.79a3.52,3.52,0,0,0-1.34-2.56.24.24,0,0,0-.36.21,3,3,0,0,0,.43,1.21,3.78,3.78,0,0,1,.3,2.61A4.94,4.94,0,0,0,9.83,49c.89,1.73,2.79,2.64,3.18,4.65a.14.14,0,0,0,.26,0Z"/></g><path class="cls-4" d="M25.49,52.35a1,1,0,0,0-.47-.09c-3.31.16-6.36.21-9.68.17a1.55,1.55,0,0,0-1.2.53c-.32.34-.83.94-.74,1.35s.66.37,1.46.43c1.13.08,3,0,4.13,0,2.91,0,4.45,0,7.59-.16.38,0,.46-.29.46-.67a.55.55,0,0,0-.18-.4l-1.11-1a1,1,0,0,0-.26-.17Z"/><path class="cls-11" d="M27.37,40h0a.2.2,0,0,0-.25.25v0a.21.21,0,1,0,.26-.26Z"/><path class="cls-11" d="M26.76,39.17a.26.26,0,0,0,0,.52.26.26,0,0,0,0-.52Z"/><path class="cls-11" d="M26.1,38.41a.24.24,0,0,0,0,.48.24.24,0,0,0,0-.48Z"/><path class="cls-11" d="M25.6,37.71l0,0c-.12-.28-.57,0-.41.24l0,0a.24.24,0,0,0,.33.09.24.24,0,0,0,.08-.33Z"/><path class="cls-11" d="M24.93,37.15a.28.28,0,0,0-.12-.33.23.23,0,0,0-.23,0,.24.24,0,0,0-.11.26V37a.44.44,0,0,0,0,.18.24.24,0,0,0,.23.18.25.25,0,0,0,.23-.18Z"/><path class="cls-11" d="M24,36.07l0,0a.26.26,0,0,0-.37,0l0,0a.23.23,0,0,0,0,.33l0,0a.26.26,0,0,0,.37,0l0,0a.23.23,0,0,0,0-.33Z"/><path class="cls-11" d="M23,35.64h0a.21.21,0,0,0,.24-.1h0a.21.21,0,0,0-.29-.29.27.27,0,0,0-.1.1.2.2,0,0,0,.12.29Z"/><path class="cls-11" d="M22.5,34.64l-.09-.07c-.24-.13-.46.26-.21.37h0a.21.21,0,0,0,.3-.3Z"/><path class="cls-11" d="M21.46,33.84a.2.2,0,0,0,0,.4.2.2,0,0,0,0-.4Z"/><path class="cls-11" d="M19.56,34.07V34a.21.21,0,0,0,.26.26.28.28,0,0,0,.16-.12.23.23,0,0,0-.14-.34c-.15,0-.36.12-.29.29Z"/><path class="cls-11" d="M19,34.43a.24.24,0,0,0,0,.48.24.24,0,0,0,0-.48Z"/><path class="cls-11" d="M18.34,35.09a.25.25,0,0,0,0,.49.25.25,0,0,0,0-.49Z"/><path class="cls-11" d="M17.71,35.87a.21.21,0,0,0,0,.41.21.21,0,0,0,0-.41Z"/><path class="cls-11" d="M16.77,36.86A.22.22,0,0,0,17,37a.2.2,0,1,0-.05-.4c-.09,0-.19.14-.15.24Z"/><path class="cls-11" d="M16.31,37.3a.25.25,0,0,0,0,.51.25.25,0,0,0,0-.51Z"/><path class="cls-11" d="M15.53,38.07a.27.27,0,0,0,0,.53.27.27,0,0,0,0-.53Z"/><path class="cls-11" d="M15,38.89a.19.19,0,0,0,0,.38.19.19,0,0,0,0-.37Z"/><path class="cls-11" d="M14.44,39.54a.17.17,0,0,0,0,.33.17.17,0,0,0,0-.33Z"/><path class="cls-11" d="M13.85,40.33a.24.24,0,0,0,0,.47.24.24,0,0,0,0-.47Z"/><path class="cls-6" d="M22,51.41a3.33,3.33,0,0,1-1,0c-.29,0-.94.06-.67.52s.78.28,1.11.23.75-.2.8-.58c0-.13-.13-.21-.24-.19Z"/><path class="cls-11" d="M21.09,48.69c-.19.19.11-.13.14-.16a.84.84,0,0,0,.1-.27,1.64,1.64,0,0,0,0-.52,1.16,1.16,0,0,0-.69-1.08.7.7,0,0,0-.79,1l.14.18c-.15-.19,0-.07,0,0s-.06-.16,0,0L20,48c.05.13.08.27.15.4l.07.12s.33.37.14.16a.5.5,0,0,0,.7,0Z"/><path class="cls-11" d="M23.43,58.48a8,8,0,0,0,.86-1.31,2.27,2.27,0,0,0,.43-1.58.51.51,0,0,0-.92-.12,9,9,0,0,0-.48,1.47,2.88,2.88,0,0,0-.21,1.45.19.19,0,0,0,.32.08Z"/><path class="cls-11" d="M21.92,58.54a4.13,4.13,0,0,0,.65-1.76c.13-.53.27-1.14-.22-1.51a.59.59,0,0,0-.81.21,3.47,3.47,0,0,0-.12,1.24,5.18,5.18,0,0,0,.14,1.73.21.21,0,0,0,.36.09Z"/><path class="cls-11" d="M20.25,58.54a7.8,7.8,0,0,0,.44-2.95.59.59,0,0,0-1.19,0,7.25,7.25,0,0,0,.36,2.95.23.23,0,0,0,.39,0Z"/><path class="cls-11" d="M18.86,58.55a3.05,3.05,0,0,0,0-1.32c-.07-.52-.15-1.05-.25-1.57-.12-.68-1.17-.5-1.17.16a4.36,4.36,0,0,0,1.14,2.81.18.18,0,0,0,.3-.08Z"/><path class="cls-11" d="M17.13,58.39c.2-.57-.29-1.2-.48-1.72s-.21-1.18-.82-1.28a.57.57,0,0,0-.69.69,3.65,3.65,0,0,0,.54,1.09,3.86,3.86,0,0,0,1.21,1.31.17.17,0,0,0,.24-.1Z"/><path class="cls-6" d="M24.23,55.57a.24.24,0,0,0,0,.49.24.24,0,0,0,0-.49Z"/><path class="cls-6" d="M22.08,55.44a.25.25,0,0,0,0,.5.25.25,0,0,0,0-.5Z"/><path class="cls-6" d="M20.13,55.34a.28.28,0,0,0,0,.56.28.28,0,0,0,0-.56Z"/><path class="cls-6" d="M18.1,55.55a.26.26,0,0,0,0,.52.26.26,0,0,0,0-.52Z"/><path class="cls-6" d="M15.84,55.73a.24.24,0,0,0,0,.47.24.24,0,0,0,0-.47Z"/><path class="cls-6" d="M24.84,52.89a1.87,1.87,0,0,0,.36,1.06.41.41,0,1,0,.64-.49c-.22-.23-.42-.48-.65-.71a.21.21,0,0,0-.35.14Z"/><path class="cls-6" d="M23.85,53.07a1.46,1.46,0,0,1,0,.41,1.83,1.83,0,0,0,.07.55.38.38,0,0,0,.36.27.37.37,0,0,0,.37-.37,4.36,4.36,0,0,0-.13-.6,1.23,1.23,0,0,0-.3-.49.24.24,0,0,0-.39.23Z"/><path class="cls-6" d="M22.6,52.93c0-.08,0,.1,0,.13a1.8,1.8,0,0,0,0,.33c0,.18,0,.34-.07.52a.39.39,0,1,0,.75.21,1.69,1.69,0,0,0,0-.76.9.9,0,0,0-.13-.37L23,52.85s-.16-.12-.09-.05a.19.19,0,0,0-.31.13Z"/><path class="cls-6" d="M21.33,52.81a.72.72,0,0,0-.37.51,1.64,1.64,0,0,0,0,.77.4.4,0,0,0,.76,0,2,2,0,0,0,0-.7c0-.09,0-.18,0-.26l0-.11s-.07-.19,0-.1a.18.18,0,0,0-.26-.11Z"/><path class="cls-6" d="M19.77,52.85a.77.77,0,0,0-.32.46,2.06,2.06,0,0,0-.17.69c0,.25.31.49.55.32a1,1,0,0,0,.35-.78.75.75,0,0,0-.2-.66.18.18,0,0,0-.21,0Z"/><path class="cls-6" d="M18.48,52.79c-.11.16-.24.3-.34.48s-.2.35-.28.53a.38.38,0,0,0,0,.38l0,0a.32.32,0,0,0,.34.14c.3,0,.39-.42.48-.66a2.82,2.82,0,0,0,.15-.8c0-.21-.28-.26-.38-.1Z"/><path class="cls-6" d="M16.91,52.83s-.12.11,0,0a.52.52,0,0,0-.14.13c-.06.09-.11.19-.17.28a1.75,1.75,0,0,0-.32.68.38.38,0,0,0,.47.36,1,1,0,0,0,.52-.69.86.86,0,0,0,0-.76.2.2,0,0,0-.31,0Z"/><path class="cls-6" d="M15.31,52.82l0,0,.18,0a.76.76,0,0,0-.62.31c-.22.22-.5.4-.52.73a.44.44,0,0,0,.32.42c.38.16.74-.26.89-.55s.26-.64,0-.85l.07.16v0a.21.21,0,0,0-.32-.18Z"/><path class="cls-6" d="M23.92,56.47a.28.28,0,0,0,0,.55.28.28,0,0,0,0-.55Z"/><path class="cls-6" d="M23.64,57.29a.2.2,0,0,0,0,.4.2.2,0,0,0,0-.4Z"/><path class="cls-6" d="M22.08,56.37a.26.26,0,0,0,0,.53.26.26,0,0,0,0-.53Z"/><path class="cls-6" d="M22,57.2a.22.22,0,0,0,0,.43.22.22,0,0,0,0-.43Z"/><path class="cls-6" d="M20.13,56.38a.21.21,0,0,0,0,.43.21.21,0,0,0,0-.43Z"/><path class="cls-6" d="M20.21,57.18a.23.23,0,0,0,0,.46.23.23,0,0,0,0-.46Z"/><path class="cls-6" d="M18.09,56.84l0,0a.22.22,0,0,0,.31,0l0,0a.25.25,0,1,0-.35,0Z"/><path class="cls-6" d="M18.53,57.27a.18.18,0,0,0,0,.36.18.18,0,0,0,0-.36Z"/><path class="cls-6" d="M16.08,56.87c.27,0,.29-.4,0-.4s-.26.41,0,.4Z"/><path class="cls-6" d="M16.43,57.12a.25.25,0,0,0,0,.5.25.25,0,0,0,0-.5Z"/><path class="cls-12" d="M20.82,36.72c0-.32,0-.64,0-1s0-.64-.29-.76a.18.18,0,0,0-.23.06c-.16.22,0,.53,0,.77s.09.63.16.94a.18.18,0,0,0,.35,0Z"/><path class="cls-12" d="M22,37.46c.11-.18.19-.36.29-.55a2.17,2.17,0,0,0,.25-.57c.05-.28-.34-.49-.48-.2s-.16.39-.25.59a1.5,1.5,0,0,0-.16.64.19.19,0,0,0,.35.1Z"/><path class="cls-12" d="M23.21,38a1,1,0,0,0,.53-.51c.06-.18-.14-.29-.29-.22a2.93,2.93,0,0,0-.45.37c-.22.16,0,.51.21.37Z"/><path class="cls-12" d="M19.46,37.36a1.51,1.51,0,0,0-.16-.54.85.85,0,0,0-.48-.57c-.21-.08-.39.15-.34.34a1.83,1.83,0,0,0,.31.55c.12.18.28.38.51.38a.16.16,0,0,0,.16-.16Z"/><path class="cls-12" d="M18.48,38.25a1.51,1.51,0,0,0-.41-.51,2.2,2.2,0,0,0-.26-.19.65.65,0,0,0-.39-.07.25.25,0,0,0-.18.42,1.21,1.21,0,0,0,.24.21l.26.15a2.62,2.62,0,0,0,.5.29c.19.07.3-.16.24-.31Z"/><path class="cls-12" d="M17.42,39.12a3.42,3.42,0,0,0-.4-.3l-.19-.14a.76.76,0,0,0-.29-.1.22.22,0,0,0-.21.36,1.08,1.08,0,0,0,.22.22,1.69,1.69,0,0,0,.26.14.73.73,0,0,0,.54.08.16.16,0,0,0,.07-.27Z"/><path class="cls-12" d="M16.56,40.15a1.5,1.5,0,0,0-.38-.39.94.94,0,0,0-.53-.24.27.27,0,0,0-.19.45,1.48,1.48,0,0,0,.43.27,1.05,1.05,0,0,0,.52.14.16.16,0,0,0,.14-.24Z"/><path class="cls-12" d="M15.87,41a1.36,1.36,0,0,0-.86-.52.22.22,0,0,0-.16.38,1.4,1.4,0,0,0,.93.36.13.13,0,0,0,.09-.21Z"/><path class="cls-3" d="M8.68,30.23c.36,0,.41-.37.05-.4s-.41.37-.05.4Z"/><path class="cls-3" d="M9.55,30.29a.38.38,0,0,0,.3.17c.22,0,.42-.19.23-.32L10,30.09c-.07,0-.09,0-.06,0-.21-.13-.52.06-.4.23Z"/><path class="cls-3" d="M10.76,30.53c.33,0,.37-.34,0-.37s-.37.34,0,.37Z"/><path class="cls-3" d="M31.1,30.64c.34-.07.22-.45-.11-.37s-.22.45.11.37Z"/><path class="cls-3" d="M32.11,30h0c-.19,0-.38.09-.33.24s.28.16.43.07h0a.16.16,0,0,0-.09-.3Z"/><path class="cls-3" d="M16.94,29c.17,0,.17-.18,0-.18s-.17.18,0,.18Z"/><path class="cls-3" d="M31.21,29.2c.25,0,.25-.28,0-.28s-.25.28,0,.28Z"/><path class="cls-3" d="M17.58,26.45a1.37,1.37,0,0,0,.77,0,.08.08,0,0,0,0-.14,1.37,1.37,0,0,0-.77,0,.09.09,0,0,0,0,.18Z"/><path class="cls-3" d="M14.67,27.66a2.18,2.18,0,0,0,.34.11l.18,0,.15,0s.08,0,.06-.06-.43-.18-.6-.26-.26.09-.13.16Z"/><path class="cls-3" d="M16.38,29.6c0,.15,0,.38.2.46s.23,0,.25-.07-.11-.31-.23-.43-.24-.05-.23,0Z"/><path class="cls-3" d="M22.81,26.65l.29.22a.52.52,0,0,0,.31.16.06.06,0,0,0,.07-.07c0-.09-.13-.16-.21-.22L23,26.52c-.11-.07-.27.06-.16.13Z"/><path class="cls-3" d="M21.9,28c.07.07.24.31.4.24s-.1-.28-.16-.34-.34,0-.24.1Z"/><path class="cls-6" d="M34.8,34.42c-.61.17.05,4.34-2.94,5.93a2.12,2.12,0,0,1-1.95-.05,1.71,1.71,0,0,1-.4-.39,5.18,5.18,0,0,1-1.1-3.14,10.41,10.41,0,0,1,.53-3.18,4.22,4.22,0,0,1-1.81-.87,1.31,1.31,0,0,1,0-1.84,4.51,4.51,0,0,1,2.15-1.15A3.54,3.54,0,0,1,30,29.6a4.61,4.61,0,0,1,1.09.08q1.67.26,3.31.59c.2,0,2.11.11,2.48,1.38C37.34,33.35,36.63,33.9,34.8,34.42Z"/><path class="cls-11" d="M20.66,33.26h0c-.2-.09-.42.09-.31.26v0a.26.26,0,0,0,.37,0,.18.18,0,0,0,0-.31Z"/><path class="cls-12" d="M34.21,34a2.12,2.12,0,0,0,1.46-1.22A1.3,1.3,0,0,0,35.09,31c-.43-.17-1.13,0-1,.41a2.51,2.51,0,0,1,.34,1,1.25,1.25,0,0,1-.69,1.07c-.39.18,0,.6.43.49Z"/><path class="cls-12" d="M32.26,33.43h0a.44.44,0,0,0,.39,0A2,2,0,0,0,33.15,31c-.15-.29-.74-.24-.88,0a2.37,2.37,0,0,0,0,1.45,2.43,2.43,0,0,1,0,.66c0,.12-.15.27.05.36Z"/><path class="cls-12" d="M30.82,33.1A7.12,7.12,0,0,0,31,31.91a10.07,10.07,0,0,1,.46-1.27c.12-.39-.65-.5-.94-.27a2.1,2.1,0,0,0-.13,2.77c.1.11.38.08.43,0Z"/><path class="cls-12" d="M29.19,32.53c-.19-.49-.46-1,0-1.48.27-.28.79-.41.74-.8,0-.07-.1-.11-.19-.13a1.79,1.79,0,0,0-1.55.8c-.37.5,0,1.36.58,1.73.16.11.52.06.44-.13Z"/><path class="cls-11" d="M31,39.54a.15.15,0,1,0,0,.29.15.15,0,1,0,0-.29Z"/><path class="cls-11" d="M31.88,39a.22.22,0,1,0-.05.43.22.22,0,1,0,.05-.43Z"/><path class="cls-11" d="M30.7,38.67a.13.13,0,1,0,0,.25.13.13,0,1,0,0-.25Z"/><path class="cls-11" d="M32.66,38.05a.25.25,0,0,0-.14-.12c-.13-.06-.31.07-.28.19h0v-.08c-.06.11,0,.24.18.26s.29-.13.22-.26Z"/><path class="cls-11" d="M33,37h0a.15.15,0,0,0,0,.28h0c.13.06.31,0,.33-.12S33.1,36.94,33,37Z"/><path class="cls-11" d="M31.2,36.94a.26.26,0,0,0,.16-.08c.12-.13-.06-.32-.23-.25h.11c-.12,0-.26,0-.27.14a.19.19,0,0,0,.23.19Z"/><path class="cls-11" d="M30.4,37.59a.14.14,0,1,0,0,.28.14.14,0,1,0,0-.28Z"/><path class="cls-11" d="M29.92,38.39h0c-.14-.09-.33,0-.25.18v0c.12.22.5,0,.26-.18Z"/><path class="cls-11" d="M30.12,39.37v0c0-.14-.28-.16-.33,0v0c-.09.24.37.28.34,0Z"/><path class="cls-11" d="M29.55,37a.15.15,0,0,0,0-.12c-.09-.13-.36-.09-.32.08v0a.18.18,0,0,0,.34,0Z"/><path class="cls-11" d="M29.79,35.52h0a.2.2,0,0,0-.22.15v0c0,.17.22.26.36.16a.18.18,0,0,0-.12-.33Z"/><path class="cls-11" d="M31.73,35.51a.27.27,0,0,0-.15-.12c-.16-.05-.33.06-.3.21h0l0-.15h0a.2.2,0,0,0,.17.33c.17,0,.34-.15.24-.29Z"/><path class="cls-11" d="M33,35.47a.19.19,0,1,0,0,.37.19.19,0,1,0,0-.37Z"/><path class="cls-11" d="M34.14,34.58s0,0,0,0c0-.16-.33-.19-.37,0v0c-.08.27.4.31.39,0Z"/><path class="cls-11" d="M32.71,34a.34.34,0,0,0-.36-.09.18.18,0,0,0-.08.3l.06.05c.21.2.59-.06.38-.26Z"/><path class="cls-11" d="M31.13,34.5h0c-.15,0-.33.12-.2.23l.12.08c.25.11.37-.31.09-.31Z"/><path class="cls-11" d="M29.78,34.67a.13.13,0,1,0,0,.27.13.13,0,1,0,0-.27Z"/><path class="cls-11" d="M29.5,33.41a.21.21,0,1,0-.05.41.21.21,0,1,0,.05-.41Z"/><path class="cls-11" d="M31.17,33.85a.35.35,0,0,0-.31-.11.19.19,0,0,0-.1.36s0,0,0,0c.21.2.59-.06.38-.26Z"/><path class="cls-11" d="M32.21,36h0c-.18,0-.26.23-.09.33h0a.25.25,0,0,0,.35-.09.21.21,0,0,0-.25-.26Z"/><path class="cls-11" d="M31.69,33.08s0,0,0,0-.31-.18-.36,0v0c-.08.26.38.3.37,0Z"/><path class="cls-11" d="M35.08,32.42c-.3,0-.34.3,0,.33s.34-.3,0-.33Z"/><path class="cls-11" d="M32.83,31.86c-.22,0-.25.23,0,.25s.25-.23,0-.25Z"/><path class="cls-11" d="M30.37,31.59h0a.12.12,0,0,0,0,.23h0c.13.06.32,0,.33-.1s-.15-.19-.3-.15Z"/><path class="cls-11" d="M28.54,31c-.3,0-.34.3,0,.32s.34-.3,0-.32Z"/><path class="cls-11" d="M12.4,30.85h-.1c-.3.09-.21.37.1.33l.09,0c.21-.09.14-.32-.09-.31Z"/><path class="cls-11" d="M10,31.74h0a.15.15,0,0,0,0-.19.31.31,0,0,0-.3-.08h0c-.24,0-.27.28-.09.35h0l-.12-.11h0a.31.31,0,0,0,.48,0Z"/><path class="cls-3" d="M24.87,34.87c0-.15-.07-.36-.24-.44s-.11,0-.1.05a1.36,1.36,0,0,0,.16.43c0,.1.22.06.19,0Z"/><path class="cls-3" d="M26.92,33.1a.88.88,0,0,0-.64-.19.07.07,0,0,0-.05.11c.11.16.34.14.49.26s.34-.07.21-.17Z"/><path class="cls-3" d="M30.11,28.82a1.38,1.38,0,0,0-.77,0,.08.08,0,0,0,0,.14,1.37,1.37,0,0,0,.77,0,.09.09,0,0,0,0-.18Z"/><path class="cls-3" d="M25.43,36.54l.22-.23.1-.12a.74.74,0,0,0,.09-.17c.05-.11-.13-.23-.24-.16a.53.53,0,0,0-.14.09.92.92,0,0,0-.12.16.9.9,0,0,0-.11.34c0,.09.12.19.2.1Z"/><path class="cls-3" d="M26.14,32.2a2.19,2.19,0,0,0-.34-.11l-.18,0a.6.6,0,0,0-.15,0s-.08,0-.06.06.43.18.6.26.26-.09.13-.16Z"/><path class="cls-3" d="M10.1,35.3a1.54,1.54,0,0,0-.89-.14.06.06,0,0,0,0,.11,4.18,4.18,0,0,0,.83.18c.1,0,.18-.11.08-.15Z"/><path class="cls-3" d="M13.35,23.56c-.16,0-.52-.15-.62,0a.06.06,0,0,0,0,.07c.07.08.17.06.28.08a1.46,1.46,0,0,0,.36,0c.1,0,.07-.14,0-.15Z"/><path class="cls-3" d="M10.79,34.91c0-.17,0-.63-.3-.61-.15,0-.13.17-.11.26a1.84,1.84,0,0,1,.11.36.15.15,0,0,0,.29,0Z"/><path class="cls-3" d="M13.95,25.34l-.29-.22a.53.53,0,0,0-.31-.16.06.06,0,0,0-.06.07c0,.09.13.16.21.22s.19.15.29.22.27-.06.16-.13Z"/><path class="cls-3" d="M28.08,38c-.07-.15-.17-.37-.37-.42,0,0-.09,0-.09.06s.16.28.23.41.28.07.23-.05Z"/><path class="cls-6" d="M19.65,2.33a2.68,2.68,0,0,1,.72-1,.32.32,0,0,1,.18-.08.36.36,0,0,1,.23.12,7,7,0,0,1,1.69,2.33c0,.05,0,.12,0,.17a.17.17,0,0,1-.1,0,9,9,0,0,1-3.34,0,.19.19,0,0,1-.1,0c-.06-.06,0-.16,0-.23Z"/><path class="cls-6" d="M17.29,18.22a5.15,5.15,0,0,0-.61.45c-.64.57-1.23,1.15-2.81,2.61-.5.46-1,.59-.86.92s.84,1.77,3.93,5c.94,1,2.25,2.44,3.37,2.52.91.06,1.82-1.24,3.94-3.53a21.56,21.56,0,0,0,3.49-4.29,1,1,0,0,0,.13-.37c0-.36-.29-.63-.57-.85a10,10,0,0,1-2.78-3.17,7.14,7.14,0,0,1-.66-1.86.44.44,0,0,0-.11-.25.43.43,0,0,0-.41,0A24.36,24.36,0,0,0,17.29,18.22Z"/><path class="cls-7" d="M15.36,9.4c-.12.13-.07.34,0,.51a8.25,8.25,0,0,1,.36,2.47,1.44,1.44,0,0,1-.13.68c-.16.31-.69.6-.94.84s-.37.21-.41.49.16.17.19.21a.2.2,0,0,0,.13.07l.95.22c.12.38-.13.77-.22,1.15a6,6,0,0,0-.23,2,2.16,2.16,0,0,0,1,1.66,2.53,2.53,0,0,0,1.23.28,5.9,5.9,0,0,0,5.36-3.39,8.69,8.69,0,0,0,.48-1.44,9,9,0,0,0,.33-2.6,4.59,4.59,0,0,0-.78-2.47,4.48,4.48,0,0,0-2.92-1.72,7.56,7.56,0,0,0-3.43.32,1.85,1.85,0,0,0-.72.35.71.71,0,0,0-.24.72Z"/><path class="cls-2" d="M22,12.33a4.74,4.74,0,0,1-4.24.2c-.07,0-.16-.1-.13-.18a2.61,2.61,0,0,1,2.1-.77A4.64,4.64,0,0,1,22,12.33Z"/><path class="cls-6" d="M19.63,11.84c-.27.08-.31.49-.12.7a.71.71,0,0,0,.77.13.48.48,0,0,0,.22-.15.41.41,0,0,0-.08-.52C20.28,11.87,20.16,11.69,19.63,11.84Z"/><path class="cls-3" d="M16.18,15.15a.2.2,0,0,0-.24-.19,2.94,2.94,0,0,0-1.59,1,2.36,2.36,0,0,0-.83,1.72c.24.11,1.33,0,2.43-1.7A1.59,1.59,0,0,0,16.18,15.15Z"/><path class="cls-3" d="M16.37,15.32c0-.13,0-.29.17-.34a.36.36,0,0,1,.24,0A4.3,4.3,0,0,1,19.6,17.4a.12.12,0,0,1-.08.16,2.72,2.72,0,0,1-2-.18,1.38,1.38,0,0,1-.34-.22A2.39,2.39,0,0,1,16.37,15.32Z"/><path class="cls-3" d="M18.6,23.86A3.84,3.84,0,0,1,17,23.78a2.59,2.59,0,0,1-1.53-1.08A2.55,2.55,0,0,1,14.83,21a4.8,4.8,0,0,1,.47-2.73,2.66,2.66,0,0,0,2.29,1.66,5.42,5.42,0,0,0,2.49-.64c.67-.34.82-.5,1.42-.84a6.09,6.09,0,0,1-.77,4,3,3,0,0,1-.85.89A2.52,2.52,0,0,1,18.6,23.86Z"/><path class="cls-3" d="M27.8,20.12A3.46,3.46,0,0,0,30,18.82a5,5,0,0,0,1-2.09,4.74,4.74,0,0,0-.39-2.84,5.47,5.47,0,0,0-.74-1.06,17.76,17.76,0,0,0-1.42-1.6A9,9,0,0,0,24.3,9a3.88,3.88,0,0,0-2.71.15,1.14,1.14,0,0,0-.43.36,1.35,1.35,0,0,0-.17.6,11.22,11.22,0,0,0,3.18,8.72,6.48,6.48,0,0,0,1.24.93A3.15,3.15,0,0,0,27.8,20.12Z"/><path class="cls-3" d="M24.5,3.28a1.48,1.48,0,0,1,.51.46A13.76,13.76,0,0,1,27.43,8.3a13,13,0,0,1-2.81,0c-1.51-.06-3,0-4.54,0l-5.4.12c-.23,0-.5,0-.63-.2s.05-.59.26-.82a21.66,21.66,0,0,0,2.37-3.62A1,1,0,0,1,17,3.44a1.3,1.3,0,0,1,.34-.09c2.68-.07,4.33-.13,6.51-.15A1.55,1.55,0,0,1,24.5,3.28Z"/><g class="cls-13"><path class="cls-5" d="M16.17,14.84a9.2,9.2,0,0,0-1.73,1.26,6.74,6.74,0,0,0-1.21,2,.07.07,0,0,0,.11.09,8,8,0,0,0,1.07-1.54,16.65,16.65,0,0,1,1.8-1.7,0,0,0,0,0,0-.06Z"/><path class="cls-5" d="M16.25,15.19c-.66.66-2,1.36-2,2.46a.12.12,0,0,0,.2.08c.34-.36.51-.85.84-1.22a6.16,6.16,0,0,0,1-1.22.08.08,0,0,0-.13-.1Z"/></g><g class="cls-14"><path class="cls-5" d="M16.36,15.12a11.16,11.16,0,0,0,1.75,1.46c.35.32.7.66,1,1s.52.78.84,1.12a.09.09,0,0,0,.15-.06,3.57,3.57,0,0,0-1.19-1.88,10.21,10.21,0,0,0-1.11-.94c-.41-.32-.95-.48-1.33-.81-.07-.06-.18,0-.13.1Z"/><path class="cls-5" d="M15.94,15.69a7,7,0,0,1,1.39,1.25,10.39,10.39,0,0,1,1.45,1.51.06.06,0,0,0,.11,0,2.89,2.89,0,0,0-1.11-1.65A6.24,6.24,0,0,0,16,15.51c-.11,0-.17.13-.08.18Z"/></g><g class="cls-15"><path class="cls-5" d="M14.79,18.06c1.38.39,0,2.37-.19,3.08s.58,2,.77,2.74a.12.12,0,0,0,.23,0,2.22,2.22,0,0,0-.29-1.54,1.74,1.74,0,0,1,.11-1.94,1.54,1.54,0,0,0,.37-.68c0-.67,0-2-1-1.86a.1.1,0,0,0,0,.19Z"/><path class="cls-5" d="M15.8,18.38a2.31,2.31,0,0,1,.26,2.12c-.19.32-.52.6-.54,1a2.3,2.3,0,0,0,.36,1.31,3,3,0,0,1,.1,2.53.13.13,0,0,0,.22.13,1.94,1.94,0,0,0,.69-1.58c0-1-1.24-1.69-.64-2.7a2,2,0,0,0,.5-1.57,1.6,1.6,0,0,0-.8-1.4.11.11,0,0,0-.15.15Z"/><path class="cls-5" d="M16.92,18.77a2.53,2.53,0,0,1,.31,1.64c-.08.51-.4.87-.42,1.41a2.17,2.17,0,0,0,.42,1,2.93,2.93,0,0,1,.08,2.75.14.14,0,0,0,.21.16,1.68,1.68,0,0,0,.77-1.47c0-1-1.12-2-.86-2.95.16-.58.83-2.69-.45-2.67a.07.07,0,0,0-.06.1Z"/><path class="cls-5" d="M18,18.94c.46.9.22,1.21,0,2.06a1.17,1.17,0,0,0,0,.81,13.12,13.12,0,0,0,.95,1.43c.47.75-.11,1.28-.11,2a.15.15,0,0,0,.23.13c1-.65.82-1.82.26-2.71-.12-.2-.33-.43-.47-.61-.5-.63,0-1.15.06-1.75a1.53,1.53,0,0,0-.66-1.45.11.11,0,0,0-.18.14Z"/><path class="cls-5" d="M19.15,18.8a3.46,3.46,0,0,1,.15,2.31,1.38,1.38,0,0,0,.14.78,2.59,2.59,0,0,0,.43.65,2.5,2.5,0,0,1,.62,2.11.21.21,0,0,0,.35.14c.72-.81.31-1.69-.32-2.45A2.33,2.33,0,0,1,20,20.18a1.88,1.88,0,0,0-.76-1.47.07.07,0,0,0-.11.08Z"/><path class="cls-5" d="M20,18.44c.65.85.07,2,.57,2.88.3.56.84,1.33,1.55,1.21a.14.14,0,0,0,.1-.17,1.25,1.25,0,0,0-.42-.6A2.91,2.91,0,0,1,21,20.41c-.23-.79-.1-1.53-.78-2.11-.09-.08-.27,0-.18.14Z"/><path class="cls-5" d="M21,18.32c-.1.79.51,2.26,1.44,2.3a.14.14,0,0,0,.13-.18c-.31-.77-1.16-1.31-1.28-2.17,0-.18-.27-.11-.29,0Z"/></g><g class="cls-16"><path class="cls-5" d="M26.08,44.3c-1.38-.39,0-2.37.19-3.08s-.58-2-.77-2.74a.12.12,0,0,0-.23,0A2.22,2.22,0,0,0,25.56,40,1.74,1.74,0,0,1,25.45,42a1.53,1.53,0,0,0-.37.68c0,.67,0,2,1,1.86a.1.1,0,0,0,0-.19Z"/><path class="cls-5" d="M25.07,44a2.31,2.31,0,0,1-.26-2.12c.19-.32.52-.6.54-1A2.29,2.29,0,0,0,25,39.55,3,3,0,0,1,24.9,37a.14.14,0,0,0-.23-.13A2,2,0,0,0,24,38.48c0,1,1.24,1.69.64,2.7a2,2,0,0,0-.5,1.57,1.6,1.6,0,0,0,.8,1.4.11.11,0,0,0,.15-.15Z"/><path class="cls-5" d="M24,43.6A2.53,2.53,0,0,1,23.64,42c.08-.51.4-.87.42-1.41a2.18,2.18,0,0,0-.42-1,2.93,2.93,0,0,1-.08-2.74.14.14,0,0,0-.21-.16,1.68,1.68,0,0,0-.77,1.48c0,1,1.12,2,.86,2.95-.16.58-.83,2.69.45,2.68A.07.07,0,0,0,24,43.6Z"/><path class="cls-5" d="M22.88,43.43c-.46-.9-.22-1.21,0-2.06a1.16,1.16,0,0,0,0-.81A13.16,13.16,0,0,0,22,39.13c-.47-.75.11-1.28.11-2a.15.15,0,0,0-.23-.13c-1,.65-.82,1.82-.26,2.71.13.2.33.43.47.61.5.63,0,1.15-.06,1.76a1.53,1.53,0,0,0,.66,1.45.11.11,0,0,0,.17-.14Z"/><path class="cls-5" d="M21.73,43.57a3.46,3.46,0,0,1-.16-2.31,1.37,1.37,0,0,0-.14-.78,2.53,2.53,0,0,0-.43-.65,2.5,2.5,0,0,1-.62-2.11.21.21,0,0,0-.35-.14c-.72.81-.31,1.68.32,2.45a2.32,2.32,0,0,1,.51,2.15,1.89,1.89,0,0,0,.76,1.47.07.07,0,0,0,.11-.08Z"/><path class="cls-5" d="M20.83,43.92c-.65-.85-.07-2-.57-2.88-.3-.56-.83-1.33-1.55-1.21a.14.14,0,0,0-.1.17,1.24,1.24,0,0,0,.42.6A2.89,2.89,0,0,1,19.87,42c.23.79.11,1.53.79,2.11.09.08.27,0,.18-.14Z"/><path class="cls-5" d="M19.83,44c.1-.79-.51-2.26-1.44-2.3a.14.14,0,0,0-.14.18c.31.77,1.16,1.31,1.28,2.17,0,.18.27.11.29,0Z"/></g><g class="cls-17"><path class="cls-5" d="M20,10.2c1.35-.55,1.3,2.15,1.23,2.74a3.8,3.8,0,0,0,.21,2.17,7.13,7.13,0,0,0,1.38,1.61c.92,1,.49,2.3.24,3.47a.14.14,0,0,0,.23.13,3.25,3.25,0,0,0,.46-2.78c-.19-1.12-1.37-1.76-1.92-2.67-.73-1.2.26-2.8-.35-4.11-.33-.69-.8-1.25-1.55-.76-.09.06,0,.22.08.18Z"/><path class="cls-5" d="M20.62,9c1.78.47,1.73,2.45,1.52,3.91a1.88,1.88,0,0,0,1,2.14,4.14,4.14,0,0,1,1.44,1.22c.55.85.16,1.95,0,2.83a2.56,2.56,0,0,0,1.12,2.67c.1.07.2-.06.16-.16a3.87,3.87,0,0,1-.53-3.07,4.44,4.44,0,0,0,.08-1.8,3.35,3.35,0,0,0-1.93-2.18c-1.32-.78-.5-2.73-.82-4-.23-.94-.89-1.83-1.93-1.7-.08,0-.12.13,0,.16Z"/><path class="cls-5" d="M22.43,8.51c1.52.5,1.14,2.71,1.09,3.9s.74,1.62,1.54,2.35c2.17,2-1,5.43,1.74,7a.23.23,0,0,0,.31-.31c-.53-1-1.09-1.5-.79-2.74a6.19,6.19,0,0,0,.22-2.21A3.66,3.66,0,0,0,25,13.91a2.08,2.08,0,0,1-.89-2.11A7.2,7.2,0,0,0,24,10.09c-.17-.9-.59-1.67-1.55-1.79-.13,0-.14.18,0,.21Z"/><path class="cls-5" d="M24.38,8.47c1.36,1.08.23,2.73.53,4.11.12.54.76,1,1.15,1.34A4.14,4.14,0,0,1,27.57,16c.5,1.54-.2,2.8-.39,4.29a1.88,1.88,0,0,0,1.54,2.06.23.23,0,0,0,.23-.39c-.66-.66-1.13-1.07-.94-2.07.11-.59.37-1.16.45-1.76a5.27,5.27,0,0,0-.91-3.81A10,10,0,0,0,26,13c-.78-.69-.4-1.74-.43-2.63s-.25-1.89-1.14-2c-.08,0-.17.09-.09.15Z"/><path class="cls-5" d="M26.5,8.61a4.84,4.84,0,0,0,0,2.93C27,12.56,28,13.1,28.59,14c.81,1.29.56,3.24.17,4.61A2.25,2.25,0,0,0,29,20.87a.16.16,0,0,0,.28-.11,13.52,13.52,0,0,1,.43-3.28,7.59,7.59,0,0,0-.17-2.94A4.29,4.29,0,0,0,28,12.4a3,3,0,0,1-1.2-2.17c0-.55,0-1.07-.13-1.61a.11.11,0,0,0-.21,0Z"/><path class="cls-5" d="M27.59,8.72c-.34,2.05,1.42,3.09,2.45,4.6s0,3.17.14,4.79a3.53,3.53,0,0,0,1.34,2.56.24.24,0,0,0,.36-.21,3,3,0,0,0-.43-1.21,3.78,3.78,0,0,1-.3-2.61A4.93,4.93,0,0,0,31,13.37c-.89-1.73-2.79-2.64-3.18-4.65a.14.14,0,0,0-.26,0Z"/></g><path class="cls-4" d="M15.38,10a1,1,0,0,0,.47.09c3.3-.16,6.36-.21,9.68-.17a1.56,1.56,0,0,0,1.2-.53c.33-.34.83-.94.74-1.35S26.8,7.7,26,7.65c-1.13-.08-3,0-4.14,0-2.91,0-4.45,0-7.59.16-.38,0-.46.29-.46.67a.55.55,0,0,0,.18.4l1.11,1a1,1,0,0,0,.26.17Z"/><path class="cls-11" d="M13.5,22.34h0a.2.2,0,0,0,.25-.25v0a.21.21,0,1,0-.26.26Z"/><path class="cls-11" d="M14.11,23.22a.26.26,0,0,0,0-.52.26.26,0,0,0,0,.52Z"/><path class="cls-11" d="M14.77,24a.24.24,0,0,0,0-.48.24.24,0,0,0,0,.48Z"/><path class="cls-11" d="M15.27,24.68l0,0c.12.28.57,0,.41-.24l0,0a.24.24,0,0,0-.33-.09.24.24,0,0,0-.09.33Z"/><path class="cls-11" d="M15.94,25.23a.28.28,0,0,0,.12.33.23.23,0,0,0,.23,0,.24.24,0,0,0,.11-.26v.11a.43.43,0,0,0,0-.18.24.24,0,0,0-.23-.18.25.25,0,0,0-.23.18Z"/><path class="cls-11" d="M16.83,26.32l0,0a.26.26,0,0,0,.36,0l0,0a.23.23,0,0,0,0-.33l0,0a.26.26,0,0,0-.36,0l0,0a.23.23,0,0,0,0,.32Z"/><path class="cls-11" d="M17.87,26.75h0a.21.21,0,0,0-.24.1h0a.21.21,0,0,0,.29.29A.27.27,0,0,0,18,27a.2.2,0,0,0-.12-.29Z"/><path class="cls-11" d="M18.37,27.75l.09.07c.24.14.46-.26.21-.37h0a.21.21,0,0,0-.3.3Z"/><path class="cls-11" d="M19.41,28.54a.2.2,0,0,0,0-.4.2.2,0,0,0,0,.4Z"/><path class="cls-11" d="M21.31,28.32v.08a.21.21,0,0,0-.26-.26.27.27,0,0,0-.16.12.23.23,0,0,0,.14.34c.15,0,.36-.12.29-.29Z"/><path class="cls-11" d="M21.91,28a.24.24,0,0,0,0-.48.24.24,0,0,0,0,.48Z"/><path class="cls-11" d="M22.53,27.3a.25.25,0,0,0,0-.49.25.25,0,0,0,0,.49Z"/><path class="cls-11" d="M23.16,26.52a.21.21,0,0,0,0-.41.21.21,0,0,0,0,.41Z"/><path class="cls-11" d="M24.1,25.52a.22.22,0,0,0-.2-.16.2.2,0,1,0,.05.4c.09,0,.19-.14.15-.24Z"/><path class="cls-11" d="M24.56,25.08a.26.26,0,0,0,0-.51.26.26,0,0,0,0,.51Z"/><path class="cls-11" d="M25.34,24.31a.27.27,0,0,0,0-.53.27.27,0,0,0,0,.53Z"/><path class="cls-11" d="M25.89,23.49a.19.19,0,0,0,0-.37.19.19,0,0,0,0,.37Z"/><path class="cls-11" d="M26.43,22.85a.17.17,0,0,0,0-.33.17.17,0,0,0,0,.33Z"/><path class="cls-11" d="M27,22.06a.24.24,0,0,0,0-.47.24.24,0,0,0,0,.47Z"/><path class="cls-6" d="M18.84,11a3.35,3.35,0,0,1,1,0c.29,0,.94-.06.67-.52s-.78-.28-1.11-.23-.75.2-.8.58c0,.13.13.21.24.19Z"/><path class="cls-11" d="M19.78,13.7c.19-.19-.11.13-.14.16a.84.84,0,0,0-.1.27,1.58,1.58,0,0,0,0,.52,1.16,1.16,0,0,0,.69,1.08.7.7,0,0,0,.78-1l-.14-.18c.15.19.05.07,0,0s.06.16,0,0l-.06-.17c-.05-.13-.08-.27-.15-.4l-.07-.12s-.33-.37-.14-.16a.5.5,0,0,0-.7,0Z"/><path class="cls-11" d="M17.44,3.9a7.9,7.9,0,0,0-.86,1.31,2.29,2.29,0,0,0-.43,1.58.51.51,0,0,0,.93.12,8.89,8.89,0,0,0,.48-1.47A2.85,2.85,0,0,0,17.76,4a.19.19,0,0,0-.32-.08Z"/><path class="cls-11" d="M18.95,3.85a4.16,4.16,0,0,0-.65,1.76c-.12.53-.27,1.14.22,1.51a.59.59,0,0,0,.81-.21,3.45,3.45,0,0,0,.12-1.24,5.17,5.17,0,0,0-.14-1.73.22.22,0,0,0-.36-.09Z"/><path class="cls-11" d="M20.62,3.85a7.85,7.85,0,0,0-.44,2.95.59.59,0,0,0,1.19,0A7.26,7.26,0,0,0,21,3.85a.23.23,0,0,0-.39,0Z"/><path class="cls-11" d="M22,3.83a3,3,0,0,0,0,1.32c.07.52.15,1.05.25,1.57.12.68,1.17.5,1.17-.16a4.36,4.36,0,0,0-1.14-2.81.18.18,0,0,0-.3.08Z"/><path class="cls-11" d="M23.74,4c-.2.57.29,1.2.48,1.72S24.43,6.89,25,7a.57.57,0,0,0,.69-.69,3.71,3.71,0,0,0-.55-1.09A3.85,3.85,0,0,0,24,3.9a.17.17,0,0,0-.24.1Z"/><path class="cls-6" d="M16.64,6.82a.24.24,0,0,0,0-.49.24.24,0,0,0,0,.49Z"/><path class="cls-6" d="M18.79,6.94a.25.25,0,0,0,0-.5.25.25,0,0,0,0,.5Z"/><path class="cls-6" d="M20.74,7a.28.28,0,0,0,0-.56.28.28,0,0,0,0,.56Z"/><path class="cls-6" d="M22.77,6.83a.26.26,0,0,0,0-.52.26.26,0,0,0,0,.52Z"/><path class="cls-6" d="M25,6.65a.24.24,0,0,0,0-.47.24.24,0,0,0,0,.47Z"/><path class="cls-6" d="M16,9.5a1.88,1.88,0,0,0-.36-1.06.41.41,0,1,0-.64.49c.22.24.42.48.65.71A.21.21,0,0,0,16,9.5Z"/><path class="cls-6" d="M17,9.32a1.5,1.5,0,0,1,0-.41,1.87,1.87,0,0,0-.07-.55.38.38,0,0,0-.36-.27.37.37,0,0,0-.37.37,4.4,4.4,0,0,0,.13.6,1.21,1.21,0,0,0,.3.49A.24.24,0,0,0,17,9.32Z"/><path class="cls-6" d="M18.27,9.46c0,.08,0-.1,0-.13a1.8,1.8,0,0,0,0-.33c0-.18,0-.34.07-.52A.4.4,0,0,0,18.14,8a.39.39,0,0,0-.48.27,1.69,1.69,0,0,0,0,.76.9.9,0,0,0,.13.37l.12.13s.16.12.09.05a.19.19,0,0,0,.32-.13Z"/><path class="cls-6" d="M19.54,9.57a.73.73,0,0,0,.37-.51,1.67,1.67,0,0,0,0-.77.4.4,0,0,0-.76,0,2,2,0,0,0,0,.7c0,.09,0,.18,0,.26l0,.11s.07.19,0,.1a.18.18,0,0,0,.26.11Z"/><path class="cls-6" d="M21.1,9.53a.77.77,0,0,0,.32-.46,2,2,0,0,0,.17-.69c0-.25-.31-.49-.55-.32a1,1,0,0,0-.35.78.75.75,0,0,0,.2.66.18.18,0,0,0,.21,0Z"/><path class="cls-6" d="M22.39,9.6c.11-.16.24-.3.34-.48s.2-.35.29-.53a.38.38,0,0,0,0-.38l0,0A.32.32,0,0,0,22.65,8c-.31,0-.39.42-.48.67a2.89,2.89,0,0,0-.15.8c0,.21.28.26.37.1Z"/><path class="cls-6" d="M24,9.56s.12-.11,0,0a.52.52,0,0,0,.13-.13c.06-.09.12-.19.17-.29a1.78,1.78,0,0,0,.32-.67.38.38,0,0,0-.47-.36,1,1,0,0,0-.51.69.86.86,0,0,0,0,.76.2.2,0,0,0,.31,0Z"/><path class="cls-6" d="M25.56,9.56l0,0-.18,0A.75.75,0,0,0,26,9.26c.22-.22.5-.4.52-.73a.44.44,0,0,0-.32-.42c-.38-.16-.74.26-.89.55s-.26.64,0,.85l-.07-.16v0a.21.21,0,0,0,.32.18Z"/><path class="cls-6" d="M17,5.91a.28.28,0,0,0,0-.55.28.28,0,0,0,0,.55Z"/><path class="cls-6" d="M17.23,5.09a.2.2,0,0,0,0-.4.2.2,0,0,0,0,.4Z"/><path class="cls-6" d="M18.79,6a.26.26,0,0,0,0-.53.26.26,0,0,0,0,.53Z"/><path class="cls-6" d="M18.83,5.19a.22.22,0,0,0,0-.43.22.22,0,0,0,0,.43Z"/><path class="cls-6" d="M20.74,6a.21.21,0,0,0,0-.43.21.21,0,0,0,0,.43Z"/><path class="cls-6" d="M20.66,5.2a.23.23,0,0,0,0-.46.23.23,0,0,0,0,.46Z"/><path class="cls-6" d="M22.79,5.54l0,0a.22.22,0,0,0-.31,0l0,0a.25.25,0,1,0,.35,0Z"/><path class="cls-6" d="M22.34,5.12a.18.18,0,0,0,0-.36.18.18,0,0,0,0,.36Z"/><path class="cls-6" d="M24.8,5.51c-.27,0-.29.4,0,.4s.26-.41,0-.4Z"/><path class="cls-6" d="M24.44,5.26a.25.25,0,0,0,0-.5.25.25,0,0,0,0,.5Z"/><path class="cls-12" d="M20.06,25.67c0,.32,0,.64,0,1s0,.64.29.76a.17.17,0,0,0,.23-.06c.16-.22,0-.53,0-.77s-.09-.63-.16-.94a.18.18,0,0,0-.35,0Z"/><path class="cls-12" d="M18.84,24.93c-.11.18-.19.36-.29.55a2.21,2.21,0,0,0-.25.57c-.05.28.34.49.48.2s.16-.39.25-.59a1.49,1.49,0,0,0,.16-.64.19.19,0,0,0-.36-.1Z"/><path class="cls-12" d="M17.67,24.37a1,1,0,0,0-.53.51.2.2,0,0,0,.29.22,2.93,2.93,0,0,0,.45-.37c.21-.16,0-.51-.21-.37Z"/><path class="cls-12" d="M21.42,25a1.51,1.51,0,0,0,.16.54.85.85,0,0,0,.48.57c.21.08.39-.15.34-.34a1.83,1.83,0,0,0-.31-.55c-.12-.18-.28-.38-.51-.38a.16.16,0,0,0-.16.16Z"/><path class="cls-12" d="M22.39,24.14a1.49,1.49,0,0,0,.41.51,2,2,0,0,0,.26.19.65.65,0,0,0,.39.07.25.25,0,0,0,.18-.42,1.19,1.19,0,0,0-.24-.21l-.26-.15a2.67,2.67,0,0,0-.5-.29c-.19-.07-.3.16-.24.31Z"/><path class="cls-12" d="M23.45,23.27a3.56,3.56,0,0,0,.4.3l.2.14a.75.75,0,0,0,.29.1.22.22,0,0,0,.21-.36,1,1,0,0,0-.21-.22,1.74,1.74,0,0,0-.26-.14.73.73,0,0,0-.54-.08.16.16,0,0,0-.07.27Z"/><path class="cls-12" d="M24.31,22.24a1.46,1.46,0,0,0,.37.39.94.94,0,0,0,.53.24.27.27,0,0,0,.19-.45,1.45,1.45,0,0,0-.43-.27,1.06,1.06,0,0,0-.52-.14.16.16,0,0,0-.13.24Z"/><path class="cls-12" d="M25,21.37a1.36,1.36,0,0,0,.86.52.22.22,0,0,0,.16-.38,1.4,1.4,0,0,0-.93-.36.13.13,0,0,0-.09.21Z"/><path class="cls-3" d="M9.77,31.75c-.34.07-.22.45.11.37s.22-.45-.11-.37Z"/><path class="cls-3" d="M8.76,32.41h0c.19,0,.38-.09.33-.24s-.28-.17-.43-.07h0a.16.16,0,0,0,.09.3Z"/><path class="cls-3" d="M23.93,33.35c-.17,0-.17.18,0,.18s.17-.18,0-.18Z"/><path class="cls-3" d="M10.06,33.27c-.25,0-.25.28,0,.28s.25-.28,0-.28Z"/><path class="cls-3" d="M28,36.07a1.37,1.37,0,0,0-.77,0,.08.08,0,0,0,0,.14,1.38,1.38,0,0,0,.77,0,.09.09,0,0,0,0-.18Z"/><path class="cls-3" d="M27.05,34.48a2.18,2.18,0,0,0-.34-.11l-.18,0a.57.57,0,0,0-.15,0s-.08,0-.06.06.43.18.61.26.26-.09.13-.16Z"/><path class="cls-3" d="M25.06,33.08c0-.15,0-.38-.2-.46s-.23,0-.25.07.11.31.23.43.24.05.23,0Z"/><path class="cls-3" d="M12.56,33.26c-.07-.07-.23-.31-.4-.24s.1.28.16.34.34,0,.24-.1Z"/><path class="cls-6" d="M6.08,28C6.68,27.79,6,23.62,9,22a2.12,2.12,0,0,1,1.95.05,1.69,1.69,0,0,1,.4.39,5.17,5.17,0,0,1,1.1,3.14,10.39,10.39,0,0,1-.53,3.18,4.23,4.23,0,0,1,1.81.87,1.31,1.31,0,0,1,0,1.84,4.5,4.5,0,0,1-2.15,1.15,3.62,3.62,0,0,1-.66.13,4.67,4.67,0,0,1-1.09-.08q-1.67-.26-3.31-.59c-.2,0-2.11-.11-2.48-1.37C3.53,29,4.25,28.49,6.08,28Z"/><path class="cls-11" d="M20.21,29.12h0c.2.09.42-.09.31-.26v0a.26.26,0,0,0-.36,0,.18.18,0,0,0,0,.31Z"/><path class="cls-12" d="M6.66,28.41A2.12,2.12,0,0,0,5.2,29.63a1.3,1.3,0,0,0,.58,1.78c.43.17,1.13,0,1-.41a2.5,2.5,0,0,1-.34-1A1.25,1.25,0,0,1,7.1,28.9c.39-.18,0-.6-.43-.49Z"/><path class="cls-12" d="M8.61,29h0a.44.44,0,0,0-.39,0,2,2,0,0,0-.48,2.48c.15.29.74.24.89,0a2.36,2.36,0,0,0,0-1.45,2.43,2.43,0,0,1,0-.66c0-.12.15-.27-.05-.36Z"/><path class="cls-12" d="M10,29.29a7.21,7.21,0,0,0-.18,1.19,10.07,10.07,0,0,1-.46,1.27c-.12.39.65.5.94.27a2.1,2.1,0,0,0,.13-2.77c-.1-.11-.38-.08-.43,0Z"/><path class="cls-12" d="M11.68,29.86c.19.49.46,1,0,1.48-.27.28-.79.41-.73.8,0,.07.1.11.19.13a1.78,1.78,0,0,0,1.55-.8c.37-.5,0-1.36-.59-1.73-.16-.11-.52-.06-.44.13Z"/><path class="cls-11" d="M9.89,22.84a.15.15,0,1,0,0-.29.15.15,0,1,0,0,.29Z"/><path class="cls-11" d="M9,23.44A.22.22,0,1,0,9,23a.22.22,0,1,0-.05.43Z"/><path class="cls-11" d="M10.17,23.72a.13.13,0,1,0,0-.25.13.13,0,1,0,0,.25Z"/><path class="cls-11" d="M8.21,24.33a.25.25,0,0,0,.14.12c.13.06.31-.07.28-.19h0v.08c.06-.11,0-.24-.18-.26s-.29.13-.22.27Z"/><path class="cls-11" d="M7.91,25.41h0a.15.15,0,0,0,0-.28H8c-.13-.06-.31,0-.33.12s.15.22.29.18Z"/><path class="cls-11" d="M9.67,25.45a.26.26,0,0,0-.16.08c-.12.13.06.32.23.25H9.63c.13,0,.26,0,.27-.14a.19.19,0,0,0-.23-.19Z"/><path class="cls-11" d="M10.47,24.8a.14.14,0,1,0,0-.28.14.14,0,1,0,0,.28Z"/><path class="cls-11" d="M11,24h0c.14.09.33,0,.25-.18v0c-.12-.22-.5,0-.27.18Z"/><path class="cls-11" d="M10.75,23v0c0,.14.28.16.33,0v0c.09-.24-.37-.28-.34,0Z"/><path class="cls-11" d="M11.32,25.43a.15.15,0,0,0,0,.12c.09.13.36.09.32-.08v0a.18.18,0,0,0-.34,0Z"/><path class="cls-11" d="M11.08,26.86h0a.2.2,0,0,0,.22-.15v0c0-.17-.22-.26-.35-.16a.18.18,0,0,0,.12.33Z"/><path class="cls-11" d="M9.14,26.88a.26.26,0,0,0,.15.12c.16.05.32-.06.3-.2h0l0,.15h0a.2.2,0,0,0-.17-.32c-.17,0-.34.15-.25.29Z"/><path class="cls-11" d="M7.9,26.91a.19.19,0,1,0,0-.37.19.19,0,1,0,0,.37Z"/><path class="cls-11" d="M6.73,27.8v0c0,.16.33.19.37,0v0c.08-.27-.4-.31-.39,0Z"/><path class="cls-11" d="M8.17,28.4a.33.33,0,0,0,.36.09.18.18,0,0,0,.08-.3l-.06-.05c-.21-.2-.59.06-.38.26Z"/><path class="cls-11" d="M9.74,27.89h0c.16,0,.33-.12.2-.23l-.12-.08c-.25-.11-.37.31-.09.31Z"/><path class="cls-11" d="M11.09,27.71a.13.13,0,1,0,0-.27.13.13,0,1,0,0,.27Z"/><path class="cls-11" d="M11.37,29a.21.21,0,1,0,0-.41.21.21,0,1,0,0,.41Z"/><path class="cls-11" d="M9.7,28.54a.35.35,0,0,0,.31.11.19.19,0,0,0,.1-.36s0,0,0,0c-.21-.2-.59.06-.38.26Z"/><path class="cls-11" d="M8.67,26.38h0c.18,0,.26-.23.09-.34h0a.25.25,0,0,0-.35.09.21.21,0,0,0,.25.26Z"/><path class="cls-11" d="M9.18,29.3s0,0,0,0,.31.18.36,0v0c.08-.26-.38-.3-.37,0Z"/><path class="cls-11" d="M5.79,30c.3,0,.34-.3,0-.33s-.34.3,0,.33Z"/><path class="cls-11" d="M8,30.52c.22,0,.25-.23,0-.25s-.25.23,0,.25Z"/><path class="cls-11" d="M10.5,30.79h0a.12.12,0,0,0,0-.23h0c-.13-.06-.32,0-.33.1s.15.19.3.15Z"/><path class="cls-11" d="M12.33,31.35c.3,0,.34-.3,0-.32s-.34.3,0,.32Z"/><path class="cls-3" d="M14.16,28.82c.17,0,.17-.18,0-.18s-.17.18,0,.18Z"/><path class="cls-3" d="M16,27.51c0,.15.07.36.24.44s.11,0,.11-.05a1.33,1.33,0,0,0-.16-.43c0-.1-.22-.06-.19,0Z"/><path class="cls-3" d="M12.91,27.41a.89.89,0,0,0,.64.19.07.07,0,0,0,0-.1c-.11-.15-.34-.14-.48-.26s-.34.07-.21.18Z"/><path class="cls-3" d="M17.65,29a1.37,1.37,0,0,0,.77,0,.08.08,0,0,0,0-.14,1.37,1.37,0,0,0-.77,0,.09.09,0,0,0,0,.18Z"/><path class="cls-3" d="M15.44,25.85l-.22.23-.1.12a.7.7,0,0,0-.09.16c-.05.11.13.23.24.16a.53.53,0,0,0,.14-.09,1,1,0,0,0,.12-.16.91.91,0,0,0,.11-.34c0-.09-.12-.19-.2-.1Z"/><path class="cls-3" d="M14.74,30.19a2.16,2.16,0,0,0,.34.11l.18,0a.59.59,0,0,0,.15,0s.08,0,.06-.06-.43-.18-.6-.26-.26.09-.13.16Z"/><path class="cls-3" d="M14.7,31.33c0,.15,0,.38.2.46s.23,0,.25-.07-.11-.31-.23-.43-.24-.05-.23,0Z"/><path class="cls-3" d="M30.57,27.42c0,.17,0,.63.3.61.15,0,.13-.17.11-.26a1.91,1.91,0,0,1-.11-.35c0-.16-.27-.16-.29,0Z"/><path class="cls-11" d="M20.56,31.19a1,1,0,0,0-.19.65c0,.21-.09.56.19.7s.46-.07.4-.22a.61.61,0,0,1,0-.17,3.77,3.77,0,0,1,0-.39.72.72,0,0,0-.16-.57.15.15,0,0,0-.19,0Z"/><path class="cls-11" d="M20.86,31.37c.13,0,.24.07.37.08a1.68,1.68,0,0,0,.43,0,.19.19,0,0,0,.19-.24c0-.11-.19-.15-.33-.13l-.32,0c-.12,0-.22,0-.33.06s-.14.17,0,.2Z"/><path class="cls-11" d="M20.45,31.22a2.54,2.54,0,0,0-.93-.09c-.2,0-.2.26,0,.29a2.57,2.57,0,0,0,.93,0c.12,0,.11-.14,0-.17Z"/><path class="cls-12" d="M20.68,32.1c-.09,0-.17.06-.17.13s.08.13.17.13.17-.06.17-.13-.08-.13-.17-.13Z"/><path class="cls-12" d="M21.69,31.23h0a.21.21,0,0,0-.2-.06c-.09,0-.15.09-.12.15h0a.19.19,0,0,0,.21.09.17.17,0,0,0,.1-.06.1.1,0,0,0,0-.12Z"/><path class="cls-12" d="M21.29,31.22l0,0c-.05,0-.1,0-.08.05h0v0h0s0,.05.06.05.07,0,.05-.06Z"/><path class="cls-12" d="M19.62,31.19c-.07,0-.13,0-.13.09s.06.09.13.09.13,0,.13-.09-.06-.09-.13-.09Z"/><path class="cls-11" d="M20.72,31.33a1,1,0,0,0,.19-.65c0-.21.1-.56-.18-.7s-.46.07-.41.22a.61.61,0,0,1,0,.17,3.75,3.75,0,0,1,0,.39.72.72,0,0,0,.16.57.15.15,0,0,0,.19,0Z"/><path class="cls-12" d="M20.61,30.33c.1,0,.17-.06.17-.12s-.08-.13-.17-.13-.17.06-.17.13.08.13.17.13Z"/><path class="cls-12" d="M20.67,31.91c.08,0,.08-.09,0-.09s-.08.09,0,.09Z"/><path class="cls-12" d="M19.92,31.34c.08,0,.08-.09,0-.09s-.08.09,0,.09Z"/><path class="cls-11" d="M25.66,27.56a1,1,0,0,0-.19.65c0,.21-.09.56.18.7s.46-.07.41-.22a.61.61,0,0,1,0-.17,3.51,3.51,0,0,1,0-.39.72.72,0,0,0-.16-.57.15.15,0,0,0-.19,0Z"/><path class="cls-11" d="M26,27.74c.13,0,.24.07.37.08a1.65,1.65,0,0,0,.43,0,.19.19,0,0,0,.19-.24c0-.11-.18-.15-.33-.13l-.32,0-.33.06c-.14,0-.14.17,0,.2Z"/><path class="cls-11" d="M25.55,27.59a2.53,2.53,0,0,0-.93-.09c-.2,0-.2.26,0,.29a2.58,2.58,0,0,0,.93,0c.12,0,.11-.14,0-.17Z"/><path class="cls-12" d="M25.78,28.47c-.1,0-.17.06-.17.13s.08.13.17.13.17-.06.17-.13-.08-.13-.17-.13Z"/><path class="cls-12" d="M26.79,27.6h0a.2.2,0,0,0-.19-.06c-.09,0-.15.09-.12.15h0a.19.19,0,0,0,.21.09.17.17,0,0,0,.1-.06.1.1,0,0,0,0-.13Z"/><path class="cls-12" d="M26.39,27.59l0,0s-.1,0-.08.05h0v0h0s0,.05.06.05.07,0,.05-.06Z"/><path class="cls-12" d="M24.72,27.56c-.07,0-.13,0-.13.09s.06.09.13.09.13,0,.13-.09-.06-.09-.13-.09Z"/><path class="cls-11" d="M25.82,27.7a1,1,0,0,0,.19-.65c0-.21.09-.56-.19-.7s-.46.07-.4.22a.61.61,0,0,1,0,.17,3.74,3.74,0,0,1,0,.39.72.72,0,0,0,.16.57.15.15,0,0,0,.19,0Z"/><path class="cls-12" d="M25.71,26.7c.1,0,.17-.06.17-.12s-.08-.13-.17-.13-.17.06-.17.13.08.13.17.13Z"/><path class="cls-12" d="M25.77,28.28c.08,0,.08-.09,0-.09s-.08.09,0,.09Z"/><path class="cls-12" d="M25,27.71c.08,0,.08-.09,0-.09s-.08.09,0,.09Z"/><path class="cls-11" d="M15.53,34.84a1,1,0,0,0-.19.65c0,.21-.09.56.19.69s.46-.07.41-.22a.61.61,0,0,1,0-.17,3.74,3.74,0,0,1,0-.39.72.72,0,0,0-.16-.57.15.15,0,0,0-.19,0Z"/><path class="cls-11" d="M15.83,35c.13,0,.24.07.37.08a1.68,1.68,0,0,0,.43,0,.2.2,0,0,0,.19-.24c0-.11-.18-.15-.33-.13l-.32,0c-.12,0-.22,0-.33.06s-.14.17,0,.2Z"/><path class="cls-11" d="M15.41,34.87a2.54,2.54,0,0,0-.93-.09c-.2,0-.2.26,0,.29a2.58,2.58,0,0,0,.93,0c.12,0,.11-.14,0-.17Z"/><path class="cls-12" d="M15.65,35.75c-.09,0-.17.06-.17.13s.08.13.17.13.17-.06.17-.13-.08-.12-.17-.12Z"/><path class="cls-12" d="M16.65,34.87h0a.21.21,0,0,0-.2-.06c-.09,0-.15.09-.12.15h0a.19.19,0,0,0,.21.09.17.17,0,0,0,.1-.06.1.1,0,0,0,0-.13Z"/><path class="cls-12" d="M16.25,34.87l0,0c-.05,0-.1,0-.08.06h0v0h0s0,.05.06.05.07,0,.05-.06Z"/><path class="cls-12" d="M14.58,34.84c-.07,0-.13,0-.13.09s.06.09.13.09.13,0,.13-.09-.06-.09-.13-.09Z"/><path class="cls-11" d="M15.68,35a1,1,0,0,0,.19-.65c0-.21.09-.56-.19-.7s-.46.07-.41.22a.63.63,0,0,1,0,.17,3.74,3.74,0,0,1,0,.39.72.72,0,0,0,.16.57.15.15,0,0,0,.19,0Z"/><path class="cls-12" d="M15.57,34c.1,0,.17-.06.17-.13s-.08-.13-.17-.13-.17.06-.17.13.08.13.17.13Z"/><path class="cls-12" d="M15.63,35.56c.08,0,.08-.09,0-.09s-.08.09,0,.09Z"/><path class="cls-12" d="M14.89,35c.08,0,.08-.09,0-.09s-.08.09,0,.09Z"/><path class="cls-12" d="M27.22,25.43a11.41,11.41,0,0,1,1.58-1.31,12.28,12.28,0,0,1,1.52-1.17c.41-.24.13-1-.33-.78a5.28,5.28,0,0,0-1.6,1.26,8.19,8.19,0,0,0-1.53,1.73c-.13.22.18.47.35.27Z"/><path class="cls-12" d="M27.61,26.66c.72-.39,1.36-.86,2-1.31.51-.34,1.51-.64,1.68-1.28a.18.18,0,0,0-.12-.22c-.64-.23-1.43.51-1.92.86a6.49,6.49,0,0,0-1.81,1.81c-.05.09.05.18.13.13Z"/><path class="cls-12" d="M13.12,35a18.19,18.19,0,0,1-2.45,1.34c-.39.23-1.59,1.08-1,1.65s1.56-.68,1.91-.9a6.31,6.31,0,0,0,2-1.77c.18-.27-.2-.5-.42-.32Z"/><path class="cls-12" d="M13.25,36.83c-.93.51-2.42,1.28-2.58,2.46,0,.3.25.65.57.44a9,9,0,0,0,1.18-1.18,9.36,9.36,0,0,0,1.15-1.4c.13-.2-.12-.41-.31-.31Z"/><path class="cls-12" d="M29.08,27.19a1.55,1.55,0,0,0,1.34-.6c.17-.24-.11-.56-.37-.48a2.5,2.5,0,0,0-.68.41A.84.84,0,0,0,29,27a.13.13,0,0,0,.09.16Z"/><path class="cls-6" d="M5.42,11.77c0,.1,0,.24,0,.35s0,.2,0,.31a1.39,1.39,0,0,0,.42.91c-.24,0-.83,0-1.06,0a1.38,1.38,0,0,0,.42-.91,2.64,2.64,0,0,0,0-.31c0-.1,0-.25,0-.35Z"/><path class="cls-6" d="M5.35,12c.1,0,.15.11.33.3a1,1,0,0,0,.69.41.66.66,0,0,0,.55-.23,1.24,1.24,0,0,0,.19-.44A1.13,1.13,0,0,0,7,11.23.59.59,0,0,0,6.26,11c-.13.08-.17.17-.28.19a0,0,0,0,1-.06-.06c0-.18.17-.2.23-.41A.61.61,0,0,0,5.9,10a1.17,1.17,0,0,0-1.22,0,.55.55,0,0,0-.25.67c.05.2.17.29.22.45a.07.07,0,0,1-.09.09c-.08,0-.13-.11-.24-.18a.59.59,0,0,0-.76.24,1.12,1.12,0,0,0-.09.84,1.24,1.24,0,0,0,.19.44.66.66,0,0,0,.55.23,1,1,0,0,0,.69-.41c.18-.19.24-.29.33-.3Z"/><path class="cls-6" d="M6.47,3V7A1.87,1.87,0,0,1,6,8.45a1.83,1.83,0,0,1-1.25.41,3.1,3.1,0,0,1-.84-.12V8.16a3.64,3.64,0,0,0,.75.09,1.36,1.36,0,0,0,.71-.14.71.71,0,0,0,.3-.37A2.5,2.5,0,0,0,5.75,7V3Z"/><path class="cls-6" d="M35.51,50.52c0-.1,0-.24,0-.35a2.91,2.91,0,0,0,0-.31,1.39,1.39,0,0,0-.42-.91c.24,0,.83,0,1.06,0a1.39,1.39,0,0,0-.42.91c0,.1,0,.2,0,.31s0,.25,0,.35Z"/><path class="cls-6" d="M35.58,50.27c-.1,0-.16-.11-.33-.31a1,1,0,0,0-.69-.41.66.66,0,0,0-.55.23,1.26,1.26,0,0,0-.19.44,1.13,1.13,0,0,0,.1.84.59.59,0,0,0,.76.24c.13-.08.17-.17.28-.19a.05.05,0,0,1,.06.06c0,.18-.17.2-.23.41a.61.61,0,0,0,.25.76,1.18,1.18,0,0,0,1.22,0,.56.56,0,0,0,.25-.67c-.05-.2-.17-.29-.22-.45a.07.07,0,0,1,.09-.09c.09,0,.13.11.24.18a.59.59,0,0,0,.76-.24,1.13,1.13,0,0,0,.09-.84,1.27,1.27,0,0,0-.19-.44.66.66,0,0,0-.55-.23A1,1,0,0,0,36,50c-.18.2-.24.29-.34.31Z"/><path class="cls-6" d="M34.46,59.29v-4a1.87,1.87,0,0,1,.47-1.46,1.83,1.83,0,0,1,1.25-.41,3.09,3.09,0,0,1,.84.12v.59a3.59,3.59,0,0,0-.75-.09,1.36,1.36,0,0,0-.71.14.7.7,0,0,0-.3.37,2.5,2.5,0,0,0-.08.74v4Z"/><path class="cls-4" d="M14.77,59.11H6.19a3.1,3.1,0,0,1-3-3.19V15.66a.09.09,0,1,1,.19,0V55.92a2.92,2.92,0,0,0,2.82,3h8.58a.09.09,0,1,1,0,.19Z"/><path class="cls-4" d="M32.78,59.11H25a.09.09,0,1,1,0-.19h7.73a.09.09,0,0,1,0,.19Z"/><path class="cls-4" d="M37.65,46.92a.09.09,0,0,1-.09-.09V6.36a2.92,2.92,0,0,0-2.82-3H26.27a.09.09,0,1,1,0-.19h8.47a3.1,3.1,0,0,1,3,3.19V46.82A.09.09,0,0,1,37.65,46.92Z"/><path class="cls-4" d="M15.8,3.36H8.45a.09.09,0,1,1,0-.19H15.8a.09.09,0,1,1,0,.19Z"/></g></g></svg>