<svg xmlns="http://www.w3.org/2000/svg" xmlns:xlink="http://www.w3.org/1999/xlink" viewBox="0 0 40.93 62.29"><defs><style>.cls-1{fill:none;}.cls-2{fill:#fff;}.cls-3{fill:#990028;}.cls-4{fill:#0c0a35;}.cls-5{fill:#b70027;}.cls-6{fill:#ffd6a1;}.cls-7{clip-path:url(#clip-path);}.cls-8{clip-path:url(#clip-path-2);}.cls-9{clip-path:url(#clip-path-3);}.cls-10{fill:#f70032;}.cls-11{clip-path:url(#clip-path-4);}.cls-12{clip-path:url(#clip-path-5);}.cls-13{clip-path:url(#clip-path-6);}.cls-14{fill:#222272;}.cls-15{fill:#d6002b;}</style><clipPath id="clip-path"><path class="cls-1" d="M19.57,16.44a.12.12,0,0,0,.13-.12.91.91,0,0,0-.18-.47l-.75-1.17a.73.73,0,0,0-.2-.23,1,1,0,0,0-.48-.16c-.63,0-1,0-1.67,0a.79.79,0,0,0-.37.07.82.82,0,0,0-.23.22,13.83,13.83,0,0,0-1.35,1.65C14.42,16.47,18,16.42,19.57,16.44Z"/></clipPath><clipPath id="clip-path-2"><path class="cls-1" d="M21.46,16.65a6.83,6.83,0,0,0,.21-.89c.09-.27.35-.54.62-.48a.07.07,0,0,1,.05.06,16.88,16.88,0,0,1,.06,1.87,1.63,1.63,0,0,1-.11.66,7.52,7.52,0,0,1-.89,1,17.89,17.89,0,0,1-2,1.63l-1.55,1.32a1.7,1.7,0,0,1-.5.33.57.57,0,0,1-.57-.07.8.8,0,0,1-.21-.52c-.12-1-.33-2.71-.44-3.64,0-.22.09,0,.58,0a11.48,11.48,0,0,0,3.38-.54A1.84,1.84,0,0,0,21.46,16.65Z"/></clipPath><clipPath id="clip-path-3"><path class="cls-1" d="M23.6,12.53l.16,1.55c.21,2,.41,4,.67,5.93,0,.09,0,.2.12.22a.25.25,0,0,0,.17,0,49.54,49.54,0,0,0,4.35-2.47,1.47,1.47,0,0,0,.7-.78,1.49,1.49,0,0,0-.21-1,49.11,49.11,0,0,1-2.37-5.23,8.82,8.82,0,0,0-.58-1.46,1.09,1.09,0,0,0-.29-.36,1.24,1.24,0,0,0-.44-.18A13.22,13.22,0,0,0,23,8.33a2.73,2.73,0,0,0,.12,1A25.79,25.79,0,0,1,23.6,12.53Z"/></clipPath><clipPath id="clip-path-4"><path class="cls-1" d="M21.81,45.84a.12.12,0,0,0-.12.12.9.9,0,0,0,.18.47l.75,1.17a.7.7,0,0,0,.2.23,1,1,0,0,0,.48.16c.63,0,1,0,1.67,0a.83.83,0,0,0,.37-.07.79.79,0,0,0,.23-.22A13.4,13.4,0,0,0,26.91,46C27,45.81,23.37,45.86,21.81,45.84Z"/></clipPath><clipPath id="clip-path-5"><path class="cls-1" d="M19.92,45.63a6.73,6.73,0,0,0-.21.89c-.09.28-.35.54-.62.48a.07.07,0,0,1-.05-.06A16.85,16.85,0,0,1,19,45.06a1.62,1.62,0,0,1,.11-.66,7.89,7.89,0,0,1,.9-1,18,18,0,0,1,2-1.63l1.55-1.33a1.69,1.69,0,0,1,.5-.33.57.57,0,0,1,.57.07.8.8,0,0,1,.21.52c.12,1,.33,2.71.44,3.64,0,.22-.09,0-.58,0a11.49,11.49,0,0,0-3.38.54A1.84,1.84,0,0,0,19.92,45.63Z"/></clipPath><clipPath id="clip-path-6"><path class="cls-1" d="M17.78,49.76l-.16-1.55c-.21-2-.41-4-.67-5.92,0-.09,0-.2-.12-.22a.24.24,0,0,0-.17,0,49.19,49.19,0,0,0-4.35,2.47,1.46,1.46,0,0,0-.7.78,1.5,1.5,0,0,0,.21,1,49.06,49.06,0,0,1,2.37,5.23A8.83,8.83,0,0,0,14.76,53a1.13,1.13,0,0,0,.29.36,1.27,1.27,0,0,0,.44.18,13.22,13.22,0,0,0,2.89.39,2.73,2.73,0,0,0-.12-1A25.76,25.76,0,0,1,17.78,49.76Z"/></clipPath></defs><title>Fichier 51</title><g id="Calque_2" data-name="Calque 2"><g id="Layer_1" data-name="Layer 1"><rect class="cls-2" x="0.09" y="0.09" width="40.74" height="62.1" rx="3.45" ry="3.45"/><path class="cls-2" d="M37.39,62.29H3.54A3.55,3.55,0,0,1,0,58.74V3.54A3.55,3.55,0,0,1,3.54,0H37.39a3.55,3.55,0,0,1,3.54,3.54v55.2A3.55,3.55,0,0,1,37.39,62.29ZM3.54.19A3.36,3.36,0,0,0,.19,3.54v55.2A3.36,3.36,0,0,0,3.54,62.1H37.39a3.36,3.36,0,0,0,3.36-3.36V3.54A3.36,3.36,0,0,0,37.39.19Z"/><path class="cls-3" d="M21.64,20.19a8.13,8.13,0,0,1,2.31.49c1.8.57,3.22.72,4.94,1.38C32.61,23.49,37,24.14,36.51,32c-.21,3.26-1.47,3.45-4,6.7-.55.71-3.81-1.2-4.87-1.18-6.09.12-10.62.3-16.72.43-.17,0-.57.15-.66,0-.4-.46-3.92-5.7-4.25-8.58a5.47,5.47,0,0,1,.79-3.76,11.08,11.08,0,0,1,2.57-2.18,14.28,14.28,0,0,1,3.73-1.55c2-.59,4.46-.94,6.51-1.42A8.18,8.18,0,0,1,21.64,20.19Z"/><path class="cls-3" d="M19.74,42.1a8.14,8.14,0,0,1-2.31-.49c-1.8-.57-3.28-.06-5-.66-4.83-1.68-7.85-5-6.45-13.1.56-3.22,2.08.39,4.61-2.87.55-.71,2.1-.19,3.16-.21,6.09-.12,10.63-.31,16.72-.43.17,0,.57-.15.66,0,.4.47,3.92,5.7,4.25,8.58a5.46,5.46,0,0,1-.79,3.76A11.13,11.13,0,0,1,32,38.82a14.27,14.27,0,0,1-3.73,1.55c-2,.59-4.46.94-6.51,1.42A8.26,8.26,0,0,1,19.74,42.1Z"/><path class="cls-4" d="M19.83,20.62a4.9,4.9,0,0,0-4.29.25,2.05,2.05,0,0,0-.74,2.8,2.07,2.07,0,0,0,2.8.74,16.24,16.24,0,0,0,2.5-1.58,1.41,1.41,0,0,0-.28-2.21Z"/><path class="cls-4" d="M21.06,19.77a4.4,4.4,0,0,0-1.65,2,4.25,4.25,0,0,0,.06,3.31,2.5,2.5,0,0,0,3.36,1.13A2.54,2.54,0,0,0,24,22.87c.29.68.06.13,0-.12a5.32,5.32,0,0,0-.37-1.23,3.88,3.88,0,0,0-.73-1.4,1.53,1.53,0,0,0-1.82-.36Z"/><path class="cls-4" d="M21.86,22.09a4.35,4.35,0,0,0,1.61,1.19,5.54,5.54,0,0,0,2.7.9,2,2,0,0,0,1.92-1.47,2.07,2.07,0,0,0-.92-2.26c-1.16-.89-4.12-.91-5.14.25a1.15,1.15,0,0,0-.18,1.39Z"/><path class="cls-5" d="M22.87,1.55c-.27.36-.53.73-.78,1.11a.24.24,0,0,1-.19-.1,4.31,4.31,0,0,1-.76-1c0-.08-.09-.18,0-.26a5.38,5.38,0,0,1,.71-.7A.4.4,0,0,1,22,.5a.4.4,0,0,1,.27.15l.34.37C22.77,1.16,23,1.4,22.87,1.55Z"/><path class="cls-6" d="M24.74,18.22a11.76,11.76,0,0,0,0,1.58c.07.78,0,1.11,0,1.81a1.88,1.88,0,0,1-1.34,1.44,4.36,4.36,0,0,1-3.53-.12,1.63,1.63,0,0,1-.65-.52,2.52,2.52,0,0,1-.1-.91,7,7,0,0,0-.3-2.54.52.52,0,0,0-.18-.3.57.57,0,0,0-.37,0,4.44,4.44,0,0,1-1.54-.14.88.88,0,0,1-.44-.22,1,1,0,0,1-.16-.71,10.35,10.35,0,0,1,.24-3.22,1.31,1.31,0,0,1-.62,0,.44.44,0,0,1-.33-.46.67.67,0,0,1,.21-.32,8,8,0,0,0,.83-1,1.61,1.61,0,0,0,.28-.59,1.75,1.75,0,0,0,0-.54l-.2-1.69c0-.25.15-.36.39-.43a15.24,15.24,0,0,1,4.94-.62,2.32,2.32,0,0,1,.66.1A2,2,0,0,1,23.63,10,9.71,9.71,0,0,1,24,11.28l.5,2.35a13.4,13.4,0,0,1,.41,3.06C24.86,17.2,24.76,17.71,24.74,18.22Z"/><path class="cls-5" d="M19.57,16.44a.12.12,0,0,0,.13-.12.91.91,0,0,0-.18-.47l-.75-1.17a.73.73,0,0,0-.2-.23,1,1,0,0,0-.48-.16c-.63,0-1,0-1.67,0a.79.79,0,0,0-.37.07.82.82,0,0,0-.23.22,13.83,13.83,0,0,0-1.35,1.65C14.42,16.47,18,16.42,19.57,16.44Z"/><path class="cls-5" d="M21.46,16.65a6.83,6.83,0,0,0,.21-.89c.09-.27.35-.54.62-.48a.07.07,0,0,1,.05.06,16.88,16.88,0,0,1,.06,1.87,1.63,1.63,0,0,1-.11.66,7.52,7.52,0,0,1-.89,1,17.89,17.89,0,0,1-2,1.63l-1.55,1.32a1.7,1.7,0,0,1-.5.33.57.57,0,0,1-.57-.07.8.8,0,0,1-.21-.52c-.12-1-.33-2.71-.44-3.64,0-.22.09,0,.58,0a11.48,11.48,0,0,0,3.38-.54A1.84,1.84,0,0,0,21.46,16.65Z"/><path class="cls-2" d="M23.09,12a3.88,3.88,0,0,1-1.9.69,3.46,3.46,0,0,1-1.88-.48.2.2,0,0,1,.06-.15,1.28,1.28,0,0,1,.47-.34,3.4,3.4,0,0,1,3,.06A.6.6,0,0,1,23.09,12Z"/><path class="cls-4" d="M23.07,10.62a4.35,4.35,0,0,0-3.36-.08,2,2,0,0,0-.75.52.48.48,0,0,0-.14.28.22.22,0,0,0,.19.24.34.34,0,0,0,.19-.08,3.9,3.9,0,0,1,3.58-.42A.22.22,0,0,0,23,11l.09-.18A.15.15,0,0,0,23.07,10.62Z"/><path class="cls-4" d="M20.71,11.84a.42.42,0,0,0,0,.44.41.41,0,0,0,.27.17.68.68,0,0,0,.53-.08.41.41,0,0,0,.14-.44c0-.12-.1-.33-.52-.32A.55.55,0,0,0,20.71,11.84Z"/><path class="cls-3" d="M23.6,12.53l.16,1.55c.21,2,.41,4,.67,5.93,0,.09,0,.2.12.22a.25.25,0,0,0,.17,0,49.54,49.54,0,0,0,4.35-2.47,1.47,1.47,0,0,0,.7-.78,1.49,1.49,0,0,0-.21-1,49.11,49.11,0,0,1-2.37-5.23,8.82,8.82,0,0,0-.58-1.46,1.09,1.09,0,0,0-.29-.36,1.24,1.24,0,0,0-.44-.18A13.22,13.22,0,0,0,23,8.33a2.73,2.73,0,0,0,.12,1A25.79,25.79,0,0,1,23.6,12.53Z"/><path class="cls-3" d="M25.23,6c.19.3.2.68.39,1s.41.51.42.82a1.1,1.1,0,0,1-.67.15h-8c-.15-.05-.1-.27,0-.41a30.77,30.77,0,0,1,2.88-3.93l.92-.9c.28-.28.64-.58,1-.47C22.31,2.29,23.11,2.76,25.23,6Z"/><g class="cls-7"><path class="cls-4" d="M15.35,14.37A4.44,4.44,0,0,0,15,15.51a15.31,15.31,0,0,0-.61,2c0,.07.08.15.14.08.68-.88.56-2.19,1-3.18,0-.06-.07-.1-.11,0Z"/><path class="cls-4" d="M16,13.44a4.8,4.8,0,0,0-.52,1.8c-.15.83-.44,1.62-.62,2.45a.08.08,0,0,0,.14.06c.83-1.15.74-2.95,1.06-4.28a0,0,0,0,0-.06,0Z"/><path class="cls-4" d="M16.34,13.5c-.15,1.19-.38,2.36-.45,3.56a0,0,0,0,0,.08,0,2.59,2.59,0,0,0,.35-1.41,11.14,11.14,0,0,0,.12-2.18.05.05,0,0,0-.1,0Z"/><path class="cls-4" d="M16.88,13.56a6.66,6.66,0,0,0-.18,1.92c0,.63-.14,1.25-.16,1.88a.08.08,0,0,0,.14,0c.63-1.12.16-2.59.32-3.8a.07.07,0,0,0-.13,0Z"/><path class="cls-4" d="M17.51,13.21a9.09,9.09,0,0,0-.12,2,8.56,8.56,0,0,0,.15,2.4.07.07,0,0,0,.14,0c.44-1.4-.22-2.95-.06-4.37,0-.06-.1-.08-.11,0Z"/><path class="cls-4" d="M18.23,13.6A9.45,9.45,0,0,0,18.44,17a.07.07,0,0,0,.13,0c.24-1.09-.19-2.32-.23-3.42a.06.06,0,0,0-.11,0Z"/><path class="cls-4" d="M19,14.22A6.42,6.42,0,0,0,19.09,17s.09.07.11,0a2.23,2.23,0,0,0,.06-1.18c-.06-.54-.06-1.08-.13-1.62a.06.06,0,0,0-.13,0Z"/></g><g class="cls-8"><path class="cls-4" d="M16.6,17.28a21.39,21.39,0,0,0,.22,3.5A5.81,5.81,0,0,0,17.18,23,.07.07,0,0,0,17.3,23c-.38-1.84-.38-3.81-.61-5.68a0,0,0,0,0-.09,0Z"/><path class="cls-4" d="M17.28,17.56a13,13,0,0,0,.5,5.11s.09.05.1,0a6,6,0,0,0-.07-2c-.14-1-.28-2.07-.42-3.1,0-.07-.11,0-.11,0Z"/><path class="cls-4" d="M18.13,17.48a23.7,23.7,0,0,0,.52,4.8.08.08,0,0,0,.15,0,7.11,7.11,0,0,0-.19-2.3c-.11-.83-.31-1.67-.38-2.49a.05.05,0,0,0-.1,0Z"/><path class="cls-4" d="M18.81,17.21a14.71,14.71,0,0,0,.56,4.62c0,.14.3.13.28,0-.16-1.54-.55-3-.69-4.58a.07.07,0,0,0-.14,0Z"/><path class="cls-4" d="M19.54,17.08a9.09,9.09,0,0,0,.6,3.62s.06,0,.06,0c0-1.21-.44-2.39-.55-3.61a.06.06,0,0,0-.12,0Z"/><path class="cls-4" d="M20.27,16.86A15.51,15.51,0,0,0,20.84,21c0,.15.26.11.26,0,0-1.39-.71-2.68-.78-4.05a0,0,0,0,0-.06,0Z"/><path class="cls-4" d="M20.79,16.21a13.4,13.4,0,0,0,.59,4.15.07.07,0,0,0,.13,0,3.59,3.59,0,0,0-.07-1.65c-.17-.84-.38-1.67-.58-2.51a0,0,0,0,0-.07,0Z"/><path class="cls-4" d="M21.27,15.83c.15.56.15,1.21.26,1.79a7.87,7.87,0,0,0,.55,1.95c0,.09.16,0,.17,0a7.94,7.94,0,0,0-.42-2.28,3.39,3.39,0,0,0-.48-1.45,0,0,0,0,0-.07,0Z"/><path class="cls-4" d="M21.91,14.85c-.13,1.55.4,3,.57,4.5,0,0,.07.06.08,0,.26-1.48-.33-3.06-.53-4.51a.06.06,0,0,0-.12,0Z"/></g><g class="cls-9"><path class="cls-4" d="M23.62,8.36a24.75,24.75,0,0,0,.58,6.4c.19,1.09.31,2.19.46,3.28a8,8,0,0,0,.58,2.68c.1.19.38.06.34-.14-.42-1.83-.6-3.7-.91-5.55-.21-1.22-.46-2.43-.61-3.67a15.67,15.67,0,0,0-.41-3s0,0,0,0Z"/><path class="cls-4" d="M24.14,9c.32,1.83.46,3.7.79,5.53.17,1,.29,1.92.48,2.88A20.42,20.42,0,0,1,26,20.44l.37-.21-.07,0a.16.16,0,0,0-.21.05l-.05.07c-.24.32.48.55.45.12A13,13,0,0,0,26,17.92c-.27-1.06-.41-2.13-.62-3.2s-.49-2.18-.69-3.29a9.34,9.34,0,0,0-.55-2.5s0,0,0,0Z"/><path class="cls-4" d="M24.69,8.5a20.21,20.21,0,0,0,.42,2.4q.21,1.45.5,2.88c.2,1,.46,2,.7,2.93s.3,2.06.63,3a.23.23,0,0,0,.44-.12c-.4-1.89-.83-3.74-1.31-5.61A41.34,41.34,0,0,0,24.71,8.5Z"/><path class="cls-4" d="M25.38,8.83a31.33,31.33,0,0,0,1.21,5.59c.28,1.1.65,2.17.94,3.26a5.19,5.19,0,0,0,.84,2.4c.13.14.41,0,.33-.19C28,18.11,27.59,16.14,27,14.3c-.31-1-.57-2-.87-3.05a11.15,11.15,0,0,0-.75-2.43,0,0,0,0,0,0,0Z"/><path class="cls-4" d="M26.07,9.18a5.25,5.25,0,0,0,.36,2c.35,1.06.68,2.13,1.11,3.16.35.85.76,1.68,1.13,2.52a10.19,10.19,0,0,0,1.23,2.63c.07.09.2,0,.18-.1a20,20,0,0,0-2-4.86A24.68,24.68,0,0,1,27,11.77a10.61,10.61,0,0,1-.79-2.59,0,0,0,0,0-.09,0Z"/><path class="cls-4" d="M26.75,9.17c-.74.54.78,3.2,1,3.75.58,1.2,1.16,2.39,1.71,3.59a5.52,5.52,0,0,0,1.34,2.15.21.21,0,0,0,.28-.28,45.67,45.67,0,0,1-2.3-4.43c-.49-.92-1-1.83-1.41-2.79-.22-.53-.75-1.36-.61-1.95,0,0,0-.06-.05,0Z"/></g><path class="cls-5" d="M29.14,7.27a22.48,22.48,0,0,1-1.87,3,.63.63,0,0,1-.23.22.63.63,0,0,1-.31,0c-3.39-.31-6.85-.85-10.18-.11a18.56,18.56,0,0,0-2-2.87.6.6,0,0,1-.18-.36c0-.27.33-.39.6-.44a50.56,50.56,0,0,1,10.78-.22,19.33,19.33,0,0,1,3.38.37C29.27,7,29.21,7.14,29.14,7.27Z"/><path class="cls-10" d="M14.43,7.24A13.52,13.52,0,0,0,16.57,8.5c.4.15.45-.23.55-.4a8.77,8.77,0,0,1,1.06-1.38.07.07,0,0,1,.09,0,3.52,3.52,0,0,1,.85.72,5.8,5.8,0,0,0,.59.63.32.32,0,0,0,.23.13.33.33,0,0,0,.2-.14c.34-.4,1-1.43,1.38-1.4s.35.52,1,1.47c.13.19.25,0,.75-.4s.76-.63,1.26-1a.12.12,0,0,1,.13,0c.51.31.66,1,1,1.46a.37.37,0,0,0,.23.15.43.43,0,0,0,.29-.12l1.22-1a.09.09,0,0,1,.14,0c.3.59.6,1.68.68,1.56a10.94,10.94,0,0,0,1-1.56c.17-.37-.05-.55-.11-.56A78,78,0,0,0,19,5.87a16.19,16.19,0,0,0-4.67.69A.6.6,0,0,0,14.43,7.24Z"/><path class="cls-10" d="M21.66,15.09a.9.9,0,1,0-.9-.9.91.91,0,0,0,.9.9Z"/><path class="cls-4" d="M16.21,14.4a8.73,8.73,0,0,0,1.32,0,1,1,0,0,0,.78-.29.59.59,0,0,0,.07-.62.41.41,0,0,0-.63-.14.1.1,0,0,0,0,.15c.11.11.41.09.42.26s-.23.33-.42.37c-.51.1-1,.06-1.56.15-.07,0,0,.11,0,.11Z"/><path class="cls-5" d="M19.6,5.32a1.13,1.13,0,0,0,.38,0c.09,0,.3-.11.26-.24S20.06,5,20,5a2.44,2.44,0,0,1-.4.18.05.05,0,0,0,0,.1Z"/><path class="cls-5" d="M20.27,4.41a.94.94,0,0,0,.14.21.25.25,0,0,0,.21.11.06.06,0,0,0,.06-.07.28.28,0,0,0-.12-.19,1.76,1.76,0,0,0-.2-.15c-.06,0-.11,0-.09.09Z"/><path class="cls-5" d="M20.94,3.63a.63.63,0,0,0,.36.3.06.06,0,0,0,.07-.07A.5.5,0,0,0,21,3.54a.06.06,0,0,0-.07.09Z"/><path class="cls-5" d="M21.57,4.65c.08,0,.14.08.22.08s.05,0,0-.05-.14-.15-.23-.17-.14.13,0,.15Z"/><path class="cls-5" d="M21,5.3a1.16,1.16,0,0,0,.21.17,1,1,0,0,0,.24.13.11.11,0,0,0,.13-.17c-.08-.17-.33-.19-.48-.26A.08.08,0,0,0,21,5.3Z"/><path class="cls-5" d="M21.89,3.53c.13-.06.28,0,.38-.13a.06.06,0,0,0,0-.09.45.45,0,0,0-.43.14c0,.05,0,.12.07.09Z"/><path class="cls-5" d="M21.54,3c.11-.08.38-.1.39-.27a.07.07,0,0,0,0-.06c-.15-.1-.36.14-.43.25s0,.11.07.07Z"/><path class="cls-5" d="M22.83,3.36a1.14,1.14,0,0,0,.1.23l.08.1s.06,0,.09,0,.06,0,.05-.05,0-.05,0-.08l-.07-.1a.53.53,0,0,0-.2-.15,0,0,0,0,0,0,0Z"/><path class="cls-5" d="M22.51,4.23a2.24,2.24,0,0,0,.24.3.09.09,0,0,0,.08,0,.07.07,0,0,0,.05,0,.09.09,0,0,0,0-.11c-.08-.09-.19-.16-.27-.26a.06.06,0,0,0-.09.07Z"/><path class="cls-5" d="M22.53,5.35l.21.19c.07.06.14.12.24.09a.07.07,0,0,0,0-.06c0-.1-.08-.15-.15-.21a1.1,1.1,0,0,0-.27-.14c-.07,0-.13.08-.08.13Z"/><path class="cls-5" d="M23.58,4.29a1.57,1.57,0,0,1-.08.3.26.26,0,0,0,0,.25.07.07,0,0,0,.08,0c.16-.09.06-.41,0-.55s-.06,0-.06,0Z"/><path class="cls-5" d="M24,5.27c0,.13-.09.35,0,.43h0c.11-.08.07-.26.09-.39s-.15-.16-.17,0Z"/><path class="cls-4" d="M17,9.36l.13-.06a.32.32,0,0,0,0-.54L17,8.7a.34.34,0,1,0,0,.66Z"/><path class="cls-4" d="M19.79,9.17a.34.34,0,1,0-.34-.34.34.34,0,0,0,.34.34Z"/><path class="cls-4" d="M22.5,9h0a.29.29,0,1,0-.11-.4h0a.28.28,0,0,0,.1.38Z"/><path class="cls-4" d="M26.09,9.34h0a.29.29,0,0,0,0-.5h0a.3.3,0,1,0,0,.52Z"/><path class="cls-5" d="M15,24.67a.56.56,0,1,0-.56-.56.57.57,0,0,0,.56.56Z"/><path class="cls-5" d="M21.8,27.1a.51.51,0,1,0-.51-.51.52.52,0,0,0,.51.51Z"/><path class="cls-5" d="M28,23.61h0a.38.38,0,0,0,.17-.64l0,0a.4.4,0,0,0-.56.56.42.42,0,0,0,.39.1Z"/><path class="cls-5" d="M21.61,25a.31.31,0,0,0-.17.28.27.27,0,0,0,.41.23h0l-.14,0h0l-.14,0h0a.32.32,0,0,0,.3,0,.3.3,0,1,0-.3-.52Z"/><path class="cls-5" d="M21.76,24.46a.16.16,0,0,0,0-.32.16.16,0,0,0,0,.32Z"/><path class="cls-5" d="M16.15,23.42h0l-.1.06h0a.23.23,0,0,0,.16-.16.23.23,0,0,0-.1-.25L16,23a.24.24,0,1,0,.11.4Z"/><path class="cls-5" d="M16.74,22.83a.13.13,0,0,0,0-.26.13.13,0,0,0,0,.26Z"/><path class="cls-5" d="M27,23a.26.26,0,0,0,0-.53A.26.26,0,0,0,27,23Z"/><path class="cls-5" d="M26.34,22.5a.19.19,0,0,0,0-.38.19.19,0,0,0,0,.38Z"/><path class="cls-10" d="M16.43,9.75a.93.93,0,0,1,.11.3.12.12,0,0,0,.24-.07.78.78,0,0,0-.19-.35c-.08-.08-.22,0-.15.12Z"/><path class="cls-10" d="M17,9.57a2.14,2.14,0,0,0,.15.37.1.1,0,0,0,.11,0l0,0a.1.1,0,0,0,0-.12,2.91,2.91,0,0,0-.17-.33c0-.07-.16,0-.14.06Z"/><path class="cls-10" d="M17.63,9.37a.6.6,0,0,0,.11.58A.15.15,0,0,0,18,9.84a1,1,0,0,0-.11-.31.31.31,0,0,0-.19-.19.06.06,0,0,0-.07,0Z"/><path class="cls-10" d="M18.23,9.4a1.1,1.1,0,0,0,.08.47.11.11,0,0,0,.21-.06,1,1,0,0,0-.13-.45c0-.07-.16,0-.15,0Z"/><path class="cls-10" d="M18.85,9.32a.91.91,0,0,0,.08.48.14.14,0,0,0,.26-.07,1.18,1.18,0,0,0-.12-.44.11.11,0,0,0-.21,0Z"/><path class="cls-10" d="M19.48,9.38a.81.81,0,0,0,0,.4.12.12,0,0,0,.23-.06,1.26,1.26,0,0,0-.07-.37.1.1,0,0,0-.19,0Z"/><path class="cls-10" d="M20.16,9.26a.5.5,0,0,0,0,.44c.06.16.33.15.32,0a.58.58,0,0,0-.17-.41.08.08,0,0,0-.12,0Z"/><path class="cls-10" d="M20.81,9.35a.87.87,0,0,0,0,.36.11.11,0,0,0,.11.08H21A.11.11,0,0,0,21,9.69c0-.11,0-.21,0-.31s-.14-.12-.16,0Z"/><path class="cls-10" d="M21.28,9.35c0,.1,0,.19,0,.29s.07.25.19.21.1-.42,0-.56a.12.12,0,0,0-.22.06Z"/><path class="cls-10" d="M22.06,9.33c0,.15-.11.37,0,.49a.11.11,0,0,0,.17,0,.74.74,0,0,0,0-.47.09.09,0,0,0-.16,0Z"/><path class="cls-10" d="M22.68,9.3a.56.56,0,0,0,0,.56c.05.07.15,0,.17,0s0-.3,0-.44-.12-.18-.18-.07Z"/><path class="cls-10" d="M23.23,9.4c0,.13-.11.55.13.55s.09-.14.09-.21,0-.23,0-.35a.1.1,0,0,0-.2,0Z"/><path class="cls-10" d="M23.77,9.42c-.06.15-.18.44,0,.57a.15.15,0,0,0,.2,0A.34.34,0,0,0,24,9.7.76.76,0,0,0,24,9.39c0-.1-.17,0-.2,0Z"/><path class="cls-10" d="M24.46,9.5c-.11.15-.19.48,0,.6a.13.13,0,0,0,.13,0c.18-.12.09-.4.06-.58s-.14-.09-.18,0Z"/><path class="cls-10" d="M25.07,9.55A2.6,2.6,0,0,0,25,10c0,.18.28.18.28,0a1.83,1.83,0,0,0,0-.43.09.09,0,0,0-.16,0Z"/><path class="cls-10" d="M25.69,9.6a.48.48,0,0,0-.15.56c.06.12.22.07.26,0a1,1,0,0,0,0-.29.31.31,0,0,0-.07-.22.06.06,0,0,0-.07,0Z"/><path class="cls-10" d="M26.14,9.75a.74.74,0,0,0-.08.44.11.11,0,0,0,.2,0c.09-.12,0-.31,0-.45a.07.07,0,0,0-.15,0Z"/><path class="cls-10" d="M26.72,9.75c-.1.17-.24.37-.15.57a.16.16,0,0,0,.25,0,.71.71,0,0,0,.08-.58.1.1,0,0,0-.19,0Z"/><path class="cls-5" d="M29.71,30.06a2.14,2.14,0,0,1-1.24-.71,2.69,2.69,0,0,1-.67-1.23,2,2,0,0,1,.4-1.54c.43-.75,1.11-.92,1.92-1.24a16.21,16.21,0,0,1,4.34-1.11,2.2,2.2,0,0,1,1.71.52,1.91,1.91,0,0,1,.46,1.3,2.75,2.75,0,0,1-1.1,2.52,9.22,9.22,0,0,1-2.21.91C31.12,30.16,30.54,30.21,29.71,30.06Z"/><path class="cls-4" d="M34.95,28.1a2.05,2.05,0,0,0,.77-1.74c0-.57-.31-1.61-1-1.54a.35.35,0,0,0-.34.44c.09.38.35.7.45,1.1a1.79,1.79,0,0,1-.19,1.39c-.15.21.15.5.35.35Z"/><path class="cls-4" d="M34,28.15c.09-.83.14-2.08-.57-2.66a.41.41,0,0,0-.67.39c.1.39.28.76.39,1.15a5.94,5.94,0,0,0,.43,1.23c.12.22.4.09.43-.12Z"/><path class="cls-4" d="M32.81,28.52a3.92,3.92,0,0,0-.12-1.38c-.08-.47-.26-1.31-.82-1.43a.54.54,0,0,0-.66.66,2.69,2.69,0,0,0,.27.5c.13.25.24.5.36.75s.34.9.74,1a.19.19,0,0,0,.23-.13Z"/><path class="cls-4" d="M31.71,28.59a1.7,1.7,0,0,1-.69-1,4.87,4.87,0,0,0-.23-1.24.3.3,0,0,0-.52,0c-.55.77.28,3,1.42,2.45a.14.14,0,0,0,0-.23Z"/><path class="cls-4" d="M30.16,29.09A12.26,12.26,0,0,1,29.58,28c-.16-.53.27-1,.12-1.5a.26.26,0,0,0-.32-.18c-1.21.46-.62,2.82.57,3,.11,0,.27-.08.21-.21Z"/><path class="cls-10" d="M35.31,26.48a.17.17,0,0,0-.09-.32.17.17,0,0,0,.09.32Z"/><path class="cls-10" d="M33.55,27a.19.19,0,0,0-.1-.37.19.19,0,0,0,.1.37Z"/><path class="cls-10" d="M32.25,27.1s0,0,0,0a0,0,0,0,0,0,0Z"/><path class="cls-10" d="M32.06,27h0c-.18.16.09.43.27.26h0c.17-.17-.09-.41-.27-.26Z"/><path class="cls-10" d="M30.56,27.31h0c-.24,0-.14.39.07.27h0a.14.14,0,0,0-.07-.26Z"/><path class="cls-10" d="M29.24,28a.23.23,0,0,0-.12-.45.23.23,0,0,0,.12.45Z"/><path class="cls-10" d="M34.42,28.51l0,0a.18.18,0,0,0,.08.29l.05,0c.16.06.3-.12.26-.26a.22.22,0,0,0-.36-.1Z"/><path class="cls-10" d="M33.89,29a.18.18,0,0,0-.09-.34.18.18,0,0,0,.09.34Z"/><path class="cls-10" d="M33.13,29.2a.19.19,0,0,0-.1-.37.19.19,0,0,0,.1.38Z"/><path class="cls-10" d="M32.32,29.42a.2.2,0,0,0-.1-.38.2.2,0,0,0,.1.38Z"/><path class="cls-10" d="M31.29,29.36h0c-.12.16.08.36.24.31s.23-.32,0-.39h0a.2.2,0,0,0-.26.07Z"/><path class="cls-10" d="M30.84,29.81a.18.18,0,0,0-.1-.36.18.18,0,0,0,.1.36Z"/><path class="cls-10" d="M30.2,29.9a.15.15,0,0,0-.08-.29.15.15,0,0,0,.08.29Z"/><path class="cls-10" d="M34.09,24.82a.12.12,0,0,0-.06-.23.12.12,0,0,0,.06.23Z"/><path class="cls-10" d="M33.26,24.79h0c-.23,0-.12.44.1.35h0a.18.18,0,0,0-.09-.34Z"/><path class="cls-10" d="M32.5,25.37a.19.19,0,0,0-.1-.36.19.19,0,0,0,.1.36Z"/><path class="cls-10" d="M31.74,25.58a.18.18,0,0,0-.1-.36.18.18,0,0,0,.1.36Z"/><path class="cls-10" d="M30.77,25.52v0a.16.16,0,0,0,.06.22h0a.18.18,0,1,0-.07-.24Z"/><path class="cls-10" d="M30.21,26a.18.18,0,0,0-.09-.35.18.18,0,0,0,.09.35Z"/><path class="cls-10" d="M29.32,25.87l0,0a.12.12,0,0,0,.06.21h0c.21,0,.11-.36-.06-.23Z"/><path class="cls-5" d="M12,32.32a2.15,2.15,0,0,1,1.24.71,2.67,2.67,0,0,1,.67,1.23,2,2,0,0,1-.4,1.54c-.43.75-1.11.92-1.91,1.24a16.35,16.35,0,0,1-4.34,1.11,2.22,2.22,0,0,1-1.71-.52A1.91,1.91,0,0,1,5,36.33a2.75,2.75,0,0,1,1.1-2.53,9.32,9.32,0,0,1,2.21-.91C10.55,32.22,11.13,32.16,12,32.32Z"/><path class="cls-4" d="M6.72,34.28A2.06,2.06,0,0,0,5.95,36c0,.57.31,1.61,1,1.54a.35.35,0,0,0,.34-.44c-.1-.38-.36-.7-.45-1.1a1.8,1.8,0,0,1,.19-1.39c.15-.21-.15-.5-.36-.35Z"/><path class="cls-4" d="M7.62,34.23c-.09.83-.14,2.08.57,2.66a.41.41,0,0,0,.67-.4c-.1-.39-.28-.76-.39-1.15A6,6,0,0,0,8,34.12c-.12-.22-.4-.09-.43.12Z"/><path class="cls-4" d="M8.86,33.86A3.9,3.9,0,0,0,9,35.24c.08.47.26,1.31.82,1.43a.54.54,0,0,0,.66-.66,2.68,2.68,0,0,0-.27-.5c-.13-.25-.24-.5-.36-.75s-.34-.9-.74-1a.19.19,0,0,0-.23.13Z"/><path class="cls-4" d="M10,33.79a1.72,1.72,0,0,1,.7,1A4.81,4.81,0,0,0,10.89,36a.3.3,0,0,0,.52,0c.55-.77-.28-3-1.42-2.45a.14.14,0,0,0,0,.22Z"/><path class="cls-4" d="M11.51,33.29c.16.39.45.68.58,1.08s-.27,1-.12,1.5a.26.26,0,0,0,.32.18c1.21-.45.62-2.82-.57-3-.11,0-.27.08-.21.21Z"/><path class="cls-10" d="M6.36,35.9a.17.17,0,0,0,.09.32.17.17,0,0,0-.09-.32Z"/><path class="cls-10" d="M8.12,35.39a.19.19,0,0,0,.1.38.19.19,0,0,0-.1-.37Z"/><path class="cls-10" d="M9.42,35.28s0,0,0,0,0,0,0,0Z"/><path class="cls-10" d="M9.61,35.41h0c.18-.16-.09-.43-.27-.26h0c-.17.17.09.42.27.26Z"/><path class="cls-10" d="M11.11,35.07h0c.24,0,.14-.38-.07-.27h0a.14.14,0,0,0,.07.26Z"/><path class="cls-10" d="M12.44,34.33a.23.23,0,0,0,.12.45.23.23,0,0,0-.12-.45Z"/><path class="cls-10" d="M7.25,33.87l0,0a.18.18,0,0,0-.08-.29l-.05,0c-.16-.06-.3.12-.26.26a.22.22,0,0,0,.36.09Z"/><path class="cls-10" d="M7.78,33.4a.18.18,0,0,0,.09.34.18.18,0,0,0-.09-.34Z"/><path class="cls-10" d="M8.54,33.18a.19.19,0,0,0,.1.37.19.19,0,0,0-.1-.37Z"/><path class="cls-10" d="M9.35,33a.2.2,0,0,0,.1.38.2.2,0,0,0-.1-.38Z"/><path class="cls-10" d="M10.38,33v0c.12-.15-.08-.36-.24-.31s-.23.32,0,.39h0a.2.2,0,0,0,.26-.07Z"/><path class="cls-10" d="M10.83,32.57a.18.18,0,0,0,.1.36.18.18,0,0,0-.1-.36Z"/><path class="cls-10" d="M11.47,32.48a.15.15,0,0,0,.08.29.15.15,0,0,0-.08-.29Z"/><path class="cls-10" d="M7.58,37.56a.12.12,0,0,0,.06.23.12.12,0,0,0-.06-.23Z"/><path class="cls-10" d="M8.41,37.59h0c.23,0,.12-.44-.1-.35h0a.18.18,0,0,0,.09.34Z"/><path class="cls-10" d="M9.17,37a.19.19,0,0,0,.1.36.19.19,0,0,0-.1-.36Z"/><path class="cls-10" d="M9.93,36.8a.18.18,0,0,0,.1.35.18.18,0,0,0-.1-.35Z"/><path class="cls-10" d="M10.9,36.86v0a.16.16,0,0,0-.06-.22h0a.18.18,0,1,0,.07.24Z"/><path class="cls-10" d="M11.46,36.39a.18.18,0,0,0,.1.35.18.18,0,0,0-.1-.35Z"/><path class="cls-10" d="M12.35,36.51l0,0a.12.12,0,0,0-.06-.21h0c-.21,0-.11.36.06.23Z"/><path class="cls-10" d="M24.75,25.79h0a.15.15,0,0,0,.22,0h0a.17.17,0,1,0-.25,0Z"/><path class="cls-10" d="M6.69,32.59h0a.16.16,0,0,0,.22,0h0a.17.17,0,1,0-.25,0Z"/><path class="cls-10" d="M15.19,26.44h0a.16.16,0,0,0,.22,0h0a.17.17,0,1,0-.25,0Z"/><path class="cls-10" d="M18.84,27.14h0a.16.16,0,0,0,.22,0h0a.17.17,0,1,0-.25,0Z"/><path class="cls-10" d="M27.28,26.79h0a.12.12,0,0,0,0-.18h0a.14.14,0,1,0,0,.2Z"/><path class="cls-10" d="M10,31.74h0a.13.13,0,0,0,0-.18h0a.14.14,0,1,0,0,.2Z"/><path class="cls-10" d="M25.9,29.29h0a.13.13,0,0,0,0-.18h0a.14.14,0,1,0,0,.2Z"/><path class="cls-10" d="M18.25,25.54h0a.12.12,0,0,0,0-.18h0a.14.14,0,1,0,0,.2Z"/><path class="cls-10" d="M13.7,22.7h0a.13.13,0,0,0,0-.18h0a.14.14,0,1,0,0,.2Z"/><path class="cls-10" d="M13.05,24.54h0a.12.12,0,0,0,0-.18h0a.14.14,0,1,0,0,.2Z"/><path class="cls-10" d="M28.6,24.83v0a.12.12,0,0,0,.22,0v0c.08-.2-.32-.2-.24,0Z"/><path class="cls-10" d="M33.67,30.44v0a.12.12,0,0,0,.22,0v0c.08-.2-.32-.2-.24,0Z"/><path class="cls-10" d="M30.76,24.44a.27.27,0,0,0,0-.25.25.25,0,1,0,0,.25Z"/><path class="cls-10" d="M22.61,29.39a.27.27,0,0,0,0-.25.25.25,0,0,0-.39-.05.26.26,0,0,0,0,.36.25.25,0,0,0,.39-.05Z"/><path class="cls-10" d="M24.11,28a.19.19,0,0,0,0-.39.19.19,0,0,0,0,.39Z"/><path class="cls-10" d="M7,30.59a.2.2,0,0,0,0-.39.2.2,0,0,0,0,.39Z"/><path class="cls-4" d="M21.55,41.66a4.91,4.91,0,0,0,4.29-.25,2,2,0,1,0-2.07-3.54,16.23,16.23,0,0,0-2.5,1.58,1.41,1.41,0,0,0,.28,2.21Z"/><path class="cls-4" d="M20.31,42.52a4.41,4.41,0,0,0,1.65-2,4.25,4.25,0,0,0-.06-3.31,2.51,2.51,0,0,0-3.36-1.12,2.54,2.54,0,0,0-1.12,3.36c-.29-.67-.06-.13,0,.12a5.31,5.31,0,0,0,.37,1.23,3.89,3.89,0,0,0,.73,1.4,1.53,1.53,0,0,0,1.82.36Z"/><path class="cls-4" d="M19.52,40.19A4.35,4.35,0,0,0,17.91,39a5.52,5.52,0,0,0-2.71-.9,2,2,0,0,0-1.93,1.47,2.06,2.06,0,0,0,.92,2.25c1.16.89,4.12.91,5.14-.25a1.15,1.15,0,0,0,.18-1.39Z"/><path class="cls-5" d="M18.5,60.73q.41-.54.78-1.11c.07,0,.14,0,.19.1a4.29,4.29,0,0,1,.76,1c0,.08.09.18,0,.26a5.78,5.78,0,0,1-.71.69.3.3,0,0,1-.49-.05l-.34-.37C18.61,61.12,18.39,60.88,18.5,60.73Z"/><path class="cls-6" d="M16.64,44.06a11.86,11.86,0,0,0,0-1.58c-.07-.78,0-1.11,0-1.81a1.88,1.88,0,0,1,1.34-1.44,4.37,4.37,0,0,1,3.53.13,1.65,1.65,0,0,1,.65.52,2.52,2.52,0,0,1,.1.91,7,7,0,0,0,.3,2.54.52.52,0,0,0,.18.3.56.56,0,0,0,.37,0,4.44,4.44,0,0,1,1.54.14A.88.88,0,0,1,25,44a1,1,0,0,1,.16.71A10.39,10.39,0,0,1,25,48a1.28,1.28,0,0,1,.62,0,.45.45,0,0,1,.33.46.67.67,0,0,1-.21.32,8,8,0,0,0-.83,1,1.61,1.61,0,0,0-.28.59,1.78,1.78,0,0,0,0,.54l.2,1.69c0,.25-.15.36-.39.43a15.29,15.29,0,0,1-4.94.62,2.19,2.19,0,0,1-.66-.1,2,2,0,0,1-1.07-1.27A9.72,9.72,0,0,1,17.42,51l-.5-2.35a13.4,13.4,0,0,1-.41-3.06C16.52,45.09,16.61,44.58,16.64,44.06Z"/><path class="cls-5" d="M21.81,45.84a.12.12,0,0,0-.12.12.9.9,0,0,0,.18.47l.75,1.17a.7.7,0,0,0,.2.23,1,1,0,0,0,.48.16c.63,0,1,0,1.67,0a.83.83,0,0,0,.37-.07.79.79,0,0,0,.23-.22A13.4,13.4,0,0,0,26.91,46C27,45.81,23.37,45.86,21.81,45.84Z"/><path class="cls-5" d="M19.92,45.63a6.73,6.73,0,0,0-.21.89c-.09.28-.35.54-.62.48a.07.07,0,0,1-.05-.06A16.85,16.85,0,0,1,19,45.06a1.62,1.62,0,0,1,.11-.66,7.89,7.89,0,0,1,.9-1,18,18,0,0,1,2-1.63l1.55-1.33a1.69,1.69,0,0,1,.5-.33.57.57,0,0,1,.57.07.8.8,0,0,1,.21.52c.12,1,.33,2.71.44,3.64,0,.22-.09,0-.58,0a11.49,11.49,0,0,0-3.38.54A1.84,1.84,0,0,0,19.92,45.63Z"/><path class="cls-2" d="M18.29,50.29a3.84,3.84,0,0,1,1.9-.69,3.44,3.44,0,0,1,1.88.47.2.2,0,0,1-.05.15,1.26,1.26,0,0,1-.47.34,3.4,3.4,0,0,1-3-.06A.6.6,0,0,1,18.29,50.29Z"/><path class="cls-4" d="M18.31,51.66a4.35,4.35,0,0,0,3.36.08,2,2,0,0,0,.76-.52.49.49,0,0,0,.14-.28.22.22,0,0,0-.19-.24.35.35,0,0,0-.19.08,3.9,3.9,0,0,1-3.58.42.22.22,0,0,0-.27.1l-.09.17A.15.15,0,0,0,18.31,51.66Z"/><path class="cls-4" d="M20.67,50.44a.42.42,0,0,0,0-.44.41.41,0,0,0-.27-.17.68.68,0,0,0-.53.08.41.41,0,0,0-.15.44c0,.12.11.33.52.32A.55.55,0,0,0,20.67,50.44Z"/><path class="cls-3" d="M17.78,49.76l-.16-1.55c-.21-2-.41-4-.67-5.92,0-.09,0-.2-.12-.22a.24.24,0,0,0-.17,0,49.19,49.19,0,0,0-4.35,2.47,1.46,1.46,0,0,0-.7.78,1.5,1.5,0,0,0,.21,1,49.06,49.06,0,0,1,2.37,5.23A8.83,8.83,0,0,0,14.76,53a1.13,1.13,0,0,0,.29.36,1.27,1.27,0,0,0,.44.18,13.22,13.22,0,0,0,2.89.39,2.73,2.73,0,0,0-.12-1A25.76,25.76,0,0,1,17.78,49.76Z"/><path class="cls-3" d="M16.15,56.26c-.19-.3-.2-.68-.39-1s-.41-.51-.42-.82a1.1,1.1,0,0,1,.67-.15h8c.15.06.1.27,0,.41a30.87,30.87,0,0,1-2.88,3.93l-.92.9c-.28.28-.64.58-1,.47C19.07,60,18.27,59.52,16.15,56.26Z"/><g class="cls-11"><path class="cls-4" d="M26,47.91a4.47,4.47,0,0,0,.39-1.14,15.51,15.51,0,0,0,.61-2c0-.07-.08-.15-.14-.08-.68.88-.56,2.19-1,3.18,0,.06.07.1.11,0Z"/><path class="cls-4" d="M25.41,48.84a4.79,4.79,0,0,0,.52-1.8c.15-.83.44-1.62.62-2.45a.08.08,0,0,0-.14-.06c-.83,1.15-.74,2.95-1.06,4.29a0,0,0,0,0,.06,0Z"/><path class="cls-4" d="M25,48.78c.15-1.19.38-2.36.44-3.56a0,0,0,0,0-.08,0,2.58,2.58,0,0,0-.35,1.41,11.17,11.17,0,0,0-.12,2.18.05.05,0,0,0,.1,0Z"/><path class="cls-4" d="M24.5,48.72a6.66,6.66,0,0,0,.18-1.92c0-.63.14-1.25.16-1.88a.08.08,0,0,0-.14,0c-.63,1.13-.16,2.59-.32,3.8a.07.07,0,0,0,.13,0Z"/><path class="cls-4" d="M23.87,49.07a9.14,9.14,0,0,0,.12-2,8.54,8.54,0,0,0-.15-2.4.07.07,0,0,0-.14,0c-.44,1.4.22,2.95.06,4.37,0,.06.1.07.11,0Z"/><path class="cls-4" d="M23.15,48.68a9.46,9.46,0,0,0-.21-3.43.07.07,0,0,0-.13,0c-.24,1.09.19,2.32.23,3.43a.06.06,0,0,0,.11,0Z"/><path class="cls-4" d="M22.36,48.06a6.42,6.42,0,0,0-.08-2.78s-.09-.07-.12,0a2.25,2.25,0,0,0-.06,1.18c.06.54.06,1.08.13,1.62a.06.06,0,0,0,.12,0Z"/></g><g class="cls-12"><path class="cls-4" d="M24.78,45a21.62,21.62,0,0,0-.22-3.5,5.84,5.84,0,0,0-.37-2.22.07.07,0,0,0-.12,0c.38,1.84.38,3.82.61,5.68a0,0,0,0,0,.09,0Z"/><path class="cls-4" d="M24.1,44.72a13,13,0,0,0-.5-5.11s-.09-.05-.1,0a6,6,0,0,0,.07,2c.14,1,.28,2.07.42,3.11,0,.07.11,0,.11,0Z"/><path class="cls-4" d="M23.25,44.8a23.71,23.71,0,0,0-.52-4.8.08.08,0,0,0-.15,0,7.11,7.11,0,0,0,.19,2.3c.11.82.31,1.67.38,2.49a.05.05,0,0,0,.1,0Z"/><path class="cls-4" d="M22.57,45.07A14.7,14.7,0,0,0,22,40.46c0-.15-.29-.13-.28,0,.16,1.54.55,3,.69,4.58a.07.07,0,0,0,.14,0Z"/><path class="cls-4" d="M21.84,45.2a9.11,9.11,0,0,0-.6-3.62s-.06,0-.06,0c0,1.21.44,2.39.55,3.61a.06.06,0,0,0,.12,0Z"/><path class="cls-4" d="M21.11,45.42a15.43,15.43,0,0,0-.57-4.09c0-.15-.26-.11-.26,0,0,1.39.71,2.67.77,4.05a0,0,0,0,0,.06,0Z"/><path class="cls-4" d="M20.59,46.07A13.46,13.46,0,0,0,20,41.92a.07.07,0,0,0-.13,0,3.61,3.61,0,0,0,.07,1.65c.17.84.38,1.67.58,2.51a0,0,0,0,0,.07,0Z"/><path class="cls-4" d="M20.1,46.45c-.15-.56-.15-1.21-.26-1.79a7.86,7.86,0,0,0-.55-1.95c0-.09-.16,0-.17,0A7.91,7.91,0,0,0,19.55,45,3.36,3.36,0,0,0,20,46.5s.08,0,.07,0Z"/><path class="cls-4" d="M19.47,47.44c.13-1.55-.4-3-.57-4.5,0,0-.07-.06-.08,0-.26,1.48.33,3.06.53,4.51a.06.06,0,0,0,.12,0Z"/></g><g class="cls-13"><path class="cls-4" d="M17.76,53.93a24.69,24.69,0,0,0-.58-6.4c-.19-1.09-.31-2.19-.46-3.28a8,8,0,0,0-.58-2.68.19.19,0,0,0-.34.14c.42,1.83.6,3.7.91,5.55.21,1.22.47,2.43.61,3.66a15.79,15.79,0,0,0,.41,3,0,0,0,0,0,0,0Z"/><path class="cls-4" d="M17.24,53.33c-.32-1.83-.46-3.7-.79-5.53-.17-1-.29-1.92-.48-2.87a20.34,20.34,0,0,1-.57-3.08l-.37.21.07,0a.16.16,0,0,0,.21-.05l.05-.07c.24-.32-.48-.55-.45-.12a12.9,12.9,0,0,0,.44,2.51c.27,1.06.41,2.13.62,3.2s.49,2.18.69,3.29a9.34,9.34,0,0,0,.55,2.5s0,0,0,0Z"/><path class="cls-4" d="M16.69,53.78a20.07,20.07,0,0,0-.42-2.4q-.21-1.45-.5-2.88c-.2-1-.46-2-.7-2.93s-.3-2.06-.63-3a.23.23,0,0,0-.44.12c.4,1.89.83,3.73,1.31,5.6a41.36,41.36,0,0,0,1.37,5.53Z"/><path class="cls-4" d="M16,53.46a31.18,31.18,0,0,0-1.21-5.6c-.28-1.1-.65-2.17-.94-3.26A5.19,5.19,0,0,0,13,42.2c-.13-.14-.41,0-.33.19.72,1.78,1.1,3.75,1.66,5.59.31,1,.57,2,.87,3.05A11.1,11.1,0,0,0,16,53.46s0,0,0,0Z"/><path class="cls-4" d="M15.3,53.11a5.18,5.18,0,0,0-.36-2c-.35-1.06-.68-2.13-1.11-3.17-.35-.85-.76-1.68-1.13-2.52a10.14,10.14,0,0,0-1.23-2.62c-.07-.09-.19,0-.18.1a20,20,0,0,0,2,4.86,24.51,24.51,0,0,1,1.1,2.72,10.68,10.68,0,0,1,.79,2.59,0,0,0,0,0,.09,0Z"/><path class="cls-4" d="M14.63,53.11c.74-.54-.78-3.2-1-3.75-.58-1.2-1.16-2.39-1.71-3.59a5.51,5.51,0,0,0-1.34-2.15.21.21,0,0,0-.28.28,45.89,45.89,0,0,1,2.3,4.43c.49.92,1,1.83,1.41,2.79.22.54.75,1.36.61,1.95,0,0,0,.06.05,0Z"/></g><path class="cls-5" d="M12.24,55a22.51,22.51,0,0,1,1.87-3,.48.48,0,0,1,.55-.24c3.39.31,6.85.85,10.18.11a18.71,18.71,0,0,0,2,2.87.6.6,0,0,1,.18.36c0,.27-.33.39-.6.43a50.42,50.42,0,0,1-10.78.22,19.36,19.36,0,0,1-3.38-.37C12.11,55.32,12.17,55.14,12.24,55Z"/><path class="cls-10" d="M26.95,55a13.62,13.62,0,0,0-2.13-1.26c-.4-.15-.45.23-.55.4a8.79,8.79,0,0,1-1.06,1.38.08.08,0,0,1-.09,0,3.48,3.48,0,0,1-.85-.72,5.78,5.78,0,0,0-.59-.62.32.32,0,0,0-.23-.13.33.33,0,0,0-.2.14c-.34.4-1,1.43-1.38,1.4s-.35-.52-1-1.47c-.13-.19-.25,0-.75.4s-.76.63-1.26,1a.12.12,0,0,1-.13,0c-.51-.31-.66-1-1-1.46a.37.37,0,0,0-.23-.15.42.42,0,0,0-.29.13l-1.22,1a.09.09,0,0,1-.14,0c-.3-.59-.6-1.68-.68-1.56a10.82,10.82,0,0,0-1,1.56c-.17.37.05.55.11.56a78,78,0,0,0,10.17.83A16.28,16.28,0,0,0,27,55.73.61.61,0,0,0,26.95,55Z"/><path class="cls-10" d="M19.71,47.19a.91.91,0,1,0,.91.9.91.91,0,0,0-.91-.9Z"/><path class="cls-4" d="M25.17,47.88a9,9,0,0,0-1.32,0,1,1,0,0,0-.78.3.58.58,0,0,0-.07.62.41.41,0,0,0,.63.14.11.11,0,0,0,0-.15c-.11-.11-.41-.09-.42-.26s.23-.33.42-.37c.51-.1,1-.06,1.56-.15.07,0,0-.1,0-.11Z"/><path class="cls-5" d="M21.78,57a1.13,1.13,0,0,0-.38,0c-.09,0-.3.11-.26.24s.18,0,.26,0a2.39,2.39,0,0,1,.4-.19.05.05,0,0,0,0-.1Z"/><path class="cls-5" d="M21.11,57.88a.9.9,0,0,0-.14-.21.25.25,0,0,0-.21-.11.06.06,0,0,0-.05.07c0,.1.05.13.12.19A1.61,1.61,0,0,0,21,58c.05,0,.11,0,.09-.09Z"/><path class="cls-5" d="M20.44,58.65a.63.63,0,0,0-.36-.29.06.06,0,0,0-.07.07.51.51,0,0,0,.36.32.06.06,0,0,0,.07-.09Z"/><path class="cls-5" d="M19.81,57.63c-.08,0-.14-.08-.22-.07s-.05,0-.05,0,.14.15.23.17a.08.08,0,0,0,0-.15Z"/><path class="cls-5" d="M20.37,57a1.1,1.1,0,0,0-.21-.17,1,1,0,0,0-.24-.13.12.12,0,0,0-.13.17c.08.18.33.19.49.26a.08.08,0,0,0,.09-.12Z"/><path class="cls-5" d="M19.49,58.75c-.13.06-.28,0-.38.13a.06.06,0,0,0,0,.09.44.44,0,0,0,.43-.14.06.06,0,0,0-.07-.09Z"/><path class="cls-5" d="M19.84,59.28c-.11.08-.38.1-.39.27a.07.07,0,0,0,0,.06c.15.1.36-.14.43-.26s0-.11-.07-.07Z"/><path class="cls-5" d="M18.54,58.92a1.12,1.12,0,0,0-.1-.23.51.51,0,0,0-.08-.1s-.06,0-.09,0-.06,0-.05.05,0,.05,0,.08l.07.1a.53.53,0,0,0,.2.15s0,0,0,0Z"/><path class="cls-5" d="M18.87,58.05a2.1,2.1,0,0,0-.24-.3.09.09,0,0,0-.08,0,.07.07,0,0,0-.05,0,.09.09,0,0,0,0,.1c.08.09.19.17.27.26a.06.06,0,0,0,.09-.07Z"/><path class="cls-5" d="M18.85,56.93l-.21-.19c-.07-.06-.14-.12-.24-.09a.07.07,0,0,0,0,.06c0,.1.08.15.15.21a1.14,1.14,0,0,0,.27.14c.07,0,.13-.08.08-.13Z"/><path class="cls-5" d="M17.8,58a1.49,1.49,0,0,1,.08-.31.26.26,0,0,0,0-.24.06.06,0,0,0-.08,0c-.16.1-.06.41,0,.55s.06,0,.06,0Z"/><path class="cls-5" d="M17.33,57c0-.13.09-.35,0-.43h0c-.11.08-.07.26-.09.39s.15.16.17,0Z"/><path class="cls-4" d="M24.4,52.93l-.14.06a.32.32,0,0,0,0,.55l.14.05a.34.34,0,1,0,0-.66Z"/><path class="cls-4" d="M21.59,53.12a.34.34,0,1,0,.34.34.34.34,0,0,0-.34-.34Z"/><path class="cls-4" d="M18.88,53.27h0a.29.29,0,1,0,.1.4h0a.28.28,0,0,0-.1-.38Z"/><path class="cls-4" d="M15.28,52.95h0a.29.29,0,0,0,0,.5h0a.3.3,0,1,0,0-.52Z"/><path class="cls-5" d="M26.38,37.61a.56.56,0,1,0,.56.56.57.57,0,0,0-.56-.56Z"/><path class="cls-5" d="M19.58,35.19a.51.51,0,1,0,.51.51.51.51,0,0,0-.51-.51Z"/><path class="cls-5" d="M13.39,38.67h0a.38.38,0,0,0-.17.63l0,0a.4.4,0,1,0,.56-.56.41.41,0,0,0-.39-.1Z"/><path class="cls-5" d="M19.76,37.3a.32.32,0,0,0,.17-.29.27.27,0,0,0-.41-.23h0l.14,0h0l.15,0h0a.31.31,0,0,0-.3,0,.3.3,0,0,0-.15.26.3.3,0,0,0,.45.26Z"/><path class="cls-5" d="M19.61,37.82a.16.16,0,0,0,0,.32.16.16,0,0,0,0-.32Z"/><path class="cls-5" d="M25.23,38.86h0l.1-.06h0a.24.24,0,0,0-.16.16.22.22,0,0,0,.1.25l.09,0a.24.24,0,1,0-.11-.4Z"/><path class="cls-5" d="M24.64,39.45a.13.13,0,0,0,0,.26.13.13,0,0,0,0-.26Z"/><path class="cls-5" d="M14.34,39.31a.26.26,0,0,0,0,.52.26.26,0,0,0,0-.52Z"/><path class="cls-5" d="M15,39.78a.19.19,0,0,0,0,.38.19.19,0,0,0,0-.38Z"/><path class="cls-10" d="M24.95,52.54a1,1,0,0,1-.11-.3.12.12,0,0,0-.24.06.8.8,0,0,0,.19.36c.08.08.22,0,.16-.12Z"/><path class="cls-10" d="M24.39,52.71a2,2,0,0,0-.15-.37.1.1,0,0,0-.11,0l0,0a.1.1,0,0,0,0,.12,3.12,3.12,0,0,0,.17.33c0,.07.17,0,.14-.06Z"/><path class="cls-10" d="M23.75,52.91a.6.6,0,0,0-.11-.58.15.15,0,0,0-.26.11,1,1,0,0,0,.11.31.32.32,0,0,0,.19.19.06.06,0,0,0,.07,0Z"/><path class="cls-10" d="M23.15,52.88a1.08,1.08,0,0,0-.08-.47c-.05-.11-.21,0-.21.06a1,1,0,0,0,.13.45c0,.07.15,0,.15,0Z"/><path class="cls-10" d="M22.53,53a.92.92,0,0,0-.08-.48.14.14,0,0,0-.26.07,1.23,1.23,0,0,0,.12.44.11.11,0,0,0,.21,0Z"/><path class="cls-10" d="M21.9,52.91a.84.84,0,0,0,0-.4.12.12,0,0,0-.23.06,1.32,1.32,0,0,0,.07.37.1.1,0,0,0,.19,0Z"/><path class="cls-10" d="M21.22,53a.5.5,0,0,0,0-.45c-.06-.16-.33-.15-.32,0a.59.59,0,0,0,.17.42.08.08,0,0,0,.12,0Z"/><path class="cls-10" d="M20.56,52.93a.87.87,0,0,0,0-.36.11.11,0,0,0-.11-.08h-.05a.11.11,0,0,0-.05.1c0,.1,0,.21,0,.31s.14.12.16,0Z"/><path class="cls-10" d="M20.1,52.93c0-.1,0-.19,0-.29s-.07-.25-.19-.21-.1.42,0,.56a.12.12,0,0,0,.22-.06Z"/><path class="cls-10" d="M19.32,53c0-.15.11-.37,0-.49a.11.11,0,0,0-.17,0,.73.73,0,0,0,0,.46.09.09,0,0,0,.16,0Z"/><path class="cls-10" d="M18.7,53a.56.56,0,0,0,0-.56c-.05-.07-.15,0-.17,0s0,.3,0,.44.12.18.18.07Z"/><path class="cls-10" d="M18.15,52.88c0-.13.11-.55-.13-.55s-.09.14-.09.2,0,.23,0,.35a.1.1,0,0,0,.2,0Z"/><path class="cls-10" d="M17.6,52.86c.06-.15.19-.44,0-.57a.15.15,0,0,0-.21,0,.34.34,0,0,0-.08.28.73.73,0,0,0,.06.31c0,.1.17,0,.2,0Z"/><path class="cls-10" d="M16.92,52.78c.11-.15.19-.48,0-.6a.13.13,0,0,0-.13,0c-.17.12-.09.4-.06.58s.14.09.18,0Z"/><path class="cls-10" d="M16.31,52.73a2.4,2.4,0,0,0,.08-.43c0-.18-.28-.18-.28,0a1.78,1.78,0,0,0,0,.43.08.08,0,0,0,.16,0Z"/><path class="cls-10" d="M15.69,52.68a.47.47,0,0,0,.15-.55c-.06-.12-.22-.07-.26,0a1,1,0,0,0,0,.29.29.29,0,0,0,.07.22.05.05,0,0,0,.07,0Z"/><path class="cls-10" d="M15.23,52.53a.74.74,0,0,0,.08-.44.11.11,0,0,0-.2,0c-.09.12,0,.31,0,.45a.07.07,0,0,0,.15,0Z"/><path class="cls-10" d="M14.65,52.54c.1-.17.24-.37.15-.57a.16.16,0,0,0-.26,0,.72.72,0,0,0-.08.58.1.1,0,0,0,.19,0Z"/><path class="cls-10" d="M16.63,36.49h0a.16.16,0,0,0-.22,0h0a.17.17,0,1,0,.25,0Z"/><path class="cls-10" d="M21.23,34.7h0a.16.16,0,0,0-.22,0h0a.17.17,0,1,0,.25,0Z"/><path class="cls-10" d="M14.1,35.49h0a.13.13,0,0,0,0,.18h0a.14.14,0,1,0,0-.2Z"/><path class="cls-10" d="M25.28,35.53h0a.13.13,0,0,0,0,.18h0a.14.14,0,1,0,0-.2Z"/><path class="cls-10" d="M30,38.55h0a.12.12,0,0,0,0,.18h0a.14.14,0,1,0,0-.2Z"/><path class="cls-10" d="M22.87,36.89h0a.13.13,0,0,0,0,.18h0a.14.14,0,1,0,0-.2Z"/><path class="cls-10" d="M14.76,33.19h0a.12.12,0,0,0,0,.18h0a.14.14,0,0,0,.24-.1.14.14,0,0,0-.24-.1Z"/><path class="cls-10" d="M12.78,37.46v0a.12.12,0,0,0-.22,0v0c-.08.2.32.2.24,0Z"/><path class="cls-10" d="M10.56,38.49a.27.27,0,0,0,0,.25.25.25,0,0,0,.39.05.26.26,0,0,0,0-.36.25.25,0,0,0-.39.05Z"/><path class="cls-10" d="M17.26,34.44a.27.27,0,0,0,0,.25.25.25,0,1,0,0-.25Z"/><path class="cls-10" d="M27.41,36.44a.27.27,0,0,0,0,.25.25.25,0,1,0,0-.25Z"/><path class="cls-10" d="M28.16,38.75a.19.19,0,0,0,0,.39.19.19,0,0,0,0-.39Z"/><path class="cls-14" d="M11.46,22.44a3,3,0,0,0,.7,2.68,6.91,6.91,0,0,0,2.17,1.71,29.32,29.32,0,0,0,11.79,3.69c1.6.14,3.5.49,5.08.77a6.5,6.5,0,0,1,3.8,1.8,3.71,3.71,0,0,1,.85,1.3c.21.8-.49,1.66-1,2.3a8.49,8.49,0,0,1-3.9,2.8c.5-.88.2-1.2-.65-2.3-1.09-1.4-3.55-2-5.3-2.3a53.92,53.92,0,0,1-9.75-2.35,37.11,37.11,0,0,1-4.55-1.75A11,11,0,0,1,7,28.34,2,2,0,0,1,6.51,26,5.57,5.57,0,0,1,8,24.39,10.32,10.32,0,0,1,11.46,22.44Z"/><path class="cls-4" d="M18.65,32.25l0,0a1.69,1.69,0,0,0,.64.61,1.76,1.76,0,0,0,1.26.14,1.74,1.74,0,0,0,1.07-.85,1.63,1.63,0,0,0,.14-1.25,1.61,1.61,0,0,0-.81-1,1.64,1.64,0,0,0-.88-.21,1.69,1.69,0,0,0-1.46.9l.25-.35v0a1.62,1.62,0,0,0-.4.73,1.64,1.64,0,0,0,.19,1.23Z"/><path class="cls-4" d="M16.53,31.3a1.22,1.22,0,1,0-1.68-.41,1.23,1.23,0,0,0,1.68.41Z"/><path class="cls-4" d="M13,29a.73.73,0,0,0-.75-1.24A.73.73,0,0,0,13,29Z"/><path class="cls-4" d="M25.23,33.61a1.18,1.18,0,0,0-1.23-2,1.18,1.18,0,0,0,1.23,2Z"/><path class="cls-4" d="M28.85,34.24A.7.7,0,0,0,28.12,33a.7.7,0,0,0,.72,1.19Z"/><path class="cls-3" d="M20.4,31.65a.33.33,0,1,0-.46-.11.34.34,0,0,0,.46.11Z"/><path class="cls-3" d="M16,30.37A.21.21,0,0,0,15.8,30a.21.21,0,0,0,.22.36Z"/><path class="cls-3" d="M24.78,32.66a.13.13,0,0,0-.14-.23.13.13,0,0,0,.14.23Z"/><path class="cls-3" d="M14.1,29.45a.25.25,0,0,0-.26-.43.25.25,0,0,0,.26.43Z"/><path class="cls-3" d="M18.05,30.87a.29.29,0,1,0-.39-.1.29.29,0,0,0,.39.1Z"/><path class="cls-3" d="M22.26,32.37v0a.32.32,0,0,0,.44.11.32.32,0,0,0,.05-.5l0,0a.31.31,0,0,0-.38,0,.32.32,0,0,0-.11.43Z"/><path class="cls-3" d="M26.8,32.92h0a.3.3,0,0,0-.28,0,.29.29,0,1,0,.3.49l0,0a.27.27,0,0,0,0-.47Z"/><path class="cls-3" d="M12.73,28.58a.16.16,0,0,0-.16-.27.16.16,0,0,0,.16.27Z"/><path class="cls-3" d="M28.66,33.74a.17.17,0,0,0-.18-.3.17.17,0,0,0,.18.3Z"/><path class="cls-15" d="M5.29,12.71a.25.25,0,0,0,.13,0,14.85,14.85,0,0,0,1.3-1.24.21.21,0,0,0,.08-.16.23.23,0,0,0-.08-.12c-.34-.34-.69-.65-1-1-.14-.15-.3-.33-.4-.34H5.26c-.1,0-.26.18-.4.34-.32.35-.67.67-1,1a.23.23,0,0,0-.08.12.21.21,0,0,0,.08.16,15,15,0,0,0,1.3,1.24.24.24,0,0,0,.13,0Z"/><path class="cls-15" d="M35.66,52.24a.25.25,0,0,0,.13,0A14.87,14.87,0,0,0,37.09,51a.21.21,0,0,0,.08-.16.21.21,0,0,0-.08-.12c-.34-.34-.69-.65-1-1-.14-.15-.3-.33-.4-.33h-.05c-.1,0-.26.18-.4.33-.32.36-.67.67-1,1a.21.21,0,0,0-.08.12.21.21,0,0,0,.08.16,14.87,14.87,0,0,0,1.3,1.24.25.25,0,0,0,.13,0Z"/><path class="cls-15" d="M6.47,3V7A1.87,1.87,0,0,1,6,8.45a1.83,1.83,0,0,1-1.25.41,3.12,3.12,0,0,1-.84-.12V8.15a3.64,3.64,0,0,0,.75.09,1.36,1.36,0,0,0,.71-.14.71.71,0,0,0,.3-.37A2.5,2.5,0,0,0,5.75,7V3Z"/><path class="cls-15" d="M34.46,59.29v-4a1.87,1.87,0,0,1,.47-1.46,1.84,1.84,0,0,1,1.25-.41,3.12,3.12,0,0,1,.84.12v.59a3.63,3.63,0,0,0-.75-.09,1.36,1.36,0,0,0-.71.14.71.71,0,0,0-.3.37,2.51,2.51,0,0,0-.08.74v4Z"/><path class="cls-15" d="M15.93,59.11H6.19a3.1,3.1,0,0,1-3-3.19V15.66h.19V55.92a2.92,2.92,0,0,0,2.82,3h9.74Z"/><rect class="cls-15" x="22.58" y="58.93" width="10.2" height="0.19"/><path class="cls-15" d="M37.74,46.82h-.19V6.36a2.92,2.92,0,0,0-2.82-3H25.11V3.17h9.63a3.1,3.1,0,0,1,3,3.19Z"/><rect class="cls-15" x="8.45" y="3.17" width="10.2" height="0.19"/></g></g></svg>