<svg xmlns="http://www.w3.org/2000/svg" xmlns:xlink="http://www.w3.org/1999/xlink" viewBox="0 0 40.93 62.29"><defs><style>.cls-1{fill:none;}.cls-2{fill:#fff;}.cls-3{fill:#d6002b;}.cls-4{fill:#0c0a35;}.cls-5{fill:#990028;}.cls-6{fill:#ffd6a1;}.cls-7{fill:#f70032;}.cls-8{fill:#e20c3f;}.cls-9{clip-path:url(#clip-path);}.cls-10{clip-path:url(#clip-path-2);}.cls-11{fill:#222272;}.cls-12{fill:#b70027;}.cls-13{clip-path:url(#clip-path-3);}.cls-14{clip-path:url(#clip-path-4);}</style><clipPath id="clip-path"><path class="cls-1" d="M19.57,15.54c.07,0-.15-.36.34-.45.22,0,.34,0,.38.25a1.17,1.17,0,0,1-.58,1,1.81,1.81,0,0,1-1.12.34,5.55,5.55,0,0,1-3.27-1.3c-.32-.27-1-.81-1.13-.75s-.47.46-1.07,1.24c-.36.48-1,1.06-1.55,1a.71.71,0,0,1-.65-.44.57.57,0,0,1,.16-.74c.34-.24.49,0,.62.07s0-.23,0-.3a.88.88,0,0,0-1.29-.12,1.57,1.57,0,0,0-.58,1.05,2,2,0,0,0,.1,1c.25.68,1.08.81,1.8.84a2.13,2.13,0,0,0,2-1.12c.54-1.23.44-1.38.58-1.36s.23.94.43,1.28c1,1.7,3.29,1.56,4.31,1.3a2.88,2.88,0,0,0,2.11-1.86,1.69,1.69,0,0,0-.34-1.94,1.16,1.16,0,0,0-1-.37.7.7,0,0,0-.55.58C19.17,15.3,19.48,15.59,19.57,15.54Z"/></clipPath><clipPath id="clip-path-2"><path class="cls-1" d="M24.85,8.33c.33.45,1,1.6,1.29,2,.63.87.88,1.88,1.84,2.36a7,7,0,0,0,1.58.47,1.46,1.46,0,0,1,1.09.81,2.18,2.18,0,0,1,.05,2c-.13.35-.74,1.09-2.43,1.26a12.06,12.06,0,0,1-2,.06c-1.06-.07-1-.09-2.05-.09-.74,0-.74,0-1-.7-.19-.45-.49-2.12-.7-2.88-.08-.27-1-4.25-1.18-4.84l-.38-1.38a1.11,1.11,0,0,1,0-.77c.17-.35.63-.42,1-.44l.81,0a.93.93,0,0,1,.33,0c.13,0,.06.34.15.44A12.29,12.29,0,0,1,24.85,8.33Z"/></clipPath><clipPath id="clip-path-3"><path class="cls-1" d="M21,46.92c-.07,0,.14.36-.34.45-.22,0-.34,0-.38-.25a1.17,1.17,0,0,1,.58-1,1.82,1.82,0,0,1,1.12-.34,5.55,5.55,0,0,1,3.27,1.3c.32.27,1,.81,1.13.75s.47-.46,1.07-1.24c.36-.48,1-1.06,1.55-1a.71.71,0,0,1,.65.43.57.57,0,0,1-.16.74c-.34.24-.49,0-.62-.07s0,.23,0,.3a.88.88,0,0,0,1.29.12,1.57,1.57,0,0,0,.58-1.05,2,2,0,0,0-.1-1c-.25-.68-1.08-.81-1.8-.84a2.13,2.13,0,0,0-2,1.12c-.54,1.22-.44,1.38-.58,1.36s-.23-.94-.43-1.28c-1-1.7-3.29-1.56-4.31-1.3a2.87,2.87,0,0,0-2.11,1.86,1.7,1.7,0,0,0,.34,1.94,1.15,1.15,0,0,0,1,.37.7.7,0,0,0,.55-.58C21.36,47.16,21.06,46.87,21,46.92Z"/></clipPath><clipPath id="clip-path-4"><path class="cls-1" d="M15.68,54.13c-.33-.45-1-1.6-1.29-2-.62-.87-.88-1.88-1.84-2.36A6.9,6.9,0,0,0,11,49.24a1.46,1.46,0,0,1-1.09-.81,2.18,2.18,0,0,1-.05-2c.13-.35.74-1.09,2.43-1.26a12,12,0,0,1,2-.06c1.07.07,1,.09,2.06.09.74,0,.74,0,1,.7.19.45.49,2.12.7,2.88.08.27,1,4.25,1.18,4.84L19.62,55a1.12,1.12,0,0,1,0,.77c-.17.36-.64.42-1,.44l-.81,0a.92.92,0,0,1-.33,0c-.13,0-.06-.34-.15-.44A12.34,12.34,0,0,1,15.68,54.13Z"/></clipPath></defs><title>Fichier 25</title><g id="Calque_2" data-name="Calque 2"><g id="Layer_1" data-name="Layer 1"><rect class="cls-2" x="0.09" y="0.09" width="40.74" height="62.1" rx="3.45" ry="3.45"/><path class="cls-2" d="M37.39,62.29H3.54A3.55,3.55,0,0,1,0,58.75V3.54A3.55,3.55,0,0,1,3.54,0H37.39a3.55,3.55,0,0,1,3.54,3.54v55.2A3.55,3.55,0,0,1,37.39,62.29ZM3.54.19A3.36,3.36,0,0,0,.19,3.54v55.2A3.36,3.36,0,0,0,3.54,62.1H37.39a3.36,3.36,0,0,0,3.36-3.36V3.54A3.36,3.36,0,0,0,37.39.19Z"/><path class="cls-3" d="M33.43,27.17a11.9,11.9,0,0,1,.8,4.25c.05,1.76-.15,2.49-.1,4.25,0,.43-1.74,2.22-2,2.59-.49.64-.88,1.19-1.48,1.23-3.6.25-6.43,1.09-10,1-3.35-.1-5.53-.86-8.85-.51-.21,0-.13.28-.29.17C9.75,39,7,37.92,6.33,36.07,5.1,32.81,4.17,32.36,4.93,29c.27-1.19,1.6-3.75,5.4-5.15,1.77-.65,3.55-2.12,5.73-2.33a32.22,32.22,0,0,1,8.62.3c2.35.4,6.21,2.11,7.61,3.55A5.44,5.44,0,0,1,33.43,27.17Z"/><path class="cls-3" d="M7.1,35.29A11.88,11.88,0,0,1,6.3,31c-.05-1.76.15-2.49.1-4.25,0-.43,1.74-2.22,2-2.59.49-.64.88-1.19,1.48-1.23,3.6-.25,6.43-1.09,10-1,3.35.1,5.53.86,8.85.51.21,0,.13-.28.29-.17,1.7,1.13,4.42,2.22,5.12,4.07,1.24,3.26,2.16,3.71,1.4,7-.27,1.19-1.6,3.75-5.4,5.15-1.77.65-3.55,2.12-5.73,2.34a32.22,32.22,0,0,1-8.62-.3c-2.35-.41-6.21-2.11-7.61-3.55A5.48,5.48,0,0,1,7.1,35.29Z"/><path class="cls-4" d="M5.56,27.51c.22-1.8,1.23-3.19,3.22-4.57a6.6,6.6,0,0,1,4.35-1.27c1.84.55,1.66,2.71,3.4,3.52s4.83,1.63,6.57,2.63c4.53,2.61,7.64,4.52,12.75,5.63-1.18,3.15-3.27,6.42-6.63,6.73-1.71.15-3.15-1.09-4.77-1.62C21.8,37.67,5.49,28.08,5.56,27.51Z"/><path class="cls-4" d="M19.37.82a.35.35,0,0,1,.36.15,1.27,1.27,0,0,1,.16.84.12.12,0,0,1,0,.09.11.11,0,0,1-.07,0,1.92,1.92,0,0,1-.51,0,1.79,1.79,0,0,1-.13-.62C19.15,1.09,19.2.87,19.37.82Z"/><path class="cls-5" d="M12.17,22.13c-.57.46-1.22.81-1.78,1.28a3.18,3.18,0,0,0-.9,1.16.32.32,0,0,0,.4.42,1.19,1.19,0,0,1,1,0c.4.24.51.77.73,1.18a2.18,2.18,0,0,0,2.44,1c1-.28,1.76-1.29,2.8-1.32,1.24,0,2.2,1.33,3.44,1.26,1.07-.06,1.83-1.17,2.89-1.29s2.34,1,3.45.58a1.3,1.3,0,0,0,.42-.28c1.38-1.29.94-2,2.78-1.55a.16.16,0,0,0,.12,0c.78-.46-1.89-2.53-3.1-3.56a6.1,6.1,0,0,1-2.22-3.72,4.66,4.66,0,0,0-.54-2.44,1,1,0,0,0-.23-.21c-.49-.3-1.09.1-1.56.43A13.25,13.25,0,0,1,16.88,17a12.4,12.4,0,0,0-2.52.58.55.55,0,0,0-.33.33c-.08.25.13.32.2.48a.5.5,0,0,1,0,.29A5.86,5.86,0,0,1,12.17,22.13Z"/><path class="cls-6" d="M16.88,6.15c-.77.5-1.93,1.16-2.25,2a21.73,21.73,0,0,1-.95,2.57,13.25,13.25,0,0,1-1.5,2.08c-.28.35-.55.83-.31,1.2a1,1,0,0,0,1,.26,1.72,1.72,0,0,1,1.1,0c-.08,1-.12,1.93-.21,2.93a3,3,0,0,0,.08,1.24,2.43,2.43,0,0,0,2.24,1.29,8.1,8.1,0,0,0,5.4-1.95,7,7,0,0,0,1-1,9.75,9.75,0,0,0,1.25-2.16,5.59,5.59,0,0,0,.44-1.14,4.76,4.76,0,0,0,.06-1.39,9.52,9.52,0,0,0-.75-3.27,5.35,5.35,0,0,0-2.19-2.49,5.48,5.48,0,0,0-1.8-.59A3.17,3.17,0,0,0,16.88,6.15Z"/><path class="cls-7" d="M18.92,1.27a3.54,3.54,0,0,1,1.36.14,4.16,4.16,0,0,1,2.33,1.75A3.87,3.87,0,0,1,23.13,6a17.48,17.48,0,0,0-7.38,0A4.9,4.9,0,0,1,16.36,3,3.52,3.52,0,0,1,18.92,1.27Z"/><path class="cls-4" d="M21.35,10.33a1,1,0,0,1-.23,0A15.42,15.42,0,0,0,17,10.28a2.55,2.55,0,0,0-.42.08c-.08,0,0,.18-.12.14a5,5,0,0,1-.29-2,.14.14,0,0,1,.09-.13,5.06,5.06,0,0,1,1.6-.08,5.39,5.39,0,0,1,1.8.42A3.39,3.39,0,0,1,21.35,10.33Z"/><path class="cls-2" d="M16.45,10.46a0,0,0,0,1,0,0,2.29,2.29,0,0,1,1.49-1,3.4,3.4,0,0,1,3.4.88c-1.28.67-2.18.74-4.26.41C16.88,10.71,16.52,10.65,16.45,10.46Z"/><path class="cls-3" d="M19.57,15.54c.07,0-.15-.36.34-.45.22,0,.34,0,.38.25a1.17,1.17,0,0,1-.58,1,1.81,1.81,0,0,1-1.12.34,5.55,5.55,0,0,1-3.27-1.3c-.32-.27-1-.81-1.13-.75s-.47.46-1.07,1.24c-.36.48-1,1.06-1.55,1a.71.71,0,0,1-.65-.44.57.57,0,0,1,.16-.74c.34-.24.49,0,.62.07s0-.23,0-.3a.88.88,0,0,0-1.29-.12,1.57,1.57,0,0,0-.58,1.05,2,2,0,0,0,.1,1c.25.68,1.08.81,1.8.84a2.13,2.13,0,0,0,2-1.12c.54-1.23.44-1.38.58-1.36s.23.94.43,1.28c1,1.7,3.29,1.56,4.31,1.3a2.88,2.88,0,0,0,2.11-1.86,1.69,1.69,0,0,0-.34-1.94,1.16,1.16,0,0,0-1-.37.7.7,0,0,0-.55.58C19.17,15.3,19.48,15.59,19.57,15.54Z"/><path class="cls-8" d="M24.85,8.33c.33.45,1,1.6,1.29,2,.63.87.88,1.88,1.84,2.36a7,7,0,0,0,1.58.47,1.46,1.46,0,0,1,1.09.81,2.18,2.18,0,0,1,.05,2c-.13.35-.74,1.09-2.43,1.26a12.06,12.06,0,0,1-2,.06c-1.06-.07-1-.09-2.05-.09-.74,0-.74,0-1-.7-.19-.45-.49-2.12-.7-2.88-.08-.27-1-4.25-1.18-4.84l-.38-1.38a1.11,1.11,0,0,1,0-.77c.17-.35.63-.42,1-.44l.81,0a.93.93,0,0,1,.33,0c.13,0,.06.34.15.44A12.29,12.29,0,0,1,24.85,8.33Z"/><path class="cls-4" d="M18.66,10.72a.62.62,0,0,0,.75-.7.58.58,0,0,0-.52-.53.65.65,0,0,0-.67.51C18.15,10.31,18.35,10.7,18.66,10.72Z"/><g class="cls-9"><path class="cls-4" d="M14.72,14.21c-.51-.25-.88.27-1.06.69a1.41,1.41,0,0,0-.17.82,3.1,3.1,0,0,1,0,2.17,0,0,0,0,0,.06,0A1.49,1.49,0,0,0,14,16.54a6.58,6.58,0,0,1-.27-1.13,1.06,1.06,0,0,1,.95-1.16s0,0,0,0Z"/><path class="cls-4" d="M14.56,14.55c.5,1-.14,1.38-.15,2.29a2.33,2.33,0,0,0,.72,1.69,0,0,0,0,0,.08,0c-.11-.38-.26-.75-.38-1.12-.18-.56.17-1.15.3-1.67a1.09,1.09,0,0,0-.48-1.2.05.05,0,0,0-.08.06Z"/><path class="cls-4" d="M13.17,15.19c-.5.23-.46.86-.4,1.32a1.76,1.76,0,0,1-.22,1.54c-.29.33-.73.27-1.09.45a.11.11,0,0,0,0,.21c.63.26,1.29-.32,1.53-.85a1.9,1.9,0,0,0,.08-1,2.13,2.13,0,0,1,.17-1.52.08.08,0,0,0-.1-.11Z"/><path class="cls-4" d="M12.44,15.84a1.2,1.2,0,0,0-.54,1.06A2.55,2.55,0,0,1,11.57,18a3.59,3.59,0,0,1-1,.85s0,.1.05.09a2.08,2.08,0,0,0,1.28-1.12c.31-.59.09-1.38.59-1.89a.06.06,0,0,0-.07-.1Z"/><path class="cls-4" d="M11.81,16.09c-.54-.07-.67.74-.84,1.09-.34.68-1.11.79-1.76.93a.07.07,0,0,0,0,.12c.35.38,1.14-.08,1.48-.29a1.71,1.71,0,0,0,.58-.61c.18-.31.22-1,.59-1.13a.06.06,0,0,0,0-.12Z"/><path class="cls-4" d="M11.25,15.84c-.31.53-.89.59-1.35.93a1.59,1.59,0,0,0-.71,1.07.06.06,0,0,0,.11,0c.19-.2.29-.47.47-.68a2,2,0,0,1,.76-.51c.37-.16.78-.38.79-.83a0,0,0,0,0-.08,0Z"/><path class="cls-4" d="M11.85,15.67a1.32,1.32,0,0,0-1.45-.29c-.71.32-1,1-1.61,1.42a.07.07,0,0,0,0,.14,1.07,1.07,0,0,0,.85-.55,1.75,1.75,0,0,1,2.15-.69,0,0,0,0,0,0,0Z"/><path class="cls-4" d="M15.35,15c.15.1.23.65.28.82a2.77,2.77,0,0,1-.11,1.62A1.23,1.23,0,0,0,16,18.61c.06.06.14,0,.13-.07-.09-.47-.34-.73-.19-1.26A2.43,2.43,0,0,0,16,16.2c-.06-.38-.15-1.25-.63-1.36a.08.08,0,0,0-.06.14Z"/><path class="cls-4" d="M16.46,15.72c.55.58.1,1.58.28,2.3a1.65,1.65,0,0,0,1.14,1.19.08.08,0,0,0,.09-.12,8.12,8.12,0,0,0-.65-.79A1.93,1.93,0,0,1,17,17.1a1.52,1.52,0,0,0-.55-1.41s0,0,0,0Z"/><path class="cls-4" d="M17.46,16c.31.64,0,1.36.31,2a2,2,0,0,0,1.05,1.07A.06.06,0,0,0,18.9,19c-.21-.55-.78-.85-1-1.45s0-1.09-.41-1.62c0,0-.09,0-.07.05Z"/><path class="cls-4" d="M18.21,16c.57,0,.45,1.18.56,1.58s.55,1.14,1.12,1.2a.08.08,0,0,0,.07-.12c-.23-.34-.58-.55-.81-.9a2.38,2.38,0,0,1-.29-.93c-.06-.36-.21-.91-.66-.91a0,0,0,0,0,0,.08Z"/><path class="cls-4" d="M19.19,15.9c.39.17.5,1,.7,1.34s.61.9,1.14.89a.08.08,0,0,0,.06-.14c-.18-.22-.41-.39-.61-.59a3.26,3.26,0,0,1-.5-.79c-.15-.31-.37-.78-.77-.79,0,0-.06.06,0,.08Z"/><path class="cls-4" d="M19.68,14.07a1.39,1.39,0,0,0,.26,1.54,11.23,11.23,0,0,0,.83.82c.4.44.34.94.5,1.46a.09.09,0,0,0,.16,0,1.54,1.54,0,0,0-.27-1.52c-.55-.83-1.53-1.13-1.46-2.31a0,0,0,0,0,0,0Z"/><path class="cls-4" d="M20.26,13.89a1.55,1.55,0,0,0,.54,1.34c.31.33.69.47.87.93a1.63,1.63,0,0,0,.32.67.09.09,0,0,0,.15-.06,2,2,0,0,0-.46-1.21c-.48-.58-1.21-.84-1.37-1.67,0,0-.06,0-.06,0Z"/></g><g class="cls-10"><path class="cls-4" d="M21.19,6.68c1.06.81.53,1.44.53,2.37a.86.86,0,0,0,.33.63c1.52.82.3,2.15.57,3.38a4,4,0,0,0,.72,1.07,2.83,2.83,0,0,1,.18,2.63,1.78,1.78,0,0,0,.82,1.85.1.1,0,0,0,.15-.12c-.25-.69-.66-1.12-.48-1.93a3.11,3.11,0,0,0,.25-1.3,4,4,0,0,0-.75-1.61c-.42-.57-.69-.62-.53-1.57.06-.33.22-.64.25-1,.1-1.25-1.36-1.76-1.09-2.92a1.23,1.23,0,0,0-.93-1.61c-.05,0-.05.06,0,.09Z"/><path class="cls-4" d="M22.46,6.6c.44.09-.12,1.81.32,2.25s1.33,1.06,1,2.09a2.68,2.68,0,0,0-.21,1.38c.35,1.4,1.68,1.84,1.25,3.55-.21.82-.55,1.73.23,2.33.07.05.14,0,.11-.1-.68-1.26.47-2.56,0-3.9a3.33,3.33,0,0,0-.66-.94,2.4,2.4,0,0,1-.29-2.55c.23-.84-.23-1.31-.87-1.75-1.05-.72.09-2-.69-2.53a.1.1,0,0,0-.11,0l-.1.06a.06.06,0,0,0,0,.11Z"/><path class="cls-4" d="M23.61,6.38c-.59.47-.09,1.32.24,1.81s.83.74,1,1.38c.26.8-.3,1.45-.21,2.23.17,1.47,2.05,1.79,1.47,3.57-.42,1.27-1.09,2.1-.36,3.43a.07.07,0,0,0,.12,0,3.75,3.75,0,0,1,.25-2.38,4.74,4.74,0,0,0,.59-1.51,2.63,2.63,0,0,0-.91-2,1.94,1.94,0,0,1-.53-2.11,2.5,2.5,0,0,0,0-1.3c-.21-1.08-2.16-1.67-1.58-3a.07.07,0,0,0-.12-.09Z"/><path class="cls-4" d="M26.37,9.66c-1,1.29-.18,2.72.8,3.67,1.32,1.27.12,2.44-.4,3.7a1.45,1.45,0,0,0,.35,1.79c.07,0,.18,0,.15-.11-.73-1.8,1.28-2.88.83-4.72a3.05,3.05,0,0,0-1-1.31,2.69,2.69,0,0,1-.55-2.94c0-.08-.09-.15-.14-.08Z"/><path class="cls-4" d="M27.46,11.91a1.91,1.91,0,0,0,.63,1.16c.78.8,1.18,1.55.56,2.59-.42.72-1.15,1.52-.55,2.35a.09.09,0,0,0,.16,0,3.11,3.11,0,0,1,.64-1.88,2.45,2.45,0,0,0,.51-1.17c0-1.51-1.15-1.87-1.84-3,0,0-.11,0-.1,0Z"/><path class="cls-4" d="M29.2,12.46c.57.79,1.07,1.39.82,2.43-.17.69-.67,1.23-.8,1.95A1.38,1.38,0,0,0,30,18.5a.09.09,0,0,0,.08-.14c-1.22-1.09.14-2.5.38-3.67a2.4,2.4,0,0,0-1.14-2.29s-.13,0-.09.07Z"/></g><path class="cls-5" d="M23.78,7.52a.37.37,0,0,0,.23,0,.37.37,0,0,0,.14-.15c.38-.58.58-1.12.92-1.7a.17.17,0,0,0-.1-.25,24.62,24.62,0,0,0-10.58-.09.31.31,0,0,0-.18.1c-.08.11,0,.26.08.37L15.12,7a.6.6,0,0,0,.26.24C15.5,7.28,22.14,7.19,23.78,7.52Z"/><path class="cls-4" d="M15.69,6.6a.51.51,0,1,0-.51-.51.51.51,0,0,0,.51.51Z"/><path class="cls-4" d="M17.32,6.48a.61.61,0,0,0,.78-.11.59.59,0,0,0,.15-.55.58.58,0,0,0-.39-.39.64.64,0,0,0-.64.17.57.57,0,0,0,.11.88Z"/><path class="cls-4" d="M20.2,6.34v0A.6.6,0,1,0,19.09,6V6a.61.61,0,0,0,.44.58.6.6,0,0,0,.67-.27Z"/><path class="cls-4" d="M21.75,6.65a.54.54,0,1,0-.54-.54.54.54,0,0,0,.54.54Z"/><path class="cls-4" d="M23.67,6.78a.42.42,0,1,0-.42-.42.43.43,0,0,0,.42.42Z"/><path class="cls-4" d="M17.24,3.11c0,.13-.09.26,0,.38a.1.1,0,0,0,.18,0,.59.59,0,0,0,0-.43c0-.09-.14-.06-.15,0Z"/><path class="cls-4" d="M18.75,3.88a.44.44,0,0,0,0,.26c0,.15.25.15.24,0a.53.53,0,0,0-.07-.26.07.07,0,0,0-.11,0Z"/><path class="cls-4" d="M18.43,1.8a1.08,1.08,0,0,0-.07.5.12.12,0,0,0,.23,0,1.08,1.08,0,0,0-.07-.5,0,0,0,0,0-.09,0Z"/><path class="cls-4" d="M19.83,2.66c0,.13-.07.33.05.42a.06.06,0,0,0,.08,0c.07-.1,0-.29,0-.4s-.11-.06-.11,0Z"/><path class="cls-4" d="M20.71,1.84a.49.49,0,0,0,0,.36c0,.16.28.12.28,0a.46.46,0,0,0,0-.15c0-.06-.07-.1-.09-.16a.06.06,0,0,0-.11,0Z"/><path class="cls-4" d="M21,4.11a1.15,1.15,0,0,0,0,.29c0,.14.23.14.22,0a1.78,1.78,0,0,0-.06-.29.07.07,0,0,0-.13,0Z"/><path class="cls-4" d="M21.85,3.06s0,0,0,.06a.73.73,0,0,0,0,.13.32.32,0,0,0,.07.26.13.13,0,0,0,.2,0,.38.38,0,0,0,0-.27A.33.33,0,0,0,21.94,3a.05.05,0,0,0-.09,0Z"/><path class="cls-4" d="M22.62,4.31c0,.13,0,.3,0,.41a.12.12,0,0,0,.22-.09.66.66,0,0,0-.09-.17c0-.05-.06-.12-.09-.17s-.09,0-.08,0Z"/><path class="cls-4" d="M16.39,4.3c0,.14-.11.38,0,.49a.06.06,0,0,0,.08,0c.13-.11,0-.35,0-.49a.06.06,0,0,0-.11,0Z"/><path class="cls-7" d="M15.71,6.24a.16.16,0,0,0,0-.32.16.16,0,0,0,0,.32Z"/><path class="cls-7" d="M17.67,6.09a.14.14,0,0,0,0-.28.14.14,0,0,0,0,.28Z"/><path class="cls-7" d="M19.71,6.25a.2.2,0,0,0,0-.39.2.2,0,0,0,0,.39Z"/><path class="cls-7" d="M21.77,6.3a.18.18,0,0,0,0-.37.18.18,0,0,0,0,.37Z"/><path class="cls-7" d="M23.65,6.54a.18.18,0,0,0,0-.36.18.18,0,0,0,0,.36Z"/><path class="cls-7" d="M15.38,21c-.53,1.25-.86,2.81-1.84,3.82-.57.59.33,1.49.9.9A6.28,6.28,0,0,0,15.69,21a.17.17,0,0,0-.31,0Z"/><path class="cls-7" d="M19.76,21a8.08,8.08,0,0,0,.31,5c.34.71,1.36.09,1-.61a15.27,15.27,0,0,1-1-4.29c0-.21-.33-.29-.39-.05Z"/><path class="cls-7" d="M23.26,20.27A5,5,0,0,0,24,23c.33.65,1.07,2.05,1.92,2a.49.49,0,0,0,.48-.48c.05-.69-.83-1.35-1.21-1.86a19.63,19.63,0,0,1-1.44-2.47c-.12-.23-.42-.1-.44.12Z"/><path class="cls-4" d="M13.7,14.19a5.2,5.2,0,0,0,1.44-.1.76.76,0,0,0,.56-.79.73.73,0,0,0-.64-.6c-.22,0-.78.18-.56.49a.09.09,0,0,0,.1,0c.19,0,.24-.23.48-.2a.38.38,0,0,1,.22.68c-.38.42-1.14.13-1.61.42a0,0,0,0,0,0,0Z"/><path class="cls-4" d="M17.42,20.65a11.32,11.32,0,0,0-.5,2.2,8.12,8.12,0,0,0-.2,2.13c.07.55,1,.81,1.07.15a27.51,27.51,0,0,0,.06-4.41.22.22,0,0,0-.44-.06Z"/><path class="cls-4" d="M14.25,20.64c-.49,1.26-1.84,2.19-2.8,3.08-.53.49.25,1.24.78.78.92-.79,2.89-2.44,2.35-3.86a.18.18,0,0,0-.33,0Z"/><path class="cls-4" d="M21.18,20.21a7.32,7.32,0,0,0,.34,3.23c.2.73.54,2,1.29,2.27s1-.62.6-1A9,9,0,0,1,22.6,23a14.64,14.64,0,0,1-1-2.78c-.05-.21-.39-.22-.43,0Z"/><path class="cls-4" d="M25,20.5a2.59,2.59,0,0,0,1.09,2.13c.53.52,1,1.31,1.78,1.37s.79-1.24,0-1.22c-.29,0-.74-.58-1-.75-.45-.34-1.41-.9-1.48-1.53a.21.21,0,0,0-.41,0Z"/><path class="cls-4" d="M20,22.62a.25.25,0,0,0,0-.49.25.25,0,0,0,0,.49Z"/><path class="cls-4" d="M20,23.73a.28.28,0,0,0,0-.55.28.28,0,0,0,0,.55Z"/><path class="cls-4" d="M20.36,24.66h0a.29.29,0,0,0,0-.41h0a.3.3,0,1,0,0,.42Z"/><path class="cls-4" d="M20.35,25.28h0a.2.2,0,0,0,0,.28h0a.22.22,0,1,0,0-.31Z"/><path class="cls-4" d="M23.69,21.29a.23.23,0,0,0,0-.46.23.23,0,0,0,0,.46Z"/><path class="cls-4" d="M24,22.19a.27.27,0,0,0,0-.53.27.27,0,0,0,0,.53Z"/><path class="cls-4" d="M24.54,23.17a.35.35,0,1,0-.35-.35.35.35,0,0,0,.35.35Z"/><path class="cls-4" d="M25.19,24a.32.32,0,1,0-.32-.32.32.32,0,0,0,.32.32Z"/><path class="cls-4" d="M25.75,24.47a.23.23,0,0,0,0-.47.23.23,0,0,0,0,.47Z"/><path class="cls-4" d="M15.37,22.28a.23.23,0,0,0,0-.46.23.23,0,0,0,0,.46Z"/><path class="cls-4" d="M15.18,23.26a.28.28,0,0,0,0-.57.28.28,0,0,0,0,.57Z"/><path class="cls-4" d="M14.84,24.19a.3.3,0,0,0,0-.6.3.3,0,0,0,0,.6Z"/><path class="cls-4" d="M14.42,24.94a.25.25,0,0,0,0-.5.25.25,0,0,0,0,.5Z"/><path class="cls-4" d="M13.92,25.59a.18.18,0,0,0,0-.37.18.18,0,0,0,0,.37Z"/><path class="cls-11" d="M26.91,33.75a1.85,1.85,0,0,0,.33.29c.08.06.23.18.32.09s-.1-.18-.16-.21a1.58,1.58,0,0,1-.37-.27c-.07-.07-.18,0-.11.11Z"/><path class="cls-11" d="M29.46,35.63a1.89,1.89,0,0,0,.33.29c.08.06.23.18.32.09s-.1-.18-.16-.21a1.58,1.58,0,0,1-.37-.27c-.07-.07-.18,0-.11.11Z"/><path class="cls-11" d="M18.5,33.73a1.85,1.85,0,0,0,.33.29c.08.06.23.18.32.09s-.1-.18-.16-.21a1.53,1.53,0,0,1-.37-.27c-.07-.07-.18,0-.11.11Z"/><path class="cls-11" d="M33.54,34a1.81,1.81,0,0,0,.32.29c.08.05.23.18.32.09s-.1-.18-.16-.21a1.59,1.59,0,0,1-.37-.27c-.07-.07-.18,0-.11.11Z"/><path class="cls-11" d="M24.24,33.79a1.23,1.23,0,0,0-.07.63c0,.14.25.11.25,0a1.6,1.6,0,0,0-.12-.59,0,0,0,0,0-.06,0Z"/><path class="cls-11" d="M16,31.65a1.23,1.23,0,0,0-.07.63c0,.15.25.11.25,0a1.62,1.62,0,0,0-.12-.59,0,0,0,0,0-.06,0Z"/><path class="cls-11" d="M8,27.19a1.24,1.24,0,0,0-.07.63c0,.14.25.11.25,0A1.6,1.6,0,0,0,8,27.19a0,0,0,0,0-.06,0Z"/><path class="cls-11" d="M22.14,34.31a1.23,1.23,0,0,0-.07.63c0,.14.25.11.25,0a1.6,1.6,0,0,0-.12-.59,0,0,0,0,0-.06,0Z"/><path class="cls-11" d="M23.6,29a1.3,1.3,0,0,1,.33,0c.09,0,.23,0,.27-.11a.06.06,0,0,0,0-.06c-.08-.07-.22,0-.32,0a.5.5,0,0,0-.33.13.05.05,0,0,0,.05.09Z"/><path class="cls-11" d="M11.08,28.68a1.33,1.33,0,0,1,.33,0c.09,0,.23,0,.27-.11a.06.06,0,0,0,0-.06c-.08-.07-.22,0-.32,0a.51.51,0,0,0-.33.13.05.05,0,0,0,.05.09Z"/><path class="cls-11" d="M16.83,27.43a1.34,1.34,0,0,1,.33,0c.09,0,.23,0,.27-.11a.06.06,0,0,0,0-.06c-.08-.07-.22,0-.31,0a.5.5,0,0,0-.33.13.05.05,0,0,0,.05.09Z"/><path class="cls-11" d="M24.25,30.47a1.31,1.31,0,0,1,.31.14c.08,0,.2.12.29,0a.05.05,0,0,0,0-.06c0-.1-.18-.13-.26-.17a.5.5,0,0,0-.35-.06.05.05,0,0,0,0,.1Z"/><path class="cls-11" d="M32,37.05a1.33,1.33,0,0,1,.31.14c.08,0,.2.12.29,0a.05.05,0,0,0,0-.05c0-.1-.18-.13-.26-.17A.5.5,0,0,0,32,37a.05.05,0,0,0,0,.1Z"/><path class="cls-11" d="M9.1,23.51a1.35,1.35,0,0,1,.33-.06c.09,0,.23,0,.27-.12a.06.06,0,0,0,0-.06c-.08-.07-.22,0-.31,0a.51.51,0,0,0-.32.14s0,.1.06.09Z"/><path class="cls-11" d="M31.76,35.43a1.33,1.33,0,0,1,.31.14c.08,0,.2.12.29,0a.06.06,0,0,0,0-.06c0-.1-.18-.13-.26-.17a.5.5,0,0,0-.35-.06.05.05,0,0,0,0,.1Z"/><path class="cls-11" d="M30,34.2a1.36,1.36,0,0,1,.31.14c.08,0,.2.12.29,0a.06.06,0,0,0,0-.06c0-.1-.18-.13-.27-.17A.5.5,0,0,0,30,34.1a.05.05,0,0,0,0,.1Z"/><path class="cls-11" d="M24.94,32.6a.23.23,0,0,0,.27.09l.22-.07a.83.83,0,0,0,.23-.08c.06,0,.08-.14,0-.18a.46.46,0,0,0-.37,0,3,3,0,0,0-.34.15,0,0,0,0,0,0,0Z"/><path class="cls-11" d="M10.14,27a.23.23,0,0,0,.27.09l.22-.07a.85.85,0,0,0,.23-.08c.06,0,.08-.14,0-.18a.46.46,0,0,0-.37,0,2.87,2.87,0,0,0-.34.15,0,0,0,0,0,0,0Z"/><path class="cls-11" d="M14.52,28.78a.23.23,0,0,0,.27.09L15,28.8a.85.85,0,0,0,.23-.08c.06,0,.08-.14,0-.18a.46.46,0,0,0-.37,0,3,3,0,0,0-.34.15,0,0,0,0,0,0,0Z"/><path class="cls-11" d="M21.11,28.3a.23.23,0,0,0,.27.09l.22-.07a.84.84,0,0,0,.23-.08c.06,0,.08-.14,0-.18a.46.46,0,0,0-.37,0,3,3,0,0,0-.34.15,0,0,0,0,0,0,0Z"/><path class="cls-11" d="M7.92,25.63a.23.23,0,0,0,.27.09l.22-.07a.84.84,0,0,0,.23-.08c.06,0,.08-.14,0-.18a.46.46,0,0,0-.37,0,3,3,0,0,0-.34.15,0,0,0,0,0,0,0Z"/><path class="cls-4" d="M25.69,24.59l.23.2c.06.06.12.13.22.11a.07.07,0,0,0,.06-.08c0-.09-.09-.13-.16-.18l-.25-.18a.08.08,0,0,0-.1.13Z"/><path class="cls-4" d="M28.4,25.42a2,2,0,0,1,.15-.29c.05-.09.09-.17,0-.27a.06.06,0,0,0-.08,0c-.1.05-.12.12-.15.22a2.17,2.17,0,0,0-.1.33.07.07,0,0,0,.13,0Z"/><path class="cls-4" d="M27.6,27.2l.36-.11a1,1,0,0,0,.33-.15.14.14,0,0,0-.06-.25c-.28,0-.48.25-.7.37s0,.17.08.14Z"/><path class="cls-4" d="M35.17,28.73l.16-.39A.46.46,0,0,0,35.4,28a.08.08,0,0,0-.1,0c-.12,0-.18.17-.21.28s-.08.27-.12.41.15.23.21.09Z"/><path class="cls-7" d="M26.92,23.53a7.62,7.62,0,0,0-2.07,2.82,4.16,4.16,0,0,0,.1,2.12,7.36,7.36,0,0,0,.95,2.28,5.93,5.93,0,0,0,2.22,1.92,7.56,7.56,0,0,0,3.62.62,4.59,4.59,0,0,0,3.36-2.65,6.73,6.73,0,0,0,.6-4.61l-.17-.46a6.26,6.26,0,0,0-3.7-3.5C30.68,21.68,29,21.23,26.92,23.53Z"/><path class="cls-12" d="M24.66,26.58a3.14,3.14,0,0,0,.47,1.95,15.94,15.94,0,0,0,3.46,3,.72.72,0,0,0,.3.14.25.25,0,0,0,.28-.14v0a1,1,0,0,0-.2-.66c-.9-1.24-1.28-1.26-2.46-2.93-.33-.47.38-.74.63-.5.81.77,1.23,1.22,2,2a5.16,5.16,0,0,0,1.42,1c.19.08.45-.26.38-.46a3.94,3.94,0,0,0-1.25-1.61,8.11,8.11,0,0,1-1.83-1.63.59.59,0,0,1,.23-.82,23.85,23.85,0,0,0,3.58,2.34c.29.12.93-.43-.16-1.29a32.89,32.89,0,0,1-2.8-2.09c-.26-.25.18-.76.52-.66a16.5,16.5,0,0,0,3.07,1.8c.23.09.76.17.81-.05.11-.49-.62-1.11-1.21-1.49s-1.64-1.15-2.32-1.49a3.05,3.05,0,0,0-3,.38,3.81,3.81,0,0,0-1.42,1.45A3.62,3.62,0,0,0,24.66,26.58Z"/><path class="cls-4" d="M34.29,26.87a.44.44,0,1,0-.62.07.44.44,0,0,0,.62-.07Z"/><path class="cls-4" d="M34.39,27.54l0,0a.34.34,0,0,0,.41,0,.34.34,0,0,0,.07-.48l0,0a.34.34,0,0,0-.61.15.36.36,0,0,0,.13.31Z"/><path class="cls-4" d="M35.33,28.12a.2.2,0,0,0-.31-.24.2.2,0,0,0,.31.24Z"/><path class="cls-4" d="M33.11,28.82a.42.42,0,1,0-.59.07.42.42,0,0,0,.59-.07Z"/><path class="cls-4" d="M33.89,29.4a.34.34,0,0,0-.53-.42.34.34,0,0,0,.53.42Z"/><path class="cls-4" d="M34.5,29.69a.15.15,0,0,0-.24-.19.15.15,0,0,0,.24.19Z"/><path class="cls-4" d="M31.52,30.19h0a.43.43,0,0,0-.26.32.41.41,0,0,0,.55.44.43.43,0,0,0,.26-.32v0a.4.4,0,0,0-.54-.42Z"/><path class="cls-4" d="M32.7,31.15a.27.27,0,1,0-.38,0,.28.28,0,0,0,.38,0Z"/><path class="cls-4" d="M30.3,32.33a.35.35,0,1,0-.5.06.36.36,0,0,0,.5-.06Z"/><path class="cls-4" d="M31.1,32.53a.23.23,0,0,0-.37-.29.23.23,0,0,0,.37.29Z"/><path class="cls-4" d="M31.91,32.6a.19.19,0,0,0-.29-.23.19.19,0,0,0,.29.23Z"/><path class="cls-4" d="M27.11,25.93a1,1,0,0,0,.55-.5,1.17,1.17,0,0,0,0-.89A1.35,1.35,0,0,0,26,23.75a1.76,1.76,0,0,0-1.09,1.64,1.23,1.23,0,0,0,1.36,1.33c1.19-.06,2.11-2.24.86-2.85a1.24,1.24,0,0,0-1.69,1,1.3,1.3,0,0,0,.15,1,.7.7,0,0,0,1,.27A1.54,1.54,0,0,0,27,25.06c0-.72-1.06-.88-1.11-.15a.48.48,0,0,1,0,.09l.11-.27a.64.64,0,0,0-.12.41c0,.65,1,.62,1.11,0a.57.57,0,0,0,0-.09l-1.11-.15a2.6,2.6,0,0,1-.06.37c0-.09,0,.07,0,.07.11-.27.78.19.65-.13a1.08,1.08,0,0,1,.1-.28s.08-.08,0-.05.09,0,0,0-.06-.1-.05,0a.75.75,0,0,1,0,.24,1,1,0,0,1-.17.32c-.07.09,0,.07-.1.11l-.09.07s0,0,0,0c.1,0,0,0-.06,0s0,0-.09,0c.08.06,0-.07,0-.11a.77.77,0,0,1,.33-.67.21.21,0,0,1,.18,0,1,1,0,0,1,.27.2c.15.16.2.45.08.57s.06.44.26.35Z"/><path class="cls-5" d="M26.5,25.38A.31.31,0,0,0,26,25a.31.31,0,0,0,.48.38Z"/><path class="cls-5" d="M27.29,25.19a.21.21,0,0,0-.32-.26.21.21,0,0,0,.32.26Z"/><path class="cls-5" d="M26.85,24.54a.19.19,0,0,0-.29-.23.19.19,0,0,0,.29.23Z"/><path class="cls-5" d="M25.68,24.29h0a.17.17,0,0,0,0,.28h0c.12.07.26-.06.24-.18s-.18-.22-.28-.12Z"/><path class="cls-5" d="M25.48,25.38a.18.18,0,0,0-.28-.22.18.18,0,0,0,.28.22Z"/><path class="cls-5" d="M25.8,26.13a.17.17,0,0,0-.26-.21.17.17,0,0,0,.26.21Z"/><path class="cls-5" d="M26.71,26.16a.17.17,0,0,0-.27-.21.17.17,0,0,0,.27.21Z"/><path class="cls-4" d="M21.43,61.67a.35.35,0,0,1-.36-.15,1.26,1.26,0,0,1-.16-.84.12.12,0,0,1,0-.09.11.11,0,0,1,.07,0,2,2,0,0,1,.51,0,1.78,1.78,0,0,1,.13.62C21.66,61.4,21.61,61.62,21.43,61.67Z"/><path class="cls-5" d="M28.37,40.33c.57-.46,1.22-.81,1.78-1.28a3.18,3.18,0,0,0,.9-1.17.32.32,0,0,0-.4-.42,1.18,1.18,0,0,1-1,0c-.4-.24-.51-.76-.73-1.18a2.18,2.18,0,0,0-2.44-1c-1,.28-1.76,1.29-2.8,1.32-1.24,0-2.2-1.33-3.44-1.26-1.07.06-1.83,1.17-2.89,1.29s-2.34-1-3.45-.58a1.29,1.29,0,0,0-.42.28c-1.38,1.29-.94,2-2.78,1.55a.15.15,0,0,0-.11,0c-.78.46,1.89,2.53,3.1,3.56a6.09,6.09,0,0,1,2.22,3.72,4.64,4.64,0,0,0,.54,2.44.93.93,0,0,0,.23.21c.49.3,1.09-.1,1.56-.43a13.26,13.26,0,0,1,5.48-1.88,12.51,12.51,0,0,0,2.52-.58.56.56,0,0,0,.33-.33c.08-.25-.13-.32-.2-.48a.49.49,0,0,1,0-.29A5.86,5.86,0,0,1,28.37,40.33Z"/><path class="cls-6" d="M23.66,56.31c.77-.5,1.93-1.16,2.25-2a21.71,21.71,0,0,1,.95-2.57,13.32,13.32,0,0,1,1.5-2.08c.28-.35.55-.83.31-1.2a1,1,0,0,0-1-.26,1.72,1.72,0,0,1-1.1,0c.08-1,.12-1.93.21-2.93A3,3,0,0,0,26.68,44a2.42,2.42,0,0,0-2.24-1.3A8.09,8.09,0,0,0,19,44.67a7,7,0,0,0-1,1,9.78,9.78,0,0,0-1.25,2.16,5.63,5.63,0,0,0-.44,1.14,4.75,4.75,0,0,0-.05,1.39A9.53,9.53,0,0,0,17,53.61a5.35,5.35,0,0,0,2.19,2.49,5.46,5.46,0,0,0,1.8.59A3.17,3.17,0,0,0,23.66,56.31Z"/><path class="cls-7" d="M21.62,61.18A3.54,3.54,0,0,1,20.25,61a4.16,4.16,0,0,1-2.33-1.75,3.87,3.87,0,0,1-.51-2.86,17.47,17.47,0,0,0,7.38,0,4.9,4.9,0,0,1-.6,3.08A3.52,3.52,0,0,1,21.62,61.18Z"/><path class="cls-4" d="M19.19,52.13a1,1,0,0,1,.23,0,15.48,15.48,0,0,0,4.08.07,2.63,2.63,0,0,0,.41-.08c.08,0,0-.18.12-.14a5,5,0,0,1,.29,2,.14.14,0,0,1-.09.13,5.08,5.08,0,0,1-1.6.08,5.43,5.43,0,0,1-1.81-.42A3.4,3.4,0,0,1,19.19,52.13Z"/><path class="cls-2" d="M24.08,52a.05.05,0,0,1,0,0,2.29,2.29,0,0,1-1.49,1,3.4,3.4,0,0,1-3.4-.87c1.28-.67,2.18-.74,4.26-.42C23.65,51.75,24,51.8,24.08,52Z"/><path class="cls-3" d="M21,46.92c-.07,0,.14.36-.34.45-.22,0-.34,0-.38-.25a1.17,1.17,0,0,1,.58-1,1.82,1.82,0,0,1,1.12-.34,5.55,5.55,0,0,1,3.27,1.3c.32.27,1,.81,1.13.75s.47-.46,1.07-1.24c.36-.48,1-1.06,1.55-1a.71.71,0,0,1,.65.43.57.57,0,0,1-.16.74c-.34.24-.49,0-.62-.07s0,.23,0,.3a.88.88,0,0,0,1.29.12,1.57,1.57,0,0,0,.58-1.05,2,2,0,0,0-.1-1c-.25-.68-1.08-.81-1.8-.84a2.13,2.13,0,0,0-2,1.12c-.54,1.22-.44,1.38-.58,1.36s-.23-.94-.43-1.28c-1-1.7-3.29-1.56-4.31-1.3a2.87,2.87,0,0,0-2.11,1.86,1.7,1.7,0,0,0,.34,1.94,1.15,1.15,0,0,0,1,.37.7.7,0,0,0,.55-.58C21.36,47.16,21.06,46.87,21,46.92Z"/><path class="cls-8" d="M15.68,54.13c-.33-.45-1-1.6-1.29-2-.62-.87-.88-1.88-1.84-2.36A6.9,6.9,0,0,0,11,49.24a1.46,1.46,0,0,1-1.09-.81,2.18,2.18,0,0,1-.05-2c.13-.35.74-1.09,2.43-1.26a12,12,0,0,1,2-.06c1.07.07,1,.09,2.06.09.74,0,.74,0,1,.7.19.45.49,2.12.7,2.88.08.27,1,4.25,1.18,4.84L19.62,55a1.12,1.12,0,0,1,0,.77c-.17.36-.64.42-1,.44l-.81,0a.92.92,0,0,1-.33,0c-.13,0-.06-.34-.15-.44A12.34,12.34,0,0,1,15.68,54.13Z"/><path class="cls-4" d="M21.88,51.74a.62.62,0,0,0-.75.7.58.58,0,0,0,.52.53.65.65,0,0,0,.67-.51C22.38,52.15,22.19,51.76,21.88,51.74Z"/><g class="cls-13"><path class="cls-4" d="M25.82,48.25c.51.25.88-.28,1.06-.7a1.41,1.41,0,0,0,.17-.82,3.11,3.11,0,0,1,0-2.17s0-.08-.06,0a1.49,1.49,0,0,0-.45,1.41A6.66,6.66,0,0,1,26.78,47a1.06,1.06,0,0,1-.95,1.16,0,0,0,0,0,0,0Z"/><path class="cls-4" d="M26,47.91c-.5-1,.14-1.38.15-2.29a2.33,2.33,0,0,0-.72-1.7,0,0,0,0,0-.08,0c.11.38.27.75.38,1.13.18.56-.17,1.15-.31,1.67A1.1,1.1,0,0,0,25.9,48a.05.05,0,0,0,.08-.06Z"/><path class="cls-4" d="M27.37,47.26c.5-.23.46-.86.4-1.32A1.76,1.76,0,0,1,28,44.4c.29-.33.73-.27,1.09-.45a.11.11,0,0,0,0-.21c-.63-.26-1.29.32-1.53.85a1.89,1.89,0,0,0-.08,1,2.13,2.13,0,0,1-.17,1.52.08.08,0,0,0,.11.11Z"/><path class="cls-4" d="M28.1,46.62a1.2,1.2,0,0,0,.54-1.06A2.57,2.57,0,0,1,29,44.45a3.6,3.6,0,0,1,1-.85s0-.1-.05-.09a2.09,2.09,0,0,0-1.28,1.12c-.31.59-.09,1.38-.59,1.89a.06.06,0,0,0,.07.1Z"/><path class="cls-4" d="M28.73,46.36c.54.06.67-.74.84-1.09.34-.68,1.11-.79,1.76-.93a.08.08,0,0,0,0-.12c-.35-.38-1.14.08-1.48.29a1.74,1.74,0,0,0-.58.61c-.18.31-.22,1-.59,1.13a.06.06,0,0,0,0,.12Z"/><path class="cls-4" d="M29.29,46.61c.31-.53.89-.59,1.35-.93a1.59,1.59,0,0,0,.71-1.07.06.06,0,0,0-.11,0c-.19.2-.29.47-.47.68a2,2,0,0,1-.76.51c-.37.16-.78.38-.79.83a0,0,0,0,0,.08,0Z"/><path class="cls-4" d="M28.69,46.79a1.32,1.32,0,0,0,1.45.29c.71-.32,1-1,1.61-1.42a.07.07,0,0,0,0-.14,1.06,1.06,0,0,0-.85.55,1.75,1.75,0,0,1-2.15.69,0,0,0,0,0,0,0Z"/><path class="cls-4" d="M25.18,47.47c-.15-.09-.23-.65-.28-.82A2.76,2.76,0,0,1,25,45a1.23,1.23,0,0,0-.44-1.19.08.08,0,0,0-.13.07c.09.47.34.73.19,1.26a2.44,2.44,0,0,0-.13,1.07c.06.38.15,1.25.63,1.36a.08.08,0,0,0,.06-.15Z"/><path class="cls-4" d="M24.08,46.74c-.55-.58-.1-1.58-.28-2.3a1.65,1.65,0,0,0-1.14-1.19.08.08,0,0,0-.09.12,8.15,8.15,0,0,0,.65.79,1.94,1.94,0,0,1,.28,1.2,1.52,1.52,0,0,0,.55,1.41s0,0,0,0Z"/><path class="cls-4" d="M23.07,46.47c-.31-.64,0-1.36-.31-2a2,2,0,0,0-1.05-1.07.06.06,0,0,0-.07.07c.21.55.78.85,1,1.45s0,1.09.41,1.62c0,0,.09,0,.07-.05Z"/><path class="cls-4" d="M22.32,46.45c-.57,0-.45-1.17-.56-1.58s-.55-1.14-1.12-1.2a.08.08,0,0,0-.07.12c.22.34.58.55.81.9a2.36,2.36,0,0,1,.29.93c.06.36.21.91.66.91,0,0,0-.07,0-.08Z"/><path class="cls-4" d="M21.35,46.56c-.39-.17-.5-1-.7-1.34s-.61-.9-1.14-.89a.08.08,0,0,0-.06.14c.18.22.41.38.61.59a3.22,3.22,0,0,1,.5.79c.15.31.37.78.77.8,0,0,.06-.06,0-.08Z"/><path class="cls-4" d="M20.86,48.39a1.39,1.39,0,0,0-.26-1.54,11.31,11.31,0,0,0-.83-.82c-.4-.44-.34-.94-.5-1.46a.09.09,0,0,0-.16,0,1.54,1.54,0,0,0,.27,1.52c.55.83,1.53,1.13,1.46,2.31,0,0,0,0,0,0Z"/><path class="cls-4" d="M20.27,48.57a1.55,1.55,0,0,0-.54-1.34c-.31-.33-.68-.47-.87-.93a1.64,1.64,0,0,0-.32-.67.09.09,0,0,0-.15.06,2,2,0,0,0,.46,1.21c.48.58,1.21.84,1.37,1.67,0,0,.06,0,.06,0Z"/></g><g class="cls-14"><path class="cls-4" d="M19.34,55.77c-1.06-.81-.53-1.44-.53-2.37a.85.85,0,0,0-.33-.63c-1.52-.82-.3-2.15-.57-3.38a4,4,0,0,0-.72-1.07A2.83,2.83,0,0,1,17,45.69a1.78,1.78,0,0,0-.82-1.85A.1.1,0,0,0,16,44c.25.69.66,1.12.48,1.93a3.1,3.1,0,0,0-.25,1.3A4,4,0,0,0,17,48.79c.42.57.69.62.53,1.56-.06.33-.22.64-.25,1-.1,1.25,1.36,1.76,1.09,2.93a1.23,1.23,0,0,0,.93,1.61c.05,0,.05-.06,0-.09Z"/><path class="cls-4" d="M18.07,55.86c-.44-.09.12-1.81-.32-2.25-.59-.59-1.33-1.06-1-2.09a2.68,2.68,0,0,0,.21-1.38c-.35-1.4-1.68-1.84-1.25-3.55.21-.82.55-1.73-.23-2.33-.06-.05-.14,0-.1.1.68,1.26-.47,2.56,0,3.9a3.35,3.35,0,0,0,.66.94,2.4,2.4,0,0,1,.29,2.55c-.23.84.23,1.31.87,1.75,1.05.72-.09,2,.69,2.53A.11.11,0,0,0,18,56l.1-.06a.06.06,0,0,0,0-.11Z"/><path class="cls-4" d="M16.92,56.08c.59-.47.09-1.32-.24-1.81s-.83-.74-1-1.38c-.26-.79.3-1.45.21-2.22-.17-1.47-2.05-1.8-1.47-3.57.42-1.27,1.09-2.1.36-3.43a.07.07,0,0,0-.12,0,3.76,3.76,0,0,1-.25,2.38,4.71,4.71,0,0,0-.59,1.51,2.63,2.63,0,0,0,.91,2,1.93,1.93,0,0,1,.53,2.1,2.51,2.51,0,0,0,0,1.3c.21,1.08,2.16,1.67,1.58,3a.07.07,0,0,0,.12.09Z"/><path class="cls-4" d="M14.17,52.79c1-1.29.18-2.72-.8-3.67-1.31-1.27-.12-2.44.4-3.7a1.45,1.45,0,0,0-.35-1.79c-.07,0-.18,0-.15.11.73,1.8-1.28,2.88-.83,4.71a3.05,3.05,0,0,0,1,1.31A2.69,2.69,0,0,1,14,52.71c0,.08.09.15.14.08Z"/><path class="cls-4" d="M13.08,50.54a1.91,1.91,0,0,0-.63-1.16c-.78-.8-1.18-1.55-.56-2.6.42-.72,1.15-1.52.55-2.35a.08.08,0,0,0-.16,0,3.12,3.12,0,0,1-.64,1.88,2.44,2.44,0,0,0-.51,1.17c0,1.51,1.15,1.87,1.84,3,0,0,.11,0,.1,0Z"/><path class="cls-4" d="M11.33,50c-.57-.79-1.07-1.39-.82-2.43.17-.69.67-1.23.8-1.95A1.38,1.38,0,0,0,10.57,44a.09.09,0,0,0-.08.15c1.22,1.1-.13,2.5-.38,3.67a2.4,2.4,0,0,0,1.14,2.29s.13,0,.09-.07Z"/></g><path class="cls-5" d="M16.76,54.93a.39.39,0,0,0-.23,0,.39.39,0,0,0-.14.15c-.38.58-.58,1.12-.92,1.7a.17.17,0,0,0,.1.25,24.64,24.64,0,0,0,10.58.09.3.3,0,0,0,.18-.1c.08-.11,0-.26-.08-.37l-.84-1.2a.6.6,0,0,0-.26-.24C25,55.18,18.4,55.27,16.76,54.93Z"/><path class="cls-4" d="M24.84,55.86a.51.51,0,1,0,.51.51.51.51,0,0,0-.51-.51Z"/><path class="cls-4" d="M23.21,56a.61.61,0,0,0-.78.11.59.59,0,0,0-.14.54.58.58,0,0,0,.39.39.64.64,0,0,0,.64-.17.57.57,0,0,0-.11-.88Z"/><path class="cls-4" d="M20.33,56.12v0a.6.6,0,1,0,1.13.3v0a.61.61,0,0,0-.44-.58.6.6,0,0,0-.67.27Z"/><path class="cls-4" d="M18.79,55.81a.54.54,0,1,0,.54.54.54.54,0,0,0-.54-.54Z"/><path class="cls-4" d="M16.87,55.68a.42.42,0,1,0,.42.42.43.43,0,0,0-.42-.42Z"/><path class="cls-4" d="M23.29,59.34c0-.13.09-.26,0-.38a.1.1,0,0,0-.18,0,.59.59,0,0,0,0,.43c0,.09.14.06.14,0Z"/><path class="cls-4" d="M21.79,58.57a.44.44,0,0,0,0-.26c0-.15-.25-.15-.23,0a.52.52,0,0,0,.07.26.07.07,0,0,0,.11,0Z"/><path class="cls-4" d="M22.11,60.66a1.08,1.08,0,0,0,.07-.5.12.12,0,0,0-.23,0,1.09,1.09,0,0,0,.07.5,0,0,0,0,0,.09,0Z"/><path class="cls-4" d="M20.71,59.79c0-.13.07-.33-.05-.42a.06.06,0,0,0-.08,0c-.07.1,0,.29,0,.4a.06.06,0,0,0,.11,0Z"/><path class="cls-4" d="M19.82,60.61a.5.5,0,0,0,0-.36.14.14,0,0,0-.28,0,.54.54,0,0,0,0,.15c0,.06.07.1.09.16a.06.06,0,0,0,.11,0Z"/><path class="cls-4" d="M19.5,58.35a1.14,1.14,0,0,0,0-.29c0-.14-.23-.14-.22,0a1.86,1.86,0,0,0,.06.29.07.07,0,0,0,.13,0Z"/><path class="cls-4" d="M18.69,59.4s0,0,0-.06a.63.63,0,0,0,0-.13.32.32,0,0,0-.07-.26.13.13,0,0,0-.2,0,.38.38,0,0,0,0,.27.34.34,0,0,0,.14.2.05.05,0,0,0,.09,0Z"/><path class="cls-4" d="M17.92,58.15c0-.13,0-.3,0-.41a.12.12,0,0,0-.22.09.66.66,0,0,0,.09.17c0,.06.06.12.09.17s.09,0,.08,0Z"/><path class="cls-4" d="M24.15,58.16c0-.14.11-.37,0-.49a.06.06,0,0,0-.08,0c-.13.12,0,.35,0,.49a.06.06,0,0,0,.11,0Z"/><path class="cls-7" d="M24.83,56.22a.16.16,0,0,0,0,.32.16.16,0,0,0,0-.32Z"/><path class="cls-7" d="M22.87,56.37a.14.14,0,0,0,0,.28.14.14,0,0,0,0-.28Z"/><path class="cls-7" d="M20.82,56.21a.2.2,0,0,0,0,.39.2.2,0,0,0,0-.39Z"/><path class="cls-7" d="M18.77,56.16a.18.18,0,0,0,0,.37.18.18,0,0,0,0-.37Z"/><path class="cls-7" d="M16.88,55.92a.18.18,0,0,0,0,.36.18.18,0,0,0,0-.36Z"/><path class="cls-7" d="M20.78,41.43a8.1,8.1,0,0,0-.31-5c-.34-.71-1.36-.09-1,.61a15.3,15.3,0,0,1,1,4.29c0,.21.33.29.39.05Z"/><path class="cls-7" d="M17.28,42.18a5,5,0,0,0-.7-2.73c-.33-.65-1.07-2.05-1.93-2a.49.49,0,0,0-.47.47c-.05.69.83,1.35,1.21,1.86a19.73,19.73,0,0,1,1.44,2.47c.12.23.42.1.44-.12Z"/><path class="cls-4" d="M23.12,41.8a11.38,11.38,0,0,0,.5-2.2,8.15,8.15,0,0,0,.2-2.13c-.07-.55-1-.81-1.08-.15a27.52,27.52,0,0,0-.06,4.41.22.22,0,0,0,.44.06Z"/><path class="cls-4" d="M19.35,42.25A7.34,7.34,0,0,0,19,39c-.2-.73-.54-2-1.29-2.27s-1,.62-.6,1a8.93,8.93,0,0,1,.82,1.69,14.54,14.54,0,0,1,1,2.78c.05.21.39.22.43,0Z"/><path class="cls-4" d="M15.5,42a2.58,2.58,0,0,0-1.09-2.13c-.53-.52-1-1.31-1.78-1.37s-.79,1.24,0,1.22c.29,0,.74.58,1,.75.45.34,1.41.9,1.48,1.54a.21.21,0,0,0,.41,0Z"/><path class="cls-4" d="M20.58,39.84a.25.25,0,0,0,0,.49.25.25,0,0,0,0-.49Z"/><path class="cls-4" d="M20.51,38.73a.28.28,0,0,0,0,.55.28.28,0,0,0,0-.55Z"/><path class="cls-4" d="M20.18,37.79h0a.29.29,0,0,0,0,.41h0a.3.3,0,1,0,0-.42Z"/><path class="cls-4" d="M20.19,37.18h0a.2.2,0,0,0,0-.28h0a.22.22,0,1,0,0,.31Z"/><path class="cls-4" d="M16.84,41.17a.23.23,0,0,0,0,.46.23.23,0,0,0,0-.46Z"/><path class="cls-4" d="M16.52,40.27a.27.27,0,0,0,0,.53.27.27,0,0,0,0-.53Z"/><path class="cls-4" d="M16,39.28a.35.35,0,1,0,.35.35.35.35,0,0,0-.35-.35Z"/><path class="cls-4" d="M15.34,38.5a.32.32,0,1,0,.32.32.32.32,0,0,0-.32-.32Z"/><path class="cls-4" d="M14.78,38a.23.23,0,0,0,0,.47.23.23,0,0,0,0-.47Z"/><path class="cls-4" d="M14.85,37.87l-.23-.2c-.06-.05-.12-.13-.22-.11a.07.07,0,0,0-.06.08c0,.09.09.13.16.18l.25.18a.08.08,0,0,0,.1-.13Z"/><path class="cls-4" d="M12.14,37a2.09,2.09,0,0,1-.15.29c0,.09-.09.17,0,.26s0,.05.08,0,.12-.12.15-.22a2.19,2.19,0,0,0,.1-.33.07.07,0,0,0-.13,0Z"/><path class="cls-4" d="M12.93,35.26l-.35.11a1,1,0,0,0-.33.15.14.14,0,0,0,.06.25c.28,0,.48-.25.7-.37s0-.17-.08-.14Z"/><path class="cls-4" d="M5.36,33.73l-.16.39a.47.47,0,0,0-.07.34.08.08,0,0,0,.1,0c.12,0,.18-.17.21-.28s.08-.27.12-.41-.15-.23-.21-.09Z"/><path class="cls-7" d="M13.62,38.93a7.64,7.64,0,0,0,2.07-2.82,4.16,4.16,0,0,0-.1-2.12,7.34,7.34,0,0,0-.95-2.28,5.92,5.92,0,0,0-2.22-1.92,7.56,7.56,0,0,0-3.62-.62,4.59,4.59,0,0,0-3.36,2.65,6.74,6.74,0,0,0-.6,4.61c.05.16.11.31.17.46a6.26,6.26,0,0,0,3.7,3.5C9.86,40.78,11.5,41.23,13.62,38.93Z"/><path class="cls-12" d="M15.88,35.88a3.14,3.14,0,0,0-.47-1.95,15.89,15.89,0,0,0-3.46-3,.71.71,0,0,0-.3-.14.25.25,0,0,0-.28.14v0a1,1,0,0,0,.2.66c.9,1.24,1.28,1.26,2.46,2.93.33.46-.38.74-.63.5-.81-.77-1.23-1.22-2-2a5.15,5.15,0,0,0-1.42-1c-.19-.08-.45.26-.38.46a3.94,3.94,0,0,0,1.25,1.61,8.09,8.09,0,0,1,1.83,1.63.59.59,0,0,1-.23.82,23.81,23.81,0,0,0-3.58-2.34c-.29-.12-.93.43.16,1.29a32.3,32.3,0,0,1,2.8,2.09c.26.25-.18.76-.52.66a16.48,16.48,0,0,0-3.07-1.8c-.23-.09-.76-.17-.81.05-.11.49.62,1.11,1.21,1.49s1.64,1.15,2.32,1.49a3.05,3.05,0,0,0,3-.38,3.81,3.81,0,0,0,1.42-1.45A3.62,3.62,0,0,0,15.88,35.88Z"/><path class="cls-4" d="M6.25,35.59a.44.44,0,1,0,.62-.07.44.44,0,0,0-.62.07Z"/><path class="cls-4" d="M6.15,34.92l0,0a.34.34,0,0,0-.41,0,.34.34,0,0,0-.07.47l0,0a.35.35,0,0,0,.47.07.34.34,0,0,0,.14-.23.36.36,0,0,0-.13-.31Z"/><path class="cls-4" d="M5.2,34.34a.2.2,0,0,0,.31.24.2.2,0,0,0-.31-.24Z"/><path class="cls-4" d="M7.43,33.64A.42.42,0,1,0,8,33.57a.42.42,0,0,0-.59.07Z"/><path class="cls-4" d="M6.65,33.06a.34.34,0,0,0,.53.41.34.34,0,0,0-.53-.41Z"/><path class="cls-4" d="M6,32.77a.15.15,0,0,0,.24.19A.15.15,0,0,0,6,32.77Z"/><path class="cls-4" d="M9,32.27H9a.43.43,0,0,0,.26-.32.41.41,0,0,0-.56-.44.43.43,0,0,0-.26.32v0a.4.4,0,0,0,.54.42Z"/><path class="cls-4" d="M7.84,31.31a.27.27,0,1,0,.38,0,.27.27,0,0,0-.38,0Z"/><path class="cls-4" d="M10.24,30.13a.36.36,0,1,0,.5-.06.36.36,0,0,0-.5.06Z"/><path class="cls-4" d="M9.44,29.93a.23.23,0,0,0,.37.29.23.23,0,0,0-.37-.29Z"/><path class="cls-4" d="M8.63,29.86a.19.19,0,0,0,.3.23.19.19,0,0,0-.3-.23Z"/><path class="cls-4" d="M13.42,36.53a1,1,0,0,0-.56.49,1.16,1.16,0,0,0,0,.89,1.35,1.35,0,0,0,1.64.79,1.76,1.76,0,0,0,1.09-1.63,1.23,1.23,0,0,0-1.36-1.33c-1.19.06-2.11,2.24-.86,2.86a1.24,1.24,0,0,0,1.69-1,1.29,1.29,0,0,0-.15-1,.7.7,0,0,0-1-.27,1.54,1.54,0,0,0-.44,1.09c-.05.71,1.06.88,1.11.15a.41.41,0,0,1,0-.09l-.12.27a.64.64,0,0,0,.12-.41c0-.65-1-.62-1.11,0a.58.58,0,0,0,0,.09l1.11.15a2.58,2.58,0,0,1,.05-.37c0,.09,0-.07,0-.07-.11.28-.78-.19-.65.13a1.14,1.14,0,0,1-.1.28s-.08.08,0,.05-.09,0,0,0,.06.1,0,0a.8.8,0,0,1,0-.24,1,1,0,0,1,.17-.32c.07-.09,0-.07.1-.12l.09-.07s0,0,0,0c-.1,0,0,0,.06,0s0,0,.09,0,0,.07,0,.11a.77.77,0,0,1-.33.67.21.21,0,0,1-.18,0,1,1,0,0,1-.27-.2c-.15-.16-.2-.45-.08-.57s-.06-.44-.26-.35Z"/><path class="cls-5" d="M14,37.08a.31.31,0,0,0,.48.38.31.31,0,0,0-.48-.38Z"/><path class="cls-5" d="M13.25,37.27a.21.21,0,0,0,.32.25.21.21,0,0,0-.32-.25Z"/><path class="cls-5" d="M13.68,37.91a.19.19,0,0,0,.29.23.19.19,0,0,0-.29-.23Z"/><path class="cls-5" d="M14.86,38.17h0a.17.17,0,0,0,0-.28h0c-.12-.07-.26.06-.24.18s.18.21.28.12Z"/><path class="cls-5" d="M15.05,37.07a.18.18,0,0,0,.28.22.18.18,0,0,0-.28-.22Z"/><path class="cls-5" d="M14.73,36.32a.17.17,0,0,0,.26.21.17.17,0,0,0-.26-.21Z"/><path class="cls-5" d="M13.83,36.3a.17.17,0,0,0,.27.21.17.17,0,0,0-.27-.21Z"/><path class="cls-11" d="M17.56,30.17c.39,1.25,2.17,1.94,3.16,2.66a1.73,1.73,0,0,0,2.39-.09,1.71,1.71,0,0,0-.46-2.65c-1.15-.67-2.34-1.3-3.55-1.85a1.76,1.76,0,0,0-1.62,3.11c1.15.67,2.4,1.18,3.61,1.74l1.13-3.15a21,21,0,0,0-2.09-.56,3.94,3.94,0,0,0-2.07-.17.77.77,0,0,0-.5,1Z"/><path class="cls-12" d="M19.93,31.39h0a.73.73,0,0,0,.65-1.25l0,0a.77.77,0,0,0-.54-.2.74.74,0,0,0-.67,1,.76.76,0,0,0,.55.5Z"/><path class="cls-12" d="M18.85,30a.47.47,0,0,0-.84-.44.47.47,0,0,0,.84.44Z"/><path class="cls-12" d="M22.26,31.59a.42.42,0,0,0-.75-.39.42.42,0,0,0,.75.39Z"/><path class="cls-3" d="M5.75,12.71c.17-.15.35-.27.53-.4a3.19,3.19,0,0,0,.57-.46,1.41,1.41,0,0,0,.26-.5,1.2,1.2,0,0,0,0-.78.94.94,0,0,0-1.74.16,0,0,0,0,1,0,0h0a0,0,0,0,1,0,0,.94.94,0,0,0-1.74-.16,1.2,1.2,0,0,0,0,.78,1.43,1.43,0,0,0,.26.5,3.22,3.22,0,0,0,.57.46c.18.13.37.25.53.4s.46.48.46.48S5.67,12.79,5.75,12.71Z"/><path class="cls-3" d="M35.22,49.65c-.17.15-.35.27-.53.4a3.15,3.15,0,0,0-.57.46,1.38,1.38,0,0,0-.26.5,1.19,1.19,0,0,0,0,.78.94.94,0,0,0,1.74-.16,0,0,0,0,1,0,0h0a0,0,0,0,1,0,0,.94.94,0,0,0,1.74.16,1.2,1.2,0,0,0,0-.78,1.4,1.4,0,0,0-.26-.5,3.22,3.22,0,0,0-.57-.46c-.18-.13-.37-.25-.53-.4s-.46-.48-.46-.48S35.3,49.57,35.22,49.65Z"/><path class="cls-3" d="M6.47,3V7A1.87,1.87,0,0,1,6,8.45a1.83,1.83,0,0,1-1.25.41,3.08,3.08,0,0,1-.84-.12V8.16a3.6,3.6,0,0,0,.75.09,1.36,1.36,0,0,0,.71-.14.71.71,0,0,0,.3-.37A2.5,2.5,0,0,0,5.75,7V3Z"/><path class="cls-3" d="M34.46,59.29v-4a1.87,1.87,0,0,1,.47-1.46,1.83,1.83,0,0,1,1.25-.41,3.12,3.12,0,0,1,.84.12v.59a3.63,3.63,0,0,0-.75-.09,1.38,1.38,0,0,0-.71.14.72.72,0,0,0-.3.37,2.51,2.51,0,0,0-.08.74v4Z"/><path class="cls-3" d="M16.84,59.11H6.19a3.1,3.1,0,0,1-3-3.19V15.66h.19V55.92a2.92,2.92,0,0,0,2.82,3H16.84Z"/><rect class="cls-3" x="25.39" y="58.93" width="7.39" height="0.19"/><path class="cls-3" d="M37.74,46.82h-.19V6.36a2.92,2.92,0,0,0-2.82-3h-11V3.17h11a3.1,3.1,0,0,1,3,3.19Z"/><rect class="cls-3" x="8.45" y="3.17" width="6.84" height="0.19"/></g></g></svg>