<svg xmlns="http://www.w3.org/2000/svg" xmlns:xlink="http://www.w3.org/1999/xlink" viewBox="0 0 40.93 62.29"><defs><style>.cls-1{fill:none;}.cls-2{fill:#fff;}.cls-3{fill:#141247;}.cls-4{fill:#0c0a35;}.cls-5{fill:#990028;}.cls-6{fill:#191956;}.cls-7{fill:#fcc07e;}.cls-8{fill:#ffd6a1;}.cls-9{fill:#d6002b;}.cls-10{fill:#222272;}.cls-11{clip-path:url(#clip-path);}.cls-12{fill:#b70027;}.cls-13{clip-path:url(#clip-path-2);}.cls-14{clip-path:url(#clip-path-3);}.cls-15{clip-path:url(#clip-path-4);}.cls-16{fill:#f70032;}.cls-17{clip-path:url(#clip-path-5);}.cls-18{clip-path:url(#clip-path-6);}.cls-19{clip-path:url(#clip-path-7);}.cls-20{clip-path:url(#clip-path-8);}</style><clipPath id="clip-path"><path class="cls-1" d="M22.5,17.67A4.24,4.24,0,0,1,19.84,16,7.54,7.54,0,0,1,19,13.8c-.05-.2-.09-.38-.15-.55s-.23-.12-.36-.11c-.83.11-.91.14-1.62.24a4,4,0,0,1-1.33,3.07,7.38,7.38,0,0,1-2,1.23,8.55,8.55,0,0,0,2.7-.95,4.34,4.34,0,0,0,1.53-2.21,6.9,6.9,0,0,0,1.47,2.1,2.38,2.38,0,0,0,.45.36,6.77,6.77,0,0,0,.67.35A5.71,5.71,0,0,0,22.5,17.67Z"/></clipPath><clipPath id="clip-path-2"><path class="cls-1" d="M17.55,17.6a2,2,0,0,0,1.84.66,5,5,0,0,1-1,1.55,2.6,2.6,0,0,1-1.43.66A12.54,12.54,0,0,0,17.55,17.6Z"/></clipPath><clipPath id="clip-path-3"><path class="cls-1" d="M27.79,18.14a5.52,5.52,0,0,0,2,.32,14.47,14.47,0,0,1-.88-3.34c-.05-.34-.29-2.21-.31-2.55a31.48,31.48,0,0,1,0-4.82.24.24,0,0,0,0-.15.25.25,0,0,0-.19-.08c-1.39-.12-2.79.37-4.18.23a21.3,21.3,0,0,0-.28,5.8,4.54,4.54,0,0,0,.57,1.89C25.85,17.54,26.87,17.86,27.79,18.14Z"/></clipPath><clipPath id="clip-path-4"><path class="cls-1" d="M30.28,5a8,8,0,0,0-1.7,3.48,38.48,38.48,0,0,1-3.88.11c-.53,0-1.07,0-1.6,0a43.2,43.2,0,0,1-4.83-.11A1.25,1.25,0,0,1,17.59,8a.9.9,0,0,1-.18-.29A11.2,11.2,0,0,0,15.66,5s-.1-.11-.06-.15a.27.27,0,0,1,.15-.08,20,20,0,0,1,4.84-.43q4.66,0,9.31.29a.63.63,0,0,1,.31.07C30.29,4.78,30.35,4.89,30.28,5Z"/></clipPath><clipPath id="clip-path-5"><path class="cls-1" d="M18.75,45.09A4.25,4.25,0,0,1,21.4,46.8,7.53,7.53,0,0,1,22.23,49c.06.2.09.38.15.55s.23.12.36.11l1.62-.24a4,4,0,0,1,1.33-3.07,7.38,7.38,0,0,1,2-1.23A8.66,8.66,0,0,0,25,46a4.35,4.35,0,0,0-1.53,2.21A6.86,6.86,0,0,0,22,46.13a2.22,2.22,0,0,0-.45-.36,6.74,6.74,0,0,0-.67-.35A5.78,5.78,0,0,0,18.75,45.09Z"/></clipPath><clipPath id="clip-path-6"><path class="cls-1" d="M23.69,45.16a2,2,0,0,0-1.84-.66,5,5,0,0,1,1-1.55,2.59,2.59,0,0,1,1.43-.66A12.54,12.54,0,0,0,23.69,45.16Z"/></clipPath><clipPath id="clip-path-7"><path class="cls-1" d="M13.45,44.62a5.52,5.52,0,0,0-2-.32,14.43,14.43,0,0,1,.88,3.34c.05.34.29,2.21.31,2.56a31.2,31.2,0,0,1,0,4.81.25.25,0,0,0,0,.15.23.23,0,0,0,.19.08c1.39.13,2.79-.36,4.18-.22a21.42,21.42,0,0,0,.28-5.8,4.54,4.54,0,0,0-.57-1.89C15.39,45.22,14.37,44.9,13.45,44.62Z"/></clipPath><clipPath id="clip-path-8"><path class="cls-1" d="M11,57.79a7.93,7.93,0,0,0,1.7-3.48,37.9,37.9,0,0,1,3.88-.11c.53,0,1.07,0,1.6,0a43.18,43.18,0,0,1,4.83.11,1.27,1.27,0,0,1,.68.39.88.88,0,0,1,.18.29,11.14,11.14,0,0,0,1.75,2.71s.1.11.06.15a.26.26,0,0,1-.15.07,20,20,0,0,1-4.84.43q-4.66,0-9.31-.29A.61.61,0,0,1,11,58C11,58,10.9,57.87,11,57.79Z"/></clipPath></defs><title>Fichier 38</title><g id="Calque_2" data-name="Calque 2"><g id="Layer_1" data-name="Layer 1"><rect class="cls-2" x="0.09" y="0.09" width="40.74" height="62.1" rx="3.45" ry="3.45"/><path class="cls-2" d="M37.39,62.29H3.54A3.55,3.55,0,0,1,0,58.74V3.54A3.55,3.55,0,0,1,3.54,0H37.39a3.55,3.55,0,0,1,3.54,3.54v55.2A3.55,3.55,0,0,1,37.39,62.29ZM3.54.19A3.36,3.36,0,0,0,.19,3.54v55.2A3.36,3.36,0,0,0,3.54,62.1H37.39a3.36,3.36,0,0,0,3.36-3.36V3.54A3.36,3.36,0,0,0,37.39.19Z"/><path class="cls-3" d="M28.08,21.75a11.21,11.21,0,0,1,4.12,1.08,6.89,6.89,0,0,1,2.36,2.32c1.68,2.57,1,9.3.67,9.31l-22.93.44a18.94,18.94,0,0,1-3.45-.14.79.79,0,0,1-.38-.14.5.5,0,0,1-.14-.3l-.62-3a8.52,8.52,0,0,1-.23-3.64,6.58,6.58,0,0,1,2.94-3.79,17.24,17.24,0,0,1,5-2.11,18.32,18.32,0,0,1,3.09-.6,25.55,25.55,0,0,1,4.25.07C24.54,21.41,26.32,21.54,28.08,21.75Z"/><path class="cls-3" d="M13.16,41A11.16,11.16,0,0,1,9,39.93a6.91,6.91,0,0,1-2.36-2.32C5,35,5.68,28.31,6,28.31l22.92-.44a18.75,18.75,0,0,1,3.45.15.78.78,0,0,1,.38.14.52.52,0,0,1,.14.31l.62,3a8.54,8.54,0,0,1,.23,3.64,6.59,6.59,0,0,1-2.94,3.79,17.23,17.23,0,0,1-5,2.1,18.33,18.33,0,0,1-3.09.6,25.37,25.37,0,0,1-4.25-.08C16.71,41.35,14.93,41.22,13.16,41Z"/><path class="cls-4" d="M9.51,26a5.33,5.33,0,0,0-2,.55,6.76,6.76,0,0,0-2.27,2.19,6.09,6.09,0,0,0-.48,5.15,5.2,5.2,0,0,0,2.48,2.74,9.57,9.57,0,0,0,3.62,1,71.23,71.23,0,0,0,.34-8.22,7,7,0,0,0-.32-2.6,1.28,1.28,0,0,0-.66-.78A1.47,1.47,0,0,0,9.51,26Z"/><path class="cls-4" d="M31.73,36.74a5.28,5.28,0,0,0,2-.55A6.72,6.72,0,0,0,36,34a6.09,6.09,0,0,0,.48-5.15A5.2,5.2,0,0,0,34,26.11a9.61,9.61,0,0,0-3.62-1,71.2,71.2,0,0,0-.34,8.22,7,7,0,0,0,.32,2.6,1.28,1.28,0,0,0,.66.78A1.49,1.49,0,0,0,31.73,36.74Z"/><path class="cls-5" d="M33.62,33.48c.76-1.14.58-4.13-.64-4.94a.14.14,0,0,0-.21.13A19.4,19.4,0,0,0,33.15,31c.09.81-.06,1.67.11,2.46a.2.2,0,0,0,.36,0Z"/><path class="cls-5" d="M34.83,33.3c1-.16,1-1.71.93-2.45s-.46-2.12-1.33-2.46c-.1,0-.2.08-.18.18.21.74.57,1.41.74,2.17a3.84,3.84,0,0,1-.32,2.41c0,.1.07.17.16.16Z"/><path class="cls-6" d="M8.21,28.66c.45-.12.86-.33,1.31-.46a1.93,1.93,0,0,1,1.37,0,2.45,2.45,0,0,1,.78.92A2.92,2.92,0,0,0,14,30.33c1.09,0,2.16-.64,3.2-.38.83.2,1.34.9,2.15,1.16,1.32.43,2.73-.45,4.16-.47a9.92,9.92,0,0,1,2.37.44,11.11,11.11,0,0,0,2.44.28A3.68,3.68,0,0,0,30.14,31a9.52,9.52,0,0,1,1.25-.84,2.87,2.87,0,0,1,1.67,0,5.62,5.62,0,0,0,1.66.29c.57,0,1.91-.55,1.92-1a6,6,0,0,0-1.15-3.67A11.44,11.44,0,0,0,32,22.74a16.4,16.4,0,0,0-6.35-1.41c-1.06-.06-2.13,0-3.19,0a33.8,33.8,0,0,0-5.77.09c-5.06.91-6.54.51-8.74,3.11C6.72,26,6.62,27.73,6.89,28.17A1.08,1.08,0,0,0,8.21,28.66Z"/><path class="cls-4" d="M22.67,1.23c0-.08.07-.17.15-.17s.11.06.14.12a7.38,7.38,0,0,1,.63,1.45,10.45,10.45,0,0,1-1-.05c-.06,0-.12,0-.14-.07a.17.17,0,0,1,0-.1C22.48,2,22.56,1.62,22.67,1.23Z"/><path class="cls-7" d="M25.62,19.48a5.7,5.7,0,0,0-.21-1,12.36,12.36,0,0,1-.28-4.53,7.25,7.25,0,0,0-4.72,2.54c-.31.37-.63.8-1.11.87a7.11,7.11,0,0,1-.23,2.78,32.89,32.89,0,0,0,6.33-.39.27.27,0,0,0,.19-.08A.25.25,0,0,0,25.62,19.48Z"/><path class="cls-4" d="M25.71,18.87a.3.3,0,0,0-.36-.16,16.73,16.73,0,0,1-3.26.35c-2.08.12-2.78-.06-2.94.18A12.81,12.81,0,0,1,15,23.47a.14.14,0,0,0,0,.25,5.29,5.29,0,0,0,1.88.09c1.82-.26,2.29-.91,3.31-2a3.93,3.93,0,0,0,1.94,3.07,5.61,5.61,0,0,0,1.44-3,4.12,4.12,0,0,0,.59.83,6.08,6.08,0,0,0,4.16,1.6.08.08,0,0,0,.08-.06c.06-.34-.81-1.18-1.34-2.13A14.75,14.75,0,0,1,25.71,18.87Z"/><path class="cls-8" d="M17.13,14A13.62,13.62,0,0,0,17,15.8a3.12,3.12,0,0,0,.48,1.7,2.28,2.28,0,0,0,1.82,1,4.57,4.57,0,0,0,2.13-.57,8.53,8.53,0,0,0,2-1.45,7.27,7.27,0,0,0,1.29-2.51,10.47,10.47,0,0,0,.77-6.36.49.49,0,0,0-.1-.22.51.51,0,0,0-.26-.12c-2.24-.5-4.61,0-6.84-.46-.42,1.19,0,2.59-.58,3.72A6.08,6.08,0,0,1,16.34,12c-.25.24-.51.6-.34.9s.89.25,1.09.64A.79.79,0,0,1,17.13,14Z"/><path class="cls-4" d="M22.5,17.67A4.24,4.24,0,0,1,19.84,16,7.54,7.54,0,0,1,19,13.8c-.05-.2-.09-.38-.15-.55s-.23-.12-.36-.11c-.83.11-.91.14-1.62.24a4,4,0,0,1-1.33,3.07,7.38,7.38,0,0,1-2,1.23,8.55,8.55,0,0,0,2.7-.95,4.34,4.34,0,0,0,1.53-2.21,6.9,6.9,0,0,0,1.47,2.1,2.38,2.38,0,0,0,.45.36,6.77,6.77,0,0,0,.67.35A5.71,5.71,0,0,0,22.5,17.67Z"/><path class="cls-4" d="M17.55,17.6a2,2,0,0,0,1.84.66,5,5,0,0,1-1,1.55,2.6,2.6,0,0,1-1.43.66A12.54,12.54,0,0,0,17.55,17.6Z"/><path class="cls-3" d="M27.79,18.14a5.52,5.52,0,0,0,2,.32,14.47,14.47,0,0,1-.88-3.34c-.05-.34-.29-2.21-.31-2.55a31.48,31.48,0,0,1,0-4.82.24.24,0,0,0,0-.15.25.25,0,0,0-.19-.08c-1.39-.12-2.79.37-4.18.23a21.3,21.3,0,0,0-.28,5.8,4.54,4.54,0,0,0,.57,1.89C25.85,17.54,26.87,17.86,27.79,18.14Z"/><path class="cls-4" d="M23.56,9.06s.07.5,0,.47a5.08,5.08,0,0,0-.87-.07,12.16,12.16,0,0,0-3.39.11,2.7,2.7,0,0,1,0-.63,39.05,39.05,0,0,0,4.2,0,.13.13,0,0,1,.11,0A.12.12,0,0,1,23.56,9.06Z"/><path class="cls-9" d="M23.27,13.71a.64.64,0,0,0-.15-.84.63.63,0,1,0,.15.84Z"/><path class="cls-10" d="M18,5.13a1.25,1.25,0,0,1,.14-.51,4.4,4.4,0,0,1,2.42-2.21,6.35,6.35,0,0,1,3.31-.28,4.12,4.12,0,0,1,1.38.44,4.93,4.93,0,0,1,.94.74,3.57,3.57,0,0,1,1.31,2.06,30.94,30.94,0,0,1-9.3,0,.28.28,0,0,1-.16-.07A.24.24,0,0,1,18,5.13Z"/><g class="cls-11"><path class="cls-12" d="M17.48,13a11,11,0,0,1-.39,2.32,7.52,7.52,0,0,1-1.46,2.3c0,.06,0,.12.1.08a5.57,5.57,0,0,0,1.87-4.71c0-.07-.12,0-.12,0Z"/><path class="cls-12" d="M18.2,12.5c-.51,1.63,0,3.94,1.61,4.81a2.88,2.88,0,0,0,.54.13,5.16,5.16,0,0,1-1.81-2.25,6.74,6.74,0,0,1-.19-2.67c0-.09-.12-.1-.15,0Z"/><path class="cls-12" d="M13.32,17.69c2.23-.06,4.29-2.72,3.64-4.87a.08.08,0,0,0-.15,0c-.09.42,0,.82-.11,1.25a6.57,6.57,0,0,1-.56,1.61c-.53,1.09-1.88,1.43-2.85,1.94a0,0,0,0,0,0,.06Z"/><path class="cls-12" d="M18.67,12.53a5,5,0,0,0,1,3.77c.8,1,2,2.17,3.4,1.83a.12.12,0,0,0,0-.21c-.44-.23-.92-.31-1.37-.52A5.55,5.55,0,0,1,20.22,16a7.25,7.25,0,0,1-1.45-3.48.05.05,0,0,0-.1,0Z"/></g><g class="cls-13"><path class="cls-12" d="M16.7,20.85a6.87,6.87,0,0,0,1.37-3.47s-.07-.07-.08,0c-.23.59-.29,1.23-.48,1.84a7.22,7.22,0,0,1-.81,1.65Z"/><path class="cls-12" d="M17.22,20.79A2.64,2.64,0,0,0,18,19.56a7.86,7.86,0,0,0,.5-2.08.06.06,0,0,0-.12,0c-.25.59-.23,1.25-.48,1.85s-.51,1-.72,1.45a0,0,0,0,0,0,0Z"/><path class="cls-12" d="M18.14,20.51A5.72,5.72,0,0,0,19,17.56a.08.08,0,0,0-.14,0c-.17.48-.22,1-.35,1.5s-.39.94-.48,1.44c0,.05.06.06.08,0Z"/></g><g class="cls-14"><path class="cls-12" d="M25,17.26a27,27,0,0,1-.27-4.71,40.73,40.73,0,0,1,.53-5.21.08.08,0,0,0-.15,0,12.44,12.44,0,0,0-.65,5.25c0,1.55-.15,3.29.52,4.72,0,0,0,0,0,0Z"/><path class="cls-12" d="M25.85,17.74a20.36,20.36,0,0,1-.2-5.76,16.79,16.79,0,0,1,.71-4.53.08.08,0,0,0-.14-.08c-.93,1-.72,3-.82,4.26a15.47,15.47,0,0,0,.42,6.12,0,0,0,0,0,0,0Z"/><path class="cls-12" d="M26.6,18.29A31.65,31.65,0,0,1,27.09,7.7a.09.09,0,0,0-.16-.06c-.83,1.43-.64,3.31-.74,4.89a15,15,0,0,0,.33,5.77s.08,0,.08,0Z"/><path class="cls-12" d="M28.07,18.81A24.87,24.87,0,0,1,27.55,16c-.07-.94-.11-1.9-.12-2.85a19.37,19.37,0,0,1,.32-5.09c0-.07-.08-.12-.12-.05-.72,1.42-.48,3.25-.48,4.79a17.13,17.13,0,0,0,.84,6,0,0,0,0,0,.08,0Z"/><path class="cls-12" d="M29.13,19.06c-.35-1.64-.5-3.31-.75-5a23,23,0,0,1-.27-3.18c0-1,.23-2,.14-3,0-.07-.12-.1-.14,0A20.29,20.29,0,0,0,28,13.45a22.17,22.17,0,0,0,1,5.63s.05,0,0,0Z"/></g><path class="cls-4" d="M30.28,5a8,8,0,0,0-1.7,3.48,38.48,38.48,0,0,1-3.88.11c-.53,0-1.07,0-1.6,0-1.76,0-2.45-.14-4.83-.11A.85.85,0,0,1,17.59,8a28.21,28.21,0,0,0-1.93-3s-.1-.11-.06-.15a.27.27,0,0,1,.15-.08,20,20,0,0,1,4.84-.43q4.66,0,9.31.29a.63.63,0,0,1,.31.07C30.29,4.78,30.35,4.89,30.28,5Z"/><g class="cls-15"><path class="cls-5" d="M16.77,5.28l.63.29a1,1,0,0,0,.4.13.19.19,0,0,0,.12,0A12.66,12.66,0,0,0,19,4.13a7.38,7.38,0,0,0-2.79.48.16.16,0,0,0-.09.07.14.14,0,0,0,0,.13A1.23,1.23,0,0,0,16.77,5.28Z"/><path class="cls-5" d="M21.54,5.46c.5-.45.79-.82,1.28-1.29L20.15,4a.9.9,0,0,0-.64.13c.61.38,1,1,1.65,1.4C21.18,5.55,21.27,5.69,21.54,5.46Z"/><path class="cls-5" d="M23.29,4.34l.45.73a3.79,3.79,0,0,0,.28.41,1.84,1.84,0,0,0,.4.36.2.2,0,0,0,.28-.07,8.53,8.53,0,0,1,1.08-1.19c.13-.13.18-.14.25-.31L24.81,4.2a5.3,5.3,0,0,0-1.59.06A.08.08,0,0,0,23.29,4.34Z"/><path class="cls-5" d="M26.79,4.11c-.14.1-.06.32,0,.46A8.77,8.77,0,0,0,28,6.22a.19.19,0,0,0,.29,0c.17-.29,1.21-1.41,1.39-1.78a13.77,13.77,0,0,1-2.61-.33A.36.36,0,0,0,26.79,4.11Z"/></g><path class="cls-4" d="M19.1,4.06a.18.18,0,0,0,0-.36.18.18,0,0,0,0,.36Z"/><path class="cls-4" d="M19.79,3.38a.11.11,0,0,0,0-.23.11.11,0,0,0,0,.23Z"/><path class="cls-4" d="M20.38,4.07a.13.13,0,0,0,0-.27.13.13,0,0,0,0,.27Z"/><path class="cls-4" d="M21,3.22a.17.17,0,0,0,0-.34.17.17,0,0,0,0,.34Z"/><path class="cls-4" d="M20.39,2.82a.13.13,0,0,0,0-.26.13.13,0,0,0,0,.26Z"/><path class="cls-4" d="M21.68,2.53a.15.15,0,0,0,0-.29.15.15,0,0,0,0,.29Z"/><path class="cls-4" d="M22,3.47a.11.11,0,0,0,0-.22.11.11,0,0,0,0,.22Z"/><path class="cls-4" d="M21.48,4.2a.19.19,0,0,0,0-.37.19.19,0,0,0,0,.37Z"/><path class="cls-4" d="M22.69,4.23a.19.19,0,0,0,0-.38.19.19,0,0,0,0,.38Z"/><path class="cls-4" d="M22.59,2.86a.12.12,0,0,0,0-.24.12.12,0,0,0,0,.24Z"/><path class="cls-4" d="M23.32,2.45a.13.13,0,0,0,0-.27.13.13,0,0,0,0,.27Z"/><path class="cls-4" d="M23.53,3.29h0c.2.06.2-.3,0-.24h0a.12.12,0,0,0,0,.23Z"/><path class="cls-4" d="M24,4.23a.17.17,0,0,0,0-.34.17.17,0,0,0,0,.34Z"/><path class="cls-4" d="M24.41,2.77a.15.15,0,0,0,0-.29.15.15,0,0,0,0,.29Z"/><path class="cls-4" d="M24.86,3.6a.17.17,0,0,0,0-.34.17.17,0,0,0,0,.34Z"/><path class="cls-4" d="M25.69,3.3a.13.13,0,0,0,0-.25.13.13,0,0,0,0,.25Z"/><path class="cls-4" d="M25.44,4.27a.15.15,0,0,0,0-.3.15.15,0,0,0,0,.3Z"/><path class="cls-4" d="M26.3,4.09a.18.18,0,0,0,0-.36.18.18,0,0,0,0,.36Z"/><path class="cls-16" d="M19.2,4.76a4.15,4.15,0,0,0,0,1.88.37.37,0,0,0,.73-.1,5.53,5.53,0,0,0-.36-1.78c-.06-.17-.34-.21-.38,0Z"/><path class="cls-16" d="M16.19,5.38a.9.9,0,0,0,.19.66,3.44,3.44,0,0,0,.51.73.29.29,0,0,0,.46-.35,3,3,0,0,0-.46-.61c-.16-.17-.37-.3-.53-.48a.1.1,0,0,0-.17,0Z"/><path class="cls-16" d="M22.72,4.95a5.15,5.15,0,0,0-.3,1,6.12,6.12,0,0,1-.07.63c-.13.53.72.74.81.22A5,5,0,0,0,23,4.95c0-.17-.27-.14-.32,0Z"/><path class="cls-16" d="M26.16,5.09A2.07,2.07,0,0,0,25.8,6c0,.27-.16.64,0,.88a.39.39,0,0,0,.43.18h0a.44.44,0,0,0,.31-.31,3.62,3.62,0,0,0,0-.82,1.48,1.48,0,0,0-.17-.84.16.16,0,0,0-.27,0Z"/><path class="cls-16" d="M29.56,5.42a1.66,1.66,0,0,0-.6.63,1.51,1.51,0,0,0-.39.86c0,.27.42.43.55.15a6.31,6.31,0,0,0,.64-1.48.14.14,0,0,0-.21-.16Z"/><path class="cls-16" d="M19.67,7.33a.15.15,0,0,0,0-.31.15.15,0,0,0,0,.31Z"/><path class="cls-16" d="M17.4,7.26a.15.15,0,0,0,0-.31.15.15,0,0,0,0,.31Z"/><path class="cls-16" d="M22.7,7.47a.14.14,0,0,0,0-.28.14.14,0,0,0,0,.28Z"/><path class="cls-16" d="M26.1,7.36h0a.11.11,0,0,0,0,.15l0,0a.13.13,0,1,0,0-.18Z"/><path class="cls-16" d="M28.73,7.67a.18.18,0,0,0,0-.35.18.18,0,0,0,0,.35Z"/><path class="cls-4" d="M19.49,6.09a.22.22,0,0,0,0-.45.22.22,0,0,0,0,.45Z"/><path class="cls-4" d="M16.84,6.18h0Z"/><path class="cls-4" d="M16.77,6.34a.18.18,0,0,0,0-.36.18.18,0,0,0,0,.36Z"/><path class="cls-4" d="M22.77,6.23a.22.22,0,0,0,0-.44.22.22,0,0,0,0,.44Z"/><path class="cls-4" d="M26.17,6.33a.23.23,0,0,0,0-.47.23.23,0,0,0,0,.47Z"/><path class="cls-4" d="M29.14,6.64a.25.25,0,0,0,0-.49.25.25,0,0,0,0,.49Z"/><path class="cls-4" d="M22.72,6.58a.09.09,0,0,0,0-.19.09.09,0,0,0,0,.19Z"/><path class="cls-4" d="M19.54,6.42a.11.11,0,0,0,0-.22.11.11,0,0,0,0,.22Z"/><path class="cls-4" d="M17,6.39h0c-.15,0-.09.25,0,.13h0a.07.07,0,0,0,0-.12Z"/><path class="cls-4" d="M16.56,6a.09.09,0,0,0,0-.18.09.09,0,0,0,0,.18Z"/><path class="cls-4" d="M19.44,5.55a.12.12,0,0,0,0-.25.12.12,0,0,0,0,.25Z"/><path class="cls-4" d="M22.85,5.72a.15.15,0,0,0,0-.29.15.15,0,0,0,0,.29Z"/><path class="cls-4" d="M26.14,6.67a.11.11,0,0,0,0-.23.11.11,0,0,0,0,.23Z"/><path class="cls-4" d="M26.17,5.74a.1.1,0,0,0,0-.21.1.1,0,0,0,0,.21Z"/><path class="cls-4" d="M29.07,6.72c-.07-.15-.3,0-.22.12s.28,0,.22-.12Z"/><path class="cls-4" d="M29.34,6.14a.1.1,0,0,0,0-.19.1.1,0,0,0,0,.19Z"/><path class="cls-4" d="M20.34,10c0,.08.06.17.17.17a.05.05,0,0,0,0,0c0-.07,0-.12,0-.19s-.23-.06-.18.05Z"/><path class="cls-4" d="M21.64,9.71a.27.27,0,0,0,0,.34s.14,0,.17,0a.42.42,0,0,0,0-.29.1.1,0,0,0-.18,0Z"/><path class="cls-4" d="M22.86,9.9a1.39,1.39,0,0,1-.08.16c-.07.12.12.22.17.1A1.69,1.69,0,0,0,23,9.95c0-.11-.13-.15-.17,0Z"/><path class="cls-4" d="M20.56,11.48c.08,0,.19-.12.18-.21a0,0,0,0,0,0,0c-.11,0-.21.12-.19.21s0,0,0,0Z"/><path class="cls-4" d="M21.7,11.2a.45.45,0,0,0-.07.41.12.12,0,0,0,.24,0,.45.45,0,0,0-.07-.41.07.07,0,0,0-.09,0Z"/><path class="cls-4" d="M22.74,11.05a.36.36,0,0,0,.12.29.1.1,0,0,0,.12,0l0,0a.1.1,0,0,0,0-.12c0-.08-.11-.13-.16-.2a.06.06,0,0,0-.11,0Z"/><path class="cls-4" d="M21,9.81c-.12.06-.08.23,0,.33s.25.08.21-.06,0-.21-.12-.27Z"/><path class="cls-4" d="M22.36,9.79c0,.07-.17.41,0,.41s.11-.12.13-.2a.2.2,0,0,0-.09-.22,0,0,0,0,0,0,0Z"/><path class="cls-4" d="M21.07,11.64c.17,0,.27-.23.27-.37a.11.11,0,0,0-.17-.1.45.45,0,0,0-.18.39.08.08,0,0,0,.08.08Z"/><path class="cls-4" d="M22.22,11.22a.32.32,0,0,0,.1.44.12.12,0,0,0,.17-.07c0-.16-.1-.27-.18-.38a.05.05,0,0,0-.09,0Z"/><path class="cls-2" d="M19.58,10.76a.17.17,0,0,1,.07-.12,2.49,2.49,0,0,1,1.22-.56A7.62,7.62,0,0,1,22.22,10a3.91,3.91,0,0,1,1.54.52,3.26,3.26,0,0,1-4.08.38S19.58,10.82,19.58,10.76Z"/><path class="cls-4" d="M21.22,10.83a.53.53,0,0,0,.92-.19.38.38,0,0,0,0-.13c0-.25-.56-.5-.92-.14A.35.35,0,0,0,21.22,10.83Z"/><path class="cls-16" d="M21.65,24.48l-.08,0A.85.85,0,0,0,22,26.1h.09a.85.85,0,1,0-.44-1.61Z"/><path class="cls-16" d="M14.78,24.63a.77.77,0,0,0,0-1.53.77.77,0,0,0,0,1.53Z"/><path class="cls-5" d="M16.37,23.6a5.63,5.63,0,0,0,1.67-1c.43-.35-.21-1-.62-.62a5.8,5.8,0,0,1-1.28,1.09c-.28.15-.09.63.22.52Z"/><path class="cls-5" d="M22.11,24a3.14,3.14,0,0,0,.2-.75c.06-.33.15-.65.19-1,.08-.64-1.07-.66-1,0,0,.29.06.58.08.88a1.69,1.69,0,0,0,.22.85.19.19,0,0,0,.32,0Z"/><path class="cls-5" d="M27.48,23.41a5,5,0,0,1-.36-.64L27,22.48l-.08-.16c.06.11,0-.09-.06-.13a.52.52,0,0,0-.59-.24.53.53,0,0,0-.36.64c.06.33.4.52.64.7s.21.2.33.29a1.46,1.46,0,0,0,.42.2c.22.09.36-.22.22-.37Z"/><path class="cls-5" d="M19.39,19.86h0c.2.07.35-.18.26-.34v0a.24.24,0,1,0-.27.35Z"/><path class="cls-5" d="M20.41,19.88h0a.25.25,0,0,0,0-.34h0a.25.25,0,1,0,0,.35Z"/><path class="cls-5" d="M20.94,20a.26.26,0,0,0,0-.52.26.26,0,0,0,0,.52Z"/><path class="cls-5" d="M21.65,19.92a.24.24,0,0,0,0-.47.24.24,0,0,0,0,.47Z"/><path class="cls-5" d="M22.34,19.84a.23.23,0,0,0,0-.47.23.23,0,0,0,0,.47Z"/><path class="cls-5" d="M22.95,19.76a.21.21,0,0,0,0-.41.21.21,0,0,0,0,.41Z"/><path class="cls-5" d="M23.58,19.73h0a.24.24,0,1,0,0-.47h0a.23.23,0,0,0,0,.45Z"/><path class="cls-5" d="M24.48,19.72a.26.26,0,0,0,0-.51.26.26,0,0,0,0,.51Z"/><path class="cls-5" d="M25.2,19.59a.21.21,0,0,0,0-.41.21.21,0,0,0,0,.41Z"/><path class="cls-16" d="M22,22.66a.29.29,0,1,0-.29-.29.29.29,0,0,0,.29.29Z"/><path class="cls-16" d="M17.73,22.64a.3.3,0,0,0,.21-.21.29.29,0,1,0-.21.21Z"/><path class="cls-16" d="M26.11,22.56v0a.27.27,0,0,0,.3.13.28.28,0,0,0,.2-.26v0a.28.28,0,1,0-.52.14Z"/><path class="cls-16" d="M18.33,21.83l.23-.18c.07-.07.17-.14.16-.25a.1.1,0,0,0-.1-.1c-.21,0-.3.31-.4.45s.05.13.11.08Z"/><path class="cls-16" d="M17.94,21.64l.11,0,.09-.08a.55.55,0,0,0,.15-.22.17.17,0,0,0-.24-.19.39.39,0,0,0-.17.23l0,.12s0,.08,0,.11,0,.13.09.09Z"/><path class="cls-16" d="M18.47,22.16a.48.48,0,0,0,.27-.05A.49.49,0,0,0,19,21.9c.05-.11,0-.28-.17-.22a.66.66,0,0,0-.23.16l-.09.1a.93.93,0,0,0-.07.12.06.06,0,0,0,.05.09Z"/><path class="cls-16" d="M21.53,21.79a.3.3,0,0,0,.08-.15.46.46,0,0,0,0-.23c0-.14-.28-.17-.31,0a.35.35,0,0,0,.17.39.07.07,0,0,0,.09,0Z"/><path class="cls-16" d="M22.07,21.6a.27.27,0,0,0,0-.23,1.09,1.09,0,0,0,0-.24.09.09,0,0,0-.08,0c-.24,0-.21.45,0,.54a.08.08,0,0,0,.1,0Z"/><path class="cls-16" d="M22.39,21.66a.6.6,0,0,0,.15-.14.65.65,0,0,0,.13-.2c0-.08-.07-.19-.15-.15s-.31.3-.22.47a.06.06,0,0,0,.08,0Z"/><path class="cls-16" d="M25.85,21.92a.42.42,0,0,0-.16-.44.15.15,0,0,0-.21.09.37.37,0,0,0,.28.4.07.07,0,0,0,.09-.05Z"/><path class="cls-16" d="M25.57,22.16a.72.72,0,0,0-.19-.14.26.26,0,0,0-.28,0,.14.14,0,0,0,0,.21c.1.12.32.07.46,0a0,0,0,0,0,0-.08Z"/><path class="cls-16" d="M26.29,21.68a1.9,1.9,0,0,1,0-.22c0-.21-.28-.21-.26,0a.58.58,0,0,0,.1.29.07.07,0,0,0,.13,0Z"/><path class="cls-16" d="M18.6,25.12a.15.15,0,0,0,0-.3.15.15,0,0,0,0,.3Z"/><path class="cls-16" d="M16.06,25.78a.15.15,0,0,0,0-.3.15.15,0,0,0,0,.3Z"/><path class="cls-16" d="M5.79,34.41a.15.15,0,0,0,0-.3.15.15,0,0,0,0,.3Z"/><path class="cls-16" d="M15.76,27.43a.15.15,0,0,0,0-.3.15.15,0,0,0,0,.3Z"/><path class="cls-16" d="M13.51,26.51a.18.18,0,0,0,0-.36.18.18,0,0,0,0,.36Z"/><path class="cls-16" d="M10.44,25.48a.21.21,0,0,0,0-.41.21.21,0,0,0,0,.41Z"/><path class="cls-16" d="M8.86,27.1a.21.21,0,0,0,0-.41.21.21,0,0,0,0,.41Z"/><path class="cls-16" d="M17.57,27.86v0a.17.17,0,0,0,.23.23h0a.18.18,0,1,0-.24-.24Z"/><path class="cls-16" d="M12.19,24.09v0a.17.17,0,0,0,.23.23h0a.18.18,0,1,0-.24-.24Z"/><path class="cls-16" d="M21,27.18a.23.23,0,0,0,0-.46.23.23,0,0,0,0,.46Z"/><path class="cls-16" d="M14.26,29.38a.23.23,0,0,0,0-.45.23.23,0,0,0,0,.45Z"/><path class="cls-16" d="M10.68,27.59h0l-.11,0h0a.14.14,0,0,0,.2-.2.15.15,0,0,0-.08-.07.15.15,0,1,0,0,.28Z"/><path class="cls-16" d="M5.75,33.49h0l-.11,0h0a.14.14,0,0,0,.2-.2.15.15,0,0,0-.08-.07.15.15,0,1,0,0,.28Z"/><path class="cls-16" d="M22.45,29.75a.15.15,0,0,0,0-.3.15.15,0,0,0,0,.3Z"/><path class="cls-16" d="M25,24.92a.14.14,0,0,0,0-.29.14.14,0,0,0,0,.29Z"/><path class="cls-16" d="M33.13,29.41a.21.21,0,0,0,0-.41.21.21,0,0,0,0,.41Z"/><path class="cls-16" d="M35.11,28.26a.21.21,0,0,0,0-.41.21.21,0,0,0,0,.41Z"/><path class="cls-16" d="M35.34,29.61a.21.21,0,0,0,0-.41.21.21,0,0,0,0,.41Z"/><path class="cls-5" d="M10.53,29.33a.51.51,0,1,0-.51-.51.51.51,0,0,0,.51.51Z"/><path class="cls-5" d="M10.09,30v0a.37.37,0,0,0,.42.17.38.38,0,0,0,.26-.46v0a.37.37,0,0,0-.46-.26.38.38,0,0,0-.22.55Z"/><path class="cls-5" d="M15.25,31.7v0a.23.23,0,0,0,.31.08.26.26,0,0,0,.08-.08.23.23,0,0,0-.08-.31l0,0a.22.22,0,0,0-.3.3Z"/><path class="cls-5" d="M20.43,32.7v0a.23.23,0,0,0,.31.08.27.27,0,0,0,.08-.08.23.23,0,0,0-.08-.31h0a.22.22,0,0,0-.3.3Z"/><path class="cls-5" d="M7.62,29.28c-.76,1.14-.58,4.13.64,4.94a.14.14,0,0,0,.21-.12,19.2,19.2,0,0,0-.38-2.31C8,31,8.16,30.13,8,29.33a.2.2,0,0,0-.36,0Z"/><path class="cls-5" d="M6.41,29.46c-1,.16-1,1.7-.93,2.45S5.94,34,6.81,34.38c.11,0,.2-.08.18-.18-.21-.74-.56-1.41-.74-2.17a3.84,3.84,0,0,1,.32-2.41c0-.1-.07-.17-.16-.16Z"/><path class="cls-6" d="M32.81,34.18c-.45.12-.86.33-1.31.46a1.91,1.91,0,0,1-1.37,0,2.42,2.42,0,0,1-.78-.91A2.92,2.92,0,0,0,27,32.5c-1.09,0-2.16.64-3.2.39-.83-.2-1.34-.89-2.14-1.16-1.32-.43-2.73.45-4.16.47a9.89,9.89,0,0,1-2.37-.44,11.12,11.12,0,0,0-2.44-.28,3.68,3.68,0,0,0-1.78.34,9.28,9.28,0,0,1-1.25.84,2.89,2.89,0,0,1-1.67,0,5.62,5.62,0,0,0-1.66-.29c-.57,0-1.38.4-1.4.86a9.12,9.12,0,0,0,1.15,3.67c.85,2,4.23,4.9,9.31,4.65,1.06-.05,2.12,0,3.19,0,1.93,0,6.8.06,8.71-.07,4.3-.3,4.7-1.2,6.2-3.4a3.59,3.59,0,0,0,.66-3.36A1.08,1.08,0,0,0,32.81,34.18Z"/><path class="cls-4" d="M18.58,61.53c0,.08-.07.17-.15.17s-.11-.06-.14-.12a7.22,7.22,0,0,1-.63-1.45,10.48,10.48,0,0,1,1,.05c.06,0,.12,0,.14.07a.17.17,0,0,1,0,.1C18.77,60.75,18.69,61.14,18.58,61.53Z"/><path class="cls-7" d="M15.63,43.29a5.74,5.74,0,0,0,.21,1,12.35,12.35,0,0,1,.28,4.53,7.26,7.26,0,0,0,4.72-2.54c.31-.37.63-.8,1.11-.87a7.12,7.12,0,0,1,.23-2.79,32.89,32.89,0,0,0-6.33.39.27.27,0,0,0-.19.08A.26.26,0,0,0,15.63,43.29Z"/><path class="cls-4" d="M15.54,43.89a.3.3,0,0,0,.36.17,16.58,16.58,0,0,1,3.26-.35c2.08-.12,2.78.06,2.94-.18a12.79,12.79,0,0,1,4.18-4.24.14.14,0,0,0,0-.26,5.39,5.39,0,0,0-1.88-.09c-1.82.27-2.29.91-3.31,2a3.94,3.94,0,0,0-1.94-3.07,5.64,5.64,0,0,0-1.44,3,4.13,4.13,0,0,0-.59-.83,6.09,6.09,0,0,0-4.16-1.6.08.08,0,0,0-.08.06c-.06.34.81,1.18,1.34,2.14A14.74,14.74,0,0,1,15.54,43.89Z"/><path class="cls-8" d="M24.11,48.74A13.62,13.62,0,0,0,24.25,47a3.12,3.12,0,0,0-.48-1.7,2.28,2.28,0,0,0-1.82-1,4.55,4.55,0,0,0-2.13.57,8.6,8.6,0,0,0-2,1.45,7.25,7.25,0,0,0-1.29,2.52,10.46,10.46,0,0,0-.77,6.36.49.49,0,0,0,.1.22.5.5,0,0,0,.26.12c2.24.5,4.61,0,6.84.46.42-1.19,0-2.59.58-3.72a6.06,6.06,0,0,1,1.38-1.54c.25-.24.51-.6.34-.9s-.89-.25-1.09-.64A.78.78,0,0,1,24.11,48.74Z"/><path class="cls-4" d="M18.75,45.09A4.25,4.25,0,0,1,21.4,46.8,7.53,7.53,0,0,1,22.23,49c.06.2.09.38.15.55s.23.12.36.11l1.62-.24a4,4,0,0,1,1.33-3.07,7.38,7.38,0,0,1,2-1.23A8.66,8.66,0,0,0,25,46a4.35,4.35,0,0,0-1.53,2.21A6.86,6.86,0,0,0,22,46.13a2.22,2.22,0,0,0-.45-.36,6.74,6.74,0,0,0-.67-.35A5.78,5.78,0,0,0,18.75,45.09Z"/><path class="cls-4" d="M23.69,45.16a2,2,0,0,0-1.84-.66,5,5,0,0,1,1-1.55,2.59,2.59,0,0,1,1.43-.66A12.54,12.54,0,0,0,23.69,45.16Z"/><path class="cls-3" d="M13.45,44.62a5.52,5.52,0,0,0-2-.32,14.43,14.43,0,0,1,.88,3.34c.05.34.29,2.21.31,2.56a31.2,31.2,0,0,1,0,4.81.25.25,0,0,0,0,.15.23.23,0,0,0,.19.08c1.39.13,2.79-.36,4.18-.22a21.42,21.42,0,0,0,.28-5.8,4.54,4.54,0,0,0-.57-1.89C15.39,45.22,14.37,44.9,13.45,44.62Z"/><path class="cls-4" d="M17.68,53.7s-.07-.49,0-.47a5.08,5.08,0,0,0,.87.07A12.16,12.16,0,0,0,22,53.19a2.68,2.68,0,0,1,0,.63,39.55,39.55,0,0,0-4.2,0,.12.12,0,0,1-.11,0A.12.12,0,0,1,17.68,53.7Z"/><path class="cls-9" d="M18,49a.65.65,0,0,0,0,.59A.63.63,0,1,0,18,49Z"/><path class="cls-10" d="M23.24,57.63a1.3,1.3,0,0,1-.14.51,4.4,4.4,0,0,1-2.43,2.21,6.33,6.33,0,0,1-3.31.28A4.17,4.17,0,0,1,16,60.19a5.05,5.05,0,0,1-.94-.74,3.57,3.57,0,0,1-1.31-2.06,31,31,0,0,1,9.3,0,.28.28,0,0,1,.16.07A.24.24,0,0,1,23.24,57.63Z"/><g class="cls-17"><path class="cls-12" d="M23.76,49.8a10.87,10.87,0,0,1,.39-2.31,7.47,7.47,0,0,1,1.46-2.3c0-.06,0-.12-.1-.08a5.57,5.57,0,0,0-1.87,4.71c0,.07.12,0,.12,0Z"/><path class="cls-12" d="M23,50.26c.51-1.63,0-3.95-1.61-4.81a3,3,0,0,0-.54-.13,5.16,5.16,0,0,1,1.81,2.25,6.74,6.74,0,0,1,.19,2.67c0,.09.12.1.15,0Z"/><path class="cls-12" d="M27.93,45.08c-2.23.06-4.29,2.72-3.64,4.87a.08.08,0,0,0,.15,0c.09-.42,0-.82.11-1.25a6.67,6.67,0,0,1,.56-1.61c.53-1.08,1.88-1.43,2.85-1.94a0,0,0,0,0,0-.06Z"/><path class="cls-12" d="M22.58,50.23a5,5,0,0,0-1-3.77c-.8-1-2-2.17-3.41-1.83a.12.12,0,0,0,0,.21c.44.23.92.31,1.37.52A5.58,5.58,0,0,1,21,46.75a7.26,7.26,0,0,1,1.45,3.48.05.05,0,0,0,.1,0Z"/></g><g class="cls-18"><path class="cls-12" d="M24.55,41.91a6.86,6.86,0,0,0-1.37,3.47s.06.07.08,0c.23-.59.29-1.23.48-1.83a7.25,7.25,0,0,1,.81-1.65Z"/><path class="cls-12" d="M24,42a2.64,2.64,0,0,0-.78,1.22,7.88,7.88,0,0,0-.5,2.08.06.06,0,0,0,.12,0c.25-.59.23-1.25.47-1.85s.51-1,.72-1.45c0,0,0,0,0,0Z"/><path class="cls-12" d="M23.1,42.25a5.73,5.73,0,0,0-.89,2.95.08.08,0,0,0,.14,0c.17-.48.22-1,.35-1.5s.39-.94.48-1.44c0-.05-.06-.06-.08,0Z"/></g><g class="cls-19"><path class="cls-12" d="M16.23,45.51a27,27,0,0,1,.27,4.71A40.88,40.88,0,0,1,16,55.43a.08.08,0,0,0,.15,0,12.42,12.42,0,0,0,.65-5.25c0-1.55.15-3.29-.52-4.72,0,0,0,0,0,0Z"/><path class="cls-12" d="M15.4,45a20.36,20.36,0,0,1,.2,5.76,16.79,16.79,0,0,1-.71,4.53.08.08,0,0,0,.14.08c.93-1,.72-3,.82-4.26A15.45,15.45,0,0,0,15.43,45a0,0,0,1,0,0,0Z"/><path class="cls-12" d="M14.64,44.47a31.64,31.64,0,0,1-.48,10.59.09.09,0,0,0,.16.07c.83-1.44.64-3.31.74-4.89a15,15,0,0,0-.33-5.77s-.08,0-.08,0Z"/><path class="cls-12" d="M13.17,43.95a25,25,0,0,1,.52,2.79c.07.94.11,1.9.12,2.84a19.43,19.43,0,0,1-.32,5.1.06.06,0,0,0,.12,0c.73-1.41.48-3.25.48-4.79a17.12,17.12,0,0,0-.84-6,0,0,0,0,0-.08,0Z"/><path class="cls-12" d="M12.11,43.7c.35,1.64.5,3.31.75,5a23,23,0,0,1,.27,3.18c0,1-.23,2-.14,3,0,.07.12.1.13,0a20.23,20.23,0,0,0,.07-5.54,22.11,22.11,0,0,0-1-5.63s-.05,0,0,0Z"/></g><path class="cls-4" d="M11,57.79a7.93,7.93,0,0,0,1.7-3.48,37.9,37.9,0,0,1,3.88-.11c.53,0,1.07,0,1.6,0,1.76,0,2.45.14,4.83.11a.86.86,0,0,1,.68.39,27.9,27.9,0,0,0,1.93,3s.1.11.06.15a.26.26,0,0,1-.15.07,20,20,0,0,1-4.84.43q-4.66,0-9.31-.29A.61.61,0,0,1,11,58C11,58,10.9,57.87,11,57.79Z"/><g class="cls-20"><path class="cls-5" d="M24.47,57.48l-.63-.3a1.07,1.07,0,0,0-.4-.12.18.18,0,0,0-.12,0,12.63,12.63,0,0,0-1.08,1.54A7.45,7.45,0,0,0,25,58.14a.17.17,0,0,0,.09-.07.14.14,0,0,0,0-.12A1.23,1.23,0,0,0,24.47,57.48Z"/><path class="cls-5" d="M19.71,57.3c-.5.45-.79.82-1.28,1.29l2.66.16a.92.92,0,0,0,.64-.12c-.61-.38-1-1-1.65-1.4C20.06,57.21,20,57.07,19.71,57.3Z"/><path class="cls-5" d="M18,58.42l-.45-.73a3.75,3.75,0,0,0-.28-.41,1.84,1.84,0,0,0-.4-.36.2.2,0,0,0-.28.07,8.38,8.38,0,0,1-1.08,1.2c-.13.13-.18.13-.25.31l1.21.07A5.29,5.29,0,0,0,18,58.5.07.07,0,0,0,18,58.42Z"/><path class="cls-5" d="M14.45,58.66c.14-.1.06-.32,0-.46a8.76,8.76,0,0,0-1.18-1.65.19.19,0,0,0-.3,0c-.17.29-1.21,1.4-1.39,1.78a13.6,13.6,0,0,1,2.61.33A.37.37,0,0,0,14.45,58.66Z"/></g><path class="cls-4" d="M22.14,58.7a.18.18,0,0,0,0,.36.18.18,0,0,0,0-.36Z"/><path class="cls-4" d="M21.46,59.39a.11.11,0,0,0,0,.23.11.11,0,0,0,0-.23Z"/><path class="cls-4" d="M20.87,58.7a.13.13,0,0,0,0,.27.13.13,0,0,0,0-.27Z"/><path class="cls-4" d="M20.27,59.54a.17.17,0,0,0,0,.34.17.17,0,0,0,0-.34Z"/><path class="cls-4" d="M20.86,59.94a.13.13,0,0,0,0,.26.13.13,0,0,0,0-.26Z"/><path class="cls-4" d="M19.57,60.23a.15.15,0,0,0,0,.29.15.15,0,0,0,0-.29Z"/><path class="cls-4" d="M19.26,59.29a.11.11,0,0,0,0,.22.11.11,0,0,0,0-.22Z"/><path class="cls-4" d="M19.76,58.56a.19.19,0,0,0,0,.37.19.19,0,0,0,0-.37Z"/><path class="cls-4" d="M18.56,58.53a.19.19,0,0,0,0,.37.19.19,0,0,0,0-.37Z"/><path class="cls-4" d="M18.66,59.9a.12.12,0,0,0,0,.25.12.12,0,0,0,0-.25Z"/><path class="cls-4" d="M17.92,60.31a.13.13,0,0,0,0,.27.13.13,0,0,0,0-.27Z"/><path class="cls-4" d="M17.71,59.46h0c-.2-.06-.2.3,0,.24h0a.12.12,0,0,0,0-.23Z"/><path class="cls-4" d="M17.22,58.53a.17.17,0,0,0,0,.34.17.17,0,0,0,0-.34Z"/><path class="cls-4" d="M16.83,60a.15.15,0,0,0,0,.29.15.15,0,0,0,0-.29Z"/><path class="cls-4" d="M16.39,59.17a.17.17,0,0,0,0,.34.17.17,0,0,0,0-.34Z"/><path class="cls-4" d="M15.56,59.46a.13.13,0,0,0,0,.25.13.13,0,0,0,0-.25Z"/><path class="cls-4" d="M15.8,58.49a.15.15,0,0,0,0,.3.15.15,0,0,0,0-.3Z"/><path class="cls-4" d="M14.94,58.67a.18.18,0,0,0,0,.35.18.18,0,0,0,0-.35Z"/><path class="cls-16" d="M22,58a4.16,4.16,0,0,0,0-1.88.37.37,0,0,0-.73.1A5.51,5.51,0,0,0,21.66,58c.06.17.34.21.38,0Z"/><path class="cls-16" d="M25.06,57.38a.9.9,0,0,0-.19-.66,3.45,3.45,0,0,0-.51-.73.29.29,0,0,0-.45.35,2.9,2.9,0,0,0,.46.61c.17.17.38.3.53.48a.1.1,0,0,0,.17,0Z"/><path class="cls-16" d="M18.52,57.82a5.08,5.08,0,0,0,.3-1,6.13,6.13,0,0,1,.07-.63c.13-.53-.72-.75-.81-.22a5.05,5.05,0,0,0,.12,1.83c0,.17.27.14.32,0Z"/><path class="cls-16" d="M15.09,57.67a2.08,2.08,0,0,0,.36-.92c0-.27.16-.64,0-.89a.39.39,0,0,0-.43-.18h0a.44.44,0,0,0-.31.31,3.63,3.63,0,0,0,0,.82,1.47,1.47,0,0,0,.17.84.16.16,0,0,0,.27,0Z"/><path class="cls-16" d="M11.69,57.34a1.67,1.67,0,0,0,.6-.63,1.53,1.53,0,0,0,.39-.86c0-.27-.42-.43-.55-.15a6.3,6.3,0,0,0-.64,1.48.14.14,0,0,0,.21.16Z"/><path class="cls-16" d="M21.57,55.44a.15.15,0,0,0,0,.31.15.15,0,0,0,0-.31Z"/><path class="cls-16" d="M23.85,55.5a.15.15,0,0,0,0,.31.15.15,0,0,0,0-.31Z"/><path class="cls-16" d="M18.54,55.29a.14.14,0,0,0,0,.28.14.14,0,0,0,0-.28Z"/><path class="cls-16" d="M15.14,55.4l0,0a.11.11,0,0,0,0-.15l0,0a.13.13,0,1,0,0,.18Z"/><path class="cls-16" d="M12.51,55.09a.17.17,0,0,0,0,.35.17.17,0,0,0,0-.35Z"/><path class="cls-4" d="M21.75,56.67a.22.22,0,0,0,0,.45.22.22,0,0,0,0-.45Z"/><path class="cls-4" d="M24.41,56.59h0Z"/><path class="cls-4" d="M24.48,56.42a.18.18,0,0,0,0,.36.18.18,0,0,0,0-.36Z"/><path class="cls-4" d="M18.48,56.53a.22.22,0,0,0,0,.44.22.22,0,0,0,0-.44Z"/><path class="cls-4" d="M15.07,56.43a.23.23,0,0,0,0,.47.23.23,0,0,0,0-.47Z"/><path class="cls-4" d="M12.1,56.13a.25.25,0,0,0,0,.49.25.25,0,0,0,0-.49Z"/><path class="cls-4" d="M18.53,56.18a.1.1,0,0,0,0,.19.1.1,0,0,0,0-.19Z"/><path class="cls-4" d="M21.7,56.34a.11.11,0,0,0,0,.22.11.11,0,0,0,0-.22Z"/><path class="cls-4" d="M24.27,56.38h0c.16,0,.09-.24,0-.13h0a.07.07,0,0,0,0,.12Z"/><path class="cls-4" d="M24.69,56.79a.09.09,0,0,0,0,.18.09.09,0,0,0,0-.18Z"/><path class="cls-4" d="M21.8,57.21a.12.12,0,0,0,0,.25.12.12,0,0,0,0-.25Z"/><path class="cls-4" d="M18.39,57a.15.15,0,0,0,0,.29.15.15,0,0,0,0-.29Z"/><path class="cls-4" d="M15.1,56.09a.11.11,0,0,0,0,.23.11.11,0,0,0,0-.23Z"/><path class="cls-4" d="M15.07,57a.1.1,0,0,0,0,.21.1.1,0,0,0,0-.21Z"/><path class="cls-4" d="M12.17,56c.07.15.3,0,.22-.12s-.28,0-.22.12Z"/><path class="cls-4" d="M11.91,56.62a.1.1,0,0,0,0,.19.1.1,0,0,0,0-.19Z"/><path class="cls-4" d="M20.91,52.71c0-.09-.06-.17-.16-.17a0,0,0,0,0,0,0c0,.07,0,.12,0,.19s.23.06.18-.05Z"/><path class="cls-4" d="M19.6,53.05a.27.27,0,0,0,0-.34s-.14,0-.17,0a.42.42,0,0,0,0,.29.1.1,0,0,0,.18,0Z"/><path class="cls-4" d="M18.38,52.86l.08-.16c.07-.11-.12-.21-.17-.1a1.8,1.8,0,0,0-.08.21c0,.11.13.15.17,0Z"/><path class="cls-4" d="M20.68,51.28c-.08,0-.19.12-.18.21a0,0,0,0,0,0,0c.11,0,.21-.12.2-.21a0,0,0,0,0,0,0Z"/><path class="cls-4" d="M19.54,51.56a.45.45,0,0,0,.07-.41.12.12,0,0,0-.24,0,.45.45,0,0,0,.07.41.07.07,0,0,0,.09,0Z"/><path class="cls-4" d="M18.5,51.71a.36.36,0,0,0-.12-.29.1.1,0,0,0-.12,0h0a.1.1,0,0,0,0,.12c0,.08.11.13.16.2a.06.06,0,0,0,.11,0Z"/><path class="cls-4" d="M20.2,52.95c.12-.06.08-.23,0-.33s-.25-.08-.21.06,0,.21.12.28Z"/><path class="cls-4" d="M18.88,53c0-.07.17-.41,0-.41s-.11.13-.12.2a.2.2,0,0,0,.09.22,0,0,0,0,0,0,0Z"/><path class="cls-4" d="M20.18,51.12c-.17,0-.27.23-.27.37a.11.11,0,0,0,.17.1.45.45,0,0,0,.18-.39.08.08,0,0,0-.08-.08Z"/><path class="cls-4" d="M19,51.54a.32.32,0,0,0-.1-.44.12.12,0,0,0-.17.07c0,.16.1.27.18.38a.05.05,0,0,0,.09,0Z"/><path class="cls-2" d="M21.66,52a.17.17,0,0,1-.07.12,2.48,2.48,0,0,1-1.22.56,7.44,7.44,0,0,1-1.35.09,3.91,3.91,0,0,1-1.54-.52,3.26,3.26,0,0,1,4.08-.38S21.66,51.94,21.66,52Z"/><path class="cls-4" d="M20,51.93a.53.53,0,0,0-.92.19.4.4,0,0,0,0,.13c0,.25.56.5.92.15A.35.35,0,0,0,20,51.93Z"/><path class="cls-16" d="M19.6,38.28l.09,0a.85.85,0,0,0-.43-1.57h-.09a.85.85,0,1,0,.44,1.61Z"/><path class="cls-16" d="M26.46,38.13a.77.77,0,0,0,0,1.54.77.77,0,0,0,0-1.54Z"/><path class="cls-5" d="M24.87,39.16a5.69,5.69,0,0,0-1.67,1c-.43.35.21,1,.62.62a5.85,5.85,0,0,1,1.28-1.1c.28-.15.09-.63-.22-.52Z"/><path class="cls-5" d="M19.14,38.81a3.06,3.06,0,0,0-.2.75c-.06.33-.15.65-.19,1-.08.64,1.07.66,1,0,0-.29-.06-.58-.08-.88a1.69,1.69,0,0,0-.22-.85.19.19,0,0,0-.32,0Z"/><path class="cls-5" d="M13.76,39.35a5,5,0,0,1,.35.64l.17.29.08.16c-.06-.11,0,.09.06.13a.52.52,0,0,0,.59.24.53.53,0,0,0,.36-.64c-.06-.33-.4-.52-.65-.7s-.21-.2-.32-.29A1.51,1.51,0,0,0,14,39c-.22-.09-.36.22-.22.38Z"/><path class="cls-5" d="M21.86,42.9h0c-.2-.08-.35.18-.26.34v0a.24.24,0,1,0,.27-.35Z"/><path class="cls-5" d="M20.84,42.88h0a.24.24,0,0,0,0,.34h0a.25.25,0,1,0,0-.35Z"/><path class="cls-5" d="M20.3,42.8a.26.26,0,0,0,0,.52.26.26,0,0,0,0-.52Z"/><path class="cls-5" d="M19.59,42.84a.24.24,0,0,0,0,.47.24.24,0,0,0,0-.47Z"/><path class="cls-5" d="M18.91,42.92a.23.23,0,0,0,0,.47.23.23,0,0,0,0-.47Z"/><path class="cls-5" d="M18.3,43a.21.21,0,0,0,0,.41.21.21,0,0,0,0-.41Z"/><path class="cls-5" d="M17.67,43h0a.24.24,0,1,0,0,.47h0a.24.24,0,0,0,0-.45Z"/><path class="cls-5" d="M16.77,43a.26.26,0,0,0,0,.51.26.26,0,0,0,0-.51Z"/><path class="cls-5" d="M16,43.17a.21.21,0,0,0,0,.41.21.21,0,0,0,0-.41Z"/><path class="cls-16" d="M19.27,40.1a.29.29,0,1,0,.29.29.29.29,0,0,0-.29-.29Z"/><path class="cls-5" d="M6.31,37.78c-.23-.27-1.25-1.57-1.12-1.9a.93.93,0,0,1,.44-.42C14,30.88,23,27.4,31.11,22.59a1,1,0,0,1,.48-.19,1,1,0,0,1,.44.13c1.51.69,3.12,1.51,3.87,3A.93.93,0,0,1,36,26a.89.89,0,0,1-.4.6,78,78,0,0,1-12.07,6.76c-4.38,2.13-9.61,4-13.87,6.33a1.49,1.49,0,0,1-.95.27A11.13,11.13,0,0,1,6.31,37.78Z"/><path class="cls-16" d="M23.52,40.12a.29.29,0,1,0,.37.28.3.3,0,0,0-.37-.28Z"/><path class="cls-16" d="M15.14,40.2v0a.27.27,0,0,0-.5.14v0a.28.28,0,1,0,.52-.14Z"/><path class="cls-16" d="M22.92,40.93c-.08.07-.16.12-.23.19s-.17.14-.16.25a.1.1,0,0,0,.1.1c.21,0,.3-.31.4-.45s-.05-.13-.11-.08Z"/><path class="cls-16" d="M23.3,41.12l-.11.05-.09.08a.57.57,0,0,0-.15.23.16.16,0,0,0,.24.18.38.38,0,0,0,.16-.23l0-.12s0-.08,0-.11,0-.13-.09-.09Z"/><path class="cls-16" d="M22.77,40.6a.55.55,0,0,0-.5.26c-.05.11,0,.28.17.22a.63.63,0,0,0,.23-.16l.09-.1s0-.08.07-.12a.06.06,0,0,0-.05-.09Z"/><path class="cls-16" d="M19.71,41a.3.3,0,0,0-.08.15.48.48,0,0,0,0,.23c0,.14.28.17.31,0A.34.34,0,0,0,19.8,41a.07.07,0,0,0-.09,0Z"/><path class="cls-16" d="M19.17,41.17a.27.27,0,0,0,0,.23,1.07,1.07,0,0,0,0,.24.09.09,0,0,0,.08,0c.24,0,.21-.45,0-.54a.09.09,0,0,0-.1,0Z"/><path class="cls-16" d="M18.85,41.1a.56.56,0,0,0-.15.14.62.62,0,0,0-.13.2c0,.08.06.19.15.15s.31-.31.22-.47a.06.06,0,0,0-.08,0Z"/><path class="cls-16" d="M15.39,40.84a.42.42,0,0,0,.16.44.15.15,0,0,0,.21-.09.37.37,0,0,0-.28-.4.08.08,0,0,0-.09.05Z"/><path class="cls-16" d="M15.67,40.6a.72.72,0,0,0,.18.14.27.27,0,0,0,.28,0,.14.14,0,0,0,0-.21c-.1-.12-.32-.07-.46,0a0,0,0,0,0,0,.08Z"/><path class="cls-16" d="M15,41.08a2,2,0,0,1,0,.22c0,.2.28.21.26,0a.57.57,0,0,0-.09-.29.07.07,0,0,0-.13,0Z"/><path class="cls-16" d="M22.65,37.64a.15.15,0,0,0,0,.3.15.15,0,0,0,0-.3Z"/><path class="cls-16" d="M24.93,35.5a.18.18,0,0,0,0,.36.18.18,0,0,0,0-.36Z"/><path class="cls-16" d="M28.35,36.15a.21.21,0,0,0,0,.41.21.21,0,0,0,0-.41Z"/><path class="cls-16" d="M28.89,38.76a.21.21,0,0,0,0,.41.21.21,0,0,0,0-.41Z"/><path class="cls-16" d="M23.25,35.25v0A.17.17,0,0,0,23,35h0a.18.18,0,0,0,0,.28.18.18,0,0,0,.28,0Z"/><path class="cls-16" d="M20.24,35.58a.23.23,0,0,0,0,.45.23.23,0,0,0,0-.45Z"/><path class="cls-16" d="M30.56,35.17h.08a.14.14,0,0,0-.2.2.16.16,0,0,0,.08.07.16.16,0,0,0,.23-.09.15.15,0,0,0-.19-.19Z"/><path class="cls-16" d="M28.77,34h0l.11,0h0a.14.14,0,0,0-.2.2.15.15,0,0,0,.08.07.15.15,0,1,0,0-.28Z"/><path class="cls-16" d="M31.55,37.29h0l.11,0h0a.14.14,0,0,0-.2.2.15.15,0,0,0,.08.07.16.16,0,0,0,.23-.09.16.16,0,0,0-.19-.19Z"/><path class="cls-16" d="M33.5,35.18h.08a.14.14,0,0,0-.2.2.14.14,0,0,0,.08.07.15.15,0,1,0,0-.28Z"/><path class="cls-16" d="M26.26,34a.15.15,0,0,0,0,.3.15.15,0,0,0,0-.3Z"/><path class="cls-16" d="M26.11,37.18a.15.15,0,0,0,0,.3.15.15,0,0,0,0-.3Z"/><path class="cls-16" d="M16.28,37.84a.14.14,0,0,0,0,.29.14.14,0,0,0,0-.29Z"/><path class="cls-16" d="M11.94,39.88a.14.14,0,0,0,0,.29.14.14,0,0,0,0-.29Z"/><path class="cls-5" d="M30.72,33.44a.51.51,0,1,0,.51.51.52.52,0,0,0-.51-.51Z"/><path class="cls-5" d="M31.15,32.75v0a.37.37,0,0,0-.42-.17.37.37,0,0,0-.26.46v0a.37.37,0,1,0,.68-.29Z"/><path class="cls-5" d="M26,31.07v0a.23.23,0,0,0-.31-.08.23.23,0,0,0-.08.08.22.22,0,0,0,.08.31l0,0a.22.22,0,0,0,.3-.3Z"/><path class="cls-5" d="M20.81,30.06v0a.23.23,0,0,0-.31-.08.25.25,0,0,0-.08.08.23.23,0,0,0,.08.31l0,0a.22.22,0,0,0,.3-.3Z"/><path class="cls-5" d="M20.87,31.06h0a.58.58,0,1,0-.59,1A.6.6,0,0,0,21,32h0a.55.55,0,0,0,.17-.4.58.58,0,0,0-.28-.49Z"/><path class="cls-16" d="M27.84,24.14a.86.86,0,0,0-.11.23.71.71,0,0,0,1.19.7l0,0-.15.11h0a.73.73,0,0,0-.37-1.36.71.71,0,0,0-.37.1.72.72,0,0,0-.26.26Z"/><path class="cls-16" d="M13.4,38.62a.84.84,0,0,0,.11-.24.71.71,0,0,0-1.19-.69l0,0,.15-.11h0A.73.73,0,0,0,12.77,39a.72.72,0,0,0,.37-.1.73.73,0,0,0,.26-.26Z"/><path class="cls-16" d="M6.39,34.26a.21.21,0,0,0,0,.41.21.21,0,0,0,0-.41Z"/><path class="cls-16" d="M7.36,33.43a.21.21,0,0,0,0,.41.21.21,0,0,0,0-.41Z"/><path class="cls-16" d="M28.89,22.26a.21.21,0,0,0,0,.41.21.21,0,0,0,0-.41Z"/><path class="cls-16" d="M20.1,34.17a2.43,2.43,0,1,0-2.43-2.43,2.46,2.46,0,0,0,2.43,2.43Z"/><path class="cls-16" d="M15.87,34.53a.85.85,0,1,0-.85-.85.86.86,0,0,0,.85.85Z"/><path class="cls-16" d="M13.06,35.27a.53.53,0,0,0,0-1.07.53.53,0,0,0,0,1.07Z"/><path class="cls-16" d="M24.46,30.95a.91.91,0,0,0,0-1.83.91.91,0,0,0,0,1.83Z"/><path class="cls-16" d="M27,29a.31.31,0,0,0,0-.62A.31.31,0,0,0,27,29Z"/><path class="cls-6" d="M20.06,32.55a.82.82,0,0,0,0-1.63.82.82,0,0,0,0,1.63Z"/><path class="cls-6" d="M20.16,30.73a.4.4,0,0,0,0-.8.4.4,0,0,0,0,.8Z"/><path class="cls-6" d="M19,31a.38.38,0,0,0,0-.76A.38.38,0,0,0,19,31Z"/><path class="cls-6" d="M18.56,32.23a.4.4,0,0,0,0-.8.4.4,0,0,0,0,.8Z"/><path class="cls-6" d="M19.36,33.36a.32.32,0,0,0,0-.65.32.32,0,0,0,0,.65Z"/><path class="cls-6" d="M20.89,32.9l0,0a.25.25,0,0,0-.36,0l0,0a.32.32,0,1,0,.46,0Z"/><path class="cls-6" d="M21.46,32.51a.38.38,0,0,0,0-.76.38.38,0,0,0,0,.76Z"/><path class="cls-6" d="M21.36,31.26a.42.42,0,0,0,0-.84.42.42,0,0,0,0,.84Z"/><path class="cls-6" d="M10.35,36.09c.2.43.89.13.76-.32s-1-.24-.76.32Z"/><path class="cls-6" d="M9.16,37.1a.56.56,0,0,0,0-1.12.56.56,0,0,0,0,1.13Z"/><path class="cls-6" d="M7.56,37.6a.37.37,0,0,0,0-.73.37.37,0,0,0,0,.73Z"/><path class="cls-6" d="M29.31,27.43l0,.07a.38.38,0,1,0-.67-.17.37.37,0,0,0,.72.1Z"/><path class="cls-6" d="M30.66,27.07a.54.54,0,0,0,0-1.08.54.54,0,0,0,0,1.08Z"/><path class="cls-6" d="M32.26,26.1a.46.46,0,0,0,0-.93.46.46,0,0,0,0,.93Z"/><path class="cls-4" d="M35.44,50.65c0-.1,0-.25,0-.35a3.07,3.07,0,0,0,0-.31,1.43,1.43,0,0,0-.43-.93c.24,0,.84,0,1.08,0a1.43,1.43,0,0,0-.43.93,3.07,3.07,0,0,0,0,.31c0,.1,0,.25,0,.35Z"/><path class="cls-4" d="M35.53,50.26a1.16,1.16,0,0,0-1-.54.9.9,0,0,0-.84.68,1.11,1.11,0,0,0,.33.93,4.51,4.51,0,0,0,.84.61,4.64,4.64,0,0,1,.7.67,8.87,8.87,0,0,1,.7-.66,6.48,6.48,0,0,0,.84-.62,1.11,1.11,0,0,0,.33-.93.89.89,0,0,0-.84-.68,1.16,1.16,0,0,0-1,.54Z"/><path class="cls-4" d="M5.36,11.36c0,.1,0,.25,0,.35a2.75,2.75,0,0,0,0,.31,1.43,1.43,0,0,0,.43.93c-.24,0-.84,0-1.08,0A1.43,1.43,0,0,0,5.11,12a3,3,0,0,0,0-.31c0-.1,0-.25,0-.35Z"/><path class="cls-4" d="M5.27,11.75a1.16,1.16,0,0,0,1,.54.9.9,0,0,0,.84-.68,1.11,1.11,0,0,0-.33-.93,4.49,4.49,0,0,0-.84-.61,4.72,4.72,0,0,1-.7-.67,9.27,9.27,0,0,1-.7.66,6.5,6.5,0,0,0-.84.62,1.11,1.11,0,0,0-.33.93.9.9,0,0,0,.84.68,1.16,1.16,0,0,0,1-.54Z"/><path class="cls-4" d="M6.47,3V7A1.87,1.87,0,0,1,6,8.45a1.83,1.83,0,0,1-1.25.41,3.12,3.12,0,0,1-.84-.12V8.15a3.63,3.63,0,0,0,.75.09,1.35,1.35,0,0,0,.71-.14.7.7,0,0,0,.31-.37A2.49,2.49,0,0,0,5.75,7V3Z"/><path class="cls-4" d="M34.46,59.29v-4a1.87,1.87,0,0,1,.47-1.46,1.83,1.83,0,0,1,1.25-.41,3.12,3.12,0,0,1,.84.12v.59a3.63,3.63,0,0,0-.75-.09,1.36,1.36,0,0,0-.71.14.7.7,0,0,0-.3.37,2.51,2.51,0,0,0-.08.74v4Z"/><path class="cls-6" d="M13.2,59.11h-7a3.1,3.1,0,0,1-3-3.19V15.66a.09.09,0,0,1,.19,0V55.92a2.92,2.92,0,0,0,2.82,3h7a.09.09,0,0,1,.09.09A.09.09,0,0,1,13.2,59.11Z"/><path class="cls-6" d="M32.78,59.11H25.65a.09.09,0,0,1-.09-.09.09.09,0,0,1,.09-.09h7.13a.09.09,0,0,1,.09.09A.09.09,0,0,1,32.78,59.11Z"/><path class="cls-6" d="M37.65,46.92a.09.09,0,0,1-.09-.09V6.36a2.92,2.92,0,0,0-2.82-3H28.07A.09.09,0,0,1,28,3.27a.09.09,0,0,1,.09-.09h6.67a3.1,3.1,0,0,1,3,3.19V46.82A.09.09,0,0,1,37.65,46.92Z"/><path class="cls-6" d="M17.41,3.36h-9a.1.1,0,0,1-.09-.09.09.09,0,0,1,.09-.09h9a.09.09,0,0,1,.09.09A.1.1,0,0,1,17.41,3.36Z"/></g></g></svg>