<svg xmlns="http://www.w3.org/2000/svg" xmlns:xlink="http://www.w3.org/1999/xlink" viewBox="0 0 41.06 62.29"><defs><style>.cls-1{fill:none;}.cls-2{fill:#b70027;}.cls-3{fill:#fff;}.cls-4{fill:#f70032;}.cls-5{fill:#990028;}.cls-6{fill:#ffd6a1;}.cls-7{fill:#0c0a35;}.cls-8{clip-path:url(#clip-path);}.cls-9{clip-path:url(#clip-path-2);}.cls-10{clip-path:url(#clip-path-3);}.cls-11{clip-path:url(#clip-path-4);}.cls-12{clip-path:url(#clip-path-5);}.cls-13{clip-path:url(#clip-path-6);}.cls-14{fill:#222272;}.cls-15{fill:#d6002b;}</style><clipPath id="clip-path"><path class="cls-1" d="M22.9,13.5a9.65,9.65,0,0,0-2.77,1.43c-.72.54-1.61.8-2.38,1.27s-2.36,1.17-2.33-.29c0-.23-.58.19-.81.22a.71.71,0,0,0-.43.33c-.3.4-.52.63-.45,1.13a2.92,2.92,0,0,0,.61,1.27,10.74,10.74,0,0,1,.74,1.41l1.23,2.4a1.94,1.94,0,0,0,.43.62.66.66,0,0,0,.7.13,1,1,0,0,0,.3-.28,9.26,9.26,0,0,1,1.68-1.6,32,32,0,0,1,4.65-2.27,5.87,5.87,0,0,0,3.42-3.66A3.68,3.68,0,0,0,27,12.88a.87.87,0,0,0-.36-.35.94.94,0,0,0-.55,0A27.76,27.76,0,0,0,22.9,13.5Z"/></clipPath><clipPath id="clip-path-2"><path class="cls-2" d="M13.26,16.82a3.78,3.78,0,0,1,2-2.29,2.76,2.76,0,0,1,1.27-.38,2.81,2.81,0,0,1,1.21.52,5.25,5.25,0,0,1,1.74,1.48,6.17,6.17,0,0,1-3.44-.61A7,7,0,0,1,13.26,16.82Z"/></clipPath><clipPath id="clip-path-3"><path class="cls-2" d="M21.52,8.06l.68,3.16a14,14,0,0,1,.44,3.4.19.19,0,0,0,.24.21c2.33-.48,4.38-1.84,6.59-2.71a.19.19,0,0,0,.07-.3A7,7,0,0,1,27.69,8a.18.18,0,0,0-.19-.16L21.73,8C21.56,8.05,21.41,7.94,21.52,8.06Z"/></clipPath><clipPath id="clip-path-4"><path class="cls-1" d="M18.15,48.68a9.66,9.66,0,0,0,2.77-1.43c.72-.54,1.61-.8,2.38-1.27s2.36-1.17,2.33.29c0,.23.58-.19.81-.22a.71.71,0,0,0,.43-.33c.3-.4.52-.64.45-1.13a2.93,2.93,0,0,0-.61-1.27A10.75,10.75,0,0,1,26,41.9l-1.23-2.4a2,2,0,0,0-.43-.62.66.66,0,0,0-.7-.13,1,1,0,0,0-.3.28,9.17,9.17,0,0,1-1.68,1.6A31.88,31.88,0,0,1,17,42.89a5.87,5.87,0,0,0-3.42,3.66,3.67,3.67,0,0,0,.51,2.75.86.86,0,0,0,.36.35,1,1,0,0,0,.55,0A26.94,26.94,0,0,0,18.15,48.68Z"/></clipPath><clipPath id="clip-path-5"><path class="cls-2" d="M27.79,45.37a3.78,3.78,0,0,1-2,2.29,2.74,2.74,0,0,1-1.27.38,2.81,2.81,0,0,1-1.21-.52A5.22,5.22,0,0,1,21.56,46a6.17,6.17,0,0,1,3.44.61A7,7,0,0,1,27.79,45.37Z"/></clipPath><clipPath id="clip-path-6"><path class="cls-2" d="M19.53,54.13,18.85,51a14,14,0,0,1-.44-3.4.19.19,0,0,0-.24-.21c-2.33.48-4.38,1.84-6.59,2.71a.19.19,0,0,0-.07.3,7,7,0,0,1,1.85,3.79.19.19,0,0,0,.19.16l5.77-.19C19.49,54.13,19.64,54.25,19.53,54.13Z"/></clipPath></defs><title>Fichier 53</title><g id="Calque_2" data-name="Calque 2"><g id="Layer_1" data-name="Layer 1"><path class="cls-3" d="M37.39,62.19H3.54A3.45,3.45,0,0,1,.09,58.74V3.54A3.45,3.45,0,0,1,3.54.09H37.39A3.63,3.63,0,0,1,41,3.48v55.2A3.65,3.65,0,0,1,37.39,62.19Z"/><path class="cls-3" d="M37.39,62.29H3.54A3.55,3.55,0,0,1,0,58.74V3.54A3.55,3.55,0,0,1,3.54,0H37.39a3.71,3.71,0,0,1,3.67,3.47V58.68A3.77,3.77,0,0,1,37.39,62.29ZM3.54.19A3.36,3.36,0,0,0,.19,3.54v55.2A3.36,3.36,0,0,0,3.54,62.1H37.39a3.58,3.58,0,0,0,3.48-3.42V3.48A3.52,3.52,0,0,0,37.39.19Z"/><path class="cls-4" d="M32,36.24a23.13,23.13,0,0,1,2.47-4.19c1.32-1.71,1.27-4.8.53-5.61-2.15-2.35-2.88-1.41-5.6-3.5-.53-.4-1.78-1.55-2.3-2s.47-.75-.15-1.06a22.23,22.23,0,0,0-4.82-1.59A8.71,8.71,0,0,0,20.53,18a7.54,7.54,0,0,0-1.54.12,19.53,19.53,0,0,0-6.64,3c-1.71,1.17-1,.52-5.6,3.65-2.2,1.5-1.93,5.31-1.62,6.1.85,2.17,4.3,4.55,4.47,5.55C15.43,37.38,32,38,32,36.24Z"/><path class="cls-4" d="M9,26a23.15,23.15,0,0,1-2.47,4.19C5.24,31.91,5.29,35,6,35.82c2.15,2.35,2.88,1.41,5.6,3.5.53.4,1.78,1.54,2.3,1.95s-.47.75.15,1.07a22.23,22.23,0,0,0,4.82,1.59,8.55,8.55,0,0,0,1.59.29A7.54,7.54,0,0,0,22,44.1a19.5,19.5,0,0,0,6.64-3c1.71-1.17,1-.52,5.6-3.65,2.2-1.5,1.93-5.31,1.62-6.1-.85-2.17-4.3-4.54-4.47-5.55C25.6,24.88,9,24.25,9,26Z"/><path class="cls-5" d="M17.33,24.47c.52.41,1.29.11,1.81-.3a3.58,3.58,0,0,1,1.66-1c.65-.07,1.25.33,1.9.4A1.86,1.86,0,0,0,24.19,23c.29-.29.48-.68.83-.88.59-.34,1.33,0,2-.09a2.61,2.61,0,0,0,1.44-.79.35.35,0,0,0,.1-.2c0-.14-.12-.26-.25-.33-.39-.2-.7-.35-1.85-1.68-.36-.42-.42-1.06-.87-1.39a2.48,2.48,0,0,0-1.36-.36,25.65,25.65,0,0,0-6.72.52,9.93,9.93,0,0,0-2.54.83,12.51,12.51,0,0,0-1.72,1.15c-1,.78-2.61,1.7-3.17,2.87a3.06,3.06,0,0,1,2.22-.35c.3.06.75,0,.91.28a5.42,5.42,0,0,1,.25.66,1.12,1.12,0,0,0,1.26.6c.43-.11.79-.48,1.23-.47a1.43,1.43,0,0,1,1,.7A1.91,1.91,0,0,0,17.33,24.47Z"/><path class="cls-6" d="M23.84,8.74a2.78,2.78,0,0,0-2.27-.93,10,10,0,0,0-4.39.31,2.21,2.21,0,0,0-1.25,1,5.16,5.16,0,0,0-.25.89,6.22,6.22,0,0,1-.75,1.55l-1.7,2.82a.35.35,0,0,0-.07.22c0,.19.28.21.47.18l2-.32c0,.33-.3.62-.33,1-.07.63-.31,1.12,0,1.68a2.88,2.88,0,0,0,2.45,1.11,4.72,4.72,0,0,0,2.1-1,15,15,0,0,0,3.24-3.38,5.57,5.57,0,0,0,.73-1.34,6.86,6.86,0,0,0,.26-2.21A2.73,2.73,0,0,0,23.84,8.74Z"/><path class="cls-2" d="M22.9,13.5a9.65,9.65,0,0,0-2.77,1.43c-.72.54-1.61.8-2.38,1.27s-2.36,1.17-2.33-.29c0-.23-.58.19-.81.22a.71.71,0,0,0-.43.33c-.3.4-.52.63-.45,1.13a2.92,2.92,0,0,0,.61,1.27,10.74,10.74,0,0,1,.74,1.41l1.23,2.4a1.94,1.94,0,0,0,.43.62.66.66,0,0,0,.7.13,1,1,0,0,0,.3-.28,9.26,9.26,0,0,1,1.68-1.6,32,32,0,0,1,4.65-2.27,5.87,5.87,0,0,0,3.42-3.66A3.68,3.68,0,0,0,27,12.88a.87.87,0,0,0-.36-.35.94.94,0,0,0-.55,0A27.76,27.76,0,0,0,22.9,13.5Z"/><path class="cls-5" d="M16.67,7.48a.69.69,0,0,1,0-.3,8.41,8.41,0,0,1,.15-.84c.21-.95.4-2.19,1.27-2.8A3.67,3.67,0,0,1,19,3.11l2.29-.82c-.13-.18-.17-.35-.27-.52a.31.31,0,0,1,0-.34,5.91,5.91,0,0,0,.45-.77.12.12,0,0,1,.22,0,6,6,0,0,0,.39.71.41.41,0,0,1,0,.39A2.46,2.46,0,0,0,22,2.3s1.66.5,2.11.67a4.6,4.6,0,0,1,2.2,1.3,4.57,4.57,0,0,1,.6,1.23l.49,1.32L23.71,7c-.5,0-1,.05-1.49.06s-.76,0-1.15,0c-1.42.06-2.81.52-4.23.46a.2.2,0,0,1-.13,0S16.62,7.49,16.67,7.48Z"/><path class="cls-3" d="M17.34,10.9A2.76,2.76,0,0,1,19,10.06a1.81,1.81,0,0,1,1.88.61,3.65,3.65,0,0,1-2.58.57A2.36,2.36,0,0,1,17.34,10.9Z"/><path class="cls-7" d="M18.62,10.37a.62.62,0,0,0-.06.44.59.59,0,0,0,.41.41.54.54,0,0,0,.62-.25.56.56,0,0,0-.09-.67.37.37,0,0,0-.13-.11h0l.19.2h0a.55.55,0,0,0-.46-.26.53.53,0,0,0-.46.26Z"/><g class="cls-8"><path class="cls-7" d="M14.56,14.94c0,1-.19,2-.19,2.95s.12,2,.15,3c0,.08.14.11.15,0a11.33,11.33,0,0,0,.14-2.63c0-1.11,0-2.21,0-3.32a.12.12,0,0,0-.24,0Z"/><path class="cls-7" d="M15.58,14.68c0,.69-.18,1.37-.22,2.07,0,.85,0,1.71,0,2.57,0,1.49-.4,3.18,0,4.64a.11.11,0,0,0,.21,0,23.3,23.3,0,0,0,.21-4.29c0-1.66,0-3.33,0-5a.08.08,0,0,0-.17,0Z"/><path class="cls-7" d="M16.21,14.93a47.16,47.16,0,0,0,.51,11c0,.09.15.06.16,0a49.07,49.07,0,0,0-.24-5.44c-.06-1.84,0-3.67-.23-5.51a.1.1,0,0,0-.2,0Z"/><path class="cls-7" d="M17.2,14.76a47.07,47.07,0,0,0,.51,11c0,.09.15.06.16,0a49.14,49.14,0,0,0-.24-5.44c-.06-1.84,0-3.67-.23-5.5a.1.1,0,0,0-.2,0Z"/><path class="cls-7" d="M17.86,14.79a28.72,28.72,0,0,0,.35,5.87,15.35,15.35,0,0,0,1,4.82.08.08,0,0,0,.14,0c-.11-1.7-.44-3.43-.63-5.12s-.38-3.71-.66-5.54c0-.09-.15-.06-.16,0Z"/><path class="cls-7" d="M18.77,13.86a10,10,0,0,0-.1,2.7,24.55,24.55,0,0,0,.26,3.06c.17,1.11.42,2.2.61,3.31.12.74,0,1.65.54,2.25.06.06.19,0,.18-.07-.21-1.64-.43-3.25-.74-4.87-.21-1.09-.33-2.2-.44-3.3a17.06,17.06,0,0,1-.25-3.06s-.06,0-.07,0Z"/><path class="cls-7" d="M19.32,13.79a14.44,14.44,0,0,0,0,2.69c.11.8.3,1.58.45,2.37a32.41,32.41,0,0,0,1.42,5.68c0,.08.16.08.16,0a45,45,0,0,0-1.06-5.43c-.18-.89-.4-1.77-.58-2.66s-.14-1.77-.3-2.64c0,0-.06,0-.06,0Z"/><path class="cls-7" d="M20.32,13.61c-.41,1.31.15,2.91.49,4.18.47,1.73,1,3.44,1.5,5.18a.1.1,0,0,0,.19,0,3.27,3.27,0,0,0-.18-1.52c-.21-.8-.43-1.59-.66-2.38s-.51-1.63-.74-2.45a6.16,6.16,0,0,1-.46-3,.07.07,0,0,0-.14,0Z"/><path class="cls-7" d="M21.13,12.59a4,4,0,0,0,0,1.88,20.27,20.27,0,0,0,.74,3.11,44.72,44.72,0,0,0,2,5.62.09.09,0,0,0,.17,0,10,10,0,0,0-.59-2.34c-.26-.91-.6-1.79-.92-2.68s-.59-1.8-.83-2.72a9.07,9.07,0,0,1-.5-2.81c0-.06-.08-.06-.09,0Z"/><path class="cls-7" d="M21.9,12.53a15.45,15.45,0,0,0,.92,4.53A29.7,29.7,0,0,0,24.57,22c.05.1.18,0,.17-.07-.48-3.23-2.39-6.13-2.67-9.4,0-.1-.17-.11-.16,0Z"/><path class="cls-7" d="M23.22,12.26a12.71,12.71,0,0,0,1,4.78c.27.76.61,1.49.89,2.25.22.6.19,1.23.62,1.72.08.09.2,0,.18-.11-.49-3-2.06-5.64-2.54-8.65,0-.08-.14-.06-.14,0Z"/><path class="cls-7" d="M24.44,11.54c-.29,3,1.25,5.64,2.47,8.29,0,.08.15,0,.14-.06a19.18,19.18,0,0,0-1.47-4,24.47,24.47,0,0,1-1-4.27c0-.06-.09,0-.1,0Z"/><path class="cls-7" d="M25.58,11.53c-.31,1.23.31,2.79.71,3.94a15.29,15.29,0,0,0,1.86,4.29c.05.07.21.06.19-.05A16.33,16.33,0,0,0,27,16c-.26-.67-.5-1.35-.73-2a5.76,5.76,0,0,1-.55-2.44c0-.1-.15-.12-.17,0Z"/><path class="cls-7" d="M26.59,11.34c-.18,2.43,1.57,4.7,2.53,6.8,0,.08.15,0,.14-.06a9.18,9.18,0,0,0-1.19-2.91,12.37,12.37,0,0,1-1.34-3.84c0-.08-.13-.06-.14,0Z"/></g><path class="cls-2" d="M13.26,16.82a3.78,3.78,0,0,1,2-2.29,2.76,2.76,0,0,1,1.27-.38,2.81,2.81,0,0,1,1.21.52,5.25,5.25,0,0,1,1.74,1.48,6.17,6.17,0,0,1-3.44-.61A7,7,0,0,1,13.26,16.82Z"/><g class="cls-9"><path class="cls-7" d="M14.41,13.07A17.87,17.87,0,0,0,13,18.57a.08.08,0,0,0,.17,0c.47-1.83.78-3.67,1.36-5.48,0-.1-.12-.14-.15,0Z"/><path class="cls-7" d="M15.14,13a15,15,0,0,0-1.46,6.11.1.1,0,0,0,.18,0,13.34,13.34,0,0,0,.55-2.57,15.71,15.71,0,0,1,.87-3.51c0-.09-.09-.17-.14-.08Z"/><path class="cls-7" d="M15.93,12.57a28.35,28.35,0,0,0-.88,3,24.82,24.82,0,0,0-.73,3.07c0,.11.15.14.2.05,1.05-1.71,1.21-4.12,1.55-6.06a.08.08,0,0,0-.15,0Z"/><path class="cls-7" d="M16.27,12.35a34.16,34.16,0,0,0,.33,5.9c0,.1.16.06.17,0a34.08,34.08,0,0,0-.32-5.88.09.09,0,0,0-.18,0Z"/><path class="cls-7" d="M17,12.46c0,1.23.14,2.43.22,3.65a5.61,5.61,0,0,0,.63,2.66.09.09,0,0,0,.17-.07,24.28,24.28,0,0,1-.35-2.89c-.1-1.12-.35-2.23-.48-3.36a.09.09,0,0,0-.19,0Z"/><path class="cls-7" d="M17.78,13.21a16.16,16.16,0,0,0,.5,3.15,13.06,13.06,0,0,0,.58,3.21.11.11,0,0,0,.19-.05c0-2.15-.92-4.19-1.06-6.31a.11.11,0,0,0-.22,0Z"/><path class="cls-7" d="M18.66,13.77a16.16,16.16,0,0,0,.5,3.15,13.13,13.13,0,0,0,.58,3.21.11.11,0,0,0,.2-.05c0-2.15-.92-4.19-1.06-6.31a.11.11,0,0,0-.22,0Z"/></g><path class="cls-2" d="M21.52,8.06l.68,3.16a14,14,0,0,1,.44,3.4.19.19,0,0,0,.24.21c2.33-.48,4.38-1.84,6.59-2.71a.19.19,0,0,0,.07-.3A7,7,0,0,1,27.69,8a.18.18,0,0,0-.19-.16L21.73,8C21.56,8.05,21.41,7.94,21.52,8.06Z"/><g class="cls-10"><path class="cls-7" d="M21.81,7.28a51.55,51.55,0,0,0,1,5.38C23,14,23,16.1,24.08,17a.12.12,0,0,0,.2-.12c-.11-.67-.44-1.31-.61-2s-.31-1.6-.46-2.4-.37-1.83-.56-2.75-.54-1.67-.74-2.52a.05.05,0,0,0-.1,0Z"/><path class="cls-7" d="M22.57,6.94a20.25,20.25,0,0,0,.9,5.08c.43,1.57.39,3.58,1.31,5A.13.13,0,0,0,25,17a3,3,0,0,0-.29-1.55c-.3-.91-.39-1.9-.61-2.84a43.68,43.68,0,0,1-1.36-5.63c0-.12-.19-.12-.19,0Z"/><path class="cls-7" d="M23.43,6.71c.43,1.74.62,3.51,1.19,5.23.3.9.55,1.82.82,2.73a2.31,2.31,0,0,0,.78,1.39.1.1,0,0,0,.14-.11c-.53-1.47-.83-3-1.33-4.49s-.63-3.4-1.43-4.82a.1.1,0,0,0-.17.07Z"/><path class="cls-7" d="M24.64,6.51a12.49,12.49,0,0,0,.85,4.78c.3.88.61,1.75.88,2.64a7.75,7.75,0,0,0,.92,2.3.13.13,0,0,0,.24-.1,25.34,25.34,0,0,0-1.41-4.66,27.31,27.31,0,0,1-1.29-5c0-.12-.19-.08-.2,0Z"/><path class="cls-7" d="M25.67,6.38a17.51,17.51,0,0,0,1.43,5.51c.42,1.21.3,3.42,1.47,4.18a.1.1,0,0,0,.15-.11c-.14-.68-.41-1.33-.55-2a16.44,16.44,0,0,0-.55-2.19A23.86,23.86,0,0,1,26,6.38c0-.19-.3-.19-.29,0Z"/><path class="cls-7" d="M26.88,6.36a7.88,7.88,0,0,0,.72,4.35c.32.79.66,1.56,1,2.35a7.46,7.46,0,0,0,1.06,2.29.12.12,0,0,0,.2-.08C30,14,29,12.46,28.47,11.35c-.67-1.52-1.54-3.25-1.36-5,0-.13-.21-.16-.23,0Z"/></g><path class="cls-4" d="M14.57,6.46A12.31,12.31,0,0,0,15,4.36c0-.08.07-.17.14-.14l0,0a29.38,29.38,0,0,1,2.25,2.88.05.05,0,0,0,.09,0l1.72-3s0-.07.08-.06A16.65,16.65,0,0,1,20.6,6.33a1.15,1.15,0,0,0,.51.63.11.11,0,0,0,.12,0,27,27,0,0,0,2.14-2.71l1.4,2.51c0,.06.09.14.16.11A.16.16,0,0,0,25,6.79c.71-.84,1.36-1.86,2-2.74a0,0,0,0,1,.08,0,1.92,1.92,0,0,0,.29.56c.29.47.87,1.65.93,1.72a.46.46,0,0,1,.06.5c-.12.26-.24,1.53-.55,1.72a2,2,0,0,1-.75.06c-2.17-.15-4.34.27-6.52.2-.71,0-1.42-.1-2.12-.08a12.28,12.28,0,0,0-2.64.46,12.09,12.09,0,0,1-1.5-1.11C13.91,7.71,14.39,6.9,14.57,6.46Z"/><path class="cls-2" d="M14.84,2.4c0-.08.11-.19.19-.16a.18.18,0,0,1,.06.05,6.58,6.58,0,0,1,.6.75,1.28,1.28,0,0,1,.27.62c0,.12-.22.28-.37.49a3.65,3.65,0,0,1-.32.4c-.12.09-.27,0-.38-.1l-.62-.51c-.05,0-.18-.22-.16-.29C14.17,3.43,14.68,2.78,14.84,2.4Z"/><path class="cls-7" d="M15,2.93s.05-.09.09-.08l0,0a3.3,3.3,0,0,1,.29.37.63.63,0,0,1,.13.3c0,.06-.11.13-.18.24a1.83,1.83,0,0,1-.15.2c-.06,0-.13,0-.19,0l-.3-.25s-.09-.11-.08-.14S14.93,3.11,15,2.93Z"/><path class="cls-2" d="M19.09,2.17c0-.08.11-.19.19-.16a.17.17,0,0,1,.06,0,6.42,6.42,0,0,1,.6.76,1.28,1.28,0,0,1,.27.62c0,.12-.22.28-.37.49a3.71,3.71,0,0,1-.32.4c-.12.08-.27,0-.39-.1l-.62-.51c-.05,0-.18-.22-.16-.29C18.42,3.2,18.93,2.55,19.09,2.17Z"/><path class="cls-7" d="M19.26,2.7s.05-.09.09-.08l0,0a3.32,3.32,0,0,1,.29.37.63.63,0,0,1,.13.3c0,.06-.11.13-.18.24a2,2,0,0,1-.15.19c-.06,0-.13,0-.19,0L19,3.46s-.09-.11-.08-.14S19.18,2.88,19.26,2.7Z"/><path class="cls-2" d="M23,2.32c0-.08.11-.19.19-.16a.18.18,0,0,1,.06.05,6.69,6.69,0,0,1,.6.75,1.28,1.28,0,0,1,.27.62c0,.12-.22.28-.37.49a3.87,3.87,0,0,1-.32.4c-.12.09-.28,0-.39-.1l-.62-.51c-.05,0-.18-.22-.16-.29C22.32,3.35,22.83,2.7,23,2.32Z"/><path class="cls-7" d="M23.16,2.85s.05-.09.09-.08l0,0a3.06,3.06,0,0,1,.29.37.63.63,0,0,1,.13.3c0,.06-.11.14-.18.24a1.56,1.56,0,0,1-.16.19c-.06,0-.13,0-.19,0l-.3-.25s-.09-.11-.08-.14S23.08,3,23.16,2.85Z"/><path class="cls-2" d="M26.75,2.24c0-.09.11-.19.19-.16a.17.17,0,0,1,.07.05,6.46,6.46,0,0,1,.6.75,1.28,1.28,0,0,1,.27.62c0,.12-.22.28-.37.49a3.66,3.66,0,0,1-.32.4c-.12.08-.28,0-.39-.1l-.62-.51c-.05,0-.18-.22-.16-.29C26.08,3.27,26.59,2.62,26.75,2.24Z"/><path class="cls-7" d="M26.92,2.77s.05-.09.1-.08l0,0a3.06,3.06,0,0,1,.29.37.63.63,0,0,1,.13.3c0,.06-.11.14-.18.24a1.83,1.83,0,0,1-.15.2c-.06,0-.13,0-.19,0l-.3-.25s-.09-.11-.08-.14S26.84,3,26.92,2.77Z"/><path class="cls-4" d="M19.87,11.6l-.26.11a1.11,1.11,0,0,0-.38.39,1.05,1.05,0,0,0-.14.53,1.05,1.05,0,0,0,1.58.91h0a1.08,1.08,0,0,0,.47-.62,1,1,0,0,0-.1-.79,1.15,1.15,0,0,0-.4-.4l.48.62h0a1.09,1.09,0,0,0-.47-.61,1,1,0,0,0-.79-.1Z"/><path class="cls-7" d="M15,14.59c.65-.11,1.85-.05,2.16-.81a.63.63,0,0,0-.25-.87.72.72,0,0,0-.94.26c0,.06,0,.15.08.14.23,0,.49-.12.71,0s.09.52-.08.63a2.11,2.11,0,0,1-.66.22,9.38,9.38,0,0,0-1.05.35,0,0,0,0,0,0,.08Z"/><path class="cls-7" d="M20.93,9.41c-.61-.55-3.61-1-3.62.28a.23.23,0,0,0,.16.21c.39.13.86-.16,1.25-.24a4.88,4.88,0,0,1,2,0,.18.18,0,0,0,.17-.29Z"/><path class="cls-7" d="M15.16,5.15a3.14,3.14,0,0,0,0,1.25,7.7,7.7,0,0,1,.18.93.45.45,0,0,0,.9,0A2,2,0,0,0,16,6.39c-.19-.41-.24-.87-.46-1.28a.19.19,0,0,0-.34,0Z"/><path class="cls-7" d="M19.1,5.06a2.22,2.22,0,0,0-.27,1,4,4,0,0,0-.13,1.18c.09.53,1,.41.95-.13a11.41,11.41,0,0,0-.17-2,.2.2,0,0,0-.37,0Z"/><path class="cls-7" d="M23.11,5.27a18.54,18.54,0,0,0-.53,1.85c-.08.7,1.16.69,1.08,0a9.46,9.46,0,0,0-.09-1.85.24.24,0,0,0-.45,0Z"/><path class="cls-7" d="M26.94,5.23a2,2,0,0,0-.4.74,9.39,9.39,0,0,0-.37.93c-.14.6.78.86.93.26a8.62,8.62,0,0,0,.18-.88c0-.27,0-.55,0-.81a.23.23,0,0,0-.39-.22Z"/><path class="cls-5" d="M15.67,8.71a2.8,2.8,0,0,0,.17.29c.08.17.34,0,.25-.15s-.12-.14-.16-.22-.33-.1-.27.07Z"/><path class="cls-5" d="M16.19,8.44a.45.45,0,0,0,0,.45.23.23,0,0,0,.25.1.23.23,0,0,0,.12-.35,1,1,0,0,0-.19-.23.12.12,0,0,0-.19,0Z"/><path class="cls-5" d="M16.76,8.3a.71.71,0,0,0,0,.25c0,.1.06.21.16.25a.18.18,0,0,0,.27-.11.53.53,0,0,0-.31-.51c-.08,0-.15,0-.16.12Z"/><path class="cls-5" d="M17.36,8.18c0,.17-.06.4.1.51a.17.17,0,0,0,.22,0,.28.28,0,0,0,0-.34.53.53,0,0,0-.2-.21.09.09,0,0,0-.14.06Z"/><path class="cls-5" d="M18.07,8.07c-.1,0-.14.14-.16.22a.32.32,0,0,0,.12.37.19.19,0,0,0,.26-.07.43.43,0,0,0,0-.34c0-.09-.1-.21-.21-.18Z"/><path class="cls-5" d="M18.65,8c-.12.05-.14.23-.14.34s.14.4.33.29.13-.27.08-.41-.12-.27-.26-.21Z"/><path class="cls-5" d="M19.27,8a.39.39,0,0,0,0,.63.18.18,0,0,0,.18,0c.14-.1.13-.23.09-.39s-.12-.29-.24-.24Z"/><path class="cls-5" d="M19.81,8a.49.49,0,0,0,0,.54.22.22,0,0,0,.41-.17A1.13,1.13,0,0,0,20,8a.14.14,0,0,0-.2,0Z"/><path class="cls-5" d="M20.44,8c-.1,0-.12.18-.12.27a.42.42,0,0,0,.09.34.21.21,0,0,0,.33,0,.49.49,0,0,0,0-.38c0-.12-.16-.24-.29-.18Z"/><path class="cls-5" d="M21,8.05a.42.42,0,0,0-.06.58.16.16,0,0,0,.23,0,.32.32,0,0,0,.05-.31,1,1,0,0,0-.12-.26.08.08,0,0,0-.1,0Z"/><path class="cls-5" d="M21.51,8.13a.52.52,0,0,0,0,.45.19.19,0,0,0,.34,0,.72.72,0,0,0-.12-.43c0-.1-.18-.05-.21,0Z"/><path class="cls-5" d="M22.18,8.05a.29.29,0,0,0-.13.23.38.38,0,0,0,.14.39.2.2,0,0,0,.29-.12c.05-.13-.09-.59-.3-.5Z"/><path class="cls-5" d="M22.79,8.09a.47.47,0,0,0,0,.51.2.2,0,0,0,.35,0,.41.41,0,0,0-.22-.49.11.11,0,0,0-.11,0Z"/><path class="cls-5" d="M23.45,8.07c-.12.11-.12.41,0,.49a.14.14,0,0,0,.19-.05.38.38,0,0,0-.15-.45.07.07,0,0,0-.09,0Z"/><path class="cls-5" d="M24,8c-.12.13-.16.45,0,.54a.12.12,0,0,0,.13,0c.11-.08.1-.17.08-.29A.46.46,0,0,0,24.11,8,.06.06,0,0,0,24,8Z"/><path class="cls-5" d="M24.57,8s0,.13,0,.18a.33.33,0,0,0,.08.32.19.19,0,0,0,.26,0,.32.32,0,0,0,.06-.34.35.35,0,0,0-.2-.24.13.13,0,0,0-.16.09Z"/><path class="cls-5" d="M25.21,7.92a1.37,1.37,0,0,0-.08.21.35.35,0,0,0,.07.33c.08.07.24.05.26-.07a.68.68,0,0,0,0-.26,1.51,1.51,0,0,0-.07-.21.08.08,0,0,0-.16,0Z"/><path class="cls-5" d="M25.89,7.81c-.18.07-.18.31-.16.47a.2.2,0,0,0,.14.14.19.19,0,0,0,.15,0,.2.2,0,0,0,.1-.17.52.52,0,0,0-.06-.31s-.1-.13-.17-.11Z"/><path class="cls-5" d="M26.46,7.91c-.05.14-.18.37,0,.49a.13.13,0,0,0,.15,0c.19-.09.12-.39,0-.53a.09.09,0,0,0-.16,0Z"/><path class="cls-5" d="M27,7.86c-.11.13-.27.4-.09.55a.15.15,0,0,0,.18,0,.42.42,0,0,0,0-.56.09.09,0,0,0-.14,0Z"/><path class="cls-5" d="M27.58,8a1,1,0,0,0-.16.33.18.18,0,0,0,.34.09.57.57,0,0,0,0-.4.08.08,0,0,0-.14,0Z"/><path class="cls-4" d="M15.52,7.29A.24.24,0,0,0,16,7.17c-.08-.29-.54-.16-.45.13Z"/><path class="cls-4" d="M15.6,6.84a.2.2,0,0,0,0-.39.2.2,0,0,0,0,.39Z"/><path class="cls-4" d="M15.48,6.26a.14.14,0,0,0,0-.28.14.14,0,0,0,0,.28Z"/><path class="cls-4" d="M19.18,7.36a.26.26,0,0,0,0-.52.26.26,0,0,0,0,.52Z"/><path class="cls-4" d="M19.19,6.7a.18.18,0,0,0,0-.37.18.18,0,0,0,0,.37Z"/><path class="cls-4" d="M19.22,6.2a.12.12,0,0,0,0-.23.12.12,0,0,0,0,.23Z"/><path class="cls-4" d="M23.11,7.41a.25.25,0,0,0,0-.51.25.25,0,0,0,0,.51Z"/><path class="cls-4" d="M23.22,6.7a.16.16,0,0,0,0-.33.16.16,0,0,0,0,.33Z"/><path class="cls-4" d="M23.24,6.2a.09.09,0,0,0,0-.18.09.09,0,0,0,0,.18Z"/><path class="cls-4" d="M26.66,7.17a.21.21,0,0,0,0-.42.21.21,0,0,0,0,.42Z"/><path class="cls-4" d="M26.84,6.63a.15.15,0,0,0,0-.3.15.15,0,0,0,0,.3Z"/><path class="cls-4" d="M27,6h0c-.12,0-.12.2,0,.13h0c.06,0,0-.11,0-.13Z"/><path class="cls-4" d="M13.91,20c-.34,0-.58.29-.81.51a4.65,4.65,0,0,0-.89.95c-.23.4.35.88.65.5a11,11,0,0,0,1.19-1.71.17.17,0,0,0-.15-.25Z"/><path class="cls-4" d="M14.81,21.36a1.37,1.37,0,0,1-.26.28,3.87,3.87,0,0,0-.36.4c-.21.27-.51.66-.37,1a.46.46,0,0,0,.88,0,8.57,8.57,0,0,1,.58-1.43c.16-.31-.31-.59-.47-.28Z"/><path class="cls-4" d="M18.32,22.9a1.15,1.15,0,0,0-.07.88.35.35,0,0,0,.69-.09,1.59,1.59,0,0,0-.31-.79.18.18,0,0,0-.31,0Z"/><path class="cls-4" d="M22.13,20.8c-.11.46.18.84.29,1.26s.42,1.07,1,.94a.54.54,0,0,0,.37-.66,1.18,1.18,0,0,0-.21-.37c-.08-.12-.13-.26-.21-.38a4.44,4.44,0,0,0-.85-.89.25.25,0,0,0-.41.11Z"/><path class="cls-4" d="M25.05,19.43a1.79,1.79,0,0,0,.42,1.08,4.18,4.18,0,0,0,1,1.1.58.58,0,0,0,.79-.21.59.59,0,0,0-.21-.79c-.33-.23-.62-.52-.92-.78s-.57-.55-.92-.55a.2.2,0,0,0-.19.15Z"/><path class="cls-7" d="M18.71,24.93a.32.32,0,1,0-.32-.32.32.32,0,0,0,.32.32Z"/><path class="cls-7" d="M13.91,24.12a.32.32,0,1,0-.32-.32.33.33,0,0,0,.32.32Z"/><path class="cls-7" d="M10.31,22.85a.32.32,0,1,0-.32-.32.32.32,0,0,0,.32.32Z"/><path class="cls-7" d="M23.59,23.87a.41.41,0,1,0-.41-.41.42.42,0,0,0,.41.41Z"/><path class="cls-7" d="M27,22.54a.4.4,0,0,0,.41-.11.42.42,0,1,0-.41.11Z"/><path class="cls-7" d="M28.64,21.49a.41.41,0,0,0,.4-.11.42.42,0,1,0-.4.11Z"/><path class="cls-4" d="M19.54,23.13a.17.17,0,0,0-.08.08.17.17,0,0,0,.23.23h0l-.13,0h0a.18.18,0,1,0,0-.33Z"/><path class="cls-4" d="M20.28,23.1a.17.17,0,0,0,0-.33.17.17,0,0,0,0,.33Z"/><path class="cls-4" d="M21.07,23a.2.2,0,0,0,0-.39.2.2,0,0,0,0,.39Z"/><path class="cls-4" d="M21.69,23.05h0a.16.16,0,1,0,0-.3h0a.15.15,0,0,0,0,.28Z"/><path class="cls-4" d="M22.15,23v0a.19.19,0,0,0,0,.23h0a.18.18,0,0,0,.3-.08.24.24,0,0,0,0-.14.18.18,0,0,0-.33,0Z"/><path class="cls-4" d="M24.19,22.58a.14.14,0,0,0,0-.29.14.14,0,0,0,0,.29Z"/><path class="cls-4" d="M24.54,22.14a.17.17,0,0,0,0-.33.17.17,0,0,0,0,.33Z"/><path class="cls-4" d="M25.24,21.78h0c.13,0,.26-.13.14-.24l-.1-.06a.16.16,0,1,0,0,.31Z"/><path class="cls-4" d="M25.89,21.83a.17.17,0,0,0,0-.34.17.17,0,0,0,0,.34Z"/><path class="cls-4" d="M28.07,21.14a.16.16,0,0,0,0-.32.16.16,0,0,0,0,.32Z"/><path class="cls-4" d="M18,24.2A.11.11,0,0,0,18,24a.11.11,0,0,0,0,.21Z"/><path class="cls-4" d="M17.31,24v0a.17.17,0,1,0,0-.25v0a.15.15,0,0,0,0,.21Z"/><path class="cls-4" d="M15.88,23.14a.16.16,0,0,0,0-.31.16.16,0,0,0,0,.31Z"/><path class="cls-4" d="M15.18,23.23a.19.19,0,0,0,0-.38.19.19,0,0,0,0,.38Z"/><path class="cls-4" d="M13.49,22.34a.16.16,0,0,0,0-.31.16.16,0,0,0,0,.31Z"/><path class="cls-4" d="M11.58,21.66h0l.13-.05h0a.2.2,0,1,0,.2.2.22.22,0,0,0-.06-.15.18.18,0,0,0-.25,0Z"/><path class="cls-5" d="M29.42,27.12a8,8,0,0,0,1.23-.94c.38-.33.23-1.17.52-1.85,0-.11.21-.12.33-.14A4.34,4.34,0,0,1,35,25.79a5.49,5.49,0,0,1,1.12,3.46A4.14,4.14,0,0,1,36,30.52c-.14.44-1.45,1.13-1.63,1.55a5.45,5.45,0,0,0,0,3.62c-1.3.28-1.74-.1-3.07-.17a.79.79,0,0,1-.32-.06.67.67,0,0,1-.29-.58c0-.65.25-1.32,0-1.92S29,32.5,27.89,31.3a2.21,2.21,0,0,1-.33-2.41A4.27,4.27,0,0,1,29.42,27.12Z"/><path class="cls-7" d="M30.26,29.75a2.66,2.66,0,0,1-.1,1.27c-.11.47-.14.55-.25.52l-.08,0-1.18-.84a.6.6,0,0,1-.28-.9l.54-1.29,0-.08a.26.26,0,0,1,.33,0A4.71,4.71,0,0,1,30.26,29.75Z"/><path class="cls-7" d="M31.06,30.78a2.09,2.09,0,0,1-.49-1.32c0-.11.39-.85.63-1.31a.22.22,0,0,1,.38,0c.26.37.45.95.68,1.29a.24.24,0,0,1,0,.18c-.15.73-.3,1.17-.45,1.92h0a.22.22,0,0,1-.43,0A5,5,0,0,0,31.06,30.78Z"/><path class="cls-7" d="M33,31.23,32.83,30a2.25,2.25,0,0,1,0-.34c0-.4.7-1.12,1.06-1.44a.18.18,0,0,1,.3.08c.11.34.21.74.31,1.1a.81.81,0,0,1-.15.75,13.86,13.86,0,0,0-1.12,1.39.12.12,0,0,1-.21,0A1.07,1.07,0,0,1,33,31.23Z"/><path class="cls-4" d="M29.19,29.54h0a.37.37,0,0,0,.37.63.39.39,0,0,0,.18-.32.06.06,0,0,1,0,0,.36.36,0,0,0-.54-.31Z"/><path class="cls-4" d="M31.44,30.05a.36.36,0,1,0-.35-.36.36.36,0,0,0,.35.36Z"/><path class="cls-4" d="M33.68,30.11a.39.39,0,0,0,0-.78.39.39,0,0,0,0,.78Z"/><path class="cls-2" d="M29.36,28.21a.3.3,0,0,0,0-.6.3.3,0,0,0,0,.6Z"/><path class="cls-2" d="M31.34,27.92a.29.29,0,0,0,0-.59.29.29,0,0,0,0,.59Z"/><path class="cls-2" d="M33.95,28.07a.38.38,0,1,0-.38-.38.38.38,0,0,0,.38.38Z"/><path class="cls-2" d="M30,32.12a.26.26,0,0,0,0-.51.26.26,0,0,0,0,.51Z"/><path class="cls-2" d="M31.7,32.41a.28.28,0,0,0,0-.56.28.28,0,0,0,0,.56Z"/><path class="cls-2" d="M33.08,32.33a.32.32,0,0,0,0-.63.32.32,0,0,0,0,.63Z"/><path class="cls-2" d="M21.19,2.89a2,2,0,0,1,.19.28c0,.06.11.17.2.12a.09.09,0,0,0,0-.08c0-.19-.22-.32-.37-.41a.06.06,0,0,0-.07.09Z"/><path class="cls-2" d="M20.78,3.92a.46.46,0,0,0,.1.4.05.05,0,0,0,.09,0,.44.44,0,0,0,0-.16,2.08,2.08,0,0,0,0-.23.1.1,0,0,0-.2,0Z"/><path class="cls-2" d="M21.78,4.29c0,.12.09.29.22.33a0,0,0,0,0,.06,0c0-.11-.1-.21-.14-.32a.07.07,0,0,0-.14,0Z"/><path class="cls-2" d="M20.91,5.22c.08.13.15.32.3.39s.22,0,.18-.13A.88.88,0,0,0,21,5.11c-.07,0-.15,0-.11.11Z"/><path class="cls-2" d="M18.07,4.47c.13,0,.26,0,.39-.05a0,0,0,0,0,0-.07.63.63,0,0,0-.41,0c-.05,0,0,.1,0,.08Z"/><path class="cls-2" d="M17.85,5.45a.74.74,0,0,0-.24.21c-.05.06-.14.2-.06.28s.32-.35.37-.42,0-.09-.07-.06Z"/><path class="cls-2" d="M24.49,4.43a.13.13,0,0,0-.12,0,0,0,0,1,0,0,0,.12.12,0,0,1,.12,0Z"/><path class="cls-2" d="M24.46,4.35l.29.07.13,0a.16.16,0,0,0,.11,0,0,0,0,0,0,0-.05c-.07-.19-.37-.17-.53-.16a.07.07,0,0,0,0,.13Z"/><path class="cls-2" d="M25.51,4.1a1,1,0,0,0,0,.35c0,.1,0,.28.17.29s.12-.13.09-.21a1.79,1.79,0,0,1-.1-.4c0-.09-.15-.13-.17,0Z"/><path class="cls-2" d="M24.81,5.19a.71.71,0,0,0,0,.32c0,.11,0,.24.15.29a.11.11,0,0,0,.16-.07.61.61,0,0,0-.06-.3.64.64,0,0,0-.15-.28.07.07,0,0,0-.11,0Z"/><path class="cls-2" d="M24.46,3.6a.16.16,0,0,0,.13,0,.05.05,0,0,0,0-.07.15.15,0,0,0-.13,0,.07.07,0,0,0,0,.15Z"/><path class="cls-5" d="M23.72,37.72c-.52-.41-1.29-.11-1.81.3a3.58,3.58,0,0,1-1.66,1c-.65.07-1.25-.34-1.9-.4a1.86,1.86,0,0,0-1.48.54c-.29.29-.48.68-.84.88-.59.34-1.33,0-2,.09a2.63,2.63,0,0,0-1.44.79.37.37,0,0,0-.1.2c0,.14.12.26.25.33.39.2.7.35,1.85,1.68.36.42.42,1.06.87,1.39a2.47,2.47,0,0,0,1.36.36,25.57,25.57,0,0,0,6.72-.51,9.86,9.86,0,0,0,2.54-.83,12.21,12.21,0,0,0,1.72-1.15c1-.78,2.61-1.7,3.17-2.87a3.06,3.06,0,0,1-2.22.35c-.3-.06-.75,0-.91-.28a5.63,5.63,0,0,1-.25-.66,1.13,1.13,0,0,0-1.26-.6c-.43.11-.79.48-1.23.48a1.42,1.42,0,0,1-1-.7A1.91,1.91,0,0,0,23.72,37.72Z"/><path class="cls-6" d="M17.21,53.44a2.78,2.78,0,0,0,2.27.93,10,10,0,0,0,4.39-.31,2.19,2.19,0,0,0,1.25-1,5,5,0,0,0,.25-.89,6.16,6.16,0,0,1,.75-1.55l1.7-2.82a.35.35,0,0,0,.07-.21c0-.19-.29-.21-.47-.18l-2,.32c0-.34.3-.62.33-1,.07-.63.31-1.12,0-1.68A2.88,2.88,0,0,0,23.26,44a4.75,4.75,0,0,0-2.1,1,15,15,0,0,0-3.24,3.38,5.61,5.61,0,0,0-.73,1.34,6.93,6.93,0,0,0-.26,2.22A2.74,2.74,0,0,0,17.21,53.44Z"/><path class="cls-2" d="M18.15,48.68a9.66,9.66,0,0,0,2.77-1.43c.72-.54,1.61-.8,2.38-1.27s2.36-1.17,2.33.29c0,.23.58-.19.81-.22a.71.71,0,0,0,.43-.33c.3-.4.52-.64.45-1.13a2.93,2.93,0,0,0-.61-1.27A10.75,10.75,0,0,1,26,41.9l-1.23-2.4a2,2,0,0,0-.43-.62.66.66,0,0,0-.7-.13,1,1,0,0,0-.3.28,9.17,9.17,0,0,1-1.68,1.6A31.88,31.88,0,0,1,17,42.89a5.87,5.87,0,0,0-3.42,3.66,3.67,3.67,0,0,0,.51,2.75.86.86,0,0,0,.36.35,1,1,0,0,0,.55,0A26.94,26.94,0,0,0,18.15,48.68Z"/><path class="cls-5" d="M24.37,54.71a.69.69,0,0,1,0,.3c0,.28-.09.56-.15.84-.21.95-.41,2.19-1.27,2.8a3.67,3.67,0,0,1-.95.43l-2.29.82c.12.18.17.35.27.52a.3.3,0,0,1,0,.34,6.2,6.2,0,0,0-.45.78.12.12,0,0,1-.22,0,5.87,5.87,0,0,0-.39-.71.4.4,0,0,1,0-.39,2.58,2.58,0,0,0,.18-.54s-1.66-.5-2.11-.67a4.62,4.62,0,0,1-2.2-1.3,4.51,4.51,0,0,1-.6-1.23l-.49-1.32,3.67-.21c.5,0,1-.05,1.49-.06s.76,0,1.15,0c1.42-.06,2.81-.52,4.23-.46a.2.2,0,0,1,.13,0S24.43,54.7,24.37,54.71Z"/><path class="cls-3" d="M23.71,51.29a2.76,2.76,0,0,1-1.62.84,1.81,1.81,0,0,1-1.88-.61A3.66,3.66,0,0,1,22.79,51,2.31,2.31,0,0,1,23.71,51.29Z"/><path class="cls-7" d="M22.43,51.82a.63.63,0,0,0,.06-.45.59.59,0,0,0-.41-.41.55.55,0,0,0-.62.25.57.57,0,0,0,.09.67.36.36,0,0,0,.13.11h0l-.19-.19h0a.55.55,0,0,0,.46.26.53.53,0,0,0,.46-.26Z"/><g class="cls-11"><path class="cls-7" d="M26.49,47.24c0-1,.19-2,.19-2.95s-.12-2-.15-3c0-.08-.13-.11-.15,0a11.41,11.41,0,0,0-.14,2.64c0,1.11,0,2.21,0,3.32a.12.12,0,0,0,.24,0Z"/><path class="cls-7" d="M25.46,47.5c0-.69.18-1.37.22-2.07,0-.85,0-1.71,0-2.57,0-1.49.4-3.18,0-4.64a.11.11,0,0,0-.21,0,23.31,23.31,0,0,0-.21,4.29c0,1.66,0,3.33,0,5a.08.08,0,0,0,.17,0Z"/><path class="cls-7" d="M24.84,47.25a47,47,0,0,0-.51-11c0-.09-.15-.06-.16,0a48.83,48.83,0,0,0,.24,5.44c.06,1.84,0,3.67.23,5.5a.1.1,0,0,0,.2,0Z"/><path class="cls-7" d="M23.85,47.43a47.13,47.13,0,0,0-.51-11c0-.09-.15-.06-.16,0a49.09,49.09,0,0,0,.24,5.44c.06,1.84,0,3.67.23,5.51a.1.1,0,0,0,.2,0Z"/><path class="cls-7" d="M23.19,47.39a28.65,28.65,0,0,0-.35-5.87,15.36,15.36,0,0,0-1-4.82.08.08,0,0,0-.14,0c.11,1.7.44,3.43.63,5.13s.38,3.71.66,5.54c0,.09.15.06.16,0Z"/><path class="cls-7" d="M22.28,48.33a9.89,9.89,0,0,0,.1-2.7,24.39,24.39,0,0,0-.26-3.06c-.17-1.11-.42-2.2-.61-3.31-.13-.74,0-1.65-.54-2.25-.06-.06-.19,0-.18.07.21,1.64.43,3.25.74,4.88.21,1.09.33,2.19.44,3.29a17,17,0,0,1,.25,3.06s.06,0,.07,0Z"/><path class="cls-7" d="M21.72,48.39a14.45,14.45,0,0,0,0-2.69c-.11-.8-.3-1.58-.45-2.37a32.41,32.41,0,0,0-1.42-5.68c0-.08-.16-.08-.16,0a45,45,0,0,0,1.06,5.43c.18.89.4,1.77.58,2.66s.14,1.77.3,2.64c0,0,.06,0,.06,0Z"/><path class="cls-7" d="M20.73,48.58c.41-1.31-.15-2.91-.5-4.18-.47-1.73-1-3.44-1.5-5.17a.1.1,0,0,0-.19,0,3.25,3.25,0,0,0,.18,1.51q.31,1.2.66,2.39c.24.82.51,1.63.74,2.45a6.16,6.16,0,0,1,.46,3,.07.07,0,0,0,.14,0Z"/><path class="cls-7" d="M19.92,49.6a4,4,0,0,0,0-1.88,20.25,20.25,0,0,0-.74-3.11,44.54,44.54,0,0,0-2-5.62A.09.09,0,0,0,17,39a10,10,0,0,0,.59,2.34c.26.91.59,1.79.92,2.68s.59,1.8.83,2.72a9,9,0,0,1,.5,2.81c0,.06.08.06.09,0Z"/><path class="cls-7" d="M19.15,49.65a15.42,15.42,0,0,0-.92-4.53,29.83,29.83,0,0,0-1.74-4.94c-.05-.1-.18,0-.17.07.49,3.23,2.39,6.13,2.67,9.4,0,.1.17.11.16,0Z"/><path class="cls-7" d="M17.83,49.92a12.77,12.77,0,0,0-1-4.78c-.27-.76-.61-1.49-.89-2.25-.22-.59-.19-1.23-.62-1.72-.08-.09-.2,0-.19.11.49,3,2.06,5.64,2.54,8.65,0,.09.14.06.14,0Z"/><path class="cls-7" d="M16.61,50.64c.29-3-1.25-5.64-2.47-8.29,0-.08-.15,0-.14.06a19.3,19.3,0,0,0,1.47,4,24.49,24.49,0,0,1,1,4.27c0,.06.09,0,.1,0Z"/><path class="cls-7" d="M15.47,50.66c.31-1.23-.32-2.79-.71-3.94a15.29,15.29,0,0,0-1.86-4.3c-.05-.07-.2-.06-.19.05a16.23,16.23,0,0,0,1.3,3.7c.26.67.5,1.34.73,2a5.77,5.77,0,0,1,.55,2.44c0,.1.15.12.17,0Z"/><path class="cls-7" d="M14.46,50.85c.18-2.43-1.58-4.7-2.53-6.8,0-.08-.15,0-.14.06A9.14,9.14,0,0,0,13,47a12.36,12.36,0,0,1,1.34,3.84c0,.08.13.05.14,0Z"/></g><path class="cls-2" d="M27.79,45.37a3.78,3.78,0,0,1-2,2.29,2.74,2.74,0,0,1-1.27.38,2.81,2.81,0,0,1-1.21-.52A5.22,5.22,0,0,1,21.56,46a6.17,6.17,0,0,1,3.44.61A7,7,0,0,1,27.79,45.37Z"/><g class="cls-12"><path class="cls-7" d="M26.64,49.12A17.84,17.84,0,0,0,28,43.62a.08.08,0,0,0-.16,0c-.47,1.83-.78,3.67-1.36,5.48,0,.1.12.14.15,0Z"/><path class="cls-7" d="M25.91,49.21a15,15,0,0,0,1.46-6.11c0-.09-.14-.14-.18,0a13.27,13.27,0,0,0-.55,2.57,15.65,15.65,0,0,1-.87,3.51c0,.09.09.18.14.08Z"/><path class="cls-7" d="M25.12,49.62a28.12,28.12,0,0,0,.88-3,24.69,24.69,0,0,0,.73-3.07c0-.11-.15-.14-.2-.05-1.05,1.71-1.21,4.12-1.55,6.06a.08.08,0,0,0,.15,0Z"/><path class="cls-7" d="M24.78,49.83a34.26,34.26,0,0,0-.33-5.9c0-.1-.16-.06-.17,0a34.05,34.05,0,0,0,.32,5.88.09.09,0,0,0,.18,0Z"/><path class="cls-7" d="M24,49.72c0-1.23-.14-2.43-.22-3.65a5.58,5.58,0,0,0-.63-2.66.09.09,0,0,0-.17.07,24.31,24.31,0,0,1,.35,2.89c.1,1.13.35,2.23.48,3.36a.09.09,0,0,0,.19,0Z"/><path class="cls-7" d="M23.27,49a16.15,16.15,0,0,0-.5-3.15,13.08,13.08,0,0,0-.58-3.21.11.11,0,0,0-.19.05c0,2.15.92,4.19,1.06,6.31,0,.14.22.14.22,0Z"/><path class="cls-7" d="M22.39,48.42a16.16,16.16,0,0,0-.5-3.15,13.1,13.1,0,0,0-.58-3.21.11.11,0,0,0-.19.05c0,2.15.92,4.19,1.06,6.31a.11.11,0,0,0,.22,0Z"/></g><path class="cls-2" d="M19.53,54.13,18.85,51a14,14,0,0,1-.44-3.4.19.19,0,0,0-.24-.21c-2.33.48-4.38,1.84-6.59,2.71a.19.19,0,0,0-.07.3,7,7,0,0,1,1.85,3.79.19.19,0,0,0,.19.16l5.77-.19C19.49,54.13,19.64,54.25,19.53,54.13Z"/><g class="cls-13"><path class="cls-7" d="M19.24,54.9a51.28,51.28,0,0,0-1-5.37c-.26-1.3-.22-3.45-1.31-4.37a.12.12,0,0,0-.2.12c.11.67.44,1.31.61,2s.3,1.6.46,2.4.37,1.83.56,2.75.54,1.67.74,2.52c0,.06.11,0,.1,0Z"/><path class="cls-7" d="M18.48,55.25a20.25,20.25,0,0,0-.9-5.08c-.43-1.57-.39-3.58-1.31-5a.13.13,0,0,0-.24,0,3,3,0,0,0,.29,1.55c.3.92.39,1.91.61,2.84a43.93,43.93,0,0,1,1.36,5.63c0,.12.19.13.19,0Z"/><path class="cls-7" d="M17.62,55.48c-.43-1.74-.62-3.51-1.19-5.23-.3-.9-.55-1.82-.82-2.73a2.3,2.3,0,0,0-.78-1.39.1.1,0,0,0-.14.11c.53,1.47.83,3,1.33,4.49s.63,3.4,1.43,4.82a.1.1,0,0,0,.17-.07Z"/><path class="cls-7" d="M16.41,55.68a12.53,12.53,0,0,0-.85-4.78c-.3-.88-.61-1.75-.88-2.64a7.78,7.78,0,0,0-.92-2.3.13.13,0,0,0-.24.1,25.33,25.33,0,0,0,1.41,4.66,27.19,27.19,0,0,1,1.29,5c0,.12.19.08.2,0Z"/><path class="cls-7" d="M15.38,55.8A17.54,17.54,0,0,0,14,50.3c-.42-1.21-.3-3.42-1.47-4.18-.08-.05-.16,0-.15.11.14.68.41,1.33.55,2a16.33,16.33,0,0,0,.55,2.19,23.91,23.91,0,0,1,1.65,5.36c0,.19.3.19.29,0Z"/><path class="cls-7" d="M14.17,55.83a7.88,7.88,0,0,0-.72-4.35c-.32-.79-.66-1.56-1-2.35a7.48,7.48,0,0,0-1.06-2.29.12.12,0,0,0-.2.08c-.13,1.23.88,2.81,1.37,3.92.67,1.52,1.54,3.25,1.36,5,0,.13.21.16.23,0Z"/></g><path class="cls-4" d="M26.48,55.73A12.32,12.32,0,0,0,26,57.82c0,.08-.07.17-.14.14l0,0A29.73,29.73,0,0,1,23.59,55a.05.05,0,0,0-.09,0l-1.72,3s0,.06-.08.06a16.76,16.76,0,0,1-1.26-2.25,1.15,1.15,0,0,0-.5-.63.1.1,0,0,0-.12,0A27,27,0,0,0,17.68,58l-1.4-2.51c0-.06-.1-.14-.16-.11a.16.16,0,0,0-.06.05c-.71.84-1.36,1.87-2,2.74a0,0,0,0,1-.09,0,1.85,1.85,0,0,0-.29-.56c-.29-.47-.87-1.65-.93-1.73a.47.47,0,0,1-.07-.5c.13-.26.24-1.53.55-1.72a2,2,0,0,1,.75-.06c2.17.15,4.34-.27,6.52-.19.71,0,1.42.1,2.12.08A12.27,12.27,0,0,0,25.22,53a12.11,12.11,0,0,1,1.5,1.11C27.14,54.47,26.66,55.29,26.48,55.73Z"/><path class="cls-2" d="M26.21,59.78c0,.09-.11.19-.19.16a.18.18,0,0,1-.06-.05,6.47,6.47,0,0,1-.6-.75,1.28,1.28,0,0,1-.27-.62c0-.12.22-.28.37-.49a4,4,0,0,1,.32-.4c.12-.08.27,0,.39.1l.62.51c.05,0,.18.22.16.29C26.88,58.76,26.37,59.41,26.21,59.78Z"/><path class="cls-7" d="M26,59.26s-.05.09-.09.08l0,0a3.14,3.14,0,0,1-.29-.37.64.64,0,0,1-.13-.3c0-.06.11-.14.18-.24a1.7,1.7,0,0,1,.16-.2c.06,0,.13,0,.19,0l.3.25s.09.11.08.14S26.12,59.07,26,59.26Z"/><path class="cls-2" d="M22,60c0,.08-.11.19-.19.16a.15.15,0,0,1-.07-.05,6.16,6.16,0,0,1-.6-.75,1.29,1.29,0,0,1-.27-.62c0-.12.22-.28.37-.49a4.26,4.26,0,0,1,.32-.4c.12-.08.28,0,.39.1l.62.51c.05,0,.18.22.16.29C22.63,59,22.12,59.64,22,60Z"/><path class="cls-7" d="M21.79,59.48s-.05.09-.09.08l0,0a3.09,3.09,0,0,1-.29-.37.63.63,0,0,1-.13-.3c0-.06.11-.14.18-.24a1.73,1.73,0,0,1,.16-.2c.06,0,.13,0,.19,0l.3.25s.09.11.08.14S21.87,59.3,21.79,59.48Z"/><path class="cls-2" d="M18.06,59.87c0,.08-.11.19-.19.16A.19.19,0,0,1,17.8,60a6.57,6.57,0,0,1-.6-.75,1.29,1.29,0,0,1-.27-.62c0-.12.22-.28.37-.49a4,4,0,0,1,.32-.4c.12-.09.28,0,.39.1l.62.51c.05,0,.18.22.16.29C18.73,58.84,18.22,59.49,18.06,59.87Z"/><path class="cls-7" d="M17.89,59.34s-.05.09-.09.08l0,0a3.17,3.17,0,0,1-.29-.37.62.62,0,0,1-.13-.3c0-.06.11-.14.18-.24a1.83,1.83,0,0,1,.15-.2c.06,0,.13,0,.19,0l.3.25s.09.11.08.14S18,59.15,17.89,59.34Z"/><path class="cls-2" d="M14.3,59.94c0,.09-.11.19-.19.16A.19.19,0,0,1,14,60a6.69,6.69,0,0,1-.6-.75,1.29,1.29,0,0,1-.26-.62c0-.12.22-.28.37-.49a3.63,3.63,0,0,1,.32-.4c.12-.09.27,0,.39.1l.62.51c.05,0,.18.22.16.29C15,58.91,14.46,59.57,14.3,59.94Z"/><path class="cls-7" d="M14.13,59.41s-.05.09-.09.08l0,0a3.23,3.23,0,0,1-.29-.37.62.62,0,0,1-.13-.3c0-.06.11-.14.18-.24a1.78,1.78,0,0,1,.16-.19c.06,0,.13,0,.19,0l.3.25s.09.11.08.14S14.21,59.23,14.13,59.41Z"/><path class="cls-4" d="M21.18,50.58l.25-.11a1.14,1.14,0,0,0,.38-.39,1.05,1.05,0,0,0-1.44-1.44h0a1.06,1.06,0,0,0-.47.62,1,1,0,0,0,.1.79,1.17,1.17,0,0,0,.4.41l-.48-.62h0a1.08,1.08,0,0,0,.47.62,1,1,0,0,0,.79.1Z"/><path class="cls-7" d="M26.08,47.6c-.65.11-1.85.05-2.16.81a.63.63,0,0,0,.25.87A.72.72,0,0,0,25.1,49a.1.1,0,0,0-.08-.14c-.23,0-.49.12-.71,0s-.09-.52.08-.63A2.11,2.11,0,0,1,25,48a9.77,9.77,0,0,0,1.05-.35,0,0,0,0,0,0-.08Z"/><path class="cls-7" d="M20.12,52.78c.61.55,3.61,1,3.62-.28a.22.22,0,0,0-.16-.21c-.39-.13-.86.16-1.25.24a4.88,4.88,0,0,1-2,0,.18.18,0,0,0-.17.3Z"/><path class="cls-7" d="M25.89,57a3.14,3.14,0,0,0,0-1.25,7.71,7.71,0,0,1-.18-.93.45.45,0,0,0-.91,0,2,2,0,0,0,.28.94c.19.41.24.87.46,1.28a.19.19,0,0,0,.34,0Z"/><path class="cls-7" d="M21.95,57.12a2.24,2.24,0,0,0,.27-1,4.06,4.06,0,0,0,.13-1.18c-.09-.53-1-.41-.95.13a11.6,11.6,0,0,0,.17,2,.2.2,0,0,0,.37,0Z"/><path class="cls-7" d="M17.94,56.92a18.25,18.25,0,0,0,.53-1.85c.08-.7-1.16-.69-1.08,0a9.31,9.31,0,0,0,.09,1.85.24.24,0,0,0,.45,0Z"/><path class="cls-7" d="M14.11,57a2.06,2.06,0,0,0,.4-.74,9.45,9.45,0,0,0,.37-.93c.14-.6-.78-.86-.93-.26a8.7,8.7,0,0,0-.18.88c0,.27,0,.54,0,.81s.22.41.39.22Z"/><path class="cls-5" d="M25.38,53.48a2.56,2.56,0,0,0-.17-.29c-.08-.17-.34,0-.25.15s.12.14.16.22.33.1.27-.07Z"/><path class="cls-5" d="M24.86,53.74a.45.45,0,0,0,0-.45.23.23,0,0,0-.25-.1.23.23,0,0,0-.12.35,1,1,0,0,0,.19.23.12.12,0,0,0,.19,0Z"/><path class="cls-5" d="M24.29,53.88a.71.71,0,0,0,0-.25c0-.1-.06-.21-.16-.25a.18.18,0,0,0-.27.11.53.53,0,0,0,.31.51c.08,0,.15,0,.16-.12Z"/><path class="cls-5" d="M23.69,54c0-.17.06-.4-.1-.51a.17.17,0,0,0-.22,0,.28.28,0,0,0,0,.34.54.54,0,0,0,.2.21.1.1,0,0,0,.14-.06Z"/><path class="cls-5" d="M23,54.12c.1,0,.14-.14.16-.22a.32.32,0,0,0-.12-.37.19.19,0,0,0-.26.07.43.43,0,0,0,0,.35c0,.09.1.21.21.18Z"/><path class="cls-5" d="M22.4,54.19c.12-.05.14-.23.14-.34s-.14-.4-.33-.29-.13.27-.08.41.12.27.26.21Z"/><path class="cls-5" d="M21.78,54.21a.4.4,0,0,0,0-.63.19.19,0,0,0-.18,0c-.14.1-.13.24-.09.39s.12.29.24.24Z"/><path class="cls-5" d="M21.24,54.17a.5.5,0,0,0,0-.54.22.22,0,0,0-.41.17,1.15,1.15,0,0,0,.18.37.14.14,0,0,0,.2,0Z"/><path class="cls-5" d="M20.61,54.19c.1,0,.12-.18.12-.27a.42.42,0,0,0-.09-.34.21.21,0,0,0-.32,0,.49.49,0,0,0,0,.38c0,.12.16.24.29.18Z"/><path class="cls-5" d="M20,54.13a.42.42,0,0,0,.06-.58.16.16,0,0,0-.23,0,.32.32,0,0,0-.06.31,1,1,0,0,0,.12.26.08.08,0,0,0,.1,0Z"/><path class="cls-5" d="M19.54,54.05a.51.51,0,0,0,0-.45.19.19,0,0,0-.34,0,.71.71,0,0,0,.12.43c0,.1.18.05.21,0Z"/><path class="cls-5" d="M18.87,54.13A.29.29,0,0,0,19,53.9a.38.38,0,0,0-.14-.39.2.2,0,0,0-.29.12c-.05.13.09.59.3.5Z"/><path class="cls-5" d="M18.26,54.1a.46.46,0,0,0,0-.51.19.19,0,0,0-.35,0,.41.41,0,0,0,.21.5.11.11,0,0,0,.11,0Z"/><path class="cls-5" d="M17.6,54.12c.12-.11.12-.41,0-.49a.14.14,0,0,0-.19,0,.38.38,0,0,0,.15.45.07.07,0,0,0,.09,0Z"/><path class="cls-5" d="M17,54.19c.12-.13.16-.45,0-.55a.13.13,0,0,0-.13,0c-.11.08-.1.17-.08.3a.46.46,0,0,0,.13.25.07.07,0,0,0,.09,0Z"/><path class="cls-5" d="M16.48,54.21s0-.13,0-.18a.33.33,0,0,0-.08-.32.19.19,0,0,0-.26,0,.32.32,0,0,0-.06.35.35.35,0,0,0,.2.24.13.13,0,0,0,.16-.09Z"/><path class="cls-5" d="M15.84,54.27a1.3,1.3,0,0,0,.08-.21.35.35,0,0,0-.07-.33c-.08-.07-.24-.05-.26.07a.69.69,0,0,0,0,.26,1.39,1.39,0,0,0,.07.21.08.08,0,0,0,.16,0Z"/><path class="cls-5" d="M15.16,54.38c.18-.07.18-.31.16-.47a.2.2,0,0,0-.29-.12.2.2,0,0,0-.1.17.53.53,0,0,0,.06.31s.1.13.17.11Z"/><path class="cls-5" d="M14.59,54.28c.05-.14.18-.37,0-.49a.13.13,0,0,0-.16,0c-.19.09-.12.39,0,.53a.09.09,0,0,0,.16,0Z"/><path class="cls-5" d="M14,54.33c.11-.13.27-.4.09-.55a.15.15,0,0,0-.18,0,.42.42,0,0,0,0,.56.09.09,0,0,0,.14,0Z"/><path class="cls-5" d="M13.47,54.23a1,1,0,0,0,.16-.33.18.18,0,0,0-.34-.09.57.57,0,0,0,0,.4.08.08,0,0,0,.15,0Z"/><path class="cls-4" d="M25.53,54.89a.24.24,0,0,0-.45.13c.08.29.54.16.45-.12Z"/><path class="cls-4" d="M25.45,55.34a.2.2,0,0,0,0,.39.2.2,0,0,0,0-.39Z"/><path class="cls-4" d="M25.57,55.93a.14.14,0,0,0,0,.28.14.14,0,0,0,0-.28Z"/><path class="cls-4" d="M21.87,54.83a.26.26,0,0,0,0,.52.26.26,0,0,0,0-.52Z"/><path class="cls-4" d="M21.86,55.48a.18.18,0,0,0,0,.37.18.18,0,0,0,0-.37Z"/><path class="cls-4" d="M21.83,56a.12.12,0,0,0,0,.23.12.12,0,0,0,0-.23Z"/><path class="cls-4" d="M17.93,54.77a.26.26,0,0,0,0,.51.26.26,0,0,0,0-.51Z"/><path class="cls-4" d="M17.83,55.49a.16.16,0,0,0,0,.33.16.16,0,0,0,0-.33Z"/><path class="cls-4" d="M17.81,56a.09.09,0,0,0,0,.18.09.09,0,0,0,0-.18Z"/><path class="cls-4" d="M14.39,55a.21.21,0,0,0,0,.42.21.21,0,0,0,0-.42Z"/><path class="cls-4" d="M14.21,55.56a.15.15,0,0,0,0,.3.15.15,0,0,0,0-.3Z"/><path class="cls-4" d="M14.07,56.15h0c.12,0,.13-.2,0-.14h0c-.06,0,0,.11,0,.13Z"/><path class="cls-4" d="M27.14,42.18c.34,0,.58-.29.81-.51a4.57,4.57,0,0,0,.89-.95c.23-.4-.35-.88-.65-.5A11.09,11.09,0,0,0,27,41.92a.17.17,0,0,0,.15.25Z"/><path class="cls-4" d="M26.24,40.83a1.22,1.22,0,0,1,.26-.28,4.14,4.14,0,0,0,.36-.41c.21-.27.51-.66.37-1a.46.46,0,0,0-.88,0,8.74,8.74,0,0,1-.58,1.43c-.16.31.31.59.47.28Z"/><path class="cls-4" d="M22.73,39.29a1.14,1.14,0,0,0,.08-.88.35.35,0,0,0-.69.09,1.59,1.59,0,0,0,.31.79.18.18,0,0,0,.31,0Z"/><path class="cls-4" d="M18.92,41.38c.11-.46-.18-.84-.29-1.26s-.42-1.07-1-.94a.54.54,0,0,0-.37.66,1.16,1.16,0,0,0,.21.37c.08.12.13.26.21.38a4.44,4.44,0,0,0,.85.89.25.25,0,0,0,.41-.11Z"/><path class="cls-4" d="M16,42.76a1.79,1.79,0,0,0-.42-1.08,4.2,4.2,0,0,0-1-1.1.58.58,0,0,0-.79.21.59.59,0,0,0,.21.79c.33.23.62.52.92.78s.57.55.92.55a.2.2,0,0,0,.19-.15Z"/><path class="cls-7" d="M22.34,37.26a.32.32,0,1,0,.32.31.32.32,0,0,0-.32-.31Z"/><path class="cls-7" d="M27.14,38.06a.32.32,0,1,0,.32.32.33.33,0,0,0-.32-.32Z"/><path class="cls-7" d="M30.74,39.33a.32.32,0,1,0,.32.32.32.32,0,0,0-.32-.32Z"/><path class="cls-7" d="M17.46,38.32a.41.41,0,1,0,.41.41.41.41,0,0,0-.41-.41Z"/><path class="cls-7" d="M14,39.65a.4.4,0,0,0-.4.11.42.42,0,1,0,.4-.11Z"/><path class="cls-7" d="M12.41,40.7a.4.4,0,0,0-.4.11.42.42,0,1,0,.4-.11Z"/><path class="cls-4" d="M21.51,39.06a.17.17,0,0,0,.08-.08.17.17,0,0,0-.23-.23h0l.13,0h0a.18.18,0,1,0,0,.33Z"/><path class="cls-4" d="M20.77,39.09a.17.17,0,0,0,0,.33.17.17,0,0,0,0-.33Z"/><path class="cls-4" d="M20,39.17a.2.2,0,0,0,0,.4.2.2,0,0,0,0-.4Z"/><path class="cls-4" d="M19.36,39.13h0a.16.16,0,1,0,0,.3h0a.15.15,0,0,0,0-.28Z"/><path class="cls-4" d="M18.89,39.2v0a.19.19,0,0,0,0-.23h0a.18.18,0,0,0-.3.08.27.27,0,0,0,0,.14.18.18,0,0,0,.33,0Z"/><path class="cls-4" d="M16.86,39.6a.14.14,0,0,0,0,.29.14.14,0,0,0,0-.29Z"/><path class="cls-4" d="M16.51,40a.17.17,0,0,0,0,.33.17.17,0,0,0,0-.33Z"/><path class="cls-4" d="M15.81,40.41h0c-.13,0-.26.13-.14.24a.28.28,0,0,0,.1.06.16.16,0,1,0,0-.3Z"/><path class="cls-4" d="M15.16,40.36a.17.17,0,0,0,0,.34.17.17,0,0,0,0-.34Z"/><path class="cls-4" d="M13,41a.16.16,0,0,0,0,.32A.16.16,0,0,0,13,41Z"/><path class="cls-4" d="M23.08,38a.11.11,0,0,0,0,.21.11.11,0,0,0,0-.21Z"/><path class="cls-4" d="M23.74,38.21v0a.17.17,0,1,0,0,.25v0a.15.15,0,0,0,0-.21Z"/><path class="cls-4" d="M25.17,39a.16.16,0,0,0,0,.31.16.16,0,0,0,0-.31Z"/><path class="cls-4" d="M25.87,39a.19.19,0,0,0,0,.38.19.19,0,0,0,0-.38Z"/><path class="cls-4" d="M27.55,39.85a.16.16,0,0,0,0,.31.16.16,0,0,0,0-.31Z"/><path class="cls-4" d="M29.47,40.52h0l-.13.05h0a.2.2,0,1,0-.2-.2.22.22,0,0,0,.06.15.18.18,0,0,0,.25,0Z"/><path class="cls-5" d="M11.63,35.07A8,8,0,0,0,10.4,36c-.38.33-.36,1.11-.65,1.79,0,.11-.21.12-.33.14A4,4,0,0,1,6,36.4a5.49,5.49,0,0,1-1.12-3.46,4.12,4.12,0,0,1,.17-1.27c.14-.44,1.45-1.13,1.63-1.55a3.64,3.64,0,0,0,.12-2.94,8.58,8.58,0,0,1,2.92-.51.79.79,0,0,1,.32.06.67.67,0,0,1,.28.58c0,.65-.25,1.32,0,1.92s1.69.46,2.78,1.66a2.21,2.21,0,0,1,.33,2.41A4.27,4.27,0,0,1,11.63,35.07Z"/><path class="cls-7" d="M10.79,32.44a2.65,2.65,0,0,1,.1-1.27c.11-.47.14-.55.25-.52l.08,0,1.18.84a.61.61,0,0,1,.28.91l-.54,1.29a.37.37,0,0,1,0,.08.26.26,0,0,1-.33,0A4.73,4.73,0,0,1,10.79,32.44Z"/><path class="cls-7" d="M10,31.41a2.09,2.09,0,0,1,.49,1.32c0,.11-.39.85-.63,1.31a.23.23,0,0,1-.39,0c-.26-.37-.45-.95-.68-1.29a.23.23,0,0,1,0-.18c.15-.73.3-1.17.45-1.92h0a.22.22,0,0,1,.43,0A5.33,5.33,0,0,0,10,31.41Z"/><path class="cls-7" d="M8.1,31l.12,1.23a2.39,2.39,0,0,1,0,.34c0,.4-.7,1.13-1.06,1.44a.19.19,0,0,1-.3-.08c-.11-.34-.21-.74-.31-1.1A.8.8,0,0,1,6.71,32a14,14,0,0,0,1.12-1.39.12.12,0,0,1,.21,0A1.1,1.1,0,0,1,8.1,31Z"/><path class="cls-4" d="M11.86,32.65h0a.37.37,0,1,0-.37-.63.38.38,0,0,0-.18.32v0a.36.36,0,0,0,.54.31Z"/><path class="cls-4" d="M9.61,32.13a.36.36,0,1,0,.36.36.36.36,0,0,0-.36-.36Z"/><path class="cls-4" d="M7.37,32.08a.39.39,0,0,0,0,.78.39.39,0,0,0,0-.78Z"/><path class="cls-2" d="M11.69,34a.3.3,0,0,0,0,.6.3.3,0,0,0,0-.6Z"/><path class="cls-2" d="M9.71,34.27a.29.29,0,0,0,0,.59.29.29,0,0,0,0-.59Z"/><path class="cls-2" d="M7.1,34.12a.38.38,0,1,0,.38.38.38.38,0,0,0-.38-.38Z"/><path class="cls-2" d="M11,30.07a.26.26,0,0,0,0,.51.26.26,0,0,0,0-.51Z"/><path class="cls-2" d="M9.35,29.78a.28.28,0,0,0,0,.56.28.28,0,0,0,0-.56Z"/><path class="cls-2" d="M8,29.86a.32.32,0,0,0,0,.63.32.32,0,0,0,0-.63Z"/><path class="cls-2" d="M19.86,59.3a1.79,1.79,0,0,1-.19-.28c0-.06-.11-.17-.2-.11a.09.09,0,0,0,0,.08c0,.18.22.32.37.41a.06.06,0,0,0,.07-.09Z"/><path class="cls-2" d="M20.27,58.27a.45.45,0,0,0-.1-.4.06.06,0,0,0-.09,0A.46.46,0,0,0,20,58c0,.07,0,.16,0,.23a.1.1,0,0,0,.2,0Z"/><path class="cls-2" d="M19.26,57.89c0-.12-.09-.28-.22-.33a0,0,0,0,0-.06,0c0,.12.1.21.14.32a.07.07,0,0,0,.14,0Z"/><path class="cls-2" d="M20.14,57c-.08-.13-.15-.32-.3-.39s-.22,0-.18.14a.88.88,0,0,0,.37.36c.07,0,.15,0,.11-.11Z"/><path class="cls-2" d="M23,57.71c-.13,0-.26,0-.39.05a0,0,0,0,0,0,.07.61.61,0,0,0,.41,0s0-.1,0-.08Z"/><path class="cls-2" d="M23.2,56.73a.72.72,0,0,0,.24-.21c.05-.06.14-.2.06-.28s-.33.35-.37.42,0,.09.07.06Z"/><path class="cls-2" d="M16.56,57.76a.14.14,0,0,0,.12,0s0,0,0,0a.11.11,0,0,1-.12,0Z"/><path class="cls-2" d="M16.58,57.84l-.29-.07-.13,0a.15.15,0,0,0-.11,0,0,0,0,0,0,0,.05c.07.19.37.17.53.16a.07.07,0,0,0,0-.13Z"/><path class="cls-2" d="M15.54,58.08a1,1,0,0,0,0-.35c0-.1,0-.28-.17-.29s-.12.13-.09.21a1.81,1.81,0,0,1,.1.4c0,.09.15.13.17,0Z"/><path class="cls-2" d="M16.24,57a.73.73,0,0,0,0-.32c0-.11,0-.24-.15-.29a.11.11,0,0,0-.16.07.58.58,0,0,0,.06.3.62.62,0,0,0,.15.29.07.07,0,0,0,.11,0Z"/><path class="cls-2" d="M16.59,58.59c-.05,0-.09,0-.13,0a.05.05,0,0,0,0,.07.15.15,0,0,0,.13,0c.09,0,.09-.15,0-.14Z"/><path class="cls-14" d="M6.87,27.29c-.67-.22-1.33-.74-1.28-1a6,6,0,0,1,2.78-3.08,2.11,2.11,0,0,1,2.32.35c.81.48,6.22,3.32,9.08,4.79s5.7,3.11,7.54,4.16c1.29.74,3.92,1.59,5.16,2.15,2.32,1,2.92,1.4,2.8,1.63a16.51,16.51,0,0,1-2.17,2.79,1.53,1.53,0,0,1-.68.53,1.22,1.22,0,0,1-.86-.1c-4.29-2.15-8.48-4.79-12.88-7.21A65.9,65.9,0,0,0,6.87,27.29Z"/><path class="cls-7" d="M17.9,31.11a.18.18,0,0,1,0-.28,17.46,17.46,0,0,1,1.83-1.56.3.3,0,0,1,.36,0L21.8,30.5a.15.15,0,0,1,0,.26c-.55.36-1.11.95-1.63,1.26-.09.05-.2.14-.29.1A19.73,19.73,0,0,1,17.9,31.11Z"/><path class="cls-4" d="M19.95,31.22a.54.54,0,1,0-.54-.54.54.54,0,0,0,.54.54Z"/><path class="cls-4" d="M20,32.8a.24.24,0,0,0,0-.48.24.24,0,0,0,0,.48Z"/><path class="cls-4" d="M19.82,29a.16.16,0,0,0,0-.31.16.16,0,0,0,0,.31Z"/><path class="cls-4" d="M17.32,31.2a.2.2,0,1,0-.2-.2.2.2,0,0,0,.2.2Z"/><path class="cls-4" d="M22.14,30.54a.27.27,0,0,0,.06.26.25.25,0,0,0,.31,0,.23.23,0,0,0,.11-.2.23.23,0,0,0-.11-.2.38.38,0,0,0-.15,0l.11,0,0,0a.21.21,0,0,0-.35.09Z"/><path class="cls-7" d="M16.35,28.1c0,.13,0,.48.25.44s.06-.15,0-.2a1.6,1.6,0,0,1-.08-.3c0-.13-.22-.07-.2.05Z"/><path class="cls-7" d="M22.72,32.75c0,.13,0,.48.25.44S23,33,23,33a1.54,1.54,0,0,1-.08-.29c0-.13-.22-.07-.2.05Z"/><path class="cls-7" d="M32.19,35.22c0,.13,0,.48.25.44s.06-.15,0-.2a1.6,1.6,0,0,1-.08-.3c0-.13-.22-.07-.2.05Z"/><path class="cls-7" d="M9.52,23.8c0,.13,0,.48.25.44s.06-.15,0-.2a1.56,1.56,0,0,1-.08-.3c0-.13-.22-.07-.2.06Z"/><path class="cls-7" d="M29.1,35.51c-.08.1-.31.37-.15.48s.15-.06.17-.11a1.58,1.58,0,0,1,.16-.27c.08-.11-.1-.21-.18-.11Z"/><path class="cls-7" d="M14.92,26.52c0,.13,0,.48.25.44s.06-.15,0-.2a1.62,1.62,0,0,1-.08-.29c0-.13-.22-.07-.2.05Z"/><path class="cls-7" d="M11.1,26.82c0,.13,0,.48.25.44s.06-.15,0-.2a1.49,1.49,0,0,1-.08-.3c0-.13-.22-.07-.2.05Z"/><path class="cls-7" d="M28.71,34c0,.13,0,.48.25.44s.06-.15,0-.2a1.62,1.62,0,0,1-.08-.29c0-.13-.22-.07-.2.05Z"/><path class="cls-7" d="M9.27,26.45c0,.13,0,.48.25.44s.06-.15,0-.2a1.56,1.56,0,0,1-.08-.3c0-.13-.22-.07-.2.06Z"/><path class="cls-7" d="M6.42,25.56c0,.12-.2.44,0,.51s.12-.1.13-.16a1.59,1.59,0,0,1,.08-.3c0-.13-.15-.18-.2-.05Z"/><path class="cls-7" d="M15.42,29.4c0,.13,0,.48.25.44s.06-.15,0-.2a1.74,1.74,0,0,1-.08-.29c0-.13-.22-.07-.2.05Z"/><path class="cls-7" d="M13.89,29.15c0,.11,0,.4.2.37s0-.12,0-.17a1.34,1.34,0,0,1-.07-.24c0-.11-.18-.06-.16,0Z"/><path class="cls-7" d="M27.44,36.29c0,.11,0,.4.2.36s0-.12,0-.17a1.33,1.33,0,0,1-.07-.24c0-.11-.18-.06-.16,0Z"/><path class="cls-7" d="M26.21,35.31c-.09.06-.35.2-.25.33s.13,0,.17,0a1.24,1.24,0,0,1,.19-.16c.09-.06,0-.19-.11-.13Z"/><path class="cls-7" d="M24.11,33c0,.11,0,.4.21.37s0-.12,0-.17a1.43,1.43,0,0,1-.07-.24c0-.11-.18-.06-.17,0Z"/><path class="cls-7" d="M24.88,34.61c0,.11,0,.4.21.37s0-.12,0-.17a1.42,1.42,0,0,1-.07-.24c0-.11-.18-.06-.16,0Z"/><path class="cls-7" d="M30.34,34.64c0,.11,0,.4.2.37s0-.12,0-.17a1.4,1.4,0,0,1-.07-.25c0-.11-.18-.06-.16,0Z"/><path class="cls-7" d="M17.39,29.51c.11,0,.19.12.31.09a.06.06,0,0,0,0-.07c0-.13-.18-.18-.29-.22s-.17.15-.05.19Z"/><path class="cls-7" d="M21.32,31.92c.11,0,.19.12.31.09a.06.06,0,0,0,0-.07c0-.13-.18-.18-.29-.22s-.17.15-.05.2Z"/><path class="cls-7" d="M23.25,34.21c.11,0,.19.12.31.09a.06.06,0,0,0,0-.07c0-.13-.18-.18-.29-.22s-.17.15-.05.19Z"/><path class="cls-7" d="M21.47,33.22c.11,0,.19.11.31.09a.05.05,0,0,0,0-.07c0-.13-.18-.18-.29-.22s-.17.15-.05.2Z"/><path class="cls-7" d="M14.72,28c.11,0,.19.12.31.09a.06.06,0,0,0,0-.07c0-.13-.18-.18-.29-.22s-.17.15-.05.19Z"/><path class="cls-7" d="M27.24,34.76c.11,0,.19.12.31.09a.06.06,0,0,0,0-.07c0-.13-.18-.18-.29-.22s-.17.15-.05.19Z"/><path class="cls-7" d="M29.62,37.51c.11,0,.19.12.31.09a.06.06,0,0,0,0-.07c0-.13-.18-.18-.29-.22s-.17.15-.05.19Z"/><path class="cls-7" d="M10.57,25.34c.11,0,.19.11.31.09a.05.05,0,0,0,0-.07c0-.13-.18-.18-.29-.22s-.17.15-.05.2Z"/><path class="cls-7" d="M27,33.27c.11,0,.19.12.31.09a.06.06,0,0,0,0-.07c0-.13-.18-.18-.29-.22s-.17.15-.05.2Z"/><path class="cls-7" d="M30.72,36.19c.11,0,.19.11.31.09a.05.05,0,0,0,0-.07c0-.13-.18-.18-.29-.22s-.17.15-.05.2Z"/><path class="cls-7" d="M12.27,25.41c.11,0,.19.12.31.09a.06.06,0,0,0,0-.07c0-.13-.18-.18-.29-.22s-.17.15-.05.19Z"/><path class="cls-7" d="M8.37,24.79c.11,0,.19.12.31.09a.06.06,0,0,0,0-.07c0-.13-.18-.18-.29-.22s-.17.15-.05.19Z"/><path class="cls-7" d="M7.4,24.57c.11,0,.19.11.31.09a.05.05,0,0,0,0-.07c0-.13-.18-.18-.29-.22s-.17.15-.05.2Z"/><path class="cls-7" d="M13.09,26.66c.11,0,.19.12.31.09a.06.06,0,0,0,0-.07c0-.13-.18-.18-.29-.22s-.17.15-.05.19Z"/><path class="cls-7" d="M33.42,36.92c.11,0,.19.12.31.09a.05.05,0,0,0,0-.07c0-.13-.18-.18-.29-.22s-.17.15-.05.2Z"/><path class="cls-7" d="M25.85,33.77c.11,0,.19.12.31.09a.05.05,0,0,0,0-.07c0-.13-.18-.18-.29-.22s-.17.15-.05.2Z"/><path class="cls-7" d="M7.69,26.19c.11,0,.19.12.31.09a.06.06,0,0,0,0-.07c0-.13-.18-.18-.29-.22s-.17.15-.05.2Z"/><path class="cls-7" d="M18.32,28.46c.11,0,.19.11.31.09a.05.05,0,0,0,0-.07c0-.13-.18-.18-.29-.22s-.17.15-.05.2Z"/><path class="cls-7" d="M23.52,31.59c.11,0,.19.11.31.09a.05.05,0,0,0,0-.07c0-.13-.18-.18-.29-.22s-.17.15-.05.2Z"/><path class="cls-7" d="M25.52,32.44c.11,0,.19.12.31.09a.06.06,0,0,0,0-.07c0-.13-.18-.18-.29-.22s-.17.15-.05.19Z"/><path class="cls-7" d="M12.89,28.26c.11,0,.19.12.31.09a.05.05,0,0,0,0-.07c0-.13-.18-.18-.29-.22s-.17.15-.05.19Z"/><path class="cls-7" d="M8.47,27.38c.11,0,.19.12.31.09a.06.06,0,0,0,0-.07c0-.13-.18-.18-.29-.22s-.17.15-.05.19Z"/><path class="cls-7" d="M11.37,28.39c.11,0,.19.11.31.09a.05.05,0,0,0,0-.07c0-.13-.18-.18-.29-.22s-.17.15-.05.2Z"/><path class="cls-7" d="M31.59,37.84c.11,0,.19.11.31.09a.06.06,0,0,0,0-.07c0-.13-.18-.18-.29-.22s-.17.15-.05.2Z"/><path class="cls-15" d="M5.29,12.71a.24.24,0,0,0,.13,0,15,15,0,0,0,1.3-1.24.22.22,0,0,0,.08-.16.23.23,0,0,0-.08-.12c-.34-.34-.69-.65-1-1-.14-.15-.3-.33-.4-.34H5.26c-.1,0-.26.18-.4.34-.32.35-.67.67-1,1a.22.22,0,0,0-.08.12.21.21,0,0,0,.08.16,15,15,0,0,0,1.3,1.24.25.25,0,0,0,.13,0Z"/><path class="cls-15" d="M35.66,52.24a.25.25,0,0,0,.13,0A14.7,14.7,0,0,0,37.09,51a.2.2,0,0,0,.08-.16.22.22,0,0,0-.08-.12c-.34-.34-.69-.65-1-1-.14-.15-.3-.33-.4-.33h-.05c-.1,0-.26.18-.4.33-.32.36-.67.67-1,1a.22.22,0,0,0-.08.12.21.21,0,0,0,.08.16,14.58,14.58,0,0,0,1.3,1.24.24.24,0,0,0,.13,0Z"/><path class="cls-15" d="M7.87,8.74H7.08L5.36,5.57,4,7.21V8.74H3.32V3H4V6.33L6.65,3h.78L5.87,5Z"/><path class="cls-15" d="M33.06,53.54h.79l1.72,3.18,1.32-1.64V53.54h.72v5.75h-.72V56l-2.6,3.33h-.78l1.56-2Z"/><path class="cls-15" d="M12.25,59.11H6.19a3.1,3.1,0,0,1-3-3.19V15.66h.19V55.92a2.92,2.92,0,0,0,2.82,3h6.05Z"/><rect class="cls-15" x="27.62" y="58.93" width="5.16" height="0.19"/><path class="cls-15" d="M37.74,46.82h-.19V6.36a2.92,2.92,0,0,0-2.82-3H28.85V3.17h5.89a3.1,3.1,0,0,1,3,3.19Z"/><rect class="cls-15" x="8.45" y="3.17" width="4.8" height="0.19"/><path class="cls-2" d="M20.64,25.87a.36.36,0,0,0,.28.32A.1.1,0,0,0,21,26a1,1,0,0,0-.21-.28c-.08-.09-.2,0-.18.11Z"/><path class="cls-2" d="M23.1,27.37a.67.67,0,0,0,.43.09c.1,0,.11-.15.06-.21a.35.35,0,0,0-.49,0,.1.1,0,0,0,0,.16Z"/><path class="cls-2" d="M24.81,25.79a2.46,2.46,0,0,0,.69-.21.1.1,0,0,0,0-.18c-.27-.08-.51.15-.71.31a0,0,0,0,0,0,.08Z"/><path class="cls-2" d="M27,23.36a.77.77,0,0,0,.29.39c.07,0,.13,0,.1-.11a2,2,0,0,0-.26-.37.09.09,0,0,0-.14.08Z"/><path class="cls-2" d="M28,25.2c.1.15.16.32.32.41a.08.08,0,0,0,.12-.07.72.72,0,0,0-.22-.46c-.09-.12-.3,0-.21.13Z"/><path class="cls-2" d="M29.91,24.49a2.24,2.24,0,0,0,.32.14.09.09,0,0,0,.11-.11c0-.19-.18-.25-.34-.32s-.26.22-.08.29Z"/><path class="cls-2" d="M26.16,28.19a.42.42,0,0,0,.1.34.05.05,0,0,0,.09,0,1.94,1.94,0,0,1,0-.3c0-.12-.17-.12-.18,0Z"/><path class="cls-2" d="M24.32,29.54c0,.17,0,.3.21.36a.06.06,0,0,0,.08-.06c0-.1,0-.2,0-.3s-.27-.16-.25,0Z"/><path class="cls-2" d="M26.49,31a.57.57,0,0,1,.2.17c.06.06.15,0,.13-.08a.36.36,0,0,0-.22-.27c-.12-.06-.23.13-.11.18Z"/><path class="cls-2" d="M16.67,25.56a1.45,1.45,0,0,0,.09.28.11.11,0,0,0,.16,0l0,0a.15.15,0,0,0,0-.15.23.23,0,0,0-.26-.21.08.08,0,0,0-.08.1Z"/><path class="cls-2" d="M20.26,27.67a.35.35,0,0,0,.14.12.12.12,0,0,0,.12,0l.06,0a.08.08,0,0,0,0-.12s-.14-.09-.17-.13-.25,0-.16.16Z"/><path class="cls-2" d="M15.87,33a4,4,0,0,1,.4-.06c.1,0,.08-.15,0-.19a.57.57,0,0,0-.48.05c-.11.05,0,.22.08.19Z"/><path class="cls-2" d="M5.95,28.66h0a.14.14,0,0,0-.13.1.32.32,0,0,0,.19.41.09.09,0,0,0,.12-.09A.86.86,0,0,0,6,28.7a.08.08,0,0,0-.07,0Z"/><path class="cls-2" d="M34.77,33c.19.07.33.11.49,0a.09.09,0,0,0,0-.12c-.16-.14-.3-.09-.49,0a.09.09,0,0,0,0,.17Z"/><path class="cls-2" d="M35,34.74a.45.45,0,0,0,0,.3.1.1,0,0,0,.16,0l0-.05a.16.16,0,0,0,0-.19.34.34,0,0,0-.15-.16.09.09,0,0,0-.13.08Z"/><path class="cls-2" d="M29.26,33c.13,0,.23,0,.35,0a.06.06,0,0,0,0-.11.34.34,0,0,0-.41.05.06.06,0,0,0,0,.1Z"/><path class="cls-2" d="M14.25,31.16a.76.76,0,0,0,0,.5s.08.07.12,0a.56.56,0,0,0,.1-.53.1.1,0,0,0-.2,0Z"/><path class="cls-2" d="M14,35c.09,0,.16.09.26.12a.09.09,0,0,0,.11-.09c0-.19-.15-.28-.34-.27A.12.12,0,0,0,14,35Z"/><path class="cls-2" d="M16.61,35.39a.77.77,0,0,0,.34.38c.07,0,.17,0,.12-.12s-.2-.23-.29-.35a.1.1,0,0,0-.17.1Z"/><path class="cls-2" d="M14.5,37.22c.05.2,0,.45.22.58a.06.06,0,0,0,.08,0c.1-.2,0-.42-.1-.61s-.24-.08-.2.05Z"/><path class="cls-2" d="M12.06,37.05a1.66,1.66,0,0,1-.08.26.13.13,0,0,0,.16.15.32.32,0,0,0,.21-.41.14.14,0,0,0-.28,0Z"/><path class="cls-2" d="M12.75,39l.16.08s.11,0,.07-.07a.36.36,0,0,0-.15-.14c-.09-.06-.18.1-.08.14Z"/><path class="cls-2" d="M19.21,34.2c.13.07.21.2.36.22a.09.09,0,0,0,.11-.08c0-.26-.25-.32-.45-.27a.07.07,0,0,0,0,.13Z"/><path class="cls-2" d="M19.75,37.44a.67.67,0,0,0,.45-.19.07.07,0,0,0-.05-.12.71.71,0,0,0-.45.14c-.07,0-.05.19,0,.18Z"/><path class="cls-2" d="M22.86,35.71c0,.16.1.32.29.32a.09.09,0,0,0,.09-.07c0-.19-.1-.25-.24-.35a.09.09,0,0,0-.13.1Z"/><path class="cls-2" d="M25.2,37.65a1.14,1.14,0,0,0,.49-.09.09.09,0,0,0,0-.15.47.47,0,0,0-.55,0,.11.11,0,0,0,.06.21Z"/><path class="cls-2" d="M28.76,39a1.37,1.37,0,0,0,.36.25c.06,0,.11,0,.1-.1a.48.48,0,0,0-.35-.34c-.11,0-.2.12-.11.19Z"/><path class="cls-2" d="M11.17,35.93a.79.79,0,0,1,.24-.1,0,0,0,0,0,0-.07.33.33,0,0,0-.28.11s0,.09,0,.06Z"/></g></g></svg>