<svg xmlns="http://www.w3.org/2000/svg" xmlns:xlink="http://www.w3.org/1999/xlink" viewBox="0 0 40.93 62.29"><defs><style>.cls-1{fill:#d6002b;}.cls-2{fill:none;}.cls-3{fill:#fff;}.cls-4{fill:#990028;}.cls-5{fill:#222272;}.cls-6{fill:#f70032;}.cls-7{fill:#ffd6a1;}.cls-8{fill:#0c0a35;}.cls-9{clip-path:url(#clip-path);}.cls-10{clip-path:url(#clip-path-2);}.cls-11{clip-path:url(#clip-path-3);}.cls-12{clip-path:url(#clip-path-4);}.cls-13{clip-path:url(#clip-path-5);}.cls-14{fill:#fcc07e;}.cls-15{clip-path:url(#clip-path-6);}.cls-16{clip-path:url(#clip-path-7);}.cls-17{clip-path:url(#clip-path-8);}.cls-18{clip-path:url(#clip-path-9);}.cls-19{clip-path:url(#clip-path-10);}</style><clipPath id="clip-path"><path class="cls-1" d="M26.84,20.88c-.16,2.4-.71,4.75-2.73,6.05a13.51,13.51,0,0,1-4.76,1.45,9.83,9.83,0,0,1-1.57.16,10.33,10.33,0,0,1-2.26-.35.66.66,0,0,1-.3-.12.66.66,0,0,1-.09-.64,10.65,10.65,0,0,1,.35-1.25A10.24,10.24,0,0,0,16,21.55a7.74,7.74,0,0,1-.11-1c.08-.24.32,0,.57-.07,2.94-.35,6.09.56,9,.09a2.58,2.58,0,0,1,.79-.06C26.54,20.58,26.86,20.62,26.84,20.88Z"/></clipPath><clipPath id="clip-path-2"><path class="cls-2" d="M24.27,21.82a2.43,2.43,0,0,1-.86-2,3.68,3.68,0,0,1,.78-1.24,1.28,1.28,0,0,0,.24-1.37c-.2-.33-.62-.44-.93-.67a1.49,1.49,0,0,1-.5-1.67c.13-.34.37-.62.53-1a2.46,2.46,0,0,0-.12-2.17,4.79,4.79,0,0,0-1.53-1.62c.94,0,1.84,0,2.79.08a6.27,6.27,0,0,1,1.51.2,3.18,3.18,0,0,1,2,1.83c.21.51.28,1.07.47,1.59a9.37,9.37,0,0,0,.57,1.15c1.11,2.06,1.71,4.38,3,6.33.08.13.17.3.08.43a.36.36,0,0,1-.24.11,22.87,22.87,0,0,1-3.1,0c-1,0-2,.25-3.06.32C25.29,22.22,24.68,22.27,24.27,21.82Z"/></clipPath><clipPath id="clip-path-3"><path class="cls-1" d="M15.27,18.55a2.64,2.64,0,0,0,.29,1.94.86.86,0,0,0,.45.42.82.82,0,0,0,.53-.05A2.12,2.12,0,0,0,17.87,19a2.8,2.8,0,0,0,2.37,1.8c1,.18,2.1.06,3.14.23a4,4,0,0,0-.87-1.66,4.27,4.27,0,0,0-1.29-1.28,4.26,4.26,0,0,0-1.82-.37,12.4,12.4,0,0,0-3.43.13,1,1,0,0,0-.37.14A.94.94,0,0,0,15.27,18.55Z"/></clipPath><clipPath id="clip-path-4"><path class="cls-2" d="M16.35,21.86a3.41,3.41,0,0,0,2.31.73l1.48,0a5.12,5.12,0,0,0,1-.06,5.11,5.11,0,0,0,1.35-.53q1.25-.64,2.45-1.36a3.45,3.45,0,0,0,.65-.46,2.94,2.94,0,0,0,.73-1.56A16.08,16.08,0,0,0,26,12.55a2.69,2.69,0,0,0-.24-.82,2.23,2.23,0,0,0-1.45-.94,9.57,9.57,0,0,0-2.88-.22,14.54,14.54,0,0,0-4.66.89l.07,1.29a.76.76,0,0,1,0,.26.81.81,0,0,1-.29.35,10,10,0,0,0-2.25,3.24,3,3,0,0,0-.48,1.6,1,1,0,0,0,.84,0c.25-.11.5-.33.75-.23s.29.4.29.65c0,.56,0,1.13,0,1.69A2.54,2.54,0,0,0,16.35,21.86Z"/></clipPath><clipPath id="clip-path-5"><path class="cls-2" d="M6.85,14.63a2.49,2.49,0,0,0-2,2,4.59,4.59,0,0,0,.54,2.93.4.4,0,0,0,.09.13c.53-.62,3.44-3.12,4-4.08a2.11,2.11,0,0,0-.72-.56A3,3,0,0,0,6.85,14.63Z"/></clipPath><clipPath id="clip-path-6"><path class="cls-1" d="M13.83,41.33c.16-2.4.71-4.75,2.73-6.05a13.5,13.5,0,0,1,4.76-1.44,9.82,9.82,0,0,1,1.57-.16,10.32,10.32,0,0,1,2.26.35.68.68,0,0,1,.3.12.66.66,0,0,1,.09.64A10.46,10.46,0,0,1,25.19,36a10.22,10.22,0,0,0-.52,4.62,7.71,7.71,0,0,1,.11,1c-.08.24-.32,0-.57.07-2.94.35-6.09-.56-9-.09a2.58,2.58,0,0,1-.79.05C14.13,41.63,13.81,41.6,13.83,41.33Z"/></clipPath><clipPath id="clip-path-7"><path class="cls-2" d="M16.4,40.39a2.43,2.43,0,0,1,.86,2,3.67,3.67,0,0,1-.78,1.24A1.28,1.28,0,0,0,16.24,45c.21.33.62.44.93.67a1.49,1.49,0,0,1,.5,1.67c-.12.34-.37.62-.53,1a2.47,2.47,0,0,0,.12,2.17,4.78,4.78,0,0,0,1.53,1.62c-.94,0-1.84,0-2.78-.08a6.34,6.34,0,0,1-1.51-.2,3.18,3.18,0,0,1-2-1.83c-.21-.51-.28-1.07-.47-1.59a9.41,9.41,0,0,0-.57-1.15c-1.11-2.06-1.71-4.38-3-6.33-.08-.13-.17-.3-.08-.43a.37.37,0,0,1,.24-.11,23,23,0,0,1,3.1,0c1,0,2-.25,3.06-.32C15.38,40,16,39.94,16.4,40.39Z"/></clipPath><clipPath id="clip-path-8"><path class="cls-1" d="M25.4,43.67a2.64,2.64,0,0,0-.29-1.94.86.86,0,0,0-.45-.42.82.82,0,0,0-.53.05,2.12,2.12,0,0,0-1.33,1.88,2.8,2.8,0,0,0-2.37-1.8c-1-.18-2.1-.05-3.14-.23a4,4,0,0,0,.87,1.66,4.26,4.26,0,0,0,1.29,1.28,4.24,4.24,0,0,0,1.82.37,12.38,12.38,0,0,0,3.43-.13,1.08,1.08,0,0,0,.37-.14A1,1,0,0,0,25.4,43.67Z"/></clipPath><clipPath id="clip-path-9"><path class="cls-2" d="M24.32,40.35A3.41,3.41,0,0,0,22,39.63c-.49,0-1,0-1.48,0a5.12,5.12,0,0,0-1,.06,5.16,5.16,0,0,0-1.35.53q-1.25.64-2.45,1.36a3.43,3.43,0,0,0-.65.46,2.94,2.94,0,0,0-.73,1.56,16.09,16.09,0,0,0,.34,6.12,2.69,2.69,0,0,0,.24.82,2.22,2.22,0,0,0,1.45.94,9.5,9.5,0,0,0,2.88.22,14.5,14.5,0,0,0,4.66-.89l-.07-1.3a.76.76,0,0,1,0-.26.81.81,0,0,1,.29-.35,10,10,0,0,0,2.25-3.24,3,3,0,0,0,.48-1.6A1,1,0,0,0,26,44c-.25.11-.5.33-.75.23s-.29-.4-.29-.65c0-.56,0-1.13,0-1.69A2.54,2.54,0,0,0,24.32,40.35Z"/></clipPath><clipPath id="clip-path-10"><path class="cls-2" d="M33.82,47.58a2.49,2.49,0,0,0,2-2,4.6,4.6,0,0,0-.54-2.93.39.39,0,0,0-.09-.13c-.53.62-3.44,3.12-4,4.08a2.11,2.11,0,0,0,.72.56A3,3,0,0,0,33.82,47.58Z"/></clipPath></defs><title>Fichier 27</title><g id="Calque_2" data-name="Calque 2"><g id="Layer_1" data-name="Layer 1"><rect class="cls-3" x="0.09" y="0.09" width="40.74" height="62.1" rx="3.45" ry="3.45"/><path class="cls-3" d="M37.39,62.29H3.54A3.55,3.55,0,0,1,0,58.75V3.54A3.55,3.55,0,0,1,3.54,0H37.39a3.55,3.55,0,0,1,3.54,3.54v55.2A3.55,3.55,0,0,1,37.39,62.29ZM3.54.19A3.36,3.36,0,0,0,.19,3.54v55.2A3.36,3.36,0,0,0,3.54,62.1H37.39a3.36,3.36,0,0,0,3.36-3.36V3.54A3.36,3.36,0,0,0,37.39.19Z"/><path class="cls-4" d="M17.9,20.42a14.27,14.27,0,0,0-2.47.53,8.22,8.22,0,0,0-4,2.87,12.14,12.14,0,0,0-1.86,4,6.51,6.51,0,0,0-3.19,3.61c-1,4.36-.25,6.17,4.5,8.55,1.05.52,16.2,3.08,20.33-.15,2.64-2.06,3.66-3.16,3.75-6.53s1.45-6.94-.59-9.91A6.66,6.66,0,0,0,33,21.81C31.2,20.47,28.54,20.1,26.05,20A45,45,0,0,0,17.9,20.42Z"/><path class="cls-4" d="M22.76,41.79a14.13,14.13,0,0,0,2.47-.53,8.2,8.2,0,0,0,4-2.87,12.14,12.14,0,0,0,1.86-4,6.51,6.51,0,0,0,3.19-3.61c1-4.36.25-6.17-4.5-8.55-1-.52-13.48-3.58-20.83.84a6.06,6.06,0,0,0-3.15,5.46c-.09,3.36-1.55,7.31.5,10.29A6.69,6.69,0,0,0,7.7,40.4c1.77,1.35,4.42,1.72,6.91,1.81A45.12,45.12,0,0,0,22.76,41.79Z"/><path class="cls-5" d="M9.48,32.94c-1.48.85-2.92.55-4.4,1.4A6.53,6.53,0,0,0,5.46,39c1.27,2.05,4.68,2.33,5.69,2,2.17-.75,2.82-2.05,4.8-3.21,4.36-2.56,9.14-4.4,13.29-7.28,2.09-1.45,4.69-1.09,6.06-3.23.67-1-.08-2.85-1.13-4.27-.81-1.1-1.79-2.28-3.15-2.4A10.15,10.15,0,0,0,26,22c-1.19.77-2.24,1.75-3.38,2.59-2.77,2-6.07,3.24-8.81,5.31-.78.59-1.51,1.25-2.32,1.81C10.85,32.16,10.17,32.55,9.48,32.94Z"/><path class="cls-6" d="M14,36.36a3.85,3.85,0,0,0,1.63-2.59A4.5,4.5,0,0,0,14.78,31c-.32-.42-.68-.65-.68-1.36,0-.15.07-.26.08-.32.91-4.68.13-4.81-1.06-5.36a1.23,1.23,0,0,0-1.52.5C10.4,25.64,10,26.14,9.88,27c-.07.32,0,.69-.23.93a1.62,1.62,0,0,1-.56.33,4.2,4.2,0,0,0-.5.31,12.59,12.59,0,0,0-1.77,1.28,5.1,5.1,0,0,0-1.21,1,4.62,4.62,0,0,0-.92,2.79,3.18,3.18,0,0,0,1.64,2.75C7.72,37.08,11.56,38.21,14,36.36Z"/><path class="cls-6" d="M26.79,26a3.85,3.85,0,0,0-1.65,2.58A4.49,4.49,0,0,0,26,31.36c.32.42.67.65.67,1.37,0,.15-.07.26-.08.32-.95,4.68-.16,4.81,1,5.37a1.22,1.22,0,0,0,1.53-.49c1.19-1.18,1.55-1.68,1.73-2.49.07-.32,0-.69.24-.93a1.63,1.63,0,0,1,.57-.33,4.19,4.19,0,0,0,.51-.31,12.46,12.46,0,0,0,1.78-1.26,5.07,5.07,0,0,0,1.22-1,4.62,4.62,0,0,0,.94-2.78,3.18,3.18,0,0,0-1.62-2.76C33.06,25.33,29.23,24.17,26.79,26Z"/><path class="cls-7" d="M16.35,21.86a3.41,3.41,0,0,0,2.31.73l1.48,0a5.12,5.12,0,0,0,1-.06,5.11,5.11,0,0,0,1.35-.53q1.25-.64,2.45-1.36a3.45,3.45,0,0,0,.65-.46,2.94,2.94,0,0,0,.73-1.56A16.08,16.08,0,0,0,26,12.55a2.69,2.69,0,0,0-.24-.82,2.23,2.23,0,0,0-1.45-.94,9.57,9.57,0,0,0-2.88-.22,14.54,14.54,0,0,0-4.66.89l.07,1.29a.76.76,0,0,1,0,.26.81.81,0,0,1-.29.35,10,10,0,0,0-2.25,3.24,3,3,0,0,0-.48,1.6,1,1,0,0,0,.84,0c.25-.11.5-.33.75-.23s.29.4.29.65c0,.56,0,1.13,0,1.69A2.54,2.54,0,0,0,16.35,21.86Z"/><path class="cls-8" d="M17.69,13.92a3.51,3.51,0,0,1-.08-1.47.55.55,0,0,1,.07-.21.43.43,0,0,1,.32-.11,16.85,16.85,0,0,1,3.23-.19c2.05.28,1.92,1,1.94,1.27s-.14.08-.21.13l-.09,0-2.7.49-.94.16a10.35,10.35,0,0,1-1.27.24C17.92,14.25,17.76,14.27,17.69,13.92Z"/><path class="cls-3" d="M19.33,13a4.87,4.87,0,0,1,3.84.22.54.54,0,0,1-.17.35,3.89,3.89,0,0,1-5.19.66A2.85,2.85,0,0,1,19.33,13Z"/><path class="cls-8" d="M20.44,14.52a.88.88,0,0,0,.76-.47.82.82,0,0,0-.34-1,1,1,0,0,0-.54,0,.92.92,0,0,0-.76.51.79.79,0,0,0,.18.79A.91.91,0,0,0,20.44,14.52Z"/><path class="cls-1" d="M26.84,20.88c-.16,2.4-.71,4.75-2.73,6.05a13.51,13.51,0,0,1-4.76,1.45,9.83,9.83,0,0,1-1.57.16,10.33,10.33,0,0,1-2.26-.35.66.66,0,0,1-.3-.12.66.66,0,0,1-.09-.64,10.65,10.65,0,0,1,.35-1.25A10.24,10.24,0,0,0,16,21.55a7.74,7.74,0,0,1-.11-1c.08-.24.32,0,.57-.07,2.94-.35,6.09.56,9,.09a2.58,2.58,0,0,1,.79-.06C26.54,20.58,26.86,20.62,26.84,20.88Z"/><g class="cls-9"><path class="cls-8" d="M14.59,28.71a1.83,1.83,0,0,0,1.19-1.06,7.45,7.45,0,0,0,1-2.27c.15-.88.18-1.84.26-2.74s-.26-1.83-.09-2.77c0-.16-.18-.27-.27-.11a2.25,2.25,0,0,0-.13,1.38A10.32,10.32,0,0,1,16.47,24a6.87,6.87,0,0,1-.52,2.5c-.4.75-.66,1.61-1.44,2.06a.1.1,0,0,0,.08.18Z"/><path class="cls-8" d="M15.34,29.17a9,9,0,0,0,1.52-1.42,6.56,6.56,0,0,0,1-2.46,14.25,14.25,0,0,0-.09-5.58c0-.15-.23-.12-.27,0a3.1,3.1,0,0,0,.08,1.78,10,10,0,0,1-.12,3.35,7.12,7.12,0,0,1-1,2.67c-.36.58-1,.94-1.25,1.57,0,.08.07.12.12.07Z"/><path class="cls-8" d="M16.6,29.27a5.88,5.88,0,0,0,2.46-4,14,14,0,0,0,.38-2.73c0-1.1-.46-2.08-.31-3.18a.16.16,0,0,0-.3-.13,2,2,0,0,0-.1,1.55,8.92,8.92,0,0,1,.09,3.44,9.28,9.28,0,0,1-2.29,5s0,.1.06.08Z"/><path class="cls-8" d="M17.65,29.61a6.09,6.09,0,0,0,2.5-4.3,12.7,12.7,0,0,0,0-5.54.11.11,0,0,0-.21,0A7.31,7.31,0,0,0,20,21.89a14.58,14.58,0,0,1-.2,3,8.19,8.19,0,0,1-.63,2.44c-.4.83-1.16,1.4-1.62,2.18a.07.07,0,0,0,.09.1Z"/><path class="cls-8" d="M19,29.47c1.5-.83,2-2.36,2.35-3.92A12.18,12.18,0,0,0,21.68,23c0-1-.23-1.89-.28-2.84a.23.23,0,0,0-.44-.06,4.39,4.39,0,0,0,.11,1.87,11.45,11.45,0,0,1-.08,2.8,18,18,0,0,1-.5,2.32c-.29,1-1.06,1.49-1.56,2.33a.07.07,0,0,0,.1.09Z"/><path class="cls-8" d="M20.32,29.46c1.34-.51,1.86-2.3,2.16-3.56a19,19,0,0,0,.38-2.67,10.12,10.12,0,0,0-.05-3.57.1.1,0,0,0-.2,0A9.81,9.81,0,0,0,22.43,22a30.27,30.27,0,0,1-.26,3.2,7.52,7.52,0,0,1-1.9,4.12s0,.11.05.09Z"/><path class="cls-8" d="M21.76,29.15a4.53,4.53,0,0,0,2-3.61,24.06,24.06,0,0,0,.36-6.35c0-.11-.18-.12-.23,0a3.06,3.06,0,0,0-.17,1.64,26.94,26.94,0,0,1-.2,3.06c-.23,2-.36,3.73-1.84,5.24a0,0,0,0,0,0,.05Z"/><path class="cls-8" d="M23.66,28.34a6.74,6.74,0,0,0,1.69-3.75,9,9,0,0,0,.08-2.09,5.5,5.5,0,0,0-.3-2.13c-.07-.14-.24-.05-.26.07-.16,1.26.1,2.5,0,3.76a9.17,9.17,0,0,1-.5,2.2,7.47,7.47,0,0,1-.73,1.93s0,0,0,0Z"/><path class="cls-8" d="M25.68,26.56a6.12,6.12,0,0,0,.91-3.08,6.71,6.71,0,0,0-.27-3.34.11.11,0,0,0-.21,0,13.7,13.7,0,0,0,0,3c0,1.17-.43,2.27-.47,3.43a0,0,0,0,0,.07,0Z"/></g><path class="cls-1" d="M24.27,21.82a2.43,2.43,0,0,1-.86-2,3.68,3.68,0,0,1,.78-1.24,1.28,1.28,0,0,0,.24-1.37c-.2-.33-.62-.44-.93-.67a1.49,1.49,0,0,1-.5-1.67c.13-.34.37-.62.53-1a2.46,2.46,0,0,0-.12-2.17,4.79,4.79,0,0,0-1.53-1.62c.94,0,1.84,0,2.79.08a6.27,6.27,0,0,1,1.51.2,3.18,3.18,0,0,1,2,1.83c.21.51.28,1.07.47,1.59a9.37,9.37,0,0,0,.57,1.15c1.11,2.06,1.71,4.38,3,6.33.08.13.17.3.08.43a.36.36,0,0,1-.24.11,22.87,22.87,0,0,1-3.1,0c-1,0-2,.25-3.06.32C25.29,22.22,24.68,22.27,24.27,21.82Z"/><path class="cls-6" d="M26.75,9.17a22.75,22.75,0,0,0-.19-4.46c-.12-.92-.38-1.85-.44-2.5-.11-1.08-.83-.87-.86-.54a42.9,42.9,0,0,1-.54,5.6.51.51,0,0,1-.93.07,15.23,15.23,0,0,1-.43-2.73c-.22-1.79-.39-2.83-.72-3.23-.15-.18-.47-.2-.55,0-.74,2.09.21,5.83-1,6.27a.42.42,0,0,1-.54-.32c-.42-1.92.1-4.08-.83-5.83-.06-.11-.14-.23-.26-.25s-.32.17-.39.34c-.8,1.92.13,5.55-.62,6.21-.28.25-.5.1-.54-.27-.31-3.27-.6-5.46-1.27-5.73-.37-.15-.54,1-.52,1.44.07,2.33.2,4.66.33,7,0,0,0-.09,0,0s.09,0,.14,0l9.58-.68a.8.8,0,0,0,.34-.11A.46.46,0,0,0,26.75,9.17Z"/><path class="cls-8" d="M16.42,11.46c.33.41,8.58-.45,10.35-.54a.45.45,0,0,0,.39-.27,1.63,1.63,0,0,0,0-1.06.43.43,0,0,0-.1-.21.47.47,0,0,0-.37-.08L19,9.77l-2.19.14a1,1,0,0,0-.47.14c-.37.22-.3.52-.23.79A1.63,1.63,0,0,0,16.42,11.46Z"/><path class="cls-8" d="M16.58,1.87a.3.3,0,1,0-.3-.3.3.3,0,0,0,.3.3Z"/><path class="cls-8" d="M19.44,1.47a.3.3,0,0,0,0-.6.3.3,0,0,0,0,.6Z"/><path class="cls-8" d="M22.35,1.35A.31.31,0,1,0,22,1a.32.32,0,0,0,.31.31Z"/><path class="cls-8" d="M25.61,1.59a.32.32,0,1,0-.32-.32.32.32,0,0,0,.32.32Z"/><path class="cls-8" d="M17,7.14A8.76,8.76,0,0,0,17,9.5a.21.21,0,0,0,.42,0,14.83,14.83,0,0,0-.33-2.33c0-.1-.16-.14-.18,0Z"/><path class="cls-8" d="M19.55,7a4.46,4.46,0,0,0-.13,1.31c0,.34,0,.84.28,1.09A.2.2,0,0,0,20,9.34a3.45,3.45,0,0,0-.1-1.15A6.76,6.76,0,0,0,19.77,7a.11.11,0,0,0-.21,0Z"/><path class="cls-8" d="M22.5,6.88c.09.7.11,1.41.15,2.12a.26.26,0,0,0,.51,0,8,8,0,0,0-.36-2.16c0-.16-.33-.13-.3,0Z"/><path class="cls-8" d="M25.77,6.84a2.93,2.93,0,0,0-.27,1.83.29.29,0,0,0,.59,0c0-.28,0-.56,0-.84s0-.61,0-.92a.15.15,0,0,0-.28-.08Z"/><g class="cls-10"><path class="cls-8" d="M23.78,10.73a4.31,4.31,0,0,1,.61,1.52A5.32,5.32,0,0,1,24,14.73c-.18.92.81,1.39,1.36,1.93,1.26,1.22-1.16,2.88-1.3,4.13a3.21,3.21,0,0,0,1.53,2.59c.07,0,.17,0,.12-.12a7.88,7.88,0,0,1-1.2-1.67c-.45-1.09.38-1.73.94-2.51s1-1.79.32-2.53c-.34-.39-.79-.65-1.16-1-.65-.62.15-1.66.17-2.34a2.81,2.81,0,0,0-1-2.5,0,0,0,0,0,0,0Z"/><path class="cls-8" d="M24.9,10.84c1.4.9.24,2.16.39,3.35a1.49,1.49,0,0,0,.48.71,4.56,4.56,0,0,1,1.35,1.77c.51,1.62-1.2,2.47-1.69,3.8a1.9,1.9,0,0,0,.83,2.38.13.13,0,0,0,.17-.17c-.14-.22-.3-.43-.46-.64-.5-.67-.16-1.33.21-2s.89-1,1.21-1.64a2.81,2.81,0,0,0-.38-3c-.44-.5-1.41-1-1.26-1.81a8,8,0,0,0,.3-1.41c0-.68-.31-1.57-1.12-1.53a.06.06,0,0,0,0,.12Z"/><path class="cls-8" d="M26.06,10.57a4.12,4.12,0,0,1,.73,1.26c.2.49-.2,1.45-.13,2a1.51,1.51,0,0,0,.62,1,3.82,3.82,0,0,1,1.45,1.77c.78,2.47-3.26,4.78-.46,6.88.15.11.37-.11.26-.26-.65-.92-1-1.55-.54-2.7.25-.57.64-1.07.85-1.66a3.44,3.44,0,0,0-.23-3.35,8.23,8.23,0,0,0-1.25-1.15c-.74-.69,0-1.61-.13-2.38-.09-.42-.58-1.58-1.17-1.47,0,0,0,.05,0,.07Z"/><path class="cls-8" d="M28.42,10.62c-.84.17-.75,1.47-.73,2.12,0,1.39,1.21,1.81,2.07,2.7.51.52.33,1.25.28,1.9a10.29,10.29,0,0,1-.92,2.93c-.44,1.15-.15,3,1.33,3.19.12,0,.14-.13.08-.2-.69-.87-1.26-1.31-1-2.54.15-.72.57-1.4.78-2.11a5.39,5.39,0,0,0,.17-3c-.29-.77-1.24-1.23-1.85-1.7a1.84,1.84,0,0,1-.57-1.58c0-.34-.08-1.53.37-1.68a0,0,0,0,0,0-.06Z"/><path class="cls-8" d="M32.19,18.25c-1.21-.84-2.86,3.85-1.05,4.92.07,0,.17,0,.12-.11a3.28,3.28,0,0,1-.44-2.76c.16-.69.63-1.68,1.36-1.88a.09.09,0,0,0,0-.16Z"/><path class="cls-8" d="M32.73,19.34c-.57-.11-1,.58-1.23,1a2.31,2.31,0,0,0,.41,2.36A.07.07,0,0,0,32,22.7a6.31,6.31,0,0,1-.26-1.84,2.63,2.63,0,0,1,1-1.42.06.06,0,0,0,0-.1Z"/></g><path class="cls-1" d="M15.27,18.55a2.64,2.64,0,0,0,.29,1.94.86.86,0,0,0,.45.42.82.82,0,0,0,.53-.05A2.12,2.12,0,0,0,17.87,19a2.8,2.8,0,0,0,2.37,1.8c1,.18,2.1.06,3.14.23a4,4,0,0,0-.87-1.66,4.27,4.27,0,0,0-1.29-1.28,4.26,4.26,0,0,0-1.82-.37,12.4,12.4,0,0,0-3.43.13,1,1,0,0,0-.37.14A.94.94,0,0,0,15.27,18.55Z"/><g class="cls-11"><path class="cls-8" d="M17.26,17.2a4.23,4.23,0,0,0,0,.94,2.92,2.92,0,0,1-1,2.13,2.65,2.65,0,0,0-.9,2.11.1.1,0,0,0,.18,0c.37-.51.44-1.12.86-1.61.27-.31.55-.59.79-.92a2.81,2.81,0,0,0,.13-2.69s-.07,0-.07,0Z"/><path class="cls-8" d="M16.59,17.23a7.5,7.5,0,0,0-.06.93,2.68,2.68,0,0,1-.92,1.59,2.21,2.21,0,0,0-.72,1.76.1.1,0,0,0,.19,0,9.44,9.44,0,0,1,1.32-2c.61-.81.43-1.31.3-2.25,0-.06-.11-.09-.12,0Z"/><path class="cls-8" d="M16.18,17.34c-.11.28-.18.56-.27.85a1.74,1.74,0,0,1-.74.89,1.68,1.68,0,0,0-.74.88.07.07,0,0,0,.11.07c.39-.38.88-.61,1.27-1s.36-1.1.44-1.67a0,0,0,0,0-.07,0Z"/><path class="cls-8" d="M17.91,17.2c-.28,1,.62,1.91,1.16,2.63s1.7,1.8,2.7,1.64c.09,0,.09-.15,0-.19a9.18,9.18,0,0,1-2.38-1.72A6.11,6.11,0,0,1,18,17.2a0,0,0,0,0-.06,0Z"/><path class="cls-8" d="M18.59,17.09c-.37.58.72,1.58,1,2a4.65,4.65,0,0,0,1.15,1.22,14.72,14.72,0,0,1,1.27.86c.31.25.51.61.82.87a.1.1,0,0,0,.16-.09c-.3-1-1.2-1.46-2-2a6.86,6.86,0,0,1-1.44-1.58c-.3-.38-.76-.74-.86-1.23a0,0,0,0,0-.06,0Z"/><path class="cls-8" d="M19.7,17.12c-.24.88.64,1.58,1.23,2.09a16.13,16.13,0,0,1,1.36,1.32,7.55,7.55,0,0,1,1.16,1.82.1.1,0,0,0,.18,0c.25-1.11-.52-1.66-1.21-2.41s-2.3-1.56-2.59-2.8a.07.07,0,0,0-.13,0Z"/></g><g class="cls-12"><path class="cls-8" d="M14.58,18.54a3.93,3.93,0,0,1,2-.76,1.64,1.64,0,0,0,1.14-.46c.49-.53-.06-1.2-.64-1.31-.16,0-.22.2-.07.24.33.08.67.21.68.61s-.54.61-.87.69a6.18,6.18,0,0,0-1.31.26,2.23,2.23,0,0,0-1,.7,0,0,0,0,0,0,0Z"/></g><path class="cls-8" d="M16.92,6.56a.17.17,0,0,0,0-.33.17.17,0,0,0,0,.33Z"/><path class="cls-8" d="M16.81,6h0a.16.16,0,0,0,0-.31h0c-.21,0-.21.35,0,.32Z"/><path class="cls-8" d="M16.75,5.36a.15.15,0,0,0,0-.3.15.15,0,0,0,0,.3Z"/><path class="cls-8" d="M19.66,6.49a.21.21,0,0,0,0-.41.21.21,0,0,0,0,.41Z"/><path class="cls-8" d="M19.66,5.75h0l-.14,0h0a.2.2,0,1,0-.09-.34.21.21,0,0,0,0,.31.16.16,0,0,0,.22,0Z"/><path class="cls-8" d="M19.55,5.14a.2.2,0,0,0,0-.39.2.2,0,0,0,0,.39Z"/><path class="cls-8" d="M22.65,6.23h0a.28.28,0,0,0,.19-.33.27.27,0,0,0-.33-.19h0a.27.27,0,1,0,.14.52Z"/><path class="cls-8" d="M22.71,5.41v0a.21.21,0,0,0-.33-.25l0,0c-.23.21.18.53.33.26Z"/><path class="cls-8" d="M22.66,4.71v0c.09-.26-.41-.26-.31,0v0a.15.15,0,0,0,.3,0Z"/><path class="cls-8" d="M25.79,6.3a.28.28,0,0,0,0-.56.28.28,0,0,0,0,.56Z"/><path class="cls-8" d="M25.79,5.49a.22.22,0,0,0,0-.44.22.22,0,0,0,0,.44Z"/><path class="cls-8" d="M25.75,4.88h0a.17.17,0,1,0,0-.33h0a.16.16,0,0,0,0,.31Z"/><path class="cls-8" d="M10.64,31.31h-.09l-.09,0a.23.23,0,0,0,.18.06l-.1,0h0a.18.18,0,0,0,.25-.22h0a.21.21,0,0,0-.22-.19.23.23,0,0,0-.21.21c0,.13.14.29.27.18Z"/><path class="cls-8" d="M10.52,32.2h0a.27.27,0,0,0,0-.53h0c-.34,0-.3.58,0,.53Z"/><path class="cls-8" d="M10.37,33.16a.22.22,0,0,0,.19,0c.11-.08.13-.3,0-.35h0a.22.22,0,0,0-.25,0,.21.21,0,0,0,0,.3.17.17,0,0,0,.08,0Z"/><path class="cls-8" d="M10.26,34h0a.18.18,0,0,0,.07-.36h0a.18.18,0,0,0-.07.36Z"/><path class="cls-8" d="M10.18,34.69a.13.13,0,0,0,.05-.26.13.13,0,0,0-.05.26Z"/><path class="cls-8" d="M12.13,35.22l0,0A.1.1,0,0,0,12,35l0,0c-.12.06,0,.26.12.17Z"/><path class="cls-8" d="M12.35,34.67a.28.28,0,0,0,.14.07c.23.06.31-.33.07-.36a.28.28,0,0,0-.16,0,.16.16,0,0,0-.05.27Z"/><path class="cls-8" d="M12.87,34.1a.23.23,0,0,0,.09-.44.23.23,0,0,0-.09.44Z"/><path class="cls-8" d="M13.1,33.2a.22.22,0,0,0,.08-.42.22.22,0,0,0-.08.42Z"/><path class="cls-8" d="M13.25,32.45a.2.2,0,0,0,.08-.4.2.2,0,0,0-.08.4Z"/><path class="cls-4" d="M12,36.75c-.34,0-.44-.42,0-1.62a5.31,5.31,0,0,0,.28-2.92c-.17-.71-.4-1.86.18-1.85s1,1,1.1,2A7.18,7.18,0,0,1,13.22,35C13,35.75,12.37,36.8,12,36.75Z"/><path class="cls-4" d="M9.62,36.44c-.41,0-.75-.17-.58-1.71s.73-4.56,1.34-4.73.75.17.75.72S10.38,36.41,9.62,36.44Z"/><path class="cls-8" d="M12.59,35.14a.37.37,0,0,0-.17,0,.2.2,0,0,0-.07.37.36.36,0,0,0,.17,0,.19.19,0,0,0,.07-.36Z"/><path class="cls-8" d="M12.64,34.6a.29.29,0,1,0-.23-.34.29.29,0,0,0,.23.34Z"/><path class="cls-8" d="M13,33l0,0a.28.28,0,1,0-.1.53h0A.27.27,0,0,0,13,33Z"/><path class="cls-8" d="M13.06,31.93a.31.31,0,0,0-.41,0,.24.24,0,0,0-.06.33.32.32,0,0,0,.39.12.24.24,0,0,0,.08-.4Z"/><path class="cls-8" d="M12.75,30.91l-.12,0a.19.19,0,0,0-.07.38h.12a.19.19,0,0,0,.07-.35Z"/><path class="cls-8" d="M10.36,30.46h0a.22.22,0,0,0,0,.37h0a.23.23,0,1,0,0-.39Z"/><path class="cls-8" d="M10.25,31.3h0a.24.24,0,0,0-.06.32v0c.11.2.42.1.45-.09s-.21-.4-.38-.25Z"/><path class="cls-8" d="M10.09,32.22l-.12.06a.3.3,0,0,0-.12.35.3.3,0,0,0,.3.2h.06a.32.32,0,0,0,.28-.33.31.31,0,0,0-.41-.27Z"/><path class="cls-8" d="M10,33.82a.31.31,0,0,0,.12-.6.31.31,0,0,0-.12.6Z"/><path class="cls-8" d="M9.81,34.76a.23.23,0,0,0,.09-.46.23.23,0,0,0-.09.46Z"/><path class="cls-8" d="M9.68,35.45a.19.19,0,0,0,.07-.38.19.19,0,0,0-.07.38Z"/><path class="cls-8" d="M12.19,36.08a.16.16,0,0,0,.06-.32.16.16,0,0,0-.06.32Z"/><path class="cls-4" d="M6.48,35.74c.34,0,.57-.23.63-1.5a5.32,5.32,0,0,1,.83-2.81c.43-.6,1.07-1.58.53-1.78s-1.31.55-1.77,1.43A7.59,7.59,0,0,0,6,33.64C5.9,34.48,6.1,35.71,6.48,35.74Z"/><path class="cls-8" d="M6.55,34a.35.35,0,0,1,.17,0,.2.2,0,0,1-.07.37.36.36,0,0,1-.17,0A.19.19,0,0,1,6.55,34Z"/><path class="cls-8" d="M6.7,33.5A.29.29,0,1,1,7,33.27a.29.29,0,0,1-.34.23Z"/><path class="cls-8" d="M7,31.84H7a.28.28,0,1,1-.11.53l0,0a.27.27,0,0,1,.1-.51Z"/><path class="cls-8" d="M7.31,30.87a.31.31,0,0,1,.39.12.24.24,0,0,1-.06.33.32.32,0,0,1-.41,0,.24.24,0,0,1,.08-.4Z"/><path class="cls-8" d="M8,30H8.1a.19.19,0,0,1-.07.38.27.27,0,0,1-.12,0A.19.19,0,0,1,8,30Z"/><path class="cls-8" d="M6.57,35a.16.16,0,0,1,.06-.32.16.16,0,0,1-.06.32Z"/><path class="cls-8" d="M24.14,27.77c-.6-.5-1.47.27-1.82.76a.7.7,0,0,0,.09,1,1.2,1.2,0,0,0,1.17-.14,4,4,0,0,0,1.1-.89c.29-.36.41-1-.12-1.18a1.48,1.48,0,0,0-1.46.47c-.37.3-.87.79-.87,1.31a.47.47,0,0,0,.88.21,2.32,2.32,0,0,1,1.12-1.11s-.13,0,0,0c-.17,0-.2-.41-.22-.34,0-.11,0,0,0,0l-.11.12a3.67,3.67,0,0,1-.64.52c-.21.14-.24.18-.46.18.12,0,.2.1.25.21s0,.17,0,.08a.59.59,0,0,1,.1-.22,2.85,2.85,0,0,1,.45-.54c.06-.06.37-.41.47-.37s.22-.09.12-.17Z"/><path class="cls-8" d="M18.09,32c-.4-.12-1,.25-1.29.47A1.69,1.69,0,0,0,16,33.69a.48.48,0,0,0,.33.48,2.59,2.59,0,0,0,2.58-1.73.5.5,0,0,0-.32-.62,1.67,1.67,0,0,0-1.45.42c-.38.29-.93.79-.92,1.32,0,.33.38.67.72.45L17,34a.44.44,0,0,0,.12-.68l0,0,.11.48a1.72,1.72,0,0,1,.5-.64c.14-.12.49-.36.61-.32l-.32-.62a1.74,1.74,0,0,1-.59.73c-.15.13-.54.44-.75.4l.33.48c0-.69,1.08-.89,1.32-1.45a.22.22,0,0,0-.14-.28Z"/><path class="cls-8" d="M20,29.58a1.54,1.54,0,0,0-.66.73,1.69,1.69,0,0,0,0,1.28,1.39,1.39,0,0,0,1.85.72,1.87,1.87,0,0,0,1-1.5,1.49,1.49,0,0,0-1-1.57,1.54,1.54,0,0,0-2.07,2.11A1.45,1.45,0,0,0,22,30.92a1.17,1.17,0,0,0-.72-1.28,1.23,1.23,0,0,0-1.46.53,1,1,0,0,0,.26,1.3c.54.33,1-.09,1.18-.61a.58.58,0,0,0-.82-.69,2,2,0,0,0-.62.56.58.58,0,0,0,.17.8l.05,0a.55.55,0,0,0,.81-.29c-.08.2,0-.16,0-.26a.57.57,0,0,0-.05-.14c.23.51-.16.51.16.33l-.82-.69c-.07.24.25-.27.63.07.08.07.05.16.05.08,0,.1,0,.06,0,.07s.07,0,.1,0-.1-.14-.07,0a.58.58,0,0,1,0,.22.3.3,0,0,1-.23.22c-.08,0,0,0-.12,0,.06,0,0,0-.05,0a.58.58,0,0,1-.18-.25.81.81,0,0,1-.06-.31c0-.15,0,0,0-.16,0,0,0,0,0-.06l0,0a.64.64,0,0,1,.28,0,.84.84,0,0,1,.44.13.31.31,0,0,1,.09.25.77.77,0,0,1-.13.42c-.15.24-.3.3-.5.2-.39-.2-.43-1.1-.19-1.41.11-.15-.09-.37-.25-.27Z"/><path class="cls-6" d="M20.59,31a.36.36,0,0,0,0-.72.36.36,0,0,0,0,.72Z"/><path class="cls-6" d="M19.67,29.7a.08.08,0,0,0,0-.16.08.08,0,0,0,0,.16Z"/><path class="cls-6" d="M19.39,30.26a.08.08,0,0,0,0-.16.08.08,0,0,0,0,.16Z"/><path class="cls-6" d="M19.38,30.9a.11.11,0,0,0,0-.21.11.11,0,0,0,0,.21Z"/><path class="cls-6" d="M19.64,31.49a.1.1,0,0,0,0-.21.1.1,0,0,0,0,.21Z"/><path class="cls-6" d="M20.1,32h0a.07.07,0,0,0,0-.14h0c-.13-.06-.14.2,0,.16Z"/><path class="cls-6" d="M20.76,32.17h0a.1.1,0,0,0,0-.19h0c-.17-.05-.18.24,0,.2Z"/><path class="cls-6" d="M21.4,31.9a.09.09,0,0,0,0-.17.09.09,0,0,0,0,.17Z"/><path class="cls-6" d="M21.81,31.37a.08.08,0,0,0,0-.16.08.08,0,0,0,0,.16Z"/><path class="cls-6" d="M21.95,30.62a.08.08,0,0,0,0-.15.08.08,0,0,0,0,.15Z"/><path class="cls-6" d="M21.72,30a.1.1,0,0,0,0-.2.1.1,0,0,0,0,.2Z"/><path class="cls-6" d="M21.16,29.59a.12.12,0,0,0,0-.23.12.12,0,0,0,0,.23Z"/><path class="cls-6" d="M20.46,29.49h0a.09.09,0,0,0,0-.17h0c-.11,0-.12.19,0,.18Z"/><path class="cls-4" d="M12.45,12.25a.4.4,0,0,0-.17.11.67.67,0,0,0,.09,1,.44.44,0,0,0,.3.09c.24,0,.36-.29.42-.52a.49.49,0,0,0-.18-.57A.54.54,0,0,0,12.45,12.25Z"/><path class="cls-4" d="M12.92,12.64a6.86,6.86,0,0,1,.9.2,1.77,1.77,0,0,1-1.1.25c0-.14-.1-.33,0-.42A.23.23,0,0,1,12.92,12.64Z"/><path class="cls-4" d="M9.89,17.28a2.65,2.65,0,0,0,1.92-.2,1.67,1.67,0,0,0,.86-1.64,1.47,1.47,0,0,0-.31-.68,1.41,1.41,0,0,0-.57-.48,3.18,3.18,0,0,0-3.05.9,1.34,1.34,0,0,0-.23.42,1.18,1.18,0,0,0,.32,1.13A2.16,2.16,0,0,0,9.89,17.28Z"/><path class="cls-4" d="M6.85,14.63a2.49,2.49,0,0,0-2,2,4.59,4.59,0,0,0,.54,2.93.4.4,0,0,0,.09.13c.53-.62,3.44-3.12,4-4.08a2.11,2.11,0,0,0-.72-.56A3,3,0,0,0,6.85,14.63Z"/><path class="cls-4" d="M12.14,16.07a.47.47,0,0,1-.21-.12c-.56-.45-1.43-.92-1.55-1.63a12.41,12.41,0,0,0,2-2,13.3,13.3,0,0,1,.25,3.44c0,.14-.12,0-.19.12A.35.35,0,0,1,12.14,16.07Z"/><path class="cls-4" d="M12.08,12a.41.41,0,0,0-.39-.21.42.42,0,0,0-.37.14.32.32,0,0,0,0,.31.56.56,0,0,0,.22.23.32.32,0,0,0-.43.18.37.37,0,0,0,.21.37,3.09,3.09,0,0,0,.43.15,2.16,2.16,0,0,1,.43.25l.38-.74c.06-.11.12-.22.17-.34a1,1,0,0,0,.1-.38.45.45,0,0,0-.13-.36l-.12-.07a.44.44,0,0,0-.45,0A.32.32,0,0,0,12.08,12Z"/><path class="cls-8" d="M9.42,15.85a1.5,1.5,0,0,0,1.75.51c.45-.23,1.09-.79.84-1.35a.09.09,0,0,0-.15,0,2,2,0,0,1-.73,1,1.42,1.42,0,0,1-1.63-.27c-.06,0-.14,0-.08.08Z"/><g class="cls-13"><path class="cls-8" d="M7.76,15.29c-1-.72-1.82.46-2.13,1.3a3.09,3.09,0,0,0,.94,3.33c.06,0,.14,0,.12-.1a8,8,0,0,1-.77-2.18c-.06-1,.63-2.38,1.82-2.27,0,0,0-.05,0-.08Z"/><path class="cls-8" d="M7.74,15.79c-1.47.12-1.43,2.65-.37,3.27A.09.09,0,0,0,7.5,19c-.13-.46-.37-.88-.46-1.36a1.58,1.58,0,0,1,.73-1.68s0-.14,0-.13Z"/><path class="cls-8" d="M8,16.27a1.18,1.18,0,0,0,.29,2c.08,0,.13-.07.1-.13-.27-.61-.86-1.12-.28-1.78.06-.07,0-.21-.11-.14Z"/></g><path class="cls-14" d="M12.63,28.93a1.15,1.15,0,0,0,.38,0,.82.82,0,0,0,.53-.58,4,4,0,0,0,.11-.81,4,4,0,0,1,.27-1.11,4,4,0,0,0,.35-1,2.63,2.63,0,0,0-.87-1.92c-.49-.56-1-.67-1.51-1.91-.25-.63-.34-1-.47-1s-.38.14-.46.25A2,2,0,0,0,11,22a5.86,5.86,0,0,0,.43,1.65c.14.35.09.15.28.47-.32.33-.65.07-1.07.24s-.55.69-.59,1.14A7.52,7.52,0,0,0,10,27a2.14,2.14,0,0,0,.68,1.52,2.48,2.48,0,0,0,1.3.36Z"/><path class="cls-8" d="M11.31,25.09c.23.28.67.59.59,1s-.61.15-.82.11a.06.06,0,0,0-.07.09c.16.33.84.26,1,0a.68.68,0,0,0,0-.7,1.37,1.37,0,0,0-.67-.56,0,0,0,0,0,0,.06Z"/><path class="cls-8" d="M11.18,26.42c.12.14.3.19.43.31a.48.48,0,0,1,.1.61c-.2.23-.58.09-.82.05a.05.05,0,0,0-.06.08c.17.34.79.22,1,0a.54.54,0,0,0,.06-.58,1,1,0,0,0-.23-.31c-.12-.11-.29-.13-.42-.23a.05.05,0,0,0-.07.07Z"/><path class="cls-8" d="M11.17,28.44c.29.08.63,0,.71-.3s-.16-.53-.44-.63c-.07,0-.39-.1-.35.08s.29.2.43.25.25.21.12.37-.33.14-.47.18a0,0,0,0,0,0,.05Z"/><path class="cls-4" d="M11.34,24.42c-.24,0-.51-.36-.54-.58s0-.14,0-.49c-.13-1-.3-2.5-.32-3.48a24.92,24.92,0,0,1-.07-2.52,1.15,1.15,0,0,1,.2-.39.37.37,0,0,1,.35-.19A38.72,38.72,0,0,0,11,22.47C11.08,23.12,11.37,23.77,11.34,24.42Z"/><path class="cls-7" d="M12,24.66a.59.59,0,0,1-.54.4,1.17,1.17,0,0,1-.59-.22l-.44-.26A2.46,2.46,0,0,1,9.75,24a.84.84,0,0,1-.15-.85.71.71,0,0,1,1-.45,5.87,5.87,0,0,1,1.29,1.37A.68.68,0,0,1,12,24.66Z"/><path class="cls-8" d="M11.07,25a.81.81,0,0,0,.88.22.51.51,0,0,0,.15-.78,0,0,0,0,0-.05,0c0,.18,0,.51-.21.58a1,1,0,0,1-.7-.1s-.1,0-.07.07Z"/><path class="cls-8" d="M12.47,12.88a.14.14,0,0,0,0-.27.14.14,0,0,0,0,.27Z"/><path class="cls-7" d="M24.32,40.35A3.41,3.41,0,0,0,22,39.63c-.49,0-1,0-1.48,0a5.12,5.12,0,0,0-1,.06,5.16,5.16,0,0,0-1.35.53q-1.25.64-2.45,1.36a3.43,3.43,0,0,0-.65.46,2.94,2.94,0,0,0-.73,1.56,16.09,16.09,0,0,0,.34,6.12,2.69,2.69,0,0,0,.24.82,2.22,2.22,0,0,0,1.45.94,9.5,9.5,0,0,0,2.88.22,14.5,14.5,0,0,0,4.66-.89l-.07-1.3a.76.76,0,0,1,0-.26.81.81,0,0,1,.29-.35,10,10,0,0,0,2.25-3.24,3,3,0,0,0,.48-1.6A1,1,0,0,0,26,44c-.25.11-.5.33-.75.23s-.29-.4-.29-.65c0-.56,0-1.13,0-1.69A2.54,2.54,0,0,0,24.32,40.35Z"/><path class="cls-8" d="M23,48.29a3.51,3.51,0,0,1,.08,1.46A.56.56,0,0,1,23,50a.43.43,0,0,1-.32.11,16.92,16.92,0,0,1-3.23.18c-2-.28-1.92-1-1.94-1.27s.14-.08.21-.13l.09,0,2.7-.49.94-.16A10.32,10.32,0,0,1,22.69,48C22.75,48,22.91,47.94,23,48.29Z"/><path class="cls-3" d="M21.33,49.22A4.87,4.87,0,0,1,17.5,49a.54.54,0,0,1,.17-.35A3.89,3.89,0,0,1,22.85,48,2.86,2.86,0,0,1,21.33,49.22Z"/><path class="cls-8" d="M20.22,47.69a.88.88,0,0,0-.76.47.82.82,0,0,0,.34,1,1,1,0,0,0,.54,0,.91.91,0,0,0,.76-.51.79.79,0,0,0-.18-.79A.91.91,0,0,0,20.22,47.69Z"/><path class="cls-1" d="M13.83,41.33c.16-2.4.71-4.75,2.73-6.05a13.5,13.5,0,0,1,4.76-1.44,9.82,9.82,0,0,1,1.57-.16,10.32,10.32,0,0,1,2.26.35.68.68,0,0,1,.3.12.66.66,0,0,1,.09.64A10.46,10.46,0,0,1,25.19,36a10.22,10.22,0,0,0-.52,4.62,7.71,7.71,0,0,1,.11,1c-.08.24-.32,0-.57.07-2.94.35-6.09-.56-9-.09a2.58,2.58,0,0,1-.79.05C14.13,41.63,13.81,41.6,13.83,41.33Z"/><g class="cls-15"><path class="cls-8" d="M26.08,33.5a1.83,1.83,0,0,0-1.19,1.06,7.42,7.42,0,0,0-1,2.27c-.15.88-.18,1.84-.26,2.74s.26,1.83.09,2.77c0,.15.18.27.27.11a2.25,2.25,0,0,0,.13-1.39,10.35,10.35,0,0,1,.06-2.83,6.9,6.9,0,0,1,.52-2.5c.4-.75.66-1.61,1.44-2.06a.1.1,0,0,0-.08-.18Z"/><path class="cls-8" d="M25.33,33a8.94,8.94,0,0,0-1.52,1.42,6.55,6.55,0,0,0-1,2.46,14.25,14.25,0,0,0,.09,5.58c0,.15.23.12.27,0a3.1,3.1,0,0,0-.08-1.78,10,10,0,0,1,.12-3.35,7.11,7.11,0,0,1,1-2.67c.36-.58,1-.94,1.25-1.57,0-.08-.08-.12-.12-.07Z"/><path class="cls-8" d="M24.07,32.94a5.88,5.88,0,0,0-2.46,4,13.88,13.88,0,0,0-.38,2.73c0,1.09.46,2.08.31,3.18a.16.16,0,0,0,.3.13,2,2,0,0,0,.1-1.55A8.91,8.91,0,0,1,21.84,38a9.28,9.28,0,0,1,2.29-5s0-.11-.06-.08Z"/><path class="cls-8" d="M23,32.6a6.09,6.09,0,0,0-2.5,4.3,12.68,12.68,0,0,0,0,5.54.11.11,0,0,0,.21,0,7.27,7.27,0,0,0-.06-2.12,14.57,14.57,0,0,1,.21-3,8.19,8.19,0,0,1,.63-2.45c.4-.83,1.16-1.4,1.62-2.18a.07.07,0,0,0-.09-.1Z"/><path class="cls-8" d="M21.65,32.74c-1.5.83-2,2.36-2.35,3.93A12.12,12.12,0,0,0,19,39.25c0,1,.23,1.89.28,2.84a.23.23,0,0,0,.44.06,4.37,4.37,0,0,0-.11-1.87,11.45,11.45,0,0,1,.08-2.8,18,18,0,0,1,.5-2.32c.29-1,1.06-1.49,1.56-2.33a.07.07,0,0,0-.1-.1Z"/><path class="cls-8" d="M20.35,32.75c-1.34.51-1.86,2.3-2.16,3.56A19.15,19.15,0,0,0,17.81,39a10.12,10.12,0,0,0,.05,3.57.1.1,0,0,0,.2,0,9.81,9.81,0,0,0,.18-2.39A30.31,30.31,0,0,1,18.5,37a7.51,7.51,0,0,1,1.9-4.12s0-.11-.05-.09Z"/><path class="cls-8" d="M18.91,33.06a4.53,4.53,0,0,0-2,3.61A24,24,0,0,0,16.51,43c0,.11.18.12.23,0a3,3,0,0,0,.17-1.64,27.18,27.18,0,0,1,.2-3.06c.23-2,.37-3.73,1.84-5.24a0,0,0,0,0,0-.05Z"/><path class="cls-8" d="M17,33.87a6.73,6.73,0,0,0-1.69,3.75,9,9,0,0,0-.08,2.09,5.5,5.5,0,0,0,.3,2.13c.07.13.24.05.26-.07.16-1.25-.1-2.5,0-3.75a9.18,9.18,0,0,1,.5-2.2A7.46,7.46,0,0,1,17,33.89s0,0,0,0Z"/><path class="cls-8" d="M15,35.65a6.14,6.14,0,0,0-.91,3.08,6.71,6.71,0,0,0,.27,3.34.11.11,0,0,0,.21,0,13.7,13.7,0,0,0,0-3c0-1.17.43-2.28.47-3.43a0,0,0,0,0-.07,0Z"/></g><path class="cls-1" d="M16.4,40.39a2.43,2.43,0,0,1,.86,2,3.67,3.67,0,0,1-.78,1.24A1.28,1.28,0,0,0,16.24,45c.21.33.62.44.93.67a1.49,1.49,0,0,1,.5,1.67c-.12.34-.37.62-.53,1a2.47,2.47,0,0,0,.12,2.17,4.78,4.78,0,0,0,1.53,1.62c-.94,0-1.84,0-2.78-.08a6.34,6.34,0,0,1-1.51-.2,3.18,3.18,0,0,1-2-1.83c-.21-.51-.28-1.07-.47-1.59a9.41,9.41,0,0,0-.57-1.15c-1.11-2.06-1.71-4.38-3-6.33-.08-.13-.17-.3-.08-.43a.37.37,0,0,1,.24-.11,23,23,0,0,1,3.1,0c1,0,2-.25,3.06-.32C15.38,40,16,39.94,16.4,40.39Z"/><path class="cls-6" d="M13.91,53a22.92,22.92,0,0,0,.19,4.46c.12.92.38,1.85.44,2.49.11,1.08.83.87.86.54a43,43,0,0,1,.54-5.6.51.51,0,0,1,.93-.07,15.22,15.22,0,0,1,.43,2.73c.22,1.79.39,2.83.72,3.23.15.18.47.2.55,0,.74-2.09-.21-5.83,1-6.27a.42.42,0,0,1,.54.32c.42,1.92-.1,4.08.83,5.83.06.11.14.23.26.25s.32-.17.39-.34c.8-1.92-.13-5.55.62-6.21.28-.25.5-.1.54.27.31,3.27.6,5.46,1.27,5.72.37.15.54-1,.52-1.44-.07-2.33-.2-4.66-.33-7,0,0,0,.09,0,0s-.09,0-.14,0l-9.58.67a.79.79,0,0,0-.34.11A.46.46,0,0,0,13.91,53Z"/><path class="cls-8" d="M24.25,50.76c-.33-.41-8.58.45-10.35.54a.45.45,0,0,0-.39.27,1.61,1.61,0,0,0,0,1.06.42.42,0,0,0,.1.21.46.46,0,0,0,.37.08l7.67-.49,2.19-.14a1,1,0,0,0,.47-.14c.37-.22.3-.52.23-.79A1.62,1.62,0,0,0,24.25,50.76Z"/><path class="cls-8" d="M24.09,60.34a.3.3,0,1,0,.3.3.3.3,0,0,0-.3-.3Z"/><path class="cls-8" d="M21.22,60.74a.3.3,0,0,0,0,.6.3.3,0,0,0,0-.6Z"/><path class="cls-8" d="M18.32,60.86a.32.32,0,1,0,.31.32.32.32,0,0,0-.31-.32Z"/><path class="cls-8" d="M15.06,60.62a.32.32,0,1,0,.32.32.32.32,0,0,0-.32-.32Z"/><path class="cls-8" d="M23.72,55.07a8.72,8.72,0,0,0-.09-2.36.21.21,0,0,0-.42,0A14.7,14.7,0,0,0,23.53,55c0,.1.16.13.18,0Z"/><path class="cls-8" d="M21.11,55.18a4.46,4.46,0,0,0,.13-1.31c0-.34,0-.84-.28-1.09a.2.2,0,0,0-.33.09,3.46,3.46,0,0,0,.1,1.15,6.75,6.75,0,0,0,.17,1.16.11.11,0,0,0,.21,0Z"/><path class="cls-8" d="M18.17,55.33c-.09-.71-.11-1.41-.15-2.12a.26.26,0,0,0-.51,0,7.93,7.93,0,0,0,.36,2.16c0,.16.32.13.3,0Z"/><path class="cls-8" d="M14.89,55.37a2.94,2.94,0,0,0,.27-1.83.29.29,0,0,0-.59,0c0,.28,0,.56,0,.84s0,.61,0,.92a.15.15,0,0,0,.28.08Z"/><g class="cls-16"><path class="cls-8" d="M16.89,51.48A4.31,4.31,0,0,1,16.28,50a5.31,5.31,0,0,1,.36-2.49c.18-.92-.81-1.4-1.36-1.93-1.26-1.22,1.16-2.88,1.3-4.13a3.21,3.21,0,0,0-1.53-2.59c-.07,0-.17,0-.12.12a7.88,7.88,0,0,1,1.2,1.67c.45,1.09-.38,1.73-.94,2.51s-1,1.79-.32,2.53c.34.39.79.65,1.16,1,.65.63-.15,1.66-.17,2.34a2.8,2.8,0,0,0,1,2.5s0,0,0,0Z"/><path class="cls-8" d="M15.77,51.37c-1.4-.9-.24-2.16-.39-3.35a1.5,1.5,0,0,0-.48-.71,4.58,4.58,0,0,1-1.35-1.77c-.51-1.62,1.2-2.47,1.69-3.8a1.9,1.9,0,0,0-.83-2.37c-.1-.06-.24.06-.17.17s.3.43.46.64c.5.67.16,1.33-.21,2s-.89,1-1.21,1.64a2.8,2.8,0,0,0,.38,3c.44.5,1.41,1,1.26,1.81a8,8,0,0,0-.3,1.41c0,.68.31,1.57,1.12,1.53a.06.06,0,0,0,0-.12Z"/><path class="cls-8" d="M14.61,51.64a4.11,4.11,0,0,1-.73-1.26c-.2-.49.19-1.44.13-2a1.51,1.51,0,0,0-.62-1,3.82,3.82,0,0,1-1.45-1.77c-.78-2.47,3.26-4.78.46-6.88-.15-.12-.37.11-.26.26.65.92,1,1.55.54,2.7-.25.57-.64,1.07-.85,1.66A3.43,3.43,0,0,0,12,46.71a8.18,8.18,0,0,0,1.25,1.15c.74.69,0,1.61.13,2.38.09.42.58,1.59,1.17,1.46,0,0,0-.05,0-.07Z"/><path class="cls-8" d="M12.24,51.59c.84-.17.74-1.47.73-2.12,0-1.39-1.21-1.82-2.07-2.7-.51-.52-.33-1.25-.28-1.91a10.33,10.33,0,0,1,.92-2.93c.44-1.15.15-3-1.33-3.19-.12,0-.14.13-.08.2.69.87,1.26,1.32,1,2.54-.15.72-.57,1.4-.78,2.11a5.38,5.38,0,0,0-.17,3c.29.77,1.24,1.23,1.85,1.7a1.84,1.84,0,0,1,.57,1.58c0,.34.08,1.53-.37,1.68a0,0,0,0,0,0,.06Z"/><path class="cls-8" d="M8.48,44c1.21.83,2.86-3.85,1.05-4.92-.07,0-.16,0-.11.12a3.27,3.27,0,0,1,.44,2.76c-.16.69-.63,1.68-1.36,1.88a.09.09,0,0,0,0,.16Z"/><path class="cls-8" d="M7.93,42.87c.57.11,1-.58,1.23-1a2.31,2.31,0,0,0-.41-2.36.08.08,0,0,0-.13.05,6.31,6.31,0,0,1,.26,1.84,2.63,2.63,0,0,1-1,1.42.06.06,0,0,0,0,.1Z"/></g><path class="cls-1" d="M25.4,43.67a2.64,2.64,0,0,0-.29-1.94.86.86,0,0,0-.45-.42.82.82,0,0,0-.53.05,2.12,2.12,0,0,0-1.33,1.88,2.8,2.8,0,0,0-2.37-1.8c-1-.18-2.1-.05-3.14-.23a4,4,0,0,0,.87,1.66,4.26,4.26,0,0,0,1.29,1.28,4.24,4.24,0,0,0,1.82.37,12.38,12.38,0,0,0,3.43-.13,1.08,1.08,0,0,0,.37-.14A1,1,0,0,0,25.4,43.67Z"/><g class="cls-17"><path class="cls-8" d="M23.41,45a4.23,4.23,0,0,0,0-.94,2.92,2.92,0,0,1,1-2.13,2.64,2.64,0,0,0,.9-2.11.1.1,0,0,0-.18,0c-.37.51-.44,1.12-.86,1.61-.27.31-.55.59-.79.92A2.82,2.82,0,0,0,23.34,45s.07,0,.07,0Z"/><path class="cls-8" d="M24.08,45a7.31,7.31,0,0,0,.06-.92,2.68,2.68,0,0,1,.92-1.59,2.21,2.21,0,0,0,.72-1.76.1.1,0,0,0-.19,0,9.48,9.48,0,0,1-1.32,2c-.61.81-.43,1.31-.3,2.25,0,.06.11.09.12,0Z"/><path class="cls-8" d="M24.49,44.87c.11-.28.18-.56.27-.85a1.73,1.73,0,0,1,.74-.89,1.69,1.69,0,0,0,.74-.88.07.07,0,0,0-.11-.07c-.39.38-.88.61-1.27,1s-.36,1.1-.44,1.67a0,0,0,0,0,.07,0Z"/><path class="cls-8" d="M22.76,45c.27-1-.62-1.91-1.16-2.63s-1.7-1.8-2.7-1.64c-.09,0-.09.15,0,.19a9.16,9.16,0,0,1,2.38,1.72A6.09,6.09,0,0,1,22.7,45a0,0,0,0,0,.07,0Z"/><path class="cls-8" d="M22.08,45.13c.37-.58-.72-1.58-1-2a4.65,4.65,0,0,0-1.15-1.22,14.9,14.9,0,0,1-1.27-.86c-.31-.25-.51-.61-.82-.87a.1.1,0,0,0-.16.09c.3,1,1.2,1.46,2,2a6.83,6.83,0,0,1,1.44,1.58c.3.38.76.74.86,1.23a0,0,0,0,0,.06,0Z"/><path class="cls-8" d="M21,45.09c.24-.88-.64-1.57-1.23-2.09a16,16,0,0,1-1.36-1.32,7.51,7.51,0,0,1-1.16-1.82.1.1,0,0,0-.18,0c-.25,1.11.52,1.67,1.21,2.41s2.3,1.56,2.59,2.8a.07.07,0,0,0,.13,0Z"/></g><g class="cls-18"><path class="cls-8" d="M26.08,43.67a3.92,3.92,0,0,1-2,.76,1.65,1.65,0,0,0-1.14.46c-.49.53.06,1.2.64,1.31.16,0,.23-.2.07-.24-.33-.08-.67-.21-.68-.61s.54-.61.87-.69a6.16,6.16,0,0,0,1.31-.26,2.23,2.23,0,0,0,1-.7s0,0,0,0Z"/></g><path class="cls-8" d="M23.75,55.65a.17.17,0,0,0,0,.33.17.17,0,0,0,0-.33Z"/><path class="cls-8" d="M23.86,56.25h0a.16.16,0,0,0,0,.32h0c.21,0,.21-.35,0-.32Z"/><path class="cls-8" d="M23.91,56.85a.15.15,0,0,0,0,.3.15.15,0,0,0,0-.3Z"/><path class="cls-8" d="M21,55.72a.21.21,0,0,0,0,.41.21.21,0,0,0,0-.41Z"/><path class="cls-8" d="M21,56.46h0l.14,0h0a.2.2,0,1,0,.09.34.21.21,0,0,0,0-.31.16.16,0,0,0-.22,0Z"/><path class="cls-8" d="M21.12,57.07a.2.2,0,0,0,0,.39.2.2,0,0,0,0-.39Z"/><path class="cls-8" d="M18,56h0a.27.27,0,1,0,.14.52h0A.27.27,0,1,0,18,56Z"/><path class="cls-8" d="M18,56.8v0a.21.21,0,0,0,.33.25l0,0c.23-.21-.18-.53-.33-.26Z"/><path class="cls-8" d="M18,57.5v0c-.09.26.41.26.31,0v0a.16.16,0,0,0-.3,0Z"/><path class="cls-8" d="M14.87,55.92a.28.28,0,0,0,0,.56.28.28,0,0,0,0-.56Z"/><path class="cls-8" d="M14.87,56.73a.22.22,0,0,0,0,.44.22.22,0,0,0,0-.44Z"/><path class="cls-8" d="M14.92,57.33h0a.17.17,0,1,0,0,.33h0a.16.16,0,0,0,0-.31Z"/><path class="cls-8" d="M30.1,31.08h.09l.09,0a.24.24,0,0,0-.18-.06l.1,0h0a.18.18,0,0,0-.25.22h0a.21.21,0,0,0,.22.19.23.23,0,0,0,.21-.21c0-.13-.14-.29-.27-.18Z"/><path class="cls-8" d="M30.22,30.19h0a.27.27,0,0,0,0,.53h0c.34,0,.31-.58,0-.53Z"/><path class="cls-8" d="M30.38,29.23a.22.22,0,0,0-.19,0c-.11.08-.13.3,0,.35h0a.22.22,0,0,0,.25,0,.21.21,0,0,0,0-.3.17.17,0,0,0-.08,0Z"/><path class="cls-8" d="M30.49,28.41h0a.18.18,0,0,0-.07.36h0a.18.18,0,0,0,.07-.36Z"/><path class="cls-8" d="M30.58,27.7a.13.13,0,0,0-.05.26.13.13,0,0,0,.05-.26Z"/><path class="cls-8" d="M28.64,27.15l0,0a.1.1,0,0,0,.11.17l0,0c.12-.06,0-.26-.12-.18Z"/><path class="cls-8" d="M28.41,27.7a.28.28,0,0,0-.14-.07C28,27.56,28,28,28.2,28a.28.28,0,0,0,.16,0,.16.16,0,0,0,.05-.27Z"/><path class="cls-8" d="M27.89,28.27a.23.23,0,0,0-.09.44.23.23,0,0,0,.09-.44Z"/><path class="cls-8" d="M27.65,29.17a.22.22,0,0,0-.09.42.22.22,0,0,0,.09-.42Z"/><path class="cls-8" d="M27.5,29.92a.2.2,0,0,0-.08.4.2.2,0,0,0,.08-.4Z"/><path class="cls-4" d="M28.77,25.62c.33,0,.44.43,0,1.62a5.3,5.3,0,0,0-.3,2.92c.17.71.39,1.87-.19,1.84s-1-1-1.08-2a7.18,7.18,0,0,1,.35-2.62C27.76,26.62,28.41,25.58,28.77,25.62Z"/><path class="cls-4" d="M31.16,26c.41,0,.75.18.57,1.71s-.77,4.55-1.38,4.71-.75-.18-.74-.73S30.4,26,31.16,26Z"/><path class="cls-8" d="M28.18,27.23a.36.36,0,0,0,.17,0,.2.2,0,0,0,.07-.37.35.35,0,0,0-.17,0,.19.19,0,0,0-.07.36Z"/><path class="cls-8" d="M28.12,27.77a.29.29,0,1,0,.23.34.29.29,0,0,0-.23-.34Z"/><path class="cls-8" d="M27.72,29.41l0,0a.28.28,0,1,0,.11-.53h0a.27.27,0,0,0-.1.51Z"/><path class="cls-8" d="M27.68,30.44a.31.31,0,0,0,.41,0,.24.24,0,0,0,.07-.33.31.31,0,0,0-.39-.12.24.24,0,0,0-.08.4Z"/><path class="cls-8" d="M28,31.46l.12,0a.19.19,0,0,0,.08-.38h-.12a.19.19,0,0,0-.07.35Z"/><path class="cls-8" d="M30.37,31.93h0a.22.22,0,0,0,0-.37h0a.23.23,0,1,0,0,.39Z"/><path class="cls-8" d="M30.48,31.09h0a.24.24,0,0,0,.06-.32v0c-.1-.2-.41-.11-.45.09s.21.4.38.26Z"/><path class="cls-8" d="M30.65,30.17l.12-.06a.3.3,0,0,0,.12-.34.3.3,0,0,0-.3-.2h-.06a.31.31,0,0,0-.29.33.31.31,0,0,0,.41.27Z"/><path class="cls-8" d="M30.76,28.57a.31.31,0,0,0-.12.6.31.31,0,0,0,.12-.6Z"/><path class="cls-8" d="M31,27.64a.23.23,0,0,0-.09.46.23.23,0,0,0,.09-.46Z"/><path class="cls-8" d="M31.09,26.94a.19.19,0,0,0-.08.38.19.19,0,0,0,.08-.38Z"/><path class="cls-8" d="M31.24,26.65h0a.11.11,0,0,0,0-.15v0a.13.13,0,1,0,0,.18Z"/><path class="cls-8" d="M28.59,26.3a.16.16,0,0,0-.06.32.16.16,0,0,0,.06-.32Z"/><path class="cls-4" d="M34.29,26.68c-.34,0-.57.22-.64,1.49A5.31,5.31,0,0,1,32.79,31c-.43.59-1.08,1.57-.54,1.77s1.32-.54,1.78-1.42a7.62,7.62,0,0,0,.7-2.55C34.87,27.95,34.68,26.72,34.29,26.68Z"/><path class="cls-8" d="M34.21,28.39a.36.36,0,0,1-.17,0,.2.2,0,0,1,.07-.37.36.36,0,0,1,.17,0,.19.19,0,0,1-.07.36Z"/><path class="cls-8" d="M34.05,28.92a.29.29,0,1,1-.34.23.29.29,0,0,1,.34-.23Z"/><path class="cls-8" d="M33.79,30.58h0a.28.28,0,1,1,.11-.53l0,0a.27.27,0,0,1-.1.51Z"/><path class="cls-8" d="M33.42,31.55a.31.31,0,0,1-.39-.12.24.24,0,0,1,.07-.33.31.31,0,0,1,.41,0,.24.24,0,0,1-.08.4Z"/><path class="cls-8" d="M32.74,32.37h-.12A.19.19,0,0,1,32.7,32l.12,0a.19.19,0,0,1-.07.35Z"/><path class="cls-8" d="M34.2,27.38a.16.16,0,0,1-.06.32.16.16,0,0,1,.06-.32Z"/><path class="cls-4" d="M28.22,50a.39.39,0,0,0,.17-.11.67.67,0,0,0-.09-1,.44.44,0,0,0-.3-.09c-.24,0-.36.29-.42.52a.49.49,0,0,0,.18.57A.54.54,0,0,0,28.22,50Z"/><path class="cls-4" d="M27.75,49.57a6.9,6.9,0,0,1-.9-.2,1.78,1.78,0,0,1,1.1-.25c0,.14.1.33,0,.42A.23.23,0,0,1,27.75,49.57Z"/><path class="cls-4" d="M30.78,44.93a2.65,2.65,0,0,0-1.92.2A1.67,1.67,0,0,0,28,46.77a1.46,1.46,0,0,0,.31.68,1.41,1.41,0,0,0,.57.48,3.18,3.18,0,0,0,3.05-.9,1.32,1.32,0,0,0,.23-.42,1.18,1.18,0,0,0-.32-1.13A2.16,2.16,0,0,0,30.78,44.93Z"/><path class="cls-4" d="M33.82,47.58a2.49,2.49,0,0,0,2-2,4.6,4.6,0,0,0-.54-2.93.39.39,0,0,0-.09-.13c-.53.62-3.44,3.12-4,4.08a2.11,2.11,0,0,0,.72.56A3,3,0,0,0,33.82,47.58Z"/><path class="cls-4" d="M28.53,46.14a.47.47,0,0,1,.21.12c.56.45,1.43.92,1.55,1.63a12.4,12.4,0,0,0-2,2A13.26,13.26,0,0,1,28,46.46c0-.14.12,0,.19-.12A.35.35,0,0,1,28.53,46.14Z"/><path class="cls-4" d="M28.59,50.24a.41.41,0,0,0,.39.21.41.41,0,0,0,.37-.14.31.31,0,0,0,0-.31.55.55,0,0,0-.22-.22.32.32,0,0,0,.43-.18.37.37,0,0,0-.21-.37,3.08,3.08,0,0,0-.43-.15,2.25,2.25,0,0,1-.43-.25l-.38.74c-.06.11-.12.22-.17.34a1,1,0,0,0-.1.38.45.45,0,0,0,.13.36l.12.07a.44.44,0,0,0,.45,0A.32.32,0,0,0,28.59,50.24Z"/><path class="cls-8" d="M31.25,46.36a1.5,1.5,0,0,0-1.75-.51c-.45.23-1.09.79-.84,1.35a.09.09,0,0,0,.15,0,2,2,0,0,1,.73-1,1.42,1.42,0,0,1,1.63.27c.06,0,.14,0,.08-.08Z"/><g class="cls-19"><path class="cls-8" d="M32.91,46.93c1,.72,1.82-.46,2.13-1.3a3.09,3.09,0,0,0-.94-3.33c-.06,0-.14,0-.12.1a7.91,7.91,0,0,1,.77,2.18c.06,1-.63,2.38-1.82,2.27,0,0,0,.05,0,.08Z"/><path class="cls-8" d="M32.93,46.42c1.47-.12,1.43-2.65.37-3.27a.09.09,0,0,0-.13.1c.13.46.37.88.46,1.36a1.58,1.58,0,0,1-.73,1.68c-.05,0,0,.14,0,.13Z"/><path class="cls-8" d="M32.71,45.95a1.18,1.18,0,0,0-.29-2c-.08,0-.12.07-.1.13.27.61.86,1.12.28,1.78-.07.07,0,.21.11.14Z"/></g><path class="cls-14" d="M28,33.28a1.14,1.14,0,0,0-.38,0,.81.81,0,0,0-.53.58,4.07,4.07,0,0,0-.11.81,4,4,0,0,1-.27,1.11,4,4,0,0,0-.35,1,2.63,2.63,0,0,0,.87,1.92c.49.56,1,.67,1.51,1.91.25.63.34,1,.47,1s.38-.13.47-.25a2,2,0,0,0,0-1.18,5.79,5.79,0,0,0-.43-1.65c-.13-.35-.09-.15-.28-.47.32-.33.65-.07,1.08-.24s.55-.69.59-1.14a7.59,7.59,0,0,0,0-1.47,2.14,2.14,0,0,0-.68-1.52,2.48,2.48,0,0,0-1.3-.36Z"/><path class="cls-8" d="M29.35,37.12c-.23-.28-.67-.59-.59-1s.61-.15.82-.11a.06.06,0,0,0,.07-.09c-.16-.33-.84-.26-1,0a.68.68,0,0,0,0,.7,1.38,1.38,0,0,0,.67.56,0,0,0,0,0,0-.06Z"/><path class="cls-8" d="M29.49,35.79c-.12-.14-.3-.19-.43-.31a.48.48,0,0,1-.11-.61c.2-.24.58-.09.82-.05a.05.05,0,0,0,.06-.08c-.17-.34-.79-.22-1,0a.54.54,0,0,0-.06.58.94.94,0,0,0,.23.31c.12.11.29.13.42.23a.05.05,0,0,0,.07-.07Z"/><path class="cls-8" d="M29.5,33.77c-.29-.09-.63,0-.71.3s.16.53.44.63c.07,0,.39.1.35-.08s-.29-.2-.43-.25S28.9,34.16,29,34s.33-.14.47-.18a0,0,0,0,0,0-.05Z"/><path class="cls-4" d="M29.32,37.79c.24,0,.51.36.54.58s0,.14,0,.48c.13,1,.3,2.5.32,3.48a24.63,24.63,0,0,1,.07,2.52,1.19,1.19,0,0,1-.2.39.37.37,0,0,1-.35.19,38.82,38.82,0,0,0-.09-5.69C29.59,39.09,29.3,38.44,29.32,37.79Z"/><path class="cls-7" d="M28.63,37.55a.6.6,0,0,1,.54-.41,1.17,1.17,0,0,1,.59.22l.44.26a2.47,2.47,0,0,1,.72.55.83.83,0,0,1,.15.85.71.71,0,0,1-1,.45,5.91,5.91,0,0,1-1.29-1.37A.68.68,0,0,1,28.63,37.55Z"/><path class="cls-8" d="M29.6,37.25a.82.82,0,0,0-.88-.22.51.51,0,0,0-.15.78,0,0,0,0,0,.05,0c0-.18,0-.51.21-.58a1,1,0,0,1,.71.1s.1,0,.07-.07Z"/><path class="cls-8" d="M28.2,49.34a.14.14,0,0,0,0,.27.14.14,0,0,0,0-.27Z"/><path class="cls-8" d="M27.81,24.41l0,0a.28.28,0,1,0-.1.54h0a.27.27,0,0,0,.1-.51Z"/><path class="cls-8" d="M11.18,38.25l0,0a.28.28,0,1,0-.1.54h0a.27.27,0,0,0,.1-.51Z"/><path class="cls-8" d="M8.63,39.38l0,0a.28.28,0,1,0-.1.54h0a.27.27,0,0,0,.1-.51Z"/><path class="cls-8" d="M12.36,37.64l0,0a.28.28,0,1,0-.1.53h0a.27.27,0,0,0,.1-.51Z"/><path class="cls-8" d="M10,38.85l0,0a.28.28,0,1,0-.1.54h0a.27.27,0,0,0,.1-.51Z"/><path class="cls-8" d="M29.08,23.61l0,0a.28.28,0,1,0-.1.54h0a.27.27,0,0,0,.1-.51Z"/><path class="cls-8" d="M30.36,22.86l0,0a.28.28,0,1,0-.1.54h0a.27.27,0,0,0,.1-.51Z"/><path class="cls-8" d="M31.56,22.26l0,0a.28.28,0,1,0-.1.54h0a.27.27,0,0,0,.1-.51Z"/><path class="cls-1" d="M5.66,12.43c.17-.15.35-.27.53-.4a3.18,3.18,0,0,0,.57-.46,1.39,1.39,0,0,0,.26-.5,1.2,1.2,0,0,0,0-.78.94.94,0,0,0-1.74.16,0,0,0,0,1,0,0h0a0,0,0,0,1,0,0,.94.94,0,0,0-1.74-.16,1.19,1.19,0,0,0,0,.78,1.39,1.39,0,0,0,.26.5,3.21,3.21,0,0,0,.57.46,6.61,6.61,0,0,1,.53.4c.08.08.46.48.46.48S5.57,12.51,5.66,12.43Z"/><path class="cls-1" d="M35.13,49.37c-.17.15-.35.27-.53.4a3.13,3.13,0,0,0-.57.46,1.4,1.4,0,0,0-.26.5,1.2,1.2,0,0,0,0,.78.94.94,0,0,0,1.74-.16,0,0,0,0,1,0,0h0a0,0,0,0,1,0,0,.94.94,0,0,0,1.74.16,1.19,1.19,0,0,0,0-.78,1.38,1.38,0,0,0-.26-.5,3.19,3.19,0,0,0-.57-.46c-.18-.13-.37-.25-.53-.4s-.46-.48-.46-.48S35.21,49.29,35.13,49.37Z"/><path class="cls-1" d="M7.77,8.46H7L5.27,5.29,3.95,6.93V8.46H3.23V2.72h.72V6l2.6-3.33h.78l-1.56,2Z"/><path class="cls-1" d="M33,53.26h.79l1.72,3.18,1.32-1.64V53.26h.72V59h-.72V55.68L34.19,59h-.78L35,57Z"/><path class="cls-1" d="M13.18,58.83H6.1a3.1,3.1,0,0,1-3-3.19V15.38h.19V55.64a2.92,2.92,0,0,0,2.82,3h7.08Z"/><rect class="cls-1" x="25.61" y="58.65" width="7.08" height="0.19"/><path class="cls-1" d="M37.65,46.54h-.19V6.08a2.92,2.92,0,0,0-2.82-3H27.48V2.89h7.16a3.1,3.1,0,0,1,3,3.19Z"/><rect class="cls-1" x="8.35" y="2.89" width="6.43" height="0.19"/></g></g></svg>