<svg xmlns="http://www.w3.org/2000/svg" xmlns:xlink="http://www.w3.org/1999/xlink" viewBox="0 0 40.93 62.29"><defs><style>.cls-1{fill:#0c0a35;}.cls-2{fill:none;}.cls-3{fill:#191956;}.cls-4{fill:#fff;}.cls-5{fill:#222272;}.cls-6{fill:#ffd6a1;}.cls-7{fill:#b70027;}.cls-8{clip-path:url(#clip-path);}.cls-9{fill:#fcc07e;}.cls-10{clip-path:url(#clip-path-2);}.cls-11{fill:#f70032;}.cls-12{fill:#141247;}.cls-13{clip-path:url(#clip-path-3);}.cls-14{clip-path:url(#clip-path-4);}.cls-15{clip-path:url(#clip-path-5);}.cls-16{clip-path:url(#clip-path-6);}</style><clipPath id="clip-path"><path class="cls-1" d="M23.24,15.1A1.65,1.65,0,0,0,22,14.55a3.4,3.4,0,0,0-1.35.3,5.13,5.13,0,0,0-1.84,1.23,3.34,3.34,0,0,0-.91,2,2.42,2.42,0,0,0-2.51-.17,2.15,2.15,0,0,0-.62.91,21.61,21.61,0,0,0-1.29,7.86,6,6,0,0,1-.28,1.91,4,4,0,0,0-.37,1.09.31.31,0,0,0,0,.21c.09.12.27.07.41,0l3.56-1.57c2.32-1,4.77-2.15,6.14-4.28a10.56,10.56,0,0,0,1.09-2.47,9.51,9.51,0,0,0,.58-3.27A6,6,0,0,0,23.24,15.1Z"/></clipPath><clipPath id="clip-path-2"><path class="cls-2" d="M22.9,18.84a.78.78,0,0,0,.48.09,15.81,15.81,0,0,0,3.31-.4,3.15,3.15,0,0,0,2.13-1.39,1.3,1.3,0,0,0-.24-1.45,2.92,2.92,0,0,0-.87-.44,2.28,2.28,0,0,1-1.21-2.12,5.29,5.29,0,0,0-.37-2.55A2.65,2.65,0,0,0,24.5,9.44a7.93,7.93,0,0,0-2-.19,1,1,0,0,0-.79.24.94.94,0,0,0-.06.79,16.23,16.23,0,0,1,.77,5c0,.48-.13.95-.13,1.43a4.85,4.85,0,0,0,.37,1.74A.77.77,0,0,0,22.9,18.84Z"/></clipPath><clipPath id="clip-path-3"><path class="cls-3" d="M16.14,15.43a1.75,1.75,0,0,1,1.47.28,4.4,4.4,0,0,1,1.7,2.19,8.24,8.24,0,0,1,.46,2.77A3,3,0,0,1,19.58,22a1.26,1.26,0,0,1-1.05-.3,4.78,4.78,0,0,1-2.32-3.62,4.43,4.43,0,0,1-2.7,4.21c.14-.9.68-1.71.8-2.61.15-1.2-.46-2.47,0-3.58a.59.59,0,0,1,.18-.26c.22-.17.54,0,.82,0A3.4,3.4,0,0,0,16.14,15.43Z"/></clipPath><clipPath id="clip-path-4"><path class="cls-1" d="M17.17,47.39a1.65,1.65,0,0,0,1.23.55,3.33,3.33,0,0,0,1.35-.3,5.12,5.12,0,0,0,1.84-1.23,3.34,3.34,0,0,0,.91-2,2.42,2.42,0,0,0,2.51.17,2.15,2.15,0,0,0,.62-.91,21.63,21.63,0,0,0,1.29-7.86,6,6,0,0,1,.28-1.91,4,4,0,0,0,.37-1.09.3.3,0,0,0,0-.21c-.09-.12-.27-.07-.41,0l-3.57,1.57c-2.32,1-4.77,2.15-6.14,4.28a10.59,10.59,0,0,0-1.09,2.47,9.5,9.5,0,0,0-.58,3.27A6,6,0,0,0,17.17,47.39Z"/></clipPath><clipPath id="clip-path-5"><path class="cls-2" d="M17.51,43.65a.79.79,0,0,0-.48-.09,16.08,16.08,0,0,0-3.31.4,3.16,3.16,0,0,0-2.13,1.39,1.3,1.3,0,0,0,.23,1.45,2.93,2.93,0,0,0,.87.44,2.28,2.28,0,0,1,1.21,2.12,5.29,5.29,0,0,0,.37,2.55A2.66,2.66,0,0,0,15.91,53a7.92,7.92,0,0,0,2,.19,1,1,0,0,0,.79-.24.94.94,0,0,0,.06-.8,16.22,16.22,0,0,1-.77-5c0-.47.13-.95.13-1.43A4.85,4.85,0,0,0,17.75,44,.78.78,0,0,0,17.51,43.65Z"/></clipPath><clipPath id="clip-path-6"><path class="cls-3" d="M24.27,47.06a1.75,1.75,0,0,1-1.47-.28,4.38,4.38,0,0,1-1.7-2.19,8.28,8.28,0,0,1-.46-2.77,3,3,0,0,1,.19-1.31,1.26,1.26,0,0,1,1.05.3,4.78,4.78,0,0,1,2.32,3.62,4.43,4.43,0,0,1,2.7-4.21c-.14.9-.68,1.71-.79,2.61-.15,1.2.46,2.47,0,3.58a.61.61,0,0,1-.18.25c-.22.17-.54,0-.82,0A3.37,3.37,0,0,0,24.27,47.06Z"/></clipPath></defs><title>Fichier 40</title><g id="Calque_2" data-name="Calque 2"><g id="Layer_1" data-name="Layer 1"><rect class="cls-4" x="0.09" y="0.09" width="40.74" height="62.1" rx="3.45" ry="3.45"/><path class="cls-4" d="M37.39,62.29H3.54A3.55,3.55,0,0,1,0,58.74V3.54A3.55,3.55,0,0,1,3.54,0H37.39a3.55,3.55,0,0,1,3.54,3.54v55.2A3.55,3.55,0,0,1,37.39,62.29ZM3.54.19A3.36,3.36,0,0,0,.19,3.54v55.2A3.36,3.36,0,0,0,3.54,62.1H37.39a3.36,3.36,0,0,0,3.36-3.36V3.54A3.36,3.36,0,0,0,37.39.19Z"/><path class="cls-1" d="M32.13,39.57l-.19-4a1.65,1.65,0,0,1,.09-.79,3.08,3.08,0,0,1,1-.9,3.66,3.66,0,0,0,1.4-2.72,4.84,4.84,0,0,0-.93-2.88,3.13,3.13,0,0,1-.44-.74c-.2-.6.12-1.22.14-1.84,0-1.26-1.12-2.33-2.33-3.13a15.4,15.4,0,0,0-5-2.24,25.92,25.92,0,0,0-3.08-.46,37.74,37.74,0,0,0-6.08-.3,12.84,12.84,0,0,0-5.72,1.51c-1.75,1-4.48,1.43-5.31,4.69C4.64,29.6,7.15,38,7.51,38.45c7.57,8.94,17.43,1.11,18.3,1.06a11.91,11.91,0,0,1,3.8.07,10.91,10.91,0,0,0,1.19.35A1.77,1.77,0,0,0,32.13,39.57Z"/><path class="cls-1" d="M8.27,22.92q.1,2,.19,4a1.62,1.62,0,0,1-.09.79,3.09,3.09,0,0,1-1,.9A3.66,3.66,0,0,0,6,31.29a4.84,4.84,0,0,0,.93,2.88,3.22,3.22,0,0,1,.44.74c.2.6-.12,1.22-.14,1.84,0,1.26,1.12,2.33,2.33,3.13a15.44,15.44,0,0,0,5,2.24,25.91,25.91,0,0,0,3.08.46,37.94,37.94,0,0,0,6.08.31,12.89,12.89,0,0,0,5.72-1.51c1.75-1,4.48-1.43,5.31-4.69,1-3.79.7-9.44.68-10,0-.37-.77-5.8-8.73-6.56-7.4-.71-16.9,2.48-17.15,2.44A1.79,1.79,0,0,0,8.27,22.92Z"/><path class="cls-5" d="M19.94.83a.31.31,0,0,1,.34,0,.8.8,0,0,1,.24.27A3.73,3.73,0,0,1,21,2.59a3.19,3.19,0,0,1-1.84.19A10.29,10.29,0,0,1,19.81,1,.48.48,0,0,1,19.94.83Z"/><path class="cls-5" d="M7.07,37.44a4.71,4.71,0,0,0,3.47,3.89,1,1,0,0,0,.42.08,1.12,1.12,0,0,0,.57-.3c7.33-5.84,15.77-9.48,22.71-15.84a4.25,4.25,0,0,0,.66-.83.52.52,0,0,0-.13-.33,12.56,12.56,0,0,0-2-2.39,3.48,3.48,0,0,0-2.59-.91c-1.73,0-4,2.27-6,3.63-4.78,3.31-8.33,5-13,8.55a35.63,35.63,0,0,0-3.88,3.4,1.2,1.2,0,0,0-.36.54A1.12,1.12,0,0,0,7.07,37.44Z"/><path class="cls-6" d="M22.1,17.3a10.51,10.51,0,0,0,1.7-6.88,2.54,2.54,0,0,0-.32-1.32,2.39,2.39,0,0,0-1.29-.81,9.91,9.91,0,0,0-7.94.82c-.2.12-.42.28-.44.51a.75.75,0,0,0,.3.54,11.22,11.22,0,0,0,1.35,1.13c-1.49,1.64-3,3.47-3.24,5.67a8.66,8.66,0,0,0,2.54-1.23,12.59,12.59,0,0,0-.41,2.59,2.18,2.18,0,0,0,.2,1.24,2.41,2.41,0,0,0,2,.83,5,5,0,0,0,2-.1A4.87,4.87,0,0,0,20,19.34,12.77,12.77,0,0,0,22.1,17.3Z"/><path class="cls-7" d="M12.77,27.27A4.49,4.49,0,0,1,14.2,28a6.26,6.26,0,0,1,1.5,2.48,5.76,5.76,0,0,1,.54,2,3.81,3.81,0,0,1-1.35,2.87,9.76,9.76,0,0,1-2.73,1.57,10.78,10.78,0,0,1-2.85.93,3.77,3.77,0,0,1-2.85-.67,4.4,4.4,0,0,1-1.41-2.5A6.92,6.92,0,0,1,6.11,29.2a5.58,5.58,0,0,1,4.72-2.36A6.9,6.9,0,0,1,12.77,27.27Z"/><path class="cls-4" d="M20.87,12.7a4.38,4.38,0,0,1-.55.41,2.49,2.49,0,0,1-1.47.21,2.69,2.69,0,0,1-1.29-.64,2.71,2.71,0,0,1-.79-.91,4.53,4.53,0,0,1,4.33-.71c.21.09.55.29.72.39A3.2,3.2,0,0,1,20.87,12.7Z"/><path class="cls-7" d="M27.63,35.22a4.46,4.46,0,0,1-1.42-.76A6.25,6.25,0,0,1,24.71,32a5.78,5.78,0,0,1-.54-2,3.8,3.8,0,0,1,1.35-2.87,9.75,9.75,0,0,1,2.73-1.57,10.79,10.79,0,0,1,2.85-.93,3.78,3.78,0,0,1,2.85.67,4.41,4.41,0,0,1,1.41,2.5,6.92,6.92,0,0,1-1.05,5.47,5.58,5.58,0,0,1-4.72,2.36A6.83,6.83,0,0,1,27.63,35.22Z"/><path class="cls-5" d="M26.24,28.66a3.49,3.49,0,0,0-.39,3.62c.51,1.11,1.7,2.53,3.07,2.35a.26.26,0,0,0,.18-.44c-.73-.69-1.6-1-2.19-1.9a4.11,4.11,0,0,1-.31-3.42c0-.2-.22-.39-.36-.21Z"/><path class="cls-5" d="M28.59,29.13c-1,1.34.16,5.17,1.81,5.55a.34.34,0,0,0,.41-.41c-.22-.87-1-1.59-1.34-2.46a3.81,3.81,0,0,1-.39-2.48c.12-.3-.32-.43-.48-.2Z"/><path class="cls-5" d="M30.68,29.09a5.09,5.09,0,0,1,1,2.81c0,.72-.35,1.57,0,2.21a.32.32,0,0,0,.43.11c.85-.45.73-1.81.64-2.62a4.76,4.76,0,0,0-1.51-3c-.29-.27-.81.09-.57.44Z"/><path class="cls-5" d="M33.71,32.38c1.52-.16,1.16-2.61.93-3.62-.17-.7-1.27-3.91-2.39-2.39a.52.52,0,0,0,.31.77c.66.1,1,1.42,1.16,2a4.15,4.15,0,0,1-.13,3,.14.14,0,0,0,.12.21Z"/><path class="cls-5" d="M27.5,32.12a.23.23,0,0,0,0-.46.23.23,0,0,0,0,.46Z"/><path class="cls-5" d="M30.28,32a.31.31,0,0,0,0-.61.31.31,0,0,0,0,.61Z"/><path class="cls-5" d="M33.26,30.26a.29.29,0,0,0,0-.58.29.29,0,0,0,0,.58Z"/><path class="cls-5" d="M34.72,27.52a.13.13,0,0,0,0-.25.13.13,0,0,0,0,.25Z"/><path class="cls-5" d="M24.78,31a.2.2,0,0,0,0-.4.2.2,0,0,0,0,.4Z"/><path class="cls-5" d="M27.35,31.17a.13.13,0,0,0,0-.27.13.13,0,0,0,0,.27Z"/><path class="cls-5" d="M27.4,30.39a.12.12,0,0,0,0-.24.12.12,0,0,0,0,.24Z"/><path class="cls-5" d="M27.55,29.78a.12.12,0,0,0,0-.23.12.12,0,0,0,0,.23Z"/><path class="cls-5" d="M28,32.47c-.07-.19-.35-.13-.3.07s.36.1.3-.07Z"/><path class="cls-5" d="M28.29,33h0a.11.11,0,1,0,0,.21h0a.1.1,0,0,0,0-.19Z"/><path class="cls-5" d="M30.08,31.14a.21.21,0,0,0,0-.42.21.21,0,0,0,0,.42Z"/><path class="cls-5" d="M29.93,30.46a.19.19,0,0,0,0-.37.19.19,0,0,0,0,.37Z"/><path class="cls-5" d="M29.88,29.67a.1.1,0,0,0,0-.2.1.1,0,0,0,0,.2Z"/><path class="cls-5" d="M30.43,32.5h0a.11.11,0,0,0,0-.21h0a.11.11,0,0,0,0,.21Z"/><path class="cls-5" d="M30.68,33.07a.12.12,0,0,0,0-.25.12.12,0,0,0,0,.25Z"/><path class="cls-5" d="M30.91,33.37l0,0a.08.08,0,0,0,0,.11l0,0c.07.08.2,0,.2-.08s-.13-.16-.2-.08Z"/><path class="cls-5" d="M33,29.28a.22.22,0,0,0,0-.43.22.22,0,0,0,0,.43Z"/><path class="cls-5" d="M32.71,28.78a.17.17,0,0,0,0-.34.17.17,0,0,0,0,.34Z"/><path class="cls-5" d="M32.3,28.25a.15.15,0,0,0,0-.3.15.15,0,0,0,0,.3Z"/><path class="cls-5" d="M31.85,27.9a.15.15,0,0,0,0-.3.15.15,0,0,0,0,.3Z"/><path class="cls-5" d="M33.36,30.94a.16.16,0,0,0,0-.33.16.16,0,0,0,0,.33Z"/><path class="cls-5" d="M33.36,31.63a.14.14,0,0,0,0-.29.14.14,0,0,0,0,.29Z"/><path class="cls-5" d="M33.31,32.19a.1.1,0,0,0,0-.2.1.1,0,0,0,0,.2Z"/><path class="cls-5" d="M34.47,26.61a.13.13,0,0,0,0-.25.13.13,0,0,0,0,.25Z"/><path class="cls-5" d="M34,26a.13.13,0,0,0,0-.27A.13.13,0,0,0,34,26Z"/><path class="cls-5" d="M33.56,25.71a.13.13,0,0,0,0-.25.13.13,0,0,0,0,.25Z"/><path class="cls-5" d="M32.88,25.3l0,0a.07.07,0,0,0,0,.1l0,0c.21.26.21-.42,0-.15Z"/><path class="cls-5" d="M35.08,28H35a0,0,0,1,0,0,0h.05s0-.06,0-.06Z"/><path class="cls-5" d="M35,28.21a.15.15,0,0,0,0-.31.15.15,0,0,0,0,.31Z"/><path class="cls-5" d="M35.16,28.69l0,0a.05.05,0,0,0,0,.08l0,0c.19.2.19-.33,0-.13Z"/><path class="cls-5" d="M35.18,29.48a.11.11,0,0,0,0-.22.11.11,0,0,0,0,.22Z"/><path class="cls-5" d="M24.83,30.19a.12.12,0,0,0,0-.24.12.12,0,0,0,0,.24Z"/><path class="cls-5" d="M25,29.58a.11.11,0,0,0,0-.22.11.11,0,0,0,0,.22Z"/><path class="cls-5" d="M25.38,29a.16.16,0,0,0,0-.31.16.16,0,0,0,0,.31Z"/><path class="cls-5" d="M25.74,28.45a0,0,0,0,0,0-.08,0,0,0,0,0,0,.08Z"/><path class="cls-5" d="M25,31.79a.1.1,0,0,0,0-.2.1.1,0,0,0,0,.2Z"/><path class="cls-5" d="M25.23,32.4a.11.11,0,0,0,0-.21.11.11,0,0,0,0,.21Z"/><path class="cls-5" d="M25.48,33a.13.13,0,0,0,0-.25.13.13,0,0,0,0,.25Z"/><path class="cls-5" d="M25.77,33.43l0,0a.07.07,0,0,0,.09,0l0,0c.21-.2-.35-.2-.14,0Z"/><path class="cls-5" d="M26.24,34a.13.13,0,0,0,0-.25.13.13,0,0,0,0,.25Z"/><path class="cls-5" d="M14.17,33.83a3.48,3.48,0,0,0,.39-3.62c-.51-1.11-1.7-2.53-3.07-2.35a.26.26,0,0,0-.18.44c.73.69,1.6,1,2.19,1.9a4.11,4.11,0,0,1,.31,3.42c0,.19.22.39.36.21Z"/><path class="cls-5" d="M11.82,33.36c1-1.34-.16-5.17-1.81-5.55a.33.33,0,0,0-.41.41c.22.87,1,1.59,1.34,2.46a3.81,3.81,0,0,1,.39,2.48c-.12.3.32.43.48.21Z"/><path class="cls-5" d="M9.73,33.4a5.1,5.1,0,0,1-1-2.81c0-.72.35-1.57,0-2.22a.32.32,0,0,0-.43-.11c-.85.45-.73,1.81-.64,2.62a4.78,4.78,0,0,0,1.51,3c.29.27.81-.09.57-.44Z"/><path class="cls-5" d="M6.69,30.11c-1.52.16-1.16,2.61-.93,3.62.17.7,1.27,3.91,2.39,2.39a.52.52,0,0,0-.31-.76c-.67-.1-1-1.42-1.16-2a4.15,4.15,0,0,1,.13-3,.14.14,0,0,0-.12-.21Z"/><path class="cls-5" d="M12.9,30.83a.23.23,0,0,0,0-.46.23.23,0,0,0,0,.46Z"/><path class="cls-5" d="M10.12,31.11a.31.31,0,0,0,0-.61.31.31,0,0,0,0,.61Z"/><path class="cls-5" d="M7.15,32.81a.29.29,0,0,0,0-.58.29.29,0,0,0,0,.58Z"/><path class="cls-5" d="M5.68,35.22a.13.13,0,0,0,0-.25.13.13,0,0,0,0,.25Z"/><path class="cls-5" d="M15.63,31.86a.2.2,0,0,0,0-.4.2.2,0,0,0,0,.4Z"/><path class="cls-5" d="M13.05,31.59a.13.13,0,0,0,0-.27.13.13,0,0,0,0,.27Z"/><path class="cls-5" d="M13,32.34a.12.12,0,0,0,0-.24.12.12,0,0,0,0,.24Z"/><path class="cls-5" d="M12.85,32.94a.12.12,0,0,0,0-.23.12.12,0,0,0,0,.23Z"/><path class="cls-5" d="M12.4,30c.06.19.35.13.3-.07s-.36-.1-.3.07Z"/><path class="cls-5" d="M12.12,29.48h0a.11.11,0,1,0,0-.21h0a.1.1,0,0,0,0,.19Z"/><path class="cls-5" d="M10.33,31.77a.21.21,0,0,0,0-.42.21.21,0,0,0,0,.42Z"/><path class="cls-5" d="M10.48,32.4a.19.19,0,0,0,0-.37.19.19,0,0,0,0,.37Z"/><path class="cls-5" d="M10.53,33a.1.1,0,0,0,0-.2.1.1,0,0,0,0,.2Z"/><path class="cls-5" d="M10,30h0a.11.11,0,0,0,0,.21h0A.11.11,0,0,0,10,30Z"/><path class="cls-5" d="M9.72,29.67a.12.12,0,0,0,0-.25.12.12,0,0,0,0,.25Z"/><path class="cls-5" d="M9.5,29.12l0,0a.08.08,0,0,0,0-.11l0,0c-.07-.08-.2,0-.2.08s.13.16.2.08Z"/><path class="cls-5" d="M7.45,33.65a.22.22,0,0,0,0-.43.22.22,0,0,0,0,.43Z"/><path class="cls-5" d="M7.7,34.05a.17.17,0,0,0,0-.34.17.17,0,0,0,0,.34Z"/><path class="cls-5" d="M8.11,34.54a.15.15,0,0,0,0-.3.15.15,0,0,0,0,.3Z"/><path class="cls-5" d="M8.56,34.89a.15.15,0,0,0,0-.3.15.15,0,0,0,0,.3Z"/><path class="cls-5" d="M7,31.88a.16.16,0,0,0,0-.33.16.16,0,0,0,0,.33Z"/><path class="cls-5" d="M7,31.15a.14.14,0,0,0,0-.29.14.14,0,0,0,0,.29Z"/><path class="cls-5" d="M7.1,30.5a.1.1,0,0,0,0-.2.1.1,0,0,0,0,.2Z"/><path class="cls-5" d="M5.93,36.13a.13.13,0,0,0,0-.25.13.13,0,0,0,0,.25Z"/><path class="cls-5" d="M6.39,36.74a.13.13,0,0,0,0-.26.13.13,0,0,0,0,.26Z"/><path class="cls-5" d="M6.84,37a.13.13,0,0,0,0-.25.13.13,0,0,0,0,.25Z"/><path class="cls-5" d="M7.53,37.19l0,0a.08.08,0,0,0,0-.1l0,0c-.21-.26-.21.42,0,.15Z"/><path class="cls-5" d="M5.33,34.47h.05a0,0,0,0,0,0,0H5.33s0,.06,0,.06Z"/><path class="cls-5" d="M5.38,34.59a.15.15,0,0,0,0-.31.15.15,0,0,0,0,.31Z"/><path class="cls-5" d="M5.24,33.8l0,0a.06.06,0,0,0,0-.08l0,0c-.19-.19-.19.33,0,.13Z"/><path class="cls-5" d="M5.23,33.24a.11.11,0,0,0,0-.22.11.11,0,0,0,0,.22Z"/><path class="cls-5" d="M15.58,32.54a.12.12,0,0,0,0-.24.12.12,0,0,0,0,.24Z"/><path class="cls-5" d="M15.38,33.14a.11.11,0,0,0,0-.22.11.11,0,0,0,0,.22Z"/><path class="cls-5" d="M15,33.84a.15.15,0,0,0,0-.31.15.15,0,0,0,0,.31Z"/><path class="cls-5" d="M14.67,34.13a0,0,0,0,0,0-.08,0,0,0,0,0,0,.08Z"/><path class="cls-5" d="M15.43,30.9a.1.1,0,0,0,0-.2.1.1,0,0,0,0,.2Z"/><path class="cls-5" d="M15.17,30.3a.11.11,0,0,0,0-.21.11.11,0,0,0,0,.21Z"/><path class="cls-5" d="M14.92,29.77a.13.13,0,0,0,0-.25.13.13,0,0,0,0,.25Z"/><path class="cls-5" d="M14.64,29.06l0,0a.06.06,0,0,0-.09,0l0,0c-.21.2.36.2.14,0Z"/><path class="cls-5" d="M14.17,28.76a.13.13,0,0,0,0-.25.13.13,0,0,0,0,.25Z"/><path class="cls-1" d="M23.24,15.1A1.65,1.65,0,0,0,22,14.55a3.4,3.4,0,0,0-1.35.3,5.13,5.13,0,0,0-1.84,1.23,3.34,3.34,0,0,0-.91,2,2.42,2.42,0,0,0-2.51-.17,2.15,2.15,0,0,0-.62.91,21.61,21.61,0,0,0-1.29,7.86,6,6,0,0,1-.28,1.91,4,4,0,0,0-.37,1.09.31.31,0,0,0,0,.21c.09.12.27.07.41,0l3.56-1.57c2.32-1,4.77-2.15,6.14-4.28a10.56,10.56,0,0,0,1.09-2.47,9.51,9.51,0,0,0,.58-3.27A6,6,0,0,0,23.24,15.1Z"/><g class="cls-8"><path class="cls-7" d="M12.56,30.46a3.67,3.67,0,0,0,1.77-2.55c.38-1.42.63-2.84,1.1-4.24a26.77,26.77,0,0,0,1.14-4.32c.2-1.3-.86-2.13-1.29-3.26a.15.15,0,0,0-.3,0c-.14,1.23,1.2,1.87,1.13,3.16a16.25,16.25,0,0,1-1,4,34.94,34.94,0,0,0-1,3.79,8.33,8.33,0,0,1-.44,1.58,4.34,4.34,0,0,1-.78,1.21c-.36.4-.3.16-.47.5a.07.07,0,0,0,.09.09Z"/><path class="cls-7" d="M13.39,30.52c.8-.22,1.22-1,1.56-1.71a19.75,19.75,0,0,0,1.18-3.17c.47-1.61.93-3.22,1.38-4.84a13.43,13.43,0,0,0,.12-5.39c0-.21-.32-.13-.34,0-.23,1.75.23,3.47-.21,5.22-.36,1.42-.72,2.82-1.18,4.21-.32,1-.61,1.92-1,2.87-.3.79-.67,2.33-1.55,2.72,0,0,0,0,0,0Z"/><path class="cls-7" d="M15.17,30.26c.11-.58.56-.91.87-1.37s.65-1.13,1-1.7a25.59,25.59,0,0,0,1.53-3.91,22,22,0,0,0,.94-4.67c.11-.83.2-1.66.24-2.5a6.77,6.77,0,0,0,.06-2.28.22.22,0,0,0-.43.12,8.62,8.62,0,0,1-.1,2.16c0,.84-.13,1.67-.24,2.5a22.52,22.52,0,0,1-1,4.81,31.69,31.69,0,0,1-1.56,4.13,9.81,9.81,0,0,1-1,1.64,2.3,2.3,0,0,0-.51,1c0,.17.23.24.26.07Z"/><path class="cls-7" d="M16.5,29.32a13.09,13.09,0,0,0,2.61-3.51,29.51,29.51,0,0,0,1.3-4,30.48,30.48,0,0,0,.83-4.1A16.15,16.15,0,0,1,22,13.52c.06-.13,0-.32-.21-.27-.76.24-.62,1.64-.71,2.26-.22,1.61-.46,3.2-.76,4.79a40.05,40.05,0,0,1-1.15,4.1,12.62,12.62,0,0,1-2.79,4.77c-.09.1.06.25.15.15Z"/><path class="cls-7" d="M18.79,28.19c.92-.54,1.17-1.57,1.63-2.47a20.17,20.17,0,0,0,1.23-3.38,28.23,28.23,0,0,0,1.07-4.41c.09-.69.14-1.39.18-2.08a8.78,8.78,0,0,0,.2-2.39.14.14,0,0,0-.26,0A20,20,0,0,0,22.36,17a25.8,25.8,0,0,1-.95,4.56,31.3,31.3,0,0,1-1.06,3.27c-.38,1-.84,2.51-1.68,3.15-.11.08,0,.26.11.19Z"/><path class="cls-7" d="M20.22,27.5a7.86,7.86,0,0,0,1.85-2.65c.6-1.08,1.05-2.2,1.55-3.33a9,9,0,0,0,.53-2.88c.11-1.16.5-2.44-.23-3.47-.05-.08-.2-.06-.19.05a16.41,16.41,0,0,1-.09,3.17,10.29,10.29,0,0,1-.59,3.13c-.41.95-.78,1.91-1.28,2.82s-.89,2.31-1.68,3c-.09.08,0,.24.13.17Z"/></g><path class="cls-3" d="M22.9,18.84a.78.78,0,0,0,.48.09,15.81,15.81,0,0,0,3.31-.4,3.15,3.15,0,0,0,2.13-1.39,1.3,1.3,0,0,0-.24-1.45,2.92,2.92,0,0,0-.87-.44,2.28,2.28,0,0,1-1.21-2.12,5.29,5.29,0,0,0-.37-2.55A2.65,2.65,0,0,0,24.5,9.44a7.93,7.93,0,0,0-2-.19,1,1,0,0,0-.79.24.94.94,0,0,0-.06.79,16.23,16.23,0,0,1,.77,5c0,.48-.13.95-.13,1.43a4.85,4.85,0,0,0,.37,1.74A.77.77,0,0,0,22.9,18.84Z"/><path class="cls-1" d="M26.2,6.88a1,1,0,0,1-.12.49,1.1,1.1,0,0,1-.75.38,28.09,28.09,0,0,1-10.75.4.94.94,0,0,1-.64-.32.92.92,0,0,1-.11-.47,3.85,3.85,0,0,1,.27-1.84,5.5,5.5,0,0,1,1-1.49,6.16,6.16,0,0,1,3-1.63,8.57,8.57,0,0,1,4.63.28,6.29,6.29,0,0,1,2.29,1.45A3.75,3.75,0,0,1,26.2,6.88Z"/><path class="cls-9" d="M28.56,25.11l.28.07Z"/><g class="cls-10"><path class="cls-7" d="M21.92,8.62a18.32,18.32,0,0,1,1.17,7.63c0,1.63-.53,4,1.1,5.1.1.07.2-.06.16-.16a6.2,6.2,0,0,1-.85-2.85c0-1.18.11-2.34,0-3.52a17,17,0,0,0-1.39-6.33c-.07-.15-.29,0-.22.13Z"/><path class="cls-7" d="M23,8.68c1.23,2,.66,4.78.89,7,.19,1.84.13,3.9,2,4.9a.11.11,0,0,0,.15-.15,7.94,7.94,0,0,1-1.42-3.08c-.14-1.11-.26-2.25-.32-3.36-.11-1.94-.07-3.71-1.19-5.38,0-.07-.16,0-.12.07Z"/><path class="cls-7" d="M23.84,8.6c.78.62.82,2.68.88,3.53a23.43,23.43,0,0,0,.33,3.94c.36,1.49.8,3.13,2.07,4.12.08.06.21,0,.15-.12a11.08,11.08,0,0,1-2-5.79,22,22,0,0,0-.38-4c-.13-.64-.28-1.5-.92-1.83-.1-.05-.22.09-.13.16Z"/><path class="cls-7" d="M25.66,8.14c0,.72-.69,1.14-.48,1.94a37.3,37.3,0,0,1,.63,4,17.22,17.22,0,0,0,1,3.88A4.48,4.48,0,0,0,28.7,20.5c.08,0,.18,0,.13-.12-.31-.46-.72-.84-1-1.3A7,7,0,0,1,27,17.29a21.06,21.06,0,0,1-.83-3.9,14,14,0,0,0-.56-3.26c-.3-.77.45-1.31.25-2,0-.1-.18-.08-.17,0Z"/><path class="cls-7" d="M26.7,9.38c-.67,2-.08,4.48.62,6.41.46,1.25,1.37,4.07,3.17,3.72a.13.13,0,0,0,.06-.21c-.6-.49-1.2-.63-1.62-1.37a18.08,18.08,0,0,1-1.16-2.6c-.65-1.71-1.35-4.07-.89-5.9a.09.09,0,0,0-.17,0Z"/></g><path class="cls-5" d="M25.6,10.41A4.13,4.13,0,0,0,27.21,7.6a8.15,8.15,0,0,0-.3-3.29,15.46,15.46,0,0,0-3.2,3.51,15.58,15.58,0,0,0-1.51-4,46.59,46.59,0,0,0-2.84,3.87c-.35-.83-.69-1.66-1.06-2.48a5.3,5.3,0,0,0-1-1.47,13.74,13.74,0,0,0-2.25,4.13,6.64,6.64,0,0,0-1.57-2.52,10.42,10.42,0,0,0-.95-.89,11.14,11.14,0,0,0-.5,3.25,3.75,3.75,0,0,0,1.37,2.88,2,2,0,0,0,1.46.2,30.77,30.77,0,0,1,8.56-.19c.87.1,1.91.18,2.46-.5Z"/><path class="cls-11" d="M12.79,7.42a11.73,11.73,0,0,1,2,2L13,9.43A6.57,6.57,0,0,1,12.79,7.42Z"/><path class="cls-11" d="M17.26,7.07s.06,0,.08,0a14.67,14.67,0,0,1,1.24,2.28l-2.34-.08a.77.77,0,0,1,.12-.5l.87-1.7A.07.07,0,0,1,17.26,7.07Z"/><path class="cls-11" d="M22.81,9.5c-.71-.07-1.66-.13-2.38-.13A17.51,17.51,0,0,1,21.89,7,6.23,6.23,0,0,1,22.81,9.5Z"/><path class="cls-11" d="M24.17,9.56c.28-.35.5-.58.8-.91s.89-.79,1.34-1.19a4.33,4.33,0,0,1-.42,1.87.45.45,0,0,1-.11.17.49.49,0,0,1-.35.07Z"/><path class="cls-12" d="M30.83,21.43c.27-1.47.44-3.11.71-4.58.07-.39.62-4,.73-4.61.12,0,.55.07.66.07a6.11,6.11,0,0,1-.31-1.2,1,1,0,0,0,1.12.14c.28-.15.26-.58.23-.83-.2-1.76-.57-3-.79-4.5a22.16,22.16,0,0,1-2.25,3.48,2.32,2.32,0,0,0-.44.71.7.7,0,0,0,.17.78,1.15,1.15,0,0,0,1.06.12c-.18.35-.51.69-.67,1,.25,0,.44.1.69.1-.18,1.3-.44,2.38-.64,3.64-.33,2-.68,4.25-1,6.26-.12.8-.88,4.81-.91,4.9a5.05,5.05,0,0,0,.65.13C30,26.66,30.7,22.17,30.83,21.43Z"/><path class="cls-1" d="M16.14,15.43a1.75,1.75,0,0,1,1.47.28,4.4,4.4,0,0,1,1.7,2.19,8.24,8.24,0,0,1,.46,2.77A3,3,0,0,1,19.58,22a1.26,1.26,0,0,1-1.05-.3,4.78,4.78,0,0,1-2.32-3.62,4.43,4.43,0,0,1-2.7,4.21c.14-.9.68-1.71.8-2.61.15-1.2-.46-2.47,0-3.58a.59.59,0,0,1,.18-.26c.22-.17.54,0,.82,0A3.4,3.4,0,0,0,16.14,15.43Z"/><path class="cls-3" d="M16.14,15.43a1.75,1.75,0,0,1,1.47.28,4.4,4.4,0,0,1,1.7,2.19,8.24,8.24,0,0,1,.46,2.77A3,3,0,0,1,19.58,22a1.26,1.26,0,0,1-1.05-.3,4.78,4.78,0,0,1-2.32-3.62,4.43,4.43,0,0,1-2.7,4.21c.14-.9.68-1.71.8-2.61.15-1.2-.46-2.47,0-3.58a.59.59,0,0,1,.18-.26c.22-.17.54,0,.82,0A3.4,3.4,0,0,0,16.14,15.43Z"/><g class="cls-13"><path class="cls-7" d="M14.93,15.19c-.71.3-.52,1.37-.51,2A18.06,18.06,0,0,1,14.35,20c-.12.8-.56,1.49-.73,2.26a.09.09,0,0,0,.16.09,4.68,4.68,0,0,0,1.08-3,20.15,20.15,0,0,0,0-2.19c0-.51-.15-1.39.21-1.8a.11.11,0,0,0-.14-.18Z"/><path class="cls-7" d="M15.61,15c-.63,1-.15,2-.17,3.12a13.42,13.42,0,0,1-.14,2c-.12.71-.52,1.29-.66,2a.11.11,0,0,0,.16.13c.9-.56,1-2,1.06-3a13.45,13.45,0,0,0,0-1.94A4.6,4.6,0,0,1,15.79,15c0-.11-.12-.16-.18-.07Z"/><path class="cls-7" d="M15.77,15.09a3.16,3.16,0,0,1,.39,1c.17.44.33.87.48,1.31.31.89.31,1.85.58,2.75a4.89,4.89,0,0,0,1,1.75c.41.47.84,1.06,1.48,1.18.18,0,.34-.18.19-.32a6.83,6.83,0,0,1-2.52-4c-.19-1.14-.62-2.92-1.54-3.71a.08.08,0,0,0-.11.11Z"/><path class="cls-7" d="M16.71,14.88A4.54,4.54,0,0,1,17.82,17c.29.9.51,1.81.84,2.69s1.2,2.93,2.4,2.7a.14.14,0,0,0,.06-.23,15.92,15.92,0,0,1-1.46-1.72,11.22,11.22,0,0,1-1-2.58c-.35-1.13-.65-2.59-1.79-3.18-.09,0-.21.08-.12.15Z"/></g><path class="cls-1" d="M19.34,12.67a.64.64,0,1,0-.65-.64.65.65,0,0,0,.65.64Z"/><path class="cls-1" d="M14.53,15.85c.46-.18,1,.08,1.45-.16a1,1,0,0,0,.55-.79.77.77,0,0,0-.26-.72c-.22-.13-.64-.07-.66.24a.11.11,0,0,0,.08.1c.16.06.34-.11.47,0s.07.41,0,.56c-.12.35-.52.42-.84.43a1.4,1.4,0,0,0-.86.21c-.06,0,0,.16.05.13Z"/><path class="cls-7" d="M15.18,4.63a.15.15,0,0,0,0-.3.15.15,0,0,0,0,.3Z"/><path class="cls-11" d="M15.9,4.3a.16.16,0,0,0-.05.09.15.15,0,0,0,.18.18h0l-.12,0h0a.17.17,0,1,0,0-.27Z"/><path class="cls-11" d="M18.57,4.53a.15.15,0,0,0,0-.3.15.15,0,0,0,0,.3Z"/><path class="cls-11" d="M19.61,4.54a.19.19,0,0,0,0-.39.19.19,0,0,0,0,.39Z"/><path class="cls-11" d="M20.75,4.59a.24.24,0,0,0,0-.47.24.24,0,0,0,0,.47Z"/><path class="cls-11" d="M23.43,4.54a.19.19,0,0,0,0-.39.19.19,0,0,0,0,.39Z"/><path class="cls-11" d="M24.37,4.47a.22.22,0,0,0,0-.44.22.22,0,0,0,0,.44Z"/><path class="cls-7" d="M18.5,29.54l0,0,2.57-.77h0l.52.28h0L21,28.76a2.21,2.21,0,0,0-1.16-.11A2.23,2.23,0,0,0,20,33.06h.06l.57,0a2.21,2.21,0,0,0,1-.46l.4-.42a2.24,2.24,0,0,0,.42-1.1v0a2.21,2.21,0,0,0-2.57-2.38l-.54.16a2.21,2.21,0,0,0-.87.71Z"/><path class="cls-7" d="M21.29,28.47a.41.41,0,0,0,.26-.68.44.44,0,0,0-.4-.15.42.42,0,0,0-.26.68.44.44,0,0,0,.4.15Z"/><path class="cls-7" d="M17.22,30.24a.43.43,0,0,0,.3-.8.43.43,0,0,0-.3.8Z"/><path class="cls-7" d="M22.91,32a.4.4,0,1,0-.24-.52.41.41,0,0,0,.24.52Z"/><path class="cls-7" d="M19.65,33.85a.57.57,0,0,0-.12-.29l-.12-.11a.52.52,0,0,0-.37-.08l.34.08h0a.46.46,0,0,0-.44,0,.45.45,0,0,0-.25.47h0l.08-.34a.56.56,0,0,0-.09.25.55.55,0,0,0,0,.26.64.64,0,0,0,.21.26.46.46,0,0,0,.46,0,.47.47,0,0,0,.27-.5Z"/><path class="cls-1" d="M19.57,31.4a1,1,0,0,0,.44.32,1,1,0,1,0-.44-.32Z"/><path class="cls-1" d="M20.71,29.62a.39.39,0,0,0,.27-.73.39.39,0,0,0-.27.73Z"/><path class="cls-1" d="M18.67,30.6a.33.33,0,1,0-.19-.42.33.33,0,0,0,.19.42Z"/><path class="cls-1" d="M19.7,32.63a.38.38,0,0,0,.27-.71.38.38,0,0,0-.27.71Z"/><path class="cls-1" d="M21.61,31.63a.35.35,0,1,0-.2-.45.35.35,0,0,0,.2.45Z"/><path class="cls-1" d="M18.23,10.85a2.09,2.09,0,0,0,1.15.1,3.42,3.42,0,0,0,1.36-.15.12.12,0,0,0,0-.21,2.35,2.35,0,0,0-1.18-.06,3,3,0,0,0-1.33.21.07.07,0,0,0,0,.12Z"/><path class="cls-3" d="M28.36,38.09a19.3,19.3,0,0,1-.48-2.83,23,23,0,0,1,0-2.69q.05-1.25.1-2.5l.08-2a.69.69,0,0,1,.14-.47.62.62,0,0,1,.3-.15c.42-.11,2.19-2.48,2.61-2.39.68,3.92-.19,7.52.23,10.34a9,9,0,0,0,2.88-1.92c-.15,1.11-.23,2.31-.37,3.43a9.69,9.69,0,0,1-.38,1.55l-.94,3.12c-.11.37-.27.79-.63.93a1.24,1.24,0,0,1-.42.05A2.4,2.4,0,0,1,29.53,42a2.3,2.3,0,0,1-.4-.9Q28.71,39.6,28.36,38.09Z"/><path class="cls-6" d="M30.2,24.38c-2.49-.87-3.19-.45-3.08,0,.07.3.58.42.88.49s.11.07.39.14a10,10,0,0,0-1.24.09.47.47,0,0,0-.4.47c0,.55,1.19.61,1.36.77a3.72,3.72,0,0,0-1,.08.42.42,0,0,0-.25.48.52.52,0,0,0,.38.37c.33.1.74.14,1.09.21-.22,0-.5,0-.72.07a1.18,1.18,0,0,0-.44.14.43.43,0,0,0-.1.44c0,.19.26.27.44.32a7.39,7.39,0,0,0,2.67.22c.55-.36.6-.76.89-1.52A3.48,3.48,0,0,0,31.12,25,1.46,1.46,0,0,0,30.2,24.38Z"/><path class="cls-1" d="M30.36,24.89a.29.29,0,0,0-.19.36.16.16,0,0,0,.3,0,.22.22,0,0,1,0-.15c.06-.08,0-.2-.13-.17Z"/><path class="cls-1" d="M30.08,25.95a.57.57,0,0,0,0,.4.15.15,0,0,0,.29,0,.57.57,0,0,0,0-.4.12.12,0,0,0-.2,0Z"/><path class="cls-1" d="M30,27.05c-.09.12-.21.33-.09.47a.1.1,0,0,0,.15,0c.07-.09,0-.2.12-.29s-.08-.31-.18-.18Z"/><path class="cls-1" d="M29.65,28.11a1.74,1.74,0,0,0-.06.2c0,.15.18.26.26.11a.75.75,0,0,0,.07-.28c0-.16-.23-.18-.28,0Z"/><path class="cls-5" d="M20.46,61.66a.31.31,0,0,1-.34,0,.77.77,0,0,1-.23-.27,3.73,3.73,0,0,1-.52-1.49,3.17,3.17,0,0,1,1.84-.19,10.37,10.37,0,0,1-.61,1.76A.45.45,0,0,1,20.46,61.66Z"/><path class="cls-6" d="M18.31,45.19a10.5,10.5,0,0,0-1.7,6.88,2.53,2.53,0,0,0,.32,1.32,2.36,2.36,0,0,0,1.29.81,9.91,9.91,0,0,0,7.94-.82c.2-.12.42-.28.44-.51a.75.75,0,0,0-.3-.55A11.49,11.49,0,0,0,25,51.21c1.49-1.63,3-3.47,3.24-5.67a8.61,8.61,0,0,0-2.54,1.23,12.64,12.64,0,0,0,.41-2.59,2.17,2.17,0,0,0-.2-1.24,2.41,2.41,0,0,0-2-.83,5,5,0,0,0-2,.1,4.82,4.82,0,0,0-1.49.95A12.83,12.83,0,0,0,18.31,45.19Z"/><path class="cls-4" d="M19.54,49.79a4.38,4.38,0,0,1,.55-.41,2.48,2.48,0,0,1,1.47-.21,2.66,2.66,0,0,1,1.3.64,2.71,2.71,0,0,1,.79.9,4.54,4.54,0,0,1-4.33.71c-.21-.09-.55-.29-.72-.39A3.19,3.19,0,0,1,19.54,49.79Z"/><path class="cls-1" d="M17.17,47.39a1.65,1.65,0,0,0,1.23.55,3.33,3.33,0,0,0,1.35-.3,5.12,5.12,0,0,0,1.84-1.23,3.34,3.34,0,0,0,.91-2,2.42,2.42,0,0,0,2.51.17,2.15,2.15,0,0,0,.62-.91,21.63,21.63,0,0,0,1.29-7.86,6,6,0,0,1,.28-1.91,4,4,0,0,0,.37-1.09.3.3,0,0,0,0-.21c-.09-.12-.27-.07-.41,0l-3.57,1.57c-2.32,1-4.77,2.15-6.14,4.28a10.59,10.59,0,0,0-1.09,2.47,9.5,9.5,0,0,0-.58,3.27A6,6,0,0,0,17.17,47.39Z"/><g class="cls-14"><path class="cls-7" d="M27.84,32a3.67,3.67,0,0,0-1.77,2.55c-.38,1.42-.63,2.84-1.1,4.24a26.52,26.52,0,0,0-1.14,4.32c-.2,1.3.86,2.13,1.29,3.26a.15.15,0,0,0,.3,0c.14-1.23-1.21-1.87-1.13-3.16a16.23,16.23,0,0,1,1-4,34.82,34.82,0,0,0,1-3.79,8.43,8.43,0,0,1,.44-1.58,4.39,4.39,0,0,1,.78-1.21c.36-.4.3-.15.47-.5a.07.07,0,0,0-.09-.09Z"/><path class="cls-7" d="M27,32c-.8.22-1.22,1-1.56,1.71a19.74,19.74,0,0,0-1.18,3.17c-.47,1.61-.93,3.22-1.38,4.84a13.43,13.43,0,0,0-.12,5.39c0,.21.32.13.34,0,.23-1.75-.23-3.47.21-5.22.36-1.42.72-2.82,1.18-4.21.32-1,.61-1.92,1-2.87S26.15,32.39,27,32c0,0,0,0,0,0Z"/><path class="cls-7" d="M25.24,32.23c-.11.58-.56.91-.87,1.37s-.65,1.13-1,1.7a25.72,25.72,0,0,0-1.54,3.92,22,22,0,0,0-.94,4.67c-.11.83-.2,1.66-.24,2.5a6.83,6.83,0,0,0-.06,2.28.22.22,0,0,0,.43-.12,8.69,8.69,0,0,1,.09-2.16c0-.84.13-1.67.24-2.5a22.49,22.49,0,0,1,1-4.81A31.83,31.83,0,0,1,24,35a9.89,9.89,0,0,1,1-1.64,2.3,2.3,0,0,0,.52-1c0-.17-.23-.24-.26-.07Z"/><path class="cls-7" d="M23.91,33.17a13.09,13.09,0,0,0-2.61,3.51,29.49,29.49,0,0,0-1.3,4,30.55,30.55,0,0,0-.83,4.1A16.23,16.23,0,0,1,18.44,49c-.06.13,0,.32.21.27.76-.24.62-1.64.71-2.25.22-1.61.46-3.2.76-4.8a39.77,39.77,0,0,1,1.15-4.1,12.62,12.62,0,0,1,2.79-4.77c.09-.1-.06-.25-.15-.15Z"/><path class="cls-7" d="M21.62,34.3c-.92.54-1.17,1.57-1.63,2.47a20.11,20.11,0,0,0-1.23,3.38,28,28,0,0,0-1.07,4.41c-.09.69-.14,1.39-.18,2.08a8.8,8.8,0,0,0-.2,2.39.14.14,0,0,0,.26,0A20.13,20.13,0,0,0,18,45.47,25.82,25.82,0,0,1,19,40.91,31.65,31.65,0,0,1,20,37.64c.38-1,.84-2.51,1.68-3.15.11-.08,0-.26-.11-.19Z"/><path class="cls-7" d="M20.18,35a7.89,7.89,0,0,0-1.84,2.65c-.6,1.09-1.05,2.2-1.55,3.33a9,9,0,0,0-.53,2.88c-.11,1.16-.5,2.44.23,3.47.05.08.2.06.19-.05a16.43,16.43,0,0,1,.09-3.18A10.26,10.26,0,0,1,17.35,41c.41-.95.78-1.91,1.28-2.82s.89-2.31,1.69-3c.09-.08,0-.24-.13-.17Z"/></g><path class="cls-3" d="M17.51,43.65a.79.79,0,0,0-.48-.09,16.08,16.08,0,0,0-3.31.4,3.16,3.16,0,0,0-2.13,1.39,1.3,1.3,0,0,0,.23,1.45,2.93,2.93,0,0,0,.87.44,2.28,2.28,0,0,1,1.21,2.12,5.29,5.29,0,0,0,.37,2.55A2.66,2.66,0,0,0,15.91,53a7.92,7.92,0,0,0,2,.19,1,1,0,0,0,.79-.24.94.94,0,0,0,.06-.8,16.22,16.22,0,0,1-.77-5c0-.47.13-.95.13-1.43A4.85,4.85,0,0,0,17.75,44,.78.78,0,0,0,17.51,43.65Z"/><path class="cls-1" d="M14.21,55.61a1,1,0,0,1,.12-.49,1.08,1.08,0,0,1,.75-.37,28.09,28.09,0,0,1,10.75-.4.92.92,0,0,1,.64.32.93.93,0,0,1,.11.47A3.87,3.87,0,0,1,26.3,57a5.53,5.53,0,0,1-1,1.49,6.15,6.15,0,0,1-3,1.63,8.55,8.55,0,0,1-4.63-.28,6.3,6.3,0,0,1-2.29-1.45A3.75,3.75,0,0,1,14.21,55.61Z"/><path class="cls-9" d="M11.85,37.38l-.28-.07Z"/><g class="cls-15"><path class="cls-7" d="M18.49,53.88a18.31,18.31,0,0,1-1.17-7.63c0-1.63.53-4-1.1-5.1-.1-.07-.2.06-.16.15a6.22,6.22,0,0,1,.85,2.85c0,1.18-.11,2.34,0,3.52A17,17,0,0,0,18.26,54c.07.15.29,0,.22-.13Z"/><path class="cls-7" d="M17.38,53.81c-1.23-2-.66-4.78-.89-7-.19-1.84-.13-3.91-2-4.9a.11.11,0,0,0-.15.15,8,8,0,0,1,1.42,3.08c.14,1.11.26,2.25.32,3.36.11,1.94.07,3.71,1.19,5.38,0,.07.16,0,.12-.07Z"/><path class="cls-7" d="M16.56,53.89c-.78-.62-.82-2.68-.88-3.53a23.37,23.37,0,0,0-.33-3.94c-.36-1.49-.8-3.13-2.07-4.12-.08-.06-.21,0-.15.11a11.08,11.08,0,0,1,2,5.79,22.2,22.2,0,0,0,.38,4c.13.64.28,1.5.92,1.83.1.05.22-.09.13-.16Z"/><path class="cls-7" d="M14.75,54.35c0-.73.69-1.14.48-1.94a37.29,37.29,0,0,1-.63-4,17.25,17.25,0,0,0-1-3.88A4.49,4.49,0,0,0,11.71,42c-.08,0-.18,0-.13.13.31.46.72.84,1,1.3a7,7,0,0,1,.81,1.78,20.78,20.78,0,0,1,.83,3.9,14,14,0,0,0,.56,3.26c.3.77-.45,1.31-.25,2,0,.1.18.08.18,0Z"/><path class="cls-7" d="M13.71,53.11c.67-2,.08-4.49-.62-6.41-.46-1.25-1.37-4.07-3.17-3.72a.13.13,0,0,0-.06.21c.6.48,1.2.63,1.63,1.37a18.29,18.29,0,0,1,1.16,2.6c.65,1.71,1.34,4.07.89,5.9a.09.09,0,0,0,.17,0Z"/></g><path class="cls-5" d="M14.81,52.08a4.13,4.13,0,0,0-1.62,2.81,8.16,8.16,0,0,0,.3,3.29,15.5,15.5,0,0,0,3.2-3.51,15.57,15.57,0,0,0,1.51,4A46.9,46.9,0,0,0,21,54.76c.35.83.69,1.66,1.06,2.48a5.33,5.33,0,0,0,1,1.47,13.73,13.73,0,0,0,2.25-4.13A6.63,6.63,0,0,0,26.9,57.1a10.16,10.16,0,0,0,.95.89,11.07,11.07,0,0,0,.5-3.25A3.75,3.75,0,0,0,27,51.87a2,2,0,0,0-1.46-.2,30.71,30.71,0,0,1-8.56.19c-.87-.1-1.91-.18-2.46.5Z"/><path class="cls-11" d="M27.62,55.07a11.8,11.8,0,0,1-2-2l1.75,0A6.56,6.56,0,0,1,27.62,55.07Z"/><path class="cls-11" d="M23.14,55.42s-.06,0-.08,0a14.84,14.84,0,0,1-1.24-2.28l2.34.08a.76.76,0,0,1-.12.5l-.87,1.71Z"/><path class="cls-11" d="M17.6,53c.71.07,1.66.13,2.38.13a17.47,17.47,0,0,1-1.46,2.36A6.21,6.21,0,0,1,17.6,53Z"/><path class="cls-11" d="M16.24,52.93c-.28.35-.5.58-.8.91s-.89.79-1.34,1.19a4.34,4.34,0,0,1,.42-1.87.5.5,0,0,1,.12-.17.51.51,0,0,1,.35-.07Z"/><path class="cls-12" d="M9.58,41.06c-.27,1.47-.44,3.11-.71,4.58-.07.39-.62,4-.73,4.61-.12,0-.55-.07-.66-.07a6.13,6.13,0,0,1,.31,1.2,1,1,0,0,0-1.12-.14c-.28.14-.26.58-.23.83.21,1.75.57,3,.79,4.5a22.07,22.07,0,0,1,2.25-3.48,2.33,2.33,0,0,0,.44-.72.7.7,0,0,0-.17-.78,1.15,1.15,0,0,0-1.06-.12c.18-.35.51-.69.67-1-.25,0-.44-.1-.69-.1.18-1.29.44-2.38.65-3.64.33-2,.68-4.25,1-6.26.12-.8.88-4.81.91-4.9a5.83,5.83,0,0,0-.65-.13C10.39,35.83,9.71,40.32,9.58,41.06Z"/><path class="cls-1" d="M24.27,47.06a1.75,1.75,0,0,1-1.47-.28,4.38,4.38,0,0,1-1.7-2.19,8.28,8.28,0,0,1-.46-2.77,3,3,0,0,1,.19-1.31,1.26,1.26,0,0,1,1.05.3,4.78,4.78,0,0,1,2.32,3.62,4.43,4.43,0,0,1,2.7-4.21c-.14.9-.68,1.71-.79,2.61-.15,1.2.46,2.47,0,3.58a.61.61,0,0,1-.18.25c-.22.17-.54,0-.82,0A3.37,3.37,0,0,0,24.27,47.06Z"/><path class="cls-3" d="M24.27,47.06a1.75,1.75,0,0,1-1.47-.28,4.38,4.38,0,0,1-1.7-2.19,8.28,8.28,0,0,1-.46-2.77,3,3,0,0,1,.19-1.31,1.26,1.26,0,0,1,1.05.3,4.78,4.78,0,0,1,2.32,3.62,4.43,4.43,0,0,1,2.7-4.21c-.14.9-.68,1.71-.79,2.61-.15,1.2.46,2.47,0,3.58a.61.61,0,0,1-.18.25c-.22.17-.54,0-.82,0A3.37,3.37,0,0,0,24.27,47.06Z"/><g class="cls-16"><path class="cls-7" d="M25.47,47.3c.71-.3.52-1.37.51-2a18,18,0,0,1,.08-2.87c.12-.8.56-1.49.73-2.26a.1.1,0,0,0-.16-.09,4.68,4.68,0,0,0-1.08,3,20.14,20.14,0,0,0,0,2.19c0,.51.15,1.39-.21,1.8a.11.11,0,0,0,.14.18Z"/><path class="cls-7" d="M24.79,47.53c.63-1,.15-2,.17-3.11a13.41,13.41,0,0,1,.14-2c.12-.71.52-1.3.66-2a.11.11,0,0,0-.16-.12c-.9.56-1,2-1.06,3a13.45,13.45,0,0,0,0,1.94,4.63,4.63,0,0,1,.05,2.23c0,.11.12.17.18.07Z"/><path class="cls-7" d="M24.64,47.4a3.12,3.12,0,0,1-.39-1c-.17-.43-.33-.87-.48-1.31-.31-.89-.31-1.85-.58-2.75a4.88,4.88,0,0,0-1-1.75c-.41-.47-.84-1.06-1.48-1.18a.19.19,0,0,0-.19.32,6.83,6.83,0,0,1,2.52,4c.19,1.14.62,2.92,1.54,3.71a.08.08,0,0,0,.11-.11Z"/><path class="cls-7" d="M23.7,47.61a4.55,4.55,0,0,1-1.11-2.17c-.29-.89-.51-1.81-.84-2.69s-1.2-2.92-2.4-2.69c-.11,0-.12.16-.06.23A15.79,15.79,0,0,1,20.75,42a11.23,11.23,0,0,1,1,2.58c.35,1.13.65,2.59,1.79,3.18.09,0,.21-.08.12-.15Z"/></g><path class="cls-1" d="M21.07,49.82a.65.65,0,1,0,.64.64.65.65,0,0,0-.64-.64Z"/><path class="cls-1" d="M25.87,46.64c-.46.18-1-.08-1.45.16a1,1,0,0,0-.54.79.77.77,0,0,0,.26.73c.22.13.64.07.65-.24a.11.11,0,0,0-.08-.1c-.16-.06-.34.12-.47,0s-.07-.41,0-.56c.12-.35.52-.42.84-.43a1.4,1.4,0,0,0,.86-.22c.06,0,0-.15-.05-.12Z"/><path class="cls-7" d="M25.22,57.86a.15.15,0,0,0,0,.3.15.15,0,0,0,0-.3Z"/><path class="cls-11" d="M24.5,58.2a.16.16,0,0,0,.05-.09.15.15,0,0,0-.18-.18h0l.12,0h0a.17.17,0,1,0,0,.27Z"/><path class="cls-11" d="M21.84,58a.15.15,0,0,0,0,.3.15.15,0,0,0,0-.3Z"/><path class="cls-11" d="M20.8,57.95a.19.19,0,0,0,0,.39.19.19,0,0,0,0-.39Z"/><path class="cls-11" d="M19.66,57.91a.24.24,0,0,0,0,.47.24.24,0,0,0,0-.47Z"/><path class="cls-11" d="M17,57.95a.19.19,0,0,0,0,.39.19.19,0,0,0,0-.39Z"/><path class="cls-11" d="M16,58a.22.22,0,0,0,0,.44A.22.22,0,0,0,16,58Z"/><path class="cls-1" d="M22.17,51.64a2.07,2.07,0,0,0-1.15-.1,3.42,3.42,0,0,0-1.36.15.12.12,0,0,0,0,.21,2.35,2.35,0,0,0,1.18.06,3,3,0,0,0,1.33-.2.07.07,0,0,0,0-.12Z"/><path class="cls-3" d="M12,24.4a19.38,19.38,0,0,1,.48,2.83,22.91,22.91,0,0,1,0,2.69l-.1,2.5-.08,2a.7.7,0,0,1-.14.47.64.64,0,0,1-.3.15c-.42.11-2.19,2.48-2.61,2.4-.68-3.93.19-7.52-.23-10.34A9,9,0,0,0,6.19,29c.15-1.11.23-2.32.37-3.43a9.86,9.86,0,0,1,.38-1.55l.95-3.12c.11-.37.27-.79.63-.92A1.24,1.24,0,0,1,8.93,20a2.41,2.41,0,0,1,1.94.55,2.35,2.35,0,0,1,.4.9Q11.7,22.9,12,24.4Z"/><path class="cls-6" d="M10.21,38.11c2.49.87,3.19.45,3.08,0-.07-.3-.58-.42-.88-.49s-.11-.07-.39-.14a9.79,9.79,0,0,0,1.24-.09.47.47,0,0,0,.4-.46c0-.55-1.19-.61-1.36-.77a3.71,3.71,0,0,0,1-.07.43.43,0,0,0,.25-.48.51.51,0,0,0-.38-.37c-.33-.1-.74-.15-1.09-.21.22,0,.5,0,.72-.07a1.17,1.17,0,0,0,.44-.14.43.43,0,0,0,.1-.44c0-.18-.26-.26-.44-.32a7.4,7.4,0,0,0-2.67-.22c-.55.37-.6.76-.89,1.52a3.47,3.47,0,0,0-.06,2.11A1.46,1.46,0,0,0,10.21,38.11Z"/><path class="cls-1" d="M10,37.6a.29.29,0,0,0,.19-.36.15.15,0,0,0-.3,0,.22.22,0,0,1,0,.15.12.12,0,0,0,.13.17Z"/><path class="cls-1" d="M10.32,36.55a.58.58,0,0,0,0-.4.15.15,0,0,0-.29,0,.57.57,0,0,0,0,.4.12.12,0,0,0,.2,0Z"/><path class="cls-1" d="M10.45,35.44c.09-.12.21-.33.09-.47a.1.1,0,0,0-.15,0c-.07.09,0,.2-.12.29s.08.31.18.18Z"/><path class="cls-1" d="M10.76,34.38a1.85,1.85,0,0,0,.06-.2c0-.15-.18-.26-.26-.11a.75.75,0,0,0-.07.28c0,.16.23.19.28,0Z"/><path class="cls-1" d="M35.44,50.65c0-.1,0-.25,0-.35a2.81,2.81,0,0,0,0-.31,1.42,1.42,0,0,0-.43-.93c.24,0,.84,0,1.08,0a1.42,1.42,0,0,0-.43.93,2.81,2.81,0,0,0,0,.31c0,.1,0,.25,0,.35Z"/><path class="cls-1" d="M35.53,50.26a1.16,1.16,0,0,0-1-.54.89.89,0,0,0-.84.68,1.11,1.11,0,0,0,.33.93,4.48,4.48,0,0,0,.84.61,4.64,4.64,0,0,1,.7.67,9,9,0,0,1,.7-.66,6.42,6.42,0,0,0,.84-.62,1.11,1.11,0,0,0,.33-.93.9.9,0,0,0-.84-.68,1.16,1.16,0,0,0-1,.54Z"/><path class="cls-1" d="M5.36,11.36c0,.1,0,.25,0,.35a2.56,2.56,0,0,0,0,.31,1.42,1.42,0,0,0,.43.93c-.24,0-.84,0-1.08,0A1.42,1.42,0,0,0,5.11,12a2.56,2.56,0,0,0,0-.31c0-.1,0-.25,0-.35Z"/><path class="cls-1" d="M5.27,11.75a1.16,1.16,0,0,0,1,.54.9.9,0,0,0,.84-.68,1.11,1.11,0,0,0-.33-.93,4.53,4.53,0,0,0-.84-.61,4.7,4.7,0,0,1-.7-.67,9.16,9.16,0,0,1-.7.66,6.63,6.63,0,0,0-.84.62,1.11,1.11,0,0,0-.33.93.9.9,0,0,0,.84.68,1.16,1.16,0,0,0,1-.54Z"/><path class="cls-1" d="M7.87,8.74H7.08L5.36,5.57,4,7.21V8.74H3.32V3H4V6.33L6.64,3h.78L5.86,5Z"/><path class="cls-1" d="M33.06,53.54h.79l1.72,3.18,1.32-1.64V53.54h.72v5.75h-.72V56l-2.6,3.33h-.78l1.56-2Z"/><path class="cls-3" d="M14.92,59.11H6.19a3.11,3.11,0,0,1-3-3.19V15.66a.09.09,0,0,1,.19,0V55.92a2.92,2.92,0,0,0,2.82,3h8.73A.09.09,0,0,1,15,59,.09.09,0,0,1,14.92,59.11Z"/><path class="cls-3" d="M32.78,59.11H26.58a.09.09,0,0,1-.09-.09.09.09,0,0,1,.09-.09h6.19a.09.09,0,0,1,.09.09A.09.09,0,0,1,32.78,59.11Z"/><path class="cls-3" d="M37.65,46.92a.09.09,0,0,1-.09-.09V6.36a2.92,2.92,0,0,0-2.82-3H26.12A.09.09,0,0,1,26,3.27a.09.09,0,0,1,.09-.09h8.62a3.1,3.1,0,0,1,3,3.19V46.82A.1.1,0,0,1,37.65,46.92Z"/><path class="cls-3" d="M14.45,3.36h-6a.09.09,0,0,1-.09-.09.09.09,0,0,1,.09-.09h6a.09.09,0,0,1,.09.09A.09.09,0,0,1,14.45,3.36Z"/></g></g></svg>