<svg xmlns="http://www.w3.org/2000/svg" xmlns:xlink="http://www.w3.org/1999/xlink" viewBox="0 0 41.08 62.51"><defs><style>.cls-1{fill:none;}.cls-2{fill:#fff;}.cls-3{fill:#fcc07e;}.cls-4{fill:#191956;}.cls-5{fill:#0c0a35;}.cls-6{fill:#b70027;}.cls-7{clip-path:url(#clip-path);}.cls-8{fill:#222272;}.cls-9{fill:#ffd6a1;}.cls-10{fill:#f70032;}.cls-11{clip-path:url(#clip-path-2);}.cls-12{fill:#990028;}.cls-13{clip-path:url(#clip-path-3);}.cls-14{clip-path:url(#clip-path-4);}</style><clipPath id="clip-path"><path class="cls-1" d="M25.84,56.44C27,55.29,27,49.19,27,49c0-.73-.62-4.67-.32-5.37s.79-.82,1.12-1.34A1.86,1.86,0,0,0,28,40.58a2.08,2.08,0,0,0-1.17-1,4.27,4.27,0,0,0-3.66.32,4.47,4.47,0,0,0-.69.56,1.71,1.71,0,0,0-.39.59,3.53,3.53,0,0,0-.19,1.53,22.86,22.86,0,0,0,.93,4.83,5.13,5.13,0,0,0,.48,1.29C23.87,49.66,22.39,57.07,25.84,56.44Z"/></clipPath><clipPath id="clip-path-2"><path class="cls-1" d="M25.06,57.45a2.48,2.48,0,0,0,1-1.55,4.92,4.92,0,0,0,0-1.31,2.22,2.22,0,0,0-1-.06,35.13,35.13,0,0,1-6.09,0c.44-2.84-.16-5.73-.14-8.61a14.2,14.2,0,0,0-.3-4.53c-.43-1.63-1.34-1.7-2.51-1.68a4.89,4.89,0,0,0-3.13.93,3.07,3.07,0,0,0-.61,3.24,2.91,2.91,0,0,0,2,1.55.86.86,0,0,1,.54.29.77.77,0,0,1,.08.37l.36,6.28a9.77,9.77,0,0,0,.5,2.55,3.56,3.56,0,0,0,1.85,1.88,4.79,4.79,0,0,0,2.12,1l3.1.15a4.34,4.34,0,0,0,1.28-.06Z"/></clipPath><clipPath id="clip-path-3"><path class="cls-1" d="M15.49,6.26c-1.13,1.15-1.18,7.26-1.18,7.41,0,.73.62,4.67.32,5.37s-.79.82-1.12,1.34a1.86,1.86,0,0,0-.17,1.74,2.09,2.09,0,0,0,1.17,1,4.27,4.27,0,0,0,3.66-.32,4.53,4.53,0,0,0,.69-.56,1.72,1.72,0,0,0,.39-.59,3.55,3.55,0,0,0,.19-1.53,22.8,22.8,0,0,0-.93-4.83A5.13,5.13,0,0,0,18,14C17.46,13,18.95,5.64,15.49,6.26Z"/></clipPath><clipPath id="clip-path-4"><path class="cls-1" d="M16.28,5.25a2.49,2.49,0,0,0-1,1.55,5,5,0,0,0,0,1.31,2.23,2.23,0,0,0,1,.06,35.18,35.18,0,0,1,6.08,0c-.44,2.84.16,5.73.14,8.61a14.22,14.22,0,0,0,.3,4.53C23.21,23,24.12,23,25.29,23a4.89,4.89,0,0,0,3.13-.93A3.07,3.07,0,0,0,29,18.83a2.91,2.91,0,0,0-2-1.55.85.85,0,0,1-.54-.29.78.78,0,0,1-.08-.37q-.18-3.14-.36-6.28a9.77,9.77,0,0,0-.5-2.55,3.56,3.56,0,0,0-1.85-1.88,4.79,4.79,0,0,0-2.12-1l-3.1-.15a4.38,4.38,0,0,0-1.28.06Z"/></clipPath></defs><title>Fichier 13</title><g id="Calque_2" data-name="Calque 2"><g id="Layer_1" data-name="Layer 1"><rect class="cls-2" x="0.09" y="0.09" width="40.89" height="62.32" rx="3.46" ry="3.46"/><path class="cls-2" d="M37.52,62.51h-34A3.56,3.56,0,0,1,0,59V3.56A3.56,3.56,0,0,1,3.56,0h34a3.56,3.56,0,0,1,3.56,3.56V59A3.56,3.56,0,0,1,37.52,62.51ZM3.56.19A3.37,3.37,0,0,0,.19,3.56V59a3.37,3.37,0,0,0,3.37,3.37h34A3.37,3.37,0,0,0,40.89,59V3.56A3.37,3.37,0,0,0,37.52.19Z"/><path class="cls-3" d="M31.77,38.36a2.08,2.08,0,0,1-.25.94,2.51,2.51,0,0,1-1.08.88,11.33,11.33,0,0,1-5.49.84,2.33,2.33,0,0,0-1.69.34,1.49,1.49,0,0,0-.39.93,6.77,6.77,0,0,0,0,2.09.66.66,0,0,1,0,.43.79.79,0,0,1-.39.3c-1.06.49-3.27,2.39-4.38,2.8-.18-1.25.71-4-.25-5s-2.79-1.31-4.37-1.52-3.3-.49-4.35-1.56a3.85,3.85,0,0,1-1-2.4,10.86,10.86,0,0,1,.19-2.6.6.6,0,0,1,.15-.37.86.86,0,0,1,.63-.12,17.12,17.12,0,0,0,3-.2A35.52,35.52,0,0,1,21.19,34c1,.14,2,.34,3,.48a20.69,20.69,0,0,0,4.44.17,4.86,4.86,0,0,1,1.92.08c.6.21,1.09.82.84,1.34A4.91,4.91,0,0,1,31.77,38.36Z"/><path class="cls-3" d="M9.57,24.35a2.07,2.07,0,0,1,.25-.94,2.51,2.51,0,0,1,1.08-.88,11.33,11.33,0,0,1,5.49-.84,2.33,2.33,0,0,0,1.69-.34,1.49,1.49,0,0,0,.39-.93,6.77,6.77,0,0,0,0-2.09.68.68,0,0,1,0-.43.79.79,0,0,1,.39-.3c1.06-.49,3.27-2.39,4.38-2.8.19,1.25-.71,4,.25,5s2.79,1.31,4.38,1.52,3.3.5,4.35,1.56a3.85,3.85,0,0,1,1,2.4,10.82,10.82,0,0,1-.19,2.6.6.6,0,0,1-.15.37.86.86,0,0,1-.63.12,17.13,17.13,0,0,0-3,.2,35.5,35.5,0,0,1-9.07.15c-1-.14-2-.34-3-.49A20.72,20.72,0,0,0,12.73,28,4.87,4.87,0,0,1,10.81,28c-.6-.21-1.09-.82-.84-1.34A4.9,4.9,0,0,1,9.57,24.35Z"/><path class="cls-4" d="M30.44,25.13c.36,0,2.64-.89,2.87-.05.34,1.25-.55,3.42-.2,4.46.29.87-1.33,2.12-1.27,3,.12,1.77.55,5.3-.14,5.34s-2.42-.22-3.11-.25c-6.58-.25-10.49-.14-16.27-.4a15.77,15.77,0,0,0-2.59.19c-.54.08-2,1.15-2.18-.15a35.48,35.48,0,0,1,0-5c.07-.84.14-1.69.25-2.53a31.13,31.13,0,0,1,.85-4.29,1,1,0,0,1,.19-.43,1.24,1.24,0,0,1,.53-.31c2.88-1.06,6.13-.81,9.23-.55a22.38,22.38,0,0,1,3.33.45C22.71,24.86,28.87,25,30.44,25.13Z"/><path class="cls-5" d="M25.84,56.44C27,55.29,27,49.19,27,49c0-.73-.62-4.67-.32-5.37s.79-.82,1.12-1.34A1.86,1.86,0,0,0,28,40.58a2.08,2.08,0,0,0-1.17-1,4.27,4.27,0,0,0-3.66.32,4.47,4.47,0,0,0-.69.56,1.71,1.71,0,0,0-.39.59,3.53,3.53,0,0,0-.19,1.53,22.86,22.86,0,0,0,.93,4.83,5.13,5.13,0,0,0,.48,1.29C23.87,49.66,22.39,57.07,25.84,56.44Z"/><path class="cls-5" d="M7.58,38a.73.73,0,0,1,0-.49A.8.8,0,0,1,8,37.21a40.17,40.17,0,0,0,8-5.74c1.32-1.1,9.45-8,12-10a1.43,1.43,0,0,1,.43-.26,1.45,1.45,0,0,1,.74,0,8.81,8.81,0,0,1,2.82,1,2.89,2.89,0,0,1,1.32,2.89c-2.84,1.42-7,5.49-11.36,8.42-1,.65-7.42,6-9.08,8.12a.92.92,0,0,1-.32.3,2.72,2.72,0,0,1-1.1,0A6.42,6.42,0,0,1,7.58,38Z"/><path class="cls-6" d="M25.2,53.11c1.2-.86,2.28-3.59.5-4.46a.1.1,0,0,0-.14.14A2.93,2.93,0,0,1,26.16,51a4.29,4.29,0,0,1-1,2s0,.14.07.1Z"/><path class="cls-6" d="M25.66,48.72a3.13,3.13,0,0,0-.46-.86,2.12,2.12,0,0,0-.71-.74.1.1,0,0,0-.15.11,2,2,0,0,0,.53.75c.23.26.46.53.68.8,0,0,.13,0,.11-.06Z"/><path class="cls-6" d="M24.77,52.52a1.57,1.57,0,0,0,.11-2.83c-.08,0-.18,0-.13.13a3.83,3.83,0,0,1,.6,1.05,1.46,1.46,0,0,1-.64,1.49.09.09,0,0,0,.07.16Z"/><g class="cls-7"><path class="cls-6" d="M26.35,57a3.89,3.89,0,0,1-.53-2.83c.18-.94,1.12-1.45,1.48-2.3a4.74,4.74,0,0,0-.87-4.73,5.39,5.39,0,0,1-.81-3.08c0-.9.36-1.77.36-2.69a3,3,0,0,0-.7-1.73c-.26-.35-.56-.64-.81-1A10.33,10.33,0,0,1,24,37.26c-.05-.11-.24,0-.2.08a7.43,7.43,0,0,0,.76,2c.23.35.53.64.75,1a3.15,3.15,0,0,1,.22,2.17,6.61,6.61,0,0,0,.6,4.84,6.12,6.12,0,0,1,1.18,3.19c0,1.23-1,2-1.59,3A3.13,3.13,0,0,0,26.31,57a0,0,0,0,0,0,0Z"/><path class="cls-6" d="M27,56.22c-.73-.32-.63-1-.27-1.61s.85-.79,1-1.31a.11.11,0,0,0-.16-.12,3.2,3.2,0,0,0-1.48,1.92c-.06.58.26,1.24.92,1.2,0,0,.06-.06,0-.08Z"/><path class="cls-6" d="M28.33,47.61a.74.74,0,0,0-.29-.34,3.9,3.9,0,0,1-.74-1,3.08,3.08,0,0,1-.1-3.48,3.22,3.22,0,0,0-1-4.45c-.09,0-.21.05-.15.15.34.55.83.85,1.06,1.51a3.77,3.77,0,0,1,0,2.07A13.38,13.38,0,0,0,26.33,44a2.73,2.73,0,0,0,.38,2.08c.26.32.44.77.71,1.06s.57.3.79.53a.07.07,0,0,0,.12-.07Z"/><path class="cls-6" d="M24.3,46a5.13,5.13,0,0,1,.27-2.67,3.82,3.82,0,0,0,.48-1.66A3.56,3.56,0,0,0,23.17,39c-.07,0-.16,0-.12.11a8.81,8.81,0,0,0,.85,1,2.45,2.45,0,0,1,.47,2.48c-.13.51-.44.92-.54,1.44a6.49,6.49,0,0,0,.27,2c0,.12.2.13.2,0Z"/><path class="cls-6" d="M23.35,44.73a3.67,3.67,0,0,1,.16-2.19,2.4,2.4,0,0,0,.11-1.26,2.57,2.57,0,0,0-1.38-1.88.08.08,0,0,0-.1.13c.83.88,1.43,1.66,1.11,2.94a4.19,4.19,0,0,0-.12,2.33c0,.14.25.08.22-.06Z"/><path class="cls-6" d="M22.63,44.77c-.31-1.07.33-2.27,0-3.39-.19-.69-.7-1.51-1.49-1.53a.12.12,0,0,0-.06.22A3,3,0,0,1,22.33,43c0,.46-.19,1.45.24,1.8a0,0,0,0,0,.06,0Z"/></g><path class="cls-8" d="M16.95,58.07c0,.07-.1.08-.16.07a6.27,6.27,0,0,1-.82-.25,4.47,4.47,0,0,1-1.85-1.24A6.14,6.14,0,0,1,13,52.82a20,20,0,0,0-.63-4.33c0-.34,2.5-.34,3-.31.13,2,.27,4,.59,6a5.85,5.85,0,0,0,.46,1.66A2.22,2.22,0,0,0,17.61,57a1.84,1.84,0,0,1-1,1.17Z"/><path class="cls-9" d="M24.68,55.64a4.09,4.09,0,0,0,.51-3.89,1,1,0,0,1-.1-.43,20,20,0,0,1,1.46-2,.65.65,0,0,0,.12-.31c0-.27-.3-.45-.57-.49a2,2,0,0,1-.8-.17c-.38-.24-.37-.79-.36-1.24A3.81,3.81,0,0,0,24,44.19a2.92,2.92,0,0,0-3.1-.46,4.57,4.57,0,0,0-2.26,2.33,9.41,9.41,0,0,0-.45,1.2,18.41,18.41,0,0,0-.79,4.29,7.15,7.15,0,0,0,.11,2.09,3.26,3.26,0,0,0,1,1.78,3.61,3.61,0,0,0,1,.56,6.39,6.39,0,0,0,4.1.17,2.43,2.43,0,0,0,1.19-.67Z"/><path class="cls-5" d="M25.06,57.45a2.48,2.48,0,0,0,1-1.55,4.92,4.92,0,0,0,0-1.31,2.22,2.22,0,0,0-1-.06,35.13,35.13,0,0,1-6.09,0c.44-2.84-.16-5.73-.14-8.61a14.2,14.2,0,0,0-.3-4.53c-.43-1.63-1.34-1.7-2.51-1.68a4.89,4.89,0,0,0-3.13.93,3.07,3.07,0,0,0-.61,3.24,2.91,2.91,0,0,0,2,1.55.86.86,0,0,1,.54.29.77.77,0,0,1,.08.37l.36,6.28a9.77,9.77,0,0,0,.5,2.55,3.56,3.56,0,0,0,1.85,1.88,4.79,4.79,0,0,0,2.12,1l3.1.15a4.34,4.34,0,0,0,1.28-.06Z"/><path class="cls-10" d="M25.27,46a.31.31,0,0,0,0-.22.58.58,0,0,0-.76-.23c-.1,0-.39.24-.49.3a6.31,6.31,0,0,1-1.53.69A3.09,3.09,0,0,1,23.8,47a6.24,6.24,0,0,0,.73.38.67.67,0,0,0,.8-.15.24.24,0,0,0,.06-.13.67.67,0,0,0-.37-.58S25.23,46.26,25.27,46Z"/><path class="cls-5" d="M19.89,53.64a3,3,0,0,0,3.61,0,.1.1,0,0,0-.07-.17c-.56,0-1.08.31-1.64.38a3.77,3.77,0,0,1-1.83-.28c-.06,0-.1.06-.06.1Z"/><path class="cls-5" d="M22.92,52c.09.13.15.27.24.4s.15.25.29.22a.07.07,0,0,0,.05-.07.15.15,0,0,0-.06-.13.89.89,0,0,1-.12-.17c-.07-.12-.13-.26-.2-.38s-.29,0-.2.12Z"/><path class="cls-5" d="M21.71,51.94c-.14.18-.12.46-.2.68s-.13.47,0,.6a.08.08,0,0,0,.1,0,.89.89,0,0,0,.14-.56,4.16,4.16,0,0,0,0-.71s0,0-.06,0Z"/><path class="cls-5" d="M22.17,52a.78.78,0,0,0,.06.56c0,.1.08.2.12.3s0,.16.13.2a.06.06,0,0,0,.07,0c.13-.11,0-.32,0-.45a2.37,2.37,0,0,0-.25-.62.07.07,0,0,0-.13,0Z"/><path class="cls-5" d="M20.55,51.78c-.34,0-.91.23-1,.62a.06.06,0,0,0,.07.07,1,1,0,0,0,.4-.24,4.66,4.66,0,0,1,.52-.37,0,0,0,0,0,0-.09Z"/><path class="cls-5" d="M21,52.06a1.09,1.09,0,0,0-.54.81.08.08,0,0,0,.1.07c.34-.09.44-.55.5-.84a0,0,0,0,0-.06,0Z"/><path class="cls-5" d="M21.68,51.72a1.32,1.32,0,0,0,.08-.54c0-.15,0-.35-.11-.46a.08.08,0,0,0-.11,0c-.12.12-.07.3,0,.46s.09.36.12.54.05,0,.06,0Z"/><path class="cls-5" d="M22.27,51.66c0-.14.09-.29.14-.43a.5.5,0,0,0,0-.41.08.08,0,0,0-.1,0c-.13.07-.14.23-.17.36a1.6,1.6,0,0,0,0,.48.08.08,0,0,0,.15,0Z"/><path class="cls-5" d="M22.85,51.68a1.63,1.63,0,0,0,.26-.37,1,1,0,0,0,.19-.37.06.06,0,0,0-.06-.06c-.16,0-.23.15-.3.28s-.13.3-.19.46.06.1.1.06Z"/><path class="cls-5" d="M21,51.77c.28-.14,0-1-.27-.85s0,.4.06.51.11.39.21.34Z"/><path class="cls-5" d="M20.53,51.82a1.18,1.18,0,0,0-.06-.4.5.5,0,0,0-.28-.31.13.13,0,0,0-.12,0c-.11.11,0,.26.11.33s.09.13.14.19l.16.17a0,0,0,0,0,0,0Z"/><path class="cls-2" d="M23.86,51.72a3.49,3.49,0,0,1-4.25.1,2.52,2.52,0,0,1,1-.36,7.28,7.28,0,0,1,1.06-.13,5.24,5.24,0,0,1,1.27.11A3.14,3.14,0,0,1,23.86,51.72Z"/><path class="cls-5" d="M21.71,51.42a.43.43,0,1,0,.43.43.44.44,0,0,0-.43-.43Z"/><g class="cls-11"><path class="cls-6" d="M24.75,58.18a1.62,1.62,0,0,0,.8-1.73,2.31,2.31,0,0,0-.36-.93c-.61-1-.25-1.63.14-2.58a.08.08,0,0,0-.12-.09,2.08,2.08,0,0,0-.28,3.07,1.78,1.78,0,0,1-.26,2.17s0,.13.07.09Z"/><path class="cls-6" d="M23.78,58.49a1.91,1.91,0,0,0,.54-1.66,4.5,4.5,0,0,0-.55-1.13c-.58-1,.07-1.79.3-2.7a.12.12,0,0,0-.19-.11,2.87,2.87,0,0,0-.74,2.18,2.51,2.51,0,0,0,.45,1.12,2.2,2.2,0,0,1,.12,2.24s0,.11.08.06Z"/><path class="cls-6" d="M22.59,58.13a2,2,0,0,0,.11-2c-.15-.41-.42-.77-.58-1.17-.29-.73.27-1.44.38-2.15a.11.11,0,0,0-.18-.1,2.39,2.39,0,0,0-.77,2c.1,1.28,1.5,1.94,1,3.37,0,0,0,.06.06,0Z"/><path class="cls-6" d="M21.75,58.23a1.84,1.84,0,0,0-.44-1.8,2.82,2.82,0,0,1-.61-1.66c0-.71.39-1.25.51-1.91a.1.1,0,0,0-.14-.11c-.8.36-.87,1.54-.83,2.31.07,1.24,1.45,1.93,1.37,3.14,0,.08.12.09.14,0Z"/><path class="cls-6" d="M20.75,58.46a2.75,2.75,0,0,0-1-2.3c-1.17-1.2.11-2.53.26-3.8a.11.11,0,0,0-.18-.08,4.45,4.45,0,0,0-1,2.89,1.79,1.79,0,0,0,.41,1.06,4.33,4.33,0,0,1,1.43,2.23s.07,0,.07,0Z"/><path class="cls-6" d="M19.86,58.12c-.15-.56-.7-1-1-1.49a4.92,4.92,0,0,1-.66-3.74c.23-1,.77-1.85,1-2.84a4.31,4.31,0,0,0-.46-2.29,14.05,14.05,0,0,1-.89-2.95A6.52,6.52,0,0,1,18.69,42a3.38,3.38,0,0,0-.79-3.59c-.06-.06-.18,0-.13.1,1.25,1.88.48,3.33-.13,5.23-.49,1.53.5,3.43,1.07,4.81.77,1.87-.94,3.8-1,5.72a5.15,5.15,0,0,0,.64,2.19c.35.75.93,1,1.36,1.67a.06.06,0,0,0,.12,0Z"/><path class="cls-6" d="M20.25,47.37A3.93,3.93,0,0,1,19,45a19,19,0,0,1,.27-2.29.1.1,0,0,0-.19-.05,3.53,3.53,0,0,0,1.06,4.85c.11.08.25-.05.15-.15Z"/><path class="cls-6" d="M18,57.84a4.9,4.9,0,0,1-1-2,6.39,6.39,0,0,1,.48-3.33c.48-1.43,1.25-2.63.5-4.17A12.75,12.75,0,0,1,16.83,46a5,5,0,0,1,.45-3.51A3.51,3.51,0,0,0,17,38.61c-.07-.08-.22,0-.18.1a4.35,4.35,0,0,1,.26,2.9,16.75,16.75,0,0,0-.86,2.45,6.73,6.73,0,0,0,.22,2.36,23.4,23.4,0,0,0,1.1,2.38c.7,1.85-1,3.79-1.12,5.65-.09,1.27.2,2.85,1.43,3.45,0,0,.11,0,.08-.08Z"/><path class="cls-6" d="M15.88,56.6a11.09,11.09,0,0,1-.05-2.77c.22-1,.6-1.84.9-2.77.61-1.88-.32-3.32-.95-5a4.28,4.28,0,0,1-.2-3,25.36,25.36,0,0,0,1-2.51c.33-1.47-.55-2.38-1.67-3.12-.12-.08-.25.07-.19.19.35.67,1,1,1.26,1.77.39,1.06-.38,2.23-.81,3.14a4.8,4.8,0,0,0,.19,4c.31.81.76,1.56,1,2.39A4.77,4.77,0,0,1,16,52a18,18,0,0,0-.74,2.45,4.43,4.43,0,0,0,.44,2.18.08.08,0,0,0,.15,0Z"/><path class="cls-6" d="M14.61,52.89a4.37,4.37,0,0,0,1-3.37c-.11-1-.45-2.29-1.5-2.66a.16.16,0,0,0-.17.23c1.13,1.63,1.8,3.88.53,5.67-.07.1.09.22.17.13Z"/><path class="cls-6" d="M14.71,45.85a3.08,3.08,0,0,1-.38-3.14,10.47,10.47,0,0,0,1-2.38,2.34,2.34,0,0,0-2-2.43.13.13,0,0,0-.13.22c.56.53,1.28.85,1.54,1.64.32,1-.68,2.17-1,3A2.53,2.53,0,0,0,14.6,46a.08.08,0,0,0,.11-.11Z"/><path class="cls-6" d="M13.49,45.49a3.61,3.61,0,0,1-.2-3.41,4.23,4.23,0,0,0,.54-1.75,2.16,2.16,0,0,0-1.8-2c-.08,0-.11.1-.06.15A5.18,5.18,0,0,1,13.27,40c.34.83-.42,1.79-.68,2.55a3.26,3.26,0,0,0,.74,3,.09.09,0,0,0,.16-.09Z"/></g><path class="cls-4" d="M25.79,59.86a6.79,6.79,0,0,1,.22.85.1.1,0,0,1-.13.11c-.16,0-1.3-1-1.76-1.3a.15.15,0,0,0-.22.06,12,12,0,0,0-.62,2.23.11.11,0,0,1-.19,0,13.08,13.08,0,0,1-1.27-2,.06.06,0,0,0-.1,0,19.75,19.75,0,0,1-1,2.15.15.15,0,0,1-.26,0c-.32-.72-.37-1.4-.63-2.16,0-.09-.08-.19-.17-.21s-.18.07-.23.16a14.51,14.51,0,0,1-1.27,2,.18.18,0,0,1-.29-.08c-.2-.82-.12-2.23-.38-2.4s-1.43,1.4-2,1.4c0,0,0,0,0,0A10.61,10.61,0,0,1,15.92,58a14.67,14.67,0,0,1,.46-2.12A6.56,6.56,0,0,0,18.84,57a14,14,0,0,0,5.86.29.49.49,0,0,1,.33,0,.46.46,0,0,1,.14.19C25.34,57.91,25.49,58.72,25.79,59.86Z"/><path class="cls-10" d="M25.39,59.67a4.69,4.69,0,0,0-.4-.73c-.17-.25-.58,0-.4.24a5.66,5.66,0,0,1,.52.65c.1.19.36,0,.28-.16Z"/><path class="cls-10" d="M23.22,60.45c0-.37.21-.9-.14-1.19a.32.32,0,0,0-.54.31c0,.15.13.29.17.44s.12.32.16.49.37.16.35,0Z"/><path class="cls-10" d="M20.85,60.63a4.67,4.67,0,0,0,.28-1.05c0-.43-.65-.43-.67,0a5.33,5.33,0,0,0,.12,1.05c0,.14.24.13.27,0Z"/><path class="cls-10" d="M18.53,60.21a3.91,3.91,0,0,0,.44-.87c.07-.32-.41-.55-.55-.23a7.45,7.45,0,0,0-.22,1,.18.18,0,0,0,.33.14Z"/><path class="cls-10" d="M16.32,59.46c.27-.34,1.08-.59.79-1.17a.33.33,0,0,0-.51-.06.68.68,0,0,0-.14.25,2.3,2.3,0,0,1-.17.28,2.91,2.91,0,0,0-.29.52c-.07.17.2.33.31.18Z"/><path class="cls-5" d="M25,58.15a.14.14,0,0,0,0,.29.14.14,0,0,0,0-.29Z"/><path class="cls-5" d="M24.49,58.27a.19.19,0,0,0,0,.37.19.19,0,0,0,0-.37Z"/><path class="cls-5" d="M23.94,58.41a.2.2,0,0,0,0,.39.2.2,0,0,0,0-.39Z"/><path class="cls-5" d="M23.25,58.53a.19.19,0,0,0,0,.38.19.19,0,0,0,0-.38Z"/><path class="cls-5" d="M22.5,58.59a.2.2,0,0,0,0,.39.2.2,0,0,0,0-.39Z"/><path class="cls-5" d="M21.79,58.61a.21.21,0,0,0,0,.42.21.21,0,0,0,0-.42Z"/><path class="cls-5" d="M21,58.58a.2.2,0,0,0,0,.4.2.2,0,0,0,0-.4Z"/><path class="cls-5" d="M20.24,58.47a.23.23,0,0,0,0,.47.23.23,0,0,0,0-.47Z"/><path class="cls-5" d="M19.48,58.32a.24.24,0,0,0,0,.48.24.24,0,0,0,0-.48Z"/><path class="cls-5" d="M18.7,58.12a.21.21,0,0,0,0,.41.21.21,0,0,0,0-.41Z"/><path class="cls-5" d="M18,57.86a.24.24,0,0,0,0,.49.24.24,0,0,0,0-.49Z"/><path class="cls-5" d="M17.45,57.63a.22.22,0,0,0,0,.44.22.22,0,0,0,0-.44Z"/><path class="cls-5" d="M16.8,57.5h0a.15.15,0,0,0,0,.28h0a.15.15,0,1,0,0-.28Z"/><path class="cls-5" d="M16.28,57.36a0,0,0,0,0,0,0,0,0,0,0,0,0,0Z"/><path class="cls-5" d="M16.32,57.22a.2.2,0,0,0,0,.41.2.2,0,0,0,0-.41Z"/><path class="cls-4" d="M15.89,56.62l-.27-.28c-.07-.07-.19-.16-.28-.07s0,.21.08.27l.29.26c.13.11.3-.06.18-.18Z"/><path class="cls-4" d="M15.28,56.91a1.71,1.71,0,0,1-.22-.23.55.55,0,0,0-.27-.22.13.13,0,0,0-.16.12c0,.25.3.44.49.53s.26-.1.15-.2Z"/><path class="cls-4" d="M15.84,55.77a1.23,1.23,0,0,0-.19-.34.17.17,0,0,0-.28.17,2.65,2.65,0,0,0,.15.32c.08.18.4,0,.32-.14Z"/><path class="cls-4" d="M14.82,55.78a.72.72,0,0,0-.32-.44c-.1,0-.23,0-.19.15a2.56,2.56,0,0,0,.24.4c.08.14.32,0,.26-.11Z"/><path class="cls-4" d="M15.07,54.84a2.41,2.41,0,0,0-.14-.41.25.25,0,0,0-.15-.16c.07,0,0,0,0,0h-.08c-.13,0-.13.23-.09.33s.14.25.2.38.33,0,.29-.12Z"/><path class="cls-4" d="M15.09,53.46a.92.92,0,0,0-.33-.51.14.14,0,0,0-.2.16c.05.17.22.29.31.45s.27,0,.22-.09Z"/><path class="cls-4" d="M14.09,54.54c0-.15,0-.31-.16-.42a.18.18,0,0,0-.21,0,.17.17,0,0,0-.08.19c0,.11.09.22.14.33a.16.16,0,0,0,.3-.08Z"/><path class="cls-4" d="M13.95,53.31c0-.16,0-.37-.05-.51a.14.14,0,0,0-.24,0,.45.45,0,0,0,0,.27,1.82,1.82,0,0,0,0,.32c0,.18.31.1.28-.08Z"/><path class="cls-4" d="M13.94,55.49c0-.14,0-.29-.12-.4s-.26,0-.23.13a.93.93,0,0,0,.18.34.1.1,0,0,0,.18-.07Z"/><path class="cls-4" d="M14.38,52.32c0-.12,0-.24,0-.36s-.05-.21-.15-.21-.14.12-.15.21a1.29,1.29,0,0,0,.09.39.12.12,0,0,0,.24,0Z"/><path class="cls-4" d="M14.88,51.64c.05-.19.08-.5-.09-.64a.17.17,0,0,0-.28.07c-.08.19.09.38.12.56s.22.11.25,0Z"/><path class="cls-4" d="M13.58,52c0-.14,0-.37-.19-.44a.08.08,0,0,0-.09,0c-.11.14,0,.34,0,.51s.32.11.28-.08Z"/><path class="cls-4" d="M13.9,50.76c-.05-.12,0-.28-.19-.33a.07.07,0,0,0-.09,0,.58.58,0,0,0,.07.4c.06.14.27,0,.21-.12Z"/><path class="cls-4" d="M14.57,50.1a1,1,0,0,0-.08-.43.12.12,0,0,0-.22,0c0,.14,0,.27,0,.41s.26.17.26,0Z"/><path class="cls-4" d="M13.25,50.16c0-.07,0-.14,0-.21a1.91,1.91,0,0,0,0-.21.12.12,0,0,0-.08-.08h0a.12.12,0,0,0-.12.09,1.11,1.11,0,0,0,.07.46c0,.13.26.1.24,0Z"/><path class="cls-4" d="M13.77,49.4a1.26,1.26,0,0,0-.06-.38c-.05-.1-.23-.09-.25,0a1.33,1.33,0,0,0,0,.42c0,.18.31.1.28-.08Z"/><path class="cls-4" d="M14.62,48.92a.7.7,0,0,0-.14-.36.14.14,0,0,0-.14,0c-.2.07,0,.34,0,.48s.34.12.3-.08Z"/><path class="cls-4" d="M13.15,48.85A.33.33,0,0,0,13,48.6a.11.11,0,0,0-.17.1c0,.06,0,.12,0,.19a.13.13,0,1,0,.26,0Z"/><path class="cls-10" d="M20.64,48a.89.89,0,1,0,.89.89.9.9,0,0,0-.89-.89Z"/><path class="cls-10" d="M23.21,40.47a.24.24,0,0,0,0,.47.24.24,0,0,0,0-.47Z"/><path class="cls-10" d="M22.67,40a.2.2,0,0,0,0,.39.2.2,0,0,0,0-.39Z"/><path class="cls-10" d="M22.06,39.79a.21.21,0,0,0,0,.43.21.21,0,0,0,0-.43Z"/><path class="cls-10" d="M21.36,39.66a.21.21,0,0,0,0,.42.21.21,0,0,0,0-.42Z"/><path class="cls-10" d="M20.69,39.62a.22.22,0,0,0,0,.45.22.22,0,0,0,0-.45Z"/><path class="cls-10" d="M20,39.64a.23.23,0,0,0,0,.46.23.23,0,0,0,0-.46Z"/><path class="cls-10" d="M19.32,39.78a.2.2,0,0,0,0,.4.2.2,0,0,0,0-.4Z"/><path class="cls-10" d="M18.62,40a.23.23,0,0,0,0,.47.23.23,0,0,0,0-.47Z"/><path class="cls-10" d="M20.72,38.5a.49.49,0,1,0,.49.49.49.49,0,0,0-.49-.49Z"/><path class="cls-8" d="M29.89,31.93a7.69,7.69,0,0,0,0,2.13c.22,0,.72,2.74.84,2.84,1,.76,1.05-.95.89,0-.05.31-.62.64-.42.92a1.7,1.7,0,0,0,1.29-.19,1.68,1.68,0,0,0,.86-1.1,1.11,1.11,0,0,0-.33-1.16c-.11-.11-.25-.21-.35-.33a1.45,1.45,0,0,1-.31-.87A13.41,13.41,0,0,0,31.88,32a.28.28,0,0,0-.17-.21,1,1,0,0,0-.29-.05c-.37,0-.74-.05-1.12-.06a.86.86,0,0,0-.29,0A.2.2,0,0,0,29.89,31.93Z"/><path class="cls-10" d="M31.8,48.78c0,.83,0,1.26,0,1.76,0,.18-.19.38-.28.28s-.35-3.46-.85-3.37a23.28,23.28,0,0,0,0,3c0,.23-.13.49-.26.46s-.29-2.86-.57-3.24c-.14-.19-.3,1.84-.47,2.73,0,.23-.2.59-.33.41a9.81,9.81,0,0,1-.18-2.64c0-1-.09-1.24.19-1.68s.42-.16.8-.45c.1-.08.12-.47.13-.6.06-1,0-1.77.07-2.76,0-.78-.38-6.66-.43-7.34a.84.84,0,0,1,.06-.48c.08-.14.25-.4.36,1.48a89.83,89.83,0,0,1,.25,9.44.38.38,0,0,0,.32.37c.24.06.47-.14.92.52A6,6,0,0,1,31.8,48.78Z"/><path class="cls-9" d="M32.26,39.91a1.09,1.09,0,0,1-.77.48,12.58,12.58,0,0,1-1.68-.16.34.34,0,0,1-.27-.17c0-.06-.14-.35.3-.48a1.59,1.59,0,0,1,.42-.05c.34,0,1.18.13,1.21,0s-1.5-.26-2-.57a.37.37,0,0,1-.15-.14c-.09-.18,0-.34.24-.4.46-.14,1.09.24,1.78.26a.05.05,0,0,0,0-.1c-.64-.27-1.54-.53-1.86-1-.11-.17.08-.38.29-.4s1.22.54,1.42.49.06-.14-.19-.27a4.6,4.6,0,0,1-.87-.59.37.37,0,0,1-.11-.39c.07-.2.37-.08.54-.07a3.64,3.64,0,0,1,.86.41c.19.11.12-.29.11-.52s0-.69.19-.76a1.2,1.2,0,0,1,1,.3A.86.86,0,0,1,33,36a2.18,2.18,0,0,1,.22.54A4.74,4.74,0,0,1,32.26,39.91Z"/><path class="cls-12" d="M30.27,40a.42.42,0,0,0-.3-.25.75.75,0,0,0-.21,0h-.12l-.06,0a.19.19,0,0,0-.13.23c0-.09,0,.08,0,.09a.32.32,0,0,0,.07.09.5.5,0,0,0,.22.11.54.54,0,0,0,.41,0,.19.19,0,0,0,.09-.21Z"/><path class="cls-12" d="M29.88,38.67a.54.54,0,0,0-.49-.19.28.28,0,0,0-.12.46.61.61,0,0,0,.44.15.25.25,0,0,0,.21-.12.24.24,0,0,0,0-.3Z"/><path class="cls-12" d="M30.06,37.63s0-.1,0,0,0-.16,0-.1a.7.7,0,0,0-.14-.21.35.35,0,0,0-.33-.11.24.24,0,0,0-.19.18.33.33,0,0,0,.09.3l.06,0h0l.12.08c.15.07.4.06.42-.15Z"/><path class="cls-12" d="M30.58,36.68a.64.64,0,0,0-.1-.19.41.41,0,0,0-.26-.2c-.17,0-.36.1-.3.3s.31.4.52.32a.19.19,0,0,0,.13-.23Z"/><path class="cls-5" d="M32.27,39.95a.49.49,0,0,0,0-.21.11.11,0,0,0-.21,0c0,.06,0,.12-.05.17s.18.21.23.06Z"/><path class="cls-5" d="M32.36,39.18a.36.36,0,0,0,0-.3c-.05-.15-.3-.14-.29,0a1.16,1.16,0,0,1,0,.2c0,.13.17.16.23.06Z"/><path class="cls-5" d="M32.46,38.3a.33.33,0,0,0,0-.3.12.12,0,0,0-.19.05,1.68,1.68,0,0,0,0,.22c0,.13.2.16.23,0Z"/><path class="cls-5" d="M32.43,37.27a.38.38,0,0,0-.16-.24.13.13,0,0,0-.19.15,2.19,2.19,0,0,0,.1.2c.07.14.29,0,.25-.1Z"/><path class="cls-10" d="M31.39,41.8a1.08,1.08,0,0,0-.83-.44.79.79,0,0,0-.27,0,.14.14,0,0,0-.07,0,.16.16,0,0,0,0,.17,1.12,1.12,0,0,0,.5.66,1.83,1.83,0,0,0,1,.31v0C31.59,42.3,31.54,42,31.39,41.8Z"/><path class="cls-10" d="M30.09,40.64a.1.1,0,0,1,0,.06.88.88,0,0,1-.66.64,5.3,5.3,0,0,1-1,.12,2.5,2.5,0,0,1,.26-.42,1.63,1.63,0,0,1,.19-.2A1.18,1.18,0,0,1,30,40.6.1.1,0,0,1,30.09,40.64Z"/><path class="cls-8" d="M29.08,28.61A3.82,3.82,0,0,0,28.53,31a5.39,5.39,0,0,0,.22,1.34,5.38,5.38,0,0,0,1,1.61c.14.17,0,.5.22.64.7.56,1.63-.1,2.52,0a1.49,1.49,0,0,1,.42-.71c.53-.59,1-.57,1.52-1.48.79-1.29.24-2.78-.66-4-.56-.74-1.76-.71-2.59-.69A2.58,2.58,0,0,0,29.08,28.61Z"/><path class="cls-12" d="M30.09,32.67a9,9,0,0,1-.15-2.27c0-.65.6-1.08.56-1.69a.38.38,0,0,0-.71-.19,3.61,3.61,0,0,0-.62,1.89,6.28,6.28,0,0,0,.56,2.42c.09.21.4.05.36-.15Z"/><path class="cls-12" d="M31.48,32.88a4.61,4.61,0,0,0,.48-2c0-.69-.18-1.37-.11-2.05s-.81-.54-.84,0a16.24,16.24,0,0,0,.17,1.77c0,.74,0,1.46,0,2.2a.19.19,0,0,0,.36.1Z"/><path class="cls-12" d="M32.83,33a4,4,0,0,0,.7-2.26c0-.64-.12-1.64-.72-2a.23.23,0,0,0-.33.13c-.21.56.27,1.24.29,1.84a7.56,7.56,0,0,1-.29,2.12.19.19,0,0,0,.34.14Z"/><path class="cls-10" d="M30,33.83h0a.15.15,0,0,0,.11.11h0a.17.17,0,1,0-.12-.12Z"/><path class="cls-10" d="M30.67,33.61a.18.18,0,0,0,0,.36.18.18,0,0,0,0-.36Z"/><path class="cls-10" d="M31.24,33.63a.16.16,0,0,0,0,.32.16.16,0,0,0,0-.32Z"/><path class="cls-10" d="M31.77,33.62a.19.19,0,0,0,0,.38.19.19,0,0,0,0-.38Z"/><path class="cls-10" d="M32.33,33.66a.17.17,0,0,0,0,.35.17.17,0,0,0,0-.35Z"/><path class="cls-10" d="M26.71,36.85a.19.19,0,0,0,0,.38.19.19,0,0,0,0-.38Z"/><path class="cls-10" d="M27.75,34.68v0c-.07-.16-.31-.1-.34,0v0a.19.19,0,1,0,.35-.05Z"/><path class="cls-10" d="M28.41,35.73a.16.16,0,0,0,0,.32.16.16,0,0,0,0-.32Z"/><path class="cls-10" d="M29.54,33.62a.2.2,0,0,0,0,.39.2.2,0,0,0,0-.39Z"/><path class="cls-10" d="M28.13,33.12h0a.16.16,0,0,0-.23.13v0a.17.17,0,1,0,.25-.14Z"/><path class="cls-10" d="M26.18,35.18v0a.19.19,0,0,0-.37,0v0a.2.2,0,1,0,.38,0Z"/><path class="cls-10" d="M24.63,36.54a.23.23,0,0,0,0,.46.23.23,0,0,0,0-.46Z"/><path class="cls-10" d="M23.33,34.72a.19.19,0,0,0,0,.39.19.19,0,0,0,0-.39Z"/><path class="cls-10" d="M22.05,36.62a.19.19,0,0,0,0,.37.19.19,0,0,0,0-.37Z"/><path class="cls-10" d="M24.51,33.63a.24.24,0,0,0,.07-.22.16.16,0,0,0-.15-.12.16.16,0,0,0-.16.16v0l0-.08h0c-.15.15.09.38.23.23Z"/><path class="cls-10" d="M25.5,31.66a.18.18,0,0,0,0,.36.18.18,0,0,0,0-.36Z"/><path class="cls-10" d="M22.07,35.14a.23.23,0,0,0,0,.46.23.23,0,0,0,0-.46Z"/><path class="cls-10" d="M23.46,36.22h0a.18.18,0,0,0-.27.15v0a.19.19,0,1,0,.28-.16Z"/><path class="cls-10" d="M20.57,35.23a.18.18,0,0,0,0,.36.18.18,0,0,0,0-.36Z"/><path class="cls-10" d="M20.42,36.44a.22.22,0,0,0,0,.45.22.22,0,0,0,0-.45Z"/><path class="cls-10" d="M27.33,36.05a.18.18,0,0,0,0-.12.17.17,0,0,0-.34,0h0l0-.08h0c-.19.15.12.44.28.22Z"/><path class="cls-10" d="M28,29.75a.16.16,0,0,0,0,.31.16.16,0,0,0,0-.31Z"/><path class="cls-10" d="M27.26,31.94a.21.21,0,0,0,0,.42.21.21,0,0,0,0-.42Z"/><path class="cls-10" d="M25.13,34.07a.23.23,0,0,0,0,.45.23.23,0,0,0,0-.45Z"/><path class="cls-10" d="M26.57,33.51v0a.2.2,0,0,0-.23-.29.19.19,0,0,0-.13.11.2.2,0,0,0,.07.27.2.2,0,0,0,.27-.07Z"/><path class="cls-10" d="M26.56,30.61h0a.2.2,0,0,0-.2.15.21.21,0,0,0,.09.23l0,0a.22.22,0,0,0,.32-.13.22.22,0,0,0-.21-.27Z"/><path class="cls-10" d="M28,31.19v0a.17.17,0,0,0-.12-.16.16.16,0,0,0-.2.11v0c-.05.26.36.27.33,0Z"/><path class="cls-10" d="M32.93,26.2v0a.17.17,0,0,0-.34,0v0c0,.22.34.22.34,0Z"/><path class="cls-10" d="M31.47,26.73a.24.24,0,0,0,0,.48.24.24,0,0,0,0-.48Z"/><path class="cls-10" d="M32.54,27.06c-.07,0-.12,0-.11.11v0a.1.1,0,1,0,.12-.12Z"/><path class="cls-5" d="M15.49,6.26c-1.13,1.15-1.18,7.26-1.18,7.41,0,.73.62,4.67.32,5.37s-.79.82-1.12,1.34a1.86,1.86,0,0,0-.17,1.74,2.09,2.09,0,0,0,1.17,1,4.27,4.27,0,0,0,3.66-.32,4.53,4.53,0,0,0,.69-.56,1.72,1.72,0,0,0,.39-.59,3.55,3.55,0,0,0,.19-1.53,22.8,22.8,0,0,0-.93-4.83A5.13,5.13,0,0,0,18,14C17.46,13,18.95,5.64,15.49,6.26Z"/><path class="cls-6" d="M16.13,9.59c-1.2.86-2.28,3.59-.5,4.46.09,0,.2,0,.14-.14a2.93,2.93,0,0,1-.59-2.23,4.29,4.29,0,0,1,1-2s0-.14-.07-.1Z"/><path class="cls-6" d="M15.67,14a3.18,3.18,0,0,0,.46.86,2.12,2.12,0,0,0,.71.74.1.1,0,0,0,.14-.11,2,2,0,0,0-.53-.74c-.23-.26-.46-.53-.68-.81,0,0-.13,0-.11.06Z"/><path class="cls-6" d="M16.57,10.18A1.57,1.57,0,0,0,16.46,13c.08,0,.18,0,.13-.13a3.83,3.83,0,0,1-.6-1.05,1.46,1.46,0,0,1,.64-1.49.09.09,0,0,0-.07-.16Z"/><g class="cls-13"><path class="cls-6" d="M15,5.71a3.89,3.89,0,0,1,.53,2.83c-.18.94-1.12,1.45-1.48,2.3a4.74,4.74,0,0,0,.87,4.73,5.39,5.39,0,0,1,.81,3.08c0,.9-.36,1.77-.36,2.69a3,3,0,0,0,.7,1.73c.26.35.56.64.81,1a10.25,10.25,0,0,1,.51,1.36c.05.11.24,0,.2-.08a7.43,7.43,0,0,0-.76-2c-.23-.35-.53-.64-.75-1a3.14,3.14,0,0,1-.22-2.17,6.6,6.6,0,0,0-.6-4.84,6.13,6.13,0,0,1-1.18-3.19c0-1.23,1-2,1.59-3A3.13,3.13,0,0,0,15,5.68a0,0,0,0,0,0,0Z"/><path class="cls-6" d="M14.34,6.49c.73.32.63,1,.27,1.61s-.85.79-1,1.31a.11.11,0,0,0,.16.12,3.2,3.2,0,0,0,1.48-1.92c.06-.58-.26-1.24-.92-1.2,0,0-.06.06,0,.08Z"/><path class="cls-6" d="M13,15.09a.73.73,0,0,0,.29.34,3.89,3.89,0,0,1,.74,1,3.08,3.08,0,0,1,.1,3.48,3.22,3.22,0,0,0,1,4.45c.09,0,.21-.05.15-.15-.34-.55-.83-.85-1.06-1.51a3.77,3.77,0,0,1,0-2.07A13.29,13.29,0,0,0,15,18.69a2.73,2.73,0,0,0-.38-2.08c-.26-.32-.44-.77-.71-1.06s-.57-.3-.79-.53a.07.07,0,0,0-.11.07Z"/><path class="cls-6" d="M17,16.71a5.13,5.13,0,0,1-.27,2.67A3.82,3.82,0,0,0,16.28,21a3.56,3.56,0,0,0,1.88,2.67c.07,0,.16,0,.12-.11a8.88,8.88,0,0,0-.85-1A2.45,2.45,0,0,1,17,20.14c.13-.51.44-.92.54-1.43a6.52,6.52,0,0,0-.27-2c0-.12-.2-.13-.2,0Z"/><path class="cls-6" d="M18,18a3.69,3.69,0,0,1-.16,2.19,2.37,2.37,0,0,0-.11,1.26,2.58,2.58,0,0,0,1.38,1.88.08.08,0,0,0,.1-.13c-.83-.88-1.43-1.66-1.11-2.94a4.18,4.18,0,0,0,.11-2.33c0-.14-.25-.08-.22.06Z"/><path class="cls-6" d="M18.71,17.93c.31,1.07-.33,2.27,0,3.39.19.69.7,1.51,1.49,1.53a.12.12,0,0,0,.06-.22A3,3,0,0,1,19,19.7c0-.46.19-1.45-.24-1.8,0,0-.08,0-.06,0Z"/></g><path class="cls-8" d="M24.39,4.64c0-.07.1-.08.16-.07a6.32,6.32,0,0,1,.82.25,4.46,4.46,0,0,1,1.85,1.24,6.15,6.15,0,0,1,1.1,3.83A20,20,0,0,0,29,14.21c0,.34-2.5.34-3,.31-.14-2-.27-4-.59-6a5.82,5.82,0,0,0-.46-1.66,2.23,2.23,0,0,0-1.22-1.16,1.85,1.85,0,0,1,1-1.17Z"/><path class="cls-9" d="M16.65,7.07A4.09,4.09,0,0,0,16.15,11a1,1,0,0,1,.1.43,20,20,0,0,1-1.46,2,.65.65,0,0,0-.11.31c0,.27.3.45.57.49a2,2,0,0,1,.8.17c.38.24.37.79.36,1.24a3.8,3.8,0,0,0,.92,2.91,2.92,2.92,0,0,0,3.1.46,4.57,4.57,0,0,0,2.26-2.33,9.24,9.24,0,0,0,.45-1.2,18.3,18.3,0,0,0,.79-4.29,7.16,7.16,0,0,0-.11-2.09,3.25,3.25,0,0,0-1-1.78,3.61,3.61,0,0,0-1-.56,6.4,6.4,0,0,0-4.1-.17,2.44,2.44,0,0,0-1.19.67Z"/><path class="cls-5" d="M16.28,5.25a2.49,2.49,0,0,0-1,1.55,5,5,0,0,0,0,1.31,2.23,2.23,0,0,0,1,.06,35.18,35.18,0,0,1,6.08,0c-.44,2.84.16,5.73.14,8.61a14.22,14.22,0,0,0,.3,4.53C23.21,23,24.12,23,25.29,23a4.89,4.89,0,0,0,3.13-.93A3.07,3.07,0,0,0,29,18.83a2.91,2.91,0,0,0-2-1.55.85.85,0,0,1-.54-.29.78.78,0,0,1-.08-.37q-.18-3.14-.36-6.28a9.77,9.77,0,0,0-.5-2.55,3.56,3.56,0,0,0-1.85-1.88,4.79,4.79,0,0,0-2.12-1l-3.1-.15a4.38,4.38,0,0,0-1.28.06Z"/><path class="cls-10" d="M16.07,16.68a.31.31,0,0,0,0,.22.58.58,0,0,0,.76.23c.1,0,.39-.24.49-.3a6.27,6.27,0,0,1,1.53-.69,3.09,3.09,0,0,1-1.33-.38,6.33,6.33,0,0,0-.73-.38.67.67,0,0,0-.8.15.24.24,0,0,0-.06.13.67.67,0,0,0,.37.58S16.11,16.44,16.07,16.68Z"/><path class="cls-5" d="M21.44,9.07a3,3,0,0,0-3.61,0,.1.1,0,0,0,.07.17c.56,0,1.08-.31,1.64-.38a3.77,3.77,0,0,1,1.83.28c.06,0,.1-.06.06-.1Z"/><path class="cls-5" d="M18.41,10.69c-.09-.13-.15-.27-.24-.4s-.15-.25-.29-.22a.07.07,0,0,0-.05.07.14.14,0,0,0,.06.13.89.89,0,0,1,.12.17c.07.12.13.26.2.38s.29,0,.2-.12Z"/><path class="cls-5" d="M19.63,10.76c.14-.18.12-.46.2-.68s.13-.47,0-.6a.08.08,0,0,0-.1,0,.89.89,0,0,0-.14.56,4.06,4.06,0,0,0,0,.71s0,0,.06,0Z"/><path class="cls-5" d="M19.16,10.74a.77.77,0,0,0-.06-.56c0-.1-.08-.2-.12-.3s0-.16-.13-.2a.06.06,0,0,0-.07,0c-.13.11,0,.32,0,.45a2.41,2.41,0,0,0,.26.62.07.07,0,0,0,.13,0Z"/><path class="cls-5" d="M20.78,10.93c.34,0,.91-.23,1-.62a.06.06,0,0,0-.07-.07,1,1,0,0,0-.4.24,4.61,4.61,0,0,1-.52.37,0,0,0,0,0,0,.09Z"/><path class="cls-5" d="M20.35,10.65a1.09,1.09,0,0,0,.54-.81.08.08,0,0,0-.1-.07c-.34.09-.44.55-.5.84,0,0,0,.07.06,0Z"/><path class="cls-5" d="M19.65,11a1.32,1.32,0,0,0-.08.54c0,.15,0,.35.11.46a.08.08,0,0,0,.11,0c.12-.12.07-.3,0-.46s-.09-.36-.13-.54-.05,0-.06,0Z"/><path class="cls-5" d="M19.07,11c0,.14-.09.29-.14.43a.49.49,0,0,0,0,.41.08.08,0,0,0,.1,0c.13-.07.14-.23.17-.36a1.6,1.6,0,0,0,0-.48.08.08,0,0,0-.15,0Z"/><path class="cls-5" d="M18.49,11a1.61,1.61,0,0,0-.26.37,1,1,0,0,0-.18.37.05.05,0,0,0,.05.06c.16,0,.23-.15.3-.28a4.65,4.65,0,0,0,.19-.46c0-.06-.06-.1-.1-.06Z"/><path class="cls-5" d="M20.34,10.94c-.28.14,0,1,.27.85s0-.4-.06-.51-.11-.39-.21-.34Z"/><path class="cls-5" d="M20.81,10.88a1.16,1.16,0,0,0,.06.4.5.5,0,0,0,.28.31.13.13,0,0,0,.12,0c.11-.11,0-.26-.11-.33S21.07,11.1,21,11l-.16-.17a0,0,0,0,0,0,0Z"/><path class="cls-2" d="M17.47,11a3.5,3.5,0,0,1,4.25-.1,2.53,2.53,0,0,1-1,.36,7.24,7.24,0,0,1-1.06.13,5.22,5.22,0,0,1-1.27-.11A3.16,3.16,0,0,1,17.47,11Z"/><path class="cls-5" d="M19.63,11.29a.43.43,0,1,0-.43-.43.44.44,0,0,0,.43.43Z"/><g class="cls-14"><path class="cls-6" d="M16.58,4.52a1.62,1.62,0,0,0-.8,1.73,2.31,2.31,0,0,0,.36.93c.61,1,.25,1.63-.14,2.58a.08.08,0,0,0,.12.09,2.08,2.08,0,0,0,.27-3.07,1.78,1.78,0,0,1,.26-2.17s0-.12-.07-.09Z"/><path class="cls-6" d="M17.55,4.21A1.91,1.91,0,0,0,17,5.87,4.5,4.5,0,0,0,17.56,7c.58,1-.07,1.79-.3,2.7a.12.12,0,0,0,.19.11,2.87,2.87,0,0,0,.74-2.18,2.5,2.5,0,0,0-.45-1.12,2.21,2.21,0,0,1-.12-2.24s0-.11-.08-.06Z"/><path class="cls-6" d="M18.74,4.58a2,2,0,0,0-.11,2c.15.41.42.77.58,1.17.29.74-.27,1.44-.38,2.15A.11.11,0,0,0,19,10a2.38,2.38,0,0,0,.77-2c-.1-1.28-1.5-1.94-1-3.37,0,0,0-.06-.06,0Z"/><path class="cls-6" d="M19.59,4.47A1.84,1.84,0,0,0,20,6.27a2.8,2.8,0,0,1,.61,1.66c0,.71-.39,1.25-.51,1.91a.1.1,0,0,0,.14.11c.8-.36.87-1.54.83-2.31C21,6.39,19.65,5.7,19.73,4.49c0-.08-.12-.09-.14,0Z"/><path class="cls-6" d="M20.59,4.25a2.75,2.75,0,0,0,1,2.3c1.17,1.2-.11,2.53-.26,3.8,0,.09.12.14.18.08a4.46,4.46,0,0,0,1-2.89,1.8,1.8,0,0,0-.41-1.07,4.32,4.32,0,0,1-1.43-2.23s-.07,0-.07,0Z"/><path class="cls-6" d="M21.47,4.59c.15.56.7,1,1,1.49a4.92,4.92,0,0,1,.66,3.74c-.23,1-.77,1.85-1,2.84a4.31,4.31,0,0,0,.45,2.29,13.94,13.94,0,0,1,.89,2.95,6.5,6.5,0,0,1-.84,2.79,3.39,3.39,0,0,0,.79,3.59c.07.06.18,0,.13-.1-1.25-1.88-.48-3.33.13-5.23.49-1.53-.5-3.43-1.07-4.81-.77-1.87.94-3.8,1-5.72A5.17,5.17,0,0,0,23,6.21c-.35-.75-.93-1-1.36-1.67a.06.06,0,0,0-.12,0Z"/><path class="cls-6" d="M21.08,15.34a3.93,3.93,0,0,1,1.29,2.36A19,19,0,0,1,22.11,20a.1.1,0,0,0,.19.05,3.53,3.53,0,0,0-1.06-4.85c-.1-.08-.25.05-.15.15Z"/><path class="cls-6" d="M23.37,4.87a4.88,4.88,0,0,1,1,2,6.37,6.37,0,0,1-.48,3.33c-.47,1.43-1.25,2.63-.5,4.17a12.74,12.74,0,0,1,1.09,2.32,5.05,5.05,0,0,1-.45,3.51,3.51,3.51,0,0,0,.25,3.87c.07.08.22,0,.18-.1a4.36,4.36,0,0,1-.26-2.9,16.77,16.77,0,0,0,.86-2.45,6.74,6.74,0,0,0-.22-2.36,23.4,23.4,0,0,0-1.1-2.38c-.7-1.85,1-3.79,1.12-5.65C25,7,24.68,5.39,23.44,4.79c0,0-.11,0-.08.08Z"/><path class="cls-6" d="M25.46,6.1a11.14,11.14,0,0,1,.05,2.77c-.22,1-.6,1.84-.9,2.77-.61,1.88.32,3.32.95,5a4.28,4.28,0,0,1,.2,3,25.07,25.07,0,0,0-1,2.51c-.33,1.47.55,2.38,1.67,3.12.12.08.25-.07.19-.19-.35-.67-1-1-1.26-1.77-.39-1.06.38-2.23.81-3.14a4.81,4.81,0,0,0-.19-4c-.31-.81-.76-1.56-1-2.39a4.76,4.76,0,0,1,.38-3.1A17.72,17.72,0,0,0,26,8.26a4.43,4.43,0,0,0-.43-2.18.08.08,0,0,0-.16,0Z"/><path class="cls-6" d="M26.72,9.81a4.38,4.38,0,0,0-1,3.37c.11,1,.45,2.29,1.5,2.66a.16.16,0,0,0,.17-.23c-1.13-1.63-1.8-3.87-.53-5.67.07-.1-.09-.22-.17-.13Z"/><path class="cls-6" d="M26.62,16.86A3.08,3.08,0,0,1,27,20a10.45,10.45,0,0,0-1,2.38,2.34,2.34,0,0,0,2,2.43.13.13,0,0,0,.13-.22c-.56-.53-1.28-.85-1.54-1.64-.33-1,.68-2.17,1-3a2.52,2.52,0,0,0-.89-3.17.08.08,0,0,0-.11.11Z"/><path class="cls-6" d="M27.85,17.21a3.61,3.61,0,0,1,.2,3.41,4.25,4.25,0,0,0-.54,1.75,2.16,2.16,0,0,0,1.8,2c.08,0,.11-.1.06-.15a5.18,5.18,0,0,1-1.29-1.53c-.34-.83.42-1.78.67-2.55a3.26,3.26,0,0,0-.73-3,.09.09,0,0,0-.16.09Z"/></g><path class="cls-4" d="M15.54,2.84A7,7,0,0,1,15.32,2a.11.11,0,0,1,.13-.11c.15,0,1.29,1,1.76,1.3a.15.15,0,0,0,.22-.06A11.86,11.86,0,0,0,18.05.89a.11.11,0,0,1,.19,0,13.11,13.11,0,0,1,1.27,2,.06.06,0,0,0,.1,0A19.7,19.7,0,0,1,20.6.7a.15.15,0,0,1,.26,0c.32.72.37,1.4.63,2.16,0,.09.08.19.17.21s.18-.07.23-.16a14.54,14.54,0,0,1,1.27-2,.18.18,0,0,1,.29.08c.2.82.12,2.23.38,2.4s1.43-1.4,2-1.4c0,0,0,0,0,0a10.64,10.64,0,0,1-.46,2.65,14.55,14.55,0,0,1-.46,2.12,6.56,6.56,0,0,0-2.46-1.13,14,14,0,0,0-5.85-.29.49.49,0,0,1-.33,0,.45.45,0,0,1-.14-.19C16,4.79,15.85,4,15.54,2.84Z"/><path class="cls-10" d="M15.94,3a4.7,4.7,0,0,0,.4.73c.17.25.58,0,.4-.24a5.61,5.61,0,0,1-.52-.65c-.1-.19-.36,0-.28.16Z"/><path class="cls-10" d="M18.12,2.26c0,.37-.21.9.14,1.19a.33.33,0,0,0,.54-.31c0-.15-.13-.29-.17-.44s-.11-.32-.16-.49-.37-.16-.35,0Z"/><path class="cls-10" d="M20.48,2.07a4.66,4.66,0,0,0-.27,1.05c0,.43.65.43.66,0a5.32,5.32,0,0,0-.12-1.05c0-.15-.24-.13-.28,0Z"/><path class="cls-10" d="M22.8,2.49a3.94,3.94,0,0,0-.44.87c-.07.32.41.55.55.23a7.44,7.44,0,0,0,.22-1,.18.18,0,0,0-.33-.14Z"/><path class="cls-10" d="M25,3.24c-.27.34-1.08.59-.79,1.17a.33.33,0,0,0,.51.07.67.67,0,0,0,.14-.25A2.49,2.49,0,0,1,25,3.94a2.83,2.83,0,0,0,.29-.52c.07-.17-.2-.33-.31-.18Z"/><path class="cls-5" d="M16.31,4.55a.14.14,0,0,0,0-.29.14.14,0,0,0,0,.29Z"/><path class="cls-5" d="M16.85,4.43a.19.19,0,0,0,0-.37.19.19,0,0,0,0,.37Z"/><path class="cls-5" d="M17.4,4.3a.2.2,0,0,0,0-.39.2.2,0,0,0,0,.39Z"/><path class="cls-5" d="M18.09,4.17a.19.19,0,0,0,0-.38.19.19,0,0,0,0,.38Z"/><path class="cls-5" d="M18.84,4.12a.2.2,0,0,0,0-.39.2.2,0,0,0,0,.39Z"/><path class="cls-5" d="M19.55,4.1a.21.21,0,0,0,0-.42.21.21,0,0,0,0,.42Z"/><path class="cls-5" d="M20.33,4.13a.2.2,0,0,0,0-.4.2.2,0,0,0,0,.4Z"/><path class="cls-5" d="M21.09,4.24a.23.23,0,0,0,0-.47.23.23,0,0,0,0,.47Z"/><path class="cls-5" d="M21.86,4.38a.24.24,0,0,0,0-.48.24.24,0,0,0,0,.48Z"/><path class="cls-5" d="M22.64,4.59a.21.21,0,0,0,0-.41.21.21,0,0,0,0,.41Z"/><path class="cls-5" d="M23.29,4.84a.24.24,0,0,0,0-.49.24.24,0,0,0,0,.49Z"/><path class="cls-5" d="M23.89,5.07a.22.22,0,0,0,0-.44.22.22,0,0,0,0,.44Z"/><path class="cls-5" d="M24.53,5.21h0a.15.15,0,0,0,0-.28h0a.15.15,0,1,0,0,.28Z"/><path class="cls-5" d="M25.05,5.35a0,0,0,0,0,0,0,0,0,0,0,0,0,0Z"/><path class="cls-5" d="M25,5.49a.2.2,0,0,0,0-.41.2.2,0,0,0,0,.41Z"/><path class="cls-4" d="M25.45,6.09l.27.28c.07.07.19.16.28.07s0-.21-.08-.27l-.29-.26c-.12-.11-.3.06-.18.18Z"/><path class="cls-4" d="M26.06,5.8a1.65,1.65,0,0,1,.22.23.55.55,0,0,0,.27.22.12.12,0,0,0,.16-.12c0-.25-.3-.44-.49-.53s-.26.1-.15.2Z"/><path class="cls-4" d="M25.49,6.94a1.22,1.22,0,0,0,.19.34c.11.13.33,0,.28-.17a2.74,2.74,0,0,0-.15-.32c-.08-.18-.4,0-.32.14Z"/><path class="cls-4" d="M26.51,6.93a.72.72,0,0,0,.32.44c.09,0,.23,0,.19-.15a2.44,2.44,0,0,0-.24-.4c-.08-.14-.32,0-.26.11Z"/><path class="cls-4" d="M26.26,7.86a2.25,2.25,0,0,0,.14.41.25.25,0,0,0,.14.16c-.07,0,0,0,0,0h.08c.13,0,.13-.23.09-.33s-.14-.25-.2-.38-.33,0-.29.12Z"/><path class="cls-4" d="M26.24,9.25a.92.92,0,0,0,.33.51.14.14,0,0,0,.2-.15c-.05-.17-.22-.29-.31-.45a.12.12,0,0,0-.22.09Z"/><path class="cls-4" d="M27.25,8.17c0,.15,0,.32.16.42a.18.18,0,0,0,.21,0,.17.17,0,0,0,.08-.19c0-.11-.09-.22-.14-.33a.16.16,0,0,0-.3.08Z"/><path class="cls-4" d="M27.39,9.4c0,.16,0,.37.05.51a.14.14,0,0,0,.24,0,.45.45,0,0,0,0-.27,1.82,1.82,0,0,0,0-.32c0-.18-.31-.1-.28.08Z"/><path class="cls-4" d="M27.4,7.22c0,.14,0,.28.12.4s.26,0,.23-.13a.92.92,0,0,0-.18-.34.1.1,0,0,0-.18.07Z"/><path class="cls-4" d="M27,10.38c0,.12,0,.24,0,.36s0,.21.15.21.14-.12.15-.21a1.32,1.32,0,0,0-.09-.39.12.12,0,0,0-.23,0Z"/><path class="cls-4" d="M26.45,11.06c-.05.19-.08.5.09.64a.17.17,0,0,0,.28-.07c.08-.19-.09-.38-.12-.56s-.22-.11-.25,0Z"/><path class="cls-4" d="M27.76,10.69c0,.14,0,.37.19.44a.08.08,0,0,0,.09,0c.11-.14,0-.34,0-.5s-.32-.11-.28.08Z"/><path class="cls-4" d="M27.44,11.95c.05.12,0,.28.19.33a.07.07,0,0,0,.09,0,.58.58,0,0,0-.07-.4c-.06-.14-.27,0-.21.12Z"/><path class="cls-4" d="M26.77,12.6a1,1,0,0,0,.08.43.12.12,0,0,0,.22,0c0-.14,0-.27,0-.41s-.26-.17-.26,0Z"/><path class="cls-4" d="M28.08,12.55c0,.07,0,.14,0,.21s0,.14,0,.21a.12.12,0,0,0,.09.08h0A.12.12,0,0,0,28.4,13a1.09,1.09,0,0,0-.07-.46c0-.13-.26-.1-.24,0Z"/><path class="cls-4" d="M27.57,13.3a1.24,1.24,0,0,0,.06.38.14.14,0,0,0,.25,0,1.35,1.35,0,0,0,0-.42c0-.18-.31-.11-.28.08Z"/><path class="cls-4" d="M26.71,13.79a.68.68,0,0,0,.14.36.14.14,0,0,0,.14,0c.2-.07,0-.34,0-.48s-.34-.12-.3.08Z"/><path class="cls-4" d="M28.19,13.86a.34.34,0,0,0,.12.25.11.11,0,0,0,.17-.1c0-.07,0-.12,0-.19a.13.13,0,1,0-.26,0Z"/><path class="cls-10" d="M20.69,14.68a.89.89,0,1,0-.89-.89.9.9,0,0,0,.89.89Z"/><path class="cls-10" d="M18.12,22.24a.24.24,0,0,0,0-.47.24.24,0,0,0,0,.47Z"/><path class="cls-10" d="M18.66,22.68a.2.2,0,0,0,0-.39.2.2,0,0,0,0,.39Z"/><path class="cls-10" d="M19.28,22.92a.21.21,0,0,0,0-.43.21.21,0,0,0,0,.43Z"/><path class="cls-10" d="M20,23a.21.21,0,0,0,0-.42A.21.21,0,0,0,20,23Z"/><path class="cls-10" d="M20.65,23.09a.22.22,0,0,0,0-.45.22.22,0,0,0,0,.45Z"/><path class="cls-10" d="M21.32,23.07a.23.23,0,0,0,0-.46.23.23,0,0,0,0,.46Z"/><path class="cls-10" d="M22,22.93a.2.2,0,0,0,0-.4.2.2,0,0,0,0,.4Z"/><path class="cls-10" d="M22.72,22.72a.23.23,0,0,0,0-.47.23.23,0,0,0,0,.47Z"/><path class="cls-10" d="M20.61,24.21a.49.49,0,1,0-.48-.49.49.49,0,0,0,.48.49Z"/><path class="cls-8" d="M11.45,30.78a7.73,7.73,0,0,0,0-2.13c-.22,0-.82-2.51-.93-2.6-1-.76-1,.71-.8-.19.05-.31.62-.63.42-.92a1.7,1.7,0,0,0-1.29.19,1.67,1.67,0,0,0-.86,1.1,1.1,1.1,0,0,0,.33,1.16c.11.11.25.21.36.33a1.45,1.45,0,0,1,.31.87,13.63,13.63,0,0,0,.51,2.09.28.28,0,0,0,.17.21,1,1,0,0,0,.29.05c.37,0,.74.05,1.12.06a.84.84,0,0,0,.29,0A.2.2,0,0,0,11.45,30.78Z"/><path class="cls-10" d="M9.54,13.92c0-.83,0-1.26,0-1.76,0-.18.19-.38.28-.28s.35,3.46.85,3.37a23.47,23.47,0,0,0,0-3c0-.23.13-.49.26-.46s.29,2.86.58,3.24c.14.19.29-1.84.47-2.73,0-.23.2-.59.33-.41a9.86,9.86,0,0,1,.18,2.64c0,1,.09,1.24-.19,1.68s-.42.16-.8.45c-.1.08-.12.47-.13.6-.06,1,0,1.77-.07,2.76,0,.78.38,6.66.43,7.34a.83.83,0,0,1-.06.48c-.08.14-.25.4-.36-1.48a89.55,89.55,0,0,1-.25-9.44.38.38,0,0,0-.32-.37c-.24-.06-.47.14-.93-.52A6,6,0,0,1,9.54,13.92Z"/><path class="cls-9" d="M9.07,22.8a1.1,1.1,0,0,1,.77-.48,12.59,12.59,0,0,1,1.68.16.35.35,0,0,1,.27.17c0,.06.14.35-.3.48a1.59,1.59,0,0,1-.42.05c-.34,0-1.18-.13-1.2,0s1.49.26,2,.57a.37.37,0,0,1,.15.14c.09.18,0,.34-.24.4-.46.14-1.09-.24-1.78-.26a0,0,0,0,0,0,.1c.64.27,1.54.53,1.86,1,.11.17-.08.38-.29.4s-1.22-.54-1.42-.49-.06.14.19.27a4.6,4.6,0,0,1,.87.58.37.37,0,0,1,.11.39c-.07.2-.37.08-.54.07A3.6,3.6,0,0,1,9.9,26c-.19-.11-.12.3-.11.52s0,.69-.19.76a1.2,1.2,0,0,1-1-.3.85.85,0,0,1-.26-.23,2.14,2.14,0,0,1-.22-.54A4.74,4.74,0,0,1,9.07,22.8Z"/><path class="cls-12" d="M11.06,22.7a.42.42,0,0,0,.3.25.78.78,0,0,0,.21,0h.12l.06,0a.19.19,0,0,0,.13-.23c0,.09,0-.08,0-.09a.34.34,0,0,0-.07-.08.49.49,0,0,0-.22-.11.54.54,0,0,0-.41,0,.19.19,0,0,0-.08.21Z"/><path class="cls-12" d="M11.45,24a.54.54,0,0,0,.49.19.28.28,0,0,0,.12-.46.61.61,0,0,0-.44-.15.26.26,0,0,0-.21.12.25.25,0,0,0,0,.3Z"/><path class="cls-12" d="M11.27,25.08s0,.1,0,0,0,.16,0,.09a.67.67,0,0,0,.14.21.35.35,0,0,0,.33.11.24.24,0,0,0,.19-.18.33.33,0,0,0-.09-.3l-.06,0h0l-.12-.08c-.15-.08-.4-.06-.42.15Z"/><path class="cls-12" d="M10.76,26a.59.59,0,0,0,.1.19.42.42,0,0,0,.26.2c.17,0,.36-.1.3-.3s-.31-.4-.52-.32a.19.19,0,0,0-.13.23Z"/><path class="cls-5" d="M9.06,22.76A.46.46,0,0,0,9,23a.11.11,0,0,0,.21,0c0-.06,0-.12.05-.17s-.18-.21-.23-.06Z"/><path class="cls-5" d="M9,23.53a.36.36,0,0,0,0,.3c.05.15.3.14.29,0a1.16,1.16,0,0,1,0-.2c0-.12-.17-.16-.23-.06Z"/><path class="cls-5" d="M8.87,24.41a.33.33,0,0,0,0,.3.12.12,0,0,0,.19-.05,1.9,1.9,0,0,0,0-.22c0-.13-.2-.16-.23,0Z"/><path class="cls-5" d="M8.9,25.44a.39.39,0,0,0,.16.24.13.13,0,0,0,.19-.15,2,2,0,0,0-.11-.2c-.07-.14-.29,0-.25.1Z"/><path class="cls-10" d="M9.95,20.91a1.07,1.07,0,0,0,.83.44.8.8,0,0,0,.27,0l.07,0a.16.16,0,0,0,0-.17,1.12,1.12,0,0,0-.5-.66,1.83,1.83,0,0,0-1-.31v0C9.75,20.4,9.8,20.69,9.95,20.91Z"/><path class="cls-10" d="M11.24,22.06a.1.1,0,0,1,0-.06.88.88,0,0,1,.66-.64,5.3,5.3,0,0,1,1-.12,2.46,2.46,0,0,1-.27.42,1.57,1.57,0,0,1-.18.2,1.17,1.17,0,0,1-1.1.24A.1.1,0,0,1,11.24,22.06Z"/><path class="cls-8" d="M12.25,34.1a3.82,3.82,0,0,0,.55-2.37,5.29,5.29,0,0,0-.22-1.33,5.38,5.38,0,0,0-1-1.61c-.14-.17-.29-.57-.47-.71-.7-.56-1.39.17-2.28.11a1.49,1.49,0,0,1-.42.71c-.53.59-1.61.85-2.07,2.12-.51,1.42,0,2.22.86,3.4.57.74,2.1.62,2.93.61A2.58,2.58,0,0,0,12.25,34.1Z"/><path class="cls-12" d="M11.24,30a9,9,0,0,1,.15,2.27c0,.65-.6,1.08-.56,1.69a.38.38,0,0,0,.71.19,3.61,3.61,0,0,0,.62-1.89,6.29,6.29,0,0,0-.56-2.42c-.09-.21-.4-.05-.36.15Z"/><path class="cls-12" d="M9.85,29.82a4.63,4.63,0,0,0-.48,2c0,.69.18,1.37.11,2.05s.81.54.84,0a16.22,16.22,0,0,0-.17-1.77c0-.73,0-1.46,0-2.2a.19.19,0,0,0-.36-.1Z"/><path class="cls-12" d="M8.51,29.7A4,4,0,0,0,7.81,32c0,.64.12,1.64.72,2a.23.23,0,0,0,.33-.13c.21-.56-.27-1.24-.29-1.84a7.53,7.53,0,0,1,.29-2.12.19.19,0,0,0-.34-.14Z"/><path class="cls-10" d="M11.33,28.87h0a.15.15,0,0,0-.11-.11h0a.17.17,0,1,0,.12.12Z"/><path class="cls-10" d="M10.66,29.1a.18.18,0,0,0,0-.36.18.18,0,0,0,0,.36Z"/><path class="cls-10" d="M10.1,29.07a.16.16,0,0,0,0-.32.16.16,0,0,0,0,.32Z"/><path class="cls-10" d="M9.56,29.09a.19.19,0,0,0,0-.38.19.19,0,0,0,0,.38Z"/><path class="cls-10" d="M9,29a.17.17,0,0,0,0-.35A.17.17,0,0,0,9,29Z"/><path class="cls-12" d="M20.76,30.3A3,3,0,0,0,21,28.66a.39.39,0,0,0-.78,0,4,4,0,0,0,.28,1.64.14.14,0,0,0,.24,0Z"/><path class="cls-12" d="M20.67,31.5a1.72,1.72,0,0,0-.2.94,2.57,2.57,0,0,0,.1,1.18.33.33,0,0,0,.57,0,1.91,1.91,0,0,0,.05-1A2.52,2.52,0,0,0,21,31.5a.17.17,0,0,0-.28,0Z"/><path class="cls-12" d="M20.23,30.77a1.36,1.36,0,0,0-1.07-.13c-.37.09-.29.72.09.67a2,2,0,0,0,1-.32.16.16,0,0,0,0-.22Z"/><path class="cls-12" d="M21.38,30.78a.58.58,0,0,0,.45.2,1.48,1.48,0,0,0,.65,0,.27.27,0,0,0,.12-.44A.75.75,0,0,0,22,30.4c-.19,0-.48.06-.58.24a.15.15,0,0,0,0,.15Z"/><path class="cls-10" d="M20.84,31.07a.17.17,0,0,0,0-.34.17.17,0,0,0,0,.34Z"/><path class="cls-10" d="M14.62,25.85a.19.19,0,0,0,0-.38.19.19,0,0,0,0,.38Z"/><path class="cls-10" d="M13.58,28v0c.07.16.3.1.34,0v0a.19.19,0,1,0-.35.05Z"/><path class="cls-10" d="M12.93,27a.16.16,0,0,0,0-.32.16.16,0,0,0,0,.32Z"/><path class="cls-10" d="M11.79,29.09a.2.2,0,0,0,0-.39.2.2,0,0,0,0,.39Z"/><path class="cls-10" d="M12.68,29.42h0a.16.16,0,0,0,.23-.13v0a.17.17,0,1,0-.25.14Z"/><path class="cls-10" d="M15.16,27.52v0a.19.19,0,0,0,.37,0v0a.2.2,0,1,0-.38,0Z"/><path class="cls-10" d="M16.7,26.17a.23.23,0,0,0,0-.46.23.23,0,0,0,0,.46Z"/><path class="cls-10" d="M17,27.72a.19.19,0,0,0,0-.39.19.19,0,0,0,0,.39Z"/><path class="cls-10" d="M19.28,26.08a.19.19,0,0,0,0-.37.19.19,0,0,0,0,.37Z"/><path class="cls-10" d="M16.82,29.07a.24.24,0,0,0-.07.22.16.16,0,0,0,.15.12.16.16,0,0,0,.16-.16v0l0,.08h0c.15-.15-.09-.39-.23-.23Z"/><path class="cls-10" d="M15.83,31a.18.18,0,0,0,0-.36.18.18,0,0,0,0,.36Z"/><path class="cls-10" d="M20.18,27.42a.23.23,0,0,0,0-.46.23.23,0,0,0,0,.46Z"/><path class="cls-10" d="M12.83,25.19h0a.18.18,0,0,0,.27-.15v0a.19.19,0,1,0-.28.16Z"/><path class="cls-10" d="M18,25a.18.18,0,0,0,0-.36A.18.18,0,0,0,18,25Z"/><path class="cls-10" d="M21.18,25.88a.22.22,0,0,0,0-.45.22.22,0,0,0,0,.45Z"/><path class="cls-10" d="M22.5,33.7a.18.18,0,0,0,0,.12.17.17,0,0,0,.34,0h0l0,.08h0c.19-.15-.12-.44-.28-.22Z"/><path class="cls-10" d="M15.85,25.09a.16.16,0,0,0,0-.31.16.16,0,0,0,0,.31Z"/><path class="cls-10" d="M14.08,30.76a.21.21,0,0,0,0-.42.21.21,0,0,0,0,.42Z"/><path class="cls-10" d="M14.89,29.24a.23.23,0,0,0,0-.45.23.23,0,0,0,0,.45Z"/><path class="cls-10" d="M24.16,32.33v0a.2.2,0,0,0,.23.29.19.19,0,0,0,.13-.11.2.2,0,0,0-.07-.27.2.2,0,0,0-.27.07Z"/><path class="cls-10" d="M18.25,27.82h0a.2.2,0,0,0,.2-.15.21.21,0,0,0-.09-.23l0,0a.22.22,0,1,0-.11.4Z"/><path class="cls-10" d="M28.31,37.06v0a.17.17,0,0,0,.12.16.16.16,0,0,0,.2-.11v0c.05-.26-.36-.27-.33,0Z"/><path class="cls-10" d="M13.53,32v0a.17.17,0,0,0,.34,0v0c0-.22-.34-.22-.34,0Z"/><path class="cls-10" d="M18.59,37.1a.24.24,0,0,0,0-.48.24.24,0,0,0,0,.48Z"/><path class="cls-10" d="M8.24,35.78a.2.2,0,0,0,0-.41.2.2,0,0,0,0,.41Z"/><path class="cls-10" d="M9.66,35.53h0c.07,0,.12,0,.11-.11v0a.1.1,0,0,0-.16,0,.1.1,0,0,0,0,.16Z"/><path class="cls-5" d="M5.52,11.89c0,.1,0,.24,0,.35a2.88,2.88,0,0,0,0,.31,1.39,1.39,0,0,0,.42.91c-.24,0-.83,0-1.06,0a1.4,1.4,0,0,0,.42-.91,2.88,2.88,0,0,0,0-.31c0-.1,0-.24,0-.35Z"/><path class="cls-5" d="M5.45,12.14c.1,0,.15.11.33.3a1,1,0,0,0,.69.41A.66.66,0,0,0,7,12.63a1.26,1.26,0,0,0,.19-.44,1.12,1.12,0,0,0-.1-.84.59.59,0,0,0-.76-.24c-.13.08-.17.17-.28.19A0,0,0,0,1,6,11.24c0-.18.17-.2.23-.41A.61.61,0,0,0,6,10.07a1.18,1.18,0,0,0-1.22,0,.55.55,0,0,0-.25.67c.05.2.17.29.22.45a.07.07,0,0,1-.09.09c-.08,0-.13-.11-.24-.18a.59.59,0,0,0-.76.24,1.13,1.13,0,0,0-.1.84,1.26,1.26,0,0,0,.19.44.66.66,0,0,0,.55.23A1,1,0,0,0,5,12.45c.18-.2.24-.29.34-.3Z"/><path class="cls-5" d="M5,8.24a2,2,0,0,1-1.74-.85,3.42,3.42,0,0,1-.63-2.1A3.48,3.48,0,0,1,3.33,3.1,2.05,2.05,0,0,1,5,2.25a2.09,2.09,0,0,1,1.7.81A3.26,3.26,0,0,1,7.4,5.2a3.69,3.69,0,0,1-.5,1.93,2.1,2.1,0,0,1-1.27,1v.08q0,.63.77.63a3.62,3.62,0,0,0,.66-.05V9.4a2,2,0,0,1-.59.09,1.62,1.62,0,0,1-1-.28A1.27,1.27,0,0,1,5,8.24Zm0-.59A1.32,1.32,0,0,0,6.22,7,3.32,3.32,0,0,0,6.65,5.2a3,3,0,0,0-.44-1.73A1.37,1.37,0,0,0,5,2.84a1.33,1.33,0,0,0-1.17.67,3.18,3.18,0,0,0-.43,1.75A3.08,3.08,0,0,0,3.87,7,1.34,1.34,0,0,0,5,7.65Z"/><path class="cls-5" d="M35.6,50.64c0-.1,0-.24,0-.35a2.67,2.67,0,0,0,0-.31,1.39,1.39,0,0,0-.42-.91c.24,0,.83,0,1.06,0a1.39,1.39,0,0,0-.42.91,2.91,2.91,0,0,0,0,.31c0,.1,0,.25,0,.35Z"/><path class="cls-5" d="M35.67,50.39c-.1,0-.16-.11-.33-.31a1,1,0,0,0-.69-.41.66.66,0,0,0-.55.23,1.23,1.23,0,0,0-.19.44,1.12,1.12,0,0,0,.09.84.59.59,0,0,0,.76.24c.13-.08.17-.17.28-.19a.05.05,0,0,1,.06.06c0,.18-.17.2-.23.41a.61.61,0,0,0,.25.76,1.18,1.18,0,0,0,1.22,0,.56.56,0,0,0,.25-.67c-.05-.2-.17-.29-.22-.45a.07.07,0,0,1,.09-.09c.08,0,.13.11.24.18a.59.59,0,0,0,.76-.24,1.13,1.13,0,0,0,.09-.84,1.23,1.23,0,0,0-.19-.44.66.66,0,0,0-.55-.23,1,1,0,0,0-.69.41c-.18.2-.24.29-.34.31Z"/><path class="cls-5" d="M36.07,54.3a2,2,0,0,1,1.74.84,3.42,3.42,0,0,1,.63,2.1,3.49,3.49,0,0,1-.65,2.19,2.06,2.06,0,0,1-1.71.85,2.1,2.1,0,0,1-1.7-.81,3.27,3.27,0,0,1-.66-2.14,3.69,3.69,0,0,1,.5-1.93,2.11,2.11,0,0,1,1.27-1v-.08q0-.63-.77-.63a3.62,3.62,0,0,0-.66.05v-.58a2,2,0,0,1,.59-.09,1.62,1.62,0,0,1,1,.28A1.27,1.27,0,0,1,36.07,54.3Zm0,.59a1.32,1.32,0,0,0-1.18.69,3.31,3.31,0,0,0-.43,1.77,3,3,0,0,0,.44,1.73,1.37,1.37,0,0,0,1.17.62A1.33,1.33,0,0,0,37.25,59a3.18,3.18,0,0,0,.43-1.75,3.08,3.08,0,0,0-.44-1.72A1.34,1.34,0,0,0,36.08,54.88Z"/><path class="cls-4" d="M14.67,59.24H6.29a3.1,3.1,0,0,1-3-3.19V15.78a.09.09,0,1,1,.19,0V56a2.92,2.92,0,0,0,2.82,3h8.38a.09.09,0,1,1,0,.19Z"/><path class="cls-4" d="M32.87,59.24H26.61a.09.09,0,1,1,0-.19h6.27a.09.09,0,0,1,0,.19Z"/><path class="cls-4" d="M37.74,47a.09.09,0,0,1-.09-.09V6.49a2.92,2.92,0,0,0-2.82-3H26.57a.09.09,0,0,1,0-.19h8.26a3.1,3.1,0,0,1,3,3.19V46.95A.09.09,0,0,1,37.74,47Z"/><path class="cls-4" d="M15,3.49H8.54a.09.09,0,0,1,0-.19H15a.09.09,0,1,1,0,.19Z"/></g></g></svg>