<svg xmlns="http://www.w3.org/2000/svg" xmlns:xlink="http://www.w3.org/1999/xlink" viewBox="0 0 40.93 62.29"><defs><style>.cls-1{fill:#b70027;}.cls-2{fill:none;}.cls-3{fill:#fff;}.cls-4{fill:#990028;}.cls-5{clip-path:url(#clip-path);}.cls-6{fill:#f70032;}.cls-7{clip-path:url(#clip-path-2);}.cls-8{fill:#0c0a35;}.cls-9{fill:#ffd6a1;}.cls-10{clip-path:url(#clip-path-3);}.cls-11{clip-path:url(#clip-path-4);}.cls-12{clip-path:url(#clip-path-5);}.cls-13{clip-path:url(#clip-path-6);}.cls-14{clip-path:url(#clip-path-7);}.cls-15{clip-path:url(#clip-path-8);}.cls-16{fill:#222272;}.cls-17{fill:#d6002b;}</style><clipPath id="clip-path"><path class="cls-1" d="M24.95,27.55a6.12,6.12,0,0,0-3.14.92,12.8,12.8,0,0,0-2.47,2.27,2.76,2.76,0,0,0-.92-1.31,6.44,6.44,0,0,0-1.27-.67L16,28.24c-.61-.27-1.36-.25-1.75-.79a1.64,1.64,0,0,1-.22-.58c-.59-2.44-1.17-5.09-.13-7.37A4.77,4.77,0,0,0,9.54,21.1a6,6,0,0,0-1.35,4.48,6.06,6.06,0,0,0,.58,2.1,7.23,7.23,0,0,0,1.41,1.91,10.56,10.56,0,0,0,5.45,2.89,19.5,19.5,0,0,0,3.24.27,18.43,18.43,0,0,0,7.08-.8A19.66,19.66,0,0,0,28,31a5.38,5.38,0,0,0,1.52-1,4.9,4.9,0,0,0,.76-1.26,28.84,28.84,0,0,0,1.36-3.52,7.17,7.17,0,0,0,.42-2.23,4.66,4.66,0,0,0-1.81-3.5,6.18,6.18,0,0,0-3.79-1.25,1.78,1.78,0,0,0-1.63.66,1.62,1.62,0,0,0-.17.69,20.52,20.52,0,0,0,.48,4A10.12,10.12,0,0,1,24.95,27.55Z"/></clipPath><clipPath id="clip-path-2"><path class="cls-1" d="M15.38,19.55a1.86,1.86,0,0,0,2.05.14,1,1,0,0,0,.28-.24,1.22,1.22,0,0,0,.18-.6,26.88,26.88,0,0,0-.17-7.28,4.46,4.46,0,0,0-.36-1.29A2.77,2.77,0,0,0,16,9.37a4.69,4.69,0,0,0-1.86,3,10.46,10.46,0,0,0,0,4,9.48,9.48,0,0,0,.42,1.83A2.87,2.87,0,0,0,15.38,19.55Z"/></clipPath><clipPath id="clip-path-3"><path class="cls-2" d="M26.1,11.66a7.82,7.82,0,0,0-2.4-3.38,8.28,8.28,0,0,0-4.17-2,4.88,4.88,0,0,0-1.1-.19,3.12,3.12,0,0,0-2,.59c-2,1.48-1.33,2.89-1.2,3.18a11.31,11.31,0,0,0,2.32,3.35,6.93,6.93,0,0,0,1,.86,6.16,6.16,0,0,0,3.94.89l0,.1a10,10,0,0,1,.48,3.27c-.06,2.12-.35,2.73,0,3.13s1.24-.46,1.64-1.07a16.83,16.83,0,0,0,1.09-1.73A10.27,10.27,0,0,0,26.1,11.66Z"/></clipPath><clipPath id="clip-path-4"><path class="cls-2" d="M32.65,26.18c-.3.47-.9.45-1.42.45a2.94,2.94,0,0,1-2.06-.5,3.18,3.18,0,0,1-.66-1.05c-.83-1.77-2-3.45-2.15-5.4a.43.43,0,0,1,.05-.3,3.76,3.76,0,0,0,.88.53A.53.53,0,0,0,28,19.7l.64-1.16q.62.55,1.27,1.08a.36.36,0,0,0,.47,0,10.29,10.29,0,0,1,1.39-1.11l.91,1.41a.29.29,0,0,0,.13.13A.28.28,0,0,0,33,20l1.42-.7.17,1.37a.2.2,0,0,0,.26.17,2.89,2.89,0,0,1,1.38-.07A9.54,9.54,0,0,1,34.73,23C34.3,23.54,33,25.58,32.65,26.18Z"/></clipPath><clipPath id="clip-path-5"><path class="cls-1" d="M16,34.72a6.14,6.14,0,0,0,3.14-.92,12.75,12.75,0,0,0,2.47-2.28,2.76,2.76,0,0,0,.91,1.31,6.4,6.4,0,0,0,1.27.67L25,34c.61.27,1.36.25,1.75.79a1.66,1.66,0,0,1,.22.58c.59,2.44,1.17,5.09.13,7.37a4.77,4.77,0,0,0,4.31-1.61,6,6,0,0,0,1.35-4.48,6.16,6.16,0,0,0-.58-2.1,7.27,7.27,0,0,0-1.41-1.91,10.55,10.55,0,0,0-5.45-2.89,19.49,19.49,0,0,0-3.24-.27,18.43,18.43,0,0,0-7.08.8,19,19,0,0,0-2.09,1,5.38,5.38,0,0,0-1.52,1,4.86,4.86,0,0,0-.76,1.26,29,29,0,0,0-1.36,3.52,7.16,7.16,0,0,0-.42,2.23,4.66,4.66,0,0,0,1.81,3.5,6.21,6.21,0,0,0,3.79,1.25,1.78,1.78,0,0,0,1.63-.67,1.64,1.64,0,0,0,.18-.69,20.59,20.59,0,0,0-.48-4A10.12,10.12,0,0,1,16,34.72Z"/></clipPath><clipPath id="clip-path-6"><path class="cls-1" d="M25.54,42.72a1.85,1.85,0,0,0-2.05-.14,1,1,0,0,0-.28.24,1.22,1.22,0,0,0-.18.6,26.87,26.87,0,0,0,.17,7.28A4.48,4.48,0,0,0,23.56,52,2.78,2.78,0,0,0,25,52.9a4.67,4.67,0,0,0,1.86-3,10.46,10.46,0,0,0,0-4,9.68,9.68,0,0,0-.42-1.83A2.9,2.9,0,0,0,25.54,42.72Z"/></clipPath><clipPath id="clip-path-7"><path class="cls-2" d="M14.83,50.61A7.81,7.81,0,0,0,17.22,54a8.28,8.28,0,0,0,4.16,2,4.81,4.81,0,0,0,1.1.19,3.12,3.12,0,0,0,2-.59c2-1.48,1.33-2.89,1.2-3.18A11.33,11.33,0,0,0,23.33,49a7,7,0,0,0-1-.86,6.16,6.16,0,0,0-3.94-.89l0-.1a9.89,9.89,0,0,1-.48-3.27c.06-2.12.35-2.73,0-3.12s-1.24.46-1.64,1.07a16.69,16.69,0,0,0-1.09,1.73A10.27,10.27,0,0,0,14.83,50.61Z"/></clipPath><clipPath id="clip-path-8"><path class="cls-2" d="M8.28,36.09c.3-.47.9-.45,1.42-.45a2.93,2.93,0,0,1,2.06.5,3.18,3.18,0,0,1,.66,1.05c.83,1.77,2,3.46,2.15,5.4a.43.43,0,0,1-.05.3,3.8,3.8,0,0,0-.88-.53.53.53,0,0,0-.69.22l-.64,1.16q-.63-.55-1.27-1.08a.36.36,0,0,0-.47,0,10.4,10.4,0,0,1-1.39,1.11l-.91-1.41a.28.28,0,0,0-.13-.13.29.29,0,0,0-.21,0L6.52,43l-.17-1.37a.21.21,0,0,0-.26-.17,2.9,2.9,0,0,1-1.39.07,9.44,9.44,0,0,1,1.5-2.26C6.62,38.74,7.9,36.69,8.28,36.09Z"/></clipPath></defs><title>Fichier 52</title><g id="Calque_2" data-name="Calque 2"><g id="Layer_1" data-name="Layer 1"><rect class="cls-3" x="0.09" y="0.09" width="40.75" height="62.1" rx="3.45" ry="3.45"/><path class="cls-3" d="M37.39,62.29H3.54A3.55,3.55,0,0,1,0,58.74V3.54A3.55,3.55,0,0,1,3.54,0H37.39a3.55,3.55,0,0,1,3.54,3.54v55.2A3.55,3.55,0,0,1,37.39,62.29ZM3.54.19A3.36,3.36,0,0,0,.19,3.54v55.2A3.36,3.36,0,0,0,3.54,62.1H37.39a3.36,3.36,0,0,0,3.36-3.36V3.54A3.36,3.36,0,0,0,37.39.19Z"/><path class="cls-4" d="M35.25,28.94a15.52,15.52,0,0,0-1.58-2.7A32.45,32.45,0,0,0,31,23.77c-1-.86-5.09,1.71-5.74.6-1.25-2.17-1.09-4.9-2.17-7.15a.63.63,0,0,0-.3-.35.66.66,0,0,0-.35,0,9.67,9.67,0,0,0-5,2.73,1.4,1.4,0,0,0-.34.47,1.91,1.91,0,0,0-.24,1,5.54,5.54,0,0,1,0,3.45,4.55,4.55,0,0,1-2.45,2.41c-1.42.55-3.1-4.69-4.52-4.14a19.65,19.65,0,0,0-2.33,1.88,8.92,8.92,0,0,0-2,3.38,8.74,8.74,0,0,0,.13,5.29A20.47,20.47,0,0,0,7.25,36,31.92,31.92,0,0,0,10,38.51c1,.86,5.09-1.71,5.73-.6,1.25,2.17,1.09,4.9,2.17,7.15a.64.64,0,0,0,.3.35.66.66,0,0,0,.35,0,9.64,9.64,0,0,0,5-2.73,1.45,1.45,0,0,0,.34-.47,1.91,1.91,0,0,0,.24-1,5.56,5.56,0,0,1,0-3.45,4.55,4.55,0,0,1,2.46-2.41c1.42-.55,3.1,4.68,4.52,4.14a19.74,19.74,0,0,0,2.33-1.87,9,9,0,0,0,2-3.37A12.58,12.58,0,0,0,35.25,28.94Z"/><path class="cls-4" d="M26.15,15.34A2.58,2.58,0,0,0,27.48,14,5.88,5.88,0,0,0,28,12.19a32.85,32.85,0,0,0-.17-7.41,6.11,6.11,0,0,0-.41-1.94.26.26,0,0,0-.12-.15c-.12,0-.23.07-.3.18a7.64,7.64,0,0,1-1.4,1.7.13.13,0,0,1-.19,0,16.61,16.61,0,0,0-1.31-2.07A.21.21,0,0,0,24,2.39c-.08,0-.14.07-.18.14-.41.74-.75,1.33-1.18,2a.14.14,0,0,1-.18.06c-.55-.26-1.6-1.54-2.18-1.95a.09.09,0,0,0-.14.07c0,.67.12,2.66.14,3.34s0,1.1,0,1.65a9.35,9.35,0,0,0,1.26,3.87,19.62,19.62,0,0,0,2,2.71,3.71,3.71,0,0,0,1.08,1A2.14,2.14,0,0,0,26.15,15.34Z"/><path class="cls-1" d="M24.95,27.55a6.12,6.12,0,0,0-3.14.92,12.8,12.8,0,0,0-2.47,2.27,2.76,2.76,0,0,0-.92-1.31,6.44,6.44,0,0,0-1.27-.67L16,28.24c-.61-.27-1.36-.25-1.75-.79a1.64,1.64,0,0,1-.22-.58c-.59-2.44-1.17-5.09-.13-7.37A4.77,4.77,0,0,0,9.54,21.1a6,6,0,0,0-1.35,4.48,6.06,6.06,0,0,0,.58,2.1,7.23,7.23,0,0,0,1.41,1.91,10.56,10.56,0,0,0,5.45,2.89,19.5,19.5,0,0,0,3.24.27,18.43,18.43,0,0,0,7.08-.8A19.66,19.66,0,0,0,28,31a5.38,5.38,0,0,0,1.52-1,4.9,4.9,0,0,0,.76-1.26,28.84,28.84,0,0,0,1.36-3.52,7.17,7.17,0,0,0,.42-2.23,4.66,4.66,0,0,0-1.81-3.5,6.18,6.18,0,0,0-3.79-1.25,1.78,1.78,0,0,0-1.63.66,1.62,1.62,0,0,0-.17.69,20.52,20.52,0,0,0,.48,4A10.12,10.12,0,0,1,24.95,27.55Z"/><g class="cls-5"><path class="cls-4" d="M7.38,24.34a20.46,20.46,0,0,1,4.18-1.83c1-.23,2.54-.28,3-1.4a.37.37,0,0,0-.26-.45c-1-.36-2.72.29-3.7.65a21.45,21.45,0,0,0-3.61,2.28.44.44,0,0,0,.44.75Z"/><path class="cls-4" d="M7.2,28.37c.31-.8,2-1.36,2.66-1.79A11.32,11.32,0,0,0,13,24.26a.33.33,0,0,0-.29-.5C11.1,23.89,9.77,25.19,8.5,26c-.76.51-1.83,1.16-2,2.13a.38.38,0,0,0,.73.2Z"/><path class="cls-4" d="M9.65,30.76a20.79,20.79,0,0,1,3-2.3c.87-.67,2.12-1.35,2.6-2.38a.36.36,0,0,0-.41-.53c-1.2.27-2.31,1.38-3.26,2.13A9.55,9.55,0,0,0,9.1,30.33c-.19.34.28.73.55.43Z"/><path class="cls-4" d="M11.94,32.78c.82-.82,1.66-1.61,2.49-2.41s2-1.43,2.59-2.41a.42.42,0,0,0-.36-.62c-1.19,0-2.2,1-3,1.82a11.89,11.89,0,0,0-2.23,3.25.31.31,0,0,0,.49.38Z"/><path class="cls-4" d="M19.47,28.6a6.42,6.42,0,0,1,1,1.36c.47.69,1,1.31,1.51,2a19.91,19.91,0,0,1,1.14,2c.32.6.55,1.23,1.28,1.35a.43.43,0,0,0,.48-.2,1.56,1.56,0,0,0-.24-1.61,22.25,22.25,0,0,0-1.56-2.38,22.89,22.89,0,0,0-1.69-1.86A8.75,8.75,0,0,0,20,27.86c-.45-.3-1,.39-.57.74Z"/><path class="cls-4" d="M21.53,27.5a6.41,6.41,0,0,1,1.2,1.16c.58.6,1.25,1.1,1.84,1.7A19.91,19.91,0,0,1,26,32.11c.42.54.76,1.12,1.5,1.1a.43.43,0,0,0,.44-.28,1.56,1.56,0,0,0-.52-1.54,22,22,0,0,0-2-2.07,22.52,22.52,0,0,0-2-1.53A8.68,8.68,0,0,0,22,26.67a.47.47,0,0,0-.43.83Z"/><path class="cls-4" d="M23.93,26.21a6.43,6.43,0,0,1,1.2,1.16c.58.6,1.25,1.1,1.84,1.69a19.93,19.93,0,0,1,1.47,1.75c.42.54.76,1.12,1.5,1.1a.43.43,0,0,0,.44-.28,1.56,1.56,0,0,0-.52-1.54,22.46,22.46,0,0,0-2-2.06,23,23,0,0,0-2-1.53,8.71,8.71,0,0,0-1.56-1.13.48.48,0,0,0-.43.83Z"/><path class="cls-4" d="M28,21.76a13.58,13.58,0,0,1,3.91,1c.92.36,2.17,1.1,3.18.78a.33.33,0,0,0,.2-.49c-.6-.9-2.07-1.19-3.05-1.46A15.48,15.48,0,0,0,28,21a.36.36,0,0,0,0,.72Z"/><path class="cls-4" d="M14,33.53c1.82-1.52,3.91-2.86,5.28-4.85.17-.25-.11-.52-.36-.47a5.51,5.51,0,0,0-2.63,1.86c-.92,1-1.93,1.89-2.8,2.93a.37.37,0,0,0,.52.52Z"/></g><path class="cls-1" d="M16.61,24.69a3.63,3.63,0,0,1,.7-1.32,3,3,0,0,0,2.55.6,6.09,6.09,0,0,0,2.42-1.16l.36.83a.27.27,0,0,1,0,.15.29.29,0,0,1-.08.13,4.31,4.31,0,0,1-2.85,1.27A7.76,7.76,0,0,1,16.61,24.69Z"/><path class="cls-6" d="M11.35,20.44a4.45,4.45,0,0,0-.55,1.82,7.53,7.53,0,0,0,.44,3.9A4.55,4.55,0,0,0,14,28.78a2.61,2.61,0,0,0,1.15.09,3.71,3.71,0,0,0,1-.38,3.76,3.76,0,0,0,1.32-.94,3.29,3.29,0,0,0,.38-2.76,16.59,16.59,0,0,1-.63-2.8,18.72,18.72,0,0,1,.15-2A3,3,0,0,0,17,18a1.92,1.92,0,0,0-1-.71,1.12,1.12,0,0,0-.55,0,1.36,1.36,0,0,0-.38.16A13.11,13.11,0,0,0,12,19.63,4.55,4.55,0,0,0,11.35,20.44Z"/><path class="cls-6" d="M20.92,26.33a5,5,0,0,0,.55,1.24A3.62,3.62,0,0,0,23,28.73a4.85,4.85,0,0,0,4.35,0,6.24,6.24,0,0,0,2.38-3.14,7.37,7.37,0,0,0,.7-3.25,7.76,7.76,0,0,0-1-3.19c-1.07-1.95-3.09-3-4-3.89a13.28,13.28,0,0,1-.9-1.19,6.48,6.48,0,0,0-2.68-2,2.15,2.15,0,0,0-1.29-.18.94.94,0,0,0-.75.95,1.7,1.7,0,0,0,.52.83,4.5,4.5,0,0,1,1.12,2.76c.1,2.09-1.26,4-1.36,6.1A10.4,10.4,0,0,0,20.92,26.33Z"/><path class="cls-1" d="M15.38,19.55a1.86,1.86,0,0,0,2.05.14,1,1,0,0,0,.28-.24,1.22,1.22,0,0,0,.18-.6,26.88,26.88,0,0,0-.17-7.28,4.46,4.46,0,0,0-.36-1.29A2.77,2.77,0,0,0,16,9.37a4.69,4.69,0,0,0-1.86,3,10.46,10.46,0,0,0,0,4,9.48,9.48,0,0,0,.42,1.83A2.87,2.87,0,0,0,15.38,19.55Z"/><g class="cls-7"><path class="cls-8" d="M15.64,10.11c-1.52.94-1.43,3.84-1.37,5.35s.46,4.32,2.39,4.74a.05.05,0,0,0,0-.1A3.8,3.8,0,0,1,15,18a12.27,12.27,0,0,1-.38-2.94,7.26,7.26,0,0,1,1.23-4.77c.09-.12-.08-.26-.19-.19Z"/><path class="cls-8" d="M15.74,11a5,5,0,0,0-.72,2.9c0,.67,0,1.75.63,2.13a.1.1,0,0,0,.15-.12,7.57,7.57,0,0,1,.1-4.84.09.09,0,0,0-.17-.07Z"/></g><path class="cls-9" d="M15.18,8.77c-.25,1.23.37,2.49.2,3.73a5.84,5.84,0,0,1-.76,1.91,7.78,7.78,0,0,1-1.11,1.28c-.06.06-.12.15-.09.23a.21.21,0,0,0,.08.11c.25.2.6.21.87.37a1.88,1.88,0,0,1,.71,1.08A12.52,12.52,0,0,1,15.56,19c.09.43.14.87.26,1.29a1.21,1.21,0,0,0,.19.43,1,1,0,0,0,.47.32,3.24,3.24,0,0,0,3-.76,7,7,0,0,0,2.64-5.27,3.76,3.76,0,0,0,0-.76,4.2,4.2,0,0,0-.41-1.1,5.92,5.92,0,0,0-.41-.71,7.68,7.68,0,0,0-1-1.15L18.67,9.86a6.43,6.43,0,0,0-1-.84,3.23,3.23,0,0,0-1.73-.48C15.7,8.54,15.22,8.55,15.18,8.77Z"/><path class="cls-6" d="M17,18c-.16,0-.56.16-.72.16-.36,0-.52,0-.88,0a.82.82,0,0,1-.42-.06.31.31,0,0,1-.19-.37.34.34,0,0,1,.18-.17,1.18,1.18,0,0,1,.89.1l.5.19A1.18,1.18,0,0,0,17,18Z"/><path class="cls-6" d="M16.45,18.51a1,1,0,0,1-.93.52c-.34,0-.75-.33-.49-.61a.68.68,0,0,1,.31-.16A5.68,5.68,0,0,1,17,18,1.77,1.77,0,0,0,16.45,18.51Z"/><path class="cls-8" d="M19.88,18.86a1.14,1.14,0,0,0,1.19.47,1.65,1.65,0,0,0,.39-.14c.19-.09.76-.36.63-1.38a1.21,1.21,0,0,0-1.48-.92,1.2,1.2,0,0,0-.9.82,1.09,1.09,0,0,0-.06.5A1.38,1.38,0,0,0,19.88,18.86Z"/><path class="cls-1" d="M21.53,18.35a.63.63,0,0,0-.1-.75.78.78,0,0,0-.73-.18.58.58,0,0,0-.37.24.71.71,0,0,0-.08.35.69.69,0,0,0,1,.61A.67.67,0,0,0,21.53,18.35Z"/><path class="cls-3" d="M19.66,14.38a3.56,3.56,0,0,1-2.2.7,7,7,0,0,1-1.63-.66,1.5,1.5,0,0,1,.71-.51,3.53,3.53,0,0,1,1.32-.27,4.13,4.13,0,0,1,.79.11,2,2,0,0,1,.5.28Z"/><path class="cls-1" d="M19.27,15.32a.75.75,0,0,0-.59.5.66.66,0,0,0,.23.73.86.86,0,0,0,.46.14.9.9,0,0,0,.37-.05.68.68,0,0,0,.42-.66A.74.74,0,0,0,19.27,15.32Z"/><path class="cls-8" d="M18.35,14.16a.55.55,0,0,0-.75-.32.46.46,0,0,0-.31.44.59.59,0,0,0,.57.59A.53.53,0,0,0,18.35,14.16Z"/><path class="cls-6" d="M21.51,8.33,21,7.55a1,1,0,0,1-.15-.26,1.18,1.18,0,0,1,0-.3,8.93,8.93,0,0,1,.1-2.18A8.13,8.13,0,0,1,22.59,7a2.21,2.21,0,0,1-.12,2.23A1.86,1.86,0,0,1,21.51,8.33Z"/><path class="cls-6" d="M23.58,6.14c.18-.39.35-.87.53-1.27a.06.06,0,0,1,.09,0,9.69,9.69,0,0,1,1.51,2.36,1,1,0,0,1,.11.32,1.17,1.17,0,0,1-.14.55,13.89,13.89,0,0,0-.87,2.44c-.29,0-.26-.71-.43-.88a6.35,6.35,0,0,1-.88-1.47c-.27-.55-.38-.51-.24-1.08A7.06,7.06,0,0,1,23.58,6.14Z"/><path class="cls-6" d="M27,9.82A5.23,5.23,0,0,0,27.52,11a.07.07,0,0,0,.12,0,10.82,10.82,0,0,0,.1-2.29,13.18,13.18,0,0,0-.45-3.75.06.06,0,0,0-.1,0A8.62,8.62,0,0,0,26.28,7a2.51,2.51,0,0,0-.13.44.87.87,0,0,0,0,.28C26.4,8.5,26.69,9.07,27,9.82Z"/><path class="cls-1" d="M19.46,1a.1.1,0,0,1,.17-.07c.2.14.69.56.9.75a.2.2,0,0,1,.07.09.2.2,0,0,1,0,.08,6.17,6.17,0,0,1-.26,1,.07.07,0,0,1-.11,0c-.3-.17-.45-.33-.75-.54-.13-.09-.22-.18-.22-.22C19.29,1.91,19.37,1.44,19.46,1Z"/><path class="cls-1" d="M23.71.6a.1.1,0,0,1,.18,0c.15.2.51.73.66,1a.19.19,0,0,1,0,.11.18.18,0,0,1,0,.08,6.07,6.07,0,0,1-.54.92.07.07,0,0,1-.11,0c-.24-.25-.34-.45-.57-.73-.1-.12-.17-.23-.15-.28C23.3,1.44,23.5,1,23.71.6Z"/><path class="cls-1" d="M27.59.84a.1.1,0,0,1,.18,0c.09.23.29.84.37,1.11a.21.21,0,0,1,0,.12.2.2,0,0,1,0,.07,6.1,6.1,0,0,1-.77.74.07.07,0,0,1-.11,0c-.16-.3-.21-.52-.35-.86-.06-.14-.1-.27-.07-.31S27.27,1.18,27.59.84Z"/><path class="cls-8" d="M16,14.42a3.07,3.07,0,0,1,1.4-.51c.38,0,.85.09,1.16-.17a.15.15,0,0,0,0-.19c-.26-.44-1-.31-1.41-.22a2.14,2.14,0,0,0-1.31,1c-.05.08.05.19.13.13Z"/><path class="cls-1" d="M26.1,11.66a7.82,7.82,0,0,0-2.4-3.38,8.28,8.28,0,0,0-4.17-2,4.88,4.88,0,0,0-1.1-.19,3.12,3.12,0,0,0-2,.59c-2,1.48-1.33,2.89-1.2,3.18a11.31,11.31,0,0,0,2.32,3.35,6.93,6.93,0,0,0,1,.86,6.16,6.16,0,0,0,3.94.89l0,.1a10,10,0,0,1,.48,3.27c-.06,2.12-.35,2.73,0,3.13s1.24-.46,1.64-1.07a16.83,16.83,0,0,0,1.09-1.73A10.27,10.27,0,0,0,26.1,11.66Z"/><path class="cls-8" d="M19.84,2.76v0a.35.35,0,0,0,.18.31h0A.36.36,0,0,0,20.46,3a.36.36,0,0,0,.05-.43l-.08-.1a.35.35,0,0,0-.34-.09.36.36,0,0,0-.26.34Z"/><path class="cls-8" d="M23.93,3a.4.4,0,1,0-.4-.4.4.4,0,0,0,.4.4Z"/><path class="cls-8" d="M27.31,3.17a.38.38,0,0,0,0-.76.38.38,0,0,0,0,.76Z"/><g class="cls-10"><path class="cls-8" d="M15.32,7.72c-.36.62,0,1.38.23,2a9.13,9.13,0,0,0,1.62,2.75c1.17,1.38,2.94,3.85,5,3.87a.09.09,0,0,0,0-.16A13.62,13.62,0,0,1,20,14.8a21.28,21.28,0,0,1-1.81-1.91,11.34,11.34,0,0,1-1.85-2.42,7.48,7.48,0,0,1-1-2.74,0,0,0,0,0,0,0Z"/><path class="cls-8" d="M15.55,6.7C15.28,7.75,16,9,16.41,10a8.93,8.93,0,0,0,1.42,1.9,26.79,26.79,0,0,0,1.88,2.05c.73.69,2,1.25,2.5,2.16a.18.18,0,0,0,.33-.09c0-.6-.75-1-1.17-1.32a18.74,18.74,0,0,1-2.32-2.1c-1.54-1.67-3.19-3.47-3.43-5.86,0,0-.06-.05-.07,0Z"/><path class="cls-8" d="M16,6.42a4.57,4.57,0,0,0,1,3,19.53,19.53,0,0,0,2.75,3.4c.94.92,2.12,1.51,3.06,2.41a2.46,2.46,0,0,1,.63,2.42c-.16.71-.81,1-1.1,1.62,0,.06,0,.15.11.11a2.87,2.87,0,0,0,.18-4.84C19.8,12.44,16.9,9.94,16.08,6.4c0-.08-.12-.05-.13,0Z"/><path class="cls-8" d="M22,15.53c0,.29.2.54.34.78.28.46.12.79-.06,1.27a.4.4,0,0,0,.18.46l.1,0a.41.41,0,0,0,.5-.28,1.93,1.93,0,0,0,.06-1.53c-.16-.34-.57-.86-1-.87a.15.15,0,0,0-.14.14Z"/><path class="cls-8" d="M16.54,6c-.31,1,.58,2.08,1,3,.74,1.4,2,2.29,3.06,3.44s2.54,1.91,3.4,3.35c1.1,1.83-.57,3-1.51,4.34-.11.15.11.28.24.18a4.73,4.73,0,0,0,2-2.93,4.15,4.15,0,0,0-1.5-3.18,18,18,0,0,0-1.85-1.58,26.44,26.44,0,0,1-2-2A13.12,13.12,0,0,1,16.65,6a.06.06,0,0,0-.11,0Z"/><path class="cls-8" d="M17.29,5.74A8.42,8.42,0,0,0,19,9.42a17.34,17.34,0,0,0,3.32,3.21c1.48,1.3,2.71,2.77,2.62,4.84-.08,1.86-1.64,2.62-2.61,4-.14.19.15.37.3.23a8.56,8.56,0,0,0,2.43-3.24,4.64,4.64,0,0,0-.88-4.36c-1-1.34-2.49-2.13-3.58-3.37a17.45,17.45,0,0,1-1.78-2.37c-.53-.85-.91-1.79-1.43-2.62,0-.05-.14,0-.13,0Z"/><path class="cls-8" d="M18.16,5.73a16,16,0,0,0,2.1,3.89c.73,1.22,2.19,2,3.2,3,1.35,1.3,2.62,3.4,2.31,5.32s-2,2.89-3.16,4.13a.21.21,0,0,0,.25.32A8.3,8.3,0,0,0,25.93,19c.72-1.71.22-3.09-.65-4.62a18,18,0,0,0-3.45-3.64,24.61,24.61,0,0,1-3.53-5.05.07.07,0,0,0-.13.05Z"/><path class="cls-8" d="M19.25,6c.64,1.9,2.29,3.64,3.58,5.14.66.77,1.58,1.29,2.25,2.05A6.29,6.29,0,0,1,26.6,17a.06.06,0,0,0,.13,0c.22-2.12-1-3.79-2.5-5.1a18.75,18.75,0,0,1-2.38-2.61C21,8.28,20.08,7.14,19.32,6c0,0-.08,0-.07,0Z"/><path class="cls-8" d="M19.94,5.7c.29.37.46.81.73,1.2s.6.72.87,1.11c.48.69,1,1.39,1.54,2a27.47,27.47,0,0,0,2.11,2.3,12.19,12.19,0,0,1,.91.87,6.43,6.43,0,0,1,1,1.91.09.09,0,0,0,.17,0c0-1.83-2.07-3.37-3.16-4.61C22.68,8.92,21.51,7.12,20,5.65c0,0-.08,0-.05.05Z"/><path class="cls-8" d="M21.55,6.48a23.15,23.15,0,0,0,2.73,3.4c.51.55,1,1.07,1.58,1.6a5.7,5.7,0,0,1,1.36,2.38.12.12,0,0,0,.23,0c.34-1.45-1.42-2.74-2.31-3.6C23.89,9,22.83,7.67,21.64,6.41a.06.06,0,0,0-.09.07Z"/></g><path class="cls-1" d="M23.61,7.31v0a.68.68,0,0,0,1.36,0v0a.68.68,0,0,0-1.36,0Z"/><path class="cls-1" d="M27,7.93a.55.55,0,1,0-.55-.55.55.55,0,0,0,.55.55Z"/><path class="cls-1" d="M22.7,5.46h0l-.09.05h0a.22.22,0,0,0,.2-.15.21.21,0,0,0-.15-.26.25.25,0,0,0-.31.19.19.19,0,0,0,.32.19Z"/><path class="cls-1" d="M22.82,6h0c-.22-.13-.37.25-.13.31a.24.24,0,0,0,.15,0,.17.17,0,0,0,0-.32.24.24,0,0,0-.15,0c-.24.06-.09.44.13.31h0a.14.14,0,0,0,0-.27Z"/><path class="cls-1" d="M25.58,5.28a.18.18,0,0,0,0-.36.18.18,0,0,0,0,.36Z"/><path class="cls-1" d="M25.63,5.75l0,0a.15.15,0,0,0,.21-.21l0,0c-.12-.14-.35.08-.21.21Z"/><path class="cls-1" d="M26,9.54h0l-.11-.09h0a.19.19,0,1,0,.27-.27.23.23,0,0,0-.18,0,.18.18,0,0,0-.13.18.19.19,0,0,0,.13.18Z"/><path class="cls-1" d="M26.31,10.35a.21.21,0,0,0,0-.42.21.21,0,0,0,0,.42Z"/><path class="cls-1" d="M26.41,11.16a.18.18,0,0,0,0-.37.18.18,0,0,0,0,.37Z"/><path class="cls-1" d="M26.45,11.61v0a.17.17,0,1,0,.32,0v0a.16.16,0,0,0-.3,0Z"/><path class="cls-1" d="M26.52,12.22a.18.18,0,0,0,.06.15c.11.1.31,0,.21-.16v0c.05-.2-.26-.25-.28,0Z"/><path class="cls-1" d="M26.7,13a.2.2,0,0,0,.11.08c.14,0,.2-.15.09-.22h0a.12.12,0,0,0-.12,0h0a.11.11,0,0,0,0,.15Z"/><path class="cls-1" d="M26.89,13.81a.11.11,0,0,0,0-.23.11.11,0,0,0,0,.23Z"/><path class="cls-1" d="M13.7,19.15a3.57,3.57,0,0,0,.12.47c0,.07.07.31.2.26.3-.12,0-.61-.11-.79a.11.11,0,0,0-.21.06Z"/><path class="cls-1" d="M12.92,20.09a2.74,2.74,0,0,0-.09.77c0,.15.25.13.28,0a2.06,2.06,0,0,0,0-.75c0-.08-.15-.12-.16,0Z"/><path class="cls-1" d="M14.1,20.84l.24.2a.33.33,0,0,0,.23.1.07.07,0,0,0,.07-.07c0-.18-.24-.3-.36-.41s-.29.07-.17.17Z"/><path class="cls-1" d="M14.89,20.23a1.13,1.13,0,0,1,.35.07c.07,0,.2,0,.2-.09,0-.25-.42-.24-.58-.21s-.1.23,0,.23Z"/><path class="cls-1" d="M15.7,21.33a1.86,1.86,0,0,0,0,.44,1.61,1.61,0,0,0,.1.43.18.18,0,0,0,.32,0c.08-.29-.16-.57-.21-.86s-.23-.1-.24,0Z"/><path class="cls-1" d="M14.71,22.16c-.12.22-.34.57-.2.81a.16.16,0,0,0,.27,0,.74.74,0,0,0,.1-.33,2.86,2.86,0,0,1,.1-.38.14.14,0,0,0-.26-.11Z"/><path class="cls-1" d="M13.09,21.92l-.27.37c-.08.1-.2.21-.14.35a.07.07,0,0,0,.07.05c.14,0,.22-.14.29-.24s.18-.27.26-.41a.12.12,0,0,0-.2-.12Z"/><path class="cls-1" d="M11.78,21.59a2.56,2.56,0,0,0-.14.29.5.5,0,0,0-.07.28,0,0,0,0,0,.08,0,.59.59,0,0,0,.12-.22,2.24,2.24,0,0,1,.14-.29c0-.09-.08-.16-.13-.08Z"/><path class="cls-1" d="M11.71,23.3c.13.13.22.3.33.44s.21.29.38.28a.08.08,0,0,0,.08-.08c0-.16-.16-.29-.25-.4a2.75,2.75,0,0,0-.42-.39c-.09-.07-.2.08-.12.16Z"/><path class="cls-1" d="M11.85,24.93c.14.15.22.36.43.42a.07.07,0,0,0,.09-.06,1,1,0,0,0-.33-.54c-.12-.12-.3.06-.19.19Z"/><path class="cls-1" d="M13.71,24a2.69,2.69,0,0,1,.09.4c0,.11,0,.26.12.31a.09.09,0,0,0,.1,0c.1-.08.06-.22,0-.32A2.77,2.77,0,0,0,14,23.9c-.05-.15-.29-.09-.25.07Z"/><path class="cls-1" d="M15.45,23.58c.05.21.13.53.35.62a.07.07,0,0,0,.09-.07.71.71,0,0,0-.1-.29,1.75,1.75,0,0,1-.11-.33c0-.15-.27-.09-.23.06Z"/><path class="cls-1" d="M16.45,22.93l.18.19a.22.22,0,0,0,.19.08.06.06,0,0,0,.06-.06.23.23,0,0,0-.09-.19l-.18-.19c-.1-.12-.27.05-.17.17Z"/><path class="cls-1" d="M16.9,24.29a2.08,2.08,0,0,1-.08.51c0,.12,0,.26.09.32a.07.07,0,0,0,.07,0c.11-.07.11-.22.12-.34a2.08,2.08,0,0,0,0-.52c0-.12-.22-.09-.22,0Z"/><path class="cls-1" d="M15,25.15a1.42,1.42,0,0,0,.09.67.06.06,0,0,0,.11,0c.12-.2,0-.46,0-.67S15,25,15,25.15Z"/><path class="cls-1" d="M13.48,26h.28A.77.77,0,0,0,14,26a.07.07,0,0,0,0-.1c-.09-.18-.44-.11-.6-.1a.1.1,0,0,0,0,.21Z"/><path class="cls-1" d="M12.44,26.5c0,.09,0,.17,0,.26s0,.17.07.23a.07.07,0,0,0,.08,0c.14-.11.05-.35,0-.5s-.23-.14-.22,0Z"/><path class="cls-1" d="M13.86,27.62a.56.56,0,0,1,.32.06.78.78,0,0,0,.3.06.05.05,0,0,0,0-.09.6.6,0,0,0-.31-.2.67.67,0,0,0-.4,0,.09.09,0,0,0,0,.18Z"/><path class="cls-1" d="M15.39,26.93a2.77,2.77,0,0,0,.26.25,2.48,2.48,0,0,0,.28.23c.11.07.21-.06.17-.17a.75.75,0,0,0-.25-.26l-.32-.23c-.11-.08-.22.09-.14.18Z"/><path class="cls-1" d="M16.7,26.26l.24.13a.78.78,0,0,0,.25.13.14.14,0,0,0,.13-.23c-.12-.14-.38-.17-.55-.2s-.18.13-.08.18Z"/><path class="cls-1" d="M15.12,28.56a.79.79,0,0,0,.38,0c.1,0,.27-.08.25-.21s-.17-.12-.26-.09a2.43,2.43,0,0,1-.37.09c-.11,0-.09.17,0,.2Z"/><path class="cls-1" d="M22.16,17c.09.16.26.44.48.38a.06.06,0,0,0,0-.09c0-.09-.12-.12-.2-.17a1.19,1.19,0,0,1-.23-.19s-.11,0-.08.06Z"/><path class="cls-1" d="M22.46,18.32a1.75,1.75,0,0,0-.19.27.43.43,0,0,0-.09.32.06.06,0,0,0,.08,0,.4.4,0,0,0,.16-.22,1.7,1.7,0,0,1,.17-.3c.06-.08-.08-.19-.14-.11Z"/><path class="cls-1" d="M21.49,19.81c.06.15,0,.36.17.47a.05.05,0,0,0,.09,0,.9.9,0,0,0,0-.25,1.34,1.34,0,0,0-.07-.24c0-.08-.17,0-.14.06Z"/><path class="cls-1" d="M22.37,19.79c-.06.14-.1.29-.17.43a0,0,0,0,0,.05.05c.15-.1.16-.26.23-.42s-.08-.14-.12-.07Z"/><path class="cls-1" d="M21.69,21.49c.13,0,.29,0,.39-.09a0,0,0,0,0,0-.06c-.1-.12-.31-.06-.44,0a.1.1,0,0,0,.05.18Z"/><path class="cls-1" d="M25.92,28.46c.13,0,.29,0,.39-.09a0,0,0,0,0,0-.06c-.1-.12-.31-.06-.44,0a.09.09,0,0,0,0,.18Z"/><path class="cls-1" d="M25.48,27.33c.13,0,.29,0,.39-.09a0,0,0,0,0,0-.06c-.1-.12-.31-.06-.44,0a.1.1,0,0,0,0,.18Z"/><path class="cls-1" d="M26.7,25c0,.12,0,.29.12.38a0,0,0,0,0,.06,0c.11-.11,0-.32,0-.44a.09.09,0,0,0-.18.07Z"/><path class="cls-1" d="M22.89,26.4c.13,0,.29,0,.39-.09a0,0,0,0,0,0-.06c-.1-.12-.31-.06-.44,0a.1.1,0,0,0,.05.18Z"/><path class="cls-1" d="M20.8,21.21c0,.18-.12.53.06.66a.06.06,0,0,0,.08,0,.4.4,0,0,0,0-.24,1.43,1.43,0,0,1,0-.35c0-.12-.16-.17-.19-.05Z"/><path class="cls-1" d="M22.36,21l0,0s0,0,0,0l0,0s0,0,0,0Z"/><path class="cls-1" d="M22.68,22.07a1,1,0,0,0,.11.29c0,.07.09.16.18.16a.06.06,0,0,0,.06,0,.22.22,0,0,0,0-.19.81.81,0,0,1-.1-.28c0-.13-.23-.08-.21.06Z"/><path class="cls-1" d="M21.78,22.55c0,.16,0,.37.15.46A.05.05,0,0,0,22,23c0-.14,0-.28,0-.43s-.2-.14-.22,0Z"/><path class="cls-1" d="M20.89,23.29a1.12,1.12,0,0,0,.16.44s0,0,.06,0,0-.32,0-.49-.21-.07-.19.05Z"/><path class="cls-1" d="M22,24.29c.16,0,.32,0,.48,0a.38.38,0,0,0,.32-.12.08.08,0,0,0,0-.1.6.6,0,0,0-.35,0l-.43,0a.1.1,0,0,0,0,.2Z"/><path class="cls-1" d="M23,27.73h.48a.38.38,0,0,0,.32-.12.08.08,0,0,0,0-.11.62.62,0,0,0-.35,0l-.43,0a.1.1,0,0,0,0,.2Z"/><path class="cls-1" d="M23.37,23.41l.3.09c.1,0,.18.11.28.14s.16-.08.13-.16-.48-.23-.69-.23-.12.15,0,.17Z"/><path class="cls-1" d="M23.4,24.85a.84.84,0,0,0-.18.62.11.11,0,0,0,.21,0,1.7,1.7,0,0,0,0-.25.74.74,0,0,1,.11-.27c.07-.11-.1-.2-.17-.1Z"/><path class="cls-1" d="M21.72,25.31l0,0s0,0,0,0l0,0s0,0,0,0Z"/><path class="cls-1" d="M21.29,25.73a1.47,1.47,0,0,0,.39-.16c.11-.06.29-.11.33-.24a.07.07,0,0,0,0-.08c-.12-.07-.24,0-.34.07s-.27.19-.4.28a.07.07,0,0,0,.05.12Z"/><path class="cls-1" d="M21.79,26.92a.75.75,0,0,0,.19.52.05.05,0,0,0,.09,0c0-.17-.07-.32-.08-.48s-.21-.13-.2,0Z"/><path class="cls-1" d="M24.35,22.38a2.44,2.44,0,0,1,.39-.12c.11,0,.25,0,.31-.15A.06.06,0,0,0,25,22a.66.66,0,0,0-.37.08,1.32,1.32,0,0,0-.35.19.06.06,0,0,0,.05.1Z"/><path class="cls-1" d="M25,21.08l.24.3.12.13a.36.36,0,0,0,.16.07s.08,0,.06-.06a.7.7,0,0,0-.05-.14,1.1,1.1,0,0,0-.14-.15L25.16,21a.09.09,0,0,0-.12.13Z"/><path class="cls-1" d="M25.72,22.46a.9.9,0,0,0,.13.45.06.06,0,0,0,.1,0c.09-.14,0-.29,0-.45s-.24-.14-.22,0Z"/><path class="cls-1" d="M24.85,23.73c.08.16.11.39.29.46a.06.06,0,0,0,.07,0c0-.18-.1-.37-.2-.51a.1.1,0,0,0-.17.1Z"/><path class="cls-1" d="M26,24.31a4.35,4.35,0,0,0,.48,0c.13,0,.11-.2,0-.23a.64.64,0,0,0-.51.13s0,.11,0,.11Z"/><path class="cls-1" d="M26,26.15c.16,0,.32,0,.48,0s.11-.2,0-.23A.63.63,0,0,0,26,26s0,.11,0,.11Z"/><path class="cls-1" d="M26.87,27.65a4.38,4.38,0,0,0,.13-.46c0-.13-.16-.16-.22-.07a.64.64,0,0,0,0,.53c0,.05.1.06.11,0Z"/><path class="cls-1" d="M25.17,24.81a2.56,2.56,0,0,0,.24.32.11.11,0,0,0,.17-.13,1.2,1.2,0,0,0-.27-.3c-.08-.06-.21,0-.14.11Z"/><path class="cls-1" d="M24.27,26.35a2.84,2.84,0,0,0,.24.33.11.11,0,0,0,.17-.13,1.17,1.17,0,0,0-.27-.3c-.08-.06-.21,0-.15.11Z"/><path class="cls-1" d="M25.61,20.35h.33c.09,0,.2,0,.26-.08a.06.06,0,0,0,0-.05.22.22,0,0,0-.21-.08h-.38a.11.11,0,0,0,0,.21Z"/><path class="cls-1" d="M24.07,28.6h.33c.09,0,.2,0,.25-.08a.05.05,0,0,0,0-.05.23.23,0,0,0-.21-.08h-.38a.11.11,0,0,0,0,.21Z"/><path class="cls-1" d="M26.62,18.55c0,.21.07.73.34.74a.09.09,0,0,0,.08-.06c0-.12-.07-.26-.12-.37a.66.66,0,0,0-.23-.34.05.05,0,0,0-.08,0Z"/><path class="cls-1" d="M27.19,20.24a.9.9,0,0,0,.39.39,0,0,0,0,0,0,0,.43.43,0,0,0-.13-.17,1.45,1.45,0,0,1-.21-.23c0-.06-.14,0-.1.06Z"/><path class="cls-1" d="M26.82,21.57a3.09,3.09,0,0,0,.23.21,1.23,1.23,0,0,0,.24.2,0,0,0,0,0,.06,0c0-.22-.25-.37-.38-.52s-.24.05-.15.15Z"/><path class="cls-1" d="M27.66,18.6a3.31,3.31,0,0,1,.41.1c.07,0,.23.1.26,0s-.18-.17-.26-.18a1.11,1.11,0,0,0-.41,0s0,0,0,.05Z"/><path class="cls-1" d="M26.86,17.67c.18,0,.39.05.54-.06a.08.08,0,0,0,0-.12c-.15-.12-.36-.07-.54-.06a.12.12,0,0,0,0,.25Z"/><path class="cls-1" d="M28.27,19.88c.17,0,.48,0,.54-.16a.06.06,0,0,0,0-.07.32.32,0,0,0-.23,0l-.31.07c-.1,0-.06.15,0,.16Z"/><path class="cls-1" d="M29.36,20.28c0,.09,0,.18,0,.27a1,1,0,0,0,0,.25.05.05,0,0,0,.08,0c.2-.11.13-.4.1-.58s-.12-.05-.13,0Z"/><path class="cls-1" d="M28.35,21.17a1.25,1.25,0,0,0,0,.28,1.48,1.48,0,0,0,0,.32.12.12,0,0,0,.09.09c.33,0,.08-.56.08-.69a.11.11,0,0,0-.22,0Z"/><path class="cls-1" d="M26.59,23.58l.3.12c.08,0,.19.13.28.11a.06.06,0,0,0,0,0c0-.24-.44-.27-.59-.29a.06.06,0,0,0,0,.11Z"/><path class="cls-1" d="M28.5,22.75a2.35,2.35,0,0,1,.39.06c.09,0,.2.07.28,0a.05.05,0,0,0,0-.07c0-.1-.2-.1-.3-.12a1.65,1.65,0,0,0-.39,0,.06.06,0,0,0,0,.13Z"/><path class="cls-1" d="M29.71,21.9c0,.1,0,.2.06.3s0,.17.11.21a.05.05,0,0,0,.06,0,.21.21,0,0,0,0-.21,2.11,2.11,0,0,0-.12-.32.07.07,0,0,0-.14,0Z"/><path class="cls-1" d="M28.61,24.11c.15-.12.35-.17.46-.3a0,0,0,0,0,0-.08c-.21,0-.41.14-.54.29a.07.07,0,0,0,.1.1Z"/><path class="cls-1" d="M29.77,23.38c.08,0,.43,0,.37-.18s-.33-.06-.44,0,0,.21.08.18Z"/><path class="cls-8" d="M18.1,24a.2.2,0,0,0,0-.4.2.2,0,0,0,0,.4Z"/><path class="cls-8" d="M18.61,24.1a.2.2,0,0,0,0-.41.2.2,0,0,0,0,.41Z"/><path class="cls-8" d="M19.16,24.22a.23.23,0,0,0,0-.46.23.23,0,0,0,0,.46Z"/><path class="cls-8" d="M19.77,24.16a.16.16,0,0,0,0-.32.16.16,0,0,0,0,.32Z"/><path class="cls-8" d="M18.36,25.38a.2.2,0,0,0,0-.39.2.2,0,0,0,0,.39Z"/><path class="cls-8" d="M18.9,25.43a.22.22,0,0,0,0-.44.22.22,0,0,0,0,.44Z"/><path class="cls-8" d="M19.45,25.41a.2.2,0,0,0,0-.39.2.2,0,0,0,0,.39Z"/><path class="cls-8" d="M20,25.43A.21.21,0,0,0,20,25a.21.21,0,0,0,0,.42Z"/><path class="cls-8" d="M17.62,22.63a.17.17,0,0,0,0-.34.17.17,0,0,0,0,.34Z"/><path class="cls-8" d="M18.16,22.66a.17.17,0,0,0,0-.35.17.17,0,0,0,0,.35Z"/><path class="cls-8" d="M18.65,22.7a.18.18,0,0,0,0-.36.18.18,0,0,0,0,.36Z"/><path class="cls-8" d="M19.19,22.74a.21.21,0,0,0,0-.43.21.21,0,0,0,0,.43Z"/><path class="cls-8" d="M14.52,16.33a.21.21,0,0,0,0-.43.21.21,0,0,0,0,.43Z"/><path class="cls-8" d="M19.78,22.65a.19.19,0,0,0,0-.37.19.19,0,0,0,0,.38Z"/><path class="cls-8" d="M17.3,28.53a.17.17,0,0,0,0-.33.17.17,0,0,0,0,.33Z"/><path class="cls-8" d="M18,28.6a.17.17,0,0,0,0-.34.17.17,0,0,0,0,.34Z"/><path class="cls-8" d="M18.61,28.6a.17.17,0,0,0,0-.35.17.17,0,0,0,0,.35Z"/><path class="cls-8" d="M19.29,28.56a.17.17,0,0,0,0-.34.17.17,0,0,0,0,.34Z"/><path class="cls-8" d="M19.87,28.57a.21.21,0,0,0,0-.42.21.21,0,0,0,0,.42Z"/><path class="cls-8" d="M20.51,28.6a.2.2,0,0,0,0-.41.2.2,0,0,0,0,.41Z"/><path class="cls-8" d="M21.15,28.55a.16.16,0,0,0,0-.32.16.16,0,0,0,0,.32Z"/><path class="cls-8" d="M21.63,28.47a.14.14,0,0,0,0-.29.14.14,0,0,0,0,.29Z"/><path class="cls-4" d="M32.65,26.18c-.3.47-.9.45-1.42.45a2.94,2.94,0,0,1-2.06-.5,3.18,3.18,0,0,1-.66-1.05c-.83-1.77-2-3.45-2.15-5.4a.43.43,0,0,1,.05-.3,3.76,3.76,0,0,0,.88.53A.53.53,0,0,0,28,19.7l.64-1.16q.62.55,1.27,1.08a.36.36,0,0,0,.47,0,10.29,10.29,0,0,1,1.39-1.11l.91,1.41a.29.29,0,0,0,.13.13A.28.28,0,0,0,33,20l1.42-.7.17,1.37a.2.2,0,0,0,.26.17,2.89,2.89,0,0,1,1.38-.07A9.54,9.54,0,0,1,34.73,23C34.3,23.54,33,25.58,32.65,26.18Z"/><path class="cls-9" d="M27.57,26.82a.43.43,0,0,0,.11.52,1.23,1.23,0,0,0,.51.24l1.26.38a.42.42,0,0,1,.22.65,1,1,0,0,0-.14.26.79.79,0,0,0,.4.9,1.31,1.31,0,0,0,1,0,2.6,2.6,0,0,0,1.26-1,6.66,6.66,0,0,0,.71-1.48,2.93,2.93,0,0,0,.17-2.24,3.23,3.23,0,0,0-2-1.27A3.87,3.87,0,0,0,29,23.55a.34.34,0,0,0-.28.31c0,.15.2.26.26.28.76.22,1.41.37,1.84.55a.07.07,0,0,1,0,.13c-.7-.13-1.69-.26-2.49-.34a.36.36,0,0,0-.41.38.41.41,0,0,0,.26.33c.54.16,1.27.33,1.91.54.33.11.55.13.52.26s-.24,0-.6,0a15.12,15.12,0,0,0-1.72-.34c-.26,0-.54,0-.64.27s1.12.65,2.12.89c.21.05.44.07.42.15s-.34,0-.56,0A9.77,9.77,0,0,0,28,26.63.38.38,0,0,0,27.57,26.82Z"/><path class="cls-8" d="M28.58,23.87c0,.12.2.17.31.21a.54.54,0,0,0,.54,0,.25.25,0,0,0,.06-.31.37.37,0,0,0-.3-.19,1.44,1.44,0,0,0-.32,0c-.14,0-.37.11-.31.29Z"/><path class="cls-8" d="M27.77,25a.83.83,0,0,0,.78.19.32.32,0,0,0,.1-.5.83.83,0,0,0-.77-.21.29.29,0,0,0-.1.51Z"/><path class="cls-8" d="M27.44,25.93a.61.61,0,0,0,.79.27.23.23,0,0,0,.1-.31.56.56,0,0,0-.47-.28c-.17,0-.49.09-.43.32Z"/><path class="cls-8" d="M27.33,27c0,.31.51.39.75.37a.3.3,0,0,0,.11-.53.93.93,0,0,0-.55-.09c-.15,0-.32.08-.3.26Z"/><path class="cls-8" d="M32.93,24.94c0,.08-.18.3,0,.35s.17-.21.18-.29a.08.08,0,0,0-.15-.05Z"/><path class="cls-8" d="M32.69,26c-.14,0-.28.16-.32.27a.16.16,0,0,0,.26.18.43.43,0,0,0,.14-.27c0-.06,0-.15-.08-.17Z"/><path class="cls-8" d="M32.09,27.09a.23.23,0,0,0-.14.1c0,.06-.1.1-.14.17a.15.15,0,0,0,.19.22.39.39,0,0,0,.21-.25c0-.08,0-.25-.13-.23Z"/><path class="cls-8" d="M31.3,28.07l-.18.17a.12.12,0,1,0,.18.16l.16-.15c.11-.1,0-.27-.15-.18Z"/><path class="cls-1" d="M27.3,20.53l-.05-.06a.31.31,0,0,0-.49,0,.4.4,0,0,0-.07.2.32.32,0,0,0,.22.32h0a.32.32,0,0,0,.41-.36h0c0-.09,0-.1,0,0l-.1.29h0L27.1,21h.05a.26.26,0,0,0,.14-.42Z"/><path class="cls-1" d="M29,20.47a.46.46,0,0,0,.25-.37.45.45,0,1,0-.25.38Z"/><path class="cls-1" d="M29,21.12h0a.31.31,0,0,0-.4.27.33.33,0,0,0,.34.35.3.3,0,0,0,.18-.54l0,0c.12.09-.05,0-.07,0Z"/><path class="cls-1" d="M29.05,22.35h0a.21.21,0,1,0,.25,0h0a.18.18,0,0,0-.22,0Z"/><path class="cls-1" d="M27.35,21.88a.14.14,0,0,0,.09-.27.14.14,0,0,0-.09.27Z"/><path class="cls-1" d="M27.57,22.59a.24.24,0,0,0,0,.08c0,.14.27.15.27,0h0c.08-.2-.28-.27-.28-.06Z"/><path class="cls-1" d="M31.25,20.27a.47.47,0,1,0-.29-.6.47.47,0,0,0,.29.6Z"/><path class="cls-1" d="M31.13,21.42a.32.32,0,1,0-.2-.4.32.32,0,0,0,.2.4Z"/><path class="cls-1" d="M31.13,22.41h0l-.16,0h0a.15.15,0,0,0,.19-.17s0,0,0,0a.19.19,0,0,0-.08-.12.18.18,0,0,0-.26,0c-.12.17.12.4.27.24Z"/><path class="cls-1" d="M33.93,20.6a.31.31,0,0,0-.21-.23.32.32,0,0,0-.41.22.31.31,0,0,0,.19.39.31.31,0,0,0,.39-.19.43.43,0,0,0,0-.21c0,.05,0,.1,0,.15l-.06.09a.22.22,0,0,0,.08-.22Z"/><path class="cls-1" d="M33.17,21.8a.2.2,0,0,0,.13-.38.2.2,0,0,0-.13.38Z"/><path class="cls-1" d="M32.75,22.66l.09,0c.18.07.3-.13.25-.28a.21.21,0,0,0-.15-.13.21.21,0,0,0-.18.36Z"/><path class="cls-1" d="M35.22,21.42h0a.27.27,0,1,0,.37.13v0a.25.25,0,0,0-.33-.11Z"/><path class="cls-1" d="M34.67,22.78a.2.2,0,0,0,.13-.37.2.2,0,0,0-.13.37Z"/><path class="cls-1" d="M34.17,23.51h0a.19.19,0,0,0,.12-.34l0,0a.2.2,0,1,0-.12.36Z"/><g class="cls-11"><path class="cls-8" d="M27.53,19.16A6.58,6.58,0,0,0,28.4,23a.07.07,0,0,0,.14,0c-.15-1.28-.86-2.48-.88-3.77a.06.06,0,0,0-.12,0Z"/><path class="cls-8" d="M29.81,18.16a5.59,5.59,0,0,0-.08,2,16.33,16.33,0,0,0,.34,2.71.08.08,0,0,0,.15,0c.29-1.53-.55-3.13-.19-4.65,0-.15-.18-.22-.22-.08Z"/><path class="cls-8" d="M33,18.16c-.37,1.71-1,3.38-1.23,5.12,0,.05.08.09.11,0a9.14,9.14,0,0,0,.7-2.33c.21-.93.46-1.85.61-2.79,0-.11-.17-.15-.19,0Z"/><path class="cls-8" d="M35.37,19.67c-.84,1.31-2.14,2.53-2.64,4a.09.09,0,0,0,.14.09,5.46,5.46,0,0,0,1.5-2,14.53,14.53,0,0,0,1.16-2.09.09.09,0,0,0-.15-.07Z"/></g><path class="cls-6" d="M19.9,32.29a.5.5,0,1,0-.5-.5.5.5,0,0,0,.5.5Z"/><path class="cls-4" d="M19.74,30.71h0l-.11-.06h0a.26.26,0,1,0,0-.36h0l.11-.06h0a.23.23,0,0,0,0,.45Z"/><path class="cls-4" d="M18.29,32.19A.29.29,0,1,0,18,31.9a.29.29,0,0,0,.29.29Z"/><path class="cls-4" d="M21.36,32a.17.17,0,0,0,0-.34.17.17,0,0,0,0,.34Z"/><path class="cls-4" d="M20,33.22v0a.3.3,0,1,0,.51,0v0a.29.29,0,0,0-.49,0Z"/><path class="cls-4" d="M14.77,46.94a2.58,2.58,0,0,0-1.33,1.31A5.86,5.86,0,0,0,13,50.08a32.87,32.87,0,0,0,.17,7.41,6.08,6.08,0,0,0,.41,1.94.25.25,0,0,0,.12.14c.12.05.23-.07.3-.17a7.58,7.58,0,0,1,1.4-1.7.13.13,0,0,1,.19,0,16.69,16.69,0,0,0,1.31,2.07.2.2,0,0,0,.12.08c.08,0,.14-.07.18-.14.41-.74.75-1.33,1.18-2a.14.14,0,0,1,.18-.06c.55.26,1.6,1.54,2.18,1.95a.09.09,0,0,0,.14-.07c0-.67-.12-2.66-.14-3.34s0-1.1,0-1.65a9.33,9.33,0,0,0-1.26-3.87,19.51,19.51,0,0,0-2-2.71,3.76,3.76,0,0,0-1.07-1A2.15,2.15,0,0,0,14.77,46.94Z"/><path class="cls-1" d="M16,34.72a6.14,6.14,0,0,0,3.14-.92,12.75,12.75,0,0,0,2.47-2.28,2.76,2.76,0,0,0,.91,1.31,6.4,6.4,0,0,0,1.27.67L25,34c.61.27,1.36.25,1.75.79a1.66,1.66,0,0,1,.22.58c.59,2.44,1.17,5.09.13,7.37a4.77,4.77,0,0,0,4.31-1.61,6,6,0,0,0,1.35-4.48,6.16,6.16,0,0,0-.58-2.1,7.27,7.27,0,0,0-1.41-1.91,10.55,10.55,0,0,0-5.45-2.89,19.49,19.49,0,0,0-3.24-.27,18.43,18.43,0,0,0-7.08.8,19,19,0,0,0-2.09,1,5.38,5.38,0,0,0-1.52,1,4.86,4.86,0,0,0-.76,1.26,29,29,0,0,0-1.36,3.52,7.16,7.16,0,0,0-.42,2.23,4.66,4.66,0,0,0,1.81,3.5,6.21,6.21,0,0,0,3.79,1.25,1.78,1.78,0,0,0,1.63-.67,1.64,1.64,0,0,0,.18-.69,20.59,20.59,0,0,0-.48-4A10.12,10.12,0,0,1,16,34.72Z"/><g class="cls-12"><path class="cls-4" d="M33.55,37.93a20.38,20.38,0,0,1-4.18,1.83c-1,.23-2.54.28-3,1.4a.37.37,0,0,0,.26.45c1,.36,2.72-.29,3.7-.65A21.5,21.5,0,0,0,34,38.68a.44.44,0,0,0-.44-.75Z"/><path class="cls-4" d="M33.72,33.91c-.31.8-2,1.35-2.66,1.79A11.33,11.33,0,0,0,28,38a.33.33,0,0,0,.29.5c1.58-.13,2.91-1.42,4.18-2.27.76-.51,1.83-1.16,2-2.13a.38.38,0,0,0-.73-.2Z"/><path class="cls-4" d="M31.27,31.52a20.85,20.85,0,0,1-3,2.3c-.87.67-2.12,1.35-2.6,2.38a.36.36,0,0,0,.41.53c1.2-.27,2.31-1.38,3.26-2.12a9.58,9.58,0,0,0,2.53-2.67c.19-.34-.28-.73-.55-.42Z"/><path class="cls-4" d="M29,29.49c-.82.82-1.66,1.61-2.49,2.41s-2,1.43-2.59,2.41a.42.42,0,0,0,.36.63c1.19,0,2.2-1,3-1.82a11.92,11.92,0,0,0,2.23-3.25.31.31,0,0,0-.49-.38Z"/><path class="cls-4" d="M21.46,33.68a6.42,6.42,0,0,1-1-1.36c-.47-.69-1-1.31-1.51-2a19.66,19.66,0,0,1-1.14-2c-.32-.6-.55-1.23-1.28-1.35a.43.43,0,0,0-.48.2,1.56,1.56,0,0,0,.24,1.61,21.74,21.74,0,0,0,1.56,2.38A22,22,0,0,0,19.56,33a8.64,8.64,0,0,0,1.33,1.38c.45.3,1-.39.57-.74Z"/><path class="cls-4" d="M19.4,34.77a6.43,6.43,0,0,1-1.2-1.16c-.58-.6-1.25-1.1-1.84-1.7a19.5,19.5,0,0,1-1.47-1.75c-.42-.54-.76-1.12-1.5-1.1a.43.43,0,0,0-.44.28,1.56,1.56,0,0,0,.52,1.54,22.3,22.3,0,0,0,2,2.07,22.38,22.38,0,0,0,2,1.53A8.66,8.66,0,0,0,19,35.6a.47.47,0,0,0,.43-.83Z"/><path class="cls-4" d="M17,36.07a6.46,6.46,0,0,1-1.2-1.16c-.58-.6-1.25-1.1-1.84-1.69a19.69,19.69,0,0,1-1.47-1.75c-.42-.54-.76-1.12-1.5-1.1a.43.43,0,0,0-.44.28,1.56,1.56,0,0,0,.52,1.54,22.33,22.33,0,0,0,2,2.06,23,23,0,0,0,2,1.53,8.71,8.71,0,0,0,1.56,1.13.47.47,0,0,0,.43-.83Z"/><path class="cls-4" d="M12.91,40.52a13.66,13.66,0,0,1-3.91-1c-.92-.36-2.17-1.1-3.18-.78a.33.33,0,0,0-.2.48c.59.9,2.07,1.19,3.05,1.46a15.4,15.4,0,0,0,4.23.6.36.36,0,0,0,0-.72Z"/><path class="cls-4" d="M27,28.74c-1.82,1.52-3.91,2.86-5.28,4.85-.17.25.11.52.36.47a5.53,5.53,0,0,0,2.63-1.86c.92-1,1.93-1.89,2.8-2.94a.37.37,0,0,0-.52-.52Z"/></g><path class="cls-1" d="M24.32,37.58a3.64,3.64,0,0,1-.7,1.32,3,3,0,0,0-2.55-.6,6.11,6.11,0,0,0-2.42,1.16l-.35-.83a.27.27,0,0,1,0-.15.27.27,0,0,1,.08-.13,4.32,4.32,0,0,1,2.85-1.28A7.8,7.8,0,0,1,24.32,37.58Z"/><path class="cls-6" d="M29.58,41.83A4.45,4.45,0,0,0,30.14,40a7.53,7.53,0,0,0-.44-3.9,4.56,4.56,0,0,0-2.81-2.62,2.63,2.63,0,0,0-1.15-.09,3.64,3.64,0,0,0-1,.38,3.73,3.73,0,0,0-1.32.94A3.29,3.29,0,0,0,23,37.48a16.7,16.7,0,0,1,.63,2.8,19,19,0,0,1-.16,2,3,3,0,0,0,.42,2,1.92,1.92,0,0,0,1,.71,1.11,1.11,0,0,0,.55,0,1.51,1.51,0,0,0,.38-.16,13.12,13.12,0,0,0,3.07-2.26A4.59,4.59,0,0,0,29.58,41.83Z"/><path class="cls-6" d="M20,35.94a4.9,4.9,0,0,0-.55-1.24,3.61,3.61,0,0,0-1.53-1.16,4.85,4.85,0,0,0-4.35,0,6.23,6.23,0,0,0-2.38,3.14A7.35,7.35,0,0,0,10.5,40a7.73,7.73,0,0,0,1,3.19c1.07,1.95,3.09,3,4,3.89a12.69,12.69,0,0,1,.9,1.19,6.46,6.46,0,0,0,2.68,2,2.14,2.14,0,0,0,1.29.18.94.94,0,0,0,.75-.95,1.7,1.7,0,0,0-.52-.83,4.52,4.52,0,0,1-1.13-2.76c-.1-2.09,1.26-4,1.36-6.1A10.4,10.4,0,0,0,20,35.94Z"/><path class="cls-1" d="M25.54,42.72a1.85,1.85,0,0,0-2.05-.14,1,1,0,0,0-.28.24,1.22,1.22,0,0,0-.18.6,26.87,26.87,0,0,0,.17,7.28A4.48,4.48,0,0,0,23.56,52,2.78,2.78,0,0,0,25,52.9a4.67,4.67,0,0,0,1.86-3,10.46,10.46,0,0,0,0-4,9.68,9.68,0,0,0-.42-1.83A2.9,2.9,0,0,0,25.54,42.72Z"/><g class="cls-13"><path class="cls-8" d="M25.29,52.16c1.52-.94,1.43-3.84,1.37-5.34s-.46-4.32-2.39-4.74a.05.05,0,0,0,0,.09A3.8,3.8,0,0,1,26,44.26a12.25,12.25,0,0,1,.38,2.94A7.25,7.25,0,0,1,25.1,52c-.08.12.08.26.19.19Z"/><path class="cls-8" d="M25.18,51.31a5,5,0,0,0,.72-2.9c0-.67,0-1.75-.63-2.13a.1.1,0,0,0-.15.11,7.59,7.59,0,0,1-.1,4.84.09.09,0,0,0,.17.07Z"/></g><path class="cls-9" d="M25.75,53.5c.25-1.23-.37-2.49-.2-3.73a5.84,5.84,0,0,1,.76-1.91,7.79,7.79,0,0,1,1.12-1.28c.05-.07.11-.15.09-.23a.22.22,0,0,0-.08-.1c-.25-.2-.6-.21-.87-.37a1.89,1.89,0,0,1-.71-1.08,12.59,12.59,0,0,1-.49-1.57c-.09-.43-.14-.87-.26-1.29a1.21,1.21,0,0,0-.19-.43,1.06,1.06,0,0,0-.47-.32,3.23,3.23,0,0,0-3,.76,7,7,0,0,0-2.64,5.27,3.76,3.76,0,0,0,0,.76,4.23,4.23,0,0,0,.41,1.1,5.93,5.93,0,0,0,.41.71,7.52,7.52,0,0,0,1,1.15l1.56,1.48a6.27,6.27,0,0,0,1,.84,3.21,3.21,0,0,0,1.73.48C25.23,53.73,25.7,53.73,25.75,53.5Z"/><path class="cls-6" d="M23.91,44.3c.16,0,.56-.15.72-.16.36,0,.52,0,.88,0a.78.78,0,0,1,.42.06.31.31,0,0,1,.19.36.32.32,0,0,1-.18.17,1.19,1.19,0,0,1-.89-.09l-.5-.19A1.19,1.19,0,0,0,23.91,44.3Z"/><path class="cls-6" d="M24.48,43.77a1,1,0,0,1,.93-.52c.34,0,.74.33.49.61a.67.67,0,0,1-.31.16,5.69,5.69,0,0,1-1.66.26A1.76,1.76,0,0,0,24.48,43.77Z"/><path class="cls-8" d="M21,43.41a1.14,1.14,0,0,0-1.19-.47,1.67,1.67,0,0,0-.39.14c-.19.09-.76.36-.63,1.38a1.21,1.21,0,0,0,1.48.92,1.2,1.2,0,0,0,.9-.82,1.08,1.08,0,0,0,.06-.5A1.38,1.38,0,0,0,21,43.41Z"/><path class="cls-1" d="M19.39,43.93a.63.63,0,0,0,.1.76.78.78,0,0,0,.73.18.59.59,0,0,0,.37-.24.69.69,0,0,0,.08-.35.63.63,0,0,0-.16-.43.65.65,0,0,0-.82-.18A.67.67,0,0,0,19.39,43.93Z"/><path class="cls-3" d="M21.26,47.89a3.57,3.57,0,0,1,2.2-.7,7,7,0,0,1,1.63.66,1.5,1.5,0,0,1-.71.51,3.55,3.55,0,0,1-1.32.26,4.13,4.13,0,0,1-.79-.11,1.91,1.91,0,0,1-.5-.27Z"/><path class="cls-1" d="M21.66,47a.75.75,0,0,0,.59-.5.66.66,0,0,0-.22-.73.87.87,0,0,0-.46-.14.93.93,0,0,0-.37.05.68.68,0,0,0-.42.66A.74.74,0,0,0,21.66,47Z"/><path class="cls-8" d="M22.58,48.11a.55.55,0,0,0,.75.32.46.46,0,0,0,.31-.44.59.59,0,0,0-.57-.59A.53.53,0,0,0,22.58,48.11Z"/><path class="cls-6" d="M19.42,53.95l.53.78a1.11,1.11,0,0,1,.15.27,1.09,1.09,0,0,1,0,.3,8.82,8.82,0,0,1-.1,2.18,8.13,8.13,0,0,1-1.71-2.16,2.21,2.21,0,0,1,.12-2.22A1.86,1.86,0,0,1,19.42,53.95Z"/><path class="cls-6" d="M17.35,56.13c-.18.39-.35.87-.53,1.27a.06.06,0,0,1-.09,0,9.65,9.65,0,0,1-1.51-2.36,1,1,0,0,1-.11-.32,1.13,1.13,0,0,1,.14-.55,14,14,0,0,0,.87-2.44c.29,0,.26.71.43.88a6.27,6.27,0,0,1,.88,1.47c.27.55.38.51.24,1.08A7,7,0,0,1,17.35,56.13Z"/><path class="cls-6" d="M14,52.46a5.18,5.18,0,0,0-.56-1.16.07.07,0,0,0-.12,0,10.76,10.76,0,0,0-.1,2.29,13.12,13.12,0,0,0,.45,3.75.06.06,0,0,0,.1,0,8.61,8.61,0,0,0,.91-2.12,2.5,2.5,0,0,0,.13-.44.82.82,0,0,0,0-.28C14.53,53.77,14.24,53.2,14,52.46Z"/><path class="cls-1" d="M21.46,61.29a.1.1,0,0,1-.17.07c-.2-.14-.69-.56-.9-.75a.21.21,0,0,1-.07-.1.25.25,0,0,1,0-.08,6.08,6.08,0,0,1,.27-1,.08.08,0,0,1,.11,0c.3.17.45.34.75.54.13.09.22.18.22.22C21.63,60.36,21.56,60.84,21.46,61.29Z"/><path class="cls-1" d="M17.21,61.68a.1.1,0,0,1-.18,0c-.15-.19-.51-.73-.66-1a.23.23,0,0,1,0-.11.19.19,0,0,1,0-.08,6,6,0,0,1,.54-.92.07.07,0,0,1,.11,0c.24.24.34.45.57.73.1.12.16.23.15.28C17.63,60.83,17.43,61.26,17.21,61.68Z"/><path class="cls-1" d="M13.33,61.44a.1.1,0,0,1-.18,0c-.09-.23-.29-.84-.37-1.11a.21.21,0,0,1,0-.12.2.2,0,0,1,0-.07,6,6,0,0,1,.77-.74.08.08,0,0,1,.11,0c.16.3.21.52.35.86.06.14.1.27.07.3S13.66,61.1,13.33,61.44Z"/><path class="cls-8" d="M24.93,47.85a3.05,3.05,0,0,1-1.4.51c-.38,0-.85-.09-1.16.17a.15.15,0,0,0,0,.19c.26.44,1,.31,1.41.22a2.15,2.15,0,0,0,1.3-1c.05-.08-.05-.19-.13-.13Z"/><path class="cls-1" d="M14.83,50.61A7.81,7.81,0,0,0,17.22,54a8.28,8.28,0,0,0,4.16,2,4.81,4.81,0,0,0,1.1.19,3.12,3.12,0,0,0,2-.59c2-1.48,1.33-2.89,1.2-3.18A11.33,11.33,0,0,0,23.33,49a7,7,0,0,0-1-.86,6.16,6.16,0,0,0-3.94-.89l0-.1a9.89,9.89,0,0,1-.48-3.27c.06-2.12.35-2.73,0-3.12s-1.24.46-1.64,1.07a16.69,16.69,0,0,0-1.09,1.73A10.27,10.27,0,0,0,14.83,50.61Z"/><path class="cls-8" d="M21.09,59.51a.08.08,0,0,1,0,0,.35.35,0,0,0-.18-.31h0a.36.36,0,0,0-.43.06.35.35,0,0,0-.06.43l.08.1a.35.35,0,0,0,.34.09.36.36,0,0,0,.26-.34Z"/><path class="cls-8" d="M17,59.25a.4.4,0,1,0,.4.4.4.4,0,0,0-.4-.4Z"/><path class="cls-8" d="M13.62,59.1a.38.38,0,0,0,0,.76.38.38,0,0,0,0-.76Z"/><g class="cls-14"><path class="cls-8" d="M25.61,54.55c.36-.62,0-1.37-.24-2a9.09,9.09,0,0,0-1.62-2.75c-1.17-1.38-2.94-3.85-5-3.87a.09.09,0,0,0,0,.16,13.47,13.47,0,0,1,2.16,1.36,21,21,0,0,1,1.81,1.91,11.32,11.32,0,0,1,1.85,2.42,7.49,7.49,0,0,1,1,2.74,0,0,0,0,0,0,0Z"/><path class="cls-8" d="M25.38,55.58c.27-1.05-.43-2.32-.87-3.26a8.91,8.91,0,0,0-1.42-1.9,27.41,27.41,0,0,0-1.88-2.05c-.72-.69-2-1.25-2.5-2.16a.18.18,0,0,0-.33.09c0,.6.75,1,1.17,1.32a18.68,18.68,0,0,1,2.32,2.1c1.54,1.67,3.19,3.47,3.43,5.85,0,0,.06.05.07,0Z"/><path class="cls-8" d="M25,55.86a4.59,4.59,0,0,0-1-3,19.63,19.63,0,0,0-2.75-3.4c-.93-.92-2.12-1.51-3.06-2.41a2.46,2.46,0,0,1-.63-2.42c.16-.71.81-1,1.1-1.62,0-.06,0-.15-.11-.11a2.87,2.87,0,0,0-.18,4.85c2.76,2.08,5.66,4.58,6.48,8.12,0,.08.12,0,.13,0Z"/><path class="cls-8" d="M18.93,46.75c0-.29-.2-.55-.34-.78-.28-.46-.12-.79.06-1.27a.4.4,0,0,0-.19-.46l-.1,0a.41.41,0,0,0-.5.28A1.93,1.93,0,0,0,17.8,46c.16.34.57.86,1,.87a.14.14,0,0,0,.14-.14Z"/><path class="cls-8" d="M24.39,56.26c.31-1-.58-2.08-1-3-.74-1.4-2-2.29-3.06-3.44s-2.54-1.91-3.4-3.35c-1.1-1.83.57-3,1.51-4.34.11-.15-.12-.28-.24-.18a4.72,4.72,0,0,0-2,2.93,4.15,4.15,0,0,0,1.5,3.18,17.82,17.82,0,0,0,1.85,1.58,26.61,26.61,0,0,1,2,2,13.11,13.11,0,0,1,2.76,4.62.06.06,0,0,0,.11,0Z"/><path class="cls-8" d="M23.63,56.53a8.4,8.4,0,0,0-1.74-3.67,17.18,17.18,0,0,0-3.32-3.21c-1.48-1.3-2.71-2.77-2.62-4.84.08-1.86,1.64-2.62,2.61-4,.14-.19-.15-.37-.3-.23a8.57,8.57,0,0,0-2.43,3.24,4.63,4.63,0,0,0,.88,4.36c1,1.34,2.49,2.13,3.58,3.37a17.51,17.51,0,0,1,1.78,2.37c.53.85.91,1.79,1.43,2.62,0,.05.14,0,.13,0Z"/><path class="cls-8" d="M22.77,56.54a15.92,15.92,0,0,0-2.1-3.89c-.74-1.22-2.19-2-3.2-3-1.34-1.3-2.62-3.4-2.31-5.32s2-2.89,3.16-4.12a.21.21,0,0,0-.25-.32A8.32,8.32,0,0,0,15,43.28c-.72,1.71-.22,3.09.65,4.62a17.92,17.92,0,0,0,3.45,3.65,24.73,24.73,0,0,1,3.53,5.05.07.07,0,0,0,.13-.05Z"/><path class="cls-8" d="M21.67,56.23c-.64-1.9-2.29-3.64-3.58-5.14-.66-.77-1.58-1.29-2.25-2.05a6.29,6.29,0,0,1-1.51-3.8.06.06,0,0,0-.13,0c-.22,2.12,1,3.79,2.5,5.1a18.82,18.82,0,0,1,2.38,2.61c.86,1.05,1.77,2.19,2.53,3.32,0,0,.08,0,.06,0Z"/><path class="cls-8" d="M21,56.57c-.29-.37-.46-.81-.73-1.2s-.6-.72-.87-1.11c-.48-.69-1-1.39-1.54-2a26.84,26.84,0,0,0-2.11-2.3,12.43,12.43,0,0,1-.91-.87,6.5,6.5,0,0,1-1-1.91.09.09,0,0,0-.17,0c0,1.83,2.07,3.38,3.16,4.61,1.39,1.58,2.57,3.38,4.09,4.85,0,0,.08,0,.05-.05Z"/><path class="cls-8" d="M19.38,55.79a23.09,23.09,0,0,0-2.73-3.4c-.51-.55-1-1.07-1.58-1.6a5.7,5.7,0,0,1-1.36-2.38.12.12,0,0,0-.23,0c-.34,1.45,1.41,2.74,2.31,3.6,1.25,1.21,2.31,2.59,3.51,3.85a.06.06,0,0,0,.09-.07Z"/></g><path class="cls-1" d="M17.32,55v0a.68.68,0,0,0-1.36,0v0a.68.68,0,1,0,1.36,0Z"/><path class="cls-1" d="M13.91,54.35a.55.55,0,1,0,.55.55.55.55,0,0,0-.55-.55Z"/><path class="cls-1" d="M18.23,56.81h0l.09-.05h0a.22.22,0,0,0-.2.15.21.21,0,0,0,.15.26.25.25,0,0,0,.31-.19.19.19,0,0,0-.32-.19Z"/><path class="cls-1" d="M18.11,56.31l0,0c.22.13.37-.25.13-.31a.24.24,0,0,0-.15,0,.17.17,0,0,0,0,.32.24.24,0,0,0,.15,0c.24-.06.08-.44-.13-.31h0a.14.14,0,0,0,0,.26Z"/><path class="cls-1" d="M15.35,57a.18.18,0,0,0,0,.36.18.18,0,0,0,0-.36Z"/><path class="cls-1" d="M15.29,56.52l0,0a.15.15,0,0,0-.21.21l0,0c.13.14.35-.08.21-.21Z"/><path class="cls-1" d="M14.89,52.73h0l.11.09h0a.2.2,0,1,0-.27.27.24.24,0,0,0,.18,0A.18.18,0,0,0,15,52.9a.19.19,0,0,0-.13-.18Z"/><path class="cls-1" d="M14.61,51.93a.21.21,0,0,0,0,.42.21.21,0,0,0,0-.42Z"/><path class="cls-1" d="M14.52,51.12a.18.18,0,0,0,0,.37.18.18,0,0,0,0-.37Z"/><path class="cls-1" d="M14.47,50.67v0a.17.17,0,1,0-.32,0v0a.15.15,0,0,0,.3,0Z"/><path class="cls-1" d="M14.4,50a.17.17,0,0,0-.06-.15c-.11-.1-.31,0-.21.16v0c-.06.19.25.25.28,0Z"/><path class="cls-1" d="M14.22,49.26a.19.19,0,0,0-.11-.08c-.14,0-.2.15-.09.22h0a.12.12,0,0,0,.12,0h0a.11.11,0,0,0,0-.15Z"/><path class="cls-1" d="M14,48.46a.11.11,0,0,0,0,.23.11.11,0,0,0,0-.23Z"/><path class="cls-1" d="M27.23,43.12a3.93,3.93,0,0,0-.12-.47c0-.07-.07-.31-.2-.26-.3.12,0,.61.11.79a.11.11,0,0,0,.21-.06Z"/><path class="cls-1" d="M28,42.18a2.73,2.73,0,0,0,.09-.77c0-.15-.25-.13-.28,0a2.11,2.11,0,0,0,0,.75c0,.08.15.12.16,0Z"/><path class="cls-1" d="M26.83,41.43l-.24-.2a.33.33,0,0,0-.23-.1.07.07,0,0,0-.07.07c0,.18.24.3.36.41s.29-.07.17-.17Z"/><path class="cls-1" d="M26,42a1.13,1.13,0,0,1-.35-.07c-.07,0-.2,0-.2.09,0,.25.42.23.58.21s.1-.23,0-.23Z"/><path class="cls-1" d="M25.23,40.94a2,2,0,0,0,0-.44,1.7,1.7,0,0,0-.1-.43.18.18,0,0,0-.32,0c-.08.3.16.57.21.86s.23.1.24,0Z"/><path class="cls-1" d="M26.22,40.11c.12-.22.34-.57.2-.82a.16.16,0,0,0-.27,0,.79.79,0,0,0-.1.33A2.66,2.66,0,0,1,26,40a.14.14,0,0,0,.26.11Z"/><path class="cls-1" d="M27.83,40.36l.27-.37c.08-.1.2-.21.14-.35a.08.08,0,0,0-.07-.05c-.15,0-.22.14-.29.24s-.18.27-.26.41.12.24.2.12Z"/><path class="cls-1" d="M29.15,40.69a3,3,0,0,0,.14-.29.51.51,0,0,0,.07-.28s-.05,0-.08,0a.54.54,0,0,0-.12.22,2.74,2.74,0,0,1-.14.29c0,.09.08.16.13.08Z"/><path class="cls-1" d="M29.22,39c-.13-.13-.22-.29-.33-.44s-.21-.29-.38-.28a.08.08,0,0,0-.08.08c0,.16.16.29.26.4a2.57,2.57,0,0,0,.42.39c.09.07.19-.08.12-.16Z"/><path class="cls-1" d="M29.08,37.35c-.14-.15-.22-.36-.43-.42a.07.07,0,0,0-.09.07,1,1,0,0,0,.33.54c.12.12.3-.06.19-.19Z"/><path class="cls-1" d="M27.22,38.31a2.85,2.85,0,0,1-.09-.4c0-.11,0-.26-.12-.31a.09.09,0,0,0-.1,0c-.1.08-.06.22,0,.32a2.76,2.76,0,0,0,.11.44c.05.16.29.09.25-.07Z"/><path class="cls-1" d="M25.48,38.69c-.05-.21-.13-.53-.35-.62a.08.08,0,0,0-.1.07.74.74,0,0,0,.1.28,1.85,1.85,0,0,1,.11.32.12.12,0,0,0,.23-.06Z"/><path class="cls-1" d="M24.48,39.35l-.18-.19a.22.22,0,0,0-.2-.08.06.06,0,0,0-.06.06.23.23,0,0,0,.09.19l.18.19c.1.12.27-.05.17-.17Z"/><path class="cls-1" d="M24,38a2.15,2.15,0,0,1,.08-.51c0-.12,0-.26-.09-.32a.07.07,0,0,0-.07,0c-.11.07-.11.22-.12.34a2.17,2.17,0,0,0,0,.52c0,.13.22.09.22,0Z"/><path class="cls-1" d="M26,37.12a1.42,1.42,0,0,0-.09-.67.06.06,0,0,0-.11,0c-.12.2,0,.46,0,.67s.22.14.23,0Z"/><path class="cls-1" d="M27.45,36.31h-.28a.82.82,0,0,0-.28,0,.07.07,0,0,0,0,.1c.09.18.44.11.6.1a.1.1,0,0,0,0-.21Z"/><path class="cls-1" d="M28.49,35.77c0-.09,0-.17,0-.26s0-.17-.07-.23a.06.06,0,0,0-.08,0c-.14.11-.05.35,0,.5s.23.14.22,0Z"/><path class="cls-1" d="M27.07,34.66a.56.56,0,0,1-.32-.06.73.73,0,0,0-.29-.06.05.05,0,0,0,0,.09.59.59,0,0,0,.31.2.67.67,0,0,0,.4,0,.09.09,0,0,0-.05-.18Z"/><path class="cls-1" d="M25.54,35.34l-.26-.25a2.3,2.3,0,0,0-.28-.23c-.11-.07-.21.06-.16.17a.75.75,0,0,0,.25.26l.32.23c.11.08.22-.09.14-.18Z"/><path class="cls-1" d="M24.22,36,24,35.88a.85.85,0,0,0-.25-.13.14.14,0,0,0-.13.23c.12.14.38.17.55.2s.18-.13.08-.18Z"/><path class="cls-1" d="M25.81,33.72a.77.77,0,0,0-.38,0c-.1,0-.26.08-.25.21s.17.13.26.09a2.73,2.73,0,0,1,.37-.09c.11,0,.09-.17,0-.2Z"/><path class="cls-1" d="M18.77,45.31c-.09-.16-.26-.44-.48-.38a.06.06,0,0,0,0,.09c0,.09.12.12.2.17a1,1,0,0,1,.23.19s.11,0,.08-.07Z"/><path class="cls-1" d="M18.46,44a1.85,1.85,0,0,0,.19-.28.42.42,0,0,0,.08-.32.06.06,0,0,0-.08,0,.39.39,0,0,0-.17.22,1.69,1.69,0,0,1-.17.3c-.06.08.08.19.15.11Z"/><path class="cls-1" d="M19.44,42.46c-.06-.15,0-.36-.17-.46a.05.05,0,0,0-.09,0,.9.9,0,0,0,0,.25,1.39,1.39,0,0,0,.07.24c0,.08.17,0,.14-.06Z"/><path class="cls-1" d="M18.55,42.48c.06-.14.1-.29.17-.43s0-.07-.05-.05-.16.26-.23.42.08.14.11.07Z"/><path class="cls-1" d="M19.24,40.78c-.13,0-.29,0-.39.09a0,0,0,0,0,0,.06c.1.12.31.06.44,0a.09.09,0,0,0-.05-.18Z"/><path class="cls-1" d="M15,33.81c-.13,0-.29,0-.39.09a0,0,0,0,0,0,.06c.1.12.31.06.44,0a.09.09,0,0,0-.05-.18Z"/><path class="cls-1" d="M15.45,34.94c-.13,0-.29,0-.39.09a0,0,0,0,0,0,.06c.1.12.31.06.44,0a.09.09,0,0,0-.05-.18Z"/><path class="cls-1" d="M14.23,37.32c0-.12,0-.29-.12-.38a0,0,0,0,0-.06,0c-.11.11,0,.32,0,.44a.09.09,0,0,0,.18-.06Z"/><path class="cls-1" d="M18,35.88c-.13,0-.29,0-.39.09a0,0,0,0,0,0,.06c.1.12.31.06.44,0a.09.09,0,0,0-.05-.18Z"/><path class="cls-1" d="M20.13,41.06c0-.18.12-.53-.06-.66a.06.06,0,0,0-.08,0,.41.41,0,0,0,0,.23,1.31,1.31,0,0,1,0,.35c0,.12.16.17.19.05Z"/><path class="cls-1" d="M18.57,41.25l0,0a0,0,0,0,0,0,0l0,0s0,0,0,0Z"/><path class="cls-1" d="M18.25,40.21a1,1,0,0,0-.11-.29c0-.07-.09-.16-.18-.16a.06.06,0,0,0-.06,0c0,.07,0,.13,0,.19a.81.81,0,0,1,.1.28c0,.13.23.08.21-.06Z"/><path class="cls-1" d="M19.15,39.72c0-.16,0-.37-.15-.46a.05.05,0,0,0-.08,0c0,.14,0,.29,0,.43s.21.14.22,0Z"/><path class="cls-1" d="M20,39a1.1,1.1,0,0,0-.16-.44s0,0-.06,0,0,.32,0,.49.21.07.19-.05Z"/><path class="cls-1" d="M18.88,38c-.16,0-.32,0-.48,0a.38.38,0,0,0-.32.12.08.08,0,0,0,0,.1.58.58,0,0,0,.35,0l.43,0a.1.1,0,0,0,0-.2Z"/><path class="cls-1" d="M17.94,34.54h-.48c-.12,0-.25,0-.32.13a.07.07,0,0,0,0,.1c.11.06.23,0,.35,0l.43,0a.1.1,0,0,0,0-.2Z"/><path class="cls-1" d="M17.56,38.87l-.3-.09c-.1,0-.18-.11-.28-.14s-.16.08-.13.16.48.23.69.23.12-.15,0-.17Z"/><path class="cls-1" d="M17.52,37.43a.84.84,0,0,0,.18-.62.11.11,0,0,0-.21,0,1.55,1.55,0,0,0,0,.25.74.74,0,0,1-.11.27c-.07.11.1.2.17.1Z"/><path class="cls-1" d="M19.21,37l0,0s0,0,0,0l0,0s0,0,0,0Z"/><path class="cls-1" d="M19.63,36.54a1.68,1.68,0,0,0-.39.16c-.11.06-.29.11-.33.24a.07.07,0,0,0,0,.08c.12.07.24,0,.34-.08a4.63,4.63,0,0,0,.4-.28.07.07,0,0,0-.05-.12Z"/><path class="cls-1" d="M19.14,35.36a.76.76,0,0,0-.19-.52.05.05,0,0,0-.09,0c0,.17.07.32.08.48s.21.13.2,0Z"/><path class="cls-1" d="M16.58,39.9a2.4,2.4,0,0,1-.39.12c-.11,0-.25,0-.31.15a.06.06,0,0,0,0,.09.68.68,0,0,0,.37-.08,1.22,1.22,0,0,0,.35-.19.05.05,0,0,0-.06-.09Z"/><path class="cls-1" d="M15.89,41.2l-.24-.3-.12-.13a.38.38,0,0,0-.16-.07s-.08,0-.06.06a.72.72,0,0,0,.05.14,1.17,1.17,0,0,0,.14.15l.27.27a.09.09,0,0,0,.12-.12Z"/><path class="cls-1" d="M15.21,39.81a.92.92,0,0,0-.13-.45.06.06,0,0,0-.1,0c-.09.14,0,.3,0,.45s.24.14.22,0Z"/><path class="cls-1" d="M16.08,38.55c-.08-.16-.11-.39-.29-.46a.06.06,0,0,0-.07,0c0,.18.1.37.2.52a.1.1,0,0,0,.17-.1Z"/><path class="cls-1" d="M15,38a4.33,4.33,0,0,0-.48,0c-.13,0-.11.2,0,.23a.64.64,0,0,0,.51-.13A.06.06,0,0,0,15,38Z"/><path class="cls-1" d="M14.89,36.12a3.9,3.9,0,0,0-.48,0c-.12,0-.11.2,0,.23a.64.64,0,0,0,.51-.13.06.06,0,0,0,0-.11Z"/><path class="cls-1" d="M14.06,34.62a4.4,4.4,0,0,0-.12.46c0,.13.16.16.22.06a.64.64,0,0,0,0-.52c0-.05-.1-.06-.11,0Z"/><path class="cls-1" d="M15.75,37.46a2.57,2.57,0,0,0-.24-.33.11.11,0,0,0-.17.13,1.16,1.16,0,0,0,.27.3c.08.06.21,0,.14-.11Z"/><path class="cls-1" d="M16.65,35.92a2.56,2.56,0,0,0-.24-.33.11.11,0,0,0-.17.13,1.16,1.16,0,0,0,.27.3c.08.06.21,0,.14-.11Z"/><path class="cls-1" d="M15.32,41.92H15c-.09,0-.2,0-.25.08a.05.05,0,0,0,0,.05.22.22,0,0,0,.21.08h.38a.11.11,0,0,0,0-.21Z"/><path class="cls-1" d="M16.85,33.67h-.34c-.09,0-.2,0-.25.08a.06.06,0,0,0,0,.05.23.23,0,0,0,.21.08h.38a.11.11,0,0,0,0-.21Z"/><path class="cls-1" d="M14.31,43.73c0-.21-.07-.73-.34-.74a.09.09,0,0,0-.08.06c0,.12.07.26.12.37a.66.66,0,0,0,.23.34s.07,0,.08,0Z"/><path class="cls-1" d="M13.73,42a.89.89,0,0,0-.39-.39,0,0,0,0,0,0,0,.45.45,0,0,0,.13.17,1.61,1.61,0,0,1,.21.23c0,.06.14,0,.1-.06Z"/><path class="cls-1" d="M14.11,40.71l-.23-.21a1.21,1.21,0,0,0-.24-.2,0,0,0,0,0-.06,0c0,.22.25.38.38.52s.24,0,.15-.15Z"/><path class="cls-1" d="M13.27,43.67c-.14,0-.28-.06-.41-.1s-.23-.1-.26,0,.18.17.26.18a1.11,1.11,0,0,0,.41,0s0,0,0-.05Z"/><path class="cls-1" d="M14.07,44.6c-.18,0-.39-.05-.54.06a.08.08,0,0,0,0,.12c.15.12.36.07.54.06a.12.12,0,0,0,0-.25Z"/><path class="cls-1" d="M12.66,42.39c-.17,0-.48,0-.54.16a.07.07,0,0,0,0,.07.34.34,0,0,0,.23,0l.31-.07c.1,0,.06-.15,0-.16Z"/><path class="cls-1" d="M11.57,42c0-.09,0-.18,0-.27a1.06,1.06,0,0,0,0-.25.06.06,0,0,0-.08,0c-.2.11-.13.4-.1.58s.12.05.13,0Z"/><path class="cls-1" d="M12.57,41.1a1.25,1.25,0,0,0,0-.28,1.59,1.59,0,0,0,0-.32.14.14,0,0,0-.09-.09c-.33,0-.08.56-.08.69a.11.11,0,0,0,.22,0Z"/><path class="cls-1" d="M14.33,38.7l-.3-.12c-.08,0-.19-.13-.28-.11a.06.06,0,0,0,0,0c0,.24.44.28.59.29a.06.06,0,0,0,0-.11Z"/><path class="cls-1" d="M12.43,39.53a2.39,2.39,0,0,1-.39-.06c-.09,0-.2-.08-.28,0a.06.06,0,0,0,0,.07c0,.1.2.1.3.12a1.65,1.65,0,0,0,.39,0,.06.06,0,0,0,0-.13Z"/><path class="cls-1" d="M11.22,40.37c0-.1,0-.2-.06-.3s0-.17-.11-.21a.05.05,0,0,0-.06,0c-.06.07,0,.13,0,.21a2.24,2.24,0,0,0,.12.32.07.07,0,0,0,.14,0Z"/><path class="cls-1" d="M12.32,38.16c-.14.11-.34.17-.46.3s0,.07,0,.08c.21,0,.41-.14.54-.28a.07.07,0,0,0-.1-.1Z"/><path class="cls-1" d="M11.16,38.89c-.08,0-.43,0-.37.18s.33.05.44,0,0-.21-.08-.18Z"/><path class="cls-8" d="M22.83,38.3a.2.2,0,0,0,0,.4.2.2,0,0,0,0-.4Z"/><path class="cls-8" d="M22.31,38.17a.2.2,0,0,0,0,.41.2.2,0,0,0,0-.41Z"/><path class="cls-8" d="M21.77,38a.23.23,0,0,0,0,.45.23.23,0,0,0,0-.45Z"/><path class="cls-8" d="M21.16,38.12a.16.16,0,0,0,0,.32.16.16,0,0,0,0-.32Z"/><path class="cls-8" d="M22.57,36.89a.2.2,0,0,0,0,.39.2.2,0,0,0,0-.39Z"/><path class="cls-8" d="M22,36.84a.22.22,0,0,0,0,.43.22.22,0,0,0,0-.43Z"/><path class="cls-8" d="M21.48,36.86a.2.2,0,0,0,0,.39.2.2,0,0,0,0-.39Z"/><path class="cls-8" d="M20.93,36.84a.21.21,0,0,0,0,.43.21.21,0,0,0,0-.43Z"/><path class="cls-8" d="M23.31,39.65a.17.17,0,0,0,0,.34.17.17,0,0,0,0-.34Z"/><path class="cls-8" d="M22.76,39.61a.17.17,0,0,0,0,.35.17.17,0,0,0,0-.35Z"/><path class="cls-8" d="M22.28,39.57a.18.18,0,0,0,0,.35.18.18,0,0,0,0-.35Z"/><path class="cls-8" d="M21.74,39.54a.21.21,0,0,0,0,.43.21.21,0,0,0,0-.43Z"/><path class="cls-8" d="M26.4,45.94a.21.21,0,0,0,0,.43.21.21,0,0,0,0-.43Z"/><path class="cls-8" d="M21.14,39.63a.19.19,0,0,0,0,.37.19.19,0,0,0,0-.37Z"/><path class="cls-8" d="M23.63,33.75a.17.17,0,0,0,0,.33.17.17,0,0,0,0-.33Z"/><path class="cls-8" d="M23,33.68A.17.17,0,0,0,23,34a.17.17,0,0,0,0-.34Z"/><path class="cls-8" d="M22.31,33.68a.17.17,0,0,0,0,.35.17.17,0,0,0,0-.35Z"/><path class="cls-8" d="M21.64,33.71a.17.17,0,0,0,0,.34.17.17,0,0,0,0-.34Z"/><path class="cls-8" d="M21.06,33.7a.21.21,0,0,0,0,.42.21.21,0,0,0,0-.42Z"/><path class="cls-8" d="M20.42,33.68a.2.2,0,0,0,0,.41.2.2,0,0,0,0-.41Z"/><path class="cls-8" d="M19.78,33.72a.16.16,0,0,0,0,.32.16.16,0,0,0,0-.32Z"/><path class="cls-8" d="M19.3,33.8a.14.14,0,0,0,0,.29.14.14,0,0,0,0-.29Z"/><path class="cls-4" d="M8.28,36.09c.3-.47.9-.45,1.42-.45a2.93,2.93,0,0,1,2.06.5,3.18,3.18,0,0,1,.66,1.05c.83,1.77,2,3.46,2.15,5.4a.43.43,0,0,1-.05.3,3.8,3.8,0,0,0-.88-.53.53.53,0,0,0-.69.22l-.64,1.16q-.63-.55-1.27-1.08a.36.36,0,0,0-.47,0,10.4,10.4,0,0,1-1.39,1.11l-.91-1.41a.28.28,0,0,0-.13-.13.29.29,0,0,0-.21,0L6.52,43l-.17-1.37a.21.21,0,0,0-.26-.17,2.9,2.9,0,0,1-1.39.07,9.44,9.44,0,0,1,1.5-2.26C6.62,38.74,7.9,36.69,8.28,36.09Z"/><path class="cls-9" d="M13.35,35.45a.42.42,0,0,0-.11-.51,1.22,1.22,0,0,0-.51-.24l-1.25-.37a.42.42,0,0,1-.22-.65,1,1,0,0,0,.14-.26.79.79,0,0,0-.4-.9,1.31,1.31,0,0,0-1,0,2.61,2.61,0,0,0-1.26,1A6.67,6.67,0,0,0,8,35a2.92,2.92,0,0,0-.17,2.24,3.21,3.21,0,0,0,2,1.27,3.85,3.85,0,0,0,2.09.23.34.34,0,0,0,.28-.31c0-.15-.2-.26-.26-.28-.76-.22-1.41-.37-1.84-.55a.07.07,0,0,1,0-.13c.71.13,1.69.26,2.49.34a.36.36,0,0,0,.41-.38.41.41,0,0,0-.26-.33c-.54-.16-1.27-.33-1.91-.54-.33-.11-.55-.12-.52-.25s.24,0,.6,0a15.58,15.58,0,0,0,1.72.34c.26,0,.54,0,.64-.27s-1.12-.65-2.12-.89c-.21,0-.44-.07-.42-.15s.34,0,.56,0a9.75,9.75,0,0,0,1.66.28A.38.38,0,0,0,13.35,35.45Z"/><path class="cls-8" d="M12.35,38.41c0-.12-.2-.17-.31-.21a.54.54,0,0,0-.54,0,.25.25,0,0,0-.06.31.36.36,0,0,0,.29.19,1.58,1.58,0,0,0,.32,0c.14,0,.37-.12.31-.29Z"/><path class="cls-8" d="M13.15,37.29a.83.83,0,0,0-.78-.19.32.32,0,0,0-.1.49.83.83,0,0,0,.77.21.28.28,0,0,0,.1-.51Z"/><path class="cls-8" d="M13.49,36.34a.61.61,0,0,0-.79-.27.23.23,0,0,0-.1.31.56.56,0,0,0,.47.29c.17,0,.49-.09.43-.32Z"/><path class="cls-8" d="M13.6,35.3c0-.31-.51-.39-.75-.37a.3.3,0,0,0-.11.53.91.91,0,0,0,.55.09c.15,0,.32-.08.3-.26Z"/><path class="cls-8" d="M8,37.34c0-.07.18-.29,0-.35s-.17.21-.18.3a.08.08,0,0,0,.15,0Z"/><path class="cls-8" d="M8.24,36.28c.14.05.28-.16.32-.27a.16.16,0,0,0-.26-.18.44.44,0,0,0-.14.27.16.16,0,0,0,.08.17Z"/><path class="cls-8" d="M8.83,35.18a.25.25,0,0,0,.14-.1c0-.06.1-.1.14-.17a.15.15,0,0,0-.19-.22.41.41,0,0,0-.21.25c0,.09,0,.25.13.23Z"/><path class="cls-8" d="M9.63,34.21A1.31,1.31,0,0,0,9.81,34a.12.12,0,1,0-.18-.16L9.48,34c-.12.1,0,.27.15.17Z"/><path class="cls-1" d="M13.62,41.74l.05.06a.31.31,0,0,0,.49,0,.4.4,0,0,0,.07-.19.32.32,0,0,0-.22-.32h0a.32.32,0,0,0-.41.36h0c0,.09,0,.1,0,0l.1-.29h0l.13-.06h-.05a.26.26,0,0,0-.14.42Z"/><path class="cls-1" d="M11.92,41.8a.46.46,0,0,0-.25.37.45.45,0,1,0,.25-.37Z"/><path class="cls-1" d="M11.93,41.16h0a.31.31,0,0,0,.4-.27.33.33,0,0,0-.33-.35.3.3,0,0,0-.19.54l0,0c-.12-.09.05,0,.07,0Z"/><path class="cls-1" d="M11.87,39.93v0a.21.21,0,1,0-.25,0h0a.18.18,0,0,0,.22,0Z"/><path class="cls-1" d="M13.58,40.39a.14.14,0,0,0-.09.27.14.14,0,0,0,.09-.27Z"/><path class="cls-1" d="M13.36,39.68a.26.26,0,0,0,0-.09c0-.14-.27-.15-.27,0h0c-.08.2.28.27.29.06Z"/><path class="cls-1" d="M9.67,42a.47.47,0,1,0,.29.6.48.48,0,0,0-.29-.6Z"/><path class="cls-1" d="M9.8,40.85a.32.32,0,0,0-.4.2.32.32,0,1,0,.4-.2Z"/><path class="cls-1" d="M9.79,39.87h0l.16,0h0a.15.15,0,0,0-.19.17v0a.18.18,0,0,0,.33.07c.11-.17-.12-.4-.27-.24Z"/><path class="cls-1" d="M7,41.68a.3.3,0,0,0,.21.23.32.32,0,0,0,.41-.22.31.31,0,1,0-.59-.2.44.44,0,0,0,0,.21v-.15l.06-.09a.23.23,0,0,0-.08.22Z"/><path class="cls-1" d="M7.75,40.48a.2.2,0,0,0-.13.38.2.2,0,0,0,.13-.38Z"/><path class="cls-1" d="M8.18,39.61l-.09-.05c-.18-.07-.3.13-.25.28A.21.21,0,0,0,8,40a.21.21,0,0,0,.18-.36Z"/><path class="cls-1" d="M5.71,40.86h0a.27.27,0,1,0-.37-.12v0a.25.25,0,0,0,.34.12Z"/><path class="cls-1" d="M6.26,39.5a.2.2,0,0,0-.13.37.2.2,0,0,0,.13-.37Z"/><path class="cls-1" d="M6.76,38.76h0a.19.19,0,0,0-.12.34l0,0a.2.2,0,1,0,.12-.36Z"/><g class="cls-15"><path class="cls-8" d="M13.39,43.11a6.57,6.57,0,0,0-.87-3.83.07.07,0,0,0-.14,0c.15,1.28.86,2.48.89,3.77a.06.06,0,0,0,.12,0Z"/><path class="cls-8" d="M11.11,44.11a5.59,5.59,0,0,0,.08-2,16.44,16.44,0,0,0-.34-2.71.08.08,0,0,0-.15,0c-.29,1.53.55,3.13.19,4.66,0,.15.18.22.22.08Z"/><path class="cls-8" d="M7.94,44.11c.37-1.71,1-3.38,1.23-5.12,0-.05-.08-.09-.11,0a9.19,9.19,0,0,0-.7,2.33c-.2.93-.46,1.85-.61,2.79,0,.11.17.15.19,0Z"/><path class="cls-8" d="M5.55,42.61c.84-1.31,2.14-2.53,2.64-4a.09.09,0,0,0-.14-.09,5.44,5.44,0,0,0-1.5,2A14.49,14.49,0,0,0,5.4,42.53a.09.09,0,0,0,.15.08Z"/></g><path class="cls-16" d="M35.61,34.56a7.41,7.41,0,0,1-2.56,4,.56.56,0,0,1-.89-.22,23.1,23.1,0,0,0-.79-2.48c-1.24-2.4-4.11-3.67-6.8-3.93-2.49-.24-4.59.24-7.09.41a18.86,18.86,0,0,1-5.61-.41,12.7,12.7,0,0,1-5.51-2.17,2,2,0,0,1-.77-.85,1.05,1.05,0,0,1-.13-.6A6.66,6.66,0,0,1,7.7,23.8a.45.45,0,0,1,.62.24,5.52,5.52,0,0,0,1.16,3.29,7.1,7.1,0,0,0,3.83,2,16.32,16.32,0,0,0,3,.26c1.37,0,2.73-.18,4.1-.26a30.23,30.23,0,0,1,12.78,2.3c1.75.85,2.67,2.19,2.62,2.52C35.77,34.27,35.65,34.4,35.61,34.56Z"/><path class="cls-8" d="M23.5,30.12a.33.33,0,0,1,.05.52,31.71,31.71,0,0,1-3.46,2.65.55.55,0,0,1-.65,0l-3.05-2.39a.28.28,0,0,1,0-.46c1-.6,2.1-1.61,3.07-2.13.17-.09.37-.23.54-.15A36.41,36.41,0,0,1,23.5,30.12Z"/><path class="cls-6" d="M19.85,30.35a.5.5,0,1,0,.5.5.5.5,0,0,0-.5-.5Z"/><path class="cls-4" d="M20,31.93h0l.11.06h0a.25.25,0,1,0,0,.36h0l-.11.06h0a.23.23,0,0,0,0-.45Z"/><path class="cls-4" d="M21.46,30.45a.29.29,0,1,0,.29.29.29.29,0,0,0-.29-.29Z"/><path class="cls-4" d="M18.09,30.46a.23.23,0,0,0,0,.47.23.23,0,0,0,0-.47Z"/><path class="cls-4" d="M20,29.48v0a.3.3,0,1,0-.51,0v0a.29.29,0,0,0,.49,0Z"/><path class="cls-4" d="M15.17,31.1a.31.31,0,0,0,0-.62.31.31,0,0,0,0,.62Z"/><path class="cls-4" d="M13.71,30.49l0,0c-.12.18.14.37.29.22l0,0c.2-.19-.14-.47-.3-.23Z"/><path class="cls-4" d="M12.68,30.25l0,0a.25.25,0,1,0,.09.34l0,0a.22.22,0,0,0-.08-.3Z"/><path class="cls-4" d="M11.32,30.21a.17.17,0,0,0,0-.33.17.17,0,0,0,0,.33Z"/><path class="cls-4" d="M10.06,29.85c.12.06.27-.09.16-.2s-.32.12-.16.2Z"/><path class="cls-4" d="M9.12,29.38a.14.14,0,0,0,0-.28.14.14,0,0,0,0,.28Z"/><path class="cls-4" d="M8.27,28.81a.12.12,0,0,0,0-.23.12.12,0,0,0,0,.23Z"/><path class="cls-4" d="M24.62,30.71a.22.22,0,0,0,0-.44.22.22,0,0,0,0,.44Z"/><path class="cls-4" d="M25.82,30.81a.22.22,0,0,0,0-.44.22.22,0,0,0,0,.44Z"/><path class="cls-4" d="M26.92,31a.17.17,0,0,0,0-.33.17.17,0,0,0,0,.33Z"/><path class="cls-4" d="M28.12,31.44a.25.25,0,0,0,0-.49.25.25,0,0,0,0,.49Z"/><path class="cls-4" d="M29.42,31.95a.21.21,0,0,0,0-.41.21.21,0,0,0,0,.41Z"/><path class="cls-4" d="M30.57,32.61a.12.12,0,0,0,0-.24.12.12,0,0,0,0,.24Z"/><path class="cls-4" d="M31.67,33.49a.15.15,0,0,0,0-.29.15.15,0,0,0,0,.29Z"/><path class="cls-17" d="M5.29,12.71a.25.25,0,0,0,.13,0,15,15,0,0,0,1.3-1.24.21.21,0,0,0,.08-.16.23.23,0,0,0-.08-.12c-.34-.34-.69-.65-1-1-.14-.15-.3-.33-.4-.33H5.26c-.1,0-.26.18-.4.33-.32.35-.67.67-1,1a.23.23,0,0,0-.08.12.21.21,0,0,0,.08.16,14.86,14.86,0,0,0,1.3,1.24.24.24,0,0,0,.13,0Z"/><path class="cls-17" d="M35.66,52.24a.25.25,0,0,0,.13,0A15,15,0,0,0,37.09,51a.22.22,0,0,0,.08-.16.22.22,0,0,0-.08-.12c-.34-.34-.69-.65-1-1-.14-.15-.3-.33-.4-.34h-.05c-.1,0-.26.18-.4.34-.32.35-.67.67-1,1a.22.22,0,0,0-.08.12.21.21,0,0,0,.08.16,14.87,14.87,0,0,0,1.3,1.24.25.25,0,0,0,.13,0Z"/><path class="cls-17" d="M5,8.11a2,2,0,0,1-1.74-.85,3.43,3.43,0,0,1-.63-2.11A3.47,3.47,0,0,1,3.24,3,2.06,2.06,0,0,1,5,2.13a2.09,2.09,0,0,1,1.69.81,3.26,3.26,0,0,1,.66,2.14A3.68,3.68,0,0,1,6.81,7,2.11,2.11,0,0,1,5.54,8v.08q0,.63.77.63A3.76,3.76,0,0,0,7,8.7v.58a2,2,0,0,1-.59.09,1.62,1.62,0,0,1-1-.28A1.27,1.27,0,0,1,5,8.11Zm0-.59a1.32,1.32,0,0,0,1.18-.69,3.32,3.32,0,0,0,.42-1.77,3,3,0,0,0-.44-1.73,1.37,1.37,0,0,0-1.17-.62,1.33,1.33,0,0,0-1.17.67,3.18,3.18,0,0,0-.43,1.75,3.07,3.07,0,0,0,.44,1.72A1.34,1.34,0,0,0,5,7.53Z"/><path class="cls-17" d="M36,54.36a2,2,0,0,1,1.74.85,3.42,3.42,0,0,1,.63,2.11,3.49,3.49,0,0,1-.65,2.19,2.06,2.06,0,0,1-1.71.85,2.1,2.1,0,0,1-1.7-.81,3.26,3.26,0,0,1-.66-2.14,3.69,3.69,0,0,1,.5-1.93,2.1,2.1,0,0,1,1.27-1v-.08q0-.63-.77-.63a3.6,3.6,0,0,0-.66.05V53.2a2,2,0,0,1,.59-.09,1.62,1.62,0,0,1,1,.28A1.27,1.27,0,0,1,36,54.36Zm0,.59a1.32,1.32,0,0,0-1.18.69,3.31,3.31,0,0,0-.43,1.77,3,3,0,0,0,.44,1.73,1.36,1.36,0,0,0,1.17.62,1.33,1.33,0,0,0,1.17-.67,3.18,3.18,0,0,0,.43-1.75,3.07,3.07,0,0,0-.44-1.72A1.34,1.34,0,0,0,36,54.95Z"/><path class="cls-17" d="M11.82,59.11H6.19a3.1,3.1,0,0,1-3-3.19V15.66h.19V55.92a2.92,2.92,0,0,0,2.82,3h5.62Z"/><rect class="cls-17" x="22.21" y="58.93" width="10.57" height="0.19"/><path class="cls-17" d="M37.74,46.82h-.19V6.36a2.92,2.92,0,0,0-2.82-3H29V3.17h5.7a3.1,3.1,0,0,1,3,3.19Z"/><rect class="cls-17" x="8.45" y="3.17" width="10.01" height="0.19"/></g></g></svg>