<svg xmlns="http://www.w3.org/2000/svg" xmlns:xlink="http://www.w3.org/1999/xlink" viewBox="0 0 40.93 62.29"><defs><style>.cls-1{fill:#990028;}.cls-2{fill:none;}.cls-3{fill:#fff;}.cls-4{fill:#ffd6a1;}.cls-5{fill:#b70027;}.cls-6{clip-path:url(#clip-path);}.cls-7{fill:#0c0a35;}.cls-8{fill:#f70032;}.cls-9{fill:#d6002b;}.cls-10{clip-path:url(#clip-path-2);}.cls-11{clip-path:url(#clip-path-3);}.cls-12{clip-path:url(#clip-path-4);}.cls-13{clip-path:url(#clip-path-5);}.cls-14{clip-path:url(#clip-path-6);}.cls-15{fill:#222272;}</style><clipPath id="clip-path"><path class="cls-1" d="M14.59,20.53a2.47,2.47,0,0,1,.38-.37.82.82,0,0,1,.73,0,3,3,0,0,0,.7.28A1.34,1.34,0,0,0,17.5,20c.29-.3.5-.67.77-1s.41-.43.59-.66a3,3,0,0,0,.53-2.6,3.16,3.16,0,0,0-1.73-2,.6.6,0,0,0-.25-.07.64.64,0,0,0-.29.11c-.24.14-.47.27-.69.43a4.63,4.63,0,0,0-1.62,2.05,2.2,2.2,0,0,1-.37.71,2.7,2.7,0,0,1-.83.48,2.61,2.61,0,0,0-1.29,1.44,1.41,1.41,0,0,0,.38,1.67,1.66,1.66,0,0,0,.62.2A1.52,1.52,0,0,0,14.59,20.53Z"/></clipPath><clipPath id="clip-path-2"><path class="cls-2" d="M27.7,14.92a4.73,4.73,0,0,1-.15,1.77c-.1.27-.24.53-.31.81a.87.87,0,0,0,.15.82,4.28,4.28,0,0,0,.4.29,1.07,1.07,0,0,1,.2,1.27,2.31,2.31,0,0,1-1,.94,4.19,4.19,0,0,1-2.39.59,2.71,2.71,0,0,1-2.08-1.21,1.67,1.67,0,0,1-.27-1,1.37,1.37,0,0,1,.35-.94c.69-.62,1.32-.39,1.3-1.05,0-.48-.67-.54-.91-.56-.76-.09-2.19-1.08-.91-2.45a5.54,5.54,0,0,1,1.09-.84.78.78,0,0,0,.26-.24c.19-.32-.15-.72-.5-.83A5.12,5.12,0,0,1,21.87,12a1.42,1.42,0,0,1-.59-1.16c0-.45,0-.91,0-1.35a2.35,2.35,0,0,0-.48-1.14A1.16,1.16,0,0,0,20.37,8a1.49,1.49,0,0,0-.49-.1Q19,7.88,18.1,7.87a2,2,0,0,0-.91.15c-.91.46-1,2-1.88,2.53a1.84,1.84,0,0,1-1.38.1,1.68,1.68,0,0,1-1.1-1.13,1.61,1.61,0,0,1,.94-1.91c.37-.17.87-.2,1.08-.55.32-.5,0-.68.11-1a1.88,1.88,0,0,1,1.49-1c.54,0,1.16,0,1.39.48.05.11.08.23.14.34a1.11,1.11,0,0,0,1.23.45,3.66,3.66,0,0,0,1.23-.66,2.63,2.63,0,0,1,1.27-.56,2,2,0,0,1,1.12.3A7.14,7.14,0,0,1,25.4,8.7a21.07,21.07,0,0,1,1.25,2.9A13.07,13.07,0,0,1,27.7,14.92Z"/></clipPath><clipPath id="clip-path-3"><path class="cls-2" d="M27.34,16.9c.36,0,.59-.33.81-.62A18.44,18.44,0,0,1,30,14.14a4.3,4.3,0,0,0,.61-.7.52.52,0,0,0,.1-.28.54.54,0,0,0-.2-.34c-.55-.55-1.17-1-1.66-1.61a11.64,11.64,0,0,1-1.36-2.15c-.45-1.55-.58-2.24.34-4.82a.4.4,0,0,0-.35-.54l-2.58-.14a.38.38,0,0,0-.3.12,6,6,0,0,0-.55,1,7.53,7.53,0,0,0-.93,1.51,6.93,6.93,0,0,0,.45,5.61A11.44,11.44,0,0,0,26,15.41C26.24,15.61,27.29,16.8,27.34,16.9Z"/></clipPath><clipPath id="clip-path-4"><path class="cls-1" d="M27.37,41.94a2.44,2.44,0,0,1-.38.37.82.82,0,0,1-.73,0,3.13,3.13,0,0,0-.7-.28,1.34,1.34,0,0,0-1.12.47c-.29.3-.5.67-.77,1s-.41.43-.59.66a3,3,0,0,0-.53,2.6,3.16,3.16,0,0,0,1.73,2,.57.57,0,0,0,.25.07.64.64,0,0,0,.29-.11c.24-.13.47-.27.69-.43a4.64,4.64,0,0,0,1.62-2.05,2.22,2.22,0,0,1,.37-.71,2.69,2.69,0,0,1,.84-.47,2.61,2.61,0,0,0,1.28-1.44,1.41,1.41,0,0,0-.38-1.67,1.65,1.65,0,0,0-.62-.2A1.52,1.52,0,0,0,27.37,41.94Z"/></clipPath><clipPath id="clip-path-5"><path class="cls-2" d="M14.26,47.55a4.71,4.71,0,0,1,.15-1.77c.1-.27.24-.53.31-.81a.87.87,0,0,0-.15-.82,4.38,4.38,0,0,0-.4-.29,1.07,1.07,0,0,1-.2-1.27,2.31,2.31,0,0,1,1-.94,4.19,4.19,0,0,1,2.39-.59,2.72,2.72,0,0,1,2.08,1.21,1.68,1.68,0,0,1,.27,1,1.37,1.37,0,0,1-.35.94c-.69.62-1.32.39-1.3,1.05,0,.48.67.54.91.57.76.09,2.19,1.08.91,2.45a5.52,5.52,0,0,1-1.09.84.78.78,0,0,0-.27.24c-.19.32.15.72.5.83a5.08,5.08,0,0,1,1.07.27,1.42,1.42,0,0,1,.59,1.16c0,.45,0,.9,0,1.35a2.34,2.34,0,0,0,.48,1.13,1.14,1.14,0,0,0,.42.35,1.46,1.46,0,0,0,.49.1q.89.07,1.78.07a2,2,0,0,0,.91-.15c.91-.46,1-2,1.88-2.53a1.84,1.84,0,0,1,1.38-.1,1.68,1.68,0,0,1,1.1,1.13,1.61,1.61,0,0,1-.94,1.91c-.37.17-.87.21-1.08.55-.32.5,0,.68-.11,1a1.88,1.88,0,0,1-1.49,1c-.54,0-1.16,0-1.39-.48-.05-.11-.08-.23-.14-.34a1.11,1.11,0,0,0-1.23-.45,3.67,3.67,0,0,0-1.23.66,2.64,2.64,0,0,1-1.27.56,2,2,0,0,1-1.12-.3,7.16,7.16,0,0,1-2.58-3.31,21.18,21.18,0,0,1-1.25-2.9A13.09,13.09,0,0,1,14.26,47.55Z"/></clipPath><clipPath id="clip-path-6"><path class="cls-2" d="M14.62,45.56c-.36,0-.59.33-.81.62A18.31,18.31,0,0,1,12,48.32a4.23,4.23,0,0,0-.6.7.51.51,0,0,0-.1.28.53.53,0,0,0,.19.34c.55.55,1.17,1,1.66,1.61a11.72,11.72,0,0,1,1.36,2.15c.45,1.55.58,2.24-.34,4.82a.4.4,0,0,0,.35.54l2.58.14a.39.39,0,0,0,.3-.12,6,6,0,0,0,.54-1,7.55,7.55,0,0,0,.93-1.51,6.93,6.93,0,0,0-.45-5.61,11.43,11.43,0,0,0-2.5-3.62C15.72,46.85,14.67,45.67,14.62,45.56Z"/></clipPath></defs><title>Fichier 26</title><g id="Calque_2" data-name="Calque 2"><g id="Layer_1" data-name="Layer 1"><rect class="cls-3" x="0.09" y="0.09" width="40.74" height="62.1" rx="3.45" ry="3.45"/><path class="cls-3" d="M37.39,62.29H3.54A3.55,3.55,0,0,1,0,58.75V3.54A3.55,3.55,0,0,1,3.54,0H37.39a3.55,3.55,0,0,1,3.54,3.54v55.2A3.55,3.55,0,0,1,37.39,62.29ZM3.54.19A3.36,3.36,0,0,0,.19,3.54v55.2A3.36,3.36,0,0,0,3.54,62.1H37.39a3.36,3.36,0,0,0,3.36-3.36V3.54A3.36,3.36,0,0,0,37.39.19Z"/><path class="cls-4" d="M31.37,38.73c0,.13-.36.46-.48.52-.85.35-3.81.53-4.7.75a3.64,3.64,0,0,0-2.43,1.59,2.88,2.88,0,0,0,0,2,1.86,1.86,0,0,1,.12.58,1.23,1.23,0,0,1-.22.62A4.31,4.31,0,0,1,22.25,46a5,5,0,0,1-3,.9A2.18,2.18,0,0,1,18,46.5,3.36,3.36,0,0,1,17.19,44c0-.91.13-2.44-.66-2.89s-5.78-1.17-3-1.23a14.65,14.65,0,0,0,2.1-.2c.61-1,1.9-.55,2.7-1.39a5.81,5.81,0,0,1,2.1-1.53A7,7,0,0,1,23,36.46a5,5,0,0,1,1.42.16c1.15.36,1.92,1.49,3,1.9C27.9,38.68,31.36,38.67,31.37,38.73Z"/><path class="cls-5" d="M7.67,25.74A11.36,11.36,0,0,1,8,30.12a3.32,3.32,0,0,1-.2.89c-.34.83-1.22,1.49-1.58,2.31a2,2,0,0,0,.23,2A3.74,3.74,0,0,0,8.63,36.7a1.12,1.12,0,0,1,.3.1.58.58,0,0,1,.24.33c.18.47.31.63.49,1.1a5,5,0,0,0,.75,1.15,2.9,2.9,0,0,0,1.26.86,4.52,4.52,0,0,0,2.73.31,9,9,0,0,0,1.93-.48c.64-.25,3.48-1.56,4-1.93a5.33,5.33,0,0,1,5.07-.1c.62.36,1.08.84,1.75,1.15a5.46,5.46,0,0,0,2.52.63,5.91,5.91,0,0,0,2.61-.73,3.14,3.14,0,0,0,1.64-1.9l.9-2.48a9.25,9.25,0,0,0,.48-1.65,8.6,8.6,0,0,0,.07-1.38,34.77,34.77,0,0,0-.24-4.94,1.09,1.09,0,0,0-.23-.61.82.82,0,0,0-.76-.23,31.79,31.79,0,0,1-4.34.4,37.54,37.54,0,0,1-5.38,0l-5.86-.26-5.46-.25a15.88,15.88,0,0,1-1.9-.16c-.42-.07-.82-.17-1.24-.22A5.49,5.49,0,0,0,7.67,25.74Z"/><path class="cls-1" d="M14.59,20.53a2.47,2.47,0,0,1,.38-.37.82.82,0,0,1,.73,0,3,3,0,0,0,.7.28A1.34,1.34,0,0,0,17.5,20c.29-.3.5-.67.77-1s.41-.43.59-.66a3,3,0,0,0,.53-2.6,3.16,3.16,0,0,0-1.73-2,.6.6,0,0,0-.25-.07.64.64,0,0,0-.29.11c-.24.14-.47.27-.69.43a4.63,4.63,0,0,0-1.62,2.05,2.2,2.2,0,0,1-.37.71,2.7,2.7,0,0,1-.83.48,2.61,2.61,0,0,0-1.29,1.44,1.41,1.41,0,0,0,.38,1.67,1.66,1.66,0,0,0,.62.2A1.52,1.52,0,0,0,14.59,20.53Z"/><g class="cls-6"><path class="cls-7" d="M12.68,21.6a2.88,2.88,0,0,1,.07-2.39c.38-.71,1.33-1.08,2-1.54a3.81,3.81,0,0,0,1.35-2.86s0-.07-.07,0c-.48.85-.43,1.76-1.19,2.5-.57.55-1.33.85-1.92,1.38a2.29,2.29,0,0,0-.25,3,0,0,0,0,0,0,0Z"/><path class="cls-7" d="M13.15,21.26A2.11,2.11,0,0,1,14,19.19c.49-.37,1-.69,1.54-1a2.27,2.27,0,0,0,1.24-2,.08.08,0,0,0-.15,0A3.67,3.67,0,0,1,15.13,18c-.51.35-1,.68-1.5,1.06a1.79,1.79,0,0,0-.56,2.2s.09,0,.09,0Z"/><path class="cls-7" d="M13.56,21.48c.26-1.31,1.1-1.82,2.15-2.51a2.77,2.77,0,0,0,1.43-1.82.08.08,0,0,0-.14-.06,4.88,4.88,0,0,1-1.16,1.46c-.47.35-1,.6-1.49,1a2.14,2.14,0,0,0-.87,1.93,0,0,0,0,0,.08,0Z"/><path class="cls-7" d="M14.58,21.44a2.65,2.65,0,0,1,1.8-2,2.4,2.4,0,0,0,1.27-1.46.07.07,0,0,0-.11-.08c-.36.25-.49.67-.79,1s-1,.42-1.37.76a2.08,2.08,0,0,0-.87,1.84,0,0,0,0,0,.07,0Z"/><path class="cls-7" d="M15.61,21.47c.17-1.55,2.32-1.82,2.54-3.46,0-.06-.08-.11-.11,0a5.9,5.9,0,0,1-.8,1.23,8.48,8.48,0,0,1-1,.79c-.41.32-1.11.95-.69,1.51a0,0,0,0,0,.06,0Z"/></g><path class="cls-4" d="M10.59,23.73c0-.13.36-.46.48-.52.85-.35,3.81-.53,4.7-.75a3.64,3.64,0,0,0,2.43-1.59,2.87,2.87,0,0,0,0-2,1.92,1.92,0,0,1-.12-.58,1.24,1.24,0,0,1,.22-.62,4.29,4.29,0,0,1,1.41-1.27,5,5,0,0,1,3-.9,2.16,2.16,0,0,1,1.16.44,3.35,3.35,0,0,1,.85,2.52c0,.91-.13,2.44.66,2.9s5.79,1.17,3,1.23a14.49,14.49,0,0,0-2.1.2c-.61,1-1.9.55-2.7,1.38a5.81,5.81,0,0,1-2.1,1.53A7,7,0,0,1,19,26a5.06,5.06,0,0,1-1.42-.16c-1.15-.36-1.92-1.49-3-1.9C14.06,23.79,10.6,23.8,10.59,23.73Z"/><path class="cls-5" d="M34.29,36.73a11.36,11.36,0,0,1-.37-4.38,3.29,3.29,0,0,1,.2-.89c.33-.83,1.22-1.49,1.58-2.31a2,2,0,0,0-.23-2,3.73,3.73,0,0,0-2.15-1.35,1.15,1.15,0,0,1-.29-.1.58.58,0,0,1-.24-.33c-.18-.47-.31-.63-.49-1.1a4.92,4.92,0,0,0-.75-1.15,2.91,2.91,0,0,0-1.26-.86,4.53,4.53,0,0,0-2.73-.31,9.15,9.15,0,0,0-1.93.48c-.64.25-3.48,1.56-4,1.93a5.33,5.33,0,0,1-5.07.1c-.62-.36-1.08-.84-1.75-1.15a5.47,5.47,0,0,0-2.52-.63,5.91,5.91,0,0,0-2.61.73A3.14,3.14,0,0,0,8,25.27l-.9,2.48a9.23,9.23,0,0,0-.48,1.65,8.59,8.59,0,0,0-.07,1.38,34.78,34.78,0,0,0,.24,4.94,1.09,1.09,0,0,0,.23.61.82.82,0,0,0,.76.23,31.61,31.61,0,0,1,4.34-.4,37.47,37.47,0,0,1,5.38,0l5.86.26,5.46.25a15.73,15.73,0,0,1,1.9.16c.42.07.82.17,1.24.22A5.47,5.47,0,0,0,34.29,36.73Z"/><path class="cls-1" d="M23,18.41a1.27,1.27,0,0,1,.23,1,1.14,1.14,0,0,1-.36.42A5.8,5.8,0,0,1,18.08,21c.29-.39.3-1.05.36-1a4.87,4.87,0,0,0,4.42-1.78C22.95,18.24,23,18.33,23,18.41Z"/><path class="cls-7" d="M19.69,23.95a.46.46,0,0,1-.57-.07.75.75,0,0,1-.2-.56,2.26,2.26,0,0,1,.13-.6l.24-.76a1.74,1.74,0,0,1,.33-.68s.08-.06.12,0a.09.09,0,0,1,0,0,5.32,5.32,0,0,1,.15,2.25A.66.66,0,0,1,19.69,23.95Z"/><path class="cls-7" d="M16.73,22.63a.42.42,0,0,1,0-.49,1.24,1.24,0,0,1,.39-.36,7.47,7.47,0,0,0,.87-.65c.14-.13.19,0,.19.14a2.61,2.61,0,0,1-.3.82,1.1,1.1,0,0,1-.7.64A.45.45,0,0,1,16.73,22.63Z"/><path class="cls-7" d="M21.83,22.74a.56.56,0,0,0,.62-.1c.12-.11.11-.47.08-.62a1.73,1.73,0,0,0-.76-1.15c-.07-.06-.17-.12-.23-.05a.18.18,0,0,0,0,.13c0,.34,0,.68,0,1S21.62,22.62,21.83,22.74Z"/><path class="cls-4" d="M16.31,7.72c-.06-.05-.16,0-.21.08-.53.75-.28,1.78-.41,2.69A3.6,3.6,0,0,1,15.07,12c-.39.53-.91.92-1,1.54,0,.12.07.2.19.23.27.08.68,0,.87.19s.08.21.08.32a8.84,8.84,0,0,0,0,1.56c.14.62.68,1.06.92,1.65a7.15,7.15,0,0,1,.23.91,3.67,3.67,0,0,0,.54,1.19,1,1,0,0,0,1.09.32,7.34,7.34,0,0,0,1.67-1A5.93,5.93,0,0,0,21.49,17c.12-.23.2-.47.32-.7.32-.64.87-1.14,1.25-1.75a6.22,6.22,0,0,0,.78-2.73,4.92,4.92,0,0,0,0-1.32,3.35,3.35,0,0,0-1.14-1.93,4.45,4.45,0,0,0-2.06-.95,10.69,10.69,0,0,0-2-.13H17C16.8,7.44,16.34,7.5,16.31,7.72Z"/><path class="cls-7" d="M20.26,8.09a.18.18,0,0,1,.06.06l.42.64a4.65,4.65,0,0,1-2.19.52,3.09,3.09,0,0,1-2.06-.83l.58-.53a3.38,3.38,0,0,0,3,.17A.17.17,0,0,1,20.26,8.09Z"/><path class="cls-8" d="M21.29,12.67a1.18,1.18,0,0,0-.61-.28,1.14,1.14,0,0,0-.73.18,1.12,1.12,0,0,0-.58.94,1.22,1.22,0,0,0,.89,1,1.09,1.09,0,0,0,1-.07,1.17,1.17,0,0,0,.37-.58A1,1,0,0,0,21.29,12.67Z"/><path class="cls-8" d="M15.51,15c.11-.28.25-.51.55-.53a.48.48,0,0,1,.47.57,7.43,7.43,0,0,1-.72,2,3.9,3.9,0,0,1-1.1-1.91.64.64,0,0,1,.14-.43.39.39,0,0,1,.66.29Z"/><path class="cls-9" d="M27.7,14.92a4.73,4.73,0,0,1-.15,1.77c-.1.27-.24.53-.31.81a.87.87,0,0,0,.15.82,4.28,4.28,0,0,0,.4.29,1.07,1.07,0,0,1,.2,1.27,2.31,2.31,0,0,1-1,.94,4.19,4.19,0,0,1-2.39.59,2.71,2.71,0,0,1-2.08-1.21,1.67,1.67,0,0,1-.27-1,1.37,1.37,0,0,1,.35-.94c.69-.62,1.32-.39,1.3-1.05,0-.48-.67-.54-.91-.56-.76-.09-2.19-1.08-.91-2.45a5.54,5.54,0,0,1,1.09-.84.78.78,0,0,0,.26-.24c.19-.32-.15-.72-.5-.83A5.12,5.12,0,0,1,21.87,12a1.42,1.42,0,0,1-.59-1.16c0-.45,0-.91,0-1.35a2.35,2.35,0,0,0-.48-1.14A1.16,1.16,0,0,0,20.37,8a1.49,1.49,0,0,0-.49-.1Q19,7.88,18.1,7.87a2,2,0,0,0-.91.15c-.91.46-1,2-1.88,2.53a1.84,1.84,0,0,1-1.38.1,1.68,1.68,0,0,1-1.1-1.13,1.61,1.61,0,0,1,.94-1.91c.37-.17.87-.2,1.08-.55.32-.5,0-.68.11-1a1.88,1.88,0,0,1,1.49-1c.54,0,1.16,0,1.39.48.05.11.08.23.14.34a1.11,1.11,0,0,0,1.23.45,3.66,3.66,0,0,0,1.23-.66,2.63,2.63,0,0,1,1.27-.56,2,2,0,0,1,1.12.3A7.14,7.14,0,0,1,25.4,8.7a21.07,21.07,0,0,1,1.25,2.9A13.07,13.07,0,0,1,27.7,14.92Z"/><path class="cls-7" d="M14.79,15.6c.23.37.9.25,1.25.19A2.37,2.37,0,0,0,17.47,15s0-.07,0-.05a9.85,9.85,0,0,1-1.22.52,6,6,0,0,1-1.4.06,0,0,0,0,0,0,0Z"/><path class="cls-7" d="M18.32,19.8a6.2,6.2,0,0,0,2.32-1.57,3.26,3.26,0,0,0,1.07-1.8,0,0,0,0,0-.07,0A3.72,3.72,0,0,1,20.45,18c-.37.33-.73.66-1.12,1s-.73.41-1.07.65a.08.08,0,0,0,.06.15Z"/><path class="cls-7" d="M16.61,10.1c0,.14.09.34.27.31,0,0,0,0,0-.05s-.17-.18-.24-.28a0,0,0,0,0-.05,0Z"/><path class="cls-7" d="M18.39,9.46a.32.32,0,0,0,0,.2.1.1,0,0,0,.19,0,.31.31,0,0,0,0-.2.07.07,0,0,0-.12,0Z"/><path class="cls-7" d="M17.37,9.72a.27.27,0,0,0,.09.21c.08.09.23,0,.17-.13a.26.26,0,0,0-.17-.14.07.07,0,0,0-.08.06Z"/><path class="cls-7" d="M20.16,10.43c.07,0,.12,0,.18-.06a.34.34,0,0,0,.15-.23s0-.05-.07,0a.43.43,0,0,0-.16.14c0,.05-.11.08-.12.16a0,0,0,0,0,0,0Z"/><path class="cls-7" d="M19.39,9.9a1.13,1.13,0,0,0,.15-.27,0,0,0,0,0,0,0,.36.36,0,0,0-.28.24c0,.1.12.16.17.07Z"/><path class="cls-7" d="M17,11.58a1.5,1.5,0,0,1,.17-.21s.08-.08.09-.15a0,0,0,0,0,0,0c-.16,0-.26.23-.3.36a0,0,0,0,0,.08,0Z"/><path class="cls-7" d="M17.89,11.83a.41.41,0,0,0,.07-.36.05.05,0,0,0-.08,0c-.13.06-.14.25-.12.37s.09.06.12,0Z"/><path class="cls-7" d="M18.59,11.91c.07-.09.14-.26,0-.34a.07.07,0,0,0-.1,0c-.11.09,0,.26,0,.34Z"/><path class="cls-7" d="M19.75,11.59a.5.5,0,0,0-.06-.19c0-.07,0-.12-.12-.14a0,0,0,0,0,0,0,.18.18,0,0,0,0,.18.32.32,0,0,0,.12.18.07.07,0,0,0,.1-.06Z"/><path class="cls-7" d="M20.5,11.37c0-.1-.09-.25-.17-.29a.1.1,0,0,0-.14.14c0,.07.25.32.31.15Z"/><path class="cls-3" d="M20.75,10.8a4,4,0,0,1-4.37.18,2.35,2.35,0,0,1,3.09-1,4.52,4.52,0,0,1,.5.29Z"/><path class="cls-7" d="M18.94,10.41a.71.71,0,0,0-.69-.23.59.59,0,0,0-.45.51.61.61,0,0,0,.38.51.72.72,0,0,0,.53.05A.52.52,0,0,0,18.94,10.41Z"/><g class="cls-10"><path class="cls-7" d="M15.56,5.63a1.05,1.05,0,0,0-.23.83c0,1.24-1,1.46-1.91,1.92A1.61,1.61,0,0,0,13,10.64c0,.07.14,0,.13-.05-.18-.92-.26-1.76.86-2.19a3.47,3.47,0,0,0,1-.52c.84-.66.34-1.37.69-2.19,0-.06-.06-.1-.11-.06Z"/><path class="cls-7" d="M16.06,6.06a3,3,0,0,1-1.25,2.31,14.7,14.7,0,0,0-1.23.84,1.65,1.65,0,0,0-.07,2.09c0,.06.13,0,.12-.07-.24-1-.17-1.72.84-2.29a7,7,0,0,0,1-.65,2.39,2.39,0,0,0,.71-2.23,0,0,0,0,0-.08,0Z"/><path class="cls-7" d="M16.86,5.69a10.2,10.2,0,0,1-.64,2.5c-.4.67-1.17,1-1.72,1.47a1.73,1.73,0,0,0-.33,2.11c.09.1.24,0,.18-.14-.81-1.44,1.16-2.22,1.89-3a3.93,3.93,0,0,0,.71-2.89,0,0,0,0,0-.09,0Z"/><path class="cls-7" d="M14.81,11.53c-.12-1.21,1.69-2.22,2.35-3.09a4.44,4.44,0,0,0,.5-2.85.14.14,0,0,0-.27,0,14.89,14.89,0,0,1-.11,1.86,4.25,4.25,0,0,1-1.48,2.12c-.58.57-1.26,1.07-1.08,2,0,.05.1,0,.1,0Z"/><path class="cls-7" d="M18.18,5.56c-.22.36-.1.87-.11,1.28,0,.66-.48,1.26-.42,1.91a.08.08,0,0,0,.15,0c.47-.71.91-2.45.41-3.22Z"/><path class="cls-7" d="M19.14,5.67a1.88,1.88,0,0,0-.43,1.16,2.46,2.46,0,0,0,.15,1.61s.12,0,.11,0a6.18,6.18,0,0,1,0-1.27,2.82,2.82,0,0,1,.28-1.41,0,0,0,0,0-.07-.05Z"/><path class="cls-7" d="M20.19,5.79c-.41.18-.45.84-.5,1.22A2.7,2.7,0,0,0,20,9.17a.07.07,0,0,0,.12-.05c-.06-.26-.17-.49-.25-.74a3.29,3.29,0,0,1,0-1.29,2.54,2.54,0,0,1,.31-1.23,0,0,0,0,0,0-.06Z"/><path class="cls-7" d="M21.21,6.13c-.42-.28-.56.62-.59.85-.12.76-.25,1.92.37,2.5a.05.05,0,0,0,.09,0,5.13,5.13,0,0,1-.23-2c0-.32,0-1.21.36-1.32,0,0,0,0,0,0Z"/><path class="cls-7" d="M21.79,6.29c-.11,1.42-.42,3.37.21,4.71a1.72,1.72,0,0,0,2.32.91.07.07,0,0,0,0-.14,3.34,3.34,0,0,1-1.42-.2c-.63-.27-.78-1.19-.83-1.78-.11-1.16-.12-2.34-.21-3.51a0,0,0,0,0,0,0Z"/><path class="cls-7" d="M22.41,6.44a6,6,0,0,0,0,3.32,1.87,1.87,0,0,0,2.13,1.43s.06-.08,0-.09c-1.15-.24-1.83-.67-2-1.94a9.38,9.38,0,0,1-.14-2.71,0,0,0,0,0,0,0Z"/><path class="cls-7" d="M24.84,12.92c-.82.34-2.35,1-2.41,2.08-.07,1.25,1.41,1.08,2.13,1.67.95.78-1.05,1.92-1.47,2.28a1.81,1.81,0,0,0-.6,1.15,1.78,1.78,0,0,0,1.44,2A.05.05,0,0,0,24,22c-1.4-.86-1.41-2.23-.09-3.18.59-.43,1.2-.88,1.23-1.66s-.63-1-1.15-1.14a7.15,7.15,0,0,1-.86-.29c-.93-.42-.14-1.29.18-1.6.46-.46,1.08-.75,1.56-1.19,0,0,0,0,0,0Z"/><path class="cls-7" d="M25.46,13.17a2.42,2.42,0,0,0-2,1.49c-.24.56.41.87.82,1,1.08.44,2.26,1.38,1.11,2.6-.43.46-1,.72-1.41,1.2A1.87,1.87,0,0,0,24.34,22c.07.07.16,0,.13-.1-.46-.93-.81-1.67.1-2.57.31-.31.71-.55,1-.84a1.69,1.69,0,0,0,.49-1.66,1.88,1.88,0,0,0-1.19-1.25c-.39-.16-1.47-.28-1.14-1a2.86,2.86,0,0,1,1.72-1.29.06.06,0,0,0,0-.12Z"/><path class="cls-7" d="M25.29,13.78c-.52.14-1.13.45-.82,1.06.12.25.63.4.84.51a2,2,0,0,1,1.25,1.89c.09,1.59-1.13,1.9-1.76,3.07-.43.81.28,1.72.79,2.28.06.06.14,0,.11-.08-.38-.71-.92-1.36-.47-2.2a4.47,4.47,0,0,1,1-1,2.56,2.56,0,0,0,.73-1.82,2.43,2.43,0,0,0-.48-1.82,3.15,3.15,0,0,0-.76-.54,4.63,4.63,0,0,0-.51-.23c-.69-.27-.46-.84.1-1.14a0,0,0,0,0,0,0Z"/><path class="cls-7" d="M26.25,22a1.46,1.46,0,0,1-.11-1.25,3.33,3.33,0,0,1,.52-1c.31-.46.78-.8,1.11-1.25a2.1,2.1,0,0,0,0-2.23c0-.06-.13,0-.13,0a2.7,2.7,0,0,1-.44,2.45,8.42,8.42,0,0,0-.91,1.09,2,2,0,0,0-.14,2.28.06.06,0,0,0,.1,0,.12.12,0,0,0,0-.1Z"/><path class="cls-7" d="M27,21.62c-.15-.17,0-.85,0-1a2.16,2.16,0,0,1,.81-1.15,2.26,2.26,0,0,0,.87-1.77.05.05,0,0,0-.1,0,4.77,4.77,0,0,1-.79,1.44,4.59,4.59,0,0,0-.91,1,1.68,1.68,0,0,0,0,1.52.07.07,0,0,0,.07,0l.07,0a0,0,0,0,0,0,0Z"/></g><path class="cls-5" d="M27.34,16.9c.36,0,.59-.33.81-.62A18.44,18.44,0,0,1,30,14.14a4.3,4.3,0,0,0,.61-.7.52.52,0,0,0,.1-.28.54.54,0,0,0-.2-.34c-.55-.55-1.17-1-1.66-1.61a11.64,11.64,0,0,1-1.36-2.15c-.45-1.55-.58-2.24.34-4.82a.4.4,0,0,0-.35-.54l-2.58-.14a.38.38,0,0,0-.3.12,6,6,0,0,0-.55,1,7.53,7.53,0,0,0-.93,1.51,6.93,6.93,0,0,0,.45,5.61A11.44,11.44,0,0,0,26,15.41C26.24,15.61,27.29,16.8,27.34,16.9Z"/><path class="cls-7" d="M27.12,4.62a.33.33,0,1,0-.33-.33.33.33,0,0,0,.33.33Z"/><path class="cls-7" d="M26.67,5.75a.32.32,0,1,0-.32-.32.33.33,0,0,0,.32.32Z"/><path class="cls-7" d="M26.44,7a.31.31,0,0,0,0-.62.31.31,0,0,0,0,.62Z"/><path class="cls-7" d="M26.43,8.28a.34.34,0,0,0,0-.69.34.34,0,0,0,0,.69Z"/><path class="cls-7" d="M26.66,9.47a.32.32,0,1,0-.33-.33.33.33,0,0,0,.33.33Z"/><path class="cls-7" d="M27.08,10.53a.29.29,0,1,0-.29-.29.29.29,0,0,0,.29.29Z"/><path class="cls-7" d="M27.63,11.5a.32.32,0,0,0,0-.64.32.32,0,0,0,0,.64Z"/><path class="cls-7" d="M28.28,12.36a.34.34,0,1,0-.34-.34.35.35,0,0,0,.34.34Z"/><path class="cls-7" d="M29,13.1a.35.35,0,1,0-.35-.35.35.35,0,0,0,.35.35Z"/><path class="cls-7" d="M30.07,13.55h0a.28.28,0,0,0,0-.4h0a.31.31,0,0,0-.28-.07.29.29,0,0,0-.07.53.3.3,0,0,0,.35,0Z"/><g class="cls-11"><path class="cls-7" d="M23.14,4.56c-1.27,2.38-.69,5,.22,7.42a6.89,6.89,0,0,0,1.91,2.85c.86.76,1.44,2,2.47,2.56a.63.63,0,0,0,.74-.1l.09-.08a.5.5,0,0,0,0-.7,17.65,17.65,0,0,1-2-2.1,17.88,17.88,0,0,1-1.75-2.51,11.84,11.84,0,0,1-1.08-4.05,28.26,28.26,0,0,0,0-3.43c0-.19-.52,0-.6.15Z"/></g><path class="cls-8" d="M14.87,6.55c-.12-.18-.23-.55-.73-1.67A4.07,4.07,0,0,1,13.76,3a1.23,1.23,0,0,1,.35-.92.67.67,0,0,1,.69-.15c.24.06.46.2.69.28A1.62,1.62,0,0,0,17,2c.46-.37.72-1,1.25-1.25a1.53,1.53,0,0,1,1.84.64,1.68,1.68,0,0,0,.35.45,1.21,1.21,0,0,0,1.09.09,3.47,3.47,0,0,1,.88-.4,1.79,1.79,0,0,1,1.15.12A1.9,1.9,0,0,1,24.65,4a16.07,16.07,0,0,1-1.3,2.29c-.41.72-.54,1.14-.73,1.08a21,21,0,0,0-5.33-.75A12.08,12.08,0,0,1,14.87,6.55Z"/><path class="cls-7" d="M18.6,2.1a.84.84,0,0,1,1.13.72,2.69,2.69,0,0,1-.07,1.06q-.12.58-.28,1.16a1.61,1.61,0,0,1-.24.57h0a.42.42,0,0,1-.71-.09,5.61,5.61,0,0,1-.49-1.72,1.82,1.82,0,0,1,.29-1.42A.92.92,0,0,1,18.6,2.1Z"/><path class="cls-7" d="M23.21,3.09a.58.58,0,0,1,.26.7,1.53,1.53,0,0,1-.48.65A18.74,18.74,0,0,1,21.48,6h0a.22.22,0,0,1-.31-.28,13.27,13.27,0,0,1,1.21-2.2,1.16,1.16,0,0,1,.36-.34A.55.55,0,0,1,23.21,3.09Z"/><path class="cls-7" d="M15,2.93a.61.61,0,0,1,.43,0c.15.05.36.13.44.72s.22,2.15,0,2.19-1-1.87-1.08-2.49a.39.39,0,0,1,0-.23A.4.4,0,0,1,15,2.93Z"/><path class="cls-8" d="M17.2,22.41a.22.22,0,0,0,0-.44.22.22,0,0,0,0,.44Z"/><path class="cls-8" d="M19.44,23.65a.25.25,0,0,0,0-.51.25.25,0,0,0,0,.51Z"/><path class="cls-8" d="M22.05,22.47a.25.25,0,0,0,0-.5.25.25,0,0,0,0,.5Z"/><path class="cls-8" d="M18.51,21.41a.19.19,0,0,0,0-.38.19.19,0,0,0,0,.38Z"/><path class="cls-8" d="M19.09,21.44a.21.21,0,0,0,0-.42.21.21,0,0,0,0,.42Z"/><path class="cls-8" d="M20.33,21.34a.22.22,0,0,0,0-.44.22.22,0,0,0,0,.44Z"/><path class="cls-8" d="M21,21.18a.23.23,0,0,0,0-.45.23.23,0,0,0,0,.45Z"/><path class="cls-7" d="M20.59,25.48c-.74-.06-1.55.42-1.35,1.25s1.39.92,2,.61a1,1,0,0,0-.4-1.89,1.32,1.32,0,0,0-1.09.4.73.73,0,0,0-.17.69.88.88,0,0,0,.62.54.52.52,0,0,0,.64-.36.53.53,0,0,0-.36-.64c-.12,0,0,0,0,0a.35.35,0,0,1,.08.33s-.11.17,0,.1c-.09.09,0,0,.06,0s0,0,0,0l.09,0c-.06,0-.07,0,0,0s.16,0,0,0l.1,0s0,0,0,0-.05-.06,0,0-.08-.17-.05-.08V26.4c0,.06,0,0,0,0s0,0,0,0,0,0,0,0l-.08.09c.09-.08-.05,0-.08,0s0,0-.05,0l-.09,0h-.17s-.17,0,0,0l-.12,0c-.09,0,.09.05,0,0s-.11-.09,0,0c-.1-.09,0,.06,0,0s0-.12,0,0c0-.12,0,.1,0,0s0,.13,0,0,.05-.11,0,0c0,0,.08-.1,0,0,.09-.1-.06,0,0,0s.13-.06,0,0l.15,0c-.13,0,0,0,0,0h.2a.52.52,0,0,0,.52-.52.53.53,0,0,0-.52-.52Z"/><path class="cls-8" d="M20.59,26.89a.5.5,0,0,0,.46-.25.43.43,0,0,0,0-.45.5.5,0,0,0-.46-.25.47.47,0,0,0,0,.95Z"/><path class="cls-7" d="M18.5,26a.54.54,0,0,0-.5,0,.5.5,0,1,0,.5,0Z"/><path class="cls-7" d="M16.5,26.24h0a.34.34,0,1,0,.08-.62h0a.34.34,0,0,0-.08.61Z"/><path class="cls-7" d="M15.23,25.79a.31.31,0,0,0,0-.61.31.31,0,0,0,0,.61Z"/><path class="cls-7" d="M13.82,25.33a.27.27,0,0,0,0-.54.27.27,0,0,0,0,.54Z"/><path class="cls-7" d="M12.68,25a.2.2,0,0,0,0-.41.2.2,0,0,0,0,.41Z"/><path class="cls-7" d="M22.83,26.28a.56.56,0,0,0,.21-.21.4.4,0,0,0-.23-.57.51.51,0,0,0-.41.05.42.42,0,1,0,.43.73Z"/><path class="cls-7" d="M24.08,25.75h0a.38.38,0,1,0,0-.75h0a.38.38,0,0,0,0,.75Z"/><path class="cls-7" d="M25.64,25.23h0a.31.31,0,0,0,0-.52h0c-.2-.15-.48.05-.48.27s.28.42.48.27Z"/><path class="cls-7" d="M27,24.76h0a.33.33,0,0,0,0-.62h0a.33.33,0,1,0,0,.64Z"/><path class="cls-7" d="M28.14,24.33a.26.26,0,0,0,0-.51.26.26,0,0,0,0,.51Z"/><path class="cls-7" d="M29.29,23.88a.26.26,0,0,0,0-.51.26.26,0,0,0,0,.51Z"/><path class="cls-7" d="M30.58,23.63a.26.26,0,0,0,0-.51.26.26,0,0,0,0,.51Z"/><path class="cls-4" d="M11.22,29.07l0,.06a.84.84,0,0,1,.45.69,2.24,2.24,0,0,1-.11.84,19.47,19.47,0,0,1-1.45,3.73,1.71,1.71,0,0,1-.83-.07l-3.1-.77a.81.81,0,0,1-.4-.18.8.8,0,0,1-.12-.66,17.17,17.17,0,0,1,.78-3.44c.16-.48.41-1,.89-1.17a1.71,1.71,0,0,1,.83,0A9.69,9.69,0,0,1,11.22,29.07Z"/><path class="cls-8" d="M9.87,24a4.28,4.28,0,0,0-2.21,0,3.08,3.08,0,0,0-1.56,1.41A1.38,1.38,0,0,0,6,26.73a2.81,2.81,0,0,0,.83.69c.29.22,0,1-.21,1.3,1,.42,2.25.75,3.34,1.07s1.73.84,1.82.42a4.26,4.26,0,0,1,.43-1.35c.28-.42.64-.53,1-.85a1.4,1.4,0,0,0,.3-1.61,3,3,0,0,0-1.17-1.26A6.75,6.75,0,0,0,9.87,24Z"/><path class="cls-1" d="M8.91,24.34C8.2,24,7.35,24.87,7,25.4s-.39,1.76.28,2A.57.57,0,0,0,8,26.78c0-.22-.2-.64-.08-.89a7.45,7.45,0,0,1,1-1.3.18.18,0,0,0,0-.25Z"/><path class="cls-1" d="M10.05,24.53c-.47,0-.79.48-1.06.83a4.21,4.21,0,0,0-.77,1.81c-.11.63,1,.84,1.1.21a10.94,10.94,0,0,1,.41-1.46,6.35,6.35,0,0,0,.52-1.17.21.21,0,0,0-.2-.23Z"/><path class="cls-1" d="M10.8,25c-.37.86-.7,1.75-1.06,2.62-.26.62.75,1,1,.33a11.31,11.31,0,0,0,.52-1.76,1.41,1.41,0,0,0-.16-1.25.17.17,0,0,0-.29.06Z"/><path class="cls-1" d="M11.86,25.53a3.67,3.67,0,0,1,0,1.34,2.81,2.81,0,0,1-.67.94.55.55,0,0,0-.18.52.52.52,0,0,0,.36.41.54.54,0,0,0,.54-.11A2.82,2.82,0,0,0,12.79,27,1.59,1.59,0,0,0,12,25.43a.11.11,0,0,0-.15.1Z"/><path class="cls-1" d="M7.2,28.13c-.08,0-.13.15-.16.23a.44.44,0,0,0,0,.34.14.14,0,0,0,.24,0c.08-.13.15-.47,0-.58a.06.06,0,0,0-.06,0Z"/><path class="cls-1" d="M7.77,28.33c-.08,0-.18.06-.23.12a.45.45,0,0,0-.07.4.15.15,0,0,0,.26,0,.65.65,0,0,0,.09-.32c0-.05,0-.19-.06-.22Z"/><path class="cls-1" d="M8.21,28.49a.23.23,0,0,0-.2.15.69.69,0,0,0-.07.29c0,.14.2.24.29.1a.59.59,0,0,0,.07-.24.53.53,0,0,0,0-.22.1.1,0,0,0-.09-.08Z"/><path class="cls-1" d="M8.67,28.66c-.19,0-.24.31-.27.45s.28.21.3,0,.15-.46,0-.46Z"/><path class="cls-1" d="M9,28.87c-.11.1-.22.37-.09.49a.16.16,0,0,0,.22,0c.08-.06.07-.16.09-.24a.33.33,0,0,0,0-.25.11.11,0,0,0-.16,0Z"/><path class="cls-1" d="M9.65,29c-.19,0-.25.26-.24.41s.24.14.29,0,.12-.43,0-.43Z"/><path class="cls-1" d="M10,29.17a.41.41,0,0,0-.15.33.16.16,0,0,0,.31,0,.35.35,0,0,0-.08-.34.07.07,0,0,0-.07,0Z"/><path class="cls-1" d="M10.5,29.36a.4.4,0,0,0-.1.41.11.11,0,0,0,.15,0,.34.34,0,0,0,.12-.43.11.11,0,0,0-.17,0Z"/><path class="cls-1" d="M10.92,29.5a.39.39,0,0,0,0,.46.15.15,0,0,0,.21,0,.35.35,0,0,0,0-.46.13.13,0,0,0-.18,0Z"/><path class="cls-1" d="M11.48,29.69c-.13,0-.21.2-.22.3a.13.13,0,0,0,.23.08c0-.07.14-.35,0-.37Z"/><path class="cls-1" d="M21,29.17a.31.31,0,0,0,.27,0,.26.26,0,0,0,0-.45.31.31,0,0,0-.27,0,.27.27,0,0,0,0,.51Z"/><path class="cls-1" d="M23.85,31.14v0a.34.34,0,0,0,0-.45v0a.34.34,0,0,0-.34-.09.35.35,0,0,0-.08.64.35.35,0,0,0,.42-.05Z"/><path class="cls-1" d="M25.58,28.5l.15,0a.3.3,0,0,0,0-.58.46.46,0,0,0-.15,0,.31.31,0,0,0,0,.63Z"/><path class="cls-1" d="M28.52,30.77a.34.34,0,1,0-.34-.34.35.35,0,0,0,.34.34Z"/><path class="cls-1" d="M29.46,27.07a.36.36,0,0,0,.34.17.28.28,0,0,0,.14-.51.33.33,0,0,0-.24-.07.28.28,0,0,0-.23.13.27.27,0,0,0,0,.27Z"/><path class="cls-1" d="M31.67,29.39a.21.21,0,0,0,0-.43.21.21,0,0,0,0,.43Z"/><path class="cls-1" d="M24.93,35.29a.28.28,0,0,0,0-.57.28.28,0,0,0,0,.57Z"/><path class="cls-1" d="M26.54,33.94a.28.28,0,0,0,0-.57.28.28,0,0,0,0,.57Z"/><path class="cls-1" d="M27.11,35.66a.28.28,0,0,0,0-.57.28.28,0,0,0,0,.57Z"/><path class="cls-7" d="M15.23,13.72a.13.13,0,0,0,0-.25.13.13,0,0,0,0,.25Z"/><path class="cls-1" d="M27.37,41.94a2.44,2.44,0,0,1-.38.37.82.82,0,0,1-.73,0,3.13,3.13,0,0,0-.7-.28,1.34,1.34,0,0,0-1.12.47c-.29.3-.5.67-.77,1s-.41.43-.59.66a3,3,0,0,0-.53,2.6,3.16,3.16,0,0,0,1.73,2,.57.57,0,0,0,.25.07.64.64,0,0,0,.29-.11c.24-.13.47-.27.69-.43a4.64,4.64,0,0,0,1.62-2.05,2.22,2.22,0,0,1,.37-.71,2.69,2.69,0,0,1,.84-.47,2.61,2.61,0,0,0,1.28-1.44,1.41,1.41,0,0,0-.38-1.67,1.65,1.65,0,0,0-.62-.2A1.52,1.52,0,0,0,27.37,41.94Z"/><g class="cls-12"><path class="cls-7" d="M29.28,40.87a2.89,2.89,0,0,1-.07,2.39c-.38.71-1.33,1.08-2,1.54a3.82,3.82,0,0,0-1.35,2.86s0,.07.07,0c.48-.85.43-1.76,1.19-2.5.57-.55,1.33-.85,1.92-1.38a2.29,2.29,0,0,0,.25-3s-.06,0,0,0Z"/><path class="cls-7" d="M28.81,41.21A2.11,2.11,0,0,1,28,43.28c-.49.37-1,.69-1.53,1a2.27,2.27,0,0,0-1.24,2,.08.08,0,0,0,.15,0,3.67,3.67,0,0,1,1.49-1.9c.51-.35,1-.68,1.5-1.06a1.79,1.79,0,0,0,.56-2.2s-.09,0-.09,0Z"/><path class="cls-7" d="M28.4,41c-.26,1.31-1.1,1.82-2.15,2.51a2.77,2.77,0,0,0-1.43,1.82.08.08,0,0,0,.14.06,4.89,4.89,0,0,1,1.16-1.46c.48-.35,1-.6,1.49-1A2.14,2.14,0,0,0,28.49,41s-.08,0-.08,0Z"/><path class="cls-7" d="M27.38,41a2.65,2.65,0,0,1-1.8,2,2.4,2.4,0,0,0-1.27,1.46.07.07,0,0,0,.1.08c.36-.25.49-.67.79-1s1-.42,1.37-.76A2.08,2.08,0,0,0,27.45,41a0,0,0,0,0-.07,0Z"/><path class="cls-7" d="M26.35,41c-.17,1.55-2.32,1.82-2.54,3.46,0,.06.07.11.11,0a5.85,5.85,0,0,1,.8-1.23,8.68,8.68,0,0,1,1-.79c.41-.32,1.11-.95.69-1.5a0,0,0,0,0-.06,0Z"/></g><path class="cls-1" d="M18.91,44.06a1.27,1.27,0,0,1-.23-1,1.11,1.11,0,0,1,.36-.42,5.8,5.8,0,0,1,4.84-1.17c-.29.39-.3,1.05-.36,1a4.87,4.87,0,0,0-4.42,1.78C19,44.23,19,44.14,18.91,44.06Z"/><path class="cls-7" d="M22.27,38.52a.46.46,0,0,1,.57.07.76.76,0,0,1,.2.57,2.26,2.26,0,0,1-.13.6l-.24.76a1.73,1.73,0,0,1-.33.68s-.08.06-.12,0a.08.08,0,0,1,0,0,5.32,5.32,0,0,1-.15-2.25A.66.66,0,0,1,22.27,38.52Z"/><path class="cls-7" d="M25.24,39.84a.42.42,0,0,1,0,.5,1.23,1.23,0,0,1-.38.36,7.52,7.52,0,0,0-.87.65c-.14.13-.19,0-.19-.14a2.58,2.58,0,0,1,.3-.82,1.09,1.09,0,0,1,.7-.64A.45.45,0,0,1,25.24,39.84Z"/><path class="cls-7" d="M20.13,39.73a.55.55,0,0,0-.62.1c-.12.1-.11.46-.08.62a1.73,1.73,0,0,0,.76,1.15c.07.06.17.12.23.05a.18.18,0,0,0,0-.13c0-.34,0-.68,0-1S20.34,39.85,20.13,39.73Z"/><path class="cls-4" d="M25.66,54.74c.07.05.16,0,.2-.09.53-.75.28-1.78.41-2.69a3.6,3.6,0,0,1,.62-1.48c.39-.53.91-.91,1-1.54,0-.12-.07-.2-.19-.23-.27-.08-.68,0-.87-.19s-.08-.21-.08-.32a9,9,0,0,0,0-1.56c-.14-.62-.68-1.06-.92-1.65a7,7,0,0,1-.23-.91,3.67,3.67,0,0,0-.54-1.19A1,1,0,0,0,24,42.58a7.35,7.35,0,0,0-1.67,1,5.93,5.93,0,0,0-1.9,1.92c-.12.23-.2.47-.32.7-.33.64-.87,1.14-1.25,1.75a6.26,6.26,0,0,0-.78,2.73,5,5,0,0,0,0,1.32,3.35,3.35,0,0,0,1.14,1.94,4.44,4.44,0,0,0,2.06.95,10.62,10.62,0,0,0,2,.13h1.64C25.16,55,25.62,55,25.66,54.74Z"/><path class="cls-7" d="M21.7,54.38a.17.17,0,0,1-.05-.06l-.42-.64a4.65,4.65,0,0,1,2.19-.52,3.09,3.09,0,0,1,2.06.83l-.58.53a3.38,3.38,0,0,0-3-.17A.17.17,0,0,1,21.7,54.38Z"/><path class="cls-8" d="M20.67,49.8a1.19,1.19,0,0,0,.61.28,1.14,1.14,0,0,0,.73-.18,1.12,1.12,0,0,0,.58-.94,1.21,1.21,0,0,0-.89-1,1.09,1.09,0,0,0-1,.07,1.17,1.17,0,0,0-.37.58A1,1,0,0,0,20.67,49.8Z"/><path class="cls-8" d="M26.45,47.48c-.11.28-.25.51-.55.53a.48.48,0,0,1-.47-.57,7.47,7.47,0,0,1,.72-2,3.91,3.91,0,0,1,1.1,1.91.64.64,0,0,1-.14.43.39.39,0,0,1-.66-.29Z"/><path class="cls-9" d="M14.26,47.55a4.71,4.71,0,0,1,.15-1.77c.1-.27.24-.53.31-.81a.87.87,0,0,0-.15-.82,4.38,4.38,0,0,0-.4-.29,1.07,1.07,0,0,1-.2-1.27,2.31,2.31,0,0,1,1-.94,4.19,4.19,0,0,1,2.39-.59,2.72,2.72,0,0,1,2.08,1.21,1.68,1.68,0,0,1,.27,1,1.37,1.37,0,0,1-.35.94c-.69.62-1.32.39-1.3,1.05,0,.48.67.54.91.57.76.09,2.19,1.08.91,2.45a5.52,5.52,0,0,1-1.09.84.78.78,0,0,0-.27.24c-.19.32.15.72.5.83a5.08,5.08,0,0,1,1.07.27,1.42,1.42,0,0,1,.59,1.16c0,.45,0,.9,0,1.35a2.34,2.34,0,0,0,.48,1.13,1.14,1.14,0,0,0,.42.35,1.46,1.46,0,0,0,.49.1q.89.07,1.78.07a2,2,0,0,0,.91-.15c.91-.46,1-2,1.88-2.53a1.84,1.84,0,0,1,1.38-.1,1.68,1.68,0,0,1,1.1,1.13,1.61,1.61,0,0,1-.94,1.91c-.37.17-.87.21-1.08.55-.32.5,0,.68-.11,1a1.88,1.88,0,0,1-1.49,1c-.54,0-1.16,0-1.39-.48-.05-.11-.08-.23-.14-.34a1.11,1.11,0,0,0-1.23-.45,3.67,3.67,0,0,0-1.23.66,2.64,2.64,0,0,1-1.27.56,2,2,0,0,1-1.12-.3,7.16,7.16,0,0,1-2.58-3.31,21.18,21.18,0,0,1-1.25-2.9A13.09,13.09,0,0,1,14.26,47.55Z"/><path class="cls-7" d="M27.17,46.87c-.23-.37-.9-.25-1.25-.19a2.36,2.36,0,0,0-1.43.75,0,0,0,0,0,0,.05A9.94,9.94,0,0,1,25.75,47a6,6,0,0,1,1.4-.06,0,0,0,0,0,0,0Z"/><path class="cls-7" d="M23.65,42.67a6.19,6.19,0,0,0-2.32,1.57A3.26,3.26,0,0,0,20.25,46a0,0,0,0,0,.07,0,3.73,3.73,0,0,1,1.19-1.64c.37-.33.73-.66,1.12-1s.73-.41,1.07-.65a.08.08,0,0,0-.06-.15Z"/><path class="cls-7" d="M25.35,52.37c0-.14-.09-.34-.27-.31,0,0,0,0,0,.05s.17.18.24.28a0,0,0,0,0,.05,0Z"/><path class="cls-7" d="M23.57,53a.31.31,0,0,0,0-.2.1.1,0,0,0-.19,0,.31.31,0,0,0,0,.2.07.07,0,0,0,.12,0Z"/><path class="cls-7" d="M24.6,52.74a.27.27,0,0,0-.09-.21c-.08-.09-.23,0-.17.13a.27.27,0,0,0,.17.14.07.07,0,0,0,.08-.06Z"/><path class="cls-7" d="M21.8,52c-.07,0-.12,0-.18.06a.33.33,0,0,0-.14.23s0,.05.07,0a.41.41,0,0,0,.16-.14c0-.05.11-.08.12-.16a0,0,0,0,0,0,0Z"/><path class="cls-7" d="M22.57,52.57a1.09,1.09,0,0,0-.15.27,0,0,0,0,0,0,0,.35.35,0,0,0,.28-.24c0-.1-.12-.16-.17-.07Z"/><path class="cls-7" d="M24.92,50.89a1.38,1.38,0,0,1-.17.2s-.08.08-.09.15a0,0,0,0,0,0,0c.16,0,.26-.23.3-.36a0,0,0,0,0-.08,0Z"/><path class="cls-7" d="M24.08,50.64A.41.41,0,0,0,24,51a.05.05,0,0,0,.08,0c.13-.06.14-.25.12-.37s-.09-.06-.12,0Z"/><path class="cls-7" d="M23.37,50.56c-.07.09-.14.26,0,.34a.07.07,0,0,0,.1,0c.11-.09,0-.26,0-.34Z"/><path class="cls-7" d="M22.21,50.88a.52.52,0,0,0,.06.19c0,.07,0,.12.12.13a0,0,0,0,0,0,0c0-.07,0-.11,0-.18a.32.32,0,0,0-.12-.18.07.07,0,0,0-.1.06Z"/><path class="cls-7" d="M21.46,51.1c0,.1.09.25.17.29a.1.1,0,0,0,.14-.14c0-.07-.25-.32-.31-.15Z"/><path class="cls-3" d="M21.21,51.67a4,4,0,0,1,4.37-.18,2.35,2.35,0,0,1-3.09,1,4.47,4.47,0,0,1-.5-.29Z"/><path class="cls-7" d="M23,52.06a.72.72,0,0,0,.69.23.59.59,0,0,0,.45-.51.61.61,0,0,0-.38-.51.73.73,0,0,0-.53-.05A.52.52,0,0,0,23,52.06Z"/><g class="cls-13"><path class="cls-7" d="M26.4,56.84a1,1,0,0,0,.23-.83c0-1.24,1-1.46,1.91-1.92A1.61,1.61,0,0,0,29,51.83c0-.07-.14,0-.12.05.18.92.26,1.76-.86,2.19a3.42,3.42,0,0,0-1,.52c-.83.66-.34,1.38-.69,2.19,0,.06.06.1.11.06Z"/><path class="cls-7" d="M25.9,56.41a3,3,0,0,1,1.25-2.3,14.6,14.6,0,0,0,1.22-.84,1.65,1.65,0,0,0,.07-2.09c0-.06-.13,0-.12.07.24,1,.17,1.72-.84,2.29a7,7,0,0,0-1,.65,2.39,2.39,0,0,0-.71,2.22,0,0,0,0,0,.08,0Z"/><path class="cls-7" d="M25.11,56.78a10.16,10.16,0,0,1,.64-2.5c.4-.67,1.17-1,1.72-1.47a1.73,1.73,0,0,0,.33-2.1c-.09-.1-.24,0-.18.14.81,1.44-1.16,2.22-1.89,3A3.93,3.93,0,0,0,25,56.77a0,0,0,0,0,.09,0Z"/><path class="cls-7" d="M27.16,50.93c.12,1.21-1.69,2.22-2.35,3.09a4.44,4.44,0,0,0-.5,2.85.14.14,0,0,0,.27,0A15.07,15.07,0,0,1,24.69,55a4.24,4.24,0,0,1,1.48-2.12c.58-.57,1.26-1.07,1.08-2,0-.05-.1,0-.1,0Z"/><path class="cls-7" d="M23.78,56.9a2.68,2.68,0,0,0,.11-1.28c0-.66.48-1.26.42-1.9a.08.08,0,0,0-.15,0c-.47.71-.91,2.45-.41,3.22Z"/><path class="cls-7" d="M22.82,56.8a1.87,1.87,0,0,0,.43-1.16A2.45,2.45,0,0,0,23.1,54s-.12,0-.11,0a6.19,6.19,0,0,1,0,1.28,2.82,2.82,0,0,1-.28,1.41,0,0,0,0,0,.07.05Z"/><path class="cls-7" d="M21.78,56.67c.41-.18.44-.84.5-1.22a2.7,2.7,0,0,0-.34-2.15.07.07,0,0,0-.12.05c.06.26.17.49.25.74a3.25,3.25,0,0,1,0,1.29,2.56,2.56,0,0,1-.31,1.23,0,0,0,0,0,0,.06Z"/><path class="cls-7" d="M20.75,56.34c.42.28.56-.62.59-.85.12-.76.25-1.92-.37-2.5,0,0-.1,0-.09,0a5.1,5.1,0,0,1,.23,2c0,.32,0,1.21-.36,1.32a0,0,0,0,0,0,0Z"/><path class="cls-7" d="M20.18,56.17c.11-1.41.42-3.36-.21-4.7a1.72,1.72,0,0,0-2.32-.91c-.07,0,0,.14,0,.13a3.32,3.32,0,0,1,1.42.2c.63.27.77,1.19.83,1.78.11,1.16.12,2.34.21,3.5a0,0,0,0,0,0,0Z"/><path class="cls-7" d="M19.55,56a6,6,0,0,0,0-3.32,1.87,1.87,0,0,0-2.13-1.43s-.07.08,0,.09c1.15.24,1.83.68,2,1.94A9.32,9.32,0,0,1,19.52,56a0,0,0,0,0,0,0Z"/><path class="cls-7" d="M17.12,49.54c.82-.34,2.35-1,2.41-2.08.07-1.25-1.41-1.08-2.13-1.67-.95-.78,1.06-1.92,1.47-2.28a1.82,1.82,0,0,0,.59-1.15,1.78,1.78,0,0,0-1.44-2,.05.05,0,0,0,0,.09c1.4.86,1.41,2.23.09,3.18-.59.43-1.2.88-1.23,1.66s.63,1,1.15,1.14a7.18,7.18,0,0,1,.86.29c.93.42.14,1.29-.18,1.6s-1.08.75-1.56,1.19c0,0,0,0,0,0Z"/><path class="cls-7" d="M16.5,49.29a2.42,2.42,0,0,0,2-1.49c.24-.56-.41-.87-.82-1-1.08-.44-2.25-1.38-1.11-2.6.43-.46,1-.72,1.41-1.2a1.87,1.87,0,0,0-.38-2.54c-.07-.07-.16,0-.13.1.46.93.81,1.67-.1,2.57-.31.31-.71.55-1,.84a1.69,1.69,0,0,0-.49,1.66,1.87,1.87,0,0,0,1.19,1.25c.39.16,1.47.28,1.14,1a2.86,2.86,0,0,1-1.72,1.29.06.06,0,0,0,0,.13Z"/><path class="cls-7" d="M16.67,48.69c.52-.14,1.13-.45.82-1.06-.12-.25-.62-.4-.84-.51a2,2,0,0,1-1.25-1.89c-.09-1.59,1.14-1.9,1.76-3.07.43-.81-.28-1.72-.79-2.28-.05-.06-.14,0-.11.08.38.71.92,1.36.47,2.2a4.47,4.47,0,0,1-1,1A2.57,2.57,0,0,0,15,44.94a2.43,2.43,0,0,0,.48,1.82,3.17,3.17,0,0,0,.76.54,4.72,4.72,0,0,0,.51.23c.69.27.45.84-.1,1.14a0,0,0,0,0,0,0Z"/><path class="cls-7" d="M15.71,40.45a1.45,1.45,0,0,1,.11,1.25,3.3,3.3,0,0,1-.52,1c-.31.46-.78.8-1.11,1.25a2.1,2.1,0,0,0,0,2.23c0,.06.14,0,.13,0a2.69,2.69,0,0,1,.44-2.45,8.55,8.55,0,0,0,.91-1.09,2,2,0,0,0,.13-2.28.06.06,0,0,0-.1,0,.11.11,0,0,0,0,.09Z"/><path class="cls-7" d="M15,40.85c.15.17,0,.85,0,1A2.18,2.18,0,0,1,14.15,43a2.25,2.25,0,0,0-.86,1.77.05.05,0,0,0,.1,0,4.73,4.73,0,0,1,.79-1.45,4.59,4.59,0,0,0,.91-1,1.68,1.68,0,0,0,0-1.52.07.07,0,0,0-.07,0H15a0,0,0,0,0,0,0Z"/></g><path class="cls-5" d="M14.62,45.56c-.36,0-.59.33-.81.62A18.31,18.31,0,0,1,12,48.32a4.23,4.23,0,0,0-.6.7.51.51,0,0,0-.1.28.53.53,0,0,0,.19.34c.55.55,1.17,1,1.66,1.61a11.72,11.72,0,0,1,1.36,2.15c.45,1.55.58,2.24-.34,4.82a.4.4,0,0,0,.35.54l2.58.14a.39.39,0,0,0,.3-.12,6,6,0,0,0,.54-1,7.55,7.55,0,0,0,.93-1.51,6.93,6.93,0,0,0-.45-5.61,11.43,11.43,0,0,0-2.5-3.62C15.72,46.85,14.67,45.67,14.62,45.56Z"/><path class="cls-7" d="M14.85,57.85a.33.33,0,1,0,.33.33.33.33,0,0,0-.33-.33Z"/><path class="cls-7" d="M15.29,56.72a.33.33,0,1,0,.32.32.33.33,0,0,0-.32-.32Z"/><path class="cls-7" d="M15.52,55.5a.31.31,0,0,0,0,.63.31.31,0,0,0,0-.62Z"/><path class="cls-7" d="M15.53,54.19a.34.34,0,0,0,0,.69.34.34,0,0,0,0-.69Z"/><path class="cls-7" d="M15.31,53a.33.33,0,1,0,.32.33.33.33,0,0,0-.32-.33Z"/><path class="cls-7" d="M14.88,51.93a.29.29,0,1,0,.29.29.29.29,0,0,0-.29-.29Z"/><path class="cls-7" d="M14.33,51a.32.32,0,0,0,0,.64.32.32,0,0,0,0-.64Z"/><path class="cls-7" d="M13.69,50.1a.34.34,0,1,0,.34.34.35.35,0,0,0-.34-.34Z"/><path class="cls-7" d="M12.93,49.37a.35.35,0,1,0,.35.35.35.35,0,0,0-.35-.35Z"/><path class="cls-7" d="M11.89,48.92h0a.28.28,0,0,0,0,.4h0a.31.31,0,0,0,.28.08.3.3,0,0,0,.21-.28.29.29,0,0,0-.14-.25.3.3,0,0,0-.35,0Z"/><g class="cls-14"><path class="cls-7" d="M18.82,57.91c1.27-2.38.69-5-.22-7.42a6.91,6.91,0,0,0-1.91-2.85c-.86-.76-1.44-2-2.48-2.55a.63.63,0,0,0-.74.09l-.09.08a.49.49,0,0,0,0,.7,17.67,17.67,0,0,1,2,2.1,17.89,17.89,0,0,1,1.75,2.51,11.8,11.8,0,0,1,1.08,4.05,28.31,28.31,0,0,0,0,3.44c0,.19.52,0,.6-.15Z"/></g><path class="cls-8" d="M27.09,55.92c.12.18.23.55.73,1.67a4.07,4.07,0,0,1,.38,1.86,1.23,1.23,0,0,1-.35.92.67.67,0,0,1-.69.15c-.24-.06-.46-.2-.69-.28a1.62,1.62,0,0,0-1.5.26c-.46.37-.72,1-1.25,1.25a1.53,1.53,0,0,1-1.84-.63,1.72,1.72,0,0,0-.35-.46,1.22,1.22,0,0,0-1.09-.09,3.47,3.47,0,0,1-.88.4,1.8,1.8,0,0,1-1.15-.12,1.9,1.9,0,0,1-1.1-2.36,16.24,16.24,0,0,1,1.3-2.29c.41-.72.54-1.14.73-1.09a20.89,20.89,0,0,0,5.33.75A12,12,0,0,1,27.09,55.92Z"/><path class="cls-7" d="M23.36,60.37a.84.84,0,0,1-1.13-.72,2.65,2.65,0,0,1,.07-1.06q.12-.58.27-1.16a1.62,1.62,0,0,1,.24-.57h0a.42.42,0,0,1,.71.09A5.58,5.58,0,0,1,24,58.68a1.83,1.83,0,0,1-.29,1.42A.91.91,0,0,1,23.36,60.37Z"/><path class="cls-7" d="M18.75,59.38a.59.59,0,0,1-.26-.7A1.53,1.53,0,0,1,19,58a18.56,18.56,0,0,1,1.51-1.51h0a.22.22,0,0,1,.31.28A13.11,13.11,0,0,1,19.59,59a1.16,1.16,0,0,1-.36.34A.56.56,0,0,1,18.75,59.38Z"/><path class="cls-7" d="M26.94,59.54a.61.61,0,0,1-.43,0c-.15,0-.36-.13-.44-.72s-.22-2.15,0-2.19,1,1.87,1.08,2.49a.32.32,0,0,1-.23.38Z"/><path class="cls-8" d="M24.76,40.06a.22.22,0,0,0,0,.44.22.22,0,0,0,0-.44Z"/><path class="cls-8" d="M22.52,38.82a.25.25,0,0,0,0,.51.25.25,0,0,0,0-.51Z"/><path class="cls-8" d="M19.91,40a.25.25,0,0,0,0,.5.25.25,0,0,0,0-.5Z"/><path class="cls-8" d="M23.45,41.05a.19.19,0,0,0,0,.38.19.19,0,0,0,0-.37Z"/><path class="cls-8" d="M22.87,41a.21.21,0,0,0,0,.42.21.21,0,0,0,0-.42Z"/><path class="cls-8" d="M21.63,41.12a.22.22,0,0,0,0,.45.22.22,0,0,0,0-.45Z"/><path class="cls-8" d="M21,41.29a.23.23,0,0,0,0,.45.23.23,0,0,0,0-.45Z"/><path class="cls-7" d="M21.37,37c.74.06,1.55-.42,1.35-1.25s-1.39-.92-2-.61a1,1,0,0,0,.4,1.89,1.32,1.32,0,0,0,1.09-.4.73.73,0,0,0,.18-.69.89.89,0,0,0-.62-.54.52.52,0,0,0-.28,1c.12,0,0,0,0,0a.35.35,0,0,1-.08-.33s.11-.17,0-.1c.09-.09,0,0-.06,0s0,0,0,0l-.09,0c.06,0,.07,0,0,0s-.16,0,0,0l-.1,0s0,0,0,0,.06.06,0,0,.08.17.05.08v.07c0-.06,0,0,0,0s0,0,0,0,0,0,0,0l.09-.09c-.09.08,0,0,.08,0s0,0,.05,0l.1,0h.17s.17,0,0,0l.12,0c.09,0-.09-.05,0,0s.11.09,0,0c.1.09,0-.06,0,0s0,.12,0,0c0,.13,0-.1,0,0s0-.13,0,0-.05.11,0,0c0,0-.08.1,0,0-.09.1.06,0,0,0s-.13.06,0,0l-.15,0c.13,0,0,0,0,0h-.2a.52.52,0,0,0-.52.52.53.53,0,0,0,.52.52Z"/><path class="cls-8" d="M21.37,35.58a.5.5,0,0,0-.46.25.43.43,0,0,0,0,.45.49.49,0,0,0,.46.25.47.47,0,1,0,0-.95Z"/><path class="cls-7" d="M23.46,36.45a.54.54,0,0,0,.5,0,.5.5,0,1,0-.5,0Z"/><path class="cls-7" d="M25.46,36.22h0a.34.34,0,1,0-.08.62h0a.34.34,0,0,0,.08-.61Z"/><path class="cls-7" d="M26.73,36.68a.31.31,0,0,0,0,.61.31.31,0,0,0,0-.61Z"/><path class="cls-7" d="M28.14,37.13a.27.27,0,0,0,0,.54.27.27,0,0,0,0-.54Z"/><path class="cls-7" d="M29.29,37.51a.21.21,0,0,0,0,.41.21.21,0,0,0,0-.41Z"/><path class="cls-7" d="M19.13,36.18a.57.57,0,0,0-.21.21.4.4,0,0,0,.23.57.5.5,0,0,0,.4-.05.42.42,0,0,0-.43-.73Z"/><path class="cls-7" d="M17.89,36.72h0a.38.38,0,1,0,0,.75h0a.38.38,0,1,0,0-.75Z"/><path class="cls-7" d="M16.32,37.23h0a.31.31,0,0,0,0,.52h0c.2.15.48-.05.48-.27s-.28-.42-.48-.27Z"/><path class="cls-7" d="M14.94,37.71h0a.32.32,0,0,0,0,.62h0a.33.33,0,1,0,0-.64Z"/><path class="cls-7" d="M13.83,38.14a.26.26,0,0,0,0,.51.26.26,0,0,0,0-.51Z"/><path class="cls-7" d="M12.68,38.59a.26.26,0,0,0,0,.51.26.26,0,0,0,0-.51Z"/><path class="cls-7" d="M11.38,38.84a.26.26,0,0,0,0,.51.26.26,0,0,0,0-.51Z"/><path class="cls-4" d="M30.74,33.4l0-.06a.84.84,0,0,1-.45-.69,2.24,2.24,0,0,1,.11-.84,19.48,19.48,0,0,1,1.45-3.74,1.71,1.71,0,0,1,.83.07l3.1.77a.61.61,0,0,1,.52.84,17.24,17.24,0,0,1-.78,3.44c-.16.48-.41,1-.9,1.17a1.72,1.72,0,0,1-.83,0A9.65,9.65,0,0,1,30.74,33.4Z"/><path class="cls-8" d="M32.09,38.44a4.28,4.28,0,0,0,2.21,0A3.07,3.07,0,0,0,35.86,37,1.38,1.38,0,0,0,36,35.74a2.79,2.79,0,0,0-.83-.69c-.29-.22,0-1,.21-1.3-1-.42-2.25-.75-3.34-1.07s-1.73-.84-1.82-.43a4.29,4.29,0,0,1-.43,1.35c-.28.42-.64.53-1,.85a1.41,1.41,0,0,0-.3,1.61,3,3,0,0,0,1.17,1.26A6.77,6.77,0,0,0,32.09,38.44Z"/><path class="cls-1" d="M33.06,38.13c.71.36,1.55-.53,1.91-1.06s.39-1.76-.28-2a.57.57,0,0,0-.73.65c0,.22.2.64.08.89a7.46,7.46,0,0,1-1,1.3.18.18,0,0,0,0,.25Z"/><path class="cls-1" d="M31.91,37.94c.47,0,.79-.48,1.06-.83a4.2,4.2,0,0,0,.77-1.81c.11-.62-1-.83-1.1-.21a11,11,0,0,1-.41,1.46,6.21,6.21,0,0,0-.52,1.17.21.21,0,0,0,.2.23Z"/><path class="cls-1" d="M31.16,37.5c.37-.86.7-1.75,1.06-2.62.26-.62-.75-1-1-.33a11.3,11.3,0,0,0-.52,1.76,1.41,1.41,0,0,0,.16,1.25.17.17,0,0,0,.29-.06Z"/><path class="cls-1" d="M30.1,36.94a3.66,3.66,0,0,1,0-1.34,2.83,2.83,0,0,1,.67-.94.55.55,0,0,0,.18-.52.52.52,0,0,0-.36-.41.54.54,0,0,0-.54.11,2.82,2.82,0,0,0-.88,1.58A1.59,1.59,0,0,0,30,37a.11.11,0,0,0,.14-.1Z"/><path class="cls-1" d="M34.76,34.33c.08,0,.13-.15.16-.23a.45.45,0,0,0,0-.34.14.14,0,0,0-.24,0c-.08.13-.15.47,0,.58a.06.06,0,0,0,.06,0Z"/><path class="cls-1" d="M34.19,34.13c.08,0,.19-.06.23-.12a.45.45,0,0,0,.06-.4.15.15,0,0,0-.26,0,.62.62,0,0,0-.09.32c0,.05,0,.19.06.21Z"/><path class="cls-1" d="M33.75,34a.23.23,0,0,0,.21-.15.69.69,0,0,0,.07-.29.16.16,0,0,0-.29-.1.61.61,0,0,0-.07.23.57.57,0,0,0,0,.22.1.1,0,0,0,.09.08Z"/><path class="cls-1" d="M33.29,33.8c.19,0,.24-.31.27-.45s-.28-.21-.3,0-.15.46,0,.46Z"/><path class="cls-1" d="M32.91,33.6c.11-.1.22-.37.1-.49a.16.16,0,0,0-.22,0c-.08.06-.08.16-.09.24a.33.33,0,0,0,0,.25.12.12,0,0,0,.16,0Z"/><path class="cls-1" d="M32.31,33.47c.18,0,.25-.26.24-.41s-.24-.14-.29,0-.12.43,0,.43Z"/><path class="cls-1" d="M31.93,33.3a.4.4,0,0,0,.15-.33.16.16,0,0,0-.31,0,.35.35,0,0,0,.08.34.07.07,0,0,0,.07,0Z"/><path class="cls-1" d="M31.46,33.11a.4.4,0,0,0,.1-.41.11.11,0,0,0-.15,0,.33.33,0,0,0-.12.43.11.11,0,0,0,.17,0Z"/><path class="cls-1" d="M31,33a.39.39,0,0,0,0-.46.15.15,0,0,0-.21,0,.35.35,0,0,0,0,.46A.13.13,0,0,0,31,33Z"/><path class="cls-1" d="M30.48,32.77c.13,0,.21-.2.22-.3a.13.13,0,0,0-.23-.08c0,.07-.14.35,0,.37Z"/><path class="cls-1" d="M21,33.3a.31.31,0,0,0-.27,0,.26.26,0,0,0,0,.45.31.31,0,0,0,.27,0,.27.27,0,0,0,0-.51Z"/><path class="cls-1" d="M18.11,31.33l0,0a.34.34,0,0,0,0,.45l0,0a.34.34,0,0,0,.34.09.35.35,0,0,0,.08-.64.35.35,0,0,0-.42.05Z"/><path class="cls-1" d="M16.38,34a.45.45,0,0,0-.15,0,.3.3,0,0,0,0,.58l.15,0a.31.31,0,0,0,0-.62Z"/><path class="cls-1" d="M13.45,31.7a.34.34,0,1,0,.34.34.35.35,0,0,0-.34-.34Z"/><path class="cls-1" d="M12.5,35.39a.36.36,0,0,0-.33-.17.28.28,0,0,0-.14.51.34.34,0,0,0,.24.07.28.28,0,0,0,.23-.13.27.27,0,0,0,0-.27Z"/><path class="cls-1" d="M9.82,32.54a.21.21,0,0,0,0,.43.21.21,0,0,0,0-.43Z"/><path class="cls-1" d="M15.94,28.79a.28.28,0,0,0,0,.57.28.28,0,0,0,0-.57Z"/><path class="cls-1" d="M15,27.14a.28.28,0,0,0,0,.57.28.28,0,0,0,0-.57Z"/><path class="cls-1" d="M13.73,29a.28.28,0,0,0,0,.57.28.28,0,0,0,0-.57Z"/><path class="cls-7" d="M26.73,48.74a.13.13,0,0,0,0,.25.13.13,0,0,0,0-.25Z"/><path class="cls-15" d="M5.63,36.46c-.4-1.43-.53-3.32,0-3.62a23.74,23.74,0,0,1,5.84-2c3-.86,5.4-1.32,8.45-2.09,1.65-.41,3.12-1,4.42-1.46a45.36,45.36,0,0,0,7.76-3.79c.94-.53,4.24,2.85,4.35,5.4a.7.7,0,0,1,0,.34.76.76,0,0,1-.41.31,79.85,79.85,0,0,1-13.3,4.19c-1.27.32-3.65,1.1-4.91,1.46a36,36,0,0,0-7.88,3.07,2.81,2.81,0,0,1-1,.42,2.54,2.54,0,0,1-1.33-.35A3.23,3.23,0,0,1,5.63,36.46Z"/><path class="cls-8" d="M21.66,29.82c.33-.27.78-.54,1.16-.35a1.19,1.19,0,0,1,.61.94,2.1,2.1,0,0,1-.38.88,12.5,12.5,0,0,1-1.63,1.63.38.38,0,0,1-.22.14A.37.37,0,0,1,21,33a4,4,0,0,1-1.47-1.29,2.19,2.19,0,0,1-.43-1.18,1.16,1.16,0,0,1,.58-1.06,1,1,0,0,1,1,.08,1.28,1.28,0,0,1,.54.86A1.1,1.1,0,0,1,21.66,29.82Z"/><path class="cls-7" d="M21.19,31.57a.23.23,0,0,0,0-.46.23.23,0,0,0,0,.46Z"/><path class="cls-7" d="M18,30.69c-.84-.28-2.15-.92-2.86,0a.23.23,0,0,0,.16.4c.42,0,.81-.15,1.24-.16s.95,0,1.43.05c.15,0,.16-.21,0-.25Z"/><path class="cls-7" d="M17.75,31.82c-.86.2-1.71.36-2.55.63-.55.17-1.3.36-1.52.95,0,.11.06.2.16.21a4.93,4.93,0,0,0,1.79-.47c.76-.25,1.47-.62,2.25-.85a.24.24,0,0,0-.13-.46Z"/><path class="cls-7" d="M25.12,30c.85-.21,1.7-.39,2.54-.67.54-.18,1.3-.38,1.5-1a.16.16,0,0,0-.16-.21,4.92,4.92,0,0,0-1.77.5c-.76.27-1.46.65-2.24.89a.24.24,0,0,0,.13.46Z"/><path class="cls-7" d="M18.45,33.07a3.86,3.86,0,0,1-1.35.79c-.42.16-1,.3-1.13.76a.24.24,0,0,0,.17.29c.48.19,1.12-.18,1.53-.4a2.43,2.43,0,0,0,1.11-1.19c.1-.21-.15-.43-.33-.26Z"/><path class="cls-7" d="M24.36,28.93c.37-.22.74-.45,1.12-.66a2.77,2.77,0,0,0,1.05-.72.15.15,0,0,0-.09-.22,1.93,1.93,0,0,0-1.3.35,1.75,1.75,0,0,0-.95,1.11.12.12,0,0,0,.17.14Z"/><path class="cls-7" d="M25.09,31c.24.43,1,.42,1.44.44a2.46,2.46,0,0,0,1.78-.54.16.16,0,0,0,0-.24c-.51-.27-1.2.13-1.75.16s-1.11-.28-1.44.14a0,0,0,0,0,0,0Z"/><path class="cls-1" d="M13,34a.41.41,0,0,0,0-.82A.41.41,0,0,0,13,34Z"/><path class="cls-1" d="M11.7,34.37a.4.4,0,0,0,0-.8.4.4,0,0,0,0,.8Z"/><path class="cls-1" d="M10.5,34.73a.32.32,0,0,0,0-.63.32.32,0,0,0,0,.63Z"/><path class="cls-1" d="M9.45,35.08a.3.3,0,0,0,0-.59.3.3,0,0,0,0,.59Z"/><path class="cls-1" d="M8.47,35.44a.27.27,0,0,0,0-.55.27.27,0,0,0,0,.55Z"/><path class="cls-1" d="M30.25,28.23a.42.42,0,0,1,0-.05.36.36,0,0,0-.72,0v.05c0,.47.77.47.73,0Z"/><path class="cls-1" d="M31,28.1a.36.36,0,0,0,0-.72.36.36,0,0,0,0,.72Z"/><path class="cls-1" d="M32.19,27.48l0,0a.25.25,0,1,0-.44,0l0,0a.24.24,0,0,0,.4,0Z"/><path class="cls-1" d="M33,27.34a.27.27,0,0,0,0-.55.27.27,0,0,0,0,.55Z"/><path class="cls-1" d="M34,26.91a.22.22,0,0,0,0-.44.22.22,0,0,0,0,.44Z"/><path class="cls-9" d="M5.75,12.71c.17-.15.35-.27.53-.4a3.23,3.23,0,0,0,.57-.46,1.43,1.43,0,0,0,.26-.5,1.2,1.2,0,0,0,0-.78.94.94,0,0,0-1.74.16,0,0,0,0,1,0,0h0a0,0,0,0,1,0,0,.94.94,0,0,0-1.74-.16,1.2,1.2,0,0,0,0,.78,1.41,1.41,0,0,0,.26.5,3.22,3.22,0,0,0,.57.46c.18.13.37.25.53.4s.46.48.46.48S5.67,12.79,5.75,12.71Z"/><path class="cls-9" d="M35.22,49.65c-.17.15-.35.27-.53.4a3.14,3.14,0,0,0-.57.46,1.41,1.41,0,0,0-.26.5,1.2,1.2,0,0,0,0,.78.94.94,0,0,0,1.74-.16,0,0,0,0,1,0,0h0a0,0,0,0,1,0,0,.94.94,0,0,0,1.74.16,1.2,1.2,0,0,0,0-.78,1.39,1.39,0,0,0-.26-.5,3.17,3.17,0,0,0-.57-.46c-.18-.13-.37-.25-.53-.4s-.46-.48-.46-.48S35.3,49.57,35.22,49.65Z"/><path class="cls-9" d="M5,7.93a2,2,0,0,1-1.74-.84A3.43,3.43,0,0,1,2.59,5a3.47,3.47,0,0,1,.65-2.19A2.05,2.05,0,0,1,5,1.94a2.09,2.09,0,0,1,1.69.81,3.26,3.26,0,0,1,.66,2.14,3.69,3.69,0,0,1-.5,1.93,2.1,2.1,0,0,1-1.27,1v.08q0,.63.77.63A3.68,3.68,0,0,0,7,8.51v.58a2,2,0,0,1-.59.09,1.62,1.62,0,0,1-1-.28A1.27,1.27,0,0,1,5,7.93Zm0-.58a1.32,1.32,0,0,0,1.18-.69,3.32,3.32,0,0,0,.42-1.77,3,3,0,0,0-.44-1.73,1.37,1.37,0,0,0-1.17-.62,1.34,1.34,0,0,0-1.17.67A3.19,3.19,0,0,0,3.34,5a3.07,3.07,0,0,0,.44,1.72A1.34,1.34,0,0,0,5,7.34Z"/><path class="cls-9" d="M36,54.36a2,2,0,0,1,1.74.85,3.42,3.42,0,0,1,.63,2.11,3.48,3.48,0,0,1-.65,2.19,2.05,2.05,0,0,1-1.71.85,2.1,2.1,0,0,1-1.7-.81,3.26,3.26,0,0,1-.66-2.14,3.68,3.68,0,0,1,.5-1.93,2.1,2.1,0,0,1,1.27-1v-.08c0-.42-.26-.63-.77-.63a3.79,3.79,0,0,0-.66.05V53.2a2,2,0,0,1,.59-.09,1.62,1.62,0,0,1,1,.28A1.27,1.27,0,0,1,36,54.36Zm0,.59a1.32,1.32,0,0,0-1.18.69,3.31,3.31,0,0,0-.43,1.77,2.94,2.94,0,0,0,.44,1.73,1.36,1.36,0,0,0,1.17.62,1.33,1.33,0,0,0,1.17-.67,3.18,3.18,0,0,0,.43-1.75,3.06,3.06,0,0,0-.44-1.72A1.34,1.34,0,0,0,36,54.95Z"/><path class="cls-9" d="M13.47,59.11H6.19a3.1,3.1,0,0,1-3-3.19V15.66h.19V55.92a2.92,2.92,0,0,0,2.82,3h7.28Z"/><rect class="cls-9" x="28.95" y="58.93" width="3.83" height="0.19"/><path class="cls-9" d="M37.74,46.82h-.19V6.36a2.92,2.92,0,0,0-2.82-3H28.95V3.17h5.79a3.1,3.1,0,0,1,3,3.19Z"/><rect class="cls-9" x="8.45" y="3.17" width="4.43" height="0.19"/></g></g></svg>