<svg xmlns="http://www.w3.org/2000/svg" xmlns:xlink="http://www.w3.org/1999/xlink" viewBox="0 0 40.93 62.29"><defs><style>.cls-1{fill:none;}.cls-2{fill:#fff;}.cls-3{fill:#222272;}.cls-4{fill:#fcc07e;}.cls-5{fill:#f70032;}.cls-6{fill:#990028;}.cls-7{fill:#141247;}.cls-8{fill:#0c0a35;}.cls-9{clip-path:url(#clip-path);}.cls-10{clip-path:url(#clip-path-2);}.cls-11{fill:#ffd6a1;}.cls-12{clip-path:url(#clip-path-3);}.cls-13{clip-path:url(#clip-path-4);}.cls-14{fill:#191956;}</style><clipPath id="clip-path"><path class="cls-1" d="M25.8,55a15.19,15.19,0,0,0,.29-2.12,6.51,6.51,0,0,0,0-1.21c0-.36-.13-.71-.18-1.06a11.11,11.11,0,0,1,0-2.22,77.64,77.64,0,0,0,0-7.86A11.13,11.13,0,0,1,26,38.69a9.2,9.2,0,0,1,.36-2c.22-.61.59-1.46,1.17-1.51l.05-.06c0-.1-.29-.18-.47-.16a3.12,3.12,0,0,0-3.17,2.57,21.44,21.44,0,0,0-.78,4.18A25.41,25.41,0,0,0,23,46.32a30.74,30.74,0,0,0,.69,4l.36,1.63A16,16,0,0,0,24.62,54c.18.51.56,1.08,1.1,1l.06-.19Z"/></clipPath><clipPath id="clip-path-2"><path class="cls-1" d="M16.36,43.06c-.08.76-.22,1.51-.31,2.27a27.8,27.8,0,0,0-.13,3.16q0,1.23,0,2.46a8.89,8.89,0,0,0,.11,1.42A4.75,4.75,0,0,0,19.12,56c.47.16,1.1.2,1.36-.23s0-.87-.12-1.31a5.16,5.16,0,0,1-.13-1.34c-.06-5.56.13-11.14-.67-16.64a4.38,4.38,0,0,0-.71-2.11,3.06,3.06,0,0,0-1.44-1A4.56,4.56,0,0,0,15,33.23a5.19,5.19,0,0,1,.95,2.7A28.18,28.18,0,0,1,16.36,43.06Z"/></clipPath><clipPath id="clip-path-3"><path class="cls-1" d="M15.43,7.28a15.22,15.22,0,0,0-.29,2.12,6.42,6.42,0,0,0,0,1.21c0,.36.13.71.18,1.06a11.2,11.2,0,0,1,0,2.22,78.23,78.23,0,0,0,0,7.86,11,11,0,0,1-.08,1.86,9.23,9.23,0,0,1-.36,2c-.22.61-.59,1.47-1.17,1.51l-.05.06c0,.1.29.18.47.16A3.12,3.12,0,0,0,17.3,24.8a21.5,21.5,0,0,0,.78-4.18A25.38,25.38,0,0,0,18.21,16a30.55,30.55,0,0,0-.69-4l-.36-1.62a16.46,16.46,0,0,0-.55-2.08c-.18-.51-.57-1.08-1.1-1l-.06.19Z"/></clipPath><clipPath id="clip-path-4"><path class="cls-1" d="M24.87,19.26c.08-.76.22-1.51.31-2.27a27.58,27.58,0,0,0,.13-3.16q0-1.23,0-2.46a8.89,8.89,0,0,0-.11-1.43,4.75,4.75,0,0,0-3.07-3.58c-.47-.16-1.1-.19-1.36.23s0,.88.12,1.31A5.19,5.19,0,0,1,21,9.25c.06,5.56-.13,11.14.67,16.64A4.37,4.37,0,0,0,22.38,28a3.05,3.05,0,0,0,1.44,1,4.58,4.58,0,0,0,2.46.13,5.17,5.17,0,0,1-.95-2.7A28.09,28.09,0,0,1,24.87,19.26Z"/></clipPath></defs><title>Fichier 39</title><g id="Calque_2" data-name="Calque 2"><g id="Layer_1" data-name="Layer 1"><rect class="cls-2" x="0.09" y="0.09" width="40.75" height="62.1" rx="3.45" ry="3.45"/><path class="cls-2" d="M37.39,62.29H3.54A3.55,3.55,0,0,1,0,58.74V3.54A3.55,3.55,0,0,1,3.54,0H37.39a3.55,3.55,0,0,1,3.54,3.54v55.2A3.55,3.55,0,0,1,37.39,62.29ZM3.54.19A3.36,3.36,0,0,0,.19,3.54v55.2A3.36,3.36,0,0,0,3.54,62.1H37.39a3.36,3.36,0,0,0,3.36-3.36V3.54A3.36,3.36,0,0,0,37.39.19Z"/><path class="cls-3" d="M17.09,34.68l1.7-.91a32.41,32.41,0,0,0,6.92-4.48,26.5,26.5,0,0,0,3.37-4.1l2.09-2.92c.17,0,.1.24.27.22.41,1.07,2,1.4,2.72,2.38a4.87,4.87,0,0,1,.62,1.44c.51,1.74,1,6.56.35,13.77-.38,4.34-2.8,5.1-3.83,4.52-.82-.46-3.21-5.88-4.21-5.82a18,18,0,0,1-7.94-1.36,5,5,0,0,1-1.7-1A1.57,1.57,0,0,1,17.09,34.68Z"/><path class="cls-3" d="M7.15,25.51a5.76,5.76,0,0,0-1,2.48,23.7,23.7,0,0,0,0,7.24c.76,7.5,1.58,9.16,2.7,9.3,3,.39,4.56-5.73,7.58-5.69,2.83,0,5.75.33,8.43-.39.12-.39-.28-.75-.64-1a26.83,26.83,0,0,0-2.94-2c-2.69-1.53-5.89-2.18-8.72-4.42C9.52,28.58,8.27,25.88,7.15,25.51Z"/><path class="cls-3" d="M24.14,27.64l-1.7.91A32.41,32.41,0,0,0,15.52,33a26.56,26.56,0,0,0-3.37,4.1L10.06,40c-.17,0-.1-.24-.27-.22-.41-1.07-2-1.4-2.72-2.38A4.91,4.91,0,0,1,6.46,36c-.51-1.74-.92-6.9-.29-14.11.38-4.34,3.37-4.35,3.77-4.18,1.83.77,3.21,5.89,4.21,5.82a18,18,0,0,1,7.95,1.36,5,5,0,0,1,1.7,1A1.57,1.57,0,0,1,24.14,27.64Z"/><path class="cls-3" d="M34.08,36.81a5.78,5.78,0,0,0,1-2.48,23.75,23.75,0,0,0,0-7.24c-.76-7.5-.74-9.41-2.74-9.51-3.44-.17-4.52,5.93-7.54,5.89-2.83,0-5.75-.33-8.43.39-.12.39.27.75.64,1a26.39,26.39,0,0,0,2.94,2c2.68,1.53,5.89,2.18,8.71,4.42C31.72,33.74,33,36.44,34.08,36.81Z"/><path class="cls-4" d="M20.93,17.2a2.64,2.64,0,0,1,1.09,0,2,2,0,0,1,.94.58,4.86,4.86,0,0,1,.74.94,1.64,1.64,0,0,0,.36.47,2.06,2.06,0,0,0,.83.31A24.25,24.25,0,0,1,29.55,21a5.08,5.08,0,0,1,2,1.34.53.53,0,0,1,.13.29c0,.27-.34.44-.63.56-3.58,1.51-5.51,4.75-8.73,6.72a3.79,3.79,0,0,1-3.12.63,3.57,3.57,0,0,1-1-.64L13.63,26.2A10.35,10.35,0,0,0,12,25a15,15,0,0,1-2.49-1.26c-.22-.18-.51-.4-.78-.28-.08-.18.06-.36.21-.51a10.33,10.33,0,0,1,6.94-2.62,1.75,1.75,0,0,0,.85-.16c.52-.32.25-1,.51-1.47a1.78,1.78,0,0,1,.83-.63A12.25,12.25,0,0,1,20.93,17.2Z"/><path class="cls-5" d="M7.64,32.82a.39.39,0,0,1,.15.17c0,.12,0,.23-.11.34a1.06,1.06,0,0,0,.37,1.3,1.72,1.72,0,0,0,1.41.2,5,5,0,0,0,1.32-.63q2.56-1.56,5-3.28c.09-.06.19-.15.18-.26a.34.34,0,0,0-.15-.21,22.91,22.91,0,0,0-7-4.43c-.46-.15-1-.24-1.35.12a1.06,1.06,0,0,0-.2.65,3,3,0,0,0,.26,1.35,3,3,0,0,0,.06,4.68Z"/><path class="cls-5" d="M33.82,32.82a.4.4,0,0,0-.15.17c0,.12,0,.23.11.34a1.06,1.06,0,0,1-.37,1.3,1.72,1.72,0,0,1-1.41.2,5,5,0,0,1-1.32-.63q-2.56-1.56-5-3.28c-.09-.06-.19-.15-.19-.26a.33.33,0,0,1,.15-.21,22.9,22.9,0,0,1,7-4.43c.46-.15,1-.24,1.35.12a1.07,1.07,0,0,1,.2.65,3,3,0,0,1-.26,1.35,3,3,0,0,1-.06,4.68Z"/><path class="cls-6" d="M19.94,30.32a.3.3,0,0,1-.15.05.33.33,0,0,1-.18-.06,5.47,5.47,0,0,1-2.27-2.51,38.12,38.12,0,0,1,4.85-.15l-1.43,1.85A3.08,3.08,0,0,1,19.94,30.32Z"/><path class="cls-7" d="M7,25.13a1.53,1.53,0,0,1,.3-1.35,3.18,3.18,0,0,1,2.18-1.36,6.24,6.24,0,0,1,1.29-.07,10,10,0,0,1,4.62,1.22,11.36,11.36,0,0,1,3.59,3.23,3.51,3.51,0,0,0,.57.54.3.3,0,0,0,.36,0,9.77,9.77,0,0,1,1.63-1.77,20.24,20.24,0,0,1,6.57-3.28,6.5,6.5,0,0,1,4.09-.21c1.21.37,2.09,1.53,1.94,2.35a8.22,8.22,0,0,1-.79,1.53,12.33,12.33,0,0,1-3,2.75,22.05,22.05,0,0,1-3,1.72,15.62,15.62,0,0,1-7.42,1.48,14.45,14.45,0,0,1-6.24-1.79c-.54-.29-2.13-1.24-2.62-1.56C10.06,27.87,7.38,26.23,7,25.13Z"/><path class="cls-6" d="M7.94,28.86c-.36,1-.48,2.74.31,3.6a.34.34,0,0,0,.41.05c.39-.18,0-.77-.1-1A5,5,0,0,1,8.34,29a.21.21,0,0,0-.41-.11Z"/><path class="cls-6" d="M9.17,30.09a2,2,0,0,0,.33,2.08.29.29,0,0,0,.45-.35,3,3,0,0,1-.51-1.65.15.15,0,0,0-.27-.07Z"/><path class="cls-6" d="M10.56,31.13c0,.35.07.88.43,1.07a.24.24,0,0,0,.35-.27,1.48,1.48,0,0,0-.29-.44,2.27,2.27,0,0,1-.26-.45c-.06-.14-.25,0-.23.1Z"/><path class="cls-6" d="M33.11,29a5.36,5.36,0,0,1-.2,2.52c-.06.24-.49.81-.1,1a.34.34,0,0,0,.4-.05c.78-.86.66-2.57.3-3.56a.21.21,0,0,0-.4.11Z"/><path class="cls-6" d="M31.85,30.58a3,3,0,0,1-.5,1.64.28.28,0,0,0,.45.34,2,2,0,0,0,.33-2.05.15.15,0,0,0-.27.07Z"/><path class="cls-6" d="M30.56,31.41a2.58,2.58,0,0,1-.26.44,1.58,1.58,0,0,0-.29.44.24.24,0,0,0,.35.27c.36-.18.38-.71.42-1.05,0-.12-.17-.24-.23-.1Z"/><path class="cls-6" d="M20.59,34.59a2.35,2.35,0,1,0-2.35-2.35,2.37,2.37,0,0,0,2.35,2.35Z"/><path class="cls-8" d="M20.61,32.7a.57.57,0,0,0,0-1.15.57.57,0,0,0,0,1.15Z"/><path class="cls-5" d="M19.19,31.3h0a.24.24,0,1,0-.44-.12h0a.24.24,0,0,0,.44.12Z"/><path class="cls-5" d="M19.69,31.89a.27.27,0,0,0,0-.54.27.27,0,0,0,0,.54Z"/><path class="cls-5" d="M21.44,31.87a.25.25,0,0,0,0-.5.25.25,0,0,0,0,.5Z"/><path class="cls-5" d="M22,31.41a.28.28,0,0,0,0-.55.28.28,0,0,0,0,.55Z"/><path class="cls-5" d="M19.9,33.19a.29.29,0,1,0-.29-.29.29.29,0,0,0,.29.29Z"/><path class="cls-5" d="M19.27,33.79a.25.25,0,0,0,0-.51.25.25,0,0,0,0,.51Z"/><path class="cls-5" d="M21.52,33.19h0a.25.25,0,0,0,0-.42h0a.26.26,0,1,0,0,.45Z"/><path class="cls-5" d="M22.1,33.38l0,0a.2.2,0,1,0,0,.34l0,0a.18.18,0,0,0,0-.31Z"/><path class="cls-6" d="M16.8,31.14c.44,0,.44-.54,0-.54s-.44.54,0,.54Z"/><path class="cls-6" d="M17.54,31.88c.47,0,.47-.58,0-.58s-.47.58,0,.58Z"/><path class="cls-6" d="M23.4,32.22c.37,0,.37-.46,0-.46s-.37.46,0,.46Z"/><path class="cls-6" d="M24.31,31.68c.29,0,.29-.37,0-.37s-.29.37,0,.37Z"/><path class="cls-6" d="M25.08,31.22c.4,0,.4-.5,0-.5s-.4.5,0,.5Z"/><path class="cls-4" d="M20.3,45.12a2.64,2.64,0,0,1-1.09,0,2,2,0,0,1-.94-.58,4.8,4.8,0,0,1-.74-.94,1.62,1.62,0,0,0-.36-.47,2.09,2.09,0,0,0-.83-.31,24.11,24.11,0,0,1-4.66-1.55,5.08,5.08,0,0,1-2-1.34.54.54,0,0,1-.13-.28c0-.27.34-.44.63-.56,3.58-1.51,5.51-4.75,8.73-6.72a3.78,3.78,0,0,1,3.12-.63,3.55,3.55,0,0,1,1,.64l4.54,3.69a10.36,10.36,0,0,0,1.63,1.16,15.05,15.05,0,0,1,2.49,1.26c.22.18.51.4.78.28.08.17-.06.36-.21.51a10.34,10.34,0,0,1-6.94,2.62,1.75,1.75,0,0,0-.85.16c-.52.31-.25,1-.51,1.47a1.79,1.79,0,0,1-.83.63A12.34,12.34,0,0,1,20.3,45.12Z"/><path class="cls-6" d="M21.29,32a.31.31,0,0,1,.15-.05.34.34,0,0,1,.18.06,5.48,5.48,0,0,1,2.27,2.52,38.49,38.49,0,0,1-4.85.14l1.43-1.85A3.07,3.07,0,0,1,21.29,32Z"/><path class="cls-6" d="M32.24,31.55a2,2,0,0,0-.33-2.06.28.28,0,0,0-.45.34,3,3,0,0,1,.5,1.64.15.15,0,0,0,.27.07Z"/><path class="cls-6" d="M30.86,30.51c0-.34-.07-.87-.42-1.05a.24.24,0,0,0-.35.27,1.49,1.49,0,0,0,.29.44,2.37,2.37,0,0,1,.26.45c.06.14.24,0,.23-.1Z"/><path class="cls-7" d="M34.27,37.15a1.81,1.81,0,0,1-.3,1.48,3.17,3.17,0,0,1-2.18,1.49,5.75,5.75,0,0,1-1.29.08,9.34,9.34,0,0,1-4.62-1.34,11.83,11.83,0,0,1-3.59-3.54,3.75,3.75,0,0,0-.57-.59.28.28,0,0,0-.36,0,10.38,10.38,0,0,1-1.63,1.94,19.63,19.63,0,0,1-6.57,3.59,6,6,0,0,1-4.09.23,2.74,2.74,0,0,1-1.94-2.58,9.3,9.3,0,0,1,.79-1.68,12.88,12.88,0,0,1,3-3,21.81,21.81,0,0,1,3-1.88,14.49,14.49,0,0,1,7.42-1.62,13.54,13.54,0,0,1,6.24,2c.54.32,2.13,1.36,2.62,1.71C31.17,34.15,33.85,35.95,34.27,37.15Z"/><path class="cls-5" d="M34.46,23.82a.63.63,0,0,1-.07.71,2.21,2.21,0,0,1-.29.35c-3.24,2.65-6.06,3.58-10.16,6.25-1.08.71-2.54,1.56-3.66,2.22s-2.37,1.55-3.55,2.32L11.4,39.28a15.31,15.31,0,0,0-2,1.53c-.2.19-.43.42-.7.38a.79.79,0,0,1-.4-.26A4.5,4.5,0,0,1,7.12,38a.5.5,0,0,1,.13-.51c4.22-3.79,8.49-6.37,13.35-9.35.91-.56,1.83-1.11,2.75-1.65,2.59-1.55,4.89-2.75,7.48-4.3a1.47,1.47,0,0,1,.86-.29,2.15,2.15,0,0,1,1.11.31A4.68,4.68,0,0,1,34.46,23.82Z"/><path class="cls-6" d="M20.74,28.18a2.35,2.35,0,1,0,2.35,2.35,2.37,2.37,0,0,0-2.35-2.35Z"/><path class="cls-8" d="M20.72,30.07a.57.57,0,0,0,0,1.15.57.57,0,0,0,0-1.15Z"/><path class="cls-5" d="M22.15,31.47h0a.24.24,0,1,0,.44.12h0a.24.24,0,0,0-.44-.12Z"/><path class="cls-5" d="M21.64,30.88a.27.27,0,0,0,0,.54.27.27,0,0,0,0-.54Z"/><path class="cls-5" d="M19.9,30.9a.25.25,0,0,0,0,.5.25.25,0,0,0,0-.5Z"/><path class="cls-5" d="M19.3,31.36a.28.28,0,0,0,0,.55.28.28,0,0,0,0-.55Z"/><path class="cls-5" d="M21.43,29.58a.29.29,0,1,0,.29.29.29.29,0,0,0-.29-.29Z"/><path class="cls-5" d="M22.06,29a.25.25,0,0,0,0,.51.25.25,0,0,0,0-.51Z"/><path class="cls-5" d="M19.82,29.58h0a.25.25,0,0,0,0,.42h0a.26.26,0,1,0,0-.45Z"/><path class="cls-5" d="M19.23,29.38l0,0a.2.2,0,1,0,0-.34l0,0a.18.18,0,0,0,0,.31Z"/><path class="cls-6" d="M9.56,31.06a3,3,0,0,1,.51-1.66.29.29,0,0,0-.45-.35,2,2,0,0,0-.33,2.08.15.15,0,0,0,.27-.07Z"/><path class="cls-6" d="M10.87,30.23a2.44,2.44,0,0,1,.26-.45,1.61,1.61,0,0,0,.29-.44.24.24,0,0,0-.35-.27c-.36.18-.38.72-.43,1.06,0,.13.17.24.23.1Z"/><path class="cls-3" d="M19.77,43.11a4.63,4.63,0,0,0,0-.73,17.88,17.88,0,0,1,3.93-.13,3.42,3.42,0,0,1-.16.49.21.21,0,0,1,0,.08.21.21,0,0,1-.14,0Z"/><path class="cls-8" d="M22,39.42a3.75,3.75,0,0,1-.8,0,3.62,3.62,0,0,0,.2,1,.68.68,0,0,0-.3-.19.39.39,0,0,0-.42.11.36.36,0,0,0-.06.3,5.76,5.76,0,0,0,1.06,1.51l.74-1.12c.07-.11.15-.22.21-.33s0-.49-.3-.55a.48.48,0,0,0-.31.09c-.09.05-.14.13-.19.15s.07-.19.09-.33S22.06,39.52,22,39.42Z"/><path class="cls-8" d="M25.8,55a15.19,15.19,0,0,0,.29-2.12,6.51,6.51,0,0,0,0-1.21c0-.36-.13-.71-.18-1.06a11.11,11.11,0,0,1,0-2.22,77.64,77.64,0,0,0,0-7.86A11.13,11.13,0,0,1,26,38.69a9.2,9.2,0,0,1,.36-2c.22-.61.59-1.46,1.17-1.51l.05-.06c0-.1-.29-.18-.47-.16a3.12,3.12,0,0,0-3.17,2.57,21.44,21.44,0,0,0-.78,4.18A25.41,25.41,0,0,0,23,46.32a30.74,30.74,0,0,0,.69,4l.36,1.63A16,16,0,0,0,24.62,54c.18.51.56,1.08,1.1,1l.06-.19Z"/><path class="cls-8" d="M16.36,43.06c-.08.76-.22,1.51-.31,2.27a27.8,27.8,0,0,0-.13,3.16q0,1.23,0,2.46a8.89,8.89,0,0,0,.11,1.42A4.75,4.75,0,0,0,19.12,56c.47.16,1.1.2,1.36-.23s0-.87-.12-1.31a5.16,5.16,0,0,1-.13-1.34c-.06-5.56.13-11.14-.67-16.64a4.38,4.38,0,0,0-.71-2.11,3.06,3.06,0,0,0-1.44-1A4.56,4.56,0,0,0,15,33.23a5.19,5.19,0,0,1,.95,2.7A28.18,28.18,0,0,1,16.36,43.06Z"/><g class="cls-9"><path class="cls-5" d="M28.13,34.83a3.46,3.46,0,0,0-2.91,2.42,8.74,8.74,0,0,0-.47,3,38.31,38.31,0,0,0,.05,4.21.08.08,0,0,0,.16,0c.2-3.1-1.05-8.64,3.18-9.49.08,0,.06-.15,0-.14Z"/><path class="cls-5" d="M26.74,34.72c-1.34-.18-2.3,1.74-2.66,2.77a5.56,5.56,0,0,0-.14,1.46c0,.5-.15,1-.19,1.5a34.05,34.05,0,0,0-.16,3.66c0,.06.09.07.1,0,.25-1.62.21-3.26.4-4.88a6.77,6.77,0,0,1,.69-2.74,3.08,3.08,0,0,1,2-1.71s0-.06,0-.07Z"/></g><g class="cls-10"><path class="cls-5" d="M18.94,48.55a14,14,0,0,0,.54-3.9,30.58,30.58,0,0,0,0-5.42c-.14-2.18-.61-6-3.09-6.8,0,0,0,0,0,.05,2.41,1.67,2.77,4.82,2.91,7.54a33.15,33.15,0,0,1,0,4.27c-.06.73-.16,1.47-.24,2.2a13.12,13.12,0,0,1-.16,2s0,0,0,0Z"/><path class="cls-5" d="M18.1,48.05a15.25,15.25,0,0,0,.63-4.89,30.35,30.35,0,0,0-.36-5c-.34-2.2-1.15-5-3.7-5.31-.07,0-.09.1,0,.13a4.68,4.68,0,0,1,2.62,2.56,14.72,14.72,0,0,1,.86,3.59A40.85,40.85,0,0,1,18,48c0,.09.12.09.14,0Z"/><path class="cls-5" d="M17,47.5c.63-.14.6-1.19.65-1.69a25,25,0,0,0-.08-5.59c-.35-3-1.17-5.8-3.78-7.5-.09-.06-.18.06-.14.14a2.72,2.72,0,0,0,.82.92,6.53,6.53,0,0,1,1.37,1.56,11.61,11.61,0,0,1,1.32,4.2,22.63,22.63,0,0,1,.3,4.4c0,.67-.07,1.33-.14,2,0,.49,0,1.11-.37,1.48a0,0,0,0,0,0,.08Z"/><path class="cls-5" d="M16.58,46.29a11.55,11.55,0,0,0-.75-7.7s-.1,0-.08,0c.94,2.38.81,5.14.72,7.64,0,.06.09.08.11,0Z"/></g><path class="cls-11" d="M19.65,55.08a3.84,3.84,0,0,0,1.36,1,3.89,3.89,0,0,0,.78.16,6.56,6.56,0,0,0,3.44-.16,1,1,0,0,0,.33-.2,1,1,0,0,0,.22-.37,4.84,4.84,0,0,0-.29-3.48,1.31,1.31,0,0,1-.12-.42,1.28,1.28,0,0,1,.27-.71,10.69,10.69,0,0,0,1.8-4.22.18.18,0,0,0-.11-.19,1.08,1.08,0,0,0-.73.12l-1.24.55a14.12,14.12,0,0,0-.68-3.86,1.15,1.15,0,0,0-.3-.54,1.09,1.09,0,0,0-1.16,0,8.57,8.57,0,0,0-1.66,1.15,6.19,6.19,0,0,0-1,.94,5.19,5.19,0,0,0-.71,1.33,15.79,15.79,0,0,0-1,7.35,2.52,2.52,0,0,0,.13.64A2.74,2.74,0,0,0,19.65,55.08Z"/><path class="cls-5" d="M23.73,46a5.79,5.79,0,0,1,1.54.15.29.29,0,0,0,.36-.14c.06-.09,0-.21-.15-.24a.6.6,0,0,1-.23-.09c.1-.12.2-.17.2-.32a.22.22,0,0,0-.24-.18.67.67,0,0,0-.31.13A6.38,6.38,0,0,1,23.73,46Z"/><path class="cls-8" d="M23.95,46.94a.29.29,0,0,0-.45,0,.23.23,0,0,0,.16.36A.31.31,0,0,0,23.95,46.94Z"/><path class="cls-2" d="M20.41,51.85a5.83,5.83,0,0,1,1-.53,3,3,0,0,1,2.77.31,1.59,1.59,0,0,1-1,.76A2.83,2.83,0,0,1,20.41,51.85Z"/><path class="cls-8" d="M22.12,51.47a.39.39,0,0,0,.12.76c.13,0,.56-.1.45-.52,0-.14-.21-.21-.36-.24A.51.51,0,0,0,22.12,51.47Z"/><path class="cls-8" d="M20.42,53.71a2.46,2.46,0,0,0,1.5.42,4.73,4.73,0,0,0,1.49-.2,3.49,3.49,0,0,0,1.09-.53c.32-.29.27-.41.08-.73a.16.16,0,0,0-.18-.08,1.71,1.71,0,0,0-.48.3,4.31,4.31,0,0,1-3.35.54A.17.17,0,0,0,20.42,53.71Z"/><path class="cls-3" d="M20.71,58c.12.1.25.24.18.38s0,.18-.11.2a5.41,5.41,0,0,1-3-.15,4,4,0,0,1-2.23-1.85A6.4,6.4,0,0,1,14.93,54c-.2-3.19,1.22-6.27-.64-9.94a4.33,4.33,0,0,1,2.6,1.42,12.68,12.68,0,0,1,1.83,1.81c.08.09.62.5.6.62A8.28,8.28,0,0,0,19,49.45c-.1.86,0,1,0,1.84a27.81,27.81,0,0,0,.25,3.54,6.1,6.1,0,0,0,.13,1A4.12,4.12,0,0,0,20.71,58Z"/><path class="cls-5" d="M14.48,43.48a.48.48,0,0,0-.48.05.43.43,0,0,0-.14.46.41.41,0,0,0,.51.24.49.49,0,0,0,.25-.24.4.4,0,0,0,0-.41A.38.38,0,0,0,14.48,43.48Z"/><path class="cls-7" d="M18.93,50a40.64,40.64,0,0,0-.35,4.72,7.25,7.25,0,0,0,.11,1.63,8,8,0,0,0,.49,1.4l1.05,2.5q.94-1.37,1.83-2.78a8.71,8.71,0,0,0,1.28,2.93c.32-.81.74-2,1.06-2.83a7.17,7.17,0,0,0,1.54,2,12.62,12.62,0,0,0,.47-3.93c0-.18-.3-1.26-.47-1.21a2.79,2.79,0,0,1-.21.8.72.72,0,0,1-.31.36.56.56,0,0,1-.63-.2,1.63,1.63,0,0,1-.27-.65A2.2,2.2,0,0,1,23,55.93a2.41,2.41,0,0,1-1.9-.51,5.05,5.05,0,0,1-1.38-2.62C19.41,51.85,19.21,51,18.93,50Z"/><path class="cls-5" d="M26,60.88a.17.17,0,0,0,.06-.07,4.08,4.08,0,0,0,.44-1.29l-1.14.11A6.48,6.48,0,0,0,26,60.88Z"/><path class="cls-5" d="M23.27,61.69a.17.17,0,0,0,.06-.07,4.08,4.08,0,0,0,.52-1.25l-1.14,0A6.53,6.53,0,0,0,23.27,61.69Z"/><path class="cls-5" d="M20,61.5a.18.18,0,0,0,.07-.06,4.11,4.11,0,0,0,.62-1.21l-1.14-.05A6.49,6.49,0,0,0,20,61.5Z"/><path class="cls-8" d="M25.47,46.88a2.93,2.93,0,0,0-.34.18l-.35.25a1,1,0,0,0-.43.68.54.54,0,0,0,.26.49.29.29,0,0,0,.43-.21A.09.09,0,0,0,25,48.2c-.11,0-.24.06-.32,0s.06-.42.18-.55a3.24,3.24,0,0,1,.41-.33.9.9,0,0,0,.27-.34,0,0,0,0,0-.06-.06Z"/><path class="cls-8" d="M21.39,47.78c-1.57-.36-2.57,1.19-2.5,2.61,0,0,.07.06.08,0a3.78,3.78,0,0,1,.91-2.06,1.85,1.85,0,0,1,1.49-.45c.06,0,.07-.09,0-.11Z"/><path class="cls-6" d="M25.21,56.41a5,5,0,0,1,.08.77,4,4,0,0,0,0,.65c.07.32.61.25.57-.08a5.44,5.44,0,0,0-.42-1.41.12.12,0,0,0-.22.06Z"/><path class="cls-6" d="M23.4,56.61a5.16,5.16,0,0,0-.35,1.61c0,.2.29.36.43.18a1.07,1.07,0,0,0,.15-.68c0-.35.1-.71.13-1.06s-.31-.24-.37,0Z"/><path class="cls-6" d="M20.87,56.2a2.19,2.19,0,0,0-.55.88,1.55,1.55,0,0,0-.3,1c.08.36.54.29.66,0a5.64,5.64,0,0,0,.44-1.79c0-.14-.16-.18-.25-.11Z"/><path class="cls-5" d="M18.12,57.69a.49.49,0,0,0,0-.21.09.09,0,1,0-.17.07.32.32,0,0,1,0,.14.09.09,0,0,0,.18,0Z"/><path class="cls-5" d="M16.76,56.21a.64.64,0,0,0,0-.3.13.13,0,1,0-.25.1.34.34,0,0,1,0,.16c0,.13.22.17.24,0Z"/><path class="cls-5" d="M17.9,54.32a.63.63,0,0,0,0-.3c0-.2-.34-.12-.3.08a.54.54,0,0,0,.11.27.12.12,0,0,0,.19-.05Z"/><path class="cls-5" d="M15.55,54.22a.69.69,0,0,0,0-.31c0-.16-.27-.09-.24.07a.52.52,0,0,0,.1.28.09.09,0,0,0,.14,0Z"/><path class="cls-5" d="M16.44,52.31a.49.49,0,0,0,0-.4c0-.07-.17,0-.16,0a.65.65,0,0,1,0,.3c0,.11.14.16.18,0Z"/><path class="cls-5" d="M18,51.38A.83.83,0,0,0,18,51c0-.12-.25-.15-.27,0a.53.53,0,0,0,.13.44c0,.05.12,0,.13-.05Z"/><path class="cls-5" d="M16.81,49.24a.72.72,0,0,0,0-.38.14.14,0,0,0-.26,0,.45.45,0,0,0,.1.41.08.08,0,0,0,.13,0Z"/><path class="cls-5" d="M18.75,47.78a1,1,0,0,0,0-.32.15.15,0,0,0-.19-.11.16.16,0,0,0-.11.19.41.41,0,0,0,.16.27s.12,0,.13,0Z"/><path class="cls-5" d="M15.48,50.27a.44.44,0,0,0,0-.31.05.05,0,0,0-.09,0,.59.59,0,0,0-.09.31c0,.14.21.14.22,0Z"/><path class="cls-5" d="M15.88,46.37c0-.14,0-.29,0-.43a.11.11,0,0,0-.21,0,.63.63,0,0,0,.08.49.08.08,0,0,0,.15-.06Z"/><path class="cls-5" d="M22.63,42.67h0c.11,0,.21-.08.18-.18a.15.15,0,0,0-.25-.06h0a.14.14,0,0,0,.06.22Z"/><path class="cls-5" d="M22.14,42.39a.18.18,0,0,0,0,.35.18.18,0,0,0,0-.35Z"/><path class="cls-5" d="M21.62,42.42a.17.17,0,0,0,0,.35.17.17,0,0,0,0-.35Z"/><path class="cls-5" d="M21,42.47a.19.19,0,0,0,0,.39.19.19,0,0,0,0-.39Z"/><path class="cls-5" d="M20.47,42.51a.17.17,0,0,0,0,.35.17.17,0,0,0,0-.35Z"/><path class="cls-5" d="M26,55.17a.12.12,0,0,0,0,.24.12.12,0,0,0,0-.24Z"/><path class="cls-5" d="M25.73,55.64a.13.13,0,0,0,0,.26.13.13,0,0,0,0-.26Z"/><path class="cls-5" d="M25.15,55.82a.15.15,0,0,0,0,.3.15.15,0,0,0,0-.3Z"/><path class="cls-5" d="M24.62,55.68a.18.18,0,0,0,0,.35.18.18,0,0,0,0-.35Z"/><path class="cls-5" d="M24.48,55.24a.16.16,0,0,0,0,.31.16.16,0,0,0,0-.31Z"/><path class="cls-5" d="M24.07,55.61a.15.15,0,0,0,0,.3.15.15,0,0,0,0-.3Z"/><path class="cls-5" d="M23.57,55.87a.19.19,0,0,0,0,.37.19.19,0,0,0,0-.37Z"/><path class="cls-5" d="M23,56a.17.17,0,0,0,0,.34A.17.17,0,0,0,23,56Z"/><path class="cls-5" d="M22.42,56.12a.18.18,0,0,0,0,.35.18.18,0,0,0,0-.35Z"/><path class="cls-5" d="M21.84,56a.17.17,0,0,0,0,.34.17.17,0,0,0,0-.34Z"/><path class="cls-5" d="M21.27,55.76a.2.2,0,0,0,0,.41.2.2,0,0,0,0-.41Z"/><path class="cls-5" d="M20.75,55.5a.18.18,0,0,0,0,.36.18.18,0,0,0,0-.36Z"/><path class="cls-5" d="M20.32,55.06a.16.16,0,0,0,0,.32.16.16,0,0,0,0-.32Z"/><path class="cls-5" d="M20,54.63a.14.14,0,0,0,0,.28.14.14,0,0,0,0-.28Z"/><path class="cls-5" d="M19.82,54.07a.15.15,0,0,0,0,.3.15.15,0,0,0,0-.3Z"/><path class="cls-5" d="M19.64,53.57a.16.16,0,0,0,0,.32.16.16,0,0,0,0-.32Z"/><path class="cls-5" d="M19.5,53a.13.13,0,0,0,0,.27.13.13,0,0,0,0-.27Z"/><path class="cls-5" d="M19.34,52.5a.11.11,0,0,0,0,.23.11.11,0,0,0,0-.23Z"/><path class="cls-5" d="M19.15,51.84a.18.18,0,0,0,0,.36.18.18,0,0,0,0-.36Z"/><path class="cls-5" d="M19,51.35a.14.14,0,0,0,0,.28.14.14,0,0,0,0-.28Z"/><path class="cls-7" d="M20.16,52a3.81,3.81,0,0,1,1.06.38,3.31,3.31,0,0,0,1.19.22,2,2,0,0,0,1.85-.92.11.11,0,0,0-.2-.12c-.69,1-1.94.84-2.93.46-.34-.13-.65-.29-1-.09a0,0,0,0,0,0,.06Z"/><path class="cls-3" d="M21.46,19.21a4.63,4.63,0,0,0,0,.73,17.88,17.88,0,0,1-3.93.13,3.55,3.55,0,0,1,.16-.49.23.23,0,0,1,0-.08.23.23,0,0,1,.14,0Z"/><path class="cls-8" d="M19.24,22.9a3.75,3.75,0,0,1,.8,0,3.67,3.67,0,0,0-.2-1,.69.69,0,0,0,.3.19.39.39,0,0,0,.42-.11.37.37,0,0,0,.06-.3,5.72,5.72,0,0,0-1.06-1.51l-.74,1.12c-.07.11-.15.22-.21.33s0,.49.3.55a.47.47,0,0,0,.31-.09c.09-.05.14-.13.19-.15s-.07.19-.09.33S19.18,22.8,19.24,22.9Z"/><path class="cls-8" d="M15.43,7.28a15.22,15.22,0,0,0-.29,2.12,6.42,6.42,0,0,0,0,1.21c0,.36.13.71.18,1.06a11.2,11.2,0,0,1,0,2.22,78.23,78.23,0,0,0,0,7.86,11,11,0,0,1-.08,1.86,9.23,9.23,0,0,1-.36,2c-.22.61-.59,1.47-1.17,1.51l-.05.06c0,.1.29.18.47.16A3.12,3.12,0,0,0,17.3,24.8a21.5,21.5,0,0,0,.78-4.18A25.38,25.38,0,0,0,18.21,16a30.55,30.55,0,0,0-.69-4l-.36-1.62a16.46,16.46,0,0,0-.55-2.08c-.18-.51-.57-1.08-1.1-1l-.06.19Z"/><path class="cls-8" d="M24.87,19.26c.08-.76.22-1.51.31-2.27a27.58,27.58,0,0,0,.13-3.16q0-1.23,0-2.46a8.89,8.89,0,0,0-.11-1.43,4.75,4.75,0,0,0-3.07-3.58c-.47-.16-1.1-.19-1.36.23s0,.88.12,1.31A5.19,5.19,0,0,1,21,9.25c.06,5.56-.13,11.14.67,16.64A4.37,4.37,0,0,0,22.38,28a3.05,3.05,0,0,0,1.44,1,4.58,4.58,0,0,0,2.46.13,5.17,5.17,0,0,1-.95-2.7A28.09,28.09,0,0,1,24.87,19.26Z"/><g class="cls-12"><path class="cls-5" d="M13.1,27.49A3.46,3.46,0,0,0,16,25.07a8.75,8.75,0,0,0,.47-3,38.33,38.33,0,0,0-.05-4.21.08.08,0,0,0-.16,0c-.2,3.1,1.05,8.65-3.18,9.49-.08,0-.06.15,0,.14Z"/><path class="cls-5" d="M14.49,27.6c1.34.18,2.3-1.74,2.66-2.77a5.55,5.55,0,0,0,.14-1.46c0-.5.15-1,.19-1.5a34.33,34.33,0,0,0,.16-3.67c0-.06-.09-.07-.1,0-.25,1.62-.21,3.26-.4,4.88a6.78,6.78,0,0,1-.69,2.74,3.08,3.08,0,0,1-2,1.71s0,.06,0,.07Z"/></g><g class="cls-13"><path class="cls-5" d="M22.29,13.77a14,14,0,0,0-.54,3.9,30.66,30.66,0,0,0,0,5.42c.15,2.18.61,6,3.09,6.8a0,0,0,0,0,0-.05C22.46,28.16,22.11,25,22,22.3a33,33,0,0,1,0-4.27c.06-.73.16-1.47.24-2.2a13.1,13.1,0,0,1,.16-2s0,0,0,0Z"/><path class="cls-5" d="M23.13,14.27a15.26,15.26,0,0,0-.63,4.89,30.44,30.44,0,0,0,.36,5c.34,2.2,1.15,5,3.7,5.31.07,0,.09-.1,0-.13A4.68,4.68,0,0,1,24,26.77a14.6,14.6,0,0,1-.86-3.58,40.78,40.78,0,0,1,.15-8.89c0-.09-.12-.09-.14,0Z"/><path class="cls-5" d="M24.25,14.82c-.63.13-.6,1.19-.65,1.69a25,25,0,0,0,.08,5.59c.35,3,1.17,5.8,3.78,7.5.09.06.18-.05.14-.14a2.7,2.7,0,0,0-.82-.92A6.53,6.53,0,0,1,25.41,27a11.62,11.62,0,0,1-1.32-4.2,22.65,22.65,0,0,1-.3-4.4c0-.67.07-1.33.14-2,0-.49,0-1.11.37-1.49a0,0,0,0,0,0-.07Z"/><path class="cls-5" d="M24.65,16a11.53,11.53,0,0,0,.75,7.69s.1,0,.08,0c-.94-2.38-.81-5.14-.72-7.65a.05.05,0,0,0-.11,0Z"/></g><path class="cls-11" d="M21.59,7.24a3.8,3.8,0,0,0-1.36-1,3.78,3.78,0,0,0-.78-.16A6.54,6.54,0,0,0,16,6.22a1,1,0,0,0-.33.2,1,1,0,0,0-.22.37,4.84,4.84,0,0,0,.29,3.48,1.28,1.28,0,0,1,.12.42,1.27,1.27,0,0,1-.27.71,10.71,10.71,0,0,0-1.8,4.22.18.18,0,0,0,.11.19,1.08,1.08,0,0,0,.73-.12l1.24-.54A14.15,14.15,0,0,0,16.55,19a1.17,1.17,0,0,0,.3.55,1.09,1.09,0,0,0,1.16,0,8.58,8.58,0,0,0,1.66-1.15,6.24,6.24,0,0,0,1-.94,5.19,5.19,0,0,0,.71-1.33,15.79,15.79,0,0,0,1-7.35,2.5,2.5,0,0,0-.13-.64A2.73,2.73,0,0,0,21.59,7.24Z"/><path class="cls-5" d="M17.51,16.3A5.72,5.72,0,0,1,16,16.15a.29.29,0,0,0-.36.14c-.06.09,0,.21.15.24a.66.66,0,0,1,.23.09c-.1.12-.2.17-.2.32a.22.22,0,0,0,.24.19.69.69,0,0,0,.31-.13A6.37,6.37,0,0,1,17.51,16.3Z"/><path class="cls-8" d="M17.29,15.38a.29.29,0,0,0,.45,0,.23.23,0,0,0-.16-.36A.3.3,0,0,0,17.29,15.38Z"/><path class="cls-2" d="M20.82,10.47a6,6,0,0,1-1,.53,3,3,0,0,1-2.77-.31,1.58,1.58,0,0,1,1-.76A2.82,2.82,0,0,1,20.82,10.47Z"/><path class="cls-8" d="M19.11,10.84a.4.4,0,0,0,.3-.44.4.4,0,0,0-.42-.33c-.13,0-.56.1-.45.52,0,.14.21.21.36.24A.51.51,0,0,0,19.11,10.84Z"/><path class="cls-8" d="M20.81,8.61a2.47,2.47,0,0,0-1.5-.42,4.73,4.73,0,0,0-1.49.21,3.45,3.45,0,0,0-1.09.53c-.32.29-.27.4-.08.73a.17.17,0,0,0,.18.08,1.68,1.68,0,0,0,.49-.3,4.3,4.3,0,0,1,3.35-.53A.17.17,0,0,0,20.81,8.61Z"/><path class="cls-3" d="M20.52,4.3c-.12-.1-.25-.24-.18-.38s0-.18.12-.2a5.43,5.43,0,0,1,3,.15,4,4,0,0,1,2.23,1.85,6.38,6.38,0,0,1,.59,2.63c.2,3.19-1.21,6.27.64,9.94a4.35,4.35,0,0,1-2.6-1.42,12.89,12.89,0,0,1-1.83-1.81c-.07-.1-.62-.5-.6-.62a8.25,8.25,0,0,0,.35-1.55c.1-.87,0-1,0-1.84A27.69,27.69,0,0,0,22,7.49a6,6,0,0,0-.13-1A4.11,4.11,0,0,0,20.52,4.3Z"/><path class="cls-5" d="M26.76,18.84a.47.47,0,0,0,.48-.05.43.43,0,0,0,.14-.46.41.41,0,0,0-.51-.24.49.49,0,0,0-.26.24.4.4,0,0,0,0,.41A.37.37,0,0,0,26.76,18.84Z"/><path class="cls-7" d="M22.3,12.31a40.2,40.2,0,0,0,.35-4.72A7.32,7.32,0,0,0,22.54,6a8.11,8.11,0,0,0-.49-1.4L21,2.05q-.94,1.37-1.83,2.78A8.71,8.71,0,0,0,17.89,1.9c-.32.81-.74,2-1.06,2.83a7.19,7.19,0,0,0-1.54-2,12.6,12.6,0,0,0-.47,3.93c0,.18.3,1.26.47,1.21a2.89,2.89,0,0,1,.21-.8.71.71,0,0,1,.31-.36.55.55,0,0,1,.63.2,1.62,1.62,0,0,1,.27.65,2.19,2.19,0,0,1,1.57-1.16,2.4,2.4,0,0,1,1.9.51,5,5,0,0,1,1.38,2.62C21.82,10.46,22,11.36,22.3,12.31Z"/><path class="cls-5" d="M15.19,1.43a.17.17,0,0,0-.06.07,4.09,4.09,0,0,0-.44,1.29l1.13-.11A6.44,6.44,0,0,0,15.19,1.43Z"/><path class="cls-5" d="M18,.63A.17.17,0,0,0,17.9.7,4.13,4.13,0,0,0,17.38,2l1.14,0A6.52,6.52,0,0,0,18,.63Z"/><path class="cls-5" d="M21.21.82a.16.16,0,0,0-.07.06,4.1,4.1,0,0,0-.62,1.21l1.14.05A6.44,6.44,0,0,0,21.21.82Z"/><path class="cls-8" d="M15.76,15.43a3.52,3.52,0,0,0,.34-.18l.35-.25a1,1,0,0,0,.43-.68.54.54,0,0,0-.26-.49.29.29,0,0,0-.43.21.09.09,0,0,0,.06.08c.11,0,.24-.06.32,0s-.06.42-.18.55A3.23,3.23,0,0,1,16,15a.9.9,0,0,0-.27.34,0,0,0,0,0,.06.06Z"/><path class="cls-8" d="M19.84,14.54c1.57.36,2.57-1.2,2.5-2.61,0,0-.07-.06-.08,0A3.78,3.78,0,0,1,21.35,14a1.86,1.86,0,0,1-1.5.46c-.06,0-.07.09,0,.11Z"/><path class="cls-6" d="M16,5.91a4.76,4.76,0,0,1-.08-.77,4,4,0,0,0,0-.65c-.07-.31-.6-.25-.57.08A5.48,5.48,0,0,0,15.79,6,.12.12,0,0,0,16,5.91Z"/><path class="cls-6" d="M17.83,5.71a5.2,5.2,0,0,0,.35-1.62c0-.2-.29-.36-.43-.18a1.06,1.06,0,0,0-.15.68c0,.35-.1.71-.13,1.06s.31.25.37.05Z"/><path class="cls-6" d="M20.37,6.12a2.19,2.19,0,0,0,.55-.88,1.55,1.55,0,0,0,.3-1c-.08-.36-.55-.29-.66,0A5.7,5.7,0,0,0,20.11,6c0,.14.16.18.25.11Z"/><path class="cls-5" d="M23.11,4.63a.52.52,0,0,0,0,.21.09.09,0,1,0,.17-.07.35.35,0,0,1,0-.14c0-.12-.18-.12-.18,0Z"/><path class="cls-5" d="M24.48,6.11a.62.62,0,0,0,0,.3.13.13,0,1,0,.25-.1.35.35,0,0,1,0-.17c0-.13-.22-.17-.24,0Z"/><path class="cls-5" d="M23.33,8a.62.62,0,0,0,0,.3c0,.2.34.12.3-.08a.54.54,0,0,0-.11-.26.12.12,0,0,0-.19.05Z"/><path class="cls-5" d="M25.68,8.1a.68.68,0,0,0,0,.31c0,.16.27.09.24-.07a.53.53,0,0,0-.1-.28.09.09,0,0,0-.14,0Z"/><path class="cls-5" d="M24.79,10a.5.5,0,0,0,0,.4c0,.07.17,0,.16,0a.66.66,0,0,1,0-.3c0-.11-.14-.16-.18,0Z"/><path class="cls-5" d="M22.94,11.21a.85.85,0,0,0,0,.39c0,.12.25.15.27,0a.54.54,0,0,0-.13-.44c0-.05-.12,0-.12.05Z"/><path class="cls-5" d="M24.42,13.08a.72.72,0,0,0,0,.38.14.14,0,0,0,.26,0,.45.45,0,0,0-.1-.41.08.08,0,0,0-.13,0Z"/><path class="cls-5" d="M22.48,14.54a.89.89,0,0,0,0,.31.15.15,0,0,0,.19.11.16.16,0,0,0,.11-.19.41.41,0,0,0-.16-.27s-.12,0-.13,0Z"/><path class="cls-5" d="M25.75,12a.43.43,0,0,0,0,.31.05.05,0,0,0,.09,0A.58.58,0,0,0,26,12c0-.14-.21-.14-.22,0Z"/><path class="cls-5" d="M25.35,15.95c0,.14,0,.29,0,.43a.11.11,0,0,0,.21,0,.63.63,0,0,0-.08-.49.08.08,0,0,0-.15.06Z"/><path class="cls-5" d="M18.6,19.65h0c-.11,0-.21.08-.18.18a.15.15,0,0,0,.24.06h0a.14.14,0,0,0-.06-.22Z"/><path class="cls-5" d="M19.09,19.93a.17.17,0,0,0,0-.35.17.17,0,0,0,0,.35Z"/><path class="cls-5" d="M19.62,19.9a.17.17,0,0,0,0-.34.17.17,0,0,0,0,.34Z"/><path class="cls-5" d="M20.21,19.85a.19.19,0,0,0,0-.39.19.19,0,0,0,0,.39Z"/><path class="cls-5" d="M20.76,19.8a.17.17,0,0,0,0-.34.17.17,0,0,0,0,.34Z"/><path class="cls-5" d="M15.2,7.15a.12.12,0,0,0,0-.24.12.12,0,0,0,0,.24Z"/><path class="cls-5" d="M15.5,6.68a.13.13,0,0,0,0-.26.13.13,0,0,0,0,.26Z"/><path class="cls-5" d="M16.09,6.5a.15.15,0,0,0,0-.3.15.15,0,0,0,0,.3Z"/><path class="cls-5" d="M16.61,6.64a.18.18,0,0,0,0-.36.18.18,0,0,0,0,.36Z"/><path class="cls-5" d="M16.76,7.08a.16.16,0,0,0,0-.31.16.16,0,0,0,0,.31Z"/><path class="cls-5" d="M17.16,6.71a.15.15,0,0,0,0-.3.15.15,0,0,0,0,.3Z"/><path class="cls-5" d="M17.66,6.46a.19.19,0,0,0,0-.37.19.19,0,0,0,0,.38Z"/><path class="cls-5" d="M18.22,6.29a.17.17,0,0,0,0-.33.17.17,0,0,0,0,.33Z"/><path class="cls-5" d="M18.81,6.2a.17.17,0,0,0,0-.35.17.17,0,0,0,0,.35Z"/><path class="cls-5" d="M19.39,6.32a.17.17,0,0,0,0-.34.17.17,0,0,0,0,.34Z"/><path class="cls-5" d="M20,6.55a.2.2,0,0,0,0-.41.2.2,0,0,0,0,.41Z"/><path class="cls-5" d="M20.48,6.82a.18.18,0,0,0,0-.36.18.18,0,0,0,0,.36Z"/><path class="cls-5" d="M20.91,7.25a.16.16,0,0,0,0-.32.16.16,0,0,0,0,.32Z"/><path class="cls-5" d="M21.18,7.69a.14.14,0,0,0,0-.28.14.14,0,0,0,0,.28Z"/><path class="cls-5" d="M21.41,8.25a.15.15,0,0,0,0-.3.15.15,0,0,0,0,.3Z"/><path class="cls-5" d="M21.59,8.75a.16.16,0,0,0,0-.32.16.16,0,0,0,0,.32Z"/><path class="cls-5" d="M21.73,9.29a.13.13,0,0,0,0-.26.13.13,0,0,0,0,.26Z"/><path class="cls-5" d="M21.89,9.81a.11.11,0,0,0,0-.23.11.11,0,0,0,0,.23Z"/><path class="cls-5" d="M22.08,10.48a.18.18,0,0,0,0-.35.18.18,0,0,0,0,.35Z"/><path class="cls-5" d="M22.25,11a.14.14,0,0,0,0-.28.14.14,0,0,0,0,.28Z"/><path class="cls-7" d="M21.08,10.29A3.79,3.79,0,0,1,20,9.91a3.36,3.36,0,0,0-1.19-.22,2,2,0,0,0-1.85.92.11.11,0,0,0,.2.12c.69-1,1.94-.84,2.93-.46.34.13.65.29,1,.08a0,0,0,0,0,0-.06Z"/><path class="cls-7" d="M4.62,16.24a0,0,0,1,0,0,0s0,0,0,0Z"/><path class="cls-7" d="M5.22,16.39h0a0,0,0,1,0,0,0Z"/><path class="cls-7" d="M8.66,19.46v0a.21.21,0,0,0,.08.29l0,0a.24.24,0,1,0-.09-.33Z"/><path class="cls-7" d="M9.79,20V20c0,.29.37.42.45.13l0-.06c.08-.3-.41-.42-.46-.12Z"/><path class="cls-7" d="M9.77,19.12a.19.19,0,0,0,0-.37.19.19,0,0,0,0,.37Z"/><path class="cls-7" d="M8.22,21.39h0a.12.12,0,0,0,.17,0v0a.15.15,0,0,0-.05-.21l0,0a.16.16,0,1,0-.08.3Z"/><path class="cls-7" d="M7.57,20.32h0c.17,0,.15-.24,0-.32l0,0c-.26-.19-.45.42,0,.35Z"/><path class="cls-7" d="M9.41,21.32l0,0a.15.15,0,0,0,.07.25h0c.33.08.2-.51-.07-.28Z"/><path class="cls-7" d="M8.8,20.71l0,0c.22-.12-.06-.44-.21-.21l0,0c-.09.13.08.27.2.2Z"/><path class="cls-7" d="M11.17,20.84a0,0,0,1,0,0,0,0,0,0,1,0,0,0Z"/><path class="cls-7" d="M11.12,21.11a.18.18,0,0,0,0-.36.18.18,0,0,0,0,.36Z"/><path class="cls-7" d="M10.87,19.76a.17.17,0,0,0,0-.35.17.17,0,0,0,0,.35Z"/><path class="cls-7" d="M8.12,18.8l0,0a.11.11,0,0,0,.12,0l0,0a.2.2,0,1,0-.2,0Z"/><path class="cls-7" d="M7.18,22.26a.22.22,0,0,0,0-.43.22.22,0,0,0,0,.43Z"/><path class="cls-7" d="M8.22,22.4l0,.06a.07.07,0,0,0,.09.09l.06,0c.22-.06-.08-.36-.13-.13Z"/><path class="cls-7" d="M6.77,23.52h0c-.22,0-.22.37,0,.35h0a.17.17,0,0,0,0-.34Z"/><path class="cls-7" d="M6.62,27.4a.16.16,0,0,0,0-.33.16.16,0,0,0,0,.33Z"/><path class="cls-7" d="M7,28.05a.17.17,0,0,0,0-.34.17.17,0,0,0,0,.34Z"/><path class="cls-7" d="M6.55,28.62h-.1a.06.06,0,0,0,0,.11h.1a.07.07,0,1,0,0-.13Z"/><path class="cls-7" d="M6.77,25.79h0c-.24,0-.16.38,0,.3h0c.15-.06.14-.31,0-.29Z"/><path class="cls-7" d="M6.7,33v0c0-.46-.63.13-.17.17h0A.12.12,0,0,0,6.7,33Z"/><path class="cls-7" d="M7.17,33.56a.13.13,0,0,0,0-.26.13.13,0,0,0,0,.26Z"/><path class="cls-7" d="M6.67,34.77a.19.19,0,0,0,0-.37.19.19,0,0,0,0,.37Z"/><path class="cls-7" d="M7.36,35.24l0,0a.15.15,0,0,0,0-.26l0,0c-.33-.22-.33.53,0,.31Z"/><path class="cls-7" d="M8,35.17l0,.09a.1.1,0,0,0,.2,0l0-.09C8.38,35,8,35,8,35.17Z"/><path class="cls-7" d="M7.52,36.33a.15.15,0,0,0,0-.3.15.15,0,0,0,0,.3Z"/><path class="cls-7" d="M6.82,36a.13.13,0,0,0,0-.25.13.13,0,0,0,0,.25Z"/><path class="cls-7" d="M6.83,36.82h0c-.21,0-.12.4.09.33h0a.17.17,0,0,0-.09-.32Z"/><path class="cls-7" d="M7.72,41.15a.16.16,0,0,0,0-.33.16.16,0,0,0,0,.33Z"/><path class="cls-7" d="M8.22,42.1a.17.17,0,0,0,0-.33.17.17,0,0,0,0,.33Z"/><path class="cls-7" d="M9,41.9a.16.16,0,0,0,0-.33.16.16,0,0,0,0,.33Z"/><path class="cls-7" d="M9.82,41.38a.15.15,0,0,0,0-.3.15.15,0,0,0,0,.3Z"/><path class="cls-7" d="M9.92,42.32a.14.14,0,0,0,0-.28.14.14,0,0,0,0,.28Z"/><path class="cls-7" d="M9.17,43a.15.15,0,0,0,0-.3.15.15,0,0,0,0,.3Z"/><path class="cls-7" d="M8.22,43.34a.15.15,0,0,0,0-.31.15.15,0,0,0,0,.31Z"/><path class="cls-7" d="M9.07,44a.13.13,0,0,0,0-.27.13.13,0,0,0,0,.27Z"/><path class="cls-7" d="M10.07,43.68a.14.14,0,0,0,0-.29.14.14,0,0,0,0,.29Z"/><path class="cls-7" d="M10.77,43.11a.17.17,0,0,0,0-.34.17.17,0,0,0,0,.34Z"/><path class="cls-7" d="M10.82,42a.14.14,0,0,0,0-.29.14.14,0,0,0,0,.29Z"/><path class="cls-7" d="M11.47,42.46a.12.12,0,0,0,0-.24.12.12,0,0,0,0,.24Z"/><path class="cls-7" d="M11.67,41.94a.11.11,0,0,0,0-.22.11.11,0,0,0,0,.22Z"/><path class="cls-7" d="M30.12,20.25a.21.21,0,0,0,0-.43.21.21,0,0,0,0,.43Z"/><path class="cls-7" d="M30.82,19.43a.2.2,0,0,0,0-.39.2.2,0,0,0,0,.39Z"/><path class="cls-7" d="M31.62,20.3a.22.22,0,0,0,0-.43.22.22,0,0,0,0,.43Z"/><path class="cls-7" d="M31.12,21.08a.19.19,0,0,0,0-.39.19.19,0,0,0,0,.39Z"/><path class="cls-7" d="M32,19.1a.12.12,0,0,0,0-.24.12.12,0,0,0,0,.24Z"/><path class="cls-7" d="M32,18.45a.12.12,0,0,0,0-.23.12.12,0,0,0,0,.23Z"/><path class="cls-7" d="M32.89,18.14l0,0a.15.15,0,0,0,.08.28h0c.27,0,.16-.47-.08-.31Z"/><path class="cls-7" d="M33.07,19.42a.18.18,0,0,0,0-.37.18.18,0,0,0,0,.37Z"/><path class="cls-7" d="M32.51,20V20a.07.07,0,0,0,.09.09h.06c.24,0-.09-.38-.14-.14Z"/><path class="cls-7" d="M32.37,21.2a.21.21,0,0,0,0-.43.21.21,0,0,0,0,.43Z"/><path class="cls-7" d="M33.42,21.26a.18.18,0,0,0,0-.35.18.18,0,0,0,0,.35Z"/><path class="cls-7" d="M33.72,20.45a.22.22,0,0,0,0-.43.22.22,0,0,0,0,.43Z"/><path class="cls-7" d="M33.95,22.05l-.08,0a.12.12,0,0,0,0,.2l.08,0c.29.14.29-.4,0-.27Z"/><path class="cls-7" d="M32.62,21.91a.13.13,0,0,0,0-.26.13.13,0,0,0,0,.26Z"/><path class="cls-7" d="M34.24,25.51h-.06c-.39.06.16.6.21.21v-.06a.14.14,0,0,0-.16-.16Z"/><path class="cls-7" d="M34.55,26.55a.13.13,0,0,0,.23.1c.09-.16-.18-.27-.23-.1Z"/><path class="cls-7" d="M34.79,28V27.9a.14.14,0,0,0-.1-.1h0a.15.15,0,0,0-.15.25l0,0s.11,0,.07,0,.19,0,.17-.13Z"/><path class="cls-7" d="M34.93,32.45a.15.15,0,0,0,.27.11c.11-.18-.2-.32-.27-.11Z"/><path class="cls-7" d="M34.52,33.3a.12.12,0,0,0,0-.24.12.12,0,0,0,0,.24Z"/><path class="cls-7" d="M34.87,34.33a.15.15,0,0,0,0-.3.15.15,0,0,0,0,.3Z"/><path class="cls-7" d="M34.17,35a.18.18,0,0,0,0-.35.18.18,0,0,0,0,.35Z"/><path class="cls-7" d="M33.72,35.54a.11.11,0,0,0,0-.22.11.11,0,0,0,0,.22Z"/><path class="cls-7" d="M34.42,36.23a.2.2,0,0,0,0-.39.2.2,0,0,0,0,.39Z"/><path class="cls-7" d="M35,35.42a.14.14,0,0,0,0-.28.14.14,0,0,0,0,.28Z"/><path class="cls-7" d="M34.84,37l-.09,0a.1.1,0,0,0,0,.19l.09,0c.21.07.21-.32,0-.25Z"/><path class="cls-7" d="M34.72,38.75a.17.17,0,0,0,0-.33.17.17,0,0,0,0,.33Z"/><path class="cls-7" d="M34.22,39.53a.15.15,0,0,0,0-.3.15.15,0,0,0,0,.3Z"/><path class="cls-7" d="M34.68,40.17l0,0a.09.09,0,0,0,.13,0l0,0c.27-.25-.45-.25-.18,0Z"/><path class="cls-7" d="M33.82,40.49a.2.2,0,0,0,0-.4.2.2,0,0,0,0,.4Z"/><path class="cls-7" d="M32.57,40.75a.17.17,0,0,0,0-.34.17.17,0,0,0,0,.34Z"/><path class="cls-7" d="M33.12,41.66a.22.22,0,0,0,0-.45.22.22,0,0,0,0,.45Z"/><path class="cls-7" d="M34.17,41.66a.17.17,0,0,0,0-.35.17.17,0,0,0,0,.35Z"/><path class="cls-7" d="M33.43,42.47l0,0a.17.17,0,0,0,.09.32h0c.3,0,.19-.5-.09-.35Z"/><path class="cls-7" d="M32.12,42.54a.21.21,0,0,0,0-.41.21.21,0,0,0,0,.41Z"/><path class="cls-7" d="M31.85,41.4a.12.12,0,0,0,.23.1c.09-.15-.17-.27-.23-.1Z"/><path class="cls-7" d="M31,42.06a.22.22,0,0,0,0-.45.22.22,0,0,0,0,.45Z"/><path class="cls-7" d="M31.62,43.47a.24.24,0,0,0,0-.48.24.24,0,0,0,0,.48Z"/><path class="cls-7" d="M30.82,42.85a.16.16,0,0,0,0-.33.16.16,0,0,0,0,.33Z"/><path class="cls-7" d="M32.52,43.94a.15.15,0,0,0,0-.31.15.15,0,0,0,0,.31Z"/><path class="cls-7" d="M30.37,41.82a.19.19,0,0,0,0-.38.19.19,0,0,0,0,.38Z"/><path class="cls-8" d="M35.44,50.65c0-.1,0-.25,0-.35a2.78,2.78,0,0,0,0-.31,1.42,1.42,0,0,0-.43-.93c.24,0,.84,0,1.08,0a1.42,1.42,0,0,0-.43.93c0,.11,0,.21,0,.31s0,.25,0,.35Z"/><path class="cls-8" d="M35.53,50.26a1.16,1.16,0,0,0-1-.54.9.9,0,0,0-.84.68,1.11,1.11,0,0,0,.33.93,4.47,4.47,0,0,0,.84.61,4.64,4.64,0,0,1,.7.67,8.87,8.87,0,0,1,.7-.66,6.54,6.54,0,0,0,.84-.62,1.11,1.11,0,0,0,.33-.93.89.89,0,0,0-.84-.68,1.16,1.16,0,0,0-1,.54Z"/><path class="cls-8" d="M5.36,11.36c0,.1,0,.25,0,.35a3,3,0,0,0,0,.31,1.41,1.41,0,0,0,.43.93c-.24,0-.84,0-1.08,0A1.42,1.42,0,0,0,5.11,12c0-.1,0-.21,0-.31s0-.25,0-.35Z"/><path class="cls-8" d="M5.27,11.75a1.16,1.16,0,0,0,1,.54.9.9,0,0,0,.84-.68,1.11,1.11,0,0,0-.33-.93,4.45,4.45,0,0,0-.84-.61,4.72,4.72,0,0,1-.7-.67,9.14,9.14,0,0,1-.7.66,6.48,6.48,0,0,0-.84.62,1.11,1.11,0,0,0-.33.93.9.9,0,0,0,.84.68,1.16,1.16,0,0,0,1-.54Z"/><path class="cls-8" d="M5,7.93a2,2,0,0,1-1.74-.85A3.42,3.42,0,0,1,2.59,5a3.47,3.47,0,0,1,.65-2.19A2.05,2.05,0,0,1,5,1.94a2.1,2.1,0,0,1,1.69.81,3.27,3.27,0,0,1,.66,2.14,3.69,3.69,0,0,1-.5,1.93,2.11,2.11,0,0,1-1.27,1v.08q0,.63.77.63A3.58,3.58,0,0,0,7,8.51v.58a2,2,0,0,1-.59.09,1.62,1.62,0,0,1-1-.28A1.27,1.27,0,0,1,5,7.93Zm0-.59a1.32,1.32,0,0,0,1.18-.69,3.33,3.33,0,0,0,.42-1.77,3,3,0,0,0-.44-1.73,1.37,1.37,0,0,0-1.17-.62,1.34,1.34,0,0,0-1.17.67A3.18,3.18,0,0,0,3.34,5a3.09,3.09,0,0,0,.44,1.72A1.34,1.34,0,0,0,5,7.34Z"/><path class="cls-8" d="M36,54.36a2,2,0,0,1,1.74.85,3.43,3.43,0,0,1,.63,2.11,3.49,3.49,0,0,1-.65,2.19,2.06,2.06,0,0,1-1.71.85,2.1,2.1,0,0,1-1.69-.81,3.26,3.26,0,0,1-.66-2.14,3.69,3.69,0,0,1,.5-1.93,2.1,2.1,0,0,1,1.27-1v-.08c0-.42-.26-.63-.77-.63a3.6,3.6,0,0,0-.66.05V53.2a2,2,0,0,1,.59-.09,1.62,1.62,0,0,1,1,.28A1.27,1.27,0,0,1,36,54.36Zm0,.59a1.32,1.32,0,0,0-1.18.69,3.32,3.32,0,0,0-.43,1.77,3,3,0,0,0,.44,1.73,1.36,1.36,0,0,0,1.17.62,1.33,1.33,0,0,0,1.17-.67,3.19,3.19,0,0,0,.43-1.75,3.07,3.07,0,0,0-.44-1.72A1.34,1.34,0,0,0,36,54.95Z"/><path class="cls-14" d="M16.38,59.11H6.19a3.1,3.1,0,0,1-3-3.19V15.66a.09.09,0,1,1,.19,0V55.92a2.92,2.92,0,0,0,2.82,3H16.38a.09.09,0,0,1,.09.09A.09.09,0,0,1,16.38,59.11Z"/><path class="cls-14" d="M32.78,59.11H27.26a.09.09,0,0,1-.09-.09.09.09,0,0,1,.09-.09h5.52a.09.09,0,0,1,.09.09A.09.09,0,0,1,32.78,59.11Z"/><path class="cls-14" d="M37.65,46.92a.09.09,0,0,1-.09-.09V6.36a2.92,2.92,0,0,0-2.82-3H24.06A.1.1,0,0,1,24,3.27a.09.09,0,0,1,.09-.09H34.74a3.1,3.1,0,0,1,3,3.19V46.82A.09.09,0,0,1,37.65,46.92Z"/><path class="cls-14" d="M13.78,3.36H8.45a.09.09,0,0,1-.09-.09.09.09,0,0,1,.09-.09h5.33a.09.09,0,0,1,.09.09A.09.09,0,0,1,13.78,3.36Z"/></g></g></svg>