<svg xmlns="http://www.w3.org/2000/svg" viewBox="0 0 40.93 62.29"><defs><style>.cls-1{fill:#fff;}.cls-2{fill:#0c0a35;}</style></defs><title>Fichier 11</title><g id="Calque_2" data-name="Calque 2"><g id="Layer_1" data-name="Layer 1"><rect class="cls-1" x="0.09" y="0.09" width="40.74" height="62.1" rx="3.45" ry="3.45"/><path class="cls-1" d="M37.39,62.29H3.54A3.55,3.55,0,0,1,0,58.74V3.54A3.55,3.55,0,0,1,3.54,0H37.39a3.55,3.55,0,0,1,3.54,3.54v55.2A3.55,3.55,0,0,1,37.39,62.29ZM3.54.19A3.36,3.36,0,0,0,.19,3.54v55.2A3.36,3.36,0,0,0,3.54,62.1H37.39a3.36,3.36,0,0,0,3.36-3.36V3.54A3.36,3.36,0,0,0,37.39.19Z"/><path class="cls-2" d="M5.42,11.77c0,.1,0,.24,0,.35a2.91,2.91,0,0,0,0,.31,1.39,1.39,0,0,0,.42.91c-.24,0-.83,0-1.06,0a1.39,1.39,0,0,0,.42-.91,2.66,2.66,0,0,0,0-.31c0-.1,0-.25,0-.35Z"/><path class="cls-2" d="M5.35,12c.1,0,.16.11.34.3a1,1,0,0,0,.69.41.66.66,0,0,0,.55-.23,1.25,1.25,0,0,0,.19-.44A1.12,1.12,0,0,0,7,11.23.59.59,0,0,0,6.26,11c-.13.08-.17.17-.28.19a.05.05,0,0,1-.06-.06c0-.18.17-.2.23-.41A.61.61,0,0,0,5.9,10a1.18,1.18,0,0,0-1.22,0,.56.56,0,0,0-.25.67c.05.2.17.29.22.45a.07.07,0,0,1-.09.09c-.08,0-.13-.11-.24-.18a.59.59,0,0,0-.76.24,1.12,1.12,0,0,0-.1.84,1.27,1.27,0,0,0,.19.44.66.66,0,0,0,.55.23,1,1,0,0,0,.69-.41c.18-.19.24-.29.34-.3Z"/><path class="cls-2" d="M4.45,8.21v.53H2.29V8.21h.79V3.77A6.48,6.48,0,0,1,1.5,5V4.29A5.18,5.18,0,0,0,3.25,2.88h.52V8.21Z"/><path class="cls-2" d="M6.94,8.86A1.84,1.84,0,0,1,5.35,8a3.68,3.68,0,0,1-.59-2.14,3.8,3.8,0,0,1,.56-2.12,1.8,1.8,0,0,1,1.6-.86,1.81,1.81,0,0,1,1.64.9A4,4,0,0,1,9.11,5.9,3.76,3.76,0,0,1,8.54,8,1.8,1.8,0,0,1,6.94,8.86Zm0-.57A1.15,1.15,0,0,0,8,7.63,3.51,3.51,0,0,0,8.37,6,4.07,4.07,0,0,0,8,4.16a1.16,1.16,0,0,0-1.1-.72,1.14,1.14,0,0,0-1.07.66,3.71,3.71,0,0,0-.35,1.74,3.69,3.69,0,0,0,.37,1.79A1.18,1.18,0,0,0,6.94,8.29Z"/><path class="cls-2" d="M35.51,50.52c0-.1,0-.24,0-.35a2.65,2.65,0,0,0,0-.31,1.39,1.39,0,0,0-.42-.91c.24,0,.83,0,1.06,0a1.39,1.39,0,0,0-.42.91,2.91,2.91,0,0,0,0,.31c0,.1,0,.25,0,.35Z"/><path class="cls-2" d="M35.58,50.27c-.1,0-.16-.11-.33-.31a1,1,0,0,0-.69-.41.66.66,0,0,0-.55.23,1.24,1.24,0,0,0-.19.44,1.13,1.13,0,0,0,.09.84.59.59,0,0,0,.76.24c.13-.08.17-.17.29-.19a.05.05,0,0,1,.06.06c0,.18-.17.2-.23.41a.61.61,0,0,0,.25.76,1.18,1.18,0,0,0,1.22,0,.55.55,0,0,0,.25-.67c-.05-.2-.17-.29-.22-.45a.07.07,0,0,1,.09-.09c.08,0,.13.11.24.18a.59.59,0,0,0,.76-.24,1.13,1.13,0,0,0,.09-.84,1.24,1.24,0,0,0-.19-.44.66.66,0,0,0-.55-.23A1,1,0,0,0,36,50c-.18.2-.24.29-.33.31Z"/><path class="cls-2" d="M36.48,54.08v-.54h2.16v.54h-.79v4.44a6.54,6.54,0,0,1,1.58-1.24V58a5.19,5.19,0,0,0-1.76,1.41h-.52V54.08Z"/><path class="cls-2" d="M34,53.42a1.84,1.84,0,0,1,1.59.86,3.67,3.67,0,0,1,.59,2.14,3.8,3.8,0,0,1-.56,2.12,1.92,1.92,0,0,1-3.23,0,3.94,3.94,0,0,1-.56-2.12,3.75,3.75,0,0,1,.57-2.08A1.8,1.8,0,0,1,34,53.42ZM34,54a1.15,1.15,0,0,0-1.08.66,3.52,3.52,0,0,0-.35,1.66,4.09,4.09,0,0,0,.36,1.81,1.17,1.17,0,0,0,1.1.72,1.14,1.14,0,0,0,1.07-.66,4.5,4.5,0,0,0,0-3.53A1.18,1.18,0,0,0,34,54Z"/><path class="cls-2" d="M13.65,8.83c0,.26.1.63.1.88a7.46,7.46,0,0,1,0,.78,3.56,3.56,0,0,1-1.08,2.32c.6,0,2.11,0,2.71,0a3.55,3.55,0,0,1-1.08-2.32,7.17,7.17,0,0,1,0-.78c0-.26.1-.63.1-.88Z"/><path class="cls-2" d="M13.83,9.47c-.25,0-.4.28-.86.78a2.61,2.61,0,0,1-1.77,1,1.69,1.69,0,0,1-1.4-.58A3.17,3.17,0,0,1,9.33,9.6a2.86,2.86,0,0,1,.24-2.15,1.51,1.51,0,0,1,1.95-.6c.32.19.43.43.73.48a.13.13,0,0,0,.15-.16c-.12-.45-.44-.51-.59-1a1.56,1.56,0,0,1,.63-1.94,3,3,0,0,1,3.13,0,1.42,1.42,0,0,1,.64,1.72c-.14.5-.43.73-.56,1.16a.18.18,0,0,0,.24.23c.21-.09.33-.29.61-.45a1.51,1.51,0,0,1,1.95.6,2.87,2.87,0,0,1,.24,2.15,3.17,3.17,0,0,1-.48,1.12,1.68,1.68,0,0,1-1.4.58,2.61,2.61,0,0,1-1.77-1c-.46-.5-.6-.74-.86-.78Z"/><path class="cls-2" d="M26.58,8.83c0,.26.1.63.1.88a7.74,7.74,0,0,1,0,.78,3.55,3.55,0,0,1-1.08,2.32c.6,0,2.11,0,2.71,0a3.55,3.55,0,0,1-1.08-2.32,7.46,7.46,0,0,1,0-.78c0-.26.1-.63.1-.88Z"/><path class="cls-2" d="M26.76,9.47c-.25,0-.4.28-.86.78a2.61,2.61,0,0,1-1.77,1,1.69,1.69,0,0,1-1.4-.58,3.21,3.21,0,0,1-.48-1.12,2.87,2.87,0,0,1,.24-2.15,1.51,1.51,0,0,1,1.95-.6c.32.19.43.43.73.48a.13.13,0,0,0,.14-.16c-.12-.45-.44-.51-.59-1a1.55,1.55,0,0,1,.63-1.94,3,3,0,0,1,3.13,0,1.42,1.42,0,0,1,.64,1.72c-.14.5-.43.73-.56,1.16a.18.18,0,0,0,.23.23c.22-.09.33-.29.61-.45a1.51,1.51,0,0,1,1.95.6,2.87,2.87,0,0,1,.24,2.15,3.19,3.19,0,0,1-.48,1.12,1.68,1.68,0,0,1-1.4.58,2.61,2.61,0,0,1-1.77-1c-.46-.5-.6-.74-.86-.78Z"/><path class="cls-2" d="M27.28,53.46c0-.26-.1-.63-.1-.88a7.45,7.45,0,0,1,0-.78,3.56,3.56,0,0,1,1.08-2.32c-.6,0-2.11,0-2.71,0a3.55,3.55,0,0,1,1.08,2.32,7.74,7.74,0,0,1,0,.78c0,.26-.1.63-.1.88Z"/><path class="cls-2" d="M27.1,52.82c.25,0,.4-.28.86-.78a2.61,2.61,0,0,1,1.77-1,1.69,1.69,0,0,1,1.4.58,3.19,3.19,0,0,1,.48,1.12,2.88,2.88,0,0,1-.24,2.15,1.51,1.51,0,0,1-1.95.6c-.32-.19-.43-.43-.73-.48a.13.13,0,0,0-.14.16c.12.45.44.51.59,1a1.56,1.56,0,0,1-.63,1.94,3,3,0,0,1-3.13,0,1.42,1.42,0,0,1-.64-1.72c.14-.5.43-.73.56-1.16a.18.18,0,0,0-.23-.23c-.22.09-.33.29-.61.45a1.51,1.51,0,0,1-1.95-.6,2.87,2.87,0,0,1-.24-2.15,3.21,3.21,0,0,1,.48-1.12,1.69,1.69,0,0,1,1.4-.58,2.61,2.61,0,0,1,1.77,1c.46.5.6.74.86.78Z"/><path class="cls-2" d="M14.35,53.46c0-.26-.1-.63-.1-.88a7.16,7.16,0,0,1,0-.78,3.55,3.55,0,0,1,1.08-2.32c-.6,0-2.11,0-2.71,0a3.56,3.56,0,0,1,1.08,2.32,7.45,7.45,0,0,1,0,.78c0,.26-.1.63-.1.88Z"/><path class="cls-2" d="M14.17,52.82c.25,0,.4-.28.86-.78a2.61,2.61,0,0,1,1.77-1,1.69,1.69,0,0,1,1.4.58,3.17,3.17,0,0,1,.48,1.12,2.87,2.87,0,0,1-.24,2.15,1.51,1.51,0,0,1-1.95.6c-.32-.19-.43-.43-.73-.48a.13.13,0,0,0-.15.16c.12.45.44.51.59,1a1.56,1.56,0,0,1-.64,1.94,3,3,0,0,1-3.13,0,1.42,1.42,0,0,1-.64-1.72c.14-.5.43-.73.56-1.16a.18.18,0,0,0-.24-.23c-.21.09-.33.29-.61.45a1.51,1.51,0,0,1-1.95-.6,2.87,2.87,0,0,1-.24-2.15,3.17,3.17,0,0,1,.48-1.12,1.69,1.69,0,0,1,1.4-.58A2.61,2.61,0,0,1,13,52c.46.5.6.74.86.78Z"/><path class="cls-2" d="M13.65,26.61c0,.26.1.63.1.88a7.46,7.46,0,0,1,0,.78,3.56,3.56,0,0,1-1.08,2.32c.6,0,2.11,0,2.71,0a3.55,3.55,0,0,1-1.08-2.32,7.17,7.17,0,0,1,0-.78c0-.26.1-.63.1-.88Z"/><path class="cls-2" d="M13.83,27.25c-.25,0-.4.28-.86.78a2.61,2.61,0,0,1-1.77,1,1.69,1.69,0,0,1-1.4-.58,3.17,3.17,0,0,1-.48-1.12,2.86,2.86,0,0,1,.24-2.15,1.51,1.51,0,0,1,1.95-.6c.32.19.43.43.73.48a.13.13,0,0,0,.15-.16c-.12-.45-.44-.51-.59-1A1.56,1.56,0,0,1,12.43,22a3,3,0,0,1,3.13,0,1.42,1.42,0,0,1,.64,1.72c-.14.5-.43.73-.56,1.16a.18.18,0,0,0,.24.23c.21-.09.33-.29.61-.45a1.51,1.51,0,0,1,1.95.6,2.87,2.87,0,0,1,.24,2.15,3.17,3.17,0,0,1-.48,1.12,1.69,1.69,0,0,1-1.4.58A2.61,2.61,0,0,1,15,28c-.46-.5-.6-.74-.86-.78Z"/><path class="cls-2" d="M26.58,26.61c0,.26.1.63.1.88a7.75,7.75,0,0,1,0,.78,3.55,3.55,0,0,1-1.08,2.32c.6,0,2.11,0,2.71,0a3.56,3.56,0,0,1-1.08-2.32,7.46,7.46,0,0,1,0-.78c0-.26.1-.63.1-.88Z"/><path class="cls-2" d="M26.76,27.25c-.25,0-.4.28-.86.78a2.61,2.61,0,0,1-1.77,1,1.69,1.69,0,0,1-1.4-.58,3.21,3.21,0,0,1-.48-1.12,2.87,2.87,0,0,1,.24-2.15,1.51,1.51,0,0,1,1.95-.6c.32.19.43.43.73.48a.13.13,0,0,0,.14-.16c-.12-.45-.44-.51-.59-1A1.56,1.56,0,0,1,25.36,22a3,3,0,0,1,3.13,0,1.42,1.42,0,0,1,.64,1.72c-.14.5-.43.73-.56,1.16a.18.18,0,0,0,.23.23c.22-.09.33-.29.61-.45a1.51,1.51,0,0,1,1.95.6,2.87,2.87,0,0,1,.24,2.15,3.2,3.2,0,0,1-.48,1.12,1.68,1.68,0,0,1-1.4.58A2.61,2.61,0,0,1,28,28c-.46-.5-.6-.74-.86-.78Z"/><path class="cls-2" d="M27.28,36.17c0-.26-.1-.63-.1-.88a7.46,7.46,0,0,1,0-.78,3.56,3.56,0,0,1,1.08-2.32c-.6,0-2.11,0-2.71,0a3.55,3.55,0,0,1,1.08,2.32,7.74,7.74,0,0,1,0,.78c0,.26-.1.63-.1.88Z"/><path class="cls-2" d="M27.1,35.52c.25,0,.4-.28.86-.78a2.61,2.61,0,0,1,1.77-1,1.68,1.68,0,0,1,1.4.58,3.19,3.19,0,0,1,.48,1.12,2.87,2.87,0,0,1-.24,2.15,1.51,1.51,0,0,1-1.95.6c-.32-.19-.43-.43-.73-.48a.13.13,0,0,0-.14.16c.12.45.44.51.59,1a1.56,1.56,0,0,1-.63,1.94,3,3,0,0,1-3.13,0,1.42,1.42,0,0,1-.64-1.72c.14-.5.43-.73.56-1.16a.18.18,0,0,0-.23-.23c-.22.09-.33.29-.61.45a1.51,1.51,0,0,1-1.95-.6,2.87,2.87,0,0,1-.24-2.15,3.2,3.2,0,0,1,.48-1.12,1.69,1.69,0,0,1,1.4-.58,2.61,2.61,0,0,1,1.77,1c.46.5.6.74.86.78Z"/><path class="cls-2" d="M14.35,36.17c0-.26-.1-.63-.1-.88a7.17,7.17,0,0,1,0-.78,3.55,3.55,0,0,1,1.08-2.32c-.6,0-2.11,0-2.71,0a3.56,3.56,0,0,1,1.08,2.32,7.46,7.46,0,0,1,0,.78c0,.26-.1.63-.1.88Z"/><path class="cls-2" d="M14.17,35.52c.25,0,.4-.28.86-.78a2.61,2.61,0,0,1,1.77-1,1.68,1.68,0,0,1,1.4.58,3.17,3.17,0,0,1,.48,1.12,2.87,2.87,0,0,1-.24,2.15,1.51,1.51,0,0,1-1.95.6c-.32-.19-.43-.43-.73-.48a.13.13,0,0,0-.15.16c.12.45.44.51.59,1a1.56,1.56,0,0,1-.64,1.94,3,3,0,0,1-3.13,0,1.42,1.42,0,0,1-.64-1.72c.14-.5.43-.73.56-1.16a.18.18,0,0,0-.24-.23c-.21.09-.33.29-.61.45a1.51,1.51,0,0,1-1.95-.6,2.86,2.86,0,0,1-.24-2.15,3.16,3.16,0,0,1,.48-1.12,1.69,1.69,0,0,1,1.4-.58,2.61,2.61,0,0,1,1.77,1c.46.5.6.74.86.78Z"/><path class="cls-2" d="M20.42,17.7c0,.26.1.63.1.88a7.17,7.17,0,0,1,0,.78,3.55,3.55,0,0,1-1.08,2.32c.6,0,2.11,0,2.71,0A3.55,3.55,0,0,1,21,19.37a7.45,7.45,0,0,1,0-.78c0-.26.1-.63.1-.88Z"/><path class="cls-2" d="M20.6,18.35c-.25,0-.4.28-.86.78a2.62,2.62,0,0,1-1.77,1,1.68,1.68,0,0,1-1.4-.58,3.17,3.17,0,0,1-.48-1.12,2.86,2.86,0,0,1,.24-2.15,1.51,1.51,0,0,1,1.95-.6c.32.19.43.43.73.48a.13.13,0,0,0,.15-.16c-.12-.45-.44-.51-.59-1a1.56,1.56,0,0,1,.63-1.94,3,3,0,0,1,3.13,0A1.42,1.42,0,0,1,23,14.78c-.14.5-.43.73-.56,1.16a.18.18,0,0,0,.23.23c.22-.09.33-.29.61-.45a1.51,1.51,0,0,1,1.95.6,2.87,2.87,0,0,1,.24,2.15A3.19,3.19,0,0,1,25,19.59a1.69,1.69,0,0,1-1.4.58,2.61,2.61,0,0,1-1.77-1c-.46-.5-.6-.74-.86-.78Z"/><path class="cls-2" d="M20.51,44.58c0-.26-.1-.63-.1-.88a7.41,7.41,0,0,1,0-.78,3.56,3.56,0,0,1,1.08-2.32c-.6,0-2.11,0-2.71,0a3.55,3.55,0,0,1,1.08,2.32,7.2,7.2,0,0,1,0,.78c0,.26-.1.63-.1.88Z"/><path class="cls-2" d="M20.33,43.94c.25,0,.4-.28.86-.78a2.61,2.61,0,0,1,1.77-1,1.69,1.69,0,0,1,1.4.58,3.21,3.21,0,0,1,.48,1.12A2.87,2.87,0,0,1,24.6,46a1.51,1.51,0,0,1-1.95.6c-.32-.19-.43-.43-.73-.48a.13.13,0,0,0-.15.16c.12.45.44.51.59,1a1.56,1.56,0,0,1-.63,1.94,3,3,0,0,1-3.13,0A1.42,1.42,0,0,1,18,47.5c.14-.5.43-.73.56-1.16a.18.18,0,0,0-.24-.23c-.22.09-.33.29-.61.45a1.51,1.51,0,0,1-1.95-.6,2.87,2.87,0,0,1-.24-2.15A3.21,3.21,0,0,1,16,42.7a1.68,1.68,0,0,1,1.4-.58,2.61,2.61,0,0,1,1.77,1c.46.5.6.74.86.78Z"/></g></g></svg>