<svg xmlns="http://www.w3.org/2000/svg" viewBox="0 0 40.93 62.29"><defs><style>.cls-1{fill:#fff;}.cls-2{fill:#d6002b;}</style></defs><title>Fichier 42</title><g id="Calque_2" data-name="Calque 2"><g id="Layer_1" data-name="Layer 1"><rect class="cls-1" x="0.09" y="0.09" width="40.74" height="62.1" rx="3.45" ry="3.45"/><path class="cls-1" d="M37.39,62.29H3.54A3.55,3.55,0,0,1,0,58.74V3.54A3.55,3.55,0,0,1,3.54,0H37.39a3.55,3.55,0,0,1,3.54,3.54v55.2A3.55,3.55,0,0,1,37.39,62.29ZM3.54.19A3.36,3.36,0,0,0,.19,3.54v55.2A3.36,3.36,0,0,0,3.54,62.1H37.39a3.36,3.36,0,0,0,3.36-3.36V3.54A3.36,3.36,0,0,0,37.39.19Z"/><path class="cls-2" d="M5.29,12.71a.25.25,0,0,0,.13,0,15,15,0,0,0,1.3-1.24.21.21,0,0,0,.08-.16.23.23,0,0,0-.08-.12c-.34-.34-.69-.65-1-1-.14-.15-.3-.33-.4-.34H5.26c-.1,0-.26.18-.4.34-.32.35-.67.67-1,1a.23.23,0,0,0-.08.12.21.21,0,0,0,.08.16,15,15,0,0,0,1.3,1.24.25.25,0,0,0,.13,0Z"/><path class="cls-2" d="M35.66,52.24a.25.25,0,0,0,.13,0A14.64,14.64,0,0,0,37.09,51a.21.21,0,0,0,.08-.16.22.22,0,0,0-.08-.12c-.34-.34-.69-.65-1-1-.14-.15-.3-.33-.4-.33h-.05c-.1,0-.26.18-.4.33-.32.36-.67.67-1,1a.22.22,0,0,0-.08.12.21.21,0,0,0,.08.16,14.65,14.65,0,0,0,1.3,1.24.25.25,0,0,0,.13,0Z"/><path class="cls-2" d="M7.32,8.15v.6H3.24v-.6A21.6,21.6,0,0,0,6.12,5.76a1.82,1.82,0,0,0,.46-1.14,1,1,0,0,0-.39-.85,1.39,1.39,0,0,0-2.29,1l-.67-.2A2,2,0,0,1,5.3,2.88a2.07,2.07,0,0,1,1.44.5A1.61,1.61,0,0,1,7.3,4.62a1.92,1.92,0,0,1-.26,1A4.79,4.79,0,0,1,6,6.69a22.34,22.34,0,0,1-1.9,1.46Z"/><path class="cls-2" d="M33.63,54.14v-.6h4.08v.6a21.8,21.8,0,0,0-2.88,2.38,1.82,1.82,0,0,0-.47,1.14,1.05,1.05,0,0,0,.39.85,1.38,1.38,0,0,0,.9.32,1.36,1.36,0,0,0,.93-.36,1.38,1.38,0,0,0,.46-1l.67.2a2,2,0,0,1-2.06,1.69,2.06,2.06,0,0,1-1.44-.51,1.6,1.6,0,0,1-.56-1.23,1.92,1.92,0,0,1,.26-1,4.81,4.81,0,0,1,1-1.11,21.58,21.58,0,0,1,1.9-1.46Z"/><path class="cls-2" d="M20.47,13.21a.78.78,0,0,0,.44-.13A48,48,0,0,0,25.18,9a.69.69,0,0,0,.26-.52.72.72,0,0,0-.25-.4C24.08,7,22.91,5.92,21.87,4.76c-.45-.5-1-1.08-1.31-1.1h-.17c-.33,0-.87.6-1.31,1.1C18,5.92,16.85,7,15.75,8.07a.72.72,0,0,0-.25.4.69.69,0,0,0,.26.52A48,48,0,0,0,20,13.08a.78.78,0,0,0,.44.13Z"/><path class="cls-2" d="M20.46,49.08a.79.79,0,0,0-.44.13,48.32,48.32,0,0,0-4.27,4.09.69.69,0,0,0-.26.52.71.71,0,0,0,.25.4c1.11,1.11,2.28,2.15,3.32,3.31.45.5,1,1.08,1.31,1.1h.17c.33,0,.87-.6,1.31-1.1,1-1.16,2.21-2.21,3.32-3.31a.72.72,0,0,0,.25-.4.69.69,0,0,0-.26-.52,48.32,48.32,0,0,0-4.27-4.09.79.79,0,0,0-.44-.13Z"/></g></g></svg>