<svg xmlns="http://www.w3.org/2000/svg" viewBox="0 0 40.93 62.29"><defs><style>.cls-1{fill:#fff;}.cls-2{fill:#0c0a35;}</style></defs><title>Fichier 29</title><g id="Calque_2" data-name="Calque 2"><g id="Layer_1" data-name="Layer 1"><rect class="cls-1" x="0.09" y="0.09" width="40.74" height="62.1" rx="3.45" ry="3.45"/><path class="cls-1" d="M37.39,62.29H3.54A3.55,3.55,0,0,1,0,58.74V3.54A3.55,3.55,0,0,1,3.54,0H37.39a3.55,3.55,0,0,1,3.54,3.54v55.2A3.55,3.55,0,0,1,37.39,62.29ZM3.54.19A3.36,3.36,0,0,0,.19,3.54v55.2A3.36,3.36,0,0,0,3.54,62.1H37.39a3.36,3.36,0,0,0,3.36-3.36V3.54A3.36,3.36,0,0,0,37.39.19Z"/><path class="cls-2" d="M35.44,50.65c0-.1,0-.25,0-.35a2.78,2.78,0,0,0,0-.31,1.42,1.42,0,0,0-.43-.93c.24,0,.84,0,1.08,0a1.42,1.42,0,0,0-.43.93,2.93,2.93,0,0,0,0,.31c0,.1,0,.25,0,.35Z"/><path class="cls-2" d="M35.53,50.26a1.16,1.16,0,0,0-1-.54.89.89,0,0,0-.84.68,1.11,1.11,0,0,0,.33.93,4.5,4.5,0,0,0,.84.61,4.64,4.64,0,0,1,.7.67,8.81,8.81,0,0,1,.7-.66,6.54,6.54,0,0,0,.84-.62,1.11,1.11,0,0,0,.33-.93.89.89,0,0,0-.84-.68,1.16,1.16,0,0,0-1,.54Z"/><path class="cls-2" d="M5.36,11.36c0,.1,0,.25,0,.35a2.77,2.77,0,0,0,0,.31,1.42,1.42,0,0,0,.43.93c-.24,0-.84,0-1.08,0A1.42,1.42,0,0,0,5.11,12a3,3,0,0,0,0-.31c0-.1,0-.25,0-.35Z"/><path class="cls-2" d="M5.27,11.75a1.16,1.16,0,0,0,1,.54.9.9,0,0,0,.84-.68,1.11,1.11,0,0,0-.33-.93,4.49,4.49,0,0,0-.84-.61,4.71,4.71,0,0,1-.7-.67,9.14,9.14,0,0,1-.7.66,6.51,6.51,0,0,0-.84.62,1.11,1.11,0,0,0-.33.93.9.9,0,0,0,.84.68,1.16,1.16,0,0,0,1-.54Z"/><path class="cls-2" d="M7.32,8.15v.6H3.24v-.6A21.61,21.61,0,0,0,6.12,5.76a1.82,1.82,0,0,0,.46-1.14,1,1,0,0,0-.39-.85,1.39,1.39,0,0,0-2.29,1l-.67-.2A2,2,0,0,1,5.3,2.88a2.07,2.07,0,0,1,1.44.5A1.61,1.61,0,0,1,7.3,4.62a1.92,1.92,0,0,1-.26,1A4.79,4.79,0,0,1,6,6.69a22.36,22.36,0,0,1-1.9,1.46Z"/><path class="cls-2" d="M33.63,54.14v-.6h4.08v.6a21.8,21.8,0,0,0-2.88,2.38,1.82,1.82,0,0,0-.47,1.14,1,1,0,0,0,.39.85,1.4,1.4,0,0,0,1.83,0,1.39,1.39,0,0,0,.46-1l.67.2a2,2,0,0,1-2.06,1.69,2.06,2.06,0,0,1-1.44-.51,1.6,1.6,0,0,1-.56-1.23,1.93,1.93,0,0,1,.26-1,4.81,4.81,0,0,1,1-1.11,22,22,0,0,1,1.9-1.46Z"/><path class="cls-2" d="M20.82,8.19c0,.26-.1.63-.1.88a7.23,7.23,0,0,0,0,.78,3.55,3.55,0,0,0,1.08,2.32c-.6,0-2.11,0-2.71,0a3.56,3.56,0,0,0,1.08-2.32,7.47,7.47,0,0,0,0-.78c0-.26-.1-.62-.1-.88Z"/><path class="cls-2" d="M20.59,9.16A2.91,2.91,0,0,0,23,10.52a2.25,2.25,0,0,0,2.11-1.7,2.77,2.77,0,0,0-.83-2.34A11,11,0,0,0,22.22,5a11.75,11.75,0,0,1-1.76-1.68,22.53,22.53,0,0,1-1.75,1.65A15.91,15.91,0,0,0,16.6,6.49a2.77,2.77,0,0,0-.83,2.34,2.25,2.25,0,0,0,2.11,1.7,2.91,2.91,0,0,0,2.45-1.36Z"/><path class="cls-2" d="M20.12,54.1c0-.26.1-.63.1-.88a7.43,7.43,0,0,0,0-.78,3.55,3.55,0,0,0-1.08-2.32c.6,0,2.11,0,2.71,0a3.55,3.55,0,0,0-1.08,2.32,7.32,7.32,0,0,0,0,.78c0,.26.1.63.1.88Z"/><path class="cls-2" d="M20.34,53.12a2.9,2.9,0,0,0-2.45-1.36,2.25,2.25,0,0,0-2.11,1.7,2.77,2.77,0,0,0,.83,2.34,11.1,11.1,0,0,0,2.1,1.52A11.74,11.74,0,0,1,20.47,59a22.55,22.55,0,0,1,1.75-1.65,16.06,16.06,0,0,0,2.11-1.54,2.77,2.77,0,0,0,.83-2.34A2.25,2.25,0,0,0,23,51.76a2.9,2.9,0,0,0-2.45,1.36Z"/></g></g></svg>