<svg xmlns="http://www.w3.org/2000/svg" viewBox="0 0 40.93 62.29"><defs><style>.cls-1{fill:#fff;}.cls-2{fill:#0c0a35;}</style></defs><title>Fichier 30</title><g id="Calque_2" data-name="Calque 2"><g id="Layer_1" data-name="Layer 1"><rect class="cls-1" x="0.09" y="0.09" width="40.74" height="62.1" rx="3.45" ry="3.45"/><path class="cls-1" d="M37.39,62.29H3.54A3.55,3.55,0,0,1,0,58.74V3.54A3.55,3.55,0,0,1,3.54,0H37.39a3.55,3.55,0,0,1,3.54,3.54v55.2A3.55,3.55,0,0,1,37.39,62.29ZM3.54.19A3.36,3.36,0,0,0,.19,3.54v55.2A3.36,3.36,0,0,0,3.54,62.1H37.39a3.36,3.36,0,0,0,3.36-3.36V3.54A3.36,3.36,0,0,0,37.39.19Z"/><path class="cls-2" d="M35.44,50.65c0-.1,0-.25,0-.35a3.07,3.07,0,0,0,0-.31,1.42,1.42,0,0,0-.43-.93c.24,0,.84,0,1.08,0a1.42,1.42,0,0,0-.43.93,3.07,3.07,0,0,0,0,.31c0,.1,0,.25,0,.35Z"/><path class="cls-2" d="M35.53,50.26a1.16,1.16,0,0,0-1-.54.9.9,0,0,0-.84.68,1.11,1.11,0,0,0,.33.93,4.48,4.48,0,0,0,.84.61,4.63,4.63,0,0,1,.7.67,8.87,8.87,0,0,1,.7-.66,6.52,6.52,0,0,0,.84-.62,1.11,1.11,0,0,0,.33-.93.89.89,0,0,0-.84-.68,1.16,1.16,0,0,0-1,.54Z"/><path class="cls-2" d="M5.36,11.36c0,.1,0,.25,0,.35a2.77,2.77,0,0,0,0,.31,1.42,1.42,0,0,0,.43.93c-.24,0-.84,0-1.08,0A1.42,1.42,0,0,0,5.11,12a3,3,0,0,0,0-.31c0-.1,0-.25,0-.35Z"/><path class="cls-2" d="M5.27,11.75a1.16,1.16,0,0,0,1,.54.9.9,0,0,0,.84-.68,1.11,1.11,0,0,0-.33-.93,4.5,4.5,0,0,0-.84-.61,4.7,4.7,0,0,1-.7-.67,9.14,9.14,0,0,1-.7.66,6.55,6.55,0,0,0-.84.62,1.11,1.11,0,0,0-.33.93.9.9,0,0,0,.84.68,1.16,1.16,0,0,0,1-.54Z"/><path class="cls-2" d="M4.46,6V5.47h.66a1.46,1.46,0,0,0,1-.3,1,1,0,0,0,.31-.72.89.89,0,0,0-.35-.74,1.36,1.36,0,0,0-.87-.27,1.34,1.34,0,0,0-1.34.94L3.25,4.2A2,2,0,0,1,5.31,2.88a2,2,0,0,1,1.36.45,1.39,1.39,0,0,1,.52,1.08,1.27,1.27,0,0,1-.31.85,1.36,1.36,0,0,1-.8.46A1.68,1.68,0,0,1,7,6.18a1.31,1.31,0,0,1,.39,1,1.52,1.52,0,0,1-.59,1.21,2.42,2.42,0,0,1-1.6.49,2.43,2.43,0,0,1-1.38-.38,2,2,0,0,1-.79-1l.67-.22a1.39,1.39,0,0,0,1.49,1,1.56,1.56,0,0,0,1.11-.33,1.07,1.07,0,0,0,.34-.79,1,1,0,0,0-.41-.81A1.85,1.85,0,0,0,5.12,6Z"/><path class="cls-2" d="M36.49,56.25v.57h-.66a1.46,1.46,0,0,0-1,.3,1,1,0,0,0-.31.72.9.9,0,0,0,.35.74,1.36,1.36,0,0,0,.87.27A1.34,1.34,0,0,0,37,57.9l.65.19a2,2,0,0,1-2.05,1.32A2,2,0,0,1,34.28,59a1.38,1.38,0,0,1-.52-1.08,1.27,1.27,0,0,1,.31-.85,1.35,1.35,0,0,1,.8-.46,1.69,1.69,0,0,1-.94-.46,1.31,1.31,0,0,1-.39-1,1.52,1.52,0,0,1,.59-1.21,2.79,2.79,0,0,1,3-.11,2,2,0,0,1,.79,1l-.67.22a1.39,1.39,0,0,0-1.5-1,1.56,1.56,0,0,0-1.11.33,1.07,1.07,0,0,0-.34.79,1,1,0,0,0,.41.81,1.85,1.85,0,0,0,1.14.31Z"/><path class="cls-2" d="M20.82,8.19c0,.26-.1.63-.1.88a7.36,7.36,0,0,0,0,.78,3.56,3.56,0,0,0,1.08,2.32c-.6,0-2.11,0-2.71,0a3.56,3.56,0,0,0,1.08-2.32,7.23,7.23,0,0,0,0-.78c0-.26-.1-.62-.1-.88Z"/><path class="cls-2" d="M20.59,9.16A2.91,2.91,0,0,0,23,10.52a2.25,2.25,0,0,0,2.11-1.7,2.77,2.77,0,0,0-.83-2.34A11,11,0,0,0,22.22,5a11.74,11.74,0,0,1-1.76-1.68,22.59,22.59,0,0,1-1.75,1.65A15.89,15.89,0,0,0,16.6,6.49a2.77,2.77,0,0,0-.83,2.34,2.25,2.25,0,0,0,2.11,1.7,2.91,2.91,0,0,0,2.45-1.36Z"/><path class="cls-2" d="M20.12,54.1c0-.26.1-.63.1-.88a7.19,7.19,0,0,0,0-.78,3.54,3.54,0,0,0-1.08-2.32c.6,0,2.11,0,2.71,0a3.55,3.55,0,0,0-1.08,2.32,7.32,7.32,0,0,0,0,.78c0,.26.1.63.1.88Z"/><path class="cls-2" d="M20.34,53.12a2.9,2.9,0,0,0-2.45-1.36,2.25,2.25,0,0,0-2.11,1.7,2.77,2.77,0,0,0,.83,2.34,11.12,11.12,0,0,0,2.1,1.52A11.73,11.73,0,0,1,20.47,59a22.49,22.49,0,0,1,1.75-1.65,16.09,16.09,0,0,0,2.11-1.54,2.77,2.77,0,0,0,.83-2.34A2.25,2.25,0,0,0,23,51.76a2.9,2.9,0,0,0-2.45,1.36Z"/><path class="cls-2" d="M20.82,31.58c0,.26-.1.63-.1.88a7.36,7.36,0,0,0,0,.78,3.56,3.56,0,0,0,1.08,2.32c-.6,0-2.11,0-2.71,0a3.56,3.56,0,0,0,1.08-2.32,7.23,7.23,0,0,0,0-.78c0-.26-.1-.62-.1-.88Z"/><path class="cls-2" d="M20.59,32.56A2.9,2.9,0,0,0,23,33.92a2.25,2.25,0,0,0,2.11-1.7,2.77,2.77,0,0,0-.83-2.34,11,11,0,0,0-2.1-1.52,11.75,11.75,0,0,1-1.76-1.68,22.61,22.61,0,0,1-1.75,1.65,15.89,15.89,0,0,0-2.11,1.54,2.77,2.77,0,0,0-.83,2.34,2.25,2.25,0,0,0,2.11,1.7,2.9,2.9,0,0,0,2.45-1.36Z"/></g></g></svg>