<svg xmlns="http://www.w3.org/2000/svg" viewBox="0 0 40.93 62.29"><defs><style>.cls-1{fill:#fff;}.cls-2{fill:#0c0a35;}</style></defs><title>Fichier 33</title><g id="Calque_2" data-name="Calque 2"><g id="Layer_1" data-name="Layer 1"><rect class="cls-1" x="0.09" y="0.09" width="40.74" height="62.1" rx="3.45" ry="3.45"/><path class="cls-1" d="M37.39,62.29H3.54A3.55,3.55,0,0,1,0,58.74V3.54A3.55,3.55,0,0,1,3.54,0H37.39a3.55,3.55,0,0,1,3.54,3.54v55.2A3.55,3.55,0,0,1,37.39,62.29ZM3.54.19A3.36,3.36,0,0,0,.19,3.54v55.2A3.36,3.36,0,0,0,3.54,62.1H37.39a3.36,3.36,0,0,0,3.36-3.36V3.54A3.36,3.36,0,0,0,37.39.19Z"/><path class="cls-2" d="M35.44,50.65c0-.1,0-.25,0-.35a2.81,2.81,0,0,0,0-.31,1.42,1.42,0,0,0-.43-.93c.24,0,.84,0,1.08,0a1.42,1.42,0,0,0-.43.93c0,.11,0,.21,0,.31s0,.25,0,.35Z"/><path class="cls-2" d="M35.53,50.26a1.16,1.16,0,0,0-1-.54.89.89,0,0,0-.84.68,1.11,1.11,0,0,0,.33.93,4.48,4.48,0,0,0,.84.61,4.64,4.64,0,0,1,.7.67,8.92,8.92,0,0,1,.7-.66,6.47,6.47,0,0,0,.84-.62,1.11,1.11,0,0,0,.33-.93.9.9,0,0,0-.84-.68,1.16,1.16,0,0,0-1,.54Z"/><path class="cls-2" d="M5.36,11.36c0,.1,0,.25,0,.35a2.9,2.9,0,0,0,0,.31,1.42,1.42,0,0,0,.43.93c-.24,0-.84,0-1.08,0A1.42,1.42,0,0,0,5.11,12a2.77,2.77,0,0,0,0-.31c0-.1,0-.25,0-.35Z"/><path class="cls-2" d="M5.27,11.75a1.16,1.16,0,0,0,1,.54.9.9,0,0,0,.84-.68,1.11,1.11,0,0,0-.33-.93,4.5,4.5,0,0,0-.84-.61,4.73,4.73,0,0,1-.7-.67,9.11,9.11,0,0,1-.7.66,6.52,6.52,0,0,0-.84.62,1.11,1.11,0,0,0-.33.93.9.9,0,0,0,.84.68,1.16,1.16,0,0,0,1-.54Z"/><path class="cls-2" d="M7.22,4.17l-.65.18a1.21,1.21,0,0,0-1.21-.87q-1.62,0-1.65,2.67a1.85,1.85,0,0,1,.73-.88,1.89,1.89,0,0,1,1-.29,1.8,1.8,0,0,1,1.34.56,1.86,1.86,0,0,1,.54,1.34,1.93,1.93,0,0,1-.58,1.4,2,2,0,0,1-1.47.59,2,2,0,0,1-1.62-.77A3.3,3.3,0,0,1,3,6a4.08,4.08,0,0,1,.57-2.21,1.93,1.93,0,0,1,1.77-.91A1.8,1.8,0,0,1,7.22,4.17Zm-2,4.12A1.38,1.38,0,0,0,6.27,6a1.26,1.26,0,0,0-.95-.4A1.41,1.41,0,0,0,4.3,6a1.33,1.33,0,0,0,1,2.31Z"/><path class="cls-2" d="M33.54,58.12l.65-.18a1.21,1.21,0,0,0,1.21.88q1.62,0,1.66-2.67a1.83,1.83,0,0,1-.73.88,1.89,1.89,0,0,1-1,.29A1.79,1.79,0,0,1,34,56.75a1.85,1.85,0,0,1-.54-1.34A1.93,1.93,0,0,1,34,54a2.12,2.12,0,0,1,3.1.18,3.3,3.3,0,0,1,.6,2.09,4.09,4.09,0,0,1-.57,2.21,1.93,1.93,0,0,1-1.77.91A1.8,1.8,0,0,1,33.54,58.12Zm2-4.11a1.33,1.33,0,0,0-1,.4,1.39,1.39,0,0,0,0,1.92,1.26,1.26,0,0,0,.95.4,1.42,1.42,0,0,0,1-.42,1.32,1.32,0,0,0,.43-1,1.3,1.3,0,0,0-.39-.92A1.32,1.32,0,0,0,35.5,54Z"/><path class="cls-2" d="M14.6,8.19c0,.26-.1.63-.1.88a7.35,7.35,0,0,0,0,.78,3.55,3.55,0,0,0,1.08,2.32c-.6,0-2.11,0-2.71,0A3.56,3.56,0,0,0,14,9.85a7.36,7.36,0,0,0,0-.78c0-.26-.1-.62-.1-.88Z"/><path class="cls-2" d="M14.38,9.16a2.91,2.91,0,0,0,2.45,1.36,2.25,2.25,0,0,0,2.11-1.7,2.77,2.77,0,0,0-.83-2.34A11,11,0,0,0,16,5a11.73,11.73,0,0,1-1.76-1.68A22.49,22.49,0,0,1,12.5,4.94a15.91,15.91,0,0,0-2.11,1.54,2.77,2.77,0,0,0-.83,2.34,2.25,2.25,0,0,0,2.11,1.7,2.91,2.91,0,0,0,2.45-1.36Z"/><path class="cls-2" d="M27,8.19c0,.26-.1.63-.1.88a7.23,7.23,0,0,0,0,.78A3.55,3.55,0,0,0,28,12.18c-.6,0-2.11,0-2.71,0A3.55,3.55,0,0,0,26.4,9.85a7.23,7.23,0,0,0,0-.78c0-.26-.1-.62-.1-.88Z"/><path class="cls-2" d="M26.81,9.16a2.91,2.91,0,0,0,2.45,1.36,2.25,2.25,0,0,0,2.11-1.7,2.77,2.77,0,0,0-.83-2.34A11.06,11.06,0,0,0,28.44,5a11.7,11.7,0,0,1-1.76-1.68,22.49,22.49,0,0,1-1.75,1.65,16,16,0,0,0-2.11,1.54A2.77,2.77,0,0,0,22,8.82a2.25,2.25,0,0,0,2.11,1.7,2.91,2.91,0,0,0,2.45-1.36Z"/><path class="cls-2" d="M14.6,31.58c0,.26-.1.63-.1.88a7.35,7.35,0,0,0,0,.78,3.55,3.55,0,0,0,1.08,2.32c-.6,0-2.11,0-2.71,0A3.56,3.56,0,0,0,14,33.25a7.36,7.36,0,0,0,0-.78c0-.26-.1-.62-.1-.88Z"/><path class="cls-2" d="M14.38,32.56a2.9,2.9,0,0,0,2.45,1.36,2.25,2.25,0,0,0,2.11-1.7,2.77,2.77,0,0,0-.83-2.34A11,11,0,0,0,16,28.37a11.73,11.73,0,0,1-1.76-1.68,22.51,22.51,0,0,1-1.75,1.65,15.91,15.91,0,0,0-2.11,1.54,2.77,2.77,0,0,0-.83,2.34,2.25,2.25,0,0,0,2.11,1.7,2.9,2.9,0,0,0,2.45-1.36Z"/><path class="cls-2" d="M27,31.58c0,.26-.1.63-.1.88a7.23,7.23,0,0,0,0,.78A3.55,3.55,0,0,0,28,35.57c-.6,0-2.11,0-2.71,0a3.55,3.55,0,0,0,1.08-2.32,7.23,7.23,0,0,0,0-.78c0-.26-.1-.62-.1-.88Z"/><path class="cls-2" d="M26.81,32.56a2.9,2.9,0,0,0,2.45,1.36,2.25,2.25,0,0,0,2.11-1.7,2.77,2.77,0,0,0-.83-2.34,11.06,11.06,0,0,0-2.1-1.52,11.71,11.71,0,0,1-1.76-1.68,22.51,22.51,0,0,1-1.75,1.65,16,16,0,0,0-2.11,1.54A2.77,2.77,0,0,0,22,32.22a2.25,2.25,0,0,0,2.11,1.7,2.9,2.9,0,0,0,2.45-1.36Z"/><path class="cls-2" d="M26.33,54.1c0-.26.1-.63.1-.88a7.19,7.19,0,0,0,0-.78,3.55,3.55,0,0,0-1.08-2.32c.6,0,2.11,0,2.71,0A3.55,3.55,0,0,0,27,52.43a7.19,7.19,0,0,0,0,.78c0,.26.1.63.1.88Z"/><path class="cls-2" d="M26.55,53.12a2.9,2.9,0,0,0-2.45-1.36A2.25,2.25,0,0,0,22,53.46a2.77,2.77,0,0,0,.83,2.34,11.14,11.14,0,0,0,2.1,1.52A11.73,11.73,0,0,1,26.68,59a22.49,22.49,0,0,1,1.75-1.65,16.13,16.13,0,0,0,2.11-1.54,2.77,2.77,0,0,0,.83-2.34,2.25,2.25,0,0,0-2.11-1.7,2.9,2.9,0,0,0-2.45,1.36Z"/><path class="cls-2" d="M13.9,54.1c0-.26.1-.63.1-.88a7.32,7.32,0,0,0,0-.78,3.55,3.55,0,0,0-1.08-2.32c.6,0,2.11,0,2.71,0a3.55,3.55,0,0,0-1.08,2.32,7.32,7.32,0,0,0,0,.78c0,.26.1.63.1.88Z"/><path class="cls-2" d="M14.12,53.12a2.9,2.9,0,0,0-2.45-1.36,2.25,2.25,0,0,0-2.11,1.7,2.78,2.78,0,0,0,.83,2.34,11.13,11.13,0,0,0,2.1,1.52A11.74,11.74,0,0,1,14.25,59,22.59,22.59,0,0,1,16,57.35a16.13,16.13,0,0,0,2.11-1.54,2.77,2.77,0,0,0,.83-2.34,2.25,2.25,0,0,0-2.11-1.7,2.9,2.9,0,0,0-2.45,1.36Z"/></g></g></svg>