<svg xmlns="http://www.w3.org/2000/svg" viewBox="0 0 40.93 62.29"><defs><style>.cls-1{fill:#fff;}.cls-2{fill:#d6002b;}</style></defs><title>Fichier 47</title><g id="Calque_2" data-name="Calque 2"><g id="Layer_1" data-name="Layer 1"><rect class="cls-1" x="0.09" y="0.09" width="40.74" height="62.1" rx="3.45" ry="3.45"/><path class="cls-1" d="M37.39,62.29H3.54A3.55,3.55,0,0,1,0,58.74V3.54A3.55,3.55,0,0,1,3.54,0H37.39a3.55,3.55,0,0,1,3.54,3.54v55.2A3.55,3.55,0,0,1,37.39,62.29ZM3.54.19A3.36,3.36,0,0,0,.19,3.54v55.2A3.36,3.36,0,0,0,3.54,62.1H37.39a3.36,3.36,0,0,0,3.36-3.36V3.54A3.36,3.36,0,0,0,37.39.19Z"/><path class="cls-2" d="M5.29,12.71a.25.25,0,0,0,.13,0,14.92,14.92,0,0,0,1.3-1.24.21.21,0,0,0,.08-.16.23.23,0,0,0-.08-.12c-.34-.34-.69-.65-1-1-.14-.15-.3-.33-.4-.34H5.26c-.1,0-.26.18-.4.34-.32.35-.67.67-1,1a.23.23,0,0,0-.08.12.21.21,0,0,0,.08.16,15,15,0,0,0,1.3,1.24.25.25,0,0,0,.13,0Z"/><path class="cls-2" d="M35.66,52.24a.25.25,0,0,0,.13,0A14.58,14.58,0,0,0,37.09,51a.21.21,0,0,0,.08-.16.21.21,0,0,0-.08-.12c-.34-.34-.69-.65-1-1-.14-.15-.3-.33-.4-.33h-.05c-.1,0-.26.18-.4.33-.32.36-.67.67-1,1a.22.22,0,0,0-.08.12.21.21,0,0,0,.08.16,14.73,14.73,0,0,0,1.3,1.24.25.25,0,0,0,.13,0Z"/><path class="cls-2" d="M5.4,8.74H4.66a7,7,0,0,1,.59-2.81A8.23,8.23,0,0,1,6.69,3.63H3.57L3.64,3h3.8v.43A9.11,9.11,0,0,0,5.9,6,7.15,7.15,0,0,0,5.4,8.54S5.4,8.66,5.4,8.74Z"/><path class="cls-2" d="M35.36,53.54h.74a7,7,0,0,1-.59,2.81,8.23,8.23,0,0,1-1.44,2.3h3.12l-.07.63h-3.8v-.43a9.11,9.11,0,0,0,1.54-2.58,7.15,7.15,0,0,0,.51-2.54S35.36,53.63,35.36,53.54Z"/><path class="cls-2" d="M14.1,13.21a.77.77,0,0,0,.44-.13A48,48,0,0,0,18.81,9a.69.69,0,0,0,.26-.52.72.72,0,0,0-.25-.4C17.71,7,16.54,5.92,15.5,4.76c-.45-.5-1-1.08-1.32-1.1H14c-.33,0-.87.6-1.32,1.1-1,1.17-2.21,2.21-3.32,3.31a.72.72,0,0,0-.25.4A.69.69,0,0,0,9.39,9a48,48,0,0,0,4.27,4.09.78.78,0,0,0,.44.13Z"/><path class="cls-2" d="M26.83,13.21a.78.78,0,0,0,.44-.13A48,48,0,0,0,31.54,9a.69.69,0,0,0,.26-.52.72.72,0,0,0-.25-.4C30.44,7,29.27,5.92,28.23,4.76c-.45-.5-1-1.08-1.32-1.1h-.17c-.33,0-.87.6-1.31,1.1-1,1.17-2.21,2.21-3.32,3.31a.73.73,0,0,0-.25.4.69.69,0,0,0,.26.52,47.92,47.92,0,0,0,4.27,4.09.77.77,0,0,0,.44.13Z"/><path class="cls-2" d="M14.1,35.92a.79.79,0,0,0,.44-.13,48.33,48.33,0,0,0,4.27-4.09.68.68,0,0,0,.26-.52.73.73,0,0,0-.25-.4c-1.11-1.1-2.28-2.15-3.32-3.31-.45-.5-1-1.08-1.32-1.1H14c-.33,0-.87.6-1.32,1.1-1,1.17-2.21,2.21-3.32,3.31a.74.74,0,0,0-.25.4.68.68,0,0,0,.26.52,48.31,48.31,0,0,0,4.27,4.09.79.79,0,0,0,.44.13Z"/><path class="cls-2" d="M26.83,35.92a.79.79,0,0,0,.44-.13,48.33,48.33,0,0,0,4.27-4.09.68.68,0,0,0,.26-.52.73.73,0,0,0-.25-.4c-1.11-1.1-2.28-2.15-3.32-3.31-.45-.5-1-1.08-1.32-1.1h-.17c-.33,0-.87.6-1.31,1.1-1,1.17-2.21,2.21-3.32,3.31a.74.74,0,0,0-.25.4.68.68,0,0,0,.26.52,48.2,48.2,0,0,0,4.27,4.09.79.79,0,0,0,.44.13Z"/><path class="cls-2" d="M27.45,49.08a.79.79,0,0,0-.44.13,48.2,48.2,0,0,0-4.27,4.09.68.68,0,0,0-.26.52.71.71,0,0,0,.25.4c1.11,1.11,2.28,2.15,3.32,3.31.45.5,1,1.08,1.32,1.1h.17c.33,0,.87-.6,1.31-1.1,1-1.16,2.21-2.21,3.32-3.31a.72.72,0,0,0,.25-.4.68.68,0,0,0-.26-.52,48.33,48.33,0,0,0-4.27-4.09.79.79,0,0,0-.44-.13Z"/><path class="cls-2" d="M14.72,49.08a.79.79,0,0,0-.44.13A48.26,48.26,0,0,0,10,53.3a.69.69,0,0,0-.26.52.72.72,0,0,0,.25.4c1.11,1.11,2.28,2.15,3.32,3.31.45.5,1,1.08,1.32,1.1h.17c.33,0,.87-.6,1.32-1.1,1-1.16,2.21-2.21,3.32-3.31a.71.71,0,0,0,.25-.4.68.68,0,0,0-.26-.52,48.27,48.27,0,0,0-4.27-4.09.79.79,0,0,0-.44-.13Z"/><path class="cls-2" d="M20.28,24.31a.78.78,0,0,0,.44-.13A48.27,48.27,0,0,0,25,20.09a.69.69,0,0,0,.26-.52.72.72,0,0,0-.25-.4c-1.11-1.11-2.28-2.15-3.32-3.31-.45-.5-1-1.08-1.32-1.1h-.17c-.33,0-.87.6-1.32,1.1-1,1.17-2.21,2.21-3.32,3.31a.72.72,0,0,0-.25.4.69.69,0,0,0,.26.52,48.27,48.27,0,0,0,4.27,4.09.78.78,0,0,0,.44.13Z"/><path class="cls-2" d="M14.1,13.21a.77.77,0,0,0,.44-.13A48,48,0,0,0,18.81,9a.69.69,0,0,0,.26-.52.72.72,0,0,0-.25-.4C17.71,7,16.54,5.92,15.5,4.76c-.45-.5-1-1.08-1.32-1.1H14c-.33,0-.87.6-1.32,1.1-1,1.17-2.21,2.21-3.32,3.31a.72.72,0,0,0-.25.4A.69.69,0,0,0,9.39,9a48,48,0,0,0,4.27,4.09.78.78,0,0,0,.44.13Z"/><path class="cls-2" d="M26.83,13.21a.78.78,0,0,0,.44-.13A48,48,0,0,0,31.54,9a.69.69,0,0,0,.26-.52.72.72,0,0,0-.25-.4C30.44,7,29.27,5.92,28.23,4.76c-.45-.5-1-1.08-1.32-1.1h-.17c-.33,0-.87.6-1.31,1.1-1,1.17-2.21,2.21-3.32,3.31a.73.73,0,0,0-.25.4.69.69,0,0,0,.26.52,47.92,47.92,0,0,0,4.27,4.09.77.77,0,0,0,.44.13Z"/><path class="cls-2" d="M14.1,35.92a.79.79,0,0,0,.44-.13,48.33,48.33,0,0,0,4.27-4.09.68.68,0,0,0,.26-.52.73.73,0,0,0-.25-.4c-1.11-1.1-2.28-2.15-3.32-3.31-.45-.5-1-1.08-1.32-1.1H14c-.33,0-.87.6-1.32,1.1-1,1.17-2.21,2.21-3.32,3.31a.74.74,0,0,0-.25.4.68.68,0,0,0,.26.52,48.31,48.31,0,0,0,4.27,4.09.79.79,0,0,0,.44.13Z"/><path class="cls-2" d="M26.83,35.92a.79.79,0,0,0,.44-.13,48.33,48.33,0,0,0,4.27-4.09.68.68,0,0,0,.26-.52.73.73,0,0,0-.25-.4c-1.11-1.1-2.28-2.15-3.32-3.31-.45-.5-1-1.08-1.32-1.1h-.17c-.33,0-.87.6-1.31,1.1-1,1.17-2.21,2.21-3.32,3.31a.74.74,0,0,0-.25.4.68.68,0,0,0,.26.52,48.2,48.2,0,0,0,4.27,4.09.79.79,0,0,0,.44.13Z"/><path class="cls-2" d="M27.45,49.08a.79.79,0,0,0-.44.13,48.2,48.2,0,0,0-4.27,4.09.68.68,0,0,0-.26.52.71.71,0,0,0,.25.4c1.11,1.11,2.28,2.15,3.32,3.31.45.5,1,1.08,1.32,1.1h.17c.33,0,.87-.6,1.31-1.1,1-1.16,2.21-2.21,3.32-3.31a.72.72,0,0,0,.25-.4.68.68,0,0,0-.26-.52,48.33,48.33,0,0,0-4.27-4.09.79.79,0,0,0-.44-.13Z"/><path class="cls-2" d="M14.72,49.08a.79.79,0,0,0-.44.13A48.26,48.26,0,0,0,10,53.3a.69.69,0,0,0-.26.52.72.72,0,0,0,.25.4c1.11,1.11,2.28,2.15,3.32,3.31.45.5,1,1.08,1.32,1.1h.17c.33,0,.87-.6,1.32-1.1,1-1.16,2.21-2.21,3.32-3.31a.71.71,0,0,0,.25-.4.68.68,0,0,0-.26-.52,48.27,48.27,0,0,0-4.27-4.09.79.79,0,0,0-.44-.13Z"/><path class="cls-2" d="M20.28,24.31a.78.78,0,0,0,.44-.13A48.27,48.27,0,0,0,25,20.09a.69.69,0,0,0,.26-.52.72.72,0,0,0-.25-.4c-1.11-1.11-2.28-2.15-3.32-3.31-.45-.5-1-1.08-1.32-1.1h-.17c-.33,0-.87.6-1.32,1.1-1,1.17-2.21,2.21-3.32,3.31a.72.72,0,0,0-.25.4.69.69,0,0,0,.26.52,48.27,48.27,0,0,0,4.27,4.09.78.78,0,0,0,.44.13Z"/></g></g></svg>