<svg xmlns="http://www.w3.org/2000/svg" viewBox="0 0 40.93 62.29"><defs><style>.cls-1{fill:#fff;}.cls-2{fill:#d6002b;}</style></defs><title>Fichier 48</title><g id="Calque_2" data-name="Calque 2"><g id="Layer_1" data-name="Layer 1"><rect class="cls-1" x="0.09" y="0.09" width="40.74" height="62.1" rx="3.45" ry="3.45"/><path class="cls-1" d="M37.39,62.29H3.54A3.55,3.55,0,0,1,0,58.74V3.54A3.55,3.55,0,0,1,3.54,0H37.39a3.55,3.55,0,0,1,3.54,3.54v55.2A3.55,3.55,0,0,1,37.39,62.29ZM3.54.19A3.36,3.36,0,0,0,.19,3.54v55.2A3.36,3.36,0,0,0,3.54,62.1H37.39a3.36,3.36,0,0,0,3.36-3.36V3.54A3.36,3.36,0,0,0,37.39.19Z"/><path class="cls-2" d="M5.29,12.71a.25.25,0,0,0,.13,0,15,15,0,0,0,1.3-1.24.21.21,0,0,0,.08-.16.23.23,0,0,0-.08-.12c-.34-.34-.69-.65-1-1-.14-.15-.3-.33-.4-.34H5.26c-.1,0-.26.18-.4.34-.32.35-.67.67-1,1a.23.23,0,0,0-.08.12.21.21,0,0,0,.08.16,15,15,0,0,0,1.3,1.24.25.25,0,0,0,.13,0Z"/><path class="cls-2" d="M35.66,52.24a.25.25,0,0,0,.13,0A14.71,14.71,0,0,0,37.09,51a.2.2,0,0,0,.08-.16.21.21,0,0,0-.08-.12c-.34-.34-.69-.65-1-1-.14-.15-.3-.33-.4-.33h-.05c-.1,0-.26.18-.4.33-.32.36-.67.67-1,1a.22.22,0,0,0-.08.12.21.21,0,0,0,.08.16,14.7,14.7,0,0,0,1.3,1.24.25.25,0,0,0,.13,0Z"/><path class="cls-2" d="M4.28,5.76A1.51,1.51,0,0,1,3.19,4.38,1.31,1.31,0,0,1,3.74,3.3a2.28,2.28,0,0,1,1.44-.42,2.23,2.23,0,0,1,1.41.41,1.28,1.28,0,0,1,.52,1.06q0,.91-1.12,1.31a2.57,2.57,0,0,1,1.13.81,1.51,1.51,0,0,1,.23.78,1.42,1.42,0,0,1-.59,1.16,2.49,2.49,0,0,1-1.59.47,2.59,2.59,0,0,1-1.66-.47,1.41,1.41,0,0,1-.59-1.13Q2.91,6.29,4.28,5.76Zm.79.3q-1.46.35-1.46,1.22A.89.89,0,0,0,4,8a2,2,0,0,0,1.17.29A1.8,1.8,0,0,0,6.25,8a.86.86,0,0,0,.4-.72Q6.65,6.47,5.08,6.06Zm.08-.66a2.74,2.74,0,0,0,1-.45.79.79,0,0,0,.3-.63.75.75,0,0,0-.36-.67,1.71,1.71,0,0,0-.94-.23,1.57,1.57,0,0,0-.91.24.75.75,0,0,0-.35.65.86.86,0,0,0,.39.7A2.1,2.1,0,0,0,5.16,5.4Z"/><path class="cls-2" d="M36.48,56.53a1.51,1.51,0,0,1,1.09,1.38A1.31,1.31,0,0,1,37,59a2.27,2.27,0,0,1-1.44.42A2.23,2.23,0,0,1,34.18,59a1.28,1.28,0,0,1-.52-1.06q0-.91,1.12-1.31a2.57,2.57,0,0,1-1.13-.81,1.51,1.51,0,0,1-.23-.78A1.43,1.43,0,0,1,34,53.89a2.5,2.5,0,0,1,1.59-.46,2.59,2.59,0,0,1,1.66.47A1.41,1.41,0,0,1,37.85,55Q37.85,56,36.48,56.53Zm-.79-.3q1.46-.35,1.46-1.22a.88.88,0,0,0-.4-.74A2,2,0,0,0,35.57,54a1.79,1.79,0,0,0-1.06.28.85.85,0,0,0-.4.72Q34.12,55.81,35.69,56.22Zm-.08.66a2.7,2.7,0,0,0-1,.45.79.79,0,0,0-.3.63.75.75,0,0,0,.36.67,1.71,1.71,0,0,0,.94.23,1.59,1.59,0,0,0,.91-.24.75.75,0,0,0,.35-.65.86.86,0,0,0-.39-.7A2.11,2.11,0,0,0,35.61,56.88Z"/><path class="cls-2" d="M14.1,13.21a.78.78,0,0,0,.44-.13A48.32,48.32,0,0,0,18.81,9a.69.69,0,0,0,.26-.52.71.71,0,0,0-.25-.4C17.72,7,16.54,5.92,15.5,4.76c-.45-.5-1-1.08-1.32-1.1H14c-.33,0-.87.6-1.32,1.1-1,1.17-2.21,2.21-3.32,3.31a.72.72,0,0,0-.25.4A.69.69,0,0,0,9.39,9a48,48,0,0,0,4.27,4.09.78.78,0,0,0,.44.13Z"/><path class="cls-2" d="M26.83,13.21a.78.78,0,0,0,.44-.13A48.16,48.16,0,0,0,31.54,9a.69.69,0,0,0,.26-.52.72.72,0,0,0-.25-.4C30.44,7,29.27,5.92,28.23,4.76c-.45-.5-1-1.08-1.32-1.1h-.17c-.33,0-.87.6-1.32,1.1-1,1.17-2.21,2.21-3.32,3.31a.72.72,0,0,0-.25.4.69.69,0,0,0,.26.52,47.92,47.92,0,0,0,4.27,4.09.77.77,0,0,0,.44.13Z"/><path class="cls-2" d="M14.1,35.92a.79.79,0,0,0,.44-.13,48.61,48.61,0,0,0,4.27-4.09.68.68,0,0,0,.26-.52.72.72,0,0,0-.25-.4c-1.11-1.1-2.28-2.15-3.32-3.31-.45-.5-1-1.08-1.32-1.1H14c-.33,0-.87.6-1.32,1.1-1,1.17-2.21,2.21-3.32,3.31a.74.74,0,0,0-.25.4.69.69,0,0,0,.26.52,48.33,48.33,0,0,0,4.27,4.09.79.79,0,0,0,.44.13Z"/><path class="cls-2" d="M26.83,35.92a.79.79,0,0,0,.44-.13,48.45,48.45,0,0,0,4.27-4.09.68.68,0,0,0,.26-.52.74.74,0,0,0-.25-.4c-1.11-1.1-2.28-2.15-3.32-3.31-.45-.5-1-1.08-1.32-1.1h-.17c-.33,0-.87.6-1.32,1.1-1,1.17-2.21,2.21-3.32,3.31a.73.73,0,0,0-.25.4.69.69,0,0,0,.26.52,48.21,48.21,0,0,0,4.27,4.09.79.79,0,0,0,.44.13Z"/><path class="cls-2" d="M26.83,49.08a.79.79,0,0,0-.44.13,48.21,48.21,0,0,0-4.27,4.09.69.69,0,0,0-.26.52.71.71,0,0,0,.25.4c1.11,1.11,2.28,2.15,3.32,3.31.45.5,1,1.08,1.32,1.1h.17c.33,0,.87-.6,1.32-1.1,1-1.16,2.21-2.21,3.32-3.31a.72.72,0,0,0,.25-.4.68.68,0,0,0-.26-.52,48.45,48.45,0,0,0-4.27-4.09.79.79,0,0,0-.44-.13Z"/><path class="cls-2" d="M14.1,49.08a.79.79,0,0,0-.44.13A48.33,48.33,0,0,0,9.39,53.3a.69.69,0,0,0-.26.52.72.72,0,0,0,.25.4c1.11,1.11,2.28,2.15,3.32,3.31.45.5,1,1.08,1.32,1.1h.17c.33,0,.87-.6,1.32-1.1,1-1.16,2.21-2.21,3.32-3.31a.71.71,0,0,0,.25-.4.69.69,0,0,0-.26-.52,48.61,48.61,0,0,0-4.27-4.09.79.79,0,0,0-.44-.13Z"/><path class="cls-2" d="M20.47,24.31a.78.78,0,0,0,.44-.13,48.45,48.45,0,0,0,4.27-4.09.69.69,0,0,0,.26-.52.72.72,0,0,0-.25-.4c-1.11-1.11-2.28-2.15-3.32-3.31-.45-.5-1-1.08-1.32-1.1h-.17c-.33,0-.87.6-1.31,1.1-1,1.17-2.21,2.21-3.32,3.31a.72.72,0,0,0-.25.4.69.69,0,0,0,.26.52A48.33,48.33,0,0,0,20,24.18a.78.78,0,0,0,.44.13Z"/><path class="cls-2" d="M20.47,47.15a.79.79,0,0,0,.44-.13,48.48,48.48,0,0,0,4.27-4.09.68.68,0,0,0,.26-.52.72.72,0,0,0-.25-.4c-1.11-1.11-2.28-2.15-3.32-3.31-.45-.5-1-1.08-1.32-1.1h-.17c-.33,0-.87.6-1.31,1.1-1,1.16-2.21,2.21-3.32,3.31a.72.72,0,0,0-.25.4.68.68,0,0,0,.26.52A48.36,48.36,0,0,0,20,47a.79.79,0,0,0,.44.13Z"/></g></g></svg>