<svg xmlns="http://www.w3.org/2000/svg" viewBox="0 0 40.93 62.29"><defs><style>.cls-1{fill:#fff;}.cls-2{fill:#d6002b;}</style></defs><title>Fichier 22</title><g id="Calque_2" data-name="Calque 2"><g id="Layer_1" data-name="Layer 1"><rect class="cls-1" x="0.09" y="0.09" width="40.74" height="62.1" rx="3.45" ry="3.45"/><path class="cls-1" d="M37.39,62.29H3.54A3.55,3.55,0,0,1,0,58.75V3.54A3.55,3.55,0,0,1,3.54,0H37.39a3.55,3.55,0,0,1,3.54,3.54v55.2A3.55,3.55,0,0,1,37.39,62.29ZM3.54.19A3.36,3.36,0,0,0,.19,3.54v55.2A3.36,3.36,0,0,0,3.54,62.1H37.39a3.36,3.36,0,0,0,3.36-3.36V3.54A3.36,3.36,0,0,0,37.39.19Z"/><path class="cls-2" d="M5.75,12.62a6.58,6.58,0,0,1,.53-.4,3.23,3.23,0,0,0,.57-.46,1.39,1.39,0,0,0,.26-.5,1.2,1.2,0,0,0,0-.78.94.94,0,0,0-1.74.16,0,0,0,0,1,0,0h0a0,0,0,0,1,0,0,.94.94,0,0,0-1.74-.16,1.19,1.19,0,0,0,0,.78,1.41,1.41,0,0,0,.26.5,3.25,3.25,0,0,0,.57.46,6.43,6.43,0,0,1,.53.4c.08.08.46.48.46.48S5.67,12.69,5.75,12.62Z"/><path class="cls-2" d="M35.22,49.56c-.17.15-.35.27-.53.4a3.14,3.14,0,0,0-.57.46,1.39,1.39,0,0,0-.26.5,1.2,1.2,0,0,0,0,.78.94.94,0,0,0,1.74-.16,0,0,0,0,1,0,0h0a0,0,0,0,1,0,0,.94.94,0,0,0,1.74.16,1.19,1.19,0,0,0,0-.78,1.37,1.37,0,0,0-.26-.5,3.17,3.17,0,0,0-.57-.46c-.18-.13-.37-.25-.53-.4s-.46-.48-.46-.48S35.3,49.48,35.22,49.56Z"/><path class="cls-2" d="M4.28,5.67A1.51,1.51,0,0,1,3.19,4.29a1.31,1.31,0,0,1,.54-1.08,2.28,2.28,0,0,1,1.44-.42,2.23,2.23,0,0,1,1.41.41,1.28,1.28,0,0,1,.52,1.06q0,.91-1.12,1.31a2.57,2.57,0,0,1,1.13.81,1.5,1.5,0,0,1,.23.78A1.42,1.42,0,0,1,6.76,8.3a2.49,2.49,0,0,1-1.59.47,2.59,2.59,0,0,1-1.66-.47,1.41,1.41,0,0,1-.59-1.13Q2.91,6.19,4.28,5.67ZM5.08,6q-1.46.35-1.46,1.22a.88.88,0,0,0,.4.74,2,2,0,0,0,1.17.29,1.8,1.8,0,0,0,1.06-.28.85.85,0,0,0,.4-.72Q6.65,6.38,5.08,6Zm.08-.66a2.74,2.74,0,0,0,1-.45.79.79,0,0,0,.3-.63.75.75,0,0,0-.36-.67,1.7,1.7,0,0,0-.94-.23,1.58,1.58,0,0,0-.91.24.75.75,0,0,0-.35.65.86.86,0,0,0,.39.7A2.1,2.1,0,0,0,5.16,5.31Z"/><path class="cls-2" d="M36.48,56.43a1.51,1.51,0,0,1,1.09,1.38A1.31,1.31,0,0,1,37,58.89a2.28,2.28,0,0,1-1.44.42,2.23,2.23,0,0,1-1.41-.41,1.28,1.28,0,0,1-.52-1.06q0-.91,1.12-1.31a2.57,2.57,0,0,1-1.13-.81,1.51,1.51,0,0,1-.23-.78A1.42,1.42,0,0,1,34,53.8a2.5,2.5,0,0,1,1.59-.47,2.59,2.59,0,0,1,1.66.47,1.41,1.41,0,0,1,.59,1.13Q37.85,55.91,36.48,56.43Zm-.79-.3q1.46-.35,1.46-1.22a.88.88,0,0,0-.4-.75,2,2,0,0,0-1.17-.29,1.8,1.8,0,0,0-1.06.28.85.85,0,0,0-.4.72Q34.12,55.72,35.69,56.13Zm-.08.66a2.73,2.73,0,0,0-1,.45.79.79,0,0,0-.3.63.75.75,0,0,0,.36.67,1.69,1.69,0,0,0,.94.23,1.59,1.59,0,0,0,.91-.24.75.75,0,0,0,.35-.65.86.86,0,0,0-.39-.7A2.11,2.11,0,0,0,35.61,56.79Z"/><path class="cls-2" d="M15.08,11.86c.47-.43,1-.75,1.5-1.13a9,9,0,0,0,1.6-1.31A3.94,3.94,0,0,0,18.9,8a3.37,3.37,0,0,0-.1-2.18c-.87-1.39-3.3-2.61-4.9.46a.13.13,0,0,1-.11.07h0a.13.13,0,0,1-.11-.07c-1.6-3.07-4-1.85-4.9-.46A3.36,3.36,0,0,0,8.68,8a3.94,3.94,0,0,0,.72,1.4A9,9,0,0,0,11,10.73c.51.38,1,.71,1.5,1.13.24.21,1.29,1.35,1.29,1.35S14.84,12.07,15.08,11.86Z"/><path class="cls-2" d="M28.43,11.86c.47-.43,1-.75,1.5-1.13a9,9,0,0,0,1.6-1.31A3.94,3.94,0,0,0,32.25,8a3.36,3.36,0,0,0-.1-2.18c-.87-1.39-3.3-2.61-4.89.46a.13.13,0,0,1-.12.07h0A.13.13,0,0,1,27,6.29c-1.6-3.07-4-1.85-4.9-.46A3.36,3.36,0,0,0,22,8a3.94,3.94,0,0,0,.72,1.4,9.08,9.08,0,0,0,1.6,1.31c.51.38,1,.71,1.5,1.13.24.21,1.29,1.35,1.29,1.35S28.19,12.07,28.43,11.86Z"/><path class="cls-2" d="M15.08,34.12c.47-.43,1-.75,1.5-1.13a9,9,0,0,0,1.6-1.31,3.94,3.94,0,0,0,.72-1.4,3.37,3.37,0,0,0-.1-2.18c-.87-1.39-3.3-2.61-4.9.46a.13.13,0,0,1-.11.07h0a.13.13,0,0,1-.11-.07c-1.6-3.07-4-1.85-4.9-.46a3.36,3.36,0,0,0-.1,2.18,4,4,0,0,0,.72,1.4A9,9,0,0,0,11,33c.51.38,1,.71,1.5,1.13.24.21,1.29,1.35,1.29,1.35S14.84,34.33,15.08,34.12Z"/><path class="cls-2" d="M28.43,34.12c.47-.43,1-.75,1.5-1.13a9,9,0,0,0,1.6-1.31,3.94,3.94,0,0,0,.72-1.4,3.36,3.36,0,0,0-.1-2.18c-.87-1.39-3.3-2.61-4.89.46a.13.13,0,0,1-.12.07h0a.13.13,0,0,1-.12-.07c-1.6-3.07-4-1.85-4.9-.46a3.36,3.36,0,0,0-.1,2.18,3.94,3.94,0,0,0,.72,1.4A9.06,9.06,0,0,0,24.35,33c.51.38,1,.71,1.5,1.13.24.21,1.29,1.35,1.29,1.35S28.19,34.33,28.43,34.12Z"/><path class="cls-2" d="M25.85,50.24c-.47.43-1,.75-1.5,1.13a9.1,9.1,0,0,0-1.6,1.31,3.92,3.92,0,0,0-.72,1.4,3.37,3.37,0,0,0,.1,2.18c.87,1.39,3.3,2.61,4.9-.46a.13.13,0,0,1,.12-.07h0a.13.13,0,0,1,.12.07c1.6,3.07,4,1.85,4.89.46a3.37,3.37,0,0,0,.1-2.18,3.92,3.92,0,0,0-.72-1.4,9,9,0,0,0-1.6-1.31c-.51-.38-1-.7-1.5-1.13-.24-.21-1.29-1.34-1.29-1.34S26.09,50,25.85,50.24Z"/><path class="cls-2" d="M12.5,50.24c-.47.43-1,.75-1.5,1.13a9,9,0,0,0-1.6,1.31,3.92,3.92,0,0,0-.72,1.4,3.37,3.37,0,0,0,.1,2.18c.87,1.39,3.3,2.61,4.9-.46a.13.13,0,0,1,.11-.07h0a.13.13,0,0,1,.11.07c1.6,3.07,4,1.85,4.9.46a3.37,3.37,0,0,0,.1-2.18,3.92,3.92,0,0,0-.72-1.4,9,9,0,0,0-1.6-1.31c-.51-.38-1-.7-1.5-1.13-.24-.21-1.29-1.34-1.29-1.34S12.74,50,12.5,50.24Z"/><path class="cls-2" d="M21.75,23.08c.47-.43,1-.75,1.5-1.13a8.94,8.94,0,0,0,1.6-1.31,3.93,3.93,0,0,0,.72-1.4,3.37,3.37,0,0,0-.1-2.18c-.87-1.39-3.3-2.61-4.9.46a.13.13,0,0,1-.11.07h0a.13.13,0,0,1-.12-.07c-1.6-3.07-4-1.85-4.9-.46a3.37,3.37,0,0,0-.1,2.18,3.94,3.94,0,0,0,.72,1.4,9,9,0,0,0,1.6,1.31c.51.38,1,.7,1.5,1.13.24.21,1.29,1.34,1.29,1.34S21.52,23.29,21.75,23.08Z"/><path class="cls-2" d="M19.18,38.46c-.47.43-1,.75-1.5,1.13a9,9,0,0,0-1.6,1.31,3.93,3.93,0,0,0-.72,1.4,3.37,3.37,0,0,0,.1,2.18c.87,1.39,3.3,2.61,4.9-.46a.13.13,0,0,1,.12-.07h0a.13.13,0,0,1,.11.07c1.6,3.07,4,1.85,4.9.46a3.37,3.37,0,0,0,.1-2.18,3.92,3.92,0,0,0-.72-1.4,9,9,0,0,0-1.6-1.31c-.51-.38-1-.71-1.5-1.13-.24-.21-1.29-1.34-1.29-1.34S19.41,38.25,19.18,38.46Z"/></g></g></svg>