<svg xmlns="http://www.w3.org/2000/svg" viewBox="0 0 40.93 62.29"><defs><style>.cls-1{fill:#fff;}.cls-2{fill:#0c0a35;}</style></defs><title>Fichier 35</title><g id="Calque_2" data-name="Calque 2"><g id="Layer_1" data-name="Layer 1"><rect class="cls-1" x="0.09" y="0.09" width="40.74" height="62.1" rx="3.45" ry="3.45"/><path class="cls-1" d="M37.39,62.29H3.54A3.55,3.55,0,0,1,0,58.74V3.54A3.55,3.55,0,0,1,3.54,0H37.39a3.55,3.55,0,0,1,3.54,3.54v55.2A3.55,3.55,0,0,1,37.39,62.29ZM3.54.19A3.36,3.36,0,0,0,.19,3.54v55.2A3.36,3.36,0,0,0,3.54,62.1H37.39a3.36,3.36,0,0,0,3.36-3.36V3.54A3.36,3.36,0,0,0,37.39.19Z"/><path class="cls-2" d="M35.44,50.65c0-.1,0-.25,0-.35a3,3,0,0,0,0-.31,1.42,1.42,0,0,0-.43-.93c.24,0,.84,0,1.08,0a1.42,1.42,0,0,0-.43.93,2.59,2.59,0,0,0,0,.31c0,.1,0,.25,0,.35Z"/><path class="cls-2" d="M35.53,50.26a1.16,1.16,0,0,0-1-.54.9.9,0,0,0-.84.68,1.11,1.11,0,0,0,.33.93,4.52,4.52,0,0,0,.84.61,4.67,4.67,0,0,1,.7.67,8.87,8.87,0,0,1,.7-.66,6.61,6.61,0,0,0,.84-.62,1.11,1.11,0,0,0,.33-.93.89.89,0,0,0-.84-.68,1.16,1.16,0,0,0-1,.54Z"/><path class="cls-2" d="M5.36,11.36c0,.1,0,.25,0,.35a2.77,2.77,0,0,0,0,.31,1.42,1.42,0,0,0,.43.93c-.24,0-.84,0-1.08,0A1.42,1.42,0,0,0,5.11,12a2.77,2.77,0,0,0,0-.31c0-.1,0-.25,0-.35Z"/><path class="cls-2" d="M5.27,11.75a1.16,1.16,0,0,0,1,.54.9.9,0,0,0,.84-.68,1.11,1.11,0,0,0-.33-.93,4.52,4.52,0,0,0-.84-.61,4.72,4.72,0,0,1-.7-.67,9,9,0,0,1-.7.66,6.61,6.61,0,0,0-.84.62,1.1,1.1,0,0,0-.33.93.9.9,0,0,0,.84.68,1.16,1.16,0,0,0,1-.54Z"/><path class="cls-2" d="M4.28,5.76A1.51,1.51,0,0,1,3.19,4.38,1.31,1.31,0,0,1,3.74,3.3a2.28,2.28,0,0,1,1.44-.42,2.24,2.24,0,0,1,1.41.4,1.28,1.28,0,0,1,.52,1.06q0,.91-1.12,1.31a2.58,2.58,0,0,1,1.13.81,1.51,1.51,0,0,1,.23.78A1.43,1.43,0,0,1,6.76,8.4a2.5,2.5,0,0,1-1.59.46,2.59,2.59,0,0,1-1.66-.47,1.41,1.41,0,0,1-.59-1.13Q2.91,6.28,4.28,5.76Zm.79.31q-1.46.35-1.46,1.22A.88.88,0,0,0,4,8a2,2,0,0,0,1.17.29A1.79,1.79,0,0,0,6.25,8a.85.85,0,0,0,.4-.72Q6.65,6.47,5.08,6.07Zm.08-.66a2.74,2.74,0,0,0,1-.45.79.79,0,0,0,.3-.63.75.75,0,0,0-.36-.67,1.71,1.71,0,0,0-.94-.23,1.57,1.57,0,0,0-.91.24.75.75,0,0,0-.35.65.86.86,0,0,0,.39.7A2.1,2.1,0,0,0,5.16,5.4Z"/><path class="cls-2" d="M36.48,56.53a1.51,1.51,0,0,1,1.09,1.38A1.31,1.31,0,0,1,37,59a2.28,2.28,0,0,1-1.44.42A2.23,2.23,0,0,1,34.18,59a1.28,1.28,0,0,1-.52-1.06q0-.91,1.12-1.31a2.57,2.57,0,0,1-1.13-.8,1.52,1.52,0,0,1-.23-.78A1.42,1.42,0,0,1,34,53.89a2.5,2.5,0,0,1,1.59-.47,2.59,2.59,0,0,1,1.66.47A1.41,1.41,0,0,1,37.85,55Q37.85,56,36.48,56.53Zm-.79-.3q1.46-.35,1.46-1.22a.88.88,0,0,0-.4-.74A2,2,0,0,0,35.57,54a1.79,1.79,0,0,0-1.06.28.85.85,0,0,0-.4.72Q34.12,55.81,35.69,56.22Zm-.08.66a2.71,2.71,0,0,0-1,.45.79.79,0,0,0-.3.63.75.75,0,0,0,.36.67,1.69,1.69,0,0,0,.94.23,1.57,1.57,0,0,0,.91-.24.75.75,0,0,0,.35-.65.86.86,0,0,0-.39-.7A2.08,2.08,0,0,0,35.61,56.88Z"/><path class="cls-2" d="M14.6,8.19c0,.26-.1.63-.1.88a7.49,7.49,0,0,0,0,.78,3.56,3.56,0,0,0,1.08,2.32c-.6,0-2.11,0-2.71,0A3.56,3.56,0,0,0,14,9.85a7.49,7.49,0,0,0,0-.78c0-.26-.1-.62-.1-.88Z"/><path class="cls-2" d="M14.38,9.16a2.91,2.91,0,0,0,2.45,1.36,2.25,2.25,0,0,0,2.11-1.7,2.77,2.77,0,0,0-.83-2.34A11.06,11.06,0,0,0,16,5a11.73,11.73,0,0,1-1.76-1.68A22.41,22.41,0,0,1,12.5,4.94a15.82,15.82,0,0,0-2.11,1.54,2.77,2.77,0,0,0-.83,2.34,2.25,2.25,0,0,0,2.11,1.7,2.91,2.91,0,0,0,2.45-1.36Z"/><path class="cls-2" d="M27,8.19c0,.26-.1.63-.1.88a7.23,7.23,0,0,0,0,.78A3.55,3.55,0,0,0,28,12.18c-.6,0-2.11,0-2.71,0A3.55,3.55,0,0,0,26.4,9.85a7.49,7.49,0,0,0,0-.78c0-.26-.1-.62-.1-.88Z"/><path class="cls-2" d="M26.81,9.16a2.91,2.91,0,0,0,2.45,1.36,2.25,2.25,0,0,0,2.11-1.7,2.77,2.77,0,0,0-.83-2.34A11,11,0,0,0,28.44,5a11.76,11.76,0,0,1-1.76-1.68,22.61,22.61,0,0,1-1.75,1.65,15.82,15.82,0,0,0-2.11,1.54A2.77,2.77,0,0,0,22,8.82a2.25,2.25,0,0,0,2.11,1.7,2.91,2.91,0,0,0,2.45-1.36Z"/><path class="cls-2" d="M14.6,31.58c0,.26-.1.63-.1.88a7.49,7.49,0,0,0,0,.78,3.56,3.56,0,0,0,1.08,2.32c-.6,0-2.11,0-2.71,0A3.56,3.56,0,0,0,14,33.25a7.49,7.49,0,0,0,0-.78c0-.26-.1-.62-.1-.88Z"/><path class="cls-2" d="M14.38,32.56a2.9,2.9,0,0,0,2.45,1.36,2.25,2.25,0,0,0,2.11-1.7,2.77,2.77,0,0,0-.83-2.34A11.06,11.06,0,0,0,16,28.37a11.73,11.73,0,0,1-1.76-1.68,22.43,22.43,0,0,1-1.75,1.65,15.82,15.82,0,0,0-2.11,1.54,2.77,2.77,0,0,0-.83,2.34,2.25,2.25,0,0,0,2.11,1.7,2.9,2.9,0,0,0,2.45-1.36Z"/><path class="cls-2" d="M27,31.58c0,.26-.1.63-.1.88a7.23,7.23,0,0,0,0,.78A3.55,3.55,0,0,0,28,35.57c-.6,0-2.11,0-2.71,0a3.55,3.55,0,0,0,1.08-2.32,7.49,7.49,0,0,0,0-.78c0-.26-.1-.62-.1-.88Z"/><path class="cls-2" d="M26.81,32.56a2.9,2.9,0,0,0,2.45,1.36,2.25,2.25,0,0,0,2.11-1.7,2.77,2.77,0,0,0-.83-2.34,11,11,0,0,0-2.1-1.52,11.76,11.76,0,0,1-1.76-1.68,22.63,22.63,0,0,1-1.75,1.65,15.82,15.82,0,0,0-2.11,1.54A2.77,2.77,0,0,0,22,32.22a2.25,2.25,0,0,0,2.11,1.7,2.9,2.9,0,0,0,2.45-1.36Z"/><path class="cls-2" d="M26.33,54.1c0-.26.1-.63.1-.88a7.45,7.45,0,0,0,0-.78,3.55,3.55,0,0,0-1.08-2.32c.6,0,2.11,0,2.71,0A3.55,3.55,0,0,0,27,52.43a7.19,7.19,0,0,0,0,.78c0,.26.1.63.1.88Z"/><path class="cls-2" d="M26.55,53.12a2.9,2.9,0,0,0-2.45-1.36A2.25,2.25,0,0,0,22,53.46a2.77,2.77,0,0,0,.83,2.34,11.11,11.11,0,0,0,2.1,1.52A11.71,11.71,0,0,1,26.68,59a22.56,22.56,0,0,1,1.75-1.65,16.12,16.12,0,0,0,2.11-1.54,2.78,2.78,0,0,0,.83-2.34,2.25,2.25,0,0,0-2.11-1.7,2.9,2.9,0,0,0-2.45,1.36Z"/><path class="cls-2" d="M13.9,54.1c0-.26.1-.63.1-.88a7.45,7.45,0,0,0,0-.78,3.55,3.55,0,0,0-1.08-2.32c.6,0,2.11,0,2.71,0a3.55,3.55,0,0,0-1.08,2.32,7.45,7.45,0,0,0,0,.78c0,.26.1.63.1.88Z"/><path class="cls-2" d="M14.12,53.12a2.9,2.9,0,0,0-2.45-1.36,2.25,2.25,0,0,0-2.11,1.7,2.77,2.77,0,0,0,.83,2.34,11.11,11.11,0,0,0,2.1,1.52A11.66,11.66,0,0,1,14.25,59,22.67,22.67,0,0,1,16,57.35a16.08,16.08,0,0,0,2.11-1.54,2.78,2.78,0,0,0,.83-2.34,2.25,2.25,0,0,0-2.11-1.7,2.9,2.9,0,0,0-2.45,1.36Z"/><path class="cls-2" d="M20.82,20.07c0,.26-.1.63-.1.88a7.19,7.19,0,0,0,0,.78,3.55,3.55,0,0,0,1.08,2.32c-.6,0-2.11,0-2.71,0a3.55,3.55,0,0,0,1.08-2.32,7.45,7.45,0,0,0,0-.78c0-.26-.1-.62-.1-.88Z"/><path class="cls-2" d="M20.59,21A2.9,2.9,0,0,0,23,22.41a2.25,2.25,0,0,0,2.11-1.7,2.77,2.77,0,0,0-.83-2.34,11,11,0,0,0-2.1-1.51,11.84,11.84,0,0,1-1.76-1.68,22.22,22.22,0,0,1-1.75,1.65,16.29,16.29,0,0,0-2.11,1.54,2.78,2.78,0,0,0-.83,2.34,2.25,2.25,0,0,0,2.11,1.7A2.9,2.9,0,0,0,20.34,21Z"/><path class="cls-2" d="M20.12,42.87c0-.26.1-.63.1-.88a7.45,7.45,0,0,0,0-.78,3.56,3.56,0,0,0-1.08-2.33c.6,0,2.11,0,2.71,0a3.56,3.56,0,0,0-1.08,2.33,7.19,7.19,0,0,0,0,.78c0,.26.1.63.1.88Z"/><path class="cls-2" d="M20.34,41.89a2.91,2.91,0,0,0-2.45-1.36,2.25,2.25,0,0,0-2.11,1.7,2.77,2.77,0,0,0,.83,2.34,11,11,0,0,0,2.1,1.52,11.75,11.75,0,0,1,1.76,1.68,23.08,23.08,0,0,1,1.75-1.65,15.88,15.88,0,0,0,2.11-1.55,2.77,2.77,0,0,0,.83-2.34A2.25,2.25,0,0,0,23,40.53a2.91,2.91,0,0,0-2.45,1.36Z"/><path class="cls-2" d="M14.6,8.19c0,.26-.1.63-.1.88a7.49,7.49,0,0,0,0,.78,3.56,3.56,0,0,0,1.08,2.32c-.6,0-2.11,0-2.71,0A3.56,3.56,0,0,0,14,9.85a7.49,7.49,0,0,0,0-.78c0-.26-.1-.62-.1-.88Z"/><path class="cls-2" d="M14.38,9.16a2.91,2.91,0,0,0,2.45,1.36,2.25,2.25,0,0,0,2.11-1.7,2.77,2.77,0,0,0-.83-2.34A11.06,11.06,0,0,0,16,5a11.73,11.73,0,0,1-1.76-1.68A22.41,22.41,0,0,1,12.5,4.94a15.82,15.82,0,0,0-2.11,1.54,2.77,2.77,0,0,0-.83,2.34,2.25,2.25,0,0,0,2.11,1.7,2.91,2.91,0,0,0,2.45-1.36Z"/><path class="cls-2" d="M27,8.19c0,.26-.1.63-.1.88a7.23,7.23,0,0,0,0,.78A3.55,3.55,0,0,0,28,12.18c-.6,0-2.11,0-2.71,0A3.55,3.55,0,0,0,26.4,9.85a7.49,7.49,0,0,0,0-.78c0-.26-.1-.62-.1-.88Z"/><path class="cls-2" d="M26.81,9.16a2.91,2.91,0,0,0,2.45,1.36,2.25,2.25,0,0,0,2.11-1.7,2.77,2.77,0,0,0-.83-2.34A11,11,0,0,0,28.44,5a11.76,11.76,0,0,1-1.76-1.68,22.61,22.61,0,0,1-1.75,1.65,15.82,15.82,0,0,0-2.11,1.54A2.77,2.77,0,0,0,22,8.82a2.25,2.25,0,0,0,2.11,1.7,2.91,2.91,0,0,0,2.45-1.36Z"/><path class="cls-2" d="M14.6,31.58c0,.26-.1.63-.1.88a7.49,7.49,0,0,0,0,.78,3.56,3.56,0,0,0,1.08,2.32c-.6,0-2.11,0-2.71,0A3.56,3.56,0,0,0,14,33.25a7.49,7.49,0,0,0,0-.78c0-.26-.1-.62-.1-.88Z"/><path class="cls-2" d="M14.38,32.56a2.9,2.9,0,0,0,2.45,1.36,2.25,2.25,0,0,0,2.11-1.7,2.77,2.77,0,0,0-.83-2.34A11.06,11.06,0,0,0,16,28.37a11.73,11.73,0,0,1-1.76-1.68,22.43,22.43,0,0,1-1.75,1.65,15.82,15.82,0,0,0-2.11,1.54,2.77,2.77,0,0,0-.83,2.34,2.25,2.25,0,0,0,2.11,1.7,2.9,2.9,0,0,0,2.45-1.36Z"/><path class="cls-2" d="M27,31.58c0,.26-.1.63-.1.88a7.23,7.23,0,0,0,0,.78A3.55,3.55,0,0,0,28,35.57c-.6,0-2.11,0-2.71,0a3.55,3.55,0,0,0,1.08-2.32,7.49,7.49,0,0,0,0-.78c0-.26-.1-.62-.1-.88Z"/><path class="cls-2" d="M26.81,32.56a2.9,2.9,0,0,0,2.45,1.36,2.25,2.25,0,0,0,2.11-1.7,2.77,2.77,0,0,0-.83-2.34,11,11,0,0,0-2.1-1.52,11.76,11.76,0,0,1-1.76-1.68,22.63,22.63,0,0,1-1.75,1.65,15.82,15.82,0,0,0-2.11,1.54A2.77,2.77,0,0,0,22,32.22a2.25,2.25,0,0,0,2.11,1.7,2.9,2.9,0,0,0,2.45-1.36Z"/><path class="cls-2" d="M26.33,54.1c0-.26.1-.63.1-.88a7.45,7.45,0,0,0,0-.78,3.55,3.55,0,0,0-1.08-2.32c.6,0,2.11,0,2.71,0A3.55,3.55,0,0,0,27,52.43a7.19,7.19,0,0,0,0,.78c0,.26.1.63.1.88Z"/><path class="cls-2" d="M26.55,53.12a2.9,2.9,0,0,0-2.45-1.36A2.25,2.25,0,0,0,22,53.46a2.77,2.77,0,0,0,.83,2.34,11.11,11.11,0,0,0,2.1,1.52A11.71,11.71,0,0,1,26.68,59a22.56,22.56,0,0,1,1.75-1.65,16.12,16.12,0,0,0,2.11-1.54,2.78,2.78,0,0,0,.83-2.34,2.25,2.25,0,0,0-2.11-1.7,2.9,2.9,0,0,0-2.45,1.36Z"/><path class="cls-2" d="M13.9,54.1c0-.26.1-.63.1-.88a7.45,7.45,0,0,0,0-.78,3.55,3.55,0,0,0-1.08-2.32c.6,0,2.11,0,2.71,0a3.55,3.55,0,0,0-1.08,2.32,7.45,7.45,0,0,0,0,.78c0,.26.1.63.1.88Z"/><path class="cls-2" d="M14.12,53.12a2.9,2.9,0,0,0-2.45-1.36,2.25,2.25,0,0,0-2.11,1.7,2.77,2.77,0,0,0,.83,2.34,11.11,11.11,0,0,0,2.1,1.52A11.66,11.66,0,0,1,14.25,59,22.67,22.67,0,0,1,16,57.35a16.08,16.08,0,0,0,2.11-1.54,2.78,2.78,0,0,0,.83-2.34,2.25,2.25,0,0,0-2.11-1.7,2.9,2.9,0,0,0-2.45,1.36Z"/><path class="cls-2" d="M20.82,20.07c0,.26-.1.63-.1.88a7.19,7.19,0,0,0,0,.78,3.55,3.55,0,0,0,1.08,2.32c-.6,0-2.11,0-2.71,0a3.55,3.55,0,0,0,1.08-2.32,7.45,7.45,0,0,0,0-.78c0-.26-.1-.62-.1-.88Z"/><path class="cls-2" d="M20.59,21A2.9,2.9,0,0,0,23,22.41a2.25,2.25,0,0,0,2.11-1.7,2.77,2.77,0,0,0-.83-2.34,11,11,0,0,0-2.1-1.51,11.84,11.84,0,0,1-1.76-1.68,22.22,22.22,0,0,1-1.75,1.65,16.29,16.29,0,0,0-2.11,1.54,2.78,2.78,0,0,0-.83,2.34,2.25,2.25,0,0,0,2.11,1.7A2.9,2.9,0,0,0,20.34,21Z"/><path class="cls-2" d="M20.12,42.87c0-.26.1-.63.1-.88a7.45,7.45,0,0,0,0-.78,3.56,3.56,0,0,0-1.08-2.33c.6,0,2.11,0,2.71,0a3.56,3.56,0,0,0-1.08,2.33,7.19,7.19,0,0,0,0,.78c0,.26.1.63.1.88Z"/><path class="cls-2" d="M20.34,41.89a2.91,2.91,0,0,0-2.45-1.36,2.25,2.25,0,0,0-2.11,1.7,2.77,2.77,0,0,0,.83,2.34,11,11,0,0,0,2.1,1.52,11.75,11.75,0,0,1,1.76,1.68,23.08,23.08,0,0,1,1.75-1.65,15.88,15.88,0,0,0,2.11-1.55,2.77,2.77,0,0,0,.83-2.34A2.25,2.25,0,0,0,23,40.53a2.91,2.91,0,0,0-2.45,1.36Z"/></g></g></svg>