<svg xmlns="http://www.w3.org/2000/svg" viewBox="0 0 40.93 62.29"><defs><style>.cls-1{fill:#fff;}.cls-2{fill:#0c0a35;}</style></defs><title>Fichier 36</title><g id="Calque_2" data-name="Calque 2"><g id="Layer_1" data-name="Layer 1"><rect class="cls-1" x="0.09" y="0.09" width="40.74" height="62.1" rx="3.45" ry="3.45"/><path class="cls-1" d="M37.39,62.29H3.54A3.55,3.55,0,0,1,0,58.74V3.54A3.55,3.55,0,0,1,3.54,0H37.39a3.55,3.55,0,0,1,3.54,3.54v55.2A3.55,3.55,0,0,1,37.39,62.29ZM3.54.19A3.36,3.36,0,0,0,.19,3.54v55.2A3.36,3.36,0,0,0,3.54,62.1H37.39a3.36,3.36,0,0,0,3.36-3.36V3.54A3.36,3.36,0,0,0,37.39.19Z"/><path class="cls-2" d="M35.44,50.65c0-.1,0-.25,0-.35a2.81,2.81,0,0,0,0-.31,1.42,1.42,0,0,0-.43-.93c.24,0,.84,0,1.08,0a1.42,1.42,0,0,0-.43.93,3.07,3.07,0,0,0,0,.31c0,.1,0,.25,0,.35Z"/><path class="cls-2" d="M35.53,50.26a1.16,1.16,0,0,0-1-.54.89.89,0,0,0-.84.68,1.11,1.11,0,0,0,.33.93,4.48,4.48,0,0,0,.84.61,4.64,4.64,0,0,1,.7.67,8.87,8.87,0,0,1,.7-.66,6.55,6.55,0,0,0,.84-.62,1.11,1.11,0,0,0,.33-.93.89.89,0,0,0-.84-.68,1.16,1.16,0,0,0-1,.54Z"/><path class="cls-2" d="M5.36,11.36c0,.1,0,.25,0,.35a2.77,2.77,0,0,0,0,.31,1.42,1.42,0,0,0,.43.93c-.24,0-.84,0-1.08,0A1.42,1.42,0,0,0,5.11,12a3,3,0,0,0,0-.31c0-.1,0-.25,0-.35Z"/><path class="cls-2" d="M5.27,11.75a1.16,1.16,0,0,0,1,.54.9.9,0,0,0,.84-.68,1.1,1.1,0,0,0-.33-.93,4.49,4.49,0,0,0-.84-.61,4.72,4.72,0,0,1-.7-.67,9.27,9.27,0,0,1-.7.66,6.49,6.49,0,0,0-.84.62,1.11,1.11,0,0,0-.33.93.9.9,0,0,0,.84.68,1.16,1.16,0,0,0,1-.54Z"/><path class="cls-2" d="M3.28,7.7l.58-.21a1.23,1.23,0,0,0,1.2.79A1.35,1.35,0,0,0,6.3,7.59a3.72,3.72,0,0,0,.43-1.87,1.82,1.82,0,0,1-1.7,1,1.82,1.82,0,0,1-1.34-.54,1.85,1.85,0,0,1-.54-1.35,1.92,1.92,0,0,1,.57-1.4,2,2,0,0,1,1.46-.58,2,2,0,0,1,1.66.76,3.4,3.4,0,0,1,.58,2.09A3.85,3.85,0,0,1,6.8,8a2,2,0,0,1-1.74.87A1.74,1.74,0,0,1,3.28,7.7ZM5.19,6.18a1.33,1.33,0,0,0,1-.42,1.35,1.35,0,0,0,.4-1,1.28,1.28,0,0,0-.38-.93,1.34,1.34,0,0,0-1-.39,1.29,1.29,0,0,0-1,.4,1.39,1.39,0,0,0-.37,1,1.23,1.23,0,0,0,.41,1A1.38,1.38,0,0,0,5.19,6.18Z"/><path class="cls-2" d="M37.48,54.59l-.58.21a1.23,1.23,0,0,0-1.2-.8,1.35,1.35,0,0,0-1.24.69A3.72,3.72,0,0,0,34,56.57a1.91,1.91,0,0,1,3-.49,1.84,1.84,0,0,1,.54,1.35,1.92,1.92,0,0,1-.57,1.4,2.15,2.15,0,0,1-3.11-.18,3.39,3.39,0,0,1-.58-2.09A3.84,3.84,0,0,1,34,54.29a2,2,0,0,1,1.74-.87A1.74,1.74,0,0,1,37.48,54.59Zm-1.91,1.52a1.34,1.34,0,0,0-1,.41,1.35,1.35,0,0,0-.4,1,1.28,1.28,0,0,0,.38.93,1.34,1.34,0,0,0,1,.39,1.29,1.29,0,0,0,1-.4,1.39,1.39,0,0,0,.37-1,1.23,1.23,0,0,0-.41-1A1.38,1.38,0,0,0,35.57,56.11Z"/><path class="cls-2" d="M14.6,8.19c0,.26-.1.63-.1.88a7.23,7.23,0,0,0,0,.78,3.56,3.56,0,0,0,1.08,2.32c-.6,0-2.11,0-2.71,0A3.56,3.56,0,0,0,14,9.85a7.74,7.74,0,0,0,0-.78c0-.26-.1-.62-.1-.88Z"/><path class="cls-2" d="M14.38,9.16a2.91,2.91,0,0,0,2.45,1.36,2.25,2.25,0,0,0,2.11-1.7,2.77,2.77,0,0,0-.83-2.34A11,11,0,0,0,16,5a11.76,11.76,0,0,1-1.76-1.68A22.49,22.49,0,0,1,12.5,4.94a15.88,15.88,0,0,0-2.11,1.54,2.77,2.77,0,0,0-.83,2.34,2.25,2.25,0,0,0,2.11,1.7,2.91,2.91,0,0,0,2.45-1.36Z"/><path class="cls-2" d="M27,8.19c0,.26-.1.63-.1.88a7.23,7.23,0,0,0,0,.78A3.56,3.56,0,0,0,28,12.18c-.6,0-2.11,0-2.71,0a3.56,3.56,0,0,0,1.08-2.32,7.46,7.46,0,0,0,0-.78c0-.26-.1-.62-.1-.88Z"/><path class="cls-2" d="M26.81,9.16a2.91,2.91,0,0,0,2.45,1.36,2.25,2.25,0,0,0,2.11-1.7,2.77,2.77,0,0,0-.83-2.34A11.06,11.06,0,0,0,28.44,5a11.76,11.76,0,0,1-1.76-1.68,22.49,22.49,0,0,1-1.75,1.65,16,16,0,0,0-2.11,1.54A2.77,2.77,0,0,0,22,8.82a2.25,2.25,0,0,0,2.11,1.7,2.91,2.91,0,0,0,2.45-1.36Z"/><path class="cls-2" d="M14.6,20.45c0,.26-.1.63-.1.88a7.21,7.21,0,0,0,0,.78,3.55,3.55,0,0,0,1.08,2.32c-.6,0-2.11,0-2.71,0A3.56,3.56,0,0,0,14,22.11a7.72,7.72,0,0,0,0-.78c0-.26-.1-.63-.1-.88Z"/><path class="cls-2" d="M14.38,21.42a2.91,2.91,0,0,0,2.45,1.36,2.25,2.25,0,0,0,2.11-1.7,2.77,2.77,0,0,0-.83-2.34A11,11,0,0,0,16,17.23a11.76,11.76,0,0,1-1.76-1.68A22.51,22.51,0,0,1,12.5,17.2a15.87,15.87,0,0,0-2.11,1.54,2.77,2.77,0,0,0-.83,2.34,2.25,2.25,0,0,0,2.11,1.7,2.9,2.9,0,0,0,2.45-1.36Z"/><path class="cls-2" d="M27,20.45c0,.26-.1.63-.1.88a7.21,7.21,0,0,0,0,.78A3.55,3.55,0,0,0,28,24.44c-.6,0-2.11,0-2.71,0a3.55,3.55,0,0,0,1.08-2.32,7.45,7.45,0,0,0,0-.78c0-.26-.1-.63-.1-.88Z"/><path class="cls-2" d="M26.81,21.42a2.9,2.9,0,0,0,2.45,1.36,2.25,2.25,0,0,0,2.11-1.7,2.77,2.77,0,0,0-.83-2.34,11.06,11.06,0,0,0-2.1-1.52,11.76,11.76,0,0,1-1.76-1.68,22.51,22.51,0,0,1-1.75,1.65,15.94,15.94,0,0,0-2.11,1.54A2.77,2.77,0,0,0,22,21.08a2.25,2.25,0,0,0,2.11,1.7,2.9,2.9,0,0,0,2.45-1.36Z"/><path class="cls-2" d="M20.82,31.4c0,.26-.1.63-.1.88a7.44,7.44,0,0,0,0,.78,3.56,3.56,0,0,0,1.08,2.32c-.6,0-2.11,0-2.71,0a3.55,3.55,0,0,0,1.08-2.32,7,7,0,0,0,0-.78c0-.26-.1-.63-.1-.88Z"/><path class="cls-2" d="M20.59,32.37A2.91,2.91,0,0,0,23,33.73,2.25,2.25,0,0,0,25.15,32a2.78,2.78,0,0,0-.83-2.34,11,11,0,0,0-2.1-1.52,11.74,11.74,0,0,1-1.76-1.68,22.58,22.58,0,0,1-1.75,1.65A16.12,16.12,0,0,0,16.6,29.7,2.78,2.78,0,0,0,15.78,32a2.25,2.25,0,0,0,2.11,1.7,2.91,2.91,0,0,0,2.45-1.36Z"/><path class="cls-2" d="M26.33,54.1c0-.26.1-.63.1-.88a7.42,7.42,0,0,0,0-.78,3.55,3.55,0,0,0-1.08-2.32c.6,0,2.11,0,2.71,0A3.55,3.55,0,0,0,27,52.43a7.19,7.19,0,0,0,0,.78c0,.26.1.63.1.88Z"/><path class="cls-2" d="M26.55,53.12a2.9,2.9,0,0,0-2.45-1.36A2.25,2.25,0,0,0,22,53.46a2.78,2.78,0,0,0,.83,2.34,11.15,11.15,0,0,0,2.1,1.52A11.71,11.71,0,0,1,26.68,59a22.49,22.49,0,0,1,1.75-1.65,16.13,16.13,0,0,0,2.11-1.54,2.77,2.77,0,0,0,.83-2.34,2.25,2.25,0,0,0-2.11-1.7,2.9,2.9,0,0,0-2.45,1.36Z"/><path class="cls-2" d="M13.9,54.1c0-.26.1-.63.1-.88a7.7,7.7,0,0,0,0-.78,3.55,3.55,0,0,0-1.08-2.32c.6,0,2.11,0,2.71,0a3.55,3.55,0,0,0-1.08,2.32,7.19,7.19,0,0,0,0,.78c0,.26.1.63.1.88Z"/><path class="cls-2" d="M14.12,53.12a2.9,2.9,0,0,0-2.45-1.36,2.25,2.25,0,0,0-2.11,1.7,2.77,2.77,0,0,0,.83,2.34,11.11,11.11,0,0,0,2.1,1.52A11.76,11.76,0,0,1,14.25,59,22.69,22.69,0,0,1,16,57.35a16.06,16.06,0,0,0,2.11-1.54,2.77,2.77,0,0,0,.83-2.34,2.25,2.25,0,0,0-2.11-1.7,2.91,2.91,0,0,0-2.45,1.36Z"/><path class="cls-2" d="M26.33,41.84c0-.26.1-.62.1-.88a7.43,7.43,0,0,0,0-.78,3.56,3.56,0,0,0-1.08-2.33c.6,0,2.11,0,2.71,0A3.56,3.56,0,0,0,27,40.17a7.19,7.19,0,0,0,0,.78c0,.26.1.63.1.88Z"/><path class="cls-2" d="M26.55,40.86a2.91,2.91,0,0,0-2.45-1.36A2.25,2.25,0,0,0,22,41.2a2.78,2.78,0,0,0,.83,2.34,11.14,11.14,0,0,0,2.1,1.51,11.81,11.81,0,0,1,1.76,1.68,22.22,22.22,0,0,1,1.75-1.65,16.31,16.31,0,0,0,2.11-1.54,2.78,2.78,0,0,0,.83-2.34,2.25,2.25,0,0,0-2.11-1.7,2.91,2.91,0,0,0-2.45,1.36Z"/><path class="cls-2" d="M13.9,41.84c0-.26.1-.62.1-.88a7.7,7.7,0,0,0,0-.78,3.56,3.56,0,0,0-1.08-2.33c.6,0,2.11,0,2.71,0a3.56,3.56,0,0,0-1.08,2.33,7.19,7.19,0,0,0,0,.78c0,.26.1.63.1.88Z"/><path class="cls-2" d="M14.12,40.86a2.91,2.91,0,0,0-2.45-1.36,2.25,2.25,0,0,0-2.11,1.7,2.78,2.78,0,0,0,.83,2.34,11.11,11.11,0,0,0,2.1,1.51,11.86,11.86,0,0,1,1.76,1.68A22.41,22.41,0,0,1,16,45.09a16.23,16.23,0,0,0,2.11-1.54,2.78,2.78,0,0,0,.83-2.34,2.25,2.25,0,0,0-2.11-1.7,2.91,2.91,0,0,0-2.45,1.36Z"/></g></g></svg>