<svg xmlns="http://www.w3.org/2000/svg" viewBox="0 0 40.93 62.29"><defs><style>.cls-1{fill:#fff;}.cls-2{fill:#d6002b;}</style></defs><title>Fichier 41</title><g id="Calque_2" data-name="Calque 2"><g id="Layer_1" data-name="Layer 1"><rect class="cls-1" x="0.09" y="0.09" width="40.74" height="62.1" rx="3.45" ry="3.45"/><path class="cls-1" d="M37.39,62.29H3.54A3.55,3.55,0,0,1,0,58.74V3.54A3.55,3.55,0,0,1,3.54,0H37.39a3.55,3.55,0,0,1,3.54,3.54v55.2A3.55,3.55,0,0,1,37.39,62.29ZM3.54.19A3.36,3.36,0,0,0,.19,3.54v55.2A3.36,3.36,0,0,0,3.54,62.1H37.39a3.36,3.36,0,0,0,3.36-3.36V3.54A3.36,3.36,0,0,0,37.39.19Z"/><path class="cls-2" d="M20.28,35.92a.79.79,0,0,0,.44-.13A48.34,48.34,0,0,0,25,31.7a.68.68,0,0,0,.26-.52.73.73,0,0,0-.25-.4c-1.11-1.1-2.28-2.15-3.32-3.31-.45-.5-1-1.08-1.32-1.1h-.17c-.33,0-.87.6-1.32,1.1-1,1.17-2.21,2.21-3.32,3.31a.73.73,0,0,0-.25.4.68.68,0,0,0,.26.52,48.41,48.41,0,0,0,4.27,4.09.79.79,0,0,0,.44.13Z"/><path class="cls-2" d="M5.29,12.71a.25.25,0,0,0,.13,0,15,15,0,0,0,1.3-1.24.21.21,0,0,0,.08-.16.23.23,0,0,0-.08-.12c-.34-.34-.69-.65-1-1-.14-.15-.3-.33-.4-.34H5.26c-.1,0-.26.18-.4.34-.32.35-.67.67-1,1a.22.22,0,0,0-.08.12.21.21,0,0,0,.08.16,14.91,14.91,0,0,0,1.3,1.24.25.25,0,0,0,.13,0Z"/><path class="cls-2" d="M35.66,52.24a.25.25,0,0,0,.13,0A14.71,14.71,0,0,0,37.09,51a.21.21,0,0,0,.08-.16.22.22,0,0,0-.08-.12c-.34-.34-.69-.65-1-1-.14-.15-.3-.33-.4-.33h-.05c-.1,0-.26.18-.4.33-.32.36-.67.67-1,1a.22.22,0,0,0-.08.12.21.21,0,0,0,.08.16,14.65,14.65,0,0,0,1.3,1.24.25.25,0,0,0,.13,0Z"/><path class="cls-2" d="M7.57,8.74H6.83L6.26,7.06H4.12L3.61,8.74H3L4.87,3h.81ZM6.1,6.53,5.21,3.76,4.32,6.53Z"/><path class="cls-2" d="M33.38,53.54h.74l.58,1.68h2.13l.51-1.68h.6l-1.87,5.75h-.81Zm1.47,2.22.89,2.76.89-2.76Z"/></g></g></svg>