<svg xmlns="http://www.w3.org/2000/svg" viewBox="0 0 40.93 62.29"><defs><style>.cls-1{fill:#fff;}.cls-2{fill:#0c0a35;}</style></defs><title>Fichier 28</title><g id="Calque_2" data-name="Calque 2"><g id="Layer_1" data-name="Layer 1"><rect class="cls-1" x="0.09" y="0.09" width="40.74" height="62.1" rx="3.45" ry="3.45"/><path class="cls-1" d="M37.39,62.29H3.54A3.55,3.55,0,0,1,0,58.74V3.54A3.55,3.55,0,0,1,3.54,0H37.39a3.55,3.55,0,0,1,3.54,3.54v55.2A3.55,3.55,0,0,1,37.39,62.29ZM3.54.19A3.36,3.36,0,0,0,.19,3.54v55.2A3.36,3.36,0,0,0,3.54,62.1H37.39a3.36,3.36,0,0,0,3.36-3.36V3.54A3.36,3.36,0,0,0,37.39.19Z"/><path class="cls-2" d="M35.44,50.65c0-.1,0-.25,0-.35a2.81,2.81,0,0,0,0-.31,1.42,1.42,0,0,0-.43-.93c.24,0,.84,0,1.08,0a1.42,1.42,0,0,0-.43.93c0,.11,0,.21,0,.31s0,.25,0,.35Z"/><path class="cls-2" d="M35.53,50.26a1.16,1.16,0,0,0-1-.54.9.9,0,0,0-.84.68,1.11,1.11,0,0,0,.33.93,4.48,4.48,0,0,0,.84.61,4.63,4.63,0,0,1,.7.67,8.87,8.87,0,0,1,.7-.66,6.54,6.54,0,0,0,.84-.62,1.11,1.11,0,0,0,.33-.93.89.89,0,0,0-.84-.68,1.16,1.16,0,0,0-1,.54Z"/><path class="cls-2" d="M33.3,53.54H34l.58,1.68h2.13l.51-1.68h.6L36,59.29h-.81Zm1.47,2.22.89,2.76.89-2.76Z"/><path class="cls-2" d="M5.36,11.36c0,.1,0,.25,0,.35a2.9,2.9,0,0,0,0,.31,1.42,1.42,0,0,0,.43.93c-.24,0-.84,0-1.08,0A1.42,1.42,0,0,0,5.11,12a2.87,2.87,0,0,0,0-.31c0-.1,0-.25,0-.35Z"/><path class="cls-2" d="M5.27,11.75a1.16,1.16,0,0,0,1,.54.9.9,0,0,0,.84-.68,1.11,1.11,0,0,0-.33-.93,4.5,4.5,0,0,0-.84-.61,4.72,4.72,0,0,1-.7-.67,9.06,9.06,0,0,1-.7.66,6.51,6.51,0,0,0-.84.62,1.11,1.11,0,0,0-.33.93.9.9,0,0,0,.84.68,1.16,1.16,0,0,0,1-.54Z"/><path class="cls-2" d="M20.82,31.58c0,.26-.1.63-.1.88a7.23,7.23,0,0,0,0,.78,3.55,3.55,0,0,0,1.08,2.32c-.6,0-2.11,0-2.71,0a3.56,3.56,0,0,0,1.08-2.32,7.36,7.36,0,0,0,0-.78c0-.26-.1-.62-.1-.88Z"/><path class="cls-2" d="M20.59,32.56A2.9,2.9,0,0,0,23,33.92a2.25,2.25,0,0,0,2.11-1.7,2.77,2.77,0,0,0-.83-2.34,11,11,0,0,0-2.1-1.52,11.73,11.73,0,0,1-1.76-1.68,22.51,22.51,0,0,1-1.75,1.65,15.91,15.91,0,0,0-2.11,1.54,2.77,2.77,0,0,0-.83,2.34,2.25,2.25,0,0,0,2.11,1.7,2.9,2.9,0,0,0,2.45-1.36Z"/><path class="cls-2" d="M7.5,8.74H6.76L6.19,7.06H4.05L3.54,8.74h-.6L4.81,3h.81ZM6,6.53,5.14,3.76,4.25,6.53Z"/></g></g></svg>