<svg xmlns="http://www.w3.org/2000/svg" xmlns:xlink="http://www.w3.org/1999/xlink" viewBox="0 0 40.93 62.29"><defs><style>.cls-1{fill:none;}.cls-2{fill:#191956;}.cls-3{fill:#fff;}.cls-4{fill:#b70027;}.cls-5{fill:#141247;}.cls-6{fill:#0c0a35;}.cls-7{fill:#ffd6a1;}.cls-8{fill:#f70032;}.cls-9{clip-path:url(#clip-path);}.cls-10{clip-path:url(#clip-path-2);}.cls-11{clip-path:url(#clip-path-3);}.cls-12{fill:#222272;}.cls-13{fill:#990028;}.cls-14{clip-path:url(#clip-path-4);}.cls-15{clip-path:url(#clip-path-5);}.cls-16{clip-path:url(#clip-path-6);}</style><clipPath id="clip-path"><path class="cls-1" d="M13.11,20.46c-.56.05-.83.63-.95,1.18a3.79,3.79,0,0,0-.08.82,4.77,4.77,0,0,0,.71,2.66,2.9,2.9,0,0,0,2.32,1.34,4.06,4.06,0,0,0,1.26-.25A11,11,0,0,0,21,23.38a8.07,8.07,0,0,0,2.22-4.87c0-.11,0-.24-.09-.29a2.49,2.49,0,0,0-1.48-1.44,2.73,2.73,0,0,0-2.16.07,1.89,1.89,0,0,0-.84.72,3.85,3.85,0,0,0-.34,1.27,1.69,1.69,0,0,1-.6,1.14,1.85,1.85,0,0,1-.69.24c-.62.12-1.24.21-1.86.27Z"/></clipPath><clipPath id="clip-path-2"><path class="cls-1" d="M14.52,17.91a3.76,3.76,0,0,1,1.25-.07,3,3,0,0,1,1.23.38,3.26,3.26,0,0,1,1.06,1,1.18,1.18,0,0,1,.22.44.9.9,0,0,1-.26.79,1.65,1.65,0,0,1-.74.41,2.93,2.93,0,0,1-3-.92c-.09-.11-.2-.24-.35-.24s-.22.15-.31.28a5.1,5.1,0,0,1-.7.68.77.77,0,0,1-.57.27c-.37,0-.57-.47-.54-.84a2.09,2.09,0,0,1,.83-1.41A4.93,4.93,0,0,1,14.52,17.91Z"/></clipPath><clipPath id="clip-path-3"><path class="cls-2" d="M26.08,23a2.55,2.55,0,0,0,.64-.56,5.29,5.29,0,0,0,.9-2.89,5.75,5.75,0,0,0-.1-1.2,9.66,9.66,0,0,0-1.85-4.18,3.2,3.2,0,0,0-1.25-1.07,6.59,6.59,0,0,0-.68-.21c-.52-.15-1-.4-1.54-.55a2.15,2.15,0,0,0-1.6.07,13.18,13.18,0,0,0,.84,5.46A15.2,15.2,0,0,0,23,21.46a4.48,4.48,0,0,0,1.07,1.21,2.27,2.27,0,0,0,1.52.48A1.15,1.15,0,0,0,26.08,23Z"/></clipPath><clipPath id="clip-path-4"><path class="cls-1" d="M27.83,41.15c.56-.05.83-.63.95-1.18a3.74,3.74,0,0,0,.08-.82,4.77,4.77,0,0,0-.71-2.66,2.9,2.9,0,0,0-2.32-1.34,4,4,0,0,0-1.26.25A11,11,0,0,0,20,38.24a8.07,8.07,0,0,0-2.22,4.87c0,.11,0,.24.09.29a2.49,2.49,0,0,0,1.47,1.44,2.74,2.74,0,0,0,2.16-.06,1.89,1.89,0,0,0,.84-.72,3.82,3.82,0,0,0,.34-1.27,1.68,1.68,0,0,1,.6-1.14,1.84,1.84,0,0,1,.69-.24q.92-.18,1.86-.27Z"/></clipPath><clipPath id="clip-path-5"><path class="cls-1" d="M26.43,43.7a3.76,3.76,0,0,1-1.25.07,3,3,0,0,1-1.23-.38,3.26,3.26,0,0,1-1.06-1,1.19,1.19,0,0,1-.22-.44.91.91,0,0,1,.26-.79,1.65,1.65,0,0,1,.74-.41,2.93,2.93,0,0,1,3,.92c.09.11.2.24.35.24s.22-.15.31-.28A5.13,5.13,0,0,1,28,41a.77.77,0,0,1,.57-.27c.37,0,.57.47.54.84A2.09,2.09,0,0,1,28.31,43,4.91,4.91,0,0,1,26.43,43.7Z"/></clipPath><clipPath id="clip-path-6"><path class="cls-2" d="M14.86,38.61a2.51,2.51,0,0,0-.64.56,5.27,5.27,0,0,0-.9,2.89,5.82,5.82,0,0,0,.1,1.2,9.65,9.65,0,0,0,1.85,4.18,3.19,3.19,0,0,0,1.25,1.07,6.82,6.82,0,0,0,.68.21c.52.15,1,.4,1.54.55a2.15,2.15,0,0,0,1.6-.07,13.18,13.18,0,0,0-.84-5.46,15.22,15.22,0,0,0-1.56-3.59,4.48,4.48,0,0,0-1.07-1.21,2.28,2.28,0,0,0-1.52-.48A1.16,1.16,0,0,0,14.86,38.61Z"/></clipPath></defs><title>Fichier 14</title><g id="Calque_2" data-name="Calque 2"><g id="Layer_1" data-name="Layer 1"><rect class="cls-3" x="0.09" y="0.09" width="40.74" height="62.1" rx="3.45" ry="3.45"/><path class="cls-3" d="M37.39,62.29H3.54A3.55,3.55,0,0,1,0,58.74V3.54A3.55,3.55,0,0,1,3.54,0H37.39a3.55,3.55,0,0,1,3.54,3.54v55.2A3.55,3.55,0,0,1,37.39,62.29ZM3.54.19A3.36,3.36,0,0,0,.19,3.54v55.2A3.36,3.36,0,0,0,3.54,62.1H37.39a3.36,3.36,0,0,0,3.36-3.36V3.54A3.36,3.36,0,0,0,37.39.19Z"/><path class="cls-4" d="M5,30.08a2.24,2.24,0,0,0,2.08,1.09A21.24,21.24,0,0,0,11,30.89c.35,0,.78-.17.86-.57a1.07,1.07,0,0,0,0-.44,4.46,4.46,0,0,0-.3-.93,3.38,3.38,0,0,0-2-1.61,4.09,4.09,0,0,0-3.38.07A2.45,2.45,0,0,0,5,28.5,2,2,0,0,0,5,30.08Z"/><path class="cls-4" d="M35.27,31.89a2.27,2.27,0,0,0-2-1.18,22,22,0,0,0-3.9,0c-.35,0-.79.12-.89.49a1,1,0,0,0,0,.42,4.22,4.22,0,0,0,.24.91,3.37,3.37,0,0,0,1.93,1.67,4.23,4.23,0,0,0,3.38.14,2.41,2.41,0,0,0,1.1-1A1.83,1.83,0,0,0,35.27,31.89Z"/><path class="cls-5" d="M6.42,25.57A1,1,0,0,1,6.61,25c1.66-2.68,5.51-4.34,9.43-4.79a36.93,36.93,0,0,1,11.72.95,11.22,11.22,0,0,1,2,.57,6.46,6.46,0,0,1,3.34,3.68,5.39,5.39,0,0,0-2.23.63A2.69,2.69,0,0,0,30,28.66a47.67,47.67,0,0,0,1.26,9.2,13.32,13.32,0,0,1-2.91.2c-5.91,0-11.82-.06-17.73-.19a.62.62,0,0,1-.34-.07.31.31,0,0,1-.11-.22c-.59-3.36,0-6.44-.91-9.77-.08-.28,1.37-.91,1.15-1.14A3.26,3.26,0,0,0,9.18,26,4.75,4.75,0,0,0,6.42,25.57Z"/><path class="cls-5" d="M34.52,35.77a1.05,1.05,0,0,1-.19.56c-1.66,2.82-5.51,4.56-9.43,5a35.21,35.21,0,0,1-11.72-1,10.79,10.79,0,0,1-2-.6A6.68,6.68,0,0,1,7.79,35.9,5.2,5.2,0,0,0,10,35.24,2.91,2.91,0,0,0,11,32.53,52.58,52.58,0,0,0,9.7,22.87a12.69,12.69,0,0,1,2.91-.21c5.91,0,11.82.06,17.73.2a.6.6,0,0,1,.34.08.33.33,0,0,1,.11.23c.59,3.53,0,6.77.91,10.26.07.29-1.38,1-1.15,1.2a3.22,3.22,0,0,0,1.21.69A4.55,4.55,0,0,0,34.52,35.77Z"/><path class="cls-6" d="M31.77,39.11C31.28,39.27,19,33.26,17,32c-2.62-1.59-9.94-3.9-10.38-4.26a1.77,1.77,0,0,1-.7-1.47,2.5,2.5,0,0,1,.4-1C7,24.12,8,22.89,9.3,22.68c1.51-.24,2.72,1.08,4.06,1.81C19.78,28,25.18,30.17,29.08,32c3.14,1.45,3.8,1.5,5.45,2.45.2.11.45,1-.3,2.15C33.1,38.27,33.1,38.67,31.77,39.11Z"/><path class="cls-7" d="M16,21.7a3.47,3.47,0,0,0,1.48-.13,3.58,3.58,0,0,0,1-.73,17.89,17.89,0,0,0,1.43-1.39,10.66,10.66,0,0,0,2.35-4.81,1.83,1.83,0,0,0,0-1.11,2,2,0,0,0-1.29-.9,7.49,7.49,0,0,0-2.22-.52,7.51,7.51,0,0,0-1.36.13l-2.2.34a1.16,1.16,0,0,0-.66.36A2,2,0,0,0,14,14.46a.85.85,0,0,1-.08.43,1,1,0,0,1-.33.3,6,6,0,0,0-1.9,2.09.78.78,0,0,0-.12.67.64.64,0,0,0,.63.3c.25,0,.49-.09.74-.08q0,.79,0,1.59a1.92,1.92,0,0,0,.16,1,1.6,1.6,0,0,0,.95.65A8.33,8.33,0,0,0,16,21.7Z"/><path class="cls-6" d="M13.11,20.46c-.56.05-.83.63-.95,1.18a3.79,3.79,0,0,0-.08.82,4.77,4.77,0,0,0,.71,2.66,2.9,2.9,0,0,0,2.32,1.34,4.06,4.06,0,0,0,1.26-.25A11,11,0,0,0,21,23.38a8.07,8.07,0,0,0,2.22-4.87c0-.11,0-.24-.09-.29a2.49,2.49,0,0,0-1.48-1.44,2.73,2.73,0,0,0-2.16.07,1.89,1.89,0,0,0-.84.72,3.85,3.85,0,0,0-.34,1.27,1.69,1.69,0,0,1-.6,1.14,1.85,1.85,0,0,1-.69.24c-.62.12-1.24.21-1.86.27Z"/><path class="cls-3" d="M17.7,15.59A5.89,5.89,0,0,1,16,15a2.76,2.76,0,0,1,1.53-.54,5.35,5.35,0,0,1,3.22.3A5.93,5.93,0,0,1,17.7,15.59Z"/><path class="cls-6" d="M24.67,11.68a1.47,1.47,0,0,0,.56-.65q.49-.9.91-1.84c.1-.22.26-.18.21-.41a2.29,2.29,0,0,0-.47-.85c-.22-.21-.7-.73-.93-.94A9.28,9.28,0,0,0,23,5.76a7.48,7.48,0,0,0-4.36-.17,7.65,7.65,0,0,0-1.38.56,3.84,3.84,0,0,0-1.93,1.77,4.5,4.5,0,0,0,0,2.47c.26.3.39.62.66.92a2.34,2.34,0,0,0,.66.58,2.27,2.27,0,0,0,.75.18,26.66,26.66,0,0,0,6.37,0C24.13,12,24.54,12,24.67,11.68Z"/><path class="cls-8" d="M19,4.47a1,1,0,0,0-.39.19.77.77,0,0,0-.32.47.63.63,0,0,0,.26.58,1,1,0,0,0,.63.18.79.79,0,0,0,.5-.16.61.61,0,0,0,.16-.21A.75.75,0,0,0,19,4.47Z"/><path class="cls-6" d="M18.24,15.54a.46.46,0,1,0-.46-.46.47.47,0,0,0,.46.46Z"/><path class="cls-6" d="M16.09,14.55a10.8,10.8,0,0,0,2.05-.13,9.87,9.87,0,0,0,2.11,0,.21.21,0,0,0,.09-.35c-.5-.58-1.52-.47-2.2-.42A3.58,3.58,0,0,0,16,14.4c-.06.06,0,.14.06.15Z"/><path class="cls-6" d="M13.63,17.72c.09-.18-.13-.39-.3-.23s.18.47.3.23Z"/><g class="cls-9"><path class="cls-4" d="M12.54,20.19a4,4,0,0,0-.22,1.43c.12.66.64,1.23.51,1.92s-.75,1.5-.54,2.36c0,.05.1,0,.09,0-.09-1.05.8-1.58.86-2.52a1.54,1.54,0,0,0-.13-.8,6.2,6.2,0,0,1-.42-2.35c0-.09-.15-.12-.16,0Z"/><path class="cls-4" d="M11.55,21.81a4.44,4.44,0,0,0,.26,1.06,1.61,1.61,0,0,1,.06.68,1.63,1.63,0,0,0-.1.49c0,.07.06.15.15.14.46,0,.55-.59.49-1a3.68,3.68,0,0,0-.64-1.46.11.11,0,0,0-.21.06Z"/><path class="cls-4" d="M12.81,19.8a5.75,5.75,0,0,1,.71,4.48c-.16.59-.78,1.07-.77,1.71a2.47,2.47,0,0,0,.6,1.63c.08.09.19,0,.18-.1a4.74,4.74,0,0,1-.25-1.79,8,8,0,0,1,.56-1.09A4.84,4.84,0,0,0,14,22.49c-.06-.9-.17-2.42-1.15-2.81-.07,0-.11.07-.07.12Z"/><path class="cls-4" d="M13.5,20.22a3.81,3.81,0,0,1,1.18,2.34A3.88,3.88,0,0,1,14,25.06a2.38,2.38,0,0,0,.55,2.78c.07.07.23,0,.21-.09-.13-1-.83-1.61-.21-2.72a4.16,4.16,0,0,0,.63-1.81c.09-1-.35-2.9-1.55-3.18-.09,0-.18.1-.1.17Z"/><path class="cls-4" d="M14.33,20.1a20.51,20.51,0,0,1,1.5,1.71c.75,1.14-.16,2-.53,3a2.73,2.73,0,0,0,1.07,3.28.15.15,0,0,0,.21-.16c-.38-1.08-1.17-1.68-.75-3a10,10,0,0,0,.8-2.18c.12-1.2-1.3-2.34-2.21-2.82a.09.09,0,0,0-.1.13Z"/><path class="cls-4" d="M15,19.71a15.54,15.54,0,0,1,2,2c.9,1.22-.11,2-.25,3.15s.52,2.92,1.79,3c.11,0,.13-.12.08-.19-.65-.83-1.39-1.33-1.46-2.48-.05-.87.7-1.56.73-2.42,0-1.3-1.69-2.72-2.74-3.16-.08,0-.17.06-.1.13Z"/><path class="cls-4" d="M16.26,19.78a5,5,0,0,1,1.85,2,1.9,1.9,0,0,1,.12,2.11,5.66,5.66,0,0,0-.43.74,2.89,2.89,0,0,0,1.48,3.27.13.13,0,0,0,.18-.18C19,26.56,17.61,26,18.29,24.52c.26-.55.7-1.08.61-1.73-.16-1.13-1.29-3.12-2.6-3.15a.07.07,0,0,0,0,.14Z"/><path class="cls-4" d="M16.7,19c1.19,1.24,3.23,2.25,2.61,4.32-.38,1.25-.52,2.57.64,3.48.08.06.21,0,.18-.1-.37-1.09-.89-1.74-.49-3a3,3,0,0,0,.11-2c-.37-1.34-1.84-2.25-3-2.84a0,0,0,0,0-.05.07Z"/><path class="cls-4" d="M17.48,18.8a6.8,6.8,0,0,1,2.58,2.52,4.88,4.88,0,0,1,.32,2.81c-.06,1.06.08,2.79,1.45,2.91.12,0,.17-.15.09-.22A3.29,3.29,0,0,1,21,25.7a3.59,3.59,0,0,1-.13-1.33,9.12,9.12,0,0,0,0-2.18,4.61,4.61,0,0,0-3.37-3.49.05.05,0,0,0,0,.1Z"/><path class="cls-4" d="M17.81,18.53a7.26,7.26,0,0,1,2.71,1.63,4.23,4.23,0,0,1,.86,3.07c0,1.15-.12,3,1.37,3.28a.13.13,0,0,0,.13-.22,4.13,4.13,0,0,1-1-1.31,5,5,0,0,1-.12-1.75,5.6,5.6,0,0,0-.41-2.5c-.53-1.09-2.19-2.57-3.5-2.29,0,0,0,.07,0,.09Z"/><path class="cls-4" d="M18.18,17.94a5.2,5.2,0,0,1,2.9,1.85c.83.95.84,2.09,1.07,3.26s0,2.73,1.39,3.07a.1.1,0,0,0,.08-.18c-1.55-1.12-.83-3.8-1.5-5.38a4.77,4.77,0,0,0-3.91-2.79c-.1,0-.12.15,0,.17Z"/><path class="cls-4" d="M18.15,17.29a1.41,1.41,0,0,0,.79.15,3.68,3.68,0,0,1,2.12,1.2,5.85,5.85,0,0,1,1.33,1.43c.32.54.52,1.21.8,1.78.8,1.61,1.85,3.21,3.78,2,0,0,0-.1,0-.08-2.77,1.16-3.32-2.92-4.55-4.47-1-1.3-2.54-2.4-4.24-2.14-.05,0-.06.09,0,.11Z"/><path class="cls-4" d="M19,16.61a4.23,4.23,0,0,1,2.79,1.7,4.47,4.47,0,0,0,1.92,1.46c.12,0,.2-.12.12-.2-.43-.41-.92-.73-1.37-1.12s-.71-.9-1.15-1.26A3.59,3.59,0,0,0,19,16.45a.08.08,0,0,0,0,.15Z"/></g><path class="cls-2" d="M14.52,17.91a3.76,3.76,0,0,1,1.25-.07,3,3,0,0,1,1.23.38,3.26,3.26,0,0,1,1.06,1,1.18,1.18,0,0,1,.22.44.9.9,0,0,1-.26.79,1.65,1.65,0,0,1-.74.41,2.93,2.93,0,0,1-3-.92c-.09-.11-.2-.24-.35-.24s-.25.15-.33.27a2.84,2.84,0,0,1-.62.63c-.17.14-.41.35-.63.33s-.57-.47-.54-.84a2.09,2.09,0,0,1,.83-1.41A4.93,4.93,0,0,1,14.52,17.91Z"/><g class="cls-10"><path class="cls-4" d="M13,17.8c.64.92-.85,1.82-1.06,2.71a1.13,1.13,0,0,0,.67,1.34c.06,0,.13-.06.09-.12-.78-1.11-.08-1.66.55-2.58A1,1,0,0,0,13,17.73s-.13,0-.09.07Z"/><path class="cls-4" d="M13.5,17.43A3.54,3.54,0,0,1,13.61,19a6,6,0,0,1-.55,1,1.19,1.19,0,0,0-.08,1.2s.13,0,.12,0c-.1-.86.61-1.36.91-2.11a1.72,1.72,0,0,0-.4-1.77c0-.05-.12,0-.11.07Z"/><path class="cls-4" d="M13.55,16.94c1.12,1.44,1.47,4.47,3.63,4.82a0,0,0,0,0,0-.09,6.13,6.13,0,0,1-2.06-2.42,7.75,7.75,0,0,0-1.55-2.38,0,0,0,0,0-.06.06Z"/><path class="cls-4" d="M14.64,17.51c1,1.61,1.67,3.57,3.66,4.25.09,0,.14-.09.09-.15a24.28,24.28,0,0,1-2.1-2,14.6,14.6,0,0,0-1.5-2.26c-.08-.07-.21,0-.15.12Z"/><path class="cls-4" d="M14.75,16.48a11.77,11.77,0,0,0,4.16,4.83,0,0,0,0,0,.05-.07,35.31,35.31,0,0,1-4.08-4.83.08.08,0,0,0-.13.08Z"/><path class="cls-4" d="M15.6,17c1.19,1.1,2.17,2.37,3.29,3.52,0,0,.15,0,.12-.07a6.13,6.13,0,0,0-1.25-1.67,15.61,15.61,0,0,0-2-1.92c-.09-.07-.19.08-.12.15Z"/></g><path class="cls-2" d="M26.08,23a2.55,2.55,0,0,0,.64-.56,5.29,5.29,0,0,0,.9-2.89,5.75,5.75,0,0,0-.1-1.2,9.66,9.66,0,0,0-1.85-4.18,3.2,3.2,0,0,0-1.25-1.07,6.59,6.59,0,0,0-.68-.21c-.52-.15-1-.4-1.54-.55a2.15,2.15,0,0,0-1.6.07,13.18,13.18,0,0,0,.84,5.46A15.2,15.2,0,0,0,23,21.46a4.48,4.48,0,0,0,1.07,1.21,2.27,2.27,0,0,0,1.52.48A1.15,1.15,0,0,0,26.08,23Z"/><g class="cls-11"><path class="cls-4" d="M20.28,12.74a3.23,3.23,0,0,0,.59,2.57c.5.68.81,1.17.42,2.05a1.63,1.63,0,0,0-.19,1c.29,1,1.29,1.44,1.5,2.53s-.26,2.45.42,3.41c.07.1.27.08.25-.07-.1-1.08.1-2.14-.1-3.21a3.51,3.51,0,0,0-.31-1.16c-.29-.47-.75-.76-1.07-1.21s.15-1.35.3-1.93a1.38,1.38,0,0,0-.21-1,17.31,17.31,0,0,1-1.06-1.6c-.2-.5-.08-1-.36-1.47a.09.09,0,0,0-.17,0Z"/><path class="cls-4" d="M21,12.31a2.85,2.85,0,0,0,.33,1.37c.24.65.9.94,1.28,1.49.67,1-.13,1.7-.28,2.62a1.23,1.23,0,0,0,.31,1A13.87,13.87,0,0,1,24,20c.74,1-.2,1.69-.24,2.62,0,.57.26,1.87,1.1,1.73a.19.19,0,0,0,.11-.27c-.36-.6-.71-.93-.54-1.69a6.83,6.83,0,0,0,.46-1.59c0-1-.89-1.67-1.61-2.1-.94-.57-.32-1.22-.09-1.94a1.92,1.92,0,0,0-.08-1.4,2.26,2.26,0,0,0-.71-.95,4,4,0,0,1-1.33-2.09.06.06,0,0,0-.12,0Z"/><path class="cls-4" d="M22.16,12.44A6,6,0,0,0,23,13.9c.58.77,1.31,1,1,2.18-.19.82-.64,1.64.22,2.23s1.78,1.16,1.61,2.26c-.09.57-.53,1-.7,1.57a1.69,1.69,0,0,0,1,2.16.13.13,0,0,0,.15-.19c-.53-.74-1-1.32-.47-2.24a7.57,7.57,0,0,0,.58-1.16c.31-.91-.48-1.88-1.16-2.37s-1.14-.79-.79-1.83A2.58,2.58,0,0,0,24.52,15a1.8,1.8,0,0,0-.65-.86,13.12,13.12,0,0,1-1.62-1.71.06.06,0,0,0-.09.05Z"/><path class="cls-4" d="M23.85,13.06a2.65,2.65,0,0,1,1.27,3.11,1.7,1.7,0,0,0,.39,1.77c.39.43.91.65,1.28,1.13a2.14,2.14,0,0,1,0,2,2.44,2.44,0,0,0,.06,2.11.1.1,0,0,0,.19-.05c.11-2,1.49-4-.74-5.28-1.13-.65-.7-1.25-.61-2.24a2.62,2.62,0,0,0-.17-1.4,2.44,2.44,0,0,0-1.62-1.41c-.14,0-.16.18-.07.24Z"/><path class="cls-4" d="M27.08,13.81a2.86,2.86,0,0,0-.9,2.69,2.64,2.64,0,0,0,2.69,1.69.11.11,0,0,0,0-.2c-.94-.41-1.87-.54-2.31-1.6a3.17,3.17,0,0,1,.62-2.45.09.09,0,0,0-.13-.13Z"/></g><path class="cls-12" d="M24.89,13.55H26a.63.63,0,0,0,.38-.08.32.32,0,0,0,.13-.26c0-.25-.28-.39-.49-.52a1.86,1.86,0,0,1-.37-.3,1.58,1.58,0,0,1,.22-.66c.94-1.93,2.89-6.15,3.35-7a1.57,1.57,0,0,0,1.15.35A.19.19,0,0,0,30.45,5c.06-.08,0-.19-.11-.25a6.3,6.3,0,0,0-.92-.6c.19-.38.31-.57.46-.93,0-.08.25-.84-.16-.81s-.74.95-.86,1.4a6.14,6.14,0,0,0-1-.42.21.21,0,0,0-.23.34,1.32,1.32,0,0,0,.67.46,71.72,71.72,0,0,0-3.88,6.67.41.41,0,0,1-.15.19.14.14,0,0,1-.21-.07s0-.13,0-.14c.38-2.65.88-5.22,1.5-7.82.23.05.46,0,.69.08a.72.72,0,0,0,.37,0,.25.25,0,0,0,.18-.28.33.33,0,0,0-.18-.17,2.25,2.25,0,0,0-1-.14A4.47,4.47,0,0,0,26,1.26a.23.23,0,0,0-.44,0,7.69,7.69,0,0,0-.46,1.16,1.88,1.88,0,0,0-1-.35.16.16,0,0,0-.16.19.58.58,0,0,0,.26.37,1.65,1.65,0,0,0,.6.23A44,44,0,0,1,22,10.7a.11.11,0,0,1-.21,0,25,25,0,0,1-.42-4.1c0-1.27,0-2.9,0-4.25a.08.08,0,0,1,.08-.08,3.44,3.44,0,0,0,1,0,.3.3,0,0,0,.19-.11c.09-.15-.1-.31-.26-.36a3,3,0,0,0-.92,0,0,0,0,0,1,0,0c0-.24,0-.54,0-.77a.82.82,0,0,0-.05-.39.28.28,0,0,0-.32-.16c-.13,0-.18.21-.2.35a6.74,6.74,0,0,0-.08,1,0,0,0,0,1,0,0,4.73,4.73,0,0,0-.8,0,.51.51,0,0,0-.34.13.26.26,0,0,0,.16.42,1.9,1.9,0,0,0,.9-.08,0,0,0,0,1,0,0c-.55,4.31-1,8-1.49,8.33a.24.24,0,0,1-.35-.14A36.51,36.51,0,0,1,17.63,5a9.68,9.68,0,0,1-.27-2.54.2.2,0,0,1,.17-.17A2,2,0,0,0,18.26,2a.37.37,0,0,0,.15-.15.29.29,0,0,0-.23-.36.77.77,0,0,0-.47.09,1,1,0,0,1-.47.14c-.07,0-.13-.74-.33-1.1-.06-.11-.19-.06-.23.06a2.27,2.27,0,0,0,0,1.07.1.1,0,0,1-.09.12L15.69,2c-.2,0-.47.13-.4.32a.35.35,0,0,0,.45.24c.37-.07.59-.13,1-.18.09,3.15.23,5.15.48,8,0,.5-.4.45-.53.21-.57-1-1.41-2.87-1.95-3.88S13.4,4.66,12.84,3.68a1.46,1.46,0,0,1-.18-.52c0-.12,0-.17.1-.25l.46-.25c.11-.06.18-.23.08-.31a.22.22,0,0,0-.12,0,.9.9,0,0,0-.53.2c-.07,0-.51.28-.69-.55a.55.55,0,0,0-.21-.39c-.29-.18-.51.14-.47.4a1.56,1.56,0,0,0,.29.55.66.66,0,0,1,.12.59c-.08.2-.28.19-.48.29a.79.79,0,0,0-.29.25.19.19,0,0,0,.21.29,1.25,1.25,0,0,0,.47-.26c.21-.18.47-.38.58-.12.86,1.9,1.29,3.39,2.05,5,.23.51.46,1,.66,1.53A1.87,1.87,0,0,1,15,11.77a2,2,0,0,1-.59.53,1.23,1.23,0,0,0-.53.63.52.52,0,0,0,.39.64,14,14,0,0,0,3.66-.15c2.44-.15,4.89.34,7.32.08Z"/><path class="cls-6" d="M14.45,13.23a.25.25,0,0,0,0-.49.25.25,0,0,0,0,.49Z"/><path class="cls-6" d="M15.3,13.25a.27.27,0,0,0,0-.54.27.27,0,0,0,0,.54Z"/><path class="cls-6" d="M16.31,13.25a.27.27,0,0,0,0-.53.27.27,0,0,0,0,.53Z"/><path class="cls-6" d="M17.16,13.21a.25.25,0,0,0,0-.51.25.25,0,0,0,0,.51Z"/><path class="cls-6" d="M18.2,13.19a.29.29,0,0,0,0-.58.29.29,0,0,0,0,.58Z"/><path class="cls-6" d="M19.18,13.14a.29.29,0,0,0,0-.58.29.29,0,0,0,0,.58Z"/><path class="cls-6" d="M20.09,13.14h0a.27.27,0,1,0-.24-.41h0c-.13.18,0,.38.23.4Z"/><path class="cls-6" d="M21,13.16a.26.26,0,0,0,0-.52.26.26,0,0,0,0,.52Z"/><path class="cls-6" d="M22,13.28a.28.28,0,0,0,0-.55.28.28,0,0,0,0,.55Z"/><path class="cls-6" d="M22.92,13.3a.3.3,0,0,0,0-.59.3.3,0,0,0,0,.59Z"/><path class="cls-6" d="M24,13.3a.27.27,0,0,0,0-.54.27.27,0,0,0,0,.54Z"/><path class="cls-6" d="M24.86,13.28a.25.25,0,0,0,0-.5.25.25,0,0,0,0,.5Z"/><path class="cls-6" d="M25.66,13.3a.26.26,0,0,0,0-.53.26.26,0,0,0,0,.53Z"/><path class="cls-13" d="M16.05,10.89h0a.33.33,0,0,0,0-.46h0a.35.35,0,1,0,0,.49Z"/><path class="cls-13" d="M18,10.7a.43.43,0,1,0-.43-.43.43.43,0,0,0,.43.43Z"/><path class="cls-13" d="M20.65,10.57a.43.43,0,1,0-.43-.43.43.43,0,0,0,.43.43Z"/><path class="cls-13" d="M23.55,10.78h0a.42.42,0,0,0,.06-.5.42.42,0,0,0-.47-.19h0a.42.42,0,1,0,.41.7Z"/><path class="cls-13" d="M25.38,11.62h0a.39.39,0,0,0,.08-.6h0a.4.4,0,0,0-.56.56.4.4,0,0,0,.48.06Z"/><path class="cls-6" d="M19,4.56A.27.27,0,0,0,19,4a.27.27,0,0,0,0,.54Z"/><path class="cls-6" d="M15.21,9.93h0a.26.26,0,0,0,.52,0h0a.26.26,0,0,0-.52,0Z"/><path class="cls-6" d="M17.82,9.75a.31.31,0,0,0,0-.61.31.31,0,0,0,0,.61Z"/><path class="cls-6" d="M20.72,9.59a.25.25,0,0,0,0-.51.25.25,0,0,0,0,.51Z"/><path class="cls-6" d="M23.51,9.88a.27.27,0,0,0,0-.54.27.27,0,0,0,0,.54Z"/><path class="cls-6" d="M25.53,10.76a.25.25,0,0,0,0-.5.25.25,0,0,0,0,.5Z"/><path class="cls-12" d="M27.26,28.69a.89.89,0,0,0-.17.73,3.84,3.84,0,0,0,.22,1.19,1.41,1.41,0,0,0,.83.83,32.75,32.75,0,0,0,4.77-.3,2.29,2.29,0,0,0,.64-.15,1.63,1.63,0,0,0,.93-1.25,1.85,1.85,0,0,0-1-1.89,3.63,3.63,0,0,0-2.12-.11,23.81,23.81,0,0,0-3.76.78A.87.87,0,0,0,27.26,28.69Z"/><path class="cls-2" d="M26.6,27.66a2.94,2.94,0,0,1,.25-1.85,7.52,7.52,0,0,1,3.4-2.41,3.36,3.36,0,0,1,3.32.64,3,3,0,0,1,.92,2.48A2,2,0,0,1,33,28.07a12.59,12.59,0,0,1-3.06.29c-.85.12-2,.54-2.75.21C26.89,28.44,26.71,28,26.6,27.66Z"/><path class="cls-13" d="M31.4,23.93c.67-.41,1.52.61,1.84,1.08a2.1,2.1,0,0,1,.41,1.19c0,.49-.39,1-.92.85a.48.48,0,0,1-.35-.46c0-.16.14-.39.14-.46a1.49,1.49,0,0,0-.21-.69,3.17,3.17,0,0,0-.91-1.12.22.22,0,0,1,0-.38Z"/><path class="cls-13" d="M30.33,24.41c.45-.08.84.71,1,1a1.26,1.26,0,0,1-.15,1.72c-.39.29-1-.28-.67-.67s-.08-.74-.2-1-.46-1,0-1Z"/><path class="cls-13" d="M29.29,25.34a2.49,2.49,0,0,1,.25.82,2.73,2.73,0,0,1,.13.94.45.45,0,0,1-.88.12,3.56,3.56,0,0,1-.14-.94,1.7,1.7,0,0,1,.1-.94.31.31,0,0,1,.54,0Z"/><path class="cls-13" d="M27.87,26a5.42,5.42,0,0,1,0,.77,6.32,6.32,0,0,0,.28.9.32.32,0,0,1-.54.31c-.44-.49-.69-1.63-.07-2.09a.19.19,0,0,1,.27.11Z"/><path class="cls-8" d="M33.37,28.59a.14.14,0,0,1,0-.27.14.14,0,0,1,0,.27Z"/><path class="cls-8" d="M34,29.12A.08.08,0,0,1,34,29a.08.08,0,0,1,0,.16Z"/><path class="cls-8" d="M33.32,29.41a.16.16,0,0,1,0-.33.16.16,0,0,1,0,.33Z"/><path class="cls-8" d="M33.61,30a.11.11,0,0,1,0-.22.11.11,0,0,1,0,.22Z"/><path class="cls-8" d="M32.74,30a0,0,0,0,1,0,0,0,0,0,0,1,0,0Z"/><path class="cls-8" d="M32.68,30a.1.1,0,0,1,0-.2.1.1,0,0,1,0,.2Z"/><path class="cls-8" d="M32.6,28.69a.1.1,0,0,1,0-.21.1.1,0,0,1,0,.21Z"/><path class="cls-8" d="M32.23,29.27a.13.13,0,0,1,0-.27.13.13,0,0,1,0,.27Z"/><path class="cls-8" d="M33.08,30.89a.15.15,0,0,1,0-.3.15.15,0,0,1,0,.3Z"/><path class="cls-8" d="M32,30.5a.13.13,0,0,1,0-.27.13.13,0,0,1,0,.27Z"/><path class="cls-8" d="M31.54,29.84a.12.12,0,0,1,0-.23.12.12,0,0,1,0,.23Z"/><path class="cls-8" d="M31.38,29a.13.13,0,0,1,0-.26.13.13,0,0,1,0,.26Z"/><path class="cls-8" d="M30.45,28.78a.12.12,0,0,1,0-.24.12.12,0,0,1,0,.24Z"/><path class="cls-8" d="M30.56,29.53a.13.13,0,0,1,0-.25.13.13,0,0,1,0,.25Z"/><path class="cls-8" d="M29.87,29.22a.08.08,0,0,1,0-.16.08.08,0,0,1,0,.16Z"/><path class="cls-8" d="M30.77,30.37a.14.14,0,0,1,0-.28.14.14,0,0,1,0,.28Z"/><path class="cls-8" d="M31.25,31a.09.09,0,0,1,0-.18.09.09,0,0,1,0,.18Z"/><path class="cls-8" d="M32.36,31.1h0a.12.12,0,1,1,0-.17h0a.1.1,0,0,1,0,.14Z"/><path class="cls-8" d="M29.92,30.3a.12.12,0,0,1,0-.24.12.12,0,0,1,0,.24Z"/><path class="cls-8" d="M30.16,31.08a.1.1,0,0,1,0-.21.1.1,0,0,1,0,.21Z"/><path class="cls-13" d="M17.82,31.16a2,2,0,0,0,.19,1,2.46,2.46,0,0,0,.7.82,2.31,2.31,0,0,0,1.41.5,2.92,2.92,0,0,0,1.29-.24,2.55,2.55,0,0,0,1-.85,2.61,2.61,0,0,0-.23-3.28,2.89,2.89,0,0,0-1.85-.92,2.91,2.91,0,0,0-2.62,1.27,2.7,2.7,0,0,0,.15,3.24,2.79,2.79,0,0,0,.58.53,2.21,2.21,0,0,0,.7.36,2.79,2.79,0,0,0,1.38.11,2.55,2.55,0,0,0,1.7-1.12,2.62,2.62,0,0,0,.2-2.62,2.43,2.43,0,0,0-1.35-1.22,2.48,2.48,0,0,0-2.39.43,2.8,2.8,0,0,0-.82,1.14l.3-.57,0,.06.43-.47,0,0,.53-.35L19,29l.61-.2h0l.66,0h0l.65.14-.08,0,.57.3-.09-.06.47.43-.07-.07L22,30a.21.21,0,0,1,0-.08l.2.61v0q0,.33,0,.66a.25.25,0,0,1,0-.08l-.14.65,0-.07-.3.57.05-.07-.43.47.07-.06L21,32.9l.12-.06-.61.2.09,0-.66,0h.14l-.64-.14.14.05L19,32.69l.08.06-.46-.42.07.08-.33-.51a.91.91,0,0,1,.06.13l-.19-.58a.2.2,0,0,1,0,.05c0-.21,0-.41,0-.62a.59.59,0,0,1,0,.12l.13-.59a.7.7,0,0,1,0,.12l.26-.5a1.66,1.66,0,0,1-.2.28l.33-.37-.13.11.39-.25-.12.06.42-.14-.15,0,.42,0h0a1.66,1.66,0,0,0-1.11.36,1.45,1.45,0,0,0-.53,1Z"/><path class="cls-13" d="M16.31,32c.26-.89.07-1.82.39-2.7A5.92,5.92,0,0,1,17.32,28c.21-.31.78-.46,1.08-.69.54-.42,0-1.28-.65-1a3.82,3.82,0,0,0-2.13,2.27c-.44,1-.72,2.59.2,3.43a.28.28,0,0,0,.47-.09Z"/><path class="cls-13" d="M21.6,35.07c2.45,1,4.77-3.57,2.93-5.19A.32.32,0,0,0,24,30,5.08,5.08,0,0,0,24,31.35a3.52,3.52,0,0,1-.59,1.87,3.12,3.12,0,0,1-1.79,1.39c-.22.08-.16.39,0,.46Z"/><path class="cls-6" d="M19.75,30.63a3.43,3.43,0,0,1-.62-.15c-.2-.06-.37-.21-.57-.26a.52.52,0,1,0-.08,1c.19,0,.4,0,.6,0a2.1,2.1,0,0,0,.75-.19.21.21,0,0,0-.07-.39Z"/><path class="cls-6" d="M19.87,31.36a4.27,4.27,0,0,0-.52,1.5.5.5,0,0,0,1,.08,5.51,5.51,0,0,0,0-.77,2.35,2.35,0,0,0-.1-.77.22.22,0,0,0-.41,0Z"/><path class="cls-6" d="M20.39,30.27a5.21,5.21,0,0,0,.38-1.44c.07-.66-.92-.73-1-.08-.06.46-.18,1.24.21,1.59a.25.25,0,0,0,.42-.08Z"/><path class="cls-6" d="M20.41,31a1.27,1.27,0,0,0,.8.41c.41.1.94.18,1.23-.21a.54.54,0,0,0-.39-.83.68.68,0,0,0-.31,0c.14-.05-.05,0-.09,0l-.42.05a1.31,1.31,0,0,0-.75.2.27.27,0,0,0-.07.32Z"/><path class="cls-6" d="M16.4,29.08v0a.3.3,0,0,0-.18-.38.29.29,0,0,0-.38.17v0a.3.3,0,0,0,.17.38.29.29,0,0,0,.38-.17Z"/><path class="cls-6" d="M16.11,30.07a.28.28,0,0,0-.55,0,.28.28,0,0,0,.55,0Z"/><path class="cls-6" d="M16.07,31a.23.23,0,0,0-.45,0,.23.23,0,0,0,.45,0Z"/><path class="cls-6" d="M17,28a.29.29,0,1,0-.32.27A.3.3,0,0,0,17,28Z"/><path class="cls-6" d="M17.54,27.26a.18.18,0,0,0-.37,0,.18.18,0,0,0,.37,0Z"/><path class="cls-6" d="M18.26,26.8a.16.16,0,0,0-.33,0,.16.16,0,0,0,.33,0Z"/><path class="cls-6" d="M24.36,33.46a.32.32,0,1,0-.35.29.32.32,0,0,0,.35-.29Z"/><path class="cls-6" d="M24.82,32.51a.33.33,0,1,0-.36.3.33.33,0,0,0,.36-.3Z"/><path class="cls-6" d="M23.59,34.28a.24.24,0,0,0-.48,0,.24.24,0,0,0,.48,0Z"/><path class="cls-6" d="M22.74,34.68a.18.18,0,0,0-.35,0,.18.18,0,0,0,.35,0Z"/><path class="cls-6" d="M24.55,31.16a.24.24,0,0,0-.14.26.24.24,0,0,0,.33.17c.27-.13.06-.56-.19-.43Z"/><path class="cls-6" d="M24.33,30.5v0c0,.19.22.29.34.18s.07-.38-.12-.37h0a.2.2,0,0,0-.2.17Z"/><path class="cls-8" d="M18.92,32.22h0l-.1.19a.33.33,0,0,0,.06-.4.3.3,0,0,0-.24-.16.29.29,0,0,0-.29.19.33.33,0,0,0,0,.28.31.31,0,0,0,.32.16h0a.27.27,0,0,0,.22-.24Z"/><path class="cls-8" d="M21.53,32.33h0a.31.31,0,0,0-.58,0h0a.31.31,0,1,0,.59,0Z"/><path class="cls-8" d="M19.18,29.37a.3.3,0,1,0-.33.28.31.31,0,0,0,.33-.28Z"/><path class="cls-8" d="M21.28,29.19h0a.34.34,0,0,0,0,.58h0a.34.34,0,0,0,.35,0,.35.35,0,1,0-.48-.43h0l.51-.16a.35.35,0,0,0-.34,0Z"/><path class="cls-6" d="M15.8,35.11a.44.44,0,0,0,.17.1.25.25,0,0,0,.28-.11.25.25,0,0,0-.09-.34.32.32,0,0,0-.13-.06c-.22,0-.43.23-.23.4Z"/><path class="cls-6" d="M21.36,27.52a.15.15,0,0,0,0-.3.15.15,0,0,0,0,.3Z"/><path class="cls-6" d="M17.23,34a.14.14,0,0,0,0-.27.14.14,0,0,0,0,.27Z"/><path class="cls-6" d="M18.73,36.27a.21.21,0,0,0,0-.43.21.21,0,0,0,0,.43Z"/><path class="cls-6" d="M17.93,27.09a.21.21,0,0,0,0-.43.21.21,0,0,0,0,.43Z"/><path class="cls-6" d="M16.47,36.81a.26.26,0,0,0-.07.08.22.22,0,0,0,.38.22v0l-.08.08,0,0a.22.22,0,1,0-.27-.35Z"/><path class="cls-6" d="M22.26,25.57a.23.23,0,0,0,0-.45.23.23,0,0,0,0,.45Z"/><path class="cls-6" d="M12.83,34.22a.37.37,0,0,0-.17.09c-.18.15.05.42.24.32h0a.21.21,0,1,0-.06-.41Z"/><path class="cls-6" d="M13.65,35.38v0a.21.21,0,0,0,.36,0v0a.22.22,0,1,0-.38,0Z"/><path class="cls-7" d="M25,39.91a3.46,3.46,0,0,0-1.48.13,3.57,3.57,0,0,0-1,.73A17.87,17.87,0,0,0,21,42.16,10.68,10.68,0,0,0,18.64,47a1.83,1.83,0,0,0,0,1.1,2,2,0,0,0,1.29.9,7.49,7.49,0,0,0,2.22.52,7.48,7.48,0,0,0,1.37-.13l2.2-.34a1.16,1.16,0,0,0,.65-.36A2,2,0,0,0,27,47.16a.85.85,0,0,1,.08-.43,1,1,0,0,1,.33-.3,6,6,0,0,0,1.9-2.09.78.78,0,0,0,.12-.67.64.64,0,0,0-.63-.3c-.25,0-.49.09-.74.08,0-.53,0-1.06,0-1.59a1.92,1.92,0,0,0-.16-1,1.59,1.59,0,0,0-.95-.65A8.29,8.29,0,0,0,25,39.91Z"/><path class="cls-6" d="M27.83,41.15c.56-.05.83-.63.95-1.18a3.74,3.74,0,0,0,.08-.82,4.77,4.77,0,0,0-.71-2.66,2.9,2.9,0,0,0-2.32-1.34,4,4,0,0,0-1.26.25A11,11,0,0,0,20,38.24a8.07,8.07,0,0,0-2.22,4.87c0,.11,0,.24.09.29a2.49,2.49,0,0,0,1.47,1.44,2.74,2.74,0,0,0,2.16-.06,1.89,1.89,0,0,0,.84-.72,3.82,3.82,0,0,0,.34-1.27,1.68,1.68,0,0,1,.6-1.14,1.84,1.84,0,0,1,.69-.24q.92-.18,1.86-.27Z"/><path class="cls-3" d="M23.24,46a5.89,5.89,0,0,1,1.68.55,2.77,2.77,0,0,1-1.53.54,5.34,5.34,0,0,1-3.22-.3A5.91,5.91,0,0,1,23.24,46Z"/><path class="cls-6" d="M16.27,49.94a1.46,1.46,0,0,0-.56.65q-.5.9-.91,1.84c-.1.22-.26.18-.21.41a2.31,2.31,0,0,0,.47.85c.22.21.7.73.93.94a9.26,9.26,0,0,0,1.89,1.22,7.47,7.47,0,0,0,4.36.17,7.58,7.58,0,0,0,1.38-.56,3.84,3.84,0,0,0,1.93-1.77,4.53,4.53,0,0,0,0-2.47c-.26-.3-.39-.62-.66-.92a2.34,2.34,0,0,0-.67-.59,2.25,2.25,0,0,0-.75-.18,26.63,26.63,0,0,0-6.37,0C16.81,49.57,16.4,49.6,16.27,49.94Z"/><path class="cls-8" d="M22,57.15a1,1,0,0,0,.39-.19.78.78,0,0,0,.32-.47.63.63,0,0,0-.26-.58,1,1,0,0,0-.63-.18.79.79,0,0,0-.5.16.62.62,0,0,0-.16.21A.75.75,0,0,0,22,57.15Z"/><path class="cls-6" d="M22.7,46.07a.46.46,0,1,0,.46.46.47.47,0,0,0-.46-.46Z"/><path class="cls-6" d="M24.85,47.07a10.79,10.79,0,0,0-2.05.13,9.86,9.86,0,0,0-2.11,0,.21.21,0,0,0-.09.35c.5.58,1.52.47,2.21.42a3.58,3.58,0,0,0,2.11-.73c.06-.06,0-.14-.06-.15Z"/><path class="cls-6" d="M27.31,43.89c-.09.18.14.39.3.23s-.18-.47-.3-.23Z"/><g class="cls-14"><path class="cls-4" d="M28.4,41.42A4,4,0,0,0,28.63,40c-.12-.66-.64-1.23-.51-1.92s.75-1.5.54-2.36a0,0,0,0,0-.09,0c.08,1.05-.8,1.58-.86,2.52a1.55,1.55,0,0,0,.13.8,6.22,6.22,0,0,1,.42,2.35c0,.09.15.12.16,0Z"/><path class="cls-4" d="M29.39,39.81a4.49,4.49,0,0,0-.26-1.06,1.59,1.59,0,0,1-.06-.68,1.66,1.66,0,0,0,.1-.49c0-.07-.06-.15-.15-.15-.46,0-.55.59-.49,1a3.66,3.66,0,0,0,.64,1.46.11.11,0,0,0,.21-.06Z"/><path class="cls-4" d="M28.13,41.81a5.74,5.74,0,0,1-.71-4.48c.16-.59.78-1.07.76-1.71a2.47,2.47,0,0,0-.6-1.63c-.08-.09-.19,0-.18.1a4.74,4.74,0,0,1,.25,1.79A7.83,7.83,0,0,1,27.1,37a4.86,4.86,0,0,0-.19,2.15c.06.9.17,2.42,1.15,2.81.07,0,.11-.07.07-.12Z"/><path class="cls-4" d="M27.44,41.4a3.81,3.81,0,0,1-1.18-2.34A3.88,3.88,0,0,1,27,36.55a2.38,2.38,0,0,0-.55-2.78c-.07-.07-.23,0-.21.09.13,1,.83,1.61.21,2.72a4.18,4.18,0,0,0-.63,1.81c-.09,1,.35,2.9,1.55,3.18.09,0,.18-.1.1-.17Z"/><path class="cls-4" d="M26.61,41.52a20.87,20.87,0,0,1-1.5-1.71c-.75-1.14.16-2,.53-3a2.73,2.73,0,0,0-1.07-3.28.15.15,0,0,0-.21.16c.38,1.08,1.18,1.68.75,3a10.09,10.09,0,0,0-.8,2.18c-.12,1.2,1.3,2.34,2.21,2.82a.09.09,0,0,0,.1-.13Z"/><path class="cls-4" d="M25.94,41.91a15.59,15.59,0,0,1-2-2c-.9-1.22.11-2,.25-3.15s-.52-2.92-1.79-3c-.11,0-.13.12-.08.19.65.83,1.39,1.33,1.46,2.48.05.87-.7,1.56-.73,2.42,0,1.3,1.69,2.72,2.74,3.16.08,0,.17-.06.1-.13Z"/><path class="cls-4" d="M24.68,41.83a5.06,5.06,0,0,1-1.85-2,1.91,1.91,0,0,1-.12-2.11,5.63,5.63,0,0,0,.43-.74,2.89,2.89,0,0,0-1.48-3.27.13.13,0,0,0-.18.18c.49,1.13,1.85,1.72,1.17,3.17-.26.55-.7,1.08-.61,1.73.16,1.13,1.29,3.12,2.6,3.15a.07.07,0,0,0,0-.14Z"/><path class="cls-4" d="M24.25,42.61c-1.19-1.24-3.23-2.25-2.61-4.32.38-1.25.52-2.57-.64-3.48-.07-.06-.21,0-.18.1.37,1.09.89,1.74.49,3a3,3,0,0,0-.11,2c.37,1.34,1.84,2.25,3,2.84a0,0,0,0,0,.05-.07Z"/><path class="cls-4" d="M23.46,42.82a6.8,6.8,0,0,1-2.58-2.52,4.89,4.89,0,0,1-.32-2.81c.06-1.06-.08-2.79-1.45-2.91a.13.13,0,0,0-.09.22,3.28,3.28,0,0,1,.93,1.12,3.57,3.57,0,0,1,.13,1.33,9.17,9.17,0,0,0,0,2.18,4.61,4.61,0,0,0,3.38,3.49.05.05,0,0,0,0-.1Z"/><path class="cls-4" d="M23.13,43.08a7.24,7.24,0,0,1-2.71-1.63,4.22,4.22,0,0,1-.86-3.07c0-1.15.12-3-1.37-3.28a.13.13,0,0,0-.13.22,4.13,4.13,0,0,1,1,1.31,4.93,4.93,0,0,1,.12,1.75,5.59,5.59,0,0,0,.41,2.5c.53,1.09,2.19,2.57,3.5,2.29,0,0,0-.07,0-.09Z"/><path class="cls-4" d="M22.76,43.67a5.2,5.2,0,0,1-2.9-1.85c-.83-.95-.84-2.09-1.07-3.26s0-2.73-1.39-3.07a.1.1,0,0,0-.08.18c1.55,1.13.83,3.8,1.5,5.38a4.77,4.77,0,0,0,3.91,2.79c.1,0,.12-.15,0-.17Z"/><path class="cls-4" d="M22.79,44.32a1.41,1.41,0,0,0-.79-.15A3.68,3.68,0,0,1,19.87,43a5.86,5.86,0,0,1-1.33-1.43c-.32-.54-.52-1.21-.8-1.78-.8-1.6-1.85-3.21-3.79-2,0,0,0,.1,0,.08,2.76-1.16,3.32,2.92,4.55,4.46,1,1.3,2.54,2.4,4.24,2.14.05,0,.06-.09,0-.11Z"/><path class="cls-4" d="M21.95,45a4.23,4.23,0,0,1-2.79-1.7,4.48,4.48,0,0,0-1.92-1.46.12.12,0,0,0-.12.2c.43.41.92.73,1.37,1.12s.7.9,1.15,1.26a3.59,3.59,0,0,0,2.31.72.08.08,0,0,0,0-.15Z"/></g><path class="cls-2" d="M26.43,43.7a3.76,3.76,0,0,1-1.25.07,3,3,0,0,1-1.23-.38,3.26,3.26,0,0,1-1.06-1,1.19,1.19,0,0,1-.22-.44.91.91,0,0,1,.26-.79,1.65,1.65,0,0,1,.74-.41,2.93,2.93,0,0,1,3,.92c.09.11.2.24.35.24s.25-.15.33-.27a2.83,2.83,0,0,1,.62-.63c.17-.14.41-.35.63-.33s.57.47.54.84A2.09,2.09,0,0,1,28.31,43,4.91,4.91,0,0,1,26.43,43.7Z"/><g class="cls-15"><path class="cls-4" d="M28,43.81c-.64-.92.85-1.82,1.06-2.71a1.13,1.13,0,0,0-.67-1.34c-.06,0-.13.06-.09.12.78,1.11.08,1.66-.55,2.58a1,1,0,0,0,.15,1.42s.13,0,.09-.07Z"/><path class="cls-4" d="M27.44,44.18a3.54,3.54,0,0,1-.11-1.59,6,6,0,0,1,.55-1,1.19,1.19,0,0,0,.08-1.2s-.12,0-.12,0c.1.86-.61,1.36-.91,2.11a1.72,1.72,0,0,0,.4,1.77c0,.05.13,0,.11-.07Z"/><path class="cls-4" d="M27.39,44.67c-1.12-1.44-1.47-4.47-3.63-4.82a0,0,0,0,0,0,.09,6.11,6.11,0,0,1,2.06,2.42,7.76,7.76,0,0,0,1.55,2.38,0,0,0,0,0,.06-.06Z"/><path class="cls-4" d="M26.3,44.11c-1-1.61-1.67-3.57-3.66-4.25-.09,0-.14.09-.09.15a24.11,24.11,0,0,1,2.1,2,14.57,14.57,0,0,0,1.5,2.26c.08.07.21,0,.15-.12Z"/><path class="cls-4" d="M26.19,45.13A11.77,11.77,0,0,0,22,40.31a0,0,0,0,0-.05.07,35.35,35.35,0,0,1,4.08,4.83.08.08,0,0,0,.13-.08Z"/><path class="cls-4" d="M25.34,44.6c-1.19-1.1-2.17-2.37-3.29-3.52,0,0-.15,0-.12.07a6.12,6.12,0,0,0,1.26,1.67,15.58,15.58,0,0,0,2,1.92c.09.07.19-.08.12-.15Z"/></g><path class="cls-2" d="M14.86,38.61a2.51,2.51,0,0,0-.64.56,5.27,5.27,0,0,0-.9,2.89,5.82,5.82,0,0,0,.1,1.2,9.65,9.65,0,0,0,1.85,4.18,3.19,3.19,0,0,0,1.25,1.07,6.82,6.82,0,0,0,.68.21c.52.15,1,.4,1.54.55a2.15,2.15,0,0,0,1.6-.07,13.18,13.18,0,0,0-.84-5.46,15.22,15.22,0,0,0-1.56-3.59,4.48,4.48,0,0,0-1.07-1.21,2.28,2.28,0,0,0-1.52-.48A1.16,1.16,0,0,0,14.86,38.61Z"/><g class="cls-16"><path class="cls-4" d="M20.66,48.87a3.23,3.23,0,0,0-.59-2.57c-.5-.68-.81-1.17-.42-2.05a1.63,1.63,0,0,0,.19-1c-.29-1-1.29-1.44-1.5-2.53s.26-2.45-.42-3.41c-.07-.1-.27-.08-.25.07.1,1.08-.1,2.14.1,3.21a3.51,3.51,0,0,0,.31,1.16c.29.47.75.76,1.07,1.21s-.15,1.35-.3,1.93a1.38,1.38,0,0,0,.21,1,17.49,17.49,0,0,1,1.06,1.6c.2.5.08,1,.36,1.47a.09.09,0,0,0,.17,0Z"/><path class="cls-4" d="M20,49.3a2.84,2.84,0,0,0-.33-1.37c-.24-.65-.9-.94-1.28-1.49-.67-1,.13-1.7.28-2.62a1.23,1.23,0,0,0-.31-1,13.85,13.85,0,0,1-1.4-1.23c-.74-1,.2-1.69.24-2.62,0-.57-.26-1.87-1.1-1.73a.19.19,0,0,0-.11.27c.36.6.71.93.54,1.69A6.81,6.81,0,0,0,16,40.85c0,1,.89,1.66,1.61,2.1.94.57.32,1.22.09,1.94a1.91,1.91,0,0,0,.08,1.4,2.26,2.26,0,0,0,.71.95,4,4,0,0,1,1.33,2.09.06.06,0,0,0,.12,0Z"/><path class="cls-4" d="M18.78,49.18a6.07,6.07,0,0,0-.84-1.47c-.58-.77-1.31-1-1-2.18.19-.82.64-1.64-.22-2.23S14.89,42.14,15.06,41c.09-.57.53-1,.7-1.57a1.69,1.69,0,0,0-1-2.17.13.13,0,0,0-.15.19c.53.74,1,1.32.47,2.24a7.67,7.67,0,0,0-.58,1.16c-.3.91.48,1.88,1.16,2.37s1.14.79.79,1.83a2.58,2.58,0,0,0-.08,1.56,1.8,1.8,0,0,0,.65.86,13.27,13.27,0,0,1,1.62,1.71s.11,0,.09-.05Z"/><path class="cls-4" d="M17.09,48.55a2.65,2.65,0,0,1-1.27-3.11,1.7,1.7,0,0,0-.39-1.77c-.39-.43-.91-.65-1.28-1.13a2.14,2.14,0,0,1,0-2,2.44,2.44,0,0,0-.06-2.11.1.1,0,0,0-.19.05c-.11,2-1.49,4,.74,5.28,1.12.65.7,1.25.61,2.24a2.62,2.62,0,0,0,.17,1.4A2.44,2.44,0,0,0,17,48.79c.14,0,.16-.18.07-.24Z"/><path class="cls-4" d="M13.86,47.8a2.87,2.87,0,0,0,.9-2.69,2.64,2.64,0,0,0-2.69-1.69.11.11,0,0,0,0,.2c.94.41,1.87.54,2.31,1.6a3.17,3.17,0,0,1-.62,2.45.09.09,0,0,0,.13.13Z"/></g><path class="cls-12" d="M16,48.06H15a.64.64,0,0,0-.38.08.32.32,0,0,0-.13.26c0,.25.28.39.49.52a1.87,1.87,0,0,1,.37.3,1.58,1.58,0,0,1-.22.66c-.94,1.93-2.89,6.15-3.35,7a1.58,1.58,0,0,0-1.15-.35.19.19,0,0,0-.12.06c-.06.08,0,.19.11.25a6.23,6.23,0,0,0,.92.6c-.19.38-.31.57-.46.93,0,.08-.24.84.16.81s.74-.95.86-1.4a6.06,6.06,0,0,0,1,.42.21.21,0,0,0,.23-.34,1.32,1.32,0,0,0-.67-.46,71.8,71.8,0,0,0,3.88-6.67.42.42,0,0,1,.15-.19.14.14,0,0,1,.21.07s0,.13,0,.14c-.38,2.65-.88,5.22-1.5,7.82-.23,0-.46,0-.69-.08a.71.71,0,0,0-.37,0,.25.25,0,0,0-.18.28.33.33,0,0,0,.18.17,2.22,2.22,0,0,0,.95.14A4.47,4.47,0,0,0,15,60.35a.23.23,0,0,0,.44,0,7.78,7.78,0,0,0,.45-1.16,1.88,1.88,0,0,0,1,.35.16.16,0,0,0,.16-.19.58.58,0,0,0-.26-.37,1.65,1.65,0,0,0-.6-.23,44.1,44.1,0,0,1,2.76-7.89.11.11,0,0,1,.21,0,24.91,24.91,0,0,1,.42,4.1c0,1.27,0,2.9,0,4.25a.08.08,0,0,1-.08.08,3.46,3.46,0,0,0-1,0,.3.3,0,0,0-.19.11c-.09.15.1.31.26.36a3,3,0,0,0,.91,0,0,0,0,0,1,0,0c0,.24,0,.54,0,.77a.8.8,0,0,0,.05.39.28.28,0,0,0,.32.16c.13,0,.18-.21.2-.35a6.74,6.74,0,0,0,.08-1,0,0,0,0,1,0,0,4.72,4.72,0,0,0,.8,0,.51.51,0,0,0,.34-.13.26.26,0,0,0-.16-.42,1.89,1.89,0,0,0-.9.08,0,0,0,0,1,0,0c.55-4.31,1-8,1.49-8.33a.24.24,0,0,1,.35.14,36.55,36.55,0,0,1,1.29,5.41,9.64,9.64,0,0,1,.27,2.54.19.19,0,0,1-.17.17,2,2,0,0,0-.72.27.38.38,0,0,0-.16.15.29.29,0,0,0,.23.36.77.77,0,0,0,.47-.09,1.06,1.06,0,0,1,.47-.14c.07,0,.13.74.33,1.1.06.11.19.06.23-.06a2.26,2.26,0,0,0,0-1.07.1.1,0,0,1,.09-.12l.89-.11c.2,0,.46-.13.4-.32a.35.35,0,0,0-.45-.24c-.37.07-.59.13-1,.18-.09-3.15-.23-5.15-.48-8,0-.5.4-.45.53-.21.57,1,1.41,2.87,1.95,3.88S27.54,57,28.1,57.93a1.48,1.48,0,0,1,.18.52c0,.12,0,.17-.1.25l-.46.25c-.11.06-.18.23-.08.31a.23.23,0,0,0,.12,0,.9.9,0,0,0,.53-.2c.07,0,.51-.28.69.56a.54.54,0,0,0,.21.39c.29.18.51-.15.47-.4a1.56,1.56,0,0,0-.29-.55.67.67,0,0,1-.12-.59c.08-.2.28-.19.48-.29A.79.79,0,0,0,30,58a.19.19,0,0,0-.21-.29,1.25,1.25,0,0,0-.47.26c-.21.18-.47.38-.58.12-.86-1.9-1.29-3.39-2.05-5-.23-.51-.46-1-.67-1.54a1.87,1.87,0,0,1-.11-1.62,2,2,0,0,1,.59-.53A1.23,1.23,0,0,0,27,48.7a.52.52,0,0,0-.39-.64,13.93,13.93,0,0,0-3.66.15c-2.44.15-4.89-.34-7.32-.08Z"/><path class="cls-6" d="M26.49,48.39a.25.25,0,0,0,0,.49.25.25,0,0,0,0-.49Z"/><path class="cls-6" d="M25.64,48.37a.27.27,0,0,0,0,.54.27.27,0,0,0,0-.54Z"/><path class="cls-6" d="M24.63,48.37a.27.27,0,0,0,0,.53.27.27,0,0,0,0-.53Z"/><path class="cls-6" d="M23.78,48.41a.25.25,0,0,0,0,.51.25.25,0,0,0,0-.51Z"/><path class="cls-6" d="M22.74,48.43a.29.29,0,0,0,0,.58.29.29,0,0,0,0-.58Z"/><path class="cls-6" d="M21.76,48.48a.29.29,0,0,0,0,.58.29.29,0,0,0,0-.58Z"/><path class="cls-6" d="M20.85,48.47h0a.27.27,0,1,0,.24.41h0c.13-.18,0-.38-.23-.4Z"/><path class="cls-6" d="M19.9,48.46a.26.26,0,0,0,0,.52.26.26,0,0,0,0-.52Z"/><path class="cls-6" d="M18.92,48.33a.28.28,0,0,0,0,.55.28.28,0,0,0,0-.55Z"/><path class="cls-6" d="M18,48.31a.3.3,0,0,0,0,.59.3.3,0,0,0,0-.59Z"/><path class="cls-6" d="M17,48.31a.27.27,0,0,0,0,.54.27.27,0,0,0,0-.54Z"/><path class="cls-6" d="M16.08,48.33a.25.25,0,0,0,0,.5.25.25,0,0,0,0-.5Z"/><path class="cls-6" d="M15.28,48.32a.26.26,0,0,0,0,.53.26.26,0,0,0,0-.53Z"/><path class="cls-13" d="M24.89,50.73h0a.33.33,0,0,0,0,.46h0a.35.35,0,1,0,0-.49Z"/><path class="cls-13" d="M23,50.92a.43.43,0,1,0,.43.43.43.43,0,0,0-.43-.43Z"/><path class="cls-13" d="M20.29,51a.43.43,0,1,0,.43.43.43.43,0,0,0-.43-.43Z"/><path class="cls-13" d="M17.39,50.83h0a.42.42,0,0,0,.41.7h0a.42.42,0,1,0-.41-.7Z"/><path class="cls-13" d="M15.56,50h0a.39.39,0,0,0-.08.6h0a.4.4,0,1,0,.56-.56.4.4,0,0,0-.48-.06Z"/><path class="cls-6" d="M21.95,57.05a.27.27,0,0,0,0,.54.27.27,0,0,0,0-.54Z"/><path class="cls-6" d="M25.74,51.68h0a.26.26,0,0,0-.52,0h0a.26.26,0,0,0,.52,0Z"/><path class="cls-6" d="M23.12,51.86a.31.31,0,0,0,0,.61.31.31,0,0,0,0-.61Z"/><path class="cls-6" d="M20.22,52a.25.25,0,0,0,0,.51.25.25,0,0,0,0-.51Z"/><path class="cls-6" d="M17.43,51.74a.27.27,0,0,0,0,.54.27.27,0,0,0,0-.54Z"/><path class="cls-6" d="M15.41,50.86a.25.25,0,0,0,0,.5.25.25,0,0,0,0-.5Z"/><path class="cls-12" d="M13.68,32.93a.89.89,0,0,0,.17-.73A3.83,3.83,0,0,0,13.63,31a1.4,1.4,0,0,0-.83-.83,32.76,32.76,0,0,0-4.77.3,2.31,2.31,0,0,0-.64.15,1.63,1.63,0,0,0-.93,1.25,1.85,1.85,0,0,0,1,1.89,3.63,3.63,0,0,0,2.12.11,23.76,23.76,0,0,0,3.76-.78A.86.86,0,0,0,13.68,32.93Z"/><path class="cls-2" d="M14.34,34a2.94,2.94,0,0,1-.25,1.86,7.52,7.52,0,0,1-3.4,2.41,3.36,3.36,0,0,1-3.32-.64,3,3,0,0,1-.92-2.48,2,2,0,0,1,1.49-1.56A12.62,12.62,0,0,1,11,33.26c.85-.12,2-.54,2.75-.21C14.05,33.17,14.23,33.65,14.34,34Z"/><path class="cls-13" d="M9.54,37.68c-.67.41-1.52-.61-1.84-1.08a2.1,2.1,0,0,1-.41-1.19c0-.49.39-1,.92-.85a.48.48,0,0,1,.35.46c0,.16-.14.39-.14.46a1.5,1.5,0,0,0,.21.69,3.19,3.19,0,0,0,.91,1.12.22.22,0,0,1,0,.38Z"/><path class="cls-13" d="M10.61,37.2c-.45.08-.84-.71-1-1a1.26,1.26,0,0,1,.15-1.72c.39-.29,1,.28.67.67s.08.74.2,1,.46,1,0,1Z"/><path class="cls-13" d="M11.65,36.28a2.51,2.51,0,0,1-.25-.82,2.74,2.74,0,0,1-.13-.94.45.45,0,0,1,.88-.12,3.56,3.56,0,0,1,.14.94,1.69,1.69,0,0,1-.1.94.32.32,0,0,1-.54,0Z"/><path class="cls-13" d="M13.08,35.63a5.42,5.42,0,0,1,0-.77,6.29,6.29,0,0,0-.29-.9.32.32,0,0,1,.54-.31c.44.49.69,1.63.07,2.09a.18.18,0,0,1-.27-.11Z"/><path class="cls-8" d="M7.57,33a.14.14,0,0,1,0,.27.14.14,0,0,1,0-.27Z"/><path class="cls-8" d="M7,32.5a.08.08,0,0,1,0,.16.08.08,0,0,1,0-.16Z"/><path class="cls-8" d="M7.62,32.2a.16.16,0,0,1,0,.33.16.16,0,0,1,0-.33Z"/><path class="cls-8" d="M7.33,31.59a.11.11,0,0,1,0,.22.11.11,0,0,1,0-.22Z"/><path class="cls-8" d="M8.2,31.64a0,0,0,0,1,0,0,0,0,0,0,1,0,0Z"/><path class="cls-8" d="M8.26,31.6a.1.1,0,0,1,0,.2.1.1,0,0,1,0-.2Z"/><path class="cls-8" d="M8.34,32.93a.1.1,0,0,1,0,.21.1.1,0,0,1,0-.21Z"/><path class="cls-8" d="M8.71,32.34a.13.13,0,0,1,0,.27.13.13,0,0,1,0-.27Z"/><path class="cls-8" d="M7.86,30.73a.15.15,0,0,1,0,.3.15.15,0,0,1,0-.3Z"/><path class="cls-8" d="M8.95,31.12a.13.13,0,0,1,0,.27.13.13,0,0,1,0-.27Z"/><path class="cls-8" d="M9.4,31.77a.12.12,0,0,1,0,.23.12.12,0,0,1,0-.23Z"/><path class="cls-8" d="M9.56,32.66a.13.13,0,0,1,0,.26.13.13,0,0,1,0-.26Z"/><path class="cls-8" d="M10.49,32.83a.12.12,0,0,1,0,.24.12.12,0,0,1,0-.24Z"/><path class="cls-8" d="M10.38,32.08a.13.13,0,0,1,0,.25.13.13,0,0,1,0-.25Z"/><path class="cls-8" d="M11.07,32.39a.08.08,0,0,1,0,.16.08.08,0,0,1,0-.16Z"/><path class="cls-8" d="M10.17,31.24a.14.14,0,0,1,0,.28.14.14,0,0,1,0-.28Z"/><path class="cls-8" d="M9.69,30.58a.09.09,0,0,1,0,.18.09.09,0,0,1,0-.18Z"/><path class="cls-8" d="M8.58,30.52h0a.12.12,0,1,1,0,.17h0a.1.1,0,0,1,0-.14Z"/><path class="cls-8" d="M11,31.32a.12.12,0,0,1,0,.24.12.12,0,0,1,0-.24Z"/><path class="cls-8" d="M10.78,30.54a.1.1,0,0,1,0,.21.1.1,0,0,1,0-.21Z"/><path class="cls-6" d="M25.73,24.85a.44.44,0,0,0-.17-.1.25.25,0,0,0-.28.11.25.25,0,0,0,.09.34.31.31,0,0,0,.13.06c.22,0,.43-.23.24-.4Z"/><path class="cls-6" d="M13.56,37.87a.15.15,0,0,0,0,.3.15.15,0,0,0,0-.3Z"/><path class="cls-6" d="M18.36,34.5a.14.14,0,0,0,0,.27.14.14,0,0,0,0-.27Z"/><path class="cls-6" d="M23.31,27.77a.21.21,0,0,0,0,.43.21.21,0,0,0,0-.43Z"/><path class="cls-6" d="M18.21,37.8a.21.21,0,0,0,0,.43.21.21,0,0,0,0-.43Z"/><path class="cls-6" d="M25.5,28.79a.3.3,0,0,0,.07-.08.22.22,0,0,0-.38-.22v0l.08-.08,0,0a.22.22,0,1,0,.27.35Z"/><path class="cls-6" d="M24.13,26.17a.23.23,0,0,0,0,.45.23.23,0,0,0,0-.45Z"/><path class="cls-6" d="M28.16,23.13a.38.38,0,0,0,.17-.09c.18-.15-.05-.42-.24-.32h0a.21.21,0,1,0,.05.41Z"/><path class="cls-6" d="M23.68,23.92v0a.21.21,0,0,0-.36,0v0a.22.22,0,1,0,.38,0Z"/><path class="cls-6" d="M5.42,11.77c0,.1,0,.24,0,.35a2.91,2.91,0,0,0,0,.31,1.4,1.4,0,0,0,.42.91c-.23,0-.82,0-1.06,0a1.38,1.38,0,0,0,.42-.91,2.66,2.66,0,0,0,0-.31c0-.1,0-.25,0-.35Z"/><path class="cls-6" d="M5.35,12c.1,0,.16.11.33.3a1,1,0,0,0,.69.41.66.66,0,0,0,.55-.23,1.22,1.22,0,0,0,.19-.44A1.12,1.12,0,0,0,7,11.23.59.59,0,0,0,6.26,11c-.13.08-.17.17-.28.19a.05.05,0,0,1-.06-.06c0-.18.17-.2.23-.41A.61.61,0,0,0,5.9,10a1.18,1.18,0,0,0-1.22,0,.56.56,0,0,0-.25.67c.06.2.17.29.22.45a.07.07,0,0,1-.09.09c-.08,0-.13-.11-.24-.18a.59.59,0,0,0-.76.24,1.12,1.12,0,0,0-.1.84,1.25,1.25,0,0,0,.19.44.66.66,0,0,0,.55.23,1,1,0,0,0,.69-.41c.18-.19.24-.29.33-.3Z"/><path class="cls-6" d="M7.87,8.74H7.08L5.36,5.57,4,7.21V8.74H3.32V3H4V6.33L6.64,3h.78L5.86,5Z"/><path class="cls-6" d="M35.51,50.52c0-.1,0-.24,0-.35a2.67,2.67,0,0,0,0-.31,1.39,1.39,0,0,0-.42-.91c.24,0,.83,0,1.06,0a1.39,1.39,0,0,0-.42.91,2.66,2.66,0,0,0,0,.31c0,.1,0,.25,0,.35Z"/><path class="cls-6" d="M35.58,50.27c-.1,0-.16-.11-.33-.31a1,1,0,0,0-.69-.41.66.66,0,0,0-.55.23,1.27,1.27,0,0,0-.19.44,1.13,1.13,0,0,0,.09.84.59.59,0,0,0,.76.24c.13-.08.17-.17.28-.19a.05.05,0,0,1,.06.06c0,.18-.17.2-.23.41a.61.61,0,0,0,.25.76,1.18,1.18,0,0,0,1.22,0,.56.56,0,0,0,.25-.67c-.05-.2-.17-.29-.22-.45a.07.07,0,0,1,.09-.09c.08,0,.13.11.24.18a.59.59,0,0,0,.76-.24,1.12,1.12,0,0,0,.09-.84,1.27,1.27,0,0,0-.19-.44.66.66,0,0,0-.55-.23A1,1,0,0,0,36,50c-.18.2-.24.29-.34.31Z"/><path class="cls-6" d="M33.06,53.54h.79l1.72,3.17,1.32-1.64V53.54h.72v5.75h-.72V56l-2.6,3.33h-.78l1.56-2Z"/><path class="cls-2" d="M10.34,59.11H6.1a3.1,3.1,0,0,1-2.91-3.19V15.66a.09.09,0,0,1,.19,0V55.92a2.91,2.91,0,0,0,2.72,3h4.24a.09.09,0,1,1,0,.19Z"/><path class="cls-2" d="M32.78,59.11H30.36a.09.09,0,0,1,0-.19h2.42a.09.09,0,1,1,0,.19Z"/><path class="cls-2" d="M37.65,46.92a.09.09,0,0,1-.09-.09V6.36a2.92,2.92,0,0,0-2.82-3H30.66a.09.09,0,0,1,0-.19h4.08a3.11,3.11,0,0,1,3,3.19V46.82A.09.09,0,0,1,37.65,46.92Z"/><path class="cls-2" d="M10.61,3.36H8.45a.09.09,0,0,1,0-.19h2.17a.09.09,0,0,1,0,.19Z"/></g></g></svg>